<svg xmlns="http://www.w3.org/2000/svg" xmlns:xlink="http://www.w3.org/1999/xlink" viewBox="0 0 267.45 552.25"><defs><style>.cls-1{fill:#b08472;}.cls-2{fill:#b78447;}.cls-3{fill:#b3813e;}.cls-4{fill:#3b362f;}.cls-5{fill:#392b49;}.cls-6{fill:#74756c;}.cls-18,.cls-19,.cls-20,.cls-23,.cls-24,.cls-6,.cls-7,.cls-8{stroke:#1d1d1b;}.cls-10,.cls-13,.cls-18,.cls-19,.cls-20,.cls-23,.cls-24,.cls-6,.cls-7,.cls-8{stroke-miterlimit:10;}.cls-10,.cls-13,.cls-20,.cls-23,.cls-24,.cls-6,.cls-7,.cls-8{stroke-width:0.84px;}.cls-7{fill:#757568;}.cls-8{fill:#711515;}.cls-9{fill:#501314;}.cls-10{fill:#b38978;stroke:url(#linear-gradient);}.cls-11{fill:#3d1f1e;}.cls-12{fill:#261615;}.cls-13,.cls-15{fill:#a66972;}.cls-13{stroke:#3d1f1e;}.cls-14{fill:#492a35;}.cls-16{fill:#dedae9;}.cls-17{fill:#dbd7e7;}.cls-18,.cls-25{fill:#1d1d1b;}.cls-18,.cls-19{stroke-width:0.95px;}.cls-19{fill:none;}.cls-20{fill:#dcd8e7;}.cls-21{fill:#230e17;}.cls-22{fill:#aa5d60;}.cls-23{fill:#ae8475;}.cls-24{fill:#297d4d;}</style><linearGradient id="linear-gradient" x1="172.86" y1="305.99" x2="224.63" y2="262.54" gradientTransform="translate(84.2 -24.44) rotate(17.64)" gradientUnits="userSpaceOnUse"><stop offset="0" stop-color="#ac8271"/><stop offset="0.02" stop-color="#9b7566"/><stop offset="0.07" stop-color="#775a4e"/><stop offset="0.13" stop-color="#574139"/><stop offset="0.19" stop-color="#3b2d27"/><stop offset="0.26" stop-color="#251c19"/><stop offset="0.35" stop-color="#140f0d"/><stop offset="0.45" stop-color="#090706"/><stop offset="0.6" stop-color="#020101"/><stop offset="1"/></linearGradient></defs><g id="Layer_2" data-name="Layer 2"><g id="Layer_31" data-name="Layer 31"><path class="cls-1" d="M178.21,354.9c-3,2.5-5,4.14-8,4.35a11.3,11.3,0,0,0-3.37.82c-.27.15,0,3.78.17,4.35,2.11,5.6-4.38,21.52-9.18,35.93a22.72,22.72,0,0,1-1.77,4c-4.12,7.46-11.62,11.22-20.21,17.85-11.62,8.95-21.6,16.65-35.4,16.76a56.47,56.47,0,0,1-18.9-3.6c-4.16-1.66-5.64-2.92-13.22-6.78-7.75-3.95-12.58-5.87-15-7-11.63-5.41-24.72-18.68-31.15-35.17-2.56-6.58-8.16-24.88-1.57-38,3.7-7.37,14.53-13.92,15.74-14.76,1.86-1.28,3.55-1.57,6-2.48,3.37-1.27,4.83-1.7,7.68-3a17.17,17.17,0,0,0,5.27-4.08c1-1.11,3.35-4.17,1.76-16.94-.51-4.18-2.5-12.08-5.62-22.53-1.91-6.38-3.91-8.53-5-14.65a40.91,40.91,0,0,1-.47-10.47c0-.35.07-.68.1-1C47.47,247,54.47,238.65,57,236.13c12.07-12.17,32.88-2,71.69.57,45.11,3,55.3-8.18,64,1.56a19.87,19.87,0,0,1,3.28,5.15c3.4,7.54,3.73,18.3,2.58,30-2.15,21.82-9.45,46.78-11.4,59.63a41.24,41.24,0,0,0-.46,4.33c0,.29,0,.56,0,.81a19.12,19.12,0,0,1-.36,3.84A22.7,22.7,0,0,1,178.21,354.9Z"/><path class="cls-2" d="M136,95.71c.13-.48-8-11.86-8.62-12.53-.1-.1-1,2.36-1.3,2C104.61,61.44,110.73,65.32,89.87,48c-18.09-15-34.95-28.93-47.5-33.21C39,13.69,31.56,11.74,26.54,5.22c-2-2.61-3.25-5.45-4.11-5.2-1.59.46.26,11.1.47,12.29C27.82,40.46,50.52,65.1,53.1,68c0,0,13.79,14,27.93,23.72,3.77,2.58,8.34,3.68,13.46,4,5.42.38,8.36-.87,12.74-1.68C123.19,91.19,135.1,98.85,136,95.71Z"/><path class="cls-3" d="M126.14,85.25a21.37,21.37,0,0,0,2.25,5,22.34,22.34,0,0,0,4.33,5.21"/><path class="cls-4" d="M126.44,85.16a21.52,21.52,0,0,0,2.43,5.57,22.16,22.16,0,0,0,3.85,4.74,22.21,22.21,0,0,1-4.12-4.58,22.51,22.51,0,0,1-2.77-5.55Z"/><path class="cls-3" d="M111.23,91.39q-3.24-3.23-7-6.5A150.24,150.24,0,0,0,86,71.15"/><path class="cls-4" d="M111.23,91.39c-2.11-1.71-4.14-3.48-6.17-5.27S101,82.64,98.85,81s-4.24-3.33-6.38-5S88.13,72.77,86,71.15c1.2.64,2.35,1.35,3.52,2s2.28,1.46,3.41,2.21c2.25,1.51,4.42,3.14,6.54,4.83a77.82,77.82,0,0,1,6.11,5.36C107.47,87.49,109.39,89.41,111.23,91.39Z"/><path class="cls-5" d="M164.66,123.52c1.08-.5-1.28-5.68-6.07-11-7.06-7.8-8.41-8-11.67-9.32-5.77-2.31-14.35-1.72-27.17,4-32,14.17-30.2,13.75-31.46,14.52-14.43,8.82-22.72,15.72-38.38,35.23-20.23,25.2-17.48,38.88-16,43.5,2,6.45,4.14,4.5,5.77,5.39,11,6,24.76,1.1,32.61-4.76,8.85-6.61,7.14-12.37,16.66-27.67,3.42-5.51,14-16.55,25-25.33C137.12,129.38,158.32,126.44,164.66,123.52Z"/><path class="cls-6" d="M146.92,103.22c.37-1.09-10.2-7.33-15.4-9a55,55,0,0,0-26.06-1.75C84.3,95.76,67.5,108.31,61,113.72c-8,6.66-29.4,27.48-32.61,58.56-1.17,11.33,2.07,24.51,4.8,25.41,1.1.37.56-12.38,8.6-27.34,1.72-3.21,8.72-12.89,18.77-24.8a127.82,127.82,0,0,1,25.67-22.61C114.37,104.37,146.43,104.67,146.92,103.22Z"/><path class="cls-7" d="M205.66,154.72l-9.84-3.81a64,64,0,0,0-13.1-3c-6.75-.93-17.59,1.48-39.25,10.43-15.73,6.5-23.55,14.26-33.44,23.29C78.61,210.3,80.6,244.15,64,245.14c-7.42.44-15.52-5.9-16.84-12.24-2.29-11,16.62-14.06,29.47-42,6-13.15,11.41-17.54,21.14-28.72,7.51-8.63,15-13.09,29.83-22.91,15.4-10.18,27.28-14.13,43.77-16.68,6.51-1,19.46-3.49,31.44,2.55,3.41,1.72,7.22,3.11,7.46,6.27C211.12,142.26,208.56,149.57,205.66,154.72Z"/><path class="cls-8" d="M232.67,329.7c-6,6.68-10.74,13.38-17.8,21.92-1.75,2.11-3.64,4.34-5.73,6.7-3.24,3.66-7.8,16.38-10.06,15.88-.46-.11-.61-3.64-.69-3.83-.13-.37-1.92-1-3.49-.54-3.46.91-8.61,2.59-8.83,2.18-.62-1.21,1.4-4,.73-4.29-.86-.36-1.46.21-4,.45-2,.2-3.22.18-3.4-.16s3.85-5.21,6.64-13.16c.42-1.15.67-.19,2.46-11.8a15.81,15.81,0,0,0,0-6.68s0-.06,0-.09a9,9,0,0,0-1.38-3.26,23.4,23.4,0,0,0-5.31-5c-1.08-.84-2.34-1.81-3.75-2.73a22.44,22.44,0,0,0-5.44-2.69,13.75,13.75,0,0,0-6.19-.5c-1,.16-6-.64-6.86,1.82a5.74,5.74,0,0,0,.32,3.47h0a3.93,3.93,0,0,1,0,2.92c-.88,1.72-1.58,2.14-2.15,2.24-5,.86-10.38-3.07-11.84-4.62a26.27,26.27,0,0,1-6.56-14.11c-.3-2,.1-10,5.95-21.75a74.74,74.74,0,0,1,22.55-26.61,188,188,0,0,0,22.4-20c.24-.25.41-.44.49-.54,1.69-2-9.63,2.62-13.77,4.86-4.79,2.6-10.86,2.11-28.33,2.16a129.49,129.49,0,0,1-22.76-1.77c-2.65-.41-5.32-.82-8.36-1.19-1.09-.13-2.21-.25-3.41-.37-18.23-1.74-27.59-1.91-39.06,0-6,1-17.21,3.05-29,9.9a71.56,71.56,0,0,0-10.81,7.69,75.06,75.06,0,0,0-21.87,32.93,43.35,43.35,0,0,1-9.36-13c-5.53-11.91-3.68-23-.9-38.45,2.58-14.33,4.46-24.69,12.24-36.32A74.15,74.15,0,0,1,38.12,189.8c5.63-3.44,29.14-11.94,51.24-11.2,7.33.24,16.27,4.25,20.34,2.34,5.09-2.4,5.16-7.21,10.35-10.81,9.53-6.59,17.25-11.47,37.3-17.36,14.94-4.37,22.53-7.33,29.17-5.85,12.16,2.71,20.47,5.14,35.49,15.87,14.53,10.38,20.18,17,26.55,24.83,18.48,22.68,19.44,50.82,18,60.73C262,279.74,248.94,311.67,232.67,329.7Z"/><path class="cls-9" d="M210,222.85a15.92,15.92,0,0,1-.82,9.21,18.9,18.9,0,0,1-5.57,7.59,28.11,28.11,0,0,1-8.12,4.65,31.27,31.27,0,0,1-9,2,62.43,62.43,0,0,0,8.51-3.22,35.54,35.54,0,0,0,7.55-4.73,20.69,20.69,0,0,0,5.44-6.82A20.14,20.14,0,0,0,210,222.85Z"/><path class="cls-9" d="M51.23,194a85.1,85.1,0,0,0-10,4.11,75,75,0,0,0-9.34,5.43,73.8,73.8,0,0,0-8.5,6.67A89.36,89.36,0,0,0,15.79,218c1.05-1.48,2.19-2.89,3.37-4.27s2.46-2.68,3.76-4a62.47,62.47,0,0,1,18-12.2A58,58,0,0,1,51.23,194Z"/><path class="cls-9" d="M49.24,206.78a61,61,0,0,0-13.78,5.15,55.12,55.12,0,0,0-12,8.41A57,57,0,0,0,14,231.53a64.07,64.07,0,0,0-6.54,13.19,54.18,54.18,0,0,1,2.52-7,60.56,60.56,0,0,1,3.47-6.57,54.9,54.9,0,0,1,9.44-11.46,53,53,0,0,1,12.27-8.36A52.18,52.18,0,0,1,49.24,206.78Z"/><path class="cls-10" d="M204.4,321.45c-5.16,7.49-10.24,11.79-15.88,14.92-.61.34-1.23.67-1.86,1-1,.53-2.13,1-3.23,1.5-7.9,3.42-18.05-1.58-22.42-9.19a23.3,23.3,0,0,1-1.13-2.31h0a12.9,12.9,0,0,1-1.15-5.74,71.29,71.29,0,0,1,4.95-17.93c5.84-14.11,11.45-18.16,14.64-21.22a28.77,28.77,0,0,1,14.76-8,37.68,37.68,0,0,1,5.43-1,14,14,0,0,1,9.82,2.33c6.51,4.79,7.43,13.65,7.43,18.29C215.8,306,209,314.85,204.4,321.45Z"/><path class="cls-11" d="M195,287.71a47.82,47.82,0,0,0-7.39,5.7,42.81,42.81,0,0,0-6.08,7c-3.54,5-5.77,10.89-7.94,16.69a76.66,76.66,0,0,0-2.61,8.89c-.35,1.52-.62,3-.92,4.59a3.32,3.32,0,0,1-.11.41l-.07.14s0,0-.16.19a.83.83,0,0,1-.57.18.74.74,0,0,1-.44-.2.91.91,0,0,1-.17-.23.64.64,0,0,1-.06-.18,1,1,0,0,1,0-.26,3.89,3.89,0,0,1,0-.69,9.75,9.75,0,0,1,.17-1.24,12.94,12.94,0,0,1,.71-2.37,10.47,10.47,0,0,1,2.84-4,5.08,5.08,0,0,1,2.25-1.26,2.65,2.65,0,0,1,2.52.89,6.29,6.29,0,0,1,1.15,2.2,13.61,13.61,0,0,1,.52,2.34,9.35,9.35,0,0,1-.64,4.66,10.2,10.2,0,0,0,.2-4.59,8.62,8.62,0,0,0-1.83-4,1.76,1.76,0,0,0-1.72-.53,4.1,4.1,0,0,0-1.73,1.11,9.24,9.24,0,0,0-2.34,3.7,11.37,11.37,0,0,0-.54,2.14c-.05.37-.1.73-.12,1.09,0,.17,0,.35,0,.48v0a.42.42,0,0,0,0-.1,1.18,1.18,0,0,0-.15-.2.7.7,0,0,0-.41-.19.69.69,0,0,0-.54.17c-.17.17-.12.14-.14.16a.16.16,0,0,0,0,.07s0-.08,0-.16c.24-1.49.49-3.09.81-4.63a72.26,72.26,0,0,1,2.58-9.12c.53-1.48,1.13-2.95,1.72-4.4s1.2-2.9,1.88-4.33a43.48,43.48,0,0,1,4.89-8.15,42.49,42.49,0,0,1,6.58-6.82A41.1,41.1,0,0,1,195,287.71Z"/><path class="cls-12" d="M135,280.11c.22-1.37.06-1.71.28-3.32s.5-1.68.67-1.74c.39-.14.67.31,1.5.36.1,0,.64.28,1-.06.64-.69-.47-3.09-.72-3.64-2.12-4.66-1.88-6.67-3.14-12.57-.43-2-2.68-5.45-6.84-8a16.39,16.39,0,0,0-11.47-2,22.23,22.23,0,0,0-8,2.78,59.68,59.68,0,0,0-6.79,5.4c-4,3.43-3.3,3.67-3.59,4.22a14.27,14.27,0,0,0-1.39,8.27c.3,2.1.2,4.52,1.33,4.8.93.23,1.68-1.1,5-4.72.82-.91,2.79-3,5.09-5.15,2.63-2.38,4-3.27,5.36-3.79,1.78-.73,4.78-3.42,8.24-1.48,2.81,1.57,4.11,5.28,4.87,7,1.28,3,3.52,6.78,4.18,10.69.19,1.19,1.33,3,2.12,4.37.13.24.92,1,1.56.7S134.83,281,135,280.11Z"/><path class="cls-12" d="M76.43,268.67a13.77,13.77,0,0,0-.78-3.48c-.32-.89-.49-1.66-.69-2.19-.53-1.4-.68-2.13-3.62-5.28-3.76-4-4.21-4.41-5.12-4.89A7.9,7.9,0,0,0,62,251.65c-1.81.08-3.14,1-4.69,2.07a7.82,7.82,0,0,0-2.55,2.22c-.29.46-.7.81-1.35,5.18a11,11,0,0,0,.2,3.74c.1.5.48,1.07.79,1.11s.81-1,1.32-2.33c.83-2.16,1-2.52,1.69-3.27a4.18,4.18,0,0,1,2.32-1.32c1.7-.29,2.84.59,4.06,1.48a22.72,22.72,0,0,1,5.07,5.12c.31.4,1.08,1.73,2.33,3.27a13.15,13.15,0,0,0,2.68,3c.93.7,1.21.88,1.69.78C76.68,272.47,76.59,269.75,76.43,268.67Z"/><path class="cls-11" d="M104.54,330.08a33,33,0,0,1,6.18-4.06,41.59,41.59,0,0,1,6.89-2.75,24.6,24.6,0,0,1,7.39-.81,25.3,25.3,0,0,1,3.69.45,24,24,0,0,1,3.55,1,32.44,32.44,0,0,0-7.25-.82,26.59,26.59,0,0,0-7.16,1A50.65,50.65,0,0,0,111,326.6,53.58,53.58,0,0,0,104.54,330.08Z"/><path class="cls-11" d="M106.29,330.55c2.64-.53,5.28-.79,7.91-1.18,1.31-.19,2.63-.33,4-.49l2-.2a20.35,20.35,0,0,1,2.07-.11,27.13,27.13,0,0,1,8,1.39,37.45,37.45,0,0,1,7.36,3.23c-2.59-.68-5.14-1.41-7.7-2a36.89,36.89,0,0,0-7.7-1,17.41,17.41,0,0,0-1.91.06l-2,.15c-1.33.07-2.66.17-4,.21A69.11,69.11,0,0,1,106.29,330.55Z"/><path class="cls-11" d="M89.42,333.09a43.53,43.53,0,0,0-5.16-3.1,47.44,47.44,0,0,0-5.57-2.29,14.08,14.08,0,0,1,6,1.53A13.92,13.92,0,0,1,89.42,333.09Z"/><path class="cls-11" d="M104.73,370.07c3.15,1.33,6.25,2.74,9.34,4.16a59.62,59.62,0,0,0,9.6,3.35,30.09,30.09,0,0,1,4.86,1.76,18.33,18.33,0,0,1,4.3,2.92,24.63,24.63,0,0,1,3.41,3.88,28.92,28.92,0,0,1,2.5,4.48,28.53,28.53,0,0,0-6.34-7.87,20.13,20.13,0,0,0-4.2-2.72,30.48,30.48,0,0,0-4.77-1.64,54,54,0,0,1-9.62-3.57C110.76,373.27,107.72,371.71,104.73,370.07Z"/><path class="cls-11" d="M122.68,377.73a21.08,21.08,0,0,1,3.71,3.22c.57.58,1.15,1.17,1.69,1.78a18.29,18.29,0,0,1,1.59,1.91A20,20,0,0,1,132.1,389a18.6,18.6,0,0,1,1.27,4.77,39.56,39.56,0,0,0-1.89-4.48,31.37,31.37,0,0,0-2.48-4.13c-.92-1.3-2-2.51-3-3.78A38.69,38.69,0,0,0,122.68,377.73Z"/><path class="cls-11" d="M36.76,378.6a11.61,11.61,0,0,1-3.17-8,11.39,11.39,0,0,1,1-4.41A14.24,14.24,0,0,1,37,362.39a14,14,0,0,1,3.49-2.84,37.46,37.46,0,0,0,3.7-2,20.29,20.29,0,0,0,5.66-6.09A15.28,15.28,0,0,1,45,358.63a27.07,27.07,0,0,1-3.68,2.3,13.16,13.16,0,0,0-3,2.6,12.27,12.27,0,0,0-3.37,7.11A13.67,13.67,0,0,0,36.76,378.6Z"/><path class="cls-13" d="M86.2,351.75a7.73,7.73,0,0,1-1.32,1.3c-.73.57-2.85,2.21-5.35,1.9-2.35-.28-3.34-2.07-6-2.08-1.45,0-1.61.54-3.22.87-5.38,1.15-9.14-3.6-12.31-1.77-1,.6-1.16,1.41-2.31,1.59-1.69.27-3.22-1.19-3.78-1.71-4.34-4.12-3.64-12.28-3.53-13.33.32-3.25.79-8.12,4.68-11.23,2.75-2.19,5.84-2.41,8.35-2.59,6.07-.43,10.72,1.77,14.34,3.53,6,2.94,9.74,4.75,11.72,9,.06.14.13.28.18.42a20,20,0,0,0-2.25,6.75A18.46,18.46,0,0,0,86.2,351.75Z"/><path class="cls-11" d="M114.37,368.55a22,22,0,0,1-12.86.28,22.33,22.33,0,0,1-6-2.75,23,23,0,0,1-4.93-4.41,26,26,0,0,1-3.51-5.59c-.47-1-.81-2-1.18-3.06a15.82,15.82,0,0,1-.86-3.19,17.34,17.34,0,0,1,.13-6.58,22.18,22.18,0,0,1,2.66-5.9A25.63,25.63,0,0,0,86,343.41a17.73,17.73,0,0,0,.34,6.16,29.08,29.08,0,0,0,5.56,11,22.86,22.86,0,0,0,10,7A25.68,25.68,0,0,0,114.37,368.55Z"/><ellipse class="cls-14" cx="56.01" cy="349.68" rx="1.09" ry="3.24" transform="translate(-139.96 54.71) rotate(-24.5)"/><ellipse class="cls-14" cx="72.58" cy="350.67" rx="1.45" ry="3.13" transform="translate(-250.46 196.13) rotate(-52.74)"/><path class="cls-15" d="M49.08,407.61c1.75,3,3.71,6.12,5.9,9.32q2.21,3.22,4.4,6.1"/><path class="cls-11" d="M49.08,407.61a32.82,32.82,0,0,1,3,3.57c.93,1.23,1.79,2.51,2.62,3.8s1.67,2.58,2.46,3.91A31.89,31.89,0,0,1,59.38,423a32.4,32.4,0,0,1-3.25-3.38c-.52-.58-1-1.21-1.48-1.81s-.87-1.29-1.31-1.93c-.82-1.32-1.62-2.65-2.34-4A32,32,0,0,1,49.08,407.61Z"/><path class="cls-11" d="M58.88,412.27a31.14,31.14,0,0,0,2.76,7.15,21.56,21.56,0,0,0,4.3,6.13,19.49,19.49,0,0,0,13.52,5.15,23.84,23.84,0,0,0,7.34-1.14,25.84,25.84,0,0,0,6.74-3.23,29.74,29.74,0,0,0,9.69-11.53,26.24,26.24,0,0,1-8.93,12.6,25,25,0,0,1-14.84,5,22.47,22.47,0,0,1-7.83-1.47A18,18,0,0,1,65,426.48a20.89,20.89,0,0,1-4.11-6.72A27.61,27.61,0,0,1,58.88,412.27Z"/><path class="cls-11" d="M103.48,418.17A5,5,0,0,1,102,421a3.57,3.57,0,0,1-1.5.84,10.81,10.81,0,0,1-1.59.28,7.11,7.11,0,0,1,1.34-.87,5.42,5.42,0,0,0,1.15-.84C102.09,419.72,102.72,419,103.48,418.17Z"/><ellipse class="cls-16" cx="70.54" cy="308.89" rx="5.67" ry="17.22" transform="translate(-33.47 9.6) rotate(-6.3)"/><ellipse class="cls-17" cx="100.38" cy="310.59" rx="21.27" ry="8.94" transform="translate(-224.04 346.58) rotate(-78.42)"/><ellipse class="cls-18" cx="71.04" cy="320.24" rx="2.87" ry="5.35" transform="translate(-95.18 37.45) rotate(-17.94)"/><path class="cls-18" d="M100.89,326.55c.29,2.47-3.91,4.94-5.79,3.86-1.62-.92-4-7-3.11-8.78,1-2.26,1.32-3.22,3.6-2.85C98.17,319.19,100.72,325.06,100.89,326.55Z"/><path class="cls-19" d="M96.72,382.21a8,8,0,0,1-.37.83"/><path class="cls-20" d="M73.71,396.85l-1.39-.23a28.7,28.7,0,0,1-8.55-2.91A19.73,19.73,0,0,1,58,389a22.64,22.64,0,0,1-4.64-10.41,31,31,0,0,1-.2-7.87,14.9,14.9,0,0,1,3.44-.16c4.11.24,6.57,1.33,10.29,3.16a26,26,0,0,0-.35,5.92,19.18,19.18,0,0,0,1.93,6C70.26,389.56,72.34,394,73.71,396.85Z"/><path class="cls-20" d="M96.35,383c-.61,1.21-1.65,2.78-2.58,4.28-1.06,1.74-3.41,5.55-7.3,7.77-4.39,2.5-9,2.35-12.76,1.76-1.37-2.84-3.45-7.29-5.25-11.17a19.18,19.18,0,0,1-1.93-6,26,26,0,0,1,.35-5.92A85.89,85.89,0,0,0,81.22,379C89.64,381.45,94.3,382.81,96.35,383Z"/><path class="cls-21" d="M112.48,381.36c-2.59,2.85-4,3.06-7.29,5.93A36.63,36.63,0,0,0,99,394a44.11,44.11,0,0,0-3.75,7l-.15.32c-.74-.57-2.8-2.16-4.41-2.25-1.77-.11-3.16.62-5.75,2-3.24,1.77-3,2.12-4.33,2.48-.76.22-2.38-1.93-6.45-1.44-1.38.16-4.82,2.84-7,5.93-.58-2.25-1.1-5-1.78-8.47-.31-1.54-1.23-4.47-1.62-6a28.7,28.7,0,0,0,8.55,2.91l1.39.23c3.75.59,8.37.74,12.76-1.76,3.89-2.22,6.24-6,7.3-7.77.93-1.5,2-3.07,2.58-4.28a3.45,3.45,0,0,0,.62,0c10.31-.26,18.13-7.19,18.56-6.59C115.83,376.89,113.18,380.59,112.48,381.36Z"/><path class="cls-19" d="M63.77,393.71c-.07-.3-.13-.55-.16-.72"/><path class="cls-22" d="M95.11,401.41c-2.88,6-4.42,8.93-5.71,10.54-1.49,1.85-6.3,7.81-12,7.05-3.32-.43-5.8-2.71-7.26-4.39a15.3,15.3,0,0,1-2.93-6.44c2.18-3.09,5.62-5.77,7-5.93,4.07-.49,5.69,1.66,6.45,1.44,1.28-.36,1.09-.71,4.33-2.48,2.59-1.42,4-2.15,5.75-2C92.31,399.25,94.37,400.84,95.11,401.41Z"/><path class="cls-19" d="M45.89,376a10.55,10.55,0,0,1,3.51-3.82,10.11,10.11,0,0,1,3.75-1.45"/><path class="cls-23" d="M214.35,394.27c-9.49,26.33-16,30.72-19.41,32.07-3.06,1.21-5.88-1.54-9.35-1.74-10.11-.59-20-4.15-22.28-6-4.25-3.44-5.11-10.21-7-13.64a23.91,23.91,0,0,0,1.77-4c4.79-14.4,11.28-30.33,9.18-35.93-.22-.56-.45-4.19-.18-4.35a12,12,0,0,1,3.37-.82c2.92-.21,4.91-1.84,7.95-4.35a22.66,22.66,0,0,0,8.08-12.9,19.93,19.93,0,0,0,.36-3.83c0-.26,0-.53,0-.82.63-.31,1.25-.63,1.85-1a15.6,15.6,0,0,1,0,6.68c-1.8,11.62-2,10.66-2.46,11.81-2.8,7.95-6.88,12.7-6.65,13.16s1.4.36,3.41.16c2.49-.24,3.08-.81,3.94-.46.67.27-1.35,3.08-.72,4.29.21.41,5.36-1.26,8.82-2.17,1.57-.42,3.37.16,3.5.53.07.19.23,3.72.68,3.83,2.27.5,6.82-12.22,10.07-15.88,2.09-2.36,4-4.59,5.72-6.7.33,1,1.67,5.39,2,7.14,1,5.2.64,10-.88,16.9S216,389.56,214.35,394.27Z"/><path class="cls-24" d="M215.5,354.38c-.54,6.54,1.56,13,.17,24.46-2.67,22-12.56,35.71-17.06,40.64-1.41,1.54-3.78-2-7.08-2.37-3.47-.42-3.44,1.39-7.82,1.41a48.81,48.81,0,0,1-7.16-.67c-5.16-.57-5.91,1.24-9.08.67-6.08-1.11-7.81-12.8-9.88-12.43s.68,11.35-4.74,16c-2.93,2.52-6.88.59-10.28,1.89-16.71,6.37-34.71,20.65-36.29,22.83-5.34,7.39-7.24,14.13-9.74,23C94.24,478,92.38,485,94.2,493.54c1.21,5.73,1.7,11.48,6.25,14,4.1,2.28,9,.58,12.28-.57,6.88-2.4,7.09-5.24,20.56-16.84,7.67-6.6,10.56-8.23,12.08-13,1-3.19,1.36-7.6,2.79-7.71.93-.07,1.07,1.77,3.17,3.07s3.66.32,6.07,1.59c1.78.94,1.36,1.72,3.38,3.48,3.59,3.13,6.81,2.3,7.88,4.57.85,1.8-.41,4-.86,4.88-2.92,5.72-1.12,13.61,1.87,26.72,1.84,8.09,4,17.33,10.72,27.13,3.42,5,6.21,9,11.2,10.44,4.27,1.24,9.35.4,17.72-4.68C226.56,536.17,235.94,521,240.75,513c6.1-10.14,1.75-6,14.17-32.62,2.17-4.65,4.26-9,3.63-14.66-1.13-10.17-10-16.76-10.47-17.08-8-5.79-15.91-5.75-16.78-8.09-1.12-3,2.74-5.51,6.39-11.37,4.41-7.1,5.26-13.55,6.42-22.37.84-6.4,2.25-18.15-2.37-31.69-2-6-14.26-22.53-17.63-22.8C223.18,352.23,216.24,345.56,215.5,354.38Z"/><path class="cls-25" d="M220.06,350.94a40.33,40.33,0,0,1,6.78,10.19,45.66,45.66,0,0,1,3.64,11.77,51.73,51.73,0,0,1,.5,12.3,52.39,52.39,0,0,1-2.36,12c.28-2,.57-4,.71-6s.29-4,.33-6a67.26,67.26,0,0,0-.84-12,56.53,56.53,0,0,0-3.19-11.53A60.24,60.24,0,0,0,220.06,350.94Z"/><path class="cls-25" d="M190.73,428.7a34,34,0,0,0,9.72,3.12,50.23,50.23,0,0,0,10.2.14A25.41,25.41,0,0,1,221,434a33,33,0,0,1,8.86,5.56,54.11,54.11,0,0,0-9.32-4.32,28.68,28.68,0,0,0-9.9-1.59c-1.69,0-3.44.15-5.2.1a25.91,25.91,0,0,1-5.27-.63A24.56,24.56,0,0,1,190.73,428.7Z"/><path class="cls-25" d="M115.14,470.09a23.89,23.89,0,0,1,3.47-7.81,26.93,26.93,0,0,1,6-6.26A28.21,28.21,0,0,1,132.2,452a27.25,27.25,0,0,1,8.4-1.61,54,54,0,0,0-7.9,2.84,36.62,36.62,0,0,0-7.1,4.19,34.33,34.33,0,0,0-5.93,5.69A41.6,41.6,0,0,0,115.14,470.09Z"/><path class="cls-25" d="M192.7,494.58a18.53,18.53,0,0,1-5.8-3.3,16.22,16.22,0,0,1-4.09-5.42,20.08,20.08,0,0,1-1.69-6.61c-.24-2.25-.14-4.5-.23-6.65A62.73,62.73,0,0,0,179,459.7,103.44,103.44,0,0,0,175,447.17c1.12,1.91,2.09,3.91,3,5.92a59.43,59.43,0,0,1,2.33,6.26,50.81,50.81,0,0,1,2.28,13.19c0,2.26,0,4.43.12,6.58a20.57,20.57,0,0,0,1.32,6.22A18.18,18.18,0,0,0,192.7,494.58Z"/><path class="cls-25" d="M182.79,419.24a19,19,0,0,0-5.4-1.12,17.78,17.78,0,0,0-5.43.62,38.8,38.8,0,0,0-10.07,4.31,46.5,46.5,0,0,0-8.66,6.66,43.37,43.37,0,0,0-6.87,8.47,32.38,32.38,0,0,0-4,10.07,27.44,27.44,0,0,0-.83,10.75,16.8,16.8,0,0,0,4.93,9.4,22.26,22.26,0,0,0,9.5,5.39A21.48,21.48,0,0,1,145.89,469a17.76,17.76,0,0,1-5.65-9.77,27.22,27.22,0,0,1,.56-11.34,33.51,33.51,0,0,1,4.11-10.58,44.35,44.35,0,0,1,7.2-8.74,43.7,43.7,0,0,1,9.14-6.65,39.65,39.65,0,0,1,10.54-4,18.72,18.72,0,0,1,5.64-.26A17.08,17.08,0,0,1,182.79,419.24Z"/><path class="cls-25" d="M151.47,460.16a33,33,0,0,0,5.46,12.36,27.12,27.12,0,0,0,4.6,4.86,36.56,36.56,0,0,0,5.72,3.78,18.48,18.48,0,0,1-6.5-2.72,20.53,20.53,0,0,1-5.18-4.92,22.89,22.89,0,0,1-1.89-3.06,22.38,22.38,0,0,1-1.32-3.31A19.58,19.58,0,0,1,151.47,460.16Z"/><path class="cls-25" d="M164.59,443.36a29.9,29.9,0,0,1,3.87-11.42,24.5,24.5,0,0,1,4.16-4.54c1.48-1.37,3-2.65,4.55-3.95s3.09-2.52,4.65-3.78l2.35-1.85a12.56,12.56,0,0,1,2.68-1.69,5.56,5.56,0,0,1,3.28-.37,7.28,7.28,0,0,1,3,1.13,9,9,0,0,1,2.21,2.18,8.21,8.21,0,0,1,1.37,2.7,9.78,9.78,0,0,0-4-4.13,6.38,6.38,0,0,0-2.67-.73,4.28,4.28,0,0,0-2.56.46,33.48,33.48,0,0,0-4.59,3.56l-4.6,3.82c-1.55,1.25-3.07,2.54-4.58,3.82a28.88,28.88,0,0,0-4.12,4.07A39.09,39.09,0,0,0,164.59,443.36Z"/><path class="cls-25" d="M196,423c-3.78,2.88-7.36,6-10.87,9.16a38.49,38.49,0,0,0-8.62,10.88,48.29,48.29,0,0,0-2.77,6.43c-.83,2.22-1.59,4.44-2.23,6.7A76.64,76.64,0,0,0,169,470.15a52,52,0,0,1,1.2-14.26,67.5,67.5,0,0,1,2-6.91A47.82,47.82,0,0,1,175,442.3a34.27,34.27,0,0,1,4.07-6.05,41.14,41.14,0,0,1,5.19-5A83.71,83.71,0,0,1,196,423Z"/><path class="cls-25" d="M175.12,451.52c-.4,2.54-.91,5-1.42,7.51l-1.55,7.43-1.61,7.41c-.55,2.48-1.11,5-1.78,7.43a59.3,59.3,0,0,1,.48-7.65c.29-2.53.74-5,1.26-7.55s1.17-5,1.93-7.4A60.29,60.29,0,0,1,175.12,451.52Z"/></g></g></svg>