<svg xmlns="http://www.w3.org/2000/svg" viewBox="0 0 479.09 383.39"><defs><style>.cls-1{fill:#fefae0;}.cls-2{fill:#fff;}.cls-10,.cls-11,.cls-12,.cls-13,.cls-14,.cls-2,.cls-3,.cls-4{stroke:#1d1d1b;}.cls-10,.cls-11,.cls-12,.cls-13,.cls-14,.cls-2,.cls-3,.cls-4,.cls-7{stroke-miterlimit:10;}.cls-11,.cls-2{stroke-width:2px;}.cls-3,.cls-8{fill:#1d1d1b;}.cls-14,.cls-4,.cls-7{fill:none;}.cls-5{fill:#f29698;}.cls-13,.cls-6{fill:#020304;}.cls-7{stroke:#e30613;}.cls-9{fill:#878787;}.cls-10,.cls-11{fill:#f9df7e;}.cls-10{stroke-width:2px;}.cls-12{fill:#bebcba;}.cls-14{stroke-linecap:round;}</style></defs><g id="Layer_2" data-name="Layer 2"><g id="猫"><path class="cls-1" d="M217.76,283.22c-.23,1.23,16.28,8,24.32,23.26,3.71,7.06,3,13.23,2.92,16.34a29.77,29.77,0,0,1-5.26,18.29c-7.53,11.4-17.79,16.43-30.55,20.24-5.71,1.71-19.89,6.78-40.55,5.54q-4.72-.28-9.13-.87a133,133,0,0,1-44.06-13.52c-20.1-10.57-31.86-22-52.2-46.61a148.74,148.74,0,0,1-23.16-40.28c-1.76-4.64-2.09-12.48-.33-20.14a29.12,29.12,0,0,1,7.78-13.82c3-2.93,3.77-3,14.46-9.14a50.25,50.25,0,0,0,12.34-9.63c3.1-3.21,4.58-9.14,7.59-16.15,3.64-8.5,4.93-10.77,7.39-18.2,4.78-14.42,7.87-22.14,20-38.24,2.62-3.5-1.79.42,16.64-20.24a4.3,4.3,0,0,1,1.22-.66,28.14,28.14,0,0,1,6.32-1.83c2.1-.22,3.28.07,3.74.94,1.8,3.35,1.8,7.86,1,15.08-1.18,10.21-.36,16,.87,28.31.38,3.81,1.38,9.09,4.87,12.46a15.49,15.49,0,0,0,6.51,3.3c5.89.37,15.06-2,24.45-5.61,9.64-3.72,10.76-4.83,19.66-9.5,1.33-.69,23.5-12.43,45.15-2.85a29.45,29.45,0,0,1,13.88,12.84c2.25,4,5.44,6.67,5.37,19.49-.07,14.58-2.24,21.19-3.94,28.9-3,13.3-7.76,22.66-18.94,40.61-7.43,11.92-9.79,15.35-13.18,17.41C219.9,280.74,218,282.17,217.76,283.22Z"/><path class="cls-2" d="M66.36,229.38a17.29,17.29,0,0,0-7.2,3.12c-5.43,4.06-6.73,10.41-8,16.54-1.09,5.3-1.79,8.76-.39,12.84s3.44,4.69,6.42,9.73c1.56,2.64,2.56,5.1,4.48,11.67,3.29,11.33,3.59,15.28,6.22,25.3,2.4,9.15,3.6,13.73,6,18.29,2.57,4.84,6.09,11.44,13.81,16a30.71,30.71,0,0,0,17.9,4.28c9.34-.82,15.58-6.3,24.33-14.2,12.74-11.52,11.87-16.44,20.63-20.83,10.67-5.35,16-8,17.31-8.17a3.49,3.49,0,0,0,2.53-1.17c1.67-2.28-1.55-7.27-2.91-9.34-5.77-8.75-13.89-14.39-17.32-16.73-17.74-12.1-21.16-12.05-27.25-19.07-5.54-6.39-5.17-9.27-8.75-14C108.5,236,96.14,228.25,66.36,229.38Z"/><path class="cls-3" d="M109.59,134.74c-3.76-4.54-.92-24.59,2.33-37.36,10.46-41,29.88-63.72,36.78-71.22,10.67-11.61,24.5-20.07,34.19-17.39,10.3,2.86,12,18.12,13.49,29.84,1.23,9.76.29,14.63,3.76,21.41,3.76,7.34,7,7.29,14.27,17,2.43,3.24,10.14,10.8,7.13,15.57-2.25,3.58-8.25,3.37-11.54,3,0,0-24.42-2.4-59,11.09C124.14,117.23,114.29,140.42,109.59,134.74Z"/><path class="cls-4" d="M31.85,155.23a11,11,0,0,0,2.57.07"/><path class="cls-5" d="M124.59,318.18c-5.44,6-8.79,10.63-16.69,12.47a23.07,23.07,0,0,1-13-.2c-6.62-2.28-11.23-8-14.49-14.9,2.36-1.45,10.24-5.33,15-5.11,1.82.09,4.36.21,5.65,1.95a8.83,8.83,0,0,1,1.36,4.28,14.57,14.57,0,0,1,4.47-3.5c2.61-1.21,5.43-.24,10.12,1.36A56.86,56.86,0,0,1,124.59,318.18Z"/><path class="cls-6" d="M159.86,294.65c.39,1-12.2,4-24.91,13.81a76.56,76.56,0,0,0-10.36,9.72,56.86,56.86,0,0,0-7.61-3.65c-4.69-1.6-7.51-2.57-10.12-1.36a14.57,14.57,0,0,0-4.47,3.5,8.83,8.83,0,0,0-1.36-4.28c-1.29-1.74-3.83-1.86-5.65-1.95-4.77-.22-12.65,3.66-15,5.11-4.76-10-6.68-22.46-7.88-30.24a117.17,117.17,0,0,1-1.37-18.1c.69,4.85,3.32,18.65,15,27.63,10.94,8.42,23.89,8,31.72,7.78,10.72-.32,23.41-3.57,30.74-5.44C155,295.54,159.62,294,159.86,294.65Z"/><path class="cls-3" d="M111.7,136c-1.46,1-4,.46-8,2-5.31,2.06-10,2.46-14.79,3.18-10.18,1.53-15.26,2.3-17.38,2.85-8.31,2.2-15.84,4.18-19.46,10.38-2.18,3.73-1.48,6.47-4.67,9.08-2.62,2.14-4.63,1.56-9.34,2.86-2.49.68-10.24,2.34-14.27,8.3-3.74,5.53-4.31,13.62-3.12,14.79.79.77,1.57.23,4.93.26,2.39,0,6.85.06,10.38,1.82,4.21,2.09,7.06,6.58,6.23,7.78-.63.92-3-.72-8.3-.78a20.51,20.51,0,0,0-8.31,2.34c-.51.27-4,3.81-.25,4.15,2.12.19,4.06,2.32,4.41,2.59,6.85,5.37,10.47,21.09,17.6,22.6,1.79.38,0,0,7-3.92,7.69-4.26,11.33-5.26,14-6.74,10.31-5.68,12.49-21.66,13.75-28.28,2.5-13.2,9.49-31.92,29.57-55.27"/><path class="cls-3" d="M375.51,234.07c-2.59,4.68-4.62,8.3-4.67,13.5a22.18,22.18,0,0,0,4.41,13.23,22.73,22.73,0,0,0,10.9,7.52c10.92,3.78,20,1.83,21.26,2.79s.1,6.41-2.14,9.05c-1.56,1.83-1.93,1.87-3,3.73-1.72,2.9.3,4.77-1.24,8.37-1.69,3.95-2.62,4.62-6.07,7.33-4.19,3.3-5.34,2.33-6.48,3.6-.92,1,1.63,16.19.39,21.24-.49,2-1.72.65-2.69,4.86-1.17,5.09.83,10-.44,10.85-1,.72-2.68-3.68-8-6.17a23.65,23.65,0,0,0-9-1.56c-4.56.15-8.21,2.35-14.73,9.34-12.2,13.08-12.68,14.84-17.71,18.94-4.54,3.71-8.22,6.45-17.12,10.38a222.42,222.42,0,0,1-28.54,10.12c-17.31,4.51-66.67.18-128.56-14.73q4.41.59,9.13.87c20.66,1.24,34.84-3.83,40.55-5.54,12.76-3.81,23-8.84,30.55-20.24a29.77,29.77,0,0,0,5.26-18.29c.1-3.11.79-9.28-2.92-16.34-8-15.28-24.55-22-24.32-23.26.19-1.05,2.14-2.48,5.11-4.28,3.39-2.06,5.75-5.49,13.18-17.41,11.18-18,16-27.31,18.94-40.61,1.7-7.71,3.87-14.32,3.94-28.9.07-12.82-3.12-15.52-5.37-19.49a29.45,29.45,0,0,0-13.88-12.84c-21.65-9.58-43.82,2.16-45.15,2.85-8.9,4.67-10,5.78-19.66,9.5-9.39,3.63-18.56,6-24.45,5.61a15.49,15.49,0,0,1-6.51-3.3c-3.49-3.37-4.49-8.65-4.87-12.46-1.23-12.26-2-18.1-.87-28.31.82-7.22.82-11.73-1-15.08-.46-.87-1.64-1.16-3.74-.94a28.14,28.14,0,0,0-6.32,1.83c1.4-2.18,2.66-3.49,10.84-8.68C167,94.39,193.69,94.81,215.88,93.06c6.46-.51,39.89.78,58.38,8.75,20.54,8.87,21.6,11.68,21.6,11.68,3.32,2.51,5.86,4.79,10.12,5.64,4.86,1,12.34-2.78,15.76-3.4,6.42-1.17,18.87-7.62,41.58-12.42,21.57-4.57,29.44-2.9,34.25-1.3,5.41,1.8,9.32,3,11.83,7,3.74,5.91,4.75,11.25,4.51,15.57-1.19,21.6-2,32.38-6.49,45.67-1.48,4.44-8.19,24.48-20.23,42.55C383.46,218.4,378.9,228,375.51,234.07Z"/><path class="cls-7" d="M126.93,120.83a50.39,50.39,0,0,1-3.17,4.59"/><path class="cls-5" d="M345.22,249.68c-3.56-.84-7.66-6.11-15.57-17.38-9.85-14-14.77-21-17.12-29.32a61.71,61.71,0,0,1,0-33.73c4-13.81,12-22.05,21-31.39,5.12-5.3,13.75-14.07,27.76-20.76,8.78-4.19,15.22-5.44,25.95-7.52,8.13-1.58,10.87-1.4,13.23,0,2.92,1.73,6.26,5.92,6.49,20.49.26,17-4,30.66-7.53,40.22-1.54,4.15-7,18.52-21.27,41.77C362.59,237.48,350.67,251,345.22,249.68Z"/><path class="cls-8" d="M312,195.9c11.54-9.24,23.63-17.79,35.95-26a300.16,300.16,0,0,1,38.75-21.76A192.92,192.92,0,0,1,429,134.06a195.54,195.54,0,0,1,22-3.21c1.85-.19,3.7-.29,5.55-.41s3.7-.24,5.56-.29c3.7-.12,7.41-.12,11.11-.05v.3q-2.76.28-5.52.52c-1.84.14-3.67.4-5.5.6s-3.67.39-5.49.64-3.65.46-5.47.77c-7.28,1.1-14.51,2.4-21.66,4.06a241.53,241.53,0,0,0-41.91,13.35,298,298,0,0,0-38.91,20.83c-12.5,7.84-24.8,16.05-36.58,25Z"/><path class="cls-8" d="M310.09,213c12.76-7.49,25.94-14.21,39.32-20.55a298.87,298.87,0,0,1,41.47-16,193.65,193.65,0,0,1,43.83-7.87,197.32,197.32,0,0,1,22.29,0c1.85.08,3.7.24,5.55.39s3.7.29,5.54.52c3.68.41,7.35.94,11,1.54l0,.3c-1.85-.08-3.7-.17-5.54-.28s-3.69-.13-5.53-.2-3.68-.13-5.52-.15-3.69-.07-5.53,0c-7.36,0-14.7.29-22,.91a240.56,240.56,0,0,0-43.38,7.18,298.79,298.79,0,0,0-41.52,15c-13.49,6-26.84,12.31-39.78,19.45Z"/><path class="cls-9" d="M362.92,254.79l-1.49,6.45c-.46,2.13-.9,4.25-1.24,6.39s-.63,4.29-.88,6.46l-.67,6.58a27.66,27.66,0,0,1-.89-6.65c-.05-1.12,0-2.24.07-3.37s.24-2.23.4-3.34a37.12,37.12,0,0,1,1.71-6.51A28.09,28.09,0,0,1,362.92,254.79Z"/><path class="cls-9" d="M344.82,253.23a27.52,27.52,0,0,1,4.08,3.52,40.94,40.94,0,0,1,3.49,4.07,40.34,40.34,0,0,1,2.93,4.5,28.25,28.25,0,0,1,2.22,4.91c-1.28-1.3-2.41-2.67-3.52-4s-2.18-2.76-3.23-4.17-2.08-2.83-3.08-4.28S345.71,254.82,344.82,253.23Z"/><path class="cls-9" d="M362.34,283.33a22.12,22.12,0,0,1,6.1,2.41,27.66,27.66,0,0,1,5.32,3.94,27,27,0,0,1,4.22,5.08,22.57,22.57,0,0,1,2.78,5.95c-1.35-1.72-2.65-3.41-4-5a58.53,58.53,0,0,0-4.34-4.56,56.9,56.9,0,0,0-4.8-4.09C365.91,285.76,364.15,284.56,362.34,283.33Z"/><path class="cls-9" d="M370.31,312.88a14.25,14.25,0,0,1,8.18,11.48,31.22,31.22,0,0,0-3.39-6.24A31.93,31.93,0,0,0,370.31,312.88Z"/><path class="cls-9" d="M387.89,291.76a14.33,14.33,0,0,0,2.65-1.41,16.57,16.57,0,0,0,2.28-2,4,4,0,0,1-4.93,3.37Z"/><path class="cls-9" d="M334.22,350.53c2.12-.75,4.16-1.46,6.14-2.38s3.86-2,5.82-3.07a16.35,16.35,0,0,1-12,5.45Z"/><path class="cls-10" d="M98.09,222.5c1.16,0,2.76-4.89,6.81-13.32,5.57-11.64,6.48-12.77,9.34-23.53,1.32-5,2.16-10.43-.39-15.4-.75-1.45-1.39-2.71-2.73-3.31-5.05-2.3-13.89,7.55-18.71,14.22-4.38,6.05-6.78,14-10.48,30.62-.55,2.51-.31,7.62.39,8C84.4,220.86,91.78,222.44,98.09,222.5Z"/><path class="cls-8" d="M107.73,167.31c-2.91,1.07-3.2,3.58-5.79,9.38-3.69,8.29-5.43,8.39-6.08,12.65-.29,1.83-1.25,8.1,2.72,11.7,2.32,2.11,6.28,3.27,9,1.76,1.32-.75,2-2,3.11-4.88,2.23-5.6,3.35-8.41,3.9-11.7.67-4,2.66-16-2.34-18.71A5.82,5.82,0,0,0,107.73,167.31Z"/><path class="cls-8" d="M138.25,255.79c2.2-.29,4.36-.81,6.56-1.19s4.41-.71,6.65-.89a51.75,51.75,0,0,1,13.49.54,41.88,41.88,0,0,1,12.79,4.42,34.34,34.34,0,0,1,10.34,8.54A48.58,48.58,0,0,0,177,260.06a46.23,46.23,0,0,0-6.09-2.32,48,48,0,0,0-6.34-1.53,54.24,54.24,0,0,0-6.49-.79c-2.18-.17-4.37-.18-6.57-.15s-4.4.15-6.62.3A57,57,0,0,1,138.25,255.79Z"/><path class="cls-11" d="M183.89,262.9c2.79-1.77,7.58-7.37,11.48-11.39,3.35-3.45,12.92-12.28,14.69-28.51.64-5.79,1.71-17.44-4.76-22.77-.84-.69-3.29-3.57-12.85-2.82-17.65,1.38-29.51,13.55-32.88,16.83,0,0-12.2,10.43-17.71,36.1a17,17,0,0,0,.49,4.09c2.38,1.16,5.27.5,9.24-.1,6.57-1,11.73.36,18.49,2.14,3.6.95,8.2,3.23,13.81,6.43"/><path class="cls-3" d="M203.8,199.91c-2.12-.4-4.27,1.55-8.56,5.45-3.72,3.37-7,6.31-9.6,11.42-1.44,2.77-4.8,9.48-3.38,17.64.52,3,1.44,8.26,5.45,10.12,3.45,1.6,9.54,2.13,11.48,1.26.87-.39,2.3-3.5,5.13-8.27,4.47-7.55,6.16-14.86,6.22-18.42C210.67,212.1,208.68,200.83,203.8,199.91Z"/><path class="cls-12" d="M113,242.29c-.78,0-1.64,0-2.57-.07-2.76-.31-6.61-1.17-9.5-1.75A30.32,30.32,0,0,1,93.84,238c-8.25-3.94-17-12.76-19.62-15.51a22.93,22.93,0,0,1,4.18-1.87c9.86-3.48,19,.75,19.85,1.16C110.39,227.65,112.81,240.94,113,242.29Z"/><path class="cls-13" d="M110.47,242.22a58.2,58.2,0,0,0-10.28.07c-2.89.35-4.81,1.78-8.3,3.63-8.3,4.4-9.22,6.71-13.75,7.27-1.39.17-5.35.66-8.43-1.69-4.47-3.4-3.92-10.37-3.63-14,.22-2.79.6-7.63,4.28-11.8a15.92,15.92,0,0,1,3.86-3.19c2.58,2.75,11.37,11.57,19.62,15.51a30.32,30.32,0,0,0,7.13,2.46C103.86,241.05,107.71,241.91,110.47,242.22Z"/><path class="cls-14" d="M54.88,251.77a8.83,8.83,0,0,1,3.11.1,8.65,8.65,0,0,1,3.11,1.36"/><path class="cls-14" d="M58,252.45a37.88,37.88,0,0,0,.52,10.12,22.86,22.86,0,0,0,3.24,8.95,20.39,20.39,0,0,0,7.72,6.82"/><path class="cls-8" d="M151,288.24a11.68,11.68,0,0,1,10.32,3.12,12.08,12.08,0,0,1,3.06,4.71,11.12,11.12,0,0,1,.63,5.43,26.47,26.47,0,0,0-2-4.79,16.81,16.81,0,0,0-3-3.91,16.52,16.52,0,0,0-4-2.84A23.8,23.8,0,0,0,151,288.24Z"/><path class="cls-8" d="M115.59,285.73a110.9,110.9,0,0,1,14.87,7.53c2.4,1.42,4.7,3,7,4.55s4.51,3.28,6.69,5A120,120,0,0,1,167.06,327q-5.72-6.06-11.7-11.75c-2-1.87-4-3.76-6.13-5.54s-4.17-3.6-6.33-5.3A226.06,226.06,0,0,0,115.59,285.73Z"/><path class="cls-8" d="M118.8,277.26A81.05,81.05,0,0,1,138,274.89,86.33,86.33,0,0,1,157.23,277a87.27,87.27,0,0,1,18.33,6.29A83.66,83.66,0,0,1,192,293.42c-2.76-1.65-5.52-3.27-8.38-4.69s-5.73-2.82-8.67-4-5.91-2.36-8.95-3.28c-1.5-.52-3-.92-4.56-1.37s-3.06-.82-4.62-1.12-3.1-.69-4.67-.94-3.13-.49-4.7-.72c-3.15-.45-6.32-.68-9.49-.82A121.4,121.4,0,0,0,118.8,277.26Z"/><path class="cls-8" d="M50.4,240.78c-3.32-1.23-6.57-2.56-9.83-3.86a98.15,98.15,0,0,0-9.8-3.52,50.56,50.56,0,0,0-10.13-1.9c-3.44-.29-7-.19-10.52-.65a99.94,99.94,0,0,1,10.58-.91,34.56,34.56,0,0,1,5.37.39,46.76,46.76,0,0,1,5.25,1.15,56.61,56.61,0,0,1,9.89,4A86.34,86.34,0,0,1,50.4,240.78Z"/><path class="cls-8" d="M47.09,252.65c-4,1.16-8,1.92-12,2.69l-6,1.15c-2,.39-4,.79-5.9,1.35a105.51,105.51,0,0,0-11.53,3.76A89.22,89.22,0,0,1,0,265.49c3.73-1.73,7.34-3.57,11.06-5.32,1.85-.89,3.77-1.67,5.71-2.4s3.92-1.31,5.91-1.86a86.93,86.93,0,0,1,12.18-2.1C38.93,253.32,43,253,47.09,252.65Z"/><path class="cls-8" d="M92.24,5.9a73.74,73.74,0,0,1,11.07,9.45c1.71,1.73,3.3,3.58,4.86,5.45s3,3.86,4.36,5.87a84.63,84.63,0,0,1,7.13,12.74,73.42,73.42,0,0,1,4.69,13.78c-1.88-4.47-3.86-8.85-6.1-13.09a125.14,125.14,0,0,0-7.37-12.31,124.53,124.53,0,0,0-8.72-11.4C99,12.75,95.7,9.29,92.24,5.9Z"/><path class="cls-8" d="M121.56,0A45.62,45.62,0,0,1,128,7.23a54.88,54.88,0,0,1,5,8.36c.68,1.47,1.33,3,1.9,4.48s1.08,3.06,1.48,4.63a44.21,44.21,0,0,1,1.58,9.55c-1-3.08-2-6.1-3.06-9.07s-2.33-5.89-3.7-8.73-2.85-5.63-4.45-8.37S123.34,2.69,121.56,0Z"/></g></g></svg>