<svg xmlns="http://www.w3.org/2000/svg" xmlns:xlink="http://www.w3.org/1999/xlink" viewBox="0 0 200.04 515.35"><defs><style>.cls-1{fill:#706f6f;stroke:url(#linear-gradient);}.cls-1,.cls-14,.cls-17,.cls-18,.cls-2,.cls-21,.cls-22,.cls-23,.cls-25,.cls-26,.cls-27,.cls-28,.cls-29,.cls-30,.cls-31,.cls-34,.cls-35,.cls-36,.cls-38,.cls-39,.cls-40,.cls-43,.cls-44,.cls-47,.cls-48,.cls-49,.cls-5,.cls-50,.cls-51,.cls-52,.cls-6,.cls-7,.cls-8,.cls-9{stroke-miterlimit:10;}.cls-2{fill:#3d3c3e;stroke-width:3px;}.cls-17,.cls-2,.cls-25,.cls-26,.cls-27,.cls-28,.cls-5,.cls-9{stroke:#1d1d1b;}.cls-21,.cls-23,.cls-24,.cls-27,.cls-3,.cls-31,.cls-36,.cls-46{fill:none;}.cls-4{fill:#978533;}.cls-5{fill:url(#radial-gradient);}.cls-6{stroke-width:1.5px;fill:url(#radial-gradient-2);stroke:url(#linear-gradient-2);}.cls-30,.cls-31,.cls-44,.cls-46,.cls-47,.cls-48,.cls-49,.cls-7{stroke:#859da9;}.cls-7{fill:url(#linear-gradient-3);}.cls-8{fill:url(#linear-gradient-4);stroke:url(#linear-gradient-5);}.cls-9{fill:url(#linear-gradient-6);}.cls-10{fill:url(#linear-gradient-7);}.cls-11,.cls-25{fill:#1d1d1b;}.cls-12{fill:url(#linear-gradient-8);}.cls-13{fill:#5e7681;}.cls-14{fill:#d5c978;}.cls-14,.cls-21,.cls-22,.cls-23,.cls-24,.cls-38{stroke:#817322;}.cls-14,.cls-23,.cls-24,.cls-46{stroke-width:2px;}.cls-15{fill:#817322;}.cls-16,.cls-18{fill:#f9fcf9;}.cls-17{stroke-width:0.25px;fill:url(#linear-gradient-9);}.cls-18,.cls-23,.cls-24,.cls-41,.cls-46{stroke-linecap:round;}.cls-18{stroke:url(#linear-gradient-10);}.cls-19{fill:url(#linear-gradient-11);}.cls-20{fill:#fff;}.cls-22{fill:url(#linear-gradient-12);}.cls-24,.cls-41,.cls-46{stroke-linejoin:round;}.cls-26{fill:url(#linear-gradient-13);}.cls-28{fill:url(#linear-gradient-14);}.cls-29,.cls-34{fill:#e0aa45;}.cls-29,.cls-41,.cls-43,.cls-52{stroke:#a65a1e;}.cls-30,.cls-35{fill:#1c5d7e;}.cls-32{fill:#ca8426;}.cls-33{fill:#a65a1e;}.cls-34,.cls-36{stroke:#ca8426;}.cls-35{stroke:#1c5d7e;}.cls-37{fill:#aa994e;}.cls-38{fill:url(#linear-gradient-15);}.cls-39{fill:#9d8787;}.cls-39,.cls-40{stroke:#7a1f33;}.cls-40{fill:#8d193b;}.cls-41{fill:#fcda2c;stroke-width:1.59px;}.cls-42{fill:#4d0f14;}.cls-43{fill:#db9e27;}.cls-44{fill:url(#linear-gradient-16);}.cls-45{fill:#859da9;}.cls-47{fill:#fdfefe;}.cls-48{fill:url(#linear-gradient-17);}.cls-49{fill:url(#linear-gradient-18);}.cls-50{fill:url(#linear-gradient-19);stroke:url(#linear-gradient-20);}.cls-51{stroke:#dd6723;fill:url(#linear-gradient-21);}.cls-52{fill:#f7d388;}.cls-53{fill:#ac6d20;}</style><linearGradient id="linear-gradient" x1="115.4" y1="380.15" x2="146.57" y2="380.15" gradientUnits="userSpaceOnUse"><stop offset="0" stop-color="#1882b1"/><stop offset="1" stop-color="#020304"/></linearGradient><radialGradient id="radial-gradient" cx="35.89" cy="228.25" r="53.51" gradientUnits="userSpaceOnUse"><stop offset="0" stop-color="#030304"/><stop offset="1" stop-color="#155177"/></radialGradient><radialGradient id="radial-gradient-2" cx="30.58" cy="307.56" r="20.08" xlink:href="#radial-gradient"/><linearGradient id="linear-gradient-2" x1="18.27" y1="307.56" x2="42.89" y2="307.56" gradientUnits="userSpaceOnUse"><stop offset="0" stop-color="#030304"/><stop offset="1" stop-color="#95452e"/></linearGradient><linearGradient id="linear-gradient-3" x1="119.37" y1="373.48" x2="139.42" y2="373.48" gradientUnits="userSpaceOnUse"><stop offset="0" stop-color="#f7f6f4"/><stop offset="0.26" stop-color="#f4f3f2"/><stop offset="0.48" stop-color="#e9ebeb"/><stop offset="0.69" stop-color="#d7dde0"/><stop offset="0.89" stop-color="#becad0"/><stop offset="1" stop-color="#aebdc6"/></linearGradient><linearGradient id="linear-gradient-4" x1="60.5" y1="351.92" x2="140.74" y2="351.92" gradientUnits="userSpaceOnUse"><stop offset="0" stop-color="#1882b1"/><stop offset="0.02" stop-color="#16759f"/><stop offset="0.07" stop-color="#115a7b"/><stop offset="0.13" stop-color="#0d435b"/><stop offset="0.19" stop-color="#0a2f3f"/><stop offset="0.26" stop-color="#071e29"/><stop offset="0.35" stop-color="#051218"/><stop offset="0.45" stop-color="#03090d"/><stop offset="0.6" stop-color="#020406"/><stop offset="1" stop-color="#020304"/></linearGradient><linearGradient id="linear-gradient-5" x1="60" y1="351.92" x2="141.24" y2="351.92" xlink:href="#linear-gradient"/><linearGradient id="linear-gradient-6" x1="52.87" y1="346.75" x2="100.82" y2="298.79" xlink:href="#linear-gradient"/><linearGradient id="linear-gradient-7" x1="77.35" y1="332.19" x2="86.3" y2="332.19" xlink:href="#linear-gradient-4"/><linearGradient id="linear-gradient-8" x1="80.72" y1="327.19" x2="87.46" y2="327.19" xlink:href="#linear-gradient-4"/><linearGradient id="linear-gradient-9" x1="104.39" y1="213.16" x2="104.39" y2="229.08" gradientUnits="userSpaceOnUse"><stop offset="0" stop-color="#020304"/><stop offset="1" stop-color="#195174"/></linearGradient><linearGradient id="linear-gradient-10" x1="51.36" y1="186.08" x2="51.36" y2="217" gradientUnits="userSpaceOnUse"><stop offset="0" stop-color="#181c1d"/><stop offset="0.16" stop-color="#2e2e1e"/><stop offset="0.54" stop-color="#5b5321"/><stop offset="0.83" stop-color="#776a22"/><stop offset="1" stop-color="#827323"/></linearGradient><linearGradient id="linear-gradient-11" x1="45.8" y1="208.47" x2="45.8" y2="222.04" gradientTransform="translate(31.59 -10.42) rotate(7.86)" xlink:href="#linear-gradient-9"/><linearGradient id="linear-gradient-12" x1="48.76" y1="277.2" x2="67.67" y2="258.29" gradientUnits="userSpaceOnUse"><stop offset="0" stop-color="#faccb2"/><stop offset="1" stop-color="#ce5d36"/></linearGradient><linearGradient id="linear-gradient-13" x1="61.69" y1="84.41" x2="164.32" y2="84.41" gradientUnits="userSpaceOnUse"><stop offset="0" stop-color="#cc8423"/><stop offset="1" stop-color="#fdcf1a"/></linearGradient><linearGradient id="linear-gradient-14" x1="114.72" y1="104.05" x2="114.72" y2="119.4" gradientUnits="userSpaceOnUse"><stop offset="0.06" stop-color="#162139"/><stop offset="0.45" stop-color="#16233b"/><stop offset="0.63" stop-color="#172843"/><stop offset="0.77" stop-color="#193150"/><stop offset="0.89" stop-color="#1c3e62"/><stop offset="0.99" stop-color="#1f4f79"/><stop offset="1" stop-color="#1f507b"/></linearGradient><linearGradient id="linear-gradient-15" x1="48.68" y1="413.17" x2="83.24" y2="378.61" gradientUnits="userSpaceOnUse"><stop offset="0" stop-color="#d1b572"/><stop offset="1" stop-color="#d7c387"/></linearGradient><linearGradient id="linear-gradient-16" x1="144.35" y1="354.61" x2="184.69" y2="394.95" xlink:href="#linear-gradient-3"/><linearGradient id="linear-gradient-17" x1="19.31" y1="119.97" x2="92.61" y2="119.97" gradientUnits="userSpaceOnUse"><stop offset="0" stop-color="#fcfbf7"/><stop offset="1" stop-color="#bfc9cf"/></linearGradient><linearGradient id="linear-gradient-18" x1="19.97" y1="157.88" x2="50.48" y2="157.88" xlink:href="#linear-gradient-17"/><linearGradient id="linear-gradient-19" x1="47.1" y1="366.31" x2="47.1" y2="293.35" gradientUnits="userSpaceOnUse"><stop offset="0" stop-color="#e08241"/><stop offset="1" stop-color="#f7c197"/></linearGradient><linearGradient id="linear-gradient-20" x1="19.7" y1="329.83" x2="74.49" y2="329.83" gradientUnits="userSpaceOnUse"><stop offset="0" stop-color="#b24d2d"/><stop offset="1" stop-color="#020304"/></linearGradient><linearGradient id="linear-gradient-21" x1="34.56" y1="350.28" x2="34.56" y2="328.89" gradientTransform="translate(354.88 221.67) rotate(75.6)" xlink:href="#linear-gradient-19"/></defs><g id="Layer_2" data-name="Layer 2"><g id="hand"><path class="cls-1" d="M139.18,357.79c-1.69-.35-3.59,1.26-7.4,4.48a46.19,46.19,0,0,0-13,17.71c-2.07,5.2-4,10-2,15.08a11.81,11.81,0,0,0,4.67,5.93c5.32,3.3,11.59.44,12.55,0a17.64,17.64,0,0,0,7.59-7.1C149.64,380.8,145.66,359.15,139.18,357.79Z"/><path class="cls-2" d="M22.32,148.52a6.64,6.64,0,0,0-1.16,3.65c-.38,3.48,1.22,6.26,3.84,10.27,4.42,6.74,6.63,10.11,8.66,12.06a31.81,31.81,0,0,0,13.57,8.22c2.79.79,7.7,2.17,10.36-.34,1.24-1.16,1.48-2.68,1.76-4.62,1.11-7.79-2.7-14.29-3.8-16.1a29.33,29.33,0,0,0-5.5-6.67C41.05,146.92,26.17,143.71,22.32,148.52Z"/><path class="cls-3" d="M42.65,178.91l0,0"/><path class="cls-3" d="M22.62,149.45l0,.06"/><path class="cls-4" d="M47.09,158.43l-4.48,20.46a37,37,0,0,1-4.26-2.52c-7.75-4.86-10-10.07-14.64-19.25-.51-1-2.16-3.1-1.76-5.65a8.82,8.82,0,0,1,.64-2l3,3.2a69.53,69.53,0,0,0,5.91,4c2.59,1.27,7.73,2.17,9.27,2.38C41.49,159.15,47.09,158.43,47.09,158.43Z"/><line class="cls-3" x1="42.61" y1="178.9" x2="42.61" y2="178.89"/><path class="cls-5" d="M19.2,156c-1.29.09-2.81,14.55-3.09,19.44-.82,14.39-.14.59-1.88,45-2.88,73.14,4.58,79.74,4.58,79.74,17.08,3.48,22.47-13,22.32-16.09-1.42-31.74,15.49-85.26,17.08-98.93,0-.42-15.54,1.05-24.52-8C25.21,168.51,20.54,155.86,19.2,156Z"/><path class="cls-6" d="M20.24,333.51c-.87-.07-1-6.48-1.16-13.82-.44-21.81,1.62-24.22,2.91-24.52a25.48,25.48,0,0,1,4.48,1.56c3.6,1.38,4.15,1.65,4.48,1.36,1.28-1.14-4.48-7.8-2.34-10.7a7.74,7.74,0,0,1,1.95-1.17A69.58,69.58,0,0,1,37,283.5c3.3-1.42,4.05-2.2,4.67-1.75.85.61.45,2.82-.2,4.28-.87,2-2.11,2.39-3.69,4.28A16.74,16.74,0,0,0,35,295.37c-3.64,8.76-7.51,13-10.89,23.15C21.11,327.6,21.09,333.57,20.24,333.51Z"/><path class="cls-7" d="M129.2,388.1a7,7,0,0,1-4.76-.19c-2.74-1.21-4.92-2.13-5.06-4.22-.19-2.91,2.28-7.57,6.91-13.17,6.91-8.35,10.32-12.69,12.35-11.9a1.59,1.59,0,0,1,.78.78"/><path class="cls-8" d="M140.63,357.7c-.38-.13-8.28-8.71-12.73-12.68-6.51-5.81-14.94-15.45-21.79-31.79,0,0-7.14-16.24-12.07-25.94a2.67,2.67,0,0,0-1.62-1.23c-1.93-.79-3.77.34-6.58.95-4,.86-4.82-.74-7.17.54-1.77.95-2.1,2.89-3,4.15-4.12,5.43-4.78,4.95-7.7,10.48S63.3,314,62,324.35c-1.17,9.18-2,14.2-1.06,20.41,1.42,9,6.52,15.2,7.44,16.73,5.84,9.83,10.79,9.35,22,22.32,4.25,4.9,7.62,8.83,10.38,15.05,4.44,10,3.27,19.2,4.15,19.2.69,0,2-5.72,1.3-12.2-.87-8.59-4.45-12-9.86-22.31-9.64-18.36-10.49-30.76-10.64-34.25-.21-4.79,0-12.68,1.82-13,2.18-.36,5.3,10.93,9.34,21.79,1.14,3.07,2.41,6.25,3.88,9.61,7.68,17.46,16.44,30.19,16.61,30.09a17.7,17.7,0,0,1-1.75-4,17.89,17.89,0,0,1-.13-8.18c.38-1.9,1-3.74,3.89-8.95s5-8.31,8.45-11.67a97.57,97.57,0,0,1,8.08-7.25C138.19,356,141.36,357.94,140.63,357.7Z"/><path class="cls-9" d="M88.53,286.78c1.18-.25-.72,1.94-2,6.13-1.49,4.72-.87,7.11-3.21,9.24a8,8,0,0,1-2.14,1.37c-1.9.88-3.34.8-7.49,1.65-1.32.27-2.12.48-2.34,1.07s.36,1.41.88,2c2.32,2.85,4.37,3.25,4.57,4.77.11.84-.43,1.42-1.07,2.34s-1.4,3-3.11,7.49c-2.42,6.33-4.93,12.89-5.55,19.65C66,354.25,70.92,363,69.85,363.35c-.87.32-4.5-5.27-4.84-6-2.52-5.21-4.18-9.34-4.45-10.79-1.27-6.74-.26-13,.32-17.84,1.21-10.18,1.85-18.15,6.27-25.83C74,291,77.45,288.2,78.9,287.9,82.54,287.16,86.48,287.22,88.53,286.78Z"/><path class="cls-10" d="M77.35,326.48a70.41,70.41,0,0,0,4.92,6.87c1.36,1.68,2.72,3.19,4,4.55"/><path class="cls-11" d="M77.35,326.48c1.62,1.84,3.07,3.74,4.57,5.63.72,1,1.53,1.85,2.26,2.81a36.22,36.22,0,0,1,2.12,3,35.27,35.27,0,0,1-2.71-2.47,28.77,28.77,0,0,1-2.46-2.71A27.93,27.93,0,0,1,77.35,326.48Z"/><path class="cls-12" d="M80.72,317c.46,1.9,1,3.85,1.55,5.84a131.88,131.88,0,0,0,5.19,14.53"/><path class="cls-11" d="M80.72,317a37.72,37.72,0,0,1,2.13,5c.6,1.68,1.22,3.35,1.77,5s1.08,3.38,1.58,5.1a49.2,49.2,0,0,1,1.26,5.26,29.2,29.2,0,0,1-2.72-4.71,42.44,42.44,0,0,1-2-5,41.18,41.18,0,0,1-1.37-5.24A37.36,37.36,0,0,1,80.72,317Z"/><path class="cls-13" d="M43.29,282.4a14.54,14.54,0,0,0-.29,2.14,21.43,21.43,0,0,0-.29,3.9c.5,2.13,5.46,2,13.33,3.3,6.89,1.13,10.63,1.67,14.79,1.09a4.07,4.07,0,0,0,2.44-.6c.88-.58,6-5.49,5.29-5.32,0,0-2.9-.2-6.57-.37a37,37,0,0,1-5.4-.54c-1.24-.24-1.55-.1-2-.21C56.34,283.75,45,279.87,43.29,282.4Z"/><path class="cls-14" d="M64.45,284.75c3,.42,5.57.62,7.72.79,36.6,3,61.05-23.21,64.22-26.66C141.53,253.3,150.9,243,152.93,227c.61-4.81,2.47-19.47-6.73-32.32l-.27-.37c-7-9.56-16.58-13-23.16-15.38-15.44-5.56-29.17-3.25-35.81-2.14A79.31,79.31,0,0,0,71,181.24l-.83.34a79.08,79.08,0,0,0-8.71,4.33l-1.2.69a0,0,0,0,0,0,0,80.9,80.9,0,0,0-8.7,5.57,35.53,35.53,0,0,0-7,7c-2.62,3.46-2.7,4.9-5.64,7.59-3.75,3.42-7,4.14-9.34,5.45C21.33,216.7,20,229.91,19.63,234c-2.28,23.24,18.74,40,19.66,40.67.54.41,1.07.81,1.61,1.19"/><path class="cls-15" d="M160.52,144.73a64.43,64.43,0,0,1-4.78,23.85,74.43,74.43,0,0,1-13,20.8L141.29,188a73.26,73.26,0,0,0,13.53-19.85A63.86,63.86,0,0,0,160.52,144.73Z"/><path class="cls-15" d="M173.48,164.17a50.8,50.8,0,0,1-10.29,18.54,52.41,52.41,0,0,1-7.84,7.34,57.05,57.05,0,0,1-9.14,5.7l-.86-1.8a55.53,55.53,0,0,0,9.12-5.11,51.7,51.7,0,0,0,8-6.8A50.2,50.2,0,0,0,173.48,164.17Z"/><path class="cls-15" d="M129.69,202.11a12.13,12.13,0,0,0,.16-6.26,7.72,7.72,0,0,0-3-4.8,9.65,9.65,0,0,0-5.69-1.33,21.14,21.14,0,0,0-6.36.85,12.51,12.51,0,0,1,6.25-2.41,12.7,12.7,0,0,1,3.49,0A8.35,8.35,0,0,1,128,189.4a8,8,0,0,1,2.44,2.77,9.26,9.26,0,0,1,1,3.43A9.15,9.15,0,0,1,129.69,202.11Z"/><path class="cls-15" d="M70.47,187.7a6.5,6.5,0,0,0,0-3.13c-.14-.48-.5-.86-.53-1.34a6.13,6.13,0,0,1,.06-1.78l.16-.12a2.49,2.49,0,0,1,1.65,1.18,3.12,3.12,0,0,1,.25,1.91,5.23,5.23,0,0,1-1.37,3.37Z"/><path class="cls-16" d="M121.79,210.26c-1.21,4.07-3.37,6.6-6.66,10.37a78.91,78.91,0,0,1-9.38,9,33.53,33.53,0,0,0-5.54-2.16A35.21,35.21,0,0,0,86,226.36a38,38,0,0,1,1.44-6.51c2.53-7.06,6.88-11.34,9.83-14.19,2.77-2.68,6.51-6.2,12.21-8,3.71-1.16,6-.86,7.54-.35a8.56,8.56,0,0,1,4.38,2.94C123.79,203.56,122.46,208,121.79,210.26Z"/><path class="cls-15" d="M121.89,210.29a19,19,0,0,1-2.83,5.7c-1.23,1.73-2.59,3.36-4,5a76.85,76.85,0,0,1-9,9l-.23.19-.28-.14A33.8,33.8,0,0,0,96,227.1a35.52,35.52,0,0,0-9.93,0l-.93.13.14-.93a30.73,30.73,0,0,1,5.54-14.77,43.26,43.26,0,0,1,5.18-6,42.33,42.33,0,0,1,6-5.21,24.09,24.09,0,0,1,7.26-3.48,16.9,16.9,0,0,1,4-.67,10.31,10.31,0,0,1,4.08.68,9.69,9.69,0,0,1,3.47,2.17,7.21,7.21,0,0,1,1.91,3.57,10.77,10.77,0,0,1,.06,4A23.33,23.33,0,0,1,121.89,210.29Zm-.19-.06a23.43,23.43,0,0,0,.8-3.77,9.71,9.71,0,0,0-.29-3.77,6.4,6.4,0,0,0-2-3.05A8.49,8.49,0,0,0,117,198a11.86,11.86,0,0,0-7.16.57A25.8,25.8,0,0,0,103.2,202a51.46,51.46,0,0,0-5.77,5,43.81,43.81,0,0,0-5.11,5.63,30.67,30.67,0,0,0-3.73,6.57,31.72,31.72,0,0,0-1.88,7.35l-.78-.81a36.59,36.59,0,0,1,10.29.27,33.65,33.65,0,0,1,9.74,3.24l-.5.06c1.66-1.3,3.26-2.67,4.83-4.08s3.09-2.88,4.51-4.44a58.91,58.91,0,0,0,4.1-4.84A18.6,18.6,0,0,0,121.7,210.23Z"/><path class="cls-15" d="M111.17,232.94a35.36,35.36,0,0,0-5.64-2.9l.45-.9A36.21,36.21,0,0,1,111.17,232.94Z"/><path class="cls-15" d="M78.22,228q1.86-.72,3.81-1.26c1.29-.36,2.6-.63,3.93-.88l.11,1c-1.31.09-2.63.18-3.94.38S79.51,227.69,78.22,228Z"/><path class="cls-17" d="M96.47,226.21a26.46,26.46,0,0,1,.92-3.45A16.63,16.63,0,0,1,98.51,220a14.31,14.31,0,0,1,3.7-4.14c1.59-1.38,2.39-2.06,3.45-2.38a5.46,5.46,0,0,1,4.82.58,5.14,5.14,0,0,1,1.8,3.5,7.26,7.26,0,0,1-.78,3.8,16.59,16.59,0,0,1-2.92,4.62c-1.49,1.73-2.19,3.42-3.31,3.06C102,228,97,226.64,96.47,226.21Z"/><ellipse class="cls-16" cx="106.04" cy="215.97" rx="1.76" ry="1.07" transform="translate(-85.18 69.95) rotate(-26.48)"/><path class="cls-18" d="M42.13,215.07a49.49,49.49,0,0,0,8.38-5.77,47.71,47.71,0,0,0,6-6.62,62.64,62.64,0,0,0,6.85-10,5.19,5.19,0,0,0,.45-4.45,3.71,3.71,0,0,0-2.76-1.68c-1.63-.14-3,.58-5.06,2.07a53.45,53.45,0,0,0-7,5.9,56.48,56.48,0,0,0-5.06,6c-2.7,3.77-2.06,3.12-4.08,6.88-.62,1.14-1.59,2-1.23,3.05s1.51,1.2,2.46,2.59a7.59,7.59,0,0,1,1.3,3.44"/><path class="cls-19" d="M40.9,211.69c-.14-.76.68-2.06,2.11-3.3,2.62-2.24,2.39-2.56,4.09-3.72A9.13,9.13,0,0,1,50.83,203a3.46,3.46,0,0,1,2.92.47,1.65,1.65,0,0,1,.68,1.38,3.77,3.77,0,0,1-.94,2.24c-3.5,3.6-2.41,2.58-4.22,3.91a47.2,47.2,0,0,1-6.55,4.27C42.53,214.75,41.12,212.78,40.9,211.69Z"/><ellipse class="cls-20" cx="51" cy="204.45" rx="1.26" ry="0.82" transform="translate(-54.93 22.3) rotate(-16.17)"/><path class="cls-15" d="M26.29,236.75a16.87,16.87,0,0,1,2.56-2.2c.93-.66,1.93-1.17,2.84-1.79s1.83-1.27,2.72-1.94l1.34-1,.37-.26.11-.07.06,0,.13,0a.51.51,0,0,1,.35,0,.59.59,0,0,1,.18.13l0,.07a1,1,0,0,1,.13.44c0,.33,0,.6,0,.88a22.84,22.84,0,0,0,.93,6.44c.7,2.07,1.5,4.21,2.88,5.54a3.38,3.38,0,0,0,1.12.73,1.63,1.63,0,0,0,1.11.06c.9-.25,2-.76,3-1.15,2.13-.82,4.23-1.55,6.4-2.24,1.09-.34,2.22-.64,3.32-.89s2.16-.48,3.24-.75a41.79,41.79,0,0,0,6.16-2.18l.77-.33.43.69a20.31,20.31,0,0,0,2.2,2.9,15.21,15.21,0,0,0,2.74,2.37c1,.72,2.1,1.4,3.17,2.09s2.15,1.3,3.25,1.94c2.21,1.29,4.44,2.5,6.65,3.84a17.74,17.74,0,0,1,5.56,5.31,19.14,19.14,0,0,0-5.93-4.65c-2.29-1.09-4.61-2.2-6.9-3.34-1.14-.57-2.29-1.17-3.41-1.82s-2.22-1.27-3.33-2A16.31,16.31,0,0,1,67.44,241a21.86,21.86,0,0,1-2.5-3.13l1.2.36a39.29,39.29,0,0,1-6.46,2.37c-1.09.29-2.21.55-3.29.8s-2.13.5-3.18.82c-2.1.64-4.23,1.38-6.3,2.14-1.06.36-2,.81-3.29,1.13a3.87,3.87,0,0,1-1.1.09,3.57,3.57,0,0,1-1.08-.27,5.1,5.1,0,0,1-1.65-1.13,9.4,9.4,0,0,1-1.95-3.09,30,30,0,0,1-1.11-3.27,22.21,22.21,0,0,1-.65-6.85c0-.28,0-.57,0-.8,0,0-.05-.16,0,0l0,0a.38.38,0,0,0,.16.12.5.5,0,0,0,.3,0c.11,0,.07,0,.08,0h0l-.06,0-.34.21-1.4.92c-1,.61-1.91,1.2-2.89,1.75s-2,1-3,1.57A19.75,19.75,0,0,0,26.29,236.75Z"/><path class="cls-21" d="M81.28,253.11c1.23-1.09,2.27-2.13,3-2.83"/><path class="cls-21" d="M30.58,233.77A42.6,42.6,0,0,0,31.94,242c1,3.31,2.77,9.45,7.78,14.21"/><path class="cls-21" d="M81.28,253.11c-1.67,1.72-4.31,5.78-6.34,8.45-.66.87-1.21,1.63-1.67,2.3a45.84,45.84,0,0,0-7.4.14,23.25,23.25,0,0,0-7.25,2.3l-.55.3a23.22,23.22,0,0,0-2.14-1,8.53,8.53,0,0,0-2.78-.55,11.77,11.77,0,0,0-3.45.25,10,10,0,0,0-3.48,1.5,13.41,13.41,0,0,0-2.29,2.08c-.51-2.12-.34-3.42-1.29-6.1a51.72,51.72,0,0,0-2.92-6.56,21.18,21.18,0,0,0,2,1.65c6.26,4.7,13.21,4.68,16.44,4.67,9.73,0,16.77-4.68,19.75-6.71A34.23,34.23,0,0,0,81.28,253.11Z"/><path class="cls-22" d="M73.27,263.88a60.1,60.1,0,0,1-4.6,6.31c-2.3,2.66-3.79,4.36-6.42,5.84a14.83,14.83,0,0,1-7.64,2.19,10.63,10.63,0,0,1-6.86-2.1c-1.94-1.58-2.65-3.62-3.36-5.64a16.29,16.29,0,0,1-.46-1.59,13.41,13.41,0,0,1,2.29-2.08,10,10,0,0,1,3.48-1.5,11.77,11.77,0,0,1,3.45-.25,8.53,8.53,0,0,1,2.78.55,23.22,23.22,0,0,1,2.14,1l.55-.3a23.25,23.25,0,0,1,7.25-2.3A45.84,45.84,0,0,1,73.27,263.88Z"/><path class="cls-14" d="M40.89,275.83a22.05,22.05,0,0,0,4,6.44c1.52,1.65,3.72,4,7.26,4.86,3.14.75,5.7-.09,9.73-1.42.75-.25,1.6-.56,2.53-1"/><path class="cls-23" d="M64.44,284.75a33,33,0,0,0,5.78-3.13,33.48,33.48,0,0,0,6.22-5.45"/><path class="cls-24" d="M37.39,266.51c.4,1.33,1,3.2,1.88,5.38.58,1.46,1.1,2.76,1.62,3.94"/><path class="cls-15" d="M51.32,272.33a22.79,22.79,0,0,1,6.5-6.17l.49.89A22.27,22.27,0,0,0,51.32,272.33Z"/><path class="cls-25" d="M185.61,33.63c.11,6.22-5.25,7.76-11.08,19.4-2.35,4.7-3.75,9.06-6.22,16.74-1.53,4.75-2.47,8.32-2.92,10.12-.3,1.19-.61,2.54-.89,3.83,0,.08,0,.17-.05.26a.09.09,0,0,0,0,0c0,.17-.08.37-.12.58A69.08,69.08,0,0,0,156.18,78c-.51-.36-1-.71-1.56-1-9-5.88-17.41-7.59-25.82-9.21-6.47-1.26-13.93-2.7-24-1.82A75.28,75.28,0,0,0,83.66,71a52.91,52.91,0,0,0-15.18,8.17,76,76,0,0,0-6.79,6.17c-.2-1.57-.13-3.28-.35-4.61a123.43,123.43,0,0,0-4.15-18.29,137.49,137.49,0,0,0-7.78-19.33c-4.1-8.33-6-8.34-5.19-10.44C49,20.93,73.11,8.51,76.85,7.11c5.09-1.91,26.45-9.48,55.26-5.45,3.95.55,30.42,4.54,47.09,20.82C183.35,26.53,185.54,29.7,185.61,33.63Z"/><path class="cls-26" d="M164.32,84.61c-.2,1-.46,2.25-.67,3.25-9.34-6.15-19.72-8.56-24.73-9.72-6.36-1.48-16.58-3.86-28.8-.78C98.74,80.22,89,87,86,89c-4.56,3.16-8.19,6.34-15.76,10.51-2.86,1.58-4.92,2.71-6.82,3.56l0,0c-.24-6.16-1-12.81-1.68-17.78a87.22,87.22,0,0,1,7.44-6.67,57.08,57.08,0,0,1,6.08-3.94,58.35,58.35,0,0,1,9.91-4.28,74.08,74.08,0,0,1,9.84-3,64.68,64.68,0,0,1,10.26-1.58,75.44,75.44,0,0,1,18,.83,111.28,111.28,0,0,1,11.17,2.16c6.62,1.75,9.16,2.35,13.4,4.31,1.82.84,4.09,2,7.43,3.85A84.32,84.32,0,0,1,164.32,84.61Z"/><path class="cls-27" d="M63.41,104c0-.3,0-.61,0-.92"/><path class="cls-27" d="M163.65,87.86l-.27,1.35"/><path class="cls-27" d="M164.32,84.61c0-.21.08-.41.12-.58a.09.09,0,0,1,0,0c0-.09,0-.18.05-.26"/><path class="cls-25" d="M176.8,107.84c-7.05-12-18.86-16.73-25.94-19.59a64,64,0,0,0-27.12-5c-15.21.62-26.6,6.88-32.95,10.37-11.36,6.26-19.74,14.06-29.19,16.61-7.46,2-11.19,3-12.58,3-1.66,0-4-.27-6,1.17-.21.15-3,2.24-2.46,4.93.28,1.36,1.37,5.17,1.85,5.73l.06.05a20.15,20.15,0,0,0,3,2.13c23.48,14,50,17.52,50,17.52,11.12,1.49,21.55,2.83,35.61,1.55,20.47-1.86,31.38-7.71,36-10.5,11.41-6.91,13.37-12.74,13.82-14.21a17.87,17.87,0,0,0,.58-2.7A66.45,66.45,0,0,0,176.8,107.84ZM157.41,126.1c-2.61,3.68-7.64,4.49-10.91,5.37-12,3.23-17.64,3.46-22.46,3.58-12.63.32-21.65-1.32-32.21-3.3-8.58-1.61-19.06-4.11-23.45-10.41-1.76-2.53-1.48-4.16-1.36-4.67.57-2.38,3.34-3.59,8.37-5.36l1.27-.44a99.54,99.54,0,0,1,15.46-4.52,110.73,110.73,0,0,1,14.6-2c18.11-1.19,30.51,1.77,40.9,5.42a28.23,28.23,0,0,1,5.15,2.39h0c3.31,2,5.77,4.48,6.38,7.17C159.88,122.45,157.88,125.43,157.41,126.1Z"/><path class="cls-25" d="M181.54,118.83a66.45,66.45,0,0,0-4.74-11c-7.05-12-18.86-16.73-25.94-19.59a64,64,0,0,0-27.12-5c-15.21.62-26.6,6.88-32.95,10.37-11.36,6.26-19.74,14.06-29.19,16.61-7.46,2-11.19,3-12.58,3-1.66,0-4-.27-6,1.17-.21.15-3,2.24-2.46,4.93.28,1.36,1.37,5.17,1.85,5.73a11.69,11.69,0,0,1-3.54-5.21c-1-3-.73-7.26,1.75-9.93.81-.86,1.86-1.56,5.84-2.72,5.9-1.71,8.84-1.69,12.45-2.53a24.26,24.26,0,0,0,4.43-1.48l0,0c1.9-.85,4-2,6.82-3.56C77.8,95.37,81.43,92.19,86,89c3-2.06,12.75-8.81,24.13-11.67,12.22-3.08,22.44-.7,28.8.78,5,1.16,15.39,3.57,24.73,9.72a40.66,40.66,0,0,1,13.8,14.6C179.08,105.46,182.51,111.78,181.54,118.83Z"/><line class="cls-27" x1="152.78" y1="112.12" x2="152.77" y2="112.12"/><path class="cls-27" d="M76.66,110.87l-.07,0"/><path class="cls-25" d="M157.41,126.1c-2.61,3.68-7.64,4.49-10.91,5.37-12,3.23-17.64,3.46-22.46,3.58-12.63.32-21.65-1.32-32.21-3.3-8.58-1.61-19.06-4.11-23.45-10.41-1.76-2.53-1.48-4.16-1.36-4.67.57-2.38,3.34-3.59,8.37-5.36l1.27-.44A55.89,55.89,0,0,0,83,114.33c3.06,1.33,12.77,5.28,30.49,5.06a132.73,132.73,0,0,0,39.28-7.27h0c3.31,2,5.77,4.48,6.38,7.17C159.88,122.45,157.88,125.43,157.41,126.1Z"/><path class="cls-28" d="M152.77,112.12a132.73,132.73,0,0,1-39.28,7.27c-17.72.22-27.43-3.73-30.49-5.06a55.89,55.89,0,0,1-6.34-3.46,99.54,99.54,0,0,1,15.46-4.52,110.73,110.73,0,0,1,14.6-2c18.11-1.19,30.51,1.77,40.9,5.42A28.23,28.23,0,0,1,152.77,112.12Z"/><path class="cls-29" d="M122,454.39a2.49,2.49,0,0,1,0,.47c-.19,1.21-.89,2.07-7.78,6.74-2.76,1.87-4.36,2.89-6.74,4.42-4.59,2.91-5.2,3.17-5.71,3.37-1.78.67-5.34,2-9.08.52a10.41,10.41,0,0,1-3.25-2A7.1,7.1,0,0,1,87.48,465c-1.16-3.42.92-6.73,2.07-8.56,6.18-9.84,19.37-10.12,20-10.12,2.75,0,7.13,0,10.12,3.11C120.15,449.92,122.14,452,122,454.39Z"/><path class="cls-30" d="M184.94,501.55a36.08,36.08,0,0,1-15.05,10.38c-3.59,1.37-10.72,2.39-20,2.85-15.56.77-27.15-5-33.21-8a73.78,73.78,0,0,1-8-4.61c2.75-.15,8.84-1.79,13.23-3.7,4-1.75,6.65-3.91,12.19-9.08,10.67-9.93,11-11.2,16.87-16.08,5.38-4.47,8.91-7.34,14.53-9.34,5.42-1.94,14.16-2,17.36-1.88.29.25.5.45.67.58,7.54,6,8,14.8,8.17,17.64C191.8,482.34,192.43,493.15,184.94,501.55Z"/><path class="cls-29" d="M182.84,462.05c-3.2-.1-11.94-.06-17.36,1.88-5.62,2-9.15,4.87-14.53,9.34-5.89,4.88-6.2,6.15-16.87,16.08-5.54,5.17-8.15,7.33-12.19,9.08-4.39,1.91-10.48,3.55-13.23,3.7h0a50.45,50.45,0,0,1-9.85-8.63c-3-3.36-7.14-8.23-8.83-15.82a30.81,30.81,0,0,1-.55-9.78,10.41,10.41,0,0,0,3.25,2c3.74,1.49,7.3.15,9.08-.52.51-.2,1.12-.46,5.71-3.37,2.38-1.53,4-2.55,6.74-4.42,6.89-4.67,7.59-5.53,7.78-6.74a2.49,2.49,0,0,0,0-.47c1.36.12,3.29.29,5.58.45,17.62,1.31,24.23.36,37.88,1.82C177.34,457.93,181.26,460.7,182.84,462.05Z"/><path class="cls-31" d="M122,454.39l-.65-.06"/><path class="cls-31" d="M89.46,467.56c0,.11,0,.22,0,.34"/><path class="cls-32" d="M117,474.24a26.87,26.87,0,0,1,1.68-2.82,29.75,29.75,0,0,1,2-2.59,27.48,27.48,0,0,1,4.94-4.38,28.11,28.11,0,0,1,5.82-3.12c1-.39,2.07-.74,3.13-1a27,27,0,0,1,3.22-.64,51.25,51.25,0,0,0-6,2.39,39.46,39.46,0,0,0-5.56,3.23,38,38,0,0,0-5,4.09A45.34,45.34,0,0,0,117,474.24Z"/><path class="cls-32" d="M125.18,476.38a27.23,27.23,0,0,1,3.92-5.24,30.71,30.71,0,0,1,10.8-7.38,28.9,28.9,0,0,1,6.29-1.78c-1,.38-2,.74-3,1.17s-2,.83-2.95,1.31a44.42,44.42,0,0,0-10.58,7.23c-.79.72-1.55,1.48-2.28,2.27S125.89,475.56,125.18,476.38Z"/><path class="cls-33" d="M94.07,454.62a18.64,18.64,0,0,0,4.5,1.66l1.13.18c.39.05.79.1,1.17.12a12.08,12.08,0,0,0,2.25,0A7,7,0,0,0,107,455a9.42,9.42,0,0,0,2.54-3.88,6.48,6.48,0,0,1-1.42,5,7,7,0,0,1-4.85,2.46,10.4,10.4,0,0,1-2.68-.12c-.43-.07-.85-.17-1.26-.27a9.31,9.31,0,0,1-1.26-.42A9,9,0,0,1,94.07,454.62Z"/><path class="cls-34" d="M93.24,453a6.28,6.28,0,0,1-2.93,2.07,15.7,15.7,0,0,1-1.55.46,10.52,10.52,0,0,1-5.84-.39c-2.6-.8-4.42-2.32-7-4.47s-2.4-2.55-4.09-3.51-2.75-1.11-4.67-2.53S65,442.35,65,442.08a1.61,1.61,0,0,1,.19-.85A6,6,0,0,1,67,439.17a14.07,14.07,0,0,1,5.83-2.92C74.14,436,83,434,89.15,439.94l.38.38C92.91,443.84,95.45,449.82,93.24,453Z"/><path class="cls-34" d="M89.08,476.66c.16,1.17.46,1.83.44,2.4-7.45.89-14.65-.3-18.08-1.56-7.48-2.75-12.16-7.59-17.8-13.43-3.26-3.37-2-2.58-11.19-13.33-6.87-8-9.66-10.9-14-13.42a44,44,0,0,0-10.76-4.4l.57-.18c10.56-3.28,20.13-.64,29.71,2a135.41,135.41,0,0,1,17.25,6.48,1.61,1.61,0,0,0-.19.85c0,.27.14,1.06,2.14,2.53s3,1.62,4.67,2.53,1.48,1.33,4.09,3.51,4.4,3.67,7,4.47a10.52,10.52,0,0,0,5.84.39,15.7,15.7,0,0,0,1.55-.46c-1.53,2.31-4.88,6.63-3.11,10.48.93,2,2,1.58,1.88,3.6C89,472.64,88.61,473,89.08,476.66Z"/><path class="cls-35" d="M89.52,479.06a1.19,1.19,0,0,1-.18.58s-3.46,1-4.15,1.17c-24.19,4.65-26.4,6.81-54.35,2.59-13.64-2-18.75-7.34-20.11-8.56-2.53-2.25-7.88-7-9.6-15.18-.41-1.93-2.08-9.92,2.59-17.25,3.9-6.12,10-8.23,14-9.49a44,44,0,0,1,10.76,4.4c4.35,2.52,7.14,5.4,14,13.42,9.19,10.75,7.93,10,11.19,13.33,5.64,5.84,10.32,10.68,17.8,13.43C74.87,478.76,82.07,480,89.52,479.06Z"/><line class="cls-36" x1="89.53" y1="479.06" x2="89.52" y2="479.06"/><path class="cls-32" d="M43.22,437.71a32.45,32.45,0,0,1,3.29,1.35c1.07.53,2.11,1.11,3.13,1.74A35,35,0,0,1,60,450.62a32.42,32.42,0,0,1,3.41,6.25c-.64-1-1.26-2-1.94-3s-1.36-1.92-2.09-2.83a51.4,51.4,0,0,0-4.72-5.17,49.36,49.36,0,0,0-5.4-4.48A58.85,58.85,0,0,0,43.22,437.71Z"/><path class="cls-32" d="M51.39,437.71A34.14,34.14,0,0,1,56.9,441a41.18,41.18,0,0,1,4.89,4.16,39.7,39.7,0,0,1,4.17,4.9c.62.87,1.22,1.76,1.78,2.67s1.06,1.86,1.51,2.83c-.64-.85-1.25-1.72-1.92-2.55s-1.29-1.67-2-2.48c-1.36-1.61-2.77-3.18-4.26-4.66S58,443,56.43,441.6,53.11,439,51.39,437.71Z"/><path class="cls-33" d="M89.52,440.32a8.59,8.59,0,0,1-6.64,3.94,8.71,8.71,0,0,1-4-.72,7.7,7.7,0,0,1-3.1-2.38,31.66,31.66,0,0,0,3.56.87,14.43,14.43,0,0,0,3.38.23,12.5,12.5,0,0,0,3.31-.64C87.2,441.26,88.33,440.82,89.52,440.32Z"/><path class="cls-37" d="M90.38,439,96,455.4a9.42,9.42,0,0,0,8.29,1.14c4.8-1.56,4.55-4.45,4.55-4.45l-3.58-16s-2.34,3.76-6.17,3.89A41.37,41.37,0,0,1,90.38,439Z"/><path class="cls-37" d="M71.38,431.69l4.8,9.84a28.7,28.7,0,0,0,4.15.8c7.77,0,9.12-3.05,9.12-3.05l-2.31-1.06-2-2.67-3-7.36Z"/><path class="cls-38" d="M22.29,359.11a87.59,87.59,0,0,0,8.56,19.65A181.57,181.57,0,0,0,50.56,406c0,.06,13.32,20.31,13.18,20.09s.31,2.19,1.26,3.41,1.66,1.2,3.41,1.46a13.49,13.49,0,0,0,4.48,0C78.24,430,81,427.11,83,428c.27.13.14.3,1.67,3.4a21.79,21.79,0,0,0,1.68,3.17,16,16,0,0,0,2,2.92c3,3,8.46,2.65,10.12,2.41a18.71,18.71,0,0,0,4.18-1.05c1.35-.62,4.15-2.63,5-5.06s-1.06-4.86-3-9.21c-1-2.1-1.48-4.89-2.92-11.35-2.4-10.7-2.66-11.41-3.57-15.82-.31-1.5-1.07-3-6.62-8.76-15.49-16.09-17.59-15-21.4-21.8a37.59,37.59,0,0,0-4.48-6,29.24,29.24,0,0,1-3,2.34c-6.08,4.33-14.78,3.95-18.43,3.89C34.6,366.94,27.47,362.54,22.29,359.11Z"/><path class="cls-15" d="M44.84,386.88A43,43,0,0,0,57.33,395c2.3,1,4.69,1.57,7,2.33s4.76,1.37,7.22,2.13v.2a23,23,0,0,1-7.72-.4,28.2,28.2,0,0,1-7.2-2.81,41.26,41.26,0,0,1-6.48-4.15A39.41,39.41,0,0,1,44.7,387Z"/><path class="cls-15" d="M63.81,383.39l6.33,13c2,4.37,4.2,8.69,6.18,13.09s4.14,8.72,5.93,13.2,3.51,9,4.92,13.63l-.19.08c-2.42-4.21-4.53-8.55-6.57-12.92s-3.73-8.88-5.56-13.34-3.75-8.88-5.63-13.32l-5.59-13.35Z"/><path class="cls-39" d="M174.55,403.65a5,5,0,0,1-1.93,1.27l-.17.05h0a2.11,2.11,0,0,1-.45.1c-1.62.22-2.29-.79-5.06-2.08-3-1.4-3.18-.65-6-2.07-2-1.05-2.44-1.7-4-1.95s-1.65.23-3.76.26c-1.65,0-3.65,0-4.85-.93h0a2.74,2.74,0,0,1-.47-.49,4.07,4.07,0,0,1-.52-3,5.64,5.64,0,0,1,1.43-2.86c2.29-2.64,6.13-3.51,7.39-3.76,2.11-.41,9.42-1.86,15.57,2.6,1.59,1.15,4.31,3.12,4.8,6.48C176.54,397.57,177,401.28,174.55,403.65Z"/><path class="cls-40" d="M172.62,404.92l-6.35,9.26c-.05-.22-2-3.56-2-3.79.32-1.4,6.15-4.76,8.1-5.41h0Z"/><path class="cls-40" d="M165.09,435.82c-1.22,3.51-3.32,7.1-7.53,14.27-3.65,6.24-4.8,7.36-5.83,8.17-3.89,3.07-10.21,5.09-16.09,2.86-1.32-.5-6.34-2.63-8-7.53a11.89,11.89,0,0,1-.39-5.58c.69-6.49,3.28-11.66,4.41-15.56,1.21-4.18,3.65-8.68,10.38-16.74,2.71-3.25,4-4,6-6.23a3.51,3.51,0,0,1,1.88-1l16.43,5.66C168.82,420.24,166.91,430.57,165.09,435.82Z"/><path class="cls-40" d="M164.31,410.39c-.05.23,1.91,3.57,2,3.79l-16.43-5.66c.07-.08,2.11-.88,2.15-1,.3-.83-.25-1.6-1.3-3.63-1-1.86-1.87-4.3-2.39-5.6,1.2,1,3.2.95,4.85.93,2.11,0,2.31-.49,3.76-.26s2,.9,4,1.95c2.79,1.42,3,.67,6,2.07,2.77,1.29,3.44,2.3,5.06,2.08a2.11,2.11,0,0,0,.45-.1C170.46,405.63,164.63,409,164.31,410.39Z"/><path class="cls-40" d="M152,407.54c0,.1-2.08.9-2.15,1l-1.54-10.21c.52,1.3,1.43,3.74,2.39,5.6C151.74,405.94,152.29,406.71,152,407.54Z"/><path class="cls-41" d="M170.39,413.1a9.39,9.39,0,0,1-4,3.33c-2.12,1-3.86.71-6.72.22s-6.35-1-9.54-4a11.12,11.12,0,0,1-4-6.59,7.19,7.19,0,0,1,.25-2.8c1.23-.32,2.38-.42,2.92-1.26a44.61,44.61,0,0,0,4.8,4.39,13,13,0,0,0,4.35,1.86c1.28.31,5.66,0,9.08-.56.31,2.06,2.28,3.8,2.85,5.38C170.37,413.09,170.39,413.09,170.39,413.1Z"/><path class="cls-42" d="M158.11,417.61a38.49,38.49,0,0,1,.06,9.83,25.11,25.11,0,0,1-.92,4.86,20.58,20.58,0,0,1-2,4.53l-.1,0c.36-1.61.77-3.17,1.13-4.75s.8-3.12,1.09-4.72a43.66,43.66,0,0,0,.63-9.7Z"/><path class="cls-42" d="M152.83,415.69a33.17,33.17,0,0,0-6.49,7.21c-.88,1.35-1.61,2.79-2.38,4.2s-1.49,2.86-2.25,4.33l-.1,0a18.64,18.64,0,0,1,1.45-4.73,22.41,22.41,0,0,1,2.63-4.22,32.15,32.15,0,0,1,3.26-3.72,31.45,31.45,0,0,1,3.82-3.11Z"/><path class="cls-43" d="M157.46,398.32a60.52,60.52,0,0,1,3.3-7.58c3.54-6.8,1.4-8.75,3.9-11.29s5.09-1,21.79-.39c6.09.21,8.8.1,10.9,2.33a8.88,8.88,0,0,1,1.55,9.15,9.43,9.43,0,0,1-6.22,5.25c-2.63.74-4.8.09-8.18-1-5.11-1.6-5.83-3.19-10.5-4.28-3.34-.78-5.25-1.22-6.82-.19-3.53,2.32-3.11,10.74-3.89,10.7S158.18,400.4,157.46,398.32Z"/><path class="cls-44" d="M169.19,400.78c-4.09-.47-5.95-2.59-10.2-5.31a18.48,18.48,0,0,0-7-2.86c-4.22-.95-5.23.21-11.16-.26-4.32-.34-6.75-.56-9.08-2.33a10.85,10.85,0,0,1-4.15-6.75,26.12,26.12,0,0,1,3.37-14c.5-.91,3-4.37,8.05-9.31,4.53-4.44,4.63-3.87,15.82-12,4.25-3.07,8.07-6.09,14-7.52a6.47,6.47,0,0,1,5.29.71c4.48,1.78,6,5.16,8,7.41.64.7,1.12.63,2.58.69,3.25.11,7.59,4.16,8.37,8.56s-.34,5.95,1.51,8.61a5.25,5.25,0,0,1,1,2c1.73,4.53-.54,11.72-1.43,13.92-.6,1.47-6.16,11.49-12,13.68-1.45.55-4.05-.16-5.1.21s-1.75,3.1-3.82,3.93A8.54,8.54,0,0,1,169.19,400.78Z"/><path class="cls-45" d="M160.33,375.18a49.53,49.53,0,0,1-.7-5.65,28.48,28.48,0,0,1,4.27-16.14A28,28,0,0,0,161.05,364a26.39,26.39,0,0,0,.17,5.41,47.37,47.37,0,0,0,1.05,5.33v0a1,1,0,0,1-.72,1.22,1,1,0,0,1-1.22-.71S160.33,375.2,160.33,375.18Z"/><path class="cls-46" d="M181.36,348.36a46.5,46.5,0,0,1,1.26,8.7,40.46,40.46,0,0,1-7.33,23.09"/><path class="cls-46" d="M181.76,349.52c1.2.1,4.76-.14,6.77,1.29a11.73,11.73,0,0,1,4.15,6.3c2.08,6.31,1,14.6-3.25,21.34a31.66,31.66,0,0,1-11.87,10.64"/><path class="cls-46" d="M193.7,365.54c.62,1.93,2.8,6.65,2.48,10.51-.59,7.06-4.35,11.64-6.62,14.4s-4.52,5.42-8.36,6.09a16.85,16.85,0,0,1-4.51,0"/><path class="cls-45" d="M151.29,377.21a15.41,15.41,0,0,1,10-2,25.27,25.27,0,0,1,5.14,1,45.57,45.57,0,0,1,4.85,1.89l1.18.5.58.24a3.61,3.61,0,0,1,.72.46,12.18,12.18,0,0,1,2,1.95,10.82,10.82,0,0,1,1.45,2.39,12.74,12.74,0,0,1,.82,2.64l.49,2.52a9.71,9.71,0,0,1,.13,2.83,25.42,25.42,0,0,1-.4,2.66l-.29,1.28-.16.62-.06.3,0,.12h0v-.08s0,.06,0-.17a.91.91,0,0,0-.23-.46,1,1,0,0,1-1.48,1.35,1.18,1.18,0,0,1-.25-.5c0-.25,0-.15,0-.21v-.16l0-.14,0-.2.08-.33.15-.62.29-1.22a20.59,20.59,0,0,0,.38-2.42,7.77,7.77,0,0,0-.07-2.27l-.47-2.53a10,10,0,0,0-.66-2.26,8.71,8.71,0,0,0-1.18-2,10.36,10.36,0,0,0-1.65-1.66l-.35-.25-.58-.3-1.14-.6a48.76,48.76,0,0,0-4.55-2.21,24.13,24.13,0,0,0-4.84-1.36A15,15,0,0,0,151.29,377.21Z"/><path class="cls-47" d="M19.84,241.2c-1.69-.72-13.8-2-14.3-1.7-.76.48-.7,3-.58,3.69,1.54,9.11,31.64,31,37.1,35"/><path class="cls-47" d="M106.39,281.24c13.38.73,37.9-19.71,35.63-21.4a13.32,13.32,0,0,0-4.67-.39"/><path class="cls-48" d="M84.19,91.68c.07-1.68-2.49-3.7-7-6.41-4.84-2.89-7.57-4.61-10.44-4.65s-4.63.81-8.3,2c-.31.1-2.41-.18-4.73.1-4.24.5-4.68.64-5.16.87-2.3,1.11-2.11,2.57-4.28,3.31-1.24.42-1.76.11-4,.1a22.9,22.9,0,0,0-6.23.77c-1.53.48-3.87,1.74-6.61,6.72-3.22,5.84-3.1,9.75-5.16,21.31-1.39,7.79-2.19,10.22-2.73,16.63-.51,6.17-.19,9,.88,11.87a21.1,21.1,0,0,0,5.94,8.37c4.12,3.71,9.55,5.89,11.38,5.06a2.82,2.82,0,0,1,1.75-.29,2.77,2.77,0,0,1,1.46.88c1.32,1.29,4.23,1,5.94.77a19,19,0,0,0,8.75-3.6c2.91-2,2.64-2.72,7.69-7.39,3.16-2.92,4.78-4.4,6.71-5.06,2.3-.79,4.29-.62,8.27-.29,5.21.43,6.4,1.39,9,.48a8.16,8.16,0,0,0,4.38-3.5,8.93,8.93,0,0,0,.59-6.61,14.06,14.06,0,0,0-5.45-8,17,17,0,0,0-9.93-3.31,19.35,19.35,0,0,0-11.38,3c-5.28,3.51-5.7,7.63-8.27,7.14-.94-.18-1.25-.46-3.41-1.78-4.2-2.59-5-3.18-7.78-6.13a14.3,14.3,0,0,1-4.09-8.76,9.73,9.73,0,0,1,1.66-6.62c1.4-1.79,3.29-2.46,7.88-3.5,8.58-1.95,8.4-1.71,12-3.11,3.1-1.22,3,.08,12.63-5C82.28,93.82,84.13,93.28,84.19,91.68Z"/><path class="cls-45" d="M50,147.16a25,25,0,0,1-1.79,4.08,26.2,26.2,0,0,1-2.42,3.84,14,14,0,0,1-3.53,3.14,15.29,15.29,0,0,1-4.48,1.84l-.46-3a11.86,11.86,0,0,0,7.37-3,24.25,24.25,0,0,0,2.89-3.22A25.3,25.3,0,0,0,50,147.16Z"/><path class="cls-49" d="M21.53,147.18c-1,.23-1.63,3.48-1.55,5.19.24,5.33,4.28,9,5.64,10.31a22.71,22.71,0,0,0,13.62,5.64c3.48.38,6.49.7,8.76-1.36s3.2-5.63,1.94-7.39S39.5,160,34.6,157.72A36,36,0,0,1,26.85,153C23.81,149.64,22.68,146.9,21.53,147.18Z"/><path class="cls-45" d="M31.75,101.87a11.2,11.2,0,0,0,2.3,2.91c.88.88,1.81,1.71,2.75,2.53a17.42,17.42,0,0,0,6.41,3.44l-.32,1a18.3,18.3,0,0,1-6.43-4c-.89-.89-1.76-1.78-2.59-2.72A11.41,11.41,0,0,1,31.75,101.87Z"/><path class="cls-45" d="M37.22,108.52a6.72,6.72,0,0,1-1.89.06,6.86,6.86,0,0,1-1.79-.36,7.41,7.41,0,0,1-3-2,7.17,7.17,0,0,0,3.1,1.39,6.6,6.6,0,0,0,1.66.06,6.25,6.25,0,0,0,1.57-.3Z"/><path class="cls-31" d="M62.27,102.58c-1.81-1.59-3.73-3.2-5.77-4.8-4.52-3.55-13-8.18-17.17-10.72"/><path class="cls-31" d="M74.59,97.58a47.18,47.18,0,0,0-3.82-4.86,29.23,29.23,0,0,0-8-6.81c-2-1.12-9.38-2.61-10.67-3"/><path class="cls-50" d="M35,296.31c-2.29,1.62-4,5.68-7.39,13.82-1.7,4.05-8.07,19.84-7.4,37.75.11,2.91.42,6.2,2.53,9.34,2.73,4.06,6.91,5.53,11.09,7A38,38,0,0,0,51.39,366c5.2-.69,12.11-1.59,13.62-5.65,1.11-3-1.57-5.4-3.5-10.51-2-5.3-1.6-10-.78-19.46,1-12.1,4.86-29.19,11.09-34.05.5-.39,2.44-1.81,2.14-2.53s-3.82-.19-4.87,0C56.09,296.15,43.65,290.24,35,296.31Z"/><ellipse class="cls-51" cx="34.56" cy="339.59" rx="10.89" ry="7.22" transform="translate(-302.96 288.61) rotate(-75.6)"/><path class="cls-52" d="M51.42,290.37c-2-.51-2.39-1.95-4.28-2.86a7.76,7.76,0,0,0-5.45-.19c-3.16,1-4.64,4.08-6,6.94,0,0-4.4,9.5-.13,23.94.19.62.54,1.68,1.36,1.94,1.39.45,3.21-1.65,3.83-2.33,1.59-1.76,5-3.95,11.81-8.31,8.77-5.62,11-5.94,15.56-9,.45-.3,1.56-3.38.39-5.84-1.81-3.83-9.17-5.59-13.81-4.48A6.23,6.23,0,0,1,51.42,290.37Z"/><path class="cls-53" d="M42.4,301.21a14.66,14.66,0,0,1,3.86-7.69A15.6,15.6,0,0,1,53.83,289a13.62,13.62,0,0,1,8.84.82,14.25,14.25,0,0,1,6.39,5.78,19.52,19.52,0,0,0-7-4.33,14.18,14.18,0,0,0-3.89-.71,12.5,12.5,0,0,0-3.9.38,14.06,14.06,0,0,0-3.67,1.43,18.44,18.44,0,0,0-3.3,2.3A20.17,20.17,0,0,0,42.4,301.21Z"/></g></g></svg>