<svg width="100" height="100" viewBox="0 0 100 100" fill="none" xmlns="http://www.w3.org/2000/svg">
<path d="M7.87488 85.9814L32.1874 99.5189C32.6206 99.755 33.1074 99.8756 33.6007 99.8691C34.0941 99.8626 34.5775 99.7293 35.0044 99.4819C35.4313 99.2346 35.7874 98.8815 36.0384 98.4567C36.2893 98.0319 36.4267 97.5497 36.4374 97.0564V22.1626C36.4373 21.3665 36.2224 20.5852 35.8154 19.9011C35.4084 19.2169 34.8244 18.6552 34.1249 18.2751L16.3124 8.37511H66.9374C67.0287 8.37339 67.1194 8.3902 67.204 8.42453C67.2886 8.45886 67.3653 8.51 67.4296 8.57486C67.4939 8.63971 67.5443 8.71693 67.5779 8.80184C67.6114 8.88675 67.6274 8.97759 67.6249 9.06886V10.1751C67.6249 11.2857 68.0661 12.3508 68.8514 13.1361C69.6367 13.9214 70.7018 14.3626 71.8124 14.3626C72.923 14.3626 73.9881 13.9214 74.7734 13.1361C75.5587 12.3508 75.9999 11.2857 75.9999 10.1751V2.83761C75.9982 2.47049 75.9241 2.10731 75.7817 1.76892C75.6393 1.43053 75.4315 1.1236 75.1702 0.865756C74.9089 0.607909 74.5992 0.404224 74.2589 0.266397C73.9186 0.12857 73.5545 0.0593162 73.1874 0.0626124H9.06238C8.33677 0.0642279 7.64107 0.351911 7.12623 0.863237C6.61139 1.37456 6.31896 2.06828 6.31238 2.79386H6.24988V83.3314C6.25628 83.8786 6.41072 84.414 6.69682 84.8805C6.98293 85.3471 7.39001 85.7275 7.87488 85.9814ZM14.6249 62.4501V16.9376L27.2499 23.9314C27.4956 24.0673 27.7005 24.2665 27.8433 24.5082C27.9862 24.75 28.0618 25.0255 28.0624 25.3064V86.4126C28.0647 86.5415 28.0308 86.6684 27.9645 86.7789C27.8982 86.8894 27.8022 86.979 27.6874 87.0376C27.573 87.1022 27.4438 87.1362 27.3124 87.1362C27.181 87.1362 27.0518 87.1022 26.9374 87.0376L14.6249 80.1626V62.4189V62.4501ZM73.1874 30.8876C73.7977 30.4327 74.2934 29.8415 74.6348 29.1611C74.9763 28.4808 75.1541 27.7301 75.1541 26.9689C75.1541 26.2076 74.9763 25.4569 74.6348 24.7766C74.2934 24.0962 73.7977 23.505 73.1874 23.0501C72.727 22.4416 72.1319 21.9481 71.4487 21.6083C70.7655 21.2685 70.0129 21.0917 69.2499 21.0917C68.4869 21.0917 67.7342 21.2685 67.0511 21.6083C66.3679 21.9481 65.7727 22.4416 65.3124 23.0501L53.4374 34.8626C52.8835 35.3927 52.4192 36.009 52.0624 36.6876C51.8357 37.0714 51.687 37.4962 51.6249 37.9376C51.6249 37.9876 51.5624 38.0376 51.5624 38.0814C51.4043 38.961 51.4831 39.8668 51.7906 40.7059C52.0981 41.545 52.6233 42.2872 53.3124 42.8564L53.4999 43.0251C53.7674 43.4218 54.1065 43.7652 54.4999 44.0376L65.1874 54.6626C65.6477 55.2711 66.2429 55.7646 66.9261 56.1044C67.6092 56.4442 68.3619 56.621 69.1249 56.621C69.8879 56.621 70.6405 56.4442 71.3237 56.1044C72.0069 55.7646 72.602 55.2711 73.0624 54.6626C73.6727 54.2077 74.1684 53.6165 74.5098 52.9362C74.8513 52.2558 75.0291 51.5051 75.0291 50.7439C75.0291 49.9826 74.8513 49.2319 74.5098 48.5516C74.1684 47.8712 73.6727 47.28 73.0624 46.8251L71.0624 44.8376H88.1874C88.9306 44.8626 89.6713 44.7377 90.3653 44.4705C91.0594 44.2033 91.6925 43.7992 92.2271 43.2823C92.7618 42.7653 93.1869 42.1461 93.4773 41.4614C93.7676 40.7767 93.9172 40.0407 93.9172 39.297C93.9172 38.5533 93.7676 37.8172 93.4773 37.1326C93.1869 36.4479 92.7618 35.8287 92.2271 35.3117C91.6925 34.7947 91.0594 34.3906 90.3653 34.1234C89.6713 33.8562 88.9306 33.7314 88.1874 33.7564H70.2499L73.1874 30.8876ZM71.8124 62.8001C70.7062 62.7968 69.6439 63.2326 68.8587 64.0119C68.0736 64.7912 67.6298 65.8502 67.6249 66.9564V73.3814C67.6286 73.564 67.5614 73.741 67.4374 73.8751C67.3029 74.0041 67.1237 74.0758 66.9374 74.0751H42.1874C41.0851 74.0751 40.0279 74.513 39.2485 75.2924C38.469 76.0719 38.0311 77.1291 38.0311 78.2314C38.0311 79.3337 38.469 80.3908 39.2485 81.1703C40.0279 81.9497 41.0851 82.3876 42.1874 82.3876H73.1874C73.5542 82.3917 73.9182 82.3233 74.2584 82.1861C74.5987 82.049 74.9084 81.8459 75.1698 81.5885C75.4312 81.3312 75.6392 81.0247 75.7816 80.6866C75.9241 80.3486 75.9982 79.9857 75.9999 79.6189V66.9564C75.9949 65.8502 75.5511 64.7912 74.766 64.0119C73.9809 63.2326 72.9186 62.7968 71.8124 62.8001Z" fill="#89D0C2"/>
</svg>
