<svg id="fairy5" xmlns="http://www.w3.org/2000/svg" viewBox="0 0 222.02 408.61"><defs><style>.cls-1,.cls-10,.cls-2,.cls-9{fill:#fff;}.cls-1{stroke:#fff;stroke-width:1.03px;opacity:0.4;}.cls-1,.cls-11,.cls-12,.cls-14,.cls-16,.cls-5,.cls-8{stroke-linecap:round;stroke-linejoin:round;}.cls-13,.cls-3,.cls-4,.cls-6{fill:#f7d3be;}.cls-10,.cls-11,.cls-12,.cls-14,.cls-16,.cls-17,.cls-3,.cls-4,.cls-5,.cls-6,.cls-7,.cls-8,.cls-9{stroke:#000;}.cls-10,.cls-17,.cls-3,.cls-4,.cls-6,.cls-7,.cls-9{stroke-miterlimit:10;}.cls-3{stroke-width:0.82px;}.cls-12,.cls-4,.cls-7,.cls-8{stroke-width:0.75px;}.cls-5{fill:#99f;}.cls-14,.cls-5{stroke-width:0.77px;}.cls-6{stroke-width:0.73px;}.cls-15,.cls-7,.cls-8{fill:#ff9;}.cls-9{stroke-width:0.77px;}.cls-10{stroke-width:0.6px;}.cls-11,.cls-16{fill:#ffc;}.cls-11{stroke-width:0.89px;}.cls-14{fill:none;}.cls-16{stroke-width:0.94px;}.cls-17{fill:#9e005d;stroke-width:0.43px;}</style></defs><path class="cls-1" d="M2295.72,358.5c-3.12-3.13-44.56,33.81-69.47,56-75.83,67.61-49.88,56.42-67.23,68-2.72,1.81-9.2,6-9,11.2.39,8.72,19.38,18.26,35.85,15.69,11.71-1.83,19.5-9.36,29.13-18.67a123.84,123.84,0,0,0,18.68-23.16c30.83-48,31.52-62.21,55.27-97.11C2293.24,364.22,2296.72,359.51,2295.72,358.5Z" transform="translate(-2074.39 -354.25)"/><path class="cls-1" d="M2120.92,354.77s3.25,29.67,5.23,43.32c8,55.11,29.15,82.62,19.42,90.38-4.8,3.83-15.93,1.9-21.66-3a19.81,19.81,0,0,1-5.23-7.47,18.2,18.2,0,0,1-.74-9c1.36-9.48-2.36-19.08-1.5-54.53.76-31,4.48-59.71,4.48-59.75Z" transform="translate(-2074.39 -354.25)"/><path class="cls-1" d="M2194.13,513.12c3.87,1.86,17.3,8.53,21.66,22.41,1,3.32,2.89,9.2,0,13.45-5.41,8-23.18,4-27.64,3-6-1.34-11-3.63-20.91-8.22-5.26-2.42-7.93-3.66-9.71-5.23-6.83-6-11.26-17.78-7.47-24.65C2155.8,503.47,2179.49,506.12,2194.13,513.12Z" transform="translate(-2074.39 -354.25)"/><path class="cls-2" d="M2234.52,407.8c.17,3.82.22,7.66.13,11.49s-.43,7.67-.84,11.49a148,148,0,0,1-12.14,44.3q-2.37,5.25-5.11,10.31t-5.95,9.83a.05.05,0,0,1-.08,0,0,0,0,0,1,0-.07,167.62,167.62,0,0,0,18-42,166.31,166.31,0,0,0,5.93-45.33.05.05,0,0,1,.05-.05A.06.06,0,0,1,2234.52,407.8Z" transform="translate(-2074.39 -354.25)"/><path class="cls-2" d="M2200.16,438.42c.45,3,.72,6,.93,9s.21,6,.17,9a126.58,126.58,0,0,1-1.69,18c-.53,3-1.15,5.93-1.88,8.86s-1.51,5.85-2.49,8.7-2,5.69-3.16,8.48-2.43,5.51-3.84,8.16a.05.05,0,0,1-.07,0,.06.06,0,0,1,0-.07,141.69,141.69,0,0,0,11.94-70.19,0,0,0,0,1,0-.05S2200.15,438.4,2200.16,438.42Z" transform="translate(-2074.39 -354.25)"/><path class="cls-2" d="M2194.16,513.1a29.15,29.15,0,0,1,3.21,4.34,31.52,31.52,0,0,1,2.33,4.91,29.61,29.61,0,0,1,1.84,10.72,29.06,29.06,0,0,1-.63,5.43,26.44,26.44,0,0,1-1.59,5.22,32.88,32.88,0,0,1-2.53,4.81,28.09,28.09,0,0,1-3.38,4.21s0,0,0,0,0,0,0,0a31.87,31.87,0,0,0,5.42-9.18,28.72,28.72,0,0,0,1.47-5.14,27.9,27.9,0,0,0,.55-5.31,31.46,31.46,0,0,0-6.69-19.91s0,0,0,0S2194.14,513.09,2194.16,513.1Z" transform="translate(-2074.39 -354.25)"/><path class="cls-2" d="M2170.25,507.12a26.42,26.42,0,0,1,4,3.79,32.08,32.08,0,0,1,3.16,4.55,26.32,26.32,0,0,1,2.19,5.12,25.75,25.75,0,0,1,1,5.5,24.82,24.82,0,0,1-1.8,10.95,25.2,25.2,0,0,1-6.3,9h0a0,0,0,0,1,0,0,27.67,27.67,0,0,0,5.81-9.15,25.51,25.51,0,0,0,.67-16.05,28.63,28.63,0,0,0-2.05-5,30.48,30.48,0,0,0-6.67-8.55s0,0,0-.06Z" transform="translate(-2074.39 -354.25)"/><path class="cls-3" d="M2150.5,474.5c0,.58,0,.64-1,2-1.9,2.51-.95,6.87-.57,8.12.63,2,5.46.49,12.27,3.55a18.46,18.46,0,0,1,5.42,3.55,17.83,17.83,0,0,1,3.54,4.84c2.8,5.37,6.47,10.24,9.53,15.47,7.21,12.33,7.26,12.53,8.24,13.58a57.37,57.37,0,0,1,6.37,8,40.23,40.23,0,0,1,2,3.54c4.23,8.19,5.41,13.64,10,21.13,1.81,3,2.84,4.09,4.36,4.49,2.39.63,3.53-1.09,7.9-.93,2,.07,2.11.44,4.61.48,2.25,0,2.78-.27,4.83-.11s4.38.68,4.37,1.06c0,.16-.42.26-.83.36a10.31,10.31,0,0,1-3.42,0,13.24,13.24,0,0,0-2.83.23c-1.43.21-3.05.45-3.07.83s2.31.77,6.72,2c5.16,1.45,5.32,1.95,5.31,2.13,0,.38-.93.82-1.65.71a1.41,1.41,0,0,1-.59-.24c-.89-.56-2.27-.51-4.6-.48-1.59,0-3.42,0-3.43,0a14.58,14.58,0,0,1,2.84-.23c3.46,0,7,.9,6.95,1.42s-3.59.67-5.07.7c-4.32.09-7.26-.78-7.43-.24-.24.72,5,3.14,4.95,4.72,0,.11,0,.47-.24.59s-.84-.23-1.18-.47a32.76,32.76,0,0,0-3.3-2,11.2,11.2,0,0,0-2.36-1c-3.43-1-5.12.35-8.61-.72a11.71,11.71,0,0,1-1.77-.71c-4.25-2-6.07-5.81-9.42-10.63-1.6-2.29-3.19-4.2-6.37-8-5-6-5.33-5.6-7.54-8.5a36.25,36.25,0,0,1-2.29-3.49c-2.27-4-6.1-17.93-12.3-25-8.25-9.36-22.16-8.24-26.3-7.82-4.94.5-6.69,1.82-7.44,3.18-.94,1.7-.12,3.11-.36,6a17.59,17.59,0,0,1-3.31,8.26c-3.25,4.29-9.08,4.56-19.83,5-2.42.11-7.94-.65-19-2.15a9.81,9.81,0,0,1-5.3-2.13,9.42,9.42,0,0,1-2.24-3c-1.52-3-.56-4.7-2.23-6.38-.75-.74-1-.49-2.13-1.53-1.6-1.53-2-3-2.23-3s.31,3,1.64,6.14c1,2.38,2,4,1.76,4.13s-.89-.63-1.53-1.3c-.85-.89-1.27-1.35-1.29-1.89,0-.92.86-1.61.71-1.77s-.48.09-.83.36c-1.09.83-.92,1.88-2,3.3-.17.22-.82,1.06-1.06.94s.31-1.25.83-3.77c.3-1.46.38-2.45,1.18-2.95a3.42,3.42,0,0,1,.83-.35,3.42,3.42,0,0,0-.83.35c-.74.47-.8,1.33-1.18,2.95-.64,2.72-1.17,3.3-1.42,3.53-.54.52-1.37.94-1.65.71s.3-1.24.59-3.18c.11-.79,0-.74.12-2,.21-2.79.32-4.3,1.3-5,.66-.44,1.18-.14,1.66-.71a1.68,1.68,0,0,0,.12-2c-.33-.32-.78-.14-2-.12-.66,0-2.48.05-2.59-.35s1.55-1.74,3.54-2c2.3-.32,4.23.88,7.66,3.07a22.52,22.52,0,0,1,4.25,3.08c3.58,3.72,2.23,6.77,4.71,8.73,3,2.4,8.4.49,12.74-1,5.22-1.85,6-3.68,11.57-4.94,3.47-.8,4.16-.31,5.31-1.29.75-.64,2.25-2.4.73-15.46-.36-3.07-1-8,.37-12.86a6,6,0,0,1,7.91-4.36c1.25.51,2,1.48,3,1.19a2,2,0,0,0,1.06-.94c3-4.83-1.11-9.63,5.63-8.05C2147.14,475,2150.38,472.4,2150.5,474.5Z" transform="translate(-2074.39 -354.25)"/><path class="cls-4" d="M2133,604c.47,5.78.71,8.68.75,9,1.28,9.34,4.75,12.91,9,24.65.7,2,1.72,5.57,3.73,12.7,6.73,23.84,10.1,35.79,10.46,37.35,0,0,5.23,22.28,5.23,35.11v7.46a2.1,2.1,0,0,0,0,1.5s.58,1.06,7.47.75a26.92,26.92,0,0,0,2.24-12c-.2-4.73-1.67-6-3-11.2-1.87-7.44-.2-9.79-.74-21.66-.21-4.45-.64-7.7-1.5-14.2-6.13-46.29-11.17-84.28-23.15-85.9-3.7-.5-8.8,2.36-10.46,6C2132.25,595.08,2132.32,596.37,2133,604Z" transform="translate(-2074.39 -354.25)"/><path class="cls-4" d="M2176.27,591.33c1.94,3-.2,8-4.48,17.93-4.19,9.72-6.27,10.56-6.72,15.68-.49,5.56,2,6.67,4.48,16.44a82.26,82.26,0,0,1,2.24,18.67c-.05,8.74-2,15-4.48,23.16-3,9.62-8.61,24-9.71,30.62a66.47,66.47,0,0,0-.75,7.47,11.78,11.78,0,0,0,0,3.74,8.57,8.57,0,0,0,1.5,3c1.37,2.14.6,4.27-1.5,14.2-.88,4.19-1.12,5.56-2.24,6-2.09.78-6-2.24-6-2.24h0s-.23-7.26,0-14.19c.12-3.71.26-3.93.74-11.21,0,0,.38-5.76.75-13.44,1-21.8-.66-49-2.24-60.51-.33-2.36-.75-5.22-.75-5.22-1.12-7.66-2-13.07-2.24-14.2-1.63-10-3.93-24,3-32.12C2155.42,586.22,2172.7,585.75,2176.27,591.33Z" transform="translate(-2074.39 -354.25)"/><path class="cls-5" d="M2147.5,524.5" transform="translate(-2074.39 -354.25)"/><path class="cls-5" d="M2121.5,536.5" transform="translate(-2074.39 -354.25)"/><path class="cls-6" d="M2161,466.81c-1.09,1.44-4.3,4.2-10.74,9.71a15.29,15.29,0,0,1-6.44,3.74,13.38,13.38,0,0,1-6.44,0c-3.33-.85-5.33-2.81-8.59-6-2.41-2.34-3.61-3.51-4.3-5.23-.61-1.52-.51-2.35-1.43-7.47-.36-2-.6-3.15-.72-3.73-1.78-9.35-4.17-21.9.72-29.13,5.32-7.88,19.6-10,29.35-4.49C2167.57,432.76,2168,457.49,2161,466.81Z" transform="translate(-2074.39 -354.25)"/><ellipse class="cls-7" cx="2156.06" cy="416.93" rx="11.25" ry="14.52" transform="translate(-1108.53 1908.18) rotate(-68.13)"/><path d="M2128.39,445.84a3.62,3.62,0,0,1-.24,3,2.64,2.64,0,0,1-1.31,1.05,4.4,4.4,0,0,1-1.59.27,6,6,0,0,1-2.92-.85,8.9,8.9,0,0,1-1.22-.86,7.8,7.8,0,0,1-1-1.09h0a0,0,0,0,1,0,0h0a8.14,8.14,0,0,0,5.1,2.26,3,3,0,0,0,2.52-1,4.06,4.06,0,0,0,.55-2.72,0,0,0,0,1,0,0l0,0Z" transform="translate(-2074.39 -354.25)"/><path class="cls-8" d="M2162.76,464.57c.59.36,2.95-1.77,4.48-4.48,1.09-1.95.76-2.6,2.24-6.72.7-2,1.26-3.19,1.49-3.74,1.57-3.79,2-11.38,0-17.18-5-14.57-25.15-17.46-28.38-17.93-3.52-.5-9.32-1.26-15.69,1.5a22,22,0,0,0-9,6.72c-4.87,6.24-4.61,13.28-4.49,15.69.44,8.44,5.05,15.22,6,14.94.34-.11.48-2.06.75-6,.13-1.95.21-2.59.74-3,1.21-.88,3.8.32,5.23,1.5a24.08,24.08,0,0,1,2.24,2.24,23,23,0,0,0,6.73-6,28.63,28.63,0,0,0,3-6s3.16,3.49,3,7.47c-.05,1.11-.21,1.25,0,1.49.8.91,3.77-.94,11.95-4.48l5.23-2.24s1.88,4,3,6.72c1.89,4.66,2.92,7.19,3,10.46C2164.36,460.83,2162,464.09,2162.76,464.57Z" transform="translate(-2074.39 -354.25)"/><path class="cls-9" d="M2156,452.62c-.34-1.41-3.54-2.22-6-1.49a7.4,7.4,0,0,0-4.49,5.22,1.08,1.08,0,0,0,0,.75c.5,1,3.35.64,5.23,0C2153.19,456.29,2156.41,454.19,2156,452.62Z" transform="translate(-2074.39 -354.25)"/><path class="cls-10" d="M2122.68,455c.2-1,2.89-1.81,5-1.47a5.83,5.83,0,0,1,4.13,3.36.61.61,0,0,1,.05.53c-.37.72-2.82.68-4.46.36C2125.31,457.38,2122.44,456.13,2122.68,455Z" transform="translate(-2074.39 -354.25)"/><path class="cls-5" d="M2170.3,710.1c1.52-.8,4.09,0,5.23,1.49.22.3.43.67.74,4.48.31,3.66.21,4.46,0,5.23a11.45,11.45,0,0,1-1.49,3c-1.32,2.4-1.4,4.87-1.49,9.71-.12,5.65.58,5.47,0,7.47-1,3.46-4,7.06-6.73,6.72a4.64,4.64,0,0,1-3-2.24c-3.36-5.34,4.18-11.1,5.23-23.9C2169.33,715.7,2168,711.33,2170.3,710.1Z" transform="translate(-2074.39 -354.25)"/><ellipse class="cls-11" cx="91.42" cy="384.23" rx="4.48" ry="5.98"/><path class="cls-5" d="M2159.84,725.78a4,4,0,0,1,3.73.75c1.62,1.73.1,5.73,0,6a8.6,8.6,0,0,1-.74,1.49c-2.09,3.37-1.21,8.9-2.24,14.94-.25,1.46-1.48,8-6,11.95-.52.46-2.26,2-3,1.49s-.15-2.37,0-3C2154.28,749.1,2152.65,727.69,2159.84,725.78Z" transform="translate(-2074.39 -354.25)"/><circle class="cls-11" cx="75.74" cy="398.42" r="5.98"/><path d="M2144.11,444.35a15.92,15.92,0,0,0,1.6,1.07,8.67,8.67,0,0,0,1.64.82,6,6,0,0,0,3.42.38c1.18-.15,2.46-.53,3.7-.76.63-.12,1.25-.26,1.88-.4s1.26-.27,1.91-.37h0s0,0,0,0a.05.05,0,0,1,0,0c-1.2.49-2.41.91-3.65,1.28a36.89,36.89,0,0,1-3.76.94,6.14,6.14,0,0,1-3.79-.6,9.91,9.91,0,0,1-3-2.38,0,0,0,0,1,0,0s0,0,0,0Z" transform="translate(-2074.39 -354.25)"/><path d="M2156.76,451.16a12.2,12.2,0,0,0-2-.68,9,9,0,0,0-2-.33,8,8,0,0,0-3.81.67,9.15,9.15,0,0,0-3.23,2.2,14.19,14.19,0,0,0-2.39,3.35h0s0,0,0,0a0,0,0,0,1,0-.05,10.62,10.62,0,0,1,2-3.7,9.1,9.1,0,0,1,3.38-2.51,8,8,0,0,1,4.17-.55,9.4,9.4,0,0,1,3.93,1.51,0,0,0,0,1,0,.06s0,0,0,0Z" transform="translate(-2074.39 -354.25)"/><path d="M2121.64,453.34a5.84,5.84,0,0,1,1.23-1.54,6.57,6.57,0,0,1,1.76-1,6.23,6.23,0,0,1,4.11,0,6.68,6.68,0,0,1,3.22,2.51,6.93,6.93,0,0,1,.82,1.85,5.72,5.72,0,0,1,.13,2h0s0,0,0,0,0,0,0,0a6.75,6.75,0,0,0-1.34-3.47,6.45,6.45,0,0,0-3-2.16,5.93,5.93,0,0,0-3.7-.14,6.37,6.37,0,0,0-3.09,2.06,0,0,0,0,1,0,0s0,0,0,0Z" transform="translate(-2074.39 -354.25)"/><path d="M2140.37,463.05a1.3,1.3,0,0,1,1.1.59,1.69,1.69,0,0,1,.23,1.36,1.74,1.74,0,0,1-.85,1.07,1.32,1.32,0,0,1-1.25,0h0s0,0,0,0a0,0,0,0,1,0,0,1.72,1.72,0,0,0,1.39-1.22,1.6,1.6,0,0,0-.66-1.7,0,0,0,0,1,0-.05h0Z" transform="translate(-2074.39 -354.25)"/><path d="M2135.15,462.34a10.71,10.71,0,0,1,.63,1.81,5.94,5.94,0,0,0,.19.62c0,.16.22.38.63.51h0s0,0,0,0a0,0,0,0,1,0,0,1,1,0,0,1-1-.12,1.67,1.67,0,0,1-.55-.87,4.39,4.39,0,0,1,0-2s0,0,0,0a0,0,0,0,1,0,0Z" transform="translate(-2074.39 -354.25)"/><path class="cls-5" d="M2117.92,507.87" transform="translate(-2074.39 -354.25)"/><ellipse class="cls-12" cx="75.67" cy="100.24" rx="2.24" ry="1.87"/><ellipse class="cls-12" cx="53.26" cy="101.73" rx="2.24" ry="1.87"/><circle class="cls-2" cx="76.79" cy="99.49" r="0.37"/><circle class="cls-2" cx="76.41" cy="99.86" r="0.37"/><circle class="cls-2" cx="54.45" cy="101.06" r="0.37"/><circle class="cls-2" cx="54.08" cy="101.43" r="0.37"/><path class="cls-4" d="M2163.5,456.35a10.62,10.62,0,0,1,3-4.48h0s.55,1.51.75,2.24a8.15,8.15,0,0,1,0,3.74c-.72,3.85-3.92,7-4.48,6.72-.35-.19.56-1.5.74-4.48C2163.64,457.79,2163.15,457.69,2163.5,456.35Z" transform="translate(-2074.39 -354.25)"/><path class="cls-13" d="M2165.74,454.86a3.8,3.8,0,0,1,.75,2.24,4,4,0,0,1-1.49,3" transform="translate(-2074.39 -354.25)"/><path d="M2165.77,454.84a2.43,2.43,0,0,1,1.12,1.2,3,3,0,0,1,.22,1.68,2.86,2.86,0,0,1-2.09,2.4l-.05-.06a3.91,3.91,0,0,0,1.4-2.45,3.67,3.67,0,0,0-.66-2.73Z" transform="translate(-2074.39 -354.25)"/><path d="M2165,456.21a3.54,3.54,0,0,0-.11.57,1.12,1.12,0,0,0,0,.45,1.22,1.22,0,0,0,.16.45c.08.16.17.34.28.53l0,0a1.62,1.62,0,0,1-.74-.94,1.23,1.23,0,0,1,.36-1.12Z" transform="translate(-2074.39 -354.25)"/><path class="cls-14" d="M2163.55,505.17c0,.7.06,1.74,0,3a49.24,49.24,0,0,1-.75,6c-.18,1.18-.43,2.7-.74,4.48" transform="translate(-2074.39 -354.25)"/><path class="cls-14" d="M2132.68,497.46c-.45.73-.95,1.48-1.49,2.24a42.91,42.91,0,0,1-3,3.74" transform="translate(-2074.39 -354.25)"/><path class="cls-8" d="M2107.48,434.69" transform="translate(-2074.39 -354.25)"/><path class="cls-8" d="M2092.54,396.6" transform="translate(-2074.39 -354.25)"/><path d="M2166.53,410.77a6.81,6.81,0,0,1,1.31,3,8.07,8.07,0,0,1-.11,3.35,7.68,7.68,0,0,1-1.54,3,6.52,6.52,0,0,1-2.66,1.92h0a0,0,0,0,1-.06,0,0,0,0,0,1,0-.05,9.16,9.16,0,0,0,3.38-5.06,10,10,0,0,0-.41-6.09,0,0,0,0,1,0-.06,0,0,0,0,1,.05,0Z" transform="translate(-2074.39 -354.25)"/><path d="M2161.25,407.1a8,8,0,0,0-2,.13,6.22,6.22,0,0,0-1.83.58,6.64,6.64,0,0,0-2.74,2.39,6.69,6.69,0,0,0-.81,5.38,8.18,8.18,0,0,0,.73,1.9h0a0,0,0,0,1,0,.06,0,0,0,0,1-.06,0,6.7,6.7,0,0,1-1.59-3.81,6.31,6.31,0,0,1,4.24-6.57,6.75,6.75,0,0,1,4.12-.15,0,0,0,0,1,0,.06s0,0,0,0Z" transform="translate(-2074.39 -354.25)"/><path d="M2156,405.6a15.73,15.73,0,0,0-2,.29,9.47,9.47,0,0,0-1.84.52,8.32,8.32,0,0,0-3.13,1.94,6.14,6.14,0,0,0-1.85,3.06,6.86,6.86,0,0,0-.25,1.87,10.29,10.29,0,0,0,.13,2h0a0,0,0,0,1,0,0s0,0,0,0a7.81,7.81,0,0,1-.39-4,6.44,6.44,0,0,1,1.9-3.51,8.16,8.16,0,0,1,3.5-2,10.37,10.37,0,0,1,4-.31s0,0,0,0a0,0,0,0,1,0,0Z" transform="translate(-2074.39 -354.25)"/><path d="M2161.3,407a6.61,6.61,0,0,1,2,3.25,7.15,7.15,0,0,1,0,4,6.91,6.91,0,0,1-2.21,3.33,6.4,6.4,0,0,1-3.53,1.47h0s-.05,0-.05,0a.05.05,0,0,1,0-.05,8.07,8.07,0,0,0,3.07-1.89,6.92,6.92,0,0,0,1.84-3.07,8.1,8.1,0,0,0-1.2-6.92,0,0,0,0,1,0-.06h.06Z" transform="translate(-2074.39 -354.25)"/><path d="M2163.55,427.22a8.67,8.67,0,0,1,.47,2.16,12,12,0,0,1-.1,2.24,9.75,9.75,0,0,1-1.7,4.21,9.89,9.89,0,0,1-3.41,3,12.3,12.3,0,0,1-2.07.84,8.63,8.63,0,0,1-2.19.3h0a0,0,0,0,1-.05,0s0,0,0,0a11.85,11.85,0,0,0,3.91-1.65,10.88,10.88,0,0,0,3-2.92,10.68,10.68,0,0,0,1.75-3.85,11.58,11.58,0,0,0,.22-4.23s0-.05,0-.05,0,0,0,0Z" transform="translate(-2074.39 -354.25)"/><path d="M2144.84,420.53a17.75,17.75,0,0,0-2.16,1.52,12.61,12.61,0,0,0-1.84,1.81,10.94,10.94,0,0,0-2.29,4.45,12.68,12.68,0,0,0-.28,5,17.21,17.21,0,0,0,.52,2.55,21.27,21.27,0,0,0,.84,2.52h0s0,0,0,0,0,0,0,0a16.09,16.09,0,0,1-1.87-5,12.61,12.61,0,0,1,.13-5.33,10.82,10.82,0,0,1,2.59-4.65,12.37,12.37,0,0,1,4.39-3,0,0,0,0,1,.05,0s0,0,0,0Z" transform="translate(-2074.39 -354.25)"/><path d="M2121.69,428a13.08,13.08,0,0,0-1.63,1.88,8.56,8.56,0,0,0-1.15,2.09,7.8,7.8,0,0,0-.34,4.58,10.57,10.57,0,0,0,1.91,4.31,11.54,11.54,0,0,0,1.58,1.85,17.57,17.57,0,0,0,1.87,1.66h0a0,0,0,0,1,0,.05h-.05a13.3,13.3,0,0,1-3.86-3.22,10.54,10.54,0,0,1-2.19-4.52,8,8,0,0,1,.54-5,9.59,9.59,0,0,1,3.27-3.79s0,0,0,0a0,0,0,0,1,0,.05Z" transform="translate(-2074.39 -354.25)"/><path class="cls-15" d="M2165.74,436.93a15.95,15.95,0,0,1,.75,14.94" transform="translate(-2074.39 -354.25)"/><path d="M2165.78,436.91a11.61,11.61,0,0,1,1.17,1.61,15,15,0,0,1,.86,1.81,12.69,12.69,0,0,1,.4,7.95,15.16,15.16,0,0,1-.68,1.89,10.2,10.2,0,0,1-1,1.72h0a0,0,0,0,1-.05,0,0,0,0,0,1,0,0,16.24,16.24,0,0,0-.75-14.91,0,0,0,1,1,.06,0Z" transform="translate(-2074.39 -354.25)"/><path class="cls-15" d="M2152.3,423.49a19,19,0,0,1-8.22,20.91" transform="translate(-2074.39 -354.25)"/><path d="M2152.33,423.48a15.37,15.37,0,0,1,.84,2.93,19.53,19.53,0,0,1,.24,3.06,17,17,0,0,1-4.44,11.3,19.37,19.37,0,0,1-2.26,2.09,15.45,15.45,0,0,1-2.61,1.57h0s0,0,0,0a0,0,0,0,1,0-.05,19.11,19.11,0,0,0,8.2-20.87.05.05,0,0,1,0-.05.05.05,0,0,1,0,0Z" transform="translate(-2074.39 -354.25)"/><path d="M2145.28,431.26a17.17,17.17,0,0,1,.41,1.89c.08.64.13,1.28.15,1.93a17,17,0,0,1-.42,3.88,14.73,14.73,0,0,1-1.42,3.63,9.82,9.82,0,0,1-2.52,3h0s0,0,0,0a13.39,13.39,0,0,0,3.56-6.65,19.07,19.07,0,0,0,.23-7.6l0,0Z" transform="translate(-2074.39 -354.25)"/><path d="M2132.16,426.5c-.47.84-1,1.65-1.35,2.51a23.4,23.4,0,0,0-1.14,2.57,28.31,28.31,0,0,0-1.88,10.92,24,24,0,0,0,.21,2.8c.08.95.27,1.88.43,2.83h0s0,0,0,0,0,0,0,0a23,23,0,0,1,3.74-21.7s0,0,.05,0a0,0,0,0,1,0,0Z" transform="translate(-2074.39 -354.25)"/><path d="M2138.9,466.06c-.53-.19-.67-.42-.72-.66s.08-.51.55-.82l0,0h0l.13.74.05.75s0,0,0,0h0Z" transform="translate(-2074.39 -354.25)"/><path d="M2135.31,464.2a.88.88,0,0,1,.36.07,1.5,1.5,0,0,1,.24.18,1.15,1.15,0,0,1,.14.27.82.82,0,0,1,0,.36v0h0c-.27-.29-.52-.58-.76-.89,0,0,0,0,0,0h0Z" transform="translate(-2074.39 -354.25)"/><path class="cls-16" d="M2187.3,583.39c.53-.46,3.66,1.69,14.7,12.6,0,0-13.46-16.93-11.55-18.9,1.29-1.32,9.15,4.63,9.45,4.2.51-.72-21.06-19.74-36.74-35.69-2.49-2.53-4.67-4.83-5.24-8.35l-25.09.86a36.68,36.68,0,0,1,.93,11.69c-1.38,12.48-11.81,11.41-16.79,27.29-3.08,9.8-3.15,23.07-3.15,23.1,1.71-12.59,3.15-12.6,3.15-12.6.94,0,2.12,4.29,2.1,8.4,0,4.85-1.72,8.07-1.05,8.4,1,.5,5.26-6.83,6.29-6.3.35.17.13,1.11,0,2.1-.56,4.52,1,9.38,2.1,9.45s1-5.8,5.25-10.5a16.37,16.37,0,0,1,6.3-4.2,66.1,66.1,0,0,1,12.6,14.7c1.86,3,2.14,4.13,3.15,4.19,4.14.28,4.94-18.2,12.6-19.94,5.6-1.27,13.27,6.79,16.79,10.5,4.38,4.6,5.64,7.76,7.35,7.35,2.57-.63,3.63-8.74,2.1-15.75C2190.9,588.4,2186.63,584,2187.3,583.39Z" transform="translate(-2074.39 -354.25)"/><path class="cls-5" d="M2125.5,514.5c-.2-5.31,1.65-11.15,5-13l.41-.21c1.25-.61,4.49-2,7.59-.79,4,1.52,7,7,7,7,5.78-3.82,11.71-4.6,15-2,2.77,2.19,2.93,6.22,3,8,.39,10-8.22,14.21-7,22,.53,3.38,2.62,5.58,5,8,14.94,15.2,35.49,33.31,35,34-.29.4-7.77-5.26-9-4-1.82,1.87,11,18,11,18-10.52-10.39-13.5-12.44-14-12s3.42,4.77,5,12c1.46,6.68.45,14.4-2,15-1.63.4-2.83-2.61-7-7-3.36-3.53-10.66-11.21-16-10-7.3,1.66-8.05,19.26-12,19-1-.06-1.23-1.13-3-4a62.94,62.94,0,0,0-12-14,15.59,15.59,0,0,0-6,4c-4.08,4.48-3.86,10.07-5,10s-2.53-4.69-2-9c.12-.94.33-1.83,0-2-1-.5-5,6.48-6,6-.63-.31,1-3.37,1-8,0-3.91-1.1-8-2-8,0,0-1.36,0-3,12h0s.07-12.67,3-22c4.75-15.13,14.69-14.11,16-26,1-8.71-3.27-19.24-4-21C2127.53,521.73,2125.69,519.38,2125.5,514.5Z" transform="translate(-2074.39 -354.25)"/><path class="cls-17" d="M2133.87,473.72a41.46,41.46,0,0,1,5.49-.32,26.78,26.78,0,0,1,4.71.78c.14-.17-.91-1.55-2.46-2.4A5.28,5.28,0,0,0,2139,471a5.56,5.56,0,0,0-2.77.8C2134.85,472.5,2133.77,473.58,2133.87,473.72Z" transform="translate(-2074.39 -354.25)"/></svg>