<svg id="fairy1" xmlns="http://www.w3.org/2000/svg" viewBox="0 0 206.97 403.61"><defs><style>.cls-1,.cls-12,.cls-8,.cls-9{fill:#fff;}.cls-1{stroke:#fff;stroke-width:1.03px;opacity:0.4;}.cls-1,.cls-11,.cls-14,.cls-15,.cls-17,.cls-3,.cls-4,.cls-7{stroke-linecap:round;stroke-linejoin:round;}.cls-13,.cls-2,.cls-5{fill:#f7d3be;}.cls-10,.cls-11,.cls-14,.cls-15,.cls-17,.cls-2,.cls-3,.cls-4,.cls-5,.cls-6,.cls-7,.cls-8,.cls-9{stroke:#000;}.cls-10,.cls-2,.cls-5,.cls-6,.cls-8,.cls-9{stroke-miterlimit:10;}.cls-11,.cls-14,.cls-2,.cls-6,.cls-7{stroke-width:0.75px;}.cls-3{fill:#ffc;stroke-width:0.89px;}.cls-4{fill:#99f;}.cls-15,.cls-4{stroke-width:0.77px;}.cls-5{stroke-width:0.73px;}.cls-16,.cls-6,.cls-7{fill:#ff9;}.cls-8{stroke-width:0.77px;}.cls-10,.cls-9{stroke-width:0.6px;}.cls-10{fill:#9e005d;}.cls-14,.cls-15,.cls-17{fill:none;}.cls-17{stroke-width:0.37px;}</style></defs><path class="cls-1" d="M1491.23,28.29S1488,58,1486,71.62c-8,55.1-29.15,82.62-19.42,90.38,4.8,3.83,15.94,1.89,21.66-3a19.74,19.74,0,0,0,5.23-7.47,18.34,18.34,0,0,0,.75-9c-1.36-9.48,2.36-19.09,1.49-54.53-.75-31-4.47-59.71-4.48-59.76Z" transform="translate(-1315.75 -27.78)"/><path class="cls-1" d="M1316.44,32c3.12-3.13,44.56,33.81,69.47,56,75.82,67.6,49.87,56.41,67.23,68,2.72,1.82,9.2,6,9,11.21-.39,8.72-19.39,18.25-35.85,15.69-11.71-1.83-19.5-9.36-29.14-18.68a124.12,124.12,0,0,1-18.67-23.15c-30.83-48-31.52-62.21-55.28-97.11C1318.92,37.74,1315.43,33,1316.44,32Z" transform="translate(-1315.75 -27.78)"/><path class="cls-1" d="M1418,186.65c-3.87,1.85-17.3,8.52-21.66,22.41-1,3.32-2.89,9.2,0,13.45,5.4,8,23.18,4,27.63,3,6-1.33,11-3.63,20.92-8.21,5.26-2.42,7.92-3.67,9.71-5.23,6.83-6,11.26-17.79,7.47-24.65C1456.36,177,1432.66,179.65,1418,186.65Z" transform="translate(-1315.75 -27.78)"/><path class="cls-2" d="M1497.21,272.55c-.47,5.79-.71,8.68-.75,9-1.28,9.34-4.75,12.91-9,24.65-.71,2-1.73,5.57-3.74,12.7-6.72,23.84-10.09,35.79-10.45,37.34,0,0-5.23,22.28-5.23,35.11,0,7.46,0,7.47,0,7.47a2.1,2.1,0,0,1,0,1.5s-.58,1-7.47.74a26.87,26.87,0,0,1-2.24-11.95c.2-4.73,1.67-6,3-11.2,1.88-7.44.21-9.79.75-21.67.2-4.44.63-7.69,1.49-14.19,6.14-46.29,11.17-84.28,23.16-85.9,3.7-.5,8.8,2.36,10.46,6C1497.9,263.61,1497.83,264.89,1497.21,272.55Z" transform="translate(-1315.75 -27.78)"/><path class="cls-2" d="M1453.88,259.85c-1.93,3,.21,8,4.49,17.93,4.19,9.73,6.26,10.57,6.72,15.69.49,5.56-2,6.66-4.48,16.43a82.4,82.4,0,0,0-2.24,18.68c.05,8.73,2,15,4.48,23.15,3,9.63,8.6,24,9.71,30.63a66.26,66.26,0,0,1,.75,7.47,11.73,11.73,0,0,1,0,3.73,8.54,8.54,0,0,1-1.5,3c-1.38,2.13-.6,4.27,1.5,14.19.88,4.19,1.11,5.56,2.24,6,2.09.77,6-2.24,6-2.24h0s.23-7.27,0-14.19c-.12-3.72-.26-3.93-.75-11.21,0,0-.38-5.76-.74-13.44-1-21.81.65-49,2.24-60.51.33-2.37.75-5.23.75-5.23,1.12-7.66,2-13.06,2.24-14.19,1.63-10,3.92-24-3-32.12C1474.74,254.74,1457.45,254.28,1453.88,259.85Z" transform="translate(-1315.75 -27.78)"/><path class="cls-3" d="M1510.16,237.77a44.36,44.36,0,0,0-11.05-12.35c-.16-.13-.8-.59-1.82-1.25a1,1,0,0,0,.25-.3c.5-1-1.11-2.6-1.83-3.61-2.81-4-.23-11.31,0-11.95.7-1.91,2-4.26,1-5.29a1.55,1.55,0,0,0-.44-.3c-1-.53-2.87-.44-9,1.07-10.08,2.48-22.86,5.73-24.45,11.59a4.27,4.27,0,0,0-.13,1.78c-.74.16-1.48.33-2.23.53-10.35,2.8-16.8,8.92-22.88,14.68s-10.94,12.46-10.25,13.12,5.25-3.94,6.31-3.09c1.88,1.52-9.44,18.5-9.46,18.54,10.9-12.46,14.12-14.48,15-13.9,1.14.76-2.5,5.56-3.94,15.44a106.61,106.61,0,0,0-.79,15.45c8.14-5.83,8.67-6.18,8.67-6.18,6.26-4.05,12.46-8.07,17.36-6.18,1,.4,2.54,2.34,5.52,6.18,0,0,4.38,5.67,9.46,13.13,2.81-3.55,4.93-6.51,6.31-8.5,0,0,7.78-11.17,10.25-10.81a3.91,3.91,0,0,1,1.58.77c6.34,4.35,7.89,14.68,7.89,14.68a31,31,0,0,0,3.94-6.95c1.14-3,.91-4.53,1.58-4.64,1.54-.25,3.5,7.91,4.73,7.73,1.85-.28-.36-19,1.58-19.31,1.47-.26,3.92,10.21,4.73,10C1519,267.68,1519.27,252.12,1510.16,237.77Z" transform="translate(-1315.75 -27.78)"/><path class="cls-4" d="M1509.16,233.71a42.64,42.64,0,0,0-10.46-12c-.15-.12-.76-.57-1.73-1.2a1.76,1.76,0,0,0,.24-.3,2.82,2.82,0,0,0,0-2.24c-2.08-6.63,2.47-15.08-.75-17.92-.91-.81-2.2-.95-9,.74-9.55,2.4-21.65,5.54-23.16,11.21a4.2,4.2,0,0,0-.12,1.72c-.7.16-1.41.32-2.12.52-9.79,2.71-15.91,8.63-21.66,14.19s-10.36,12.05-9.71,12.7,5-3.81,6-3c1.78,1.47-8.94,17.9-9,17.93,10.33-12.06,13.38-14,14.19-13.45,1.08.74-2.37,5.38-3.73,14.94a106.4,106.4,0,0,0-.75,14.94c7.71-5.64,8.22-6,8.22-6,5.92-3.92,11.8-7.81,16.43-6,1,.39,2.41,2.26,5.23,6,0,0,4.15,5.48,9,12.7,2.66-3.44,4.67-6.3,6-8.22,0,0,7.37-10.81,9.71-10.46a3.62,3.62,0,0,1,1.49.75c6,4.21,7.47,14.19,7.47,14.19a29.86,29.86,0,0,0,3.74-6.72c1.08-2.88.86-4.38,1.49-4.48,1.46-.25,3.32,7.64,4.48,7.47,1.75-.27-.34-18.34,1.5-18.68,1.39-.25,3.71,9.88,4.48,9.71S1517.79,247.59,1509.16,233.71Z" transform="translate(-1315.75 -27.78)"/><path class="cls-2" d="M1460.61,147.06c-1.1-.56-1.95-1-2.24-.75-.6.6,2.32,3.24,3,7.47.21,1.33.63,4.08-.74,6-2.46,3.41-7.86,0-11.95,3-4.41,3.25-4.22,11.71-3,16.43.57,2.2,1,2.37,3,8.22,1,3,1.64,4.95,2.24,7.47,1.72,7.22.56,8.54,2.24,11.2,2.63,4.18,8.07,5.08,9,5.23,4.65.77,8.44-1,15.69-4.48,7-3.39,6.83-4.53,10.45-5.23s3.74.41,14.2,1.49a65.41,65.41,0,0,0,12.7,0c4.48-.42,6-1,6.72-2.24,1-1.54.38-3.54-.75-7.47a29.89,29.89,0,0,0-2.24-6c-2.59-5-4.94-5.55-9-10.46-.75-.91-3-4.59-7.47-11.95-2.94-4.82-4.06-6.77-6.73-8.22a12.86,12.86,0,0,0-7.47-1.49c-5.08.62-7.33,4.89-9.71,3.73-1.35-.65-2.14-2.74-2.24-3-.55-1.45-.19-2.13-.74-3-.77-1.18-2.23-.79-4.49-1.5A75.72,75.72,0,0,1,1460.61,147.06Z" transform="translate(-1315.75 -27.78)"/><path class="cls-5" d="M1450.43,139.59c1.09,1.44,4.3,4.2,10.74,9.71a15.39,15.39,0,0,0,6.44,3.74,13.38,13.38,0,0,0,6.44,0c3.33-.86,5.33-2.81,8.59-6,2.41-2.34,3.61-3.51,4.3-5.23.61-1.52.51-2.35,1.43-7.47.36-2,.61-3.15.72-3.73,1.78-9.35,4.17-21.9-.72-29.13-5.32-7.88-19.59-10-29.35-4.49C1443.84,105.54,1443.39,130.27,1450.43,139.59Z" transform="translate(-1315.75 -27.78)"/><ellipse class="cls-6" cx="1456.09" cy="90.46" rx="14.52" ry="11.25" transform="translate(-1244.62 521.23) rotate(-21.87)"/><path d="M1492,123.15a6.65,6.65,0,0,0-.27-1.37,2.73,2.73,0,0,0-.59-1.12,2.83,2.83,0,0,0-2.2-.75,8,8,0,0,0-2.59.53,9.4,9.4,0,0,0-1.26.57c-.43.19-.82.45-1.26.68h0s0,0,0,0a0,0,0,0,1,0,0,8.26,8.26,0,0,1,5.14-2.33,3.09,3.09,0,0,1,2.59,1.07,4.1,4.1,0,0,1,.54,2.78,0,0,0,0,1-.06,0Z" transform="translate(-1315.75 -27.78)"/><path class="cls-7" d="M1449.4,138.1c-.59.36-3-1.77-4.48-4.48-1.1-2-.77-2.61-2.24-6.73-.7-2-1.27-3.18-1.49-3.73-1.58-3.8-2-11.39,0-17.18,5-14.58,25.15-17.47,28.38-17.93,3.52-.5,9.32-1.26,15.69,1.49a22.19,22.19,0,0,1,9,6.73c4.87,6.24,4.61,13.28,4.48,15.68-.43,8.45-5,15.23-6,14.94-.34-.1-.48-2.06-.75-6-.14-2-.21-2.6-.75-3-1.21-.88-3.79.32-5.23,1.49a25.52,25.52,0,0,0-2.24,2.24,22.89,22.89,0,0,1-6.72-6,28.29,28.29,0,0,1-3-6s-3.16,3.5-3,7.47c0,1.12.22,1.25,0,1.5-.79.91-3.76-.94-12-4.49l-5.23-2.24s-1.87,4-3,6.73c-1.89,4.65-2.92,7.19-3,10.45C1447.8,134.36,1450.19,137.61,1449.4,138.1Z" transform="translate(-1315.75 -27.78)"/><path class="cls-8" d="M1456.12,126.15c.35-1.42,3.55-2.22,6-1.5a7.4,7.4,0,0,1,4.48,5.23,1,1,0,0,1,0,.75c-.49,1-3.35.64-5.23,0C1459,129.82,1455.74,127.72,1456.12,126.15Z" transform="translate(-1315.75 -27.78)"/><path class="cls-9" d="M1489.48,128.53c-.21-1-2.89-1.82-5-1.48a5.86,5.86,0,0,0-4.12,3.37.56.56,0,0,0,0,.52c.37.73,2.82.69,4.46.37C1486.85,130.91,1489.71,129.66,1489.48,128.53Z" transform="translate(-1315.75 -27.78)"/><path class="cls-10" d="M1466.58,141.83c.09-.1.54.39,1.5.75,2.38.91,4.25-.34,5.23.75.28.31.42.75.74.74s.4-.44.75-.74c.79-.69,2,.2,3.73,0,1.42-.17,2.14-.91,2.24-.75s-1.47,2-3.73,3a7.47,7.47,0,0,1-3.73.74,7.75,7.75,0,0,1-3.74-1.49C1467.77,143.66,1466.43,142,1466.58,141.83Z" transform="translate(-1315.75 -27.78)"/><path class="cls-4" d="M1462.85,179.18a11.6,11.6,0,0,1,4.48-4.48,12.06,12.06,0,0,1,6-2.24s3-.17,8.21,2.24h0a17.66,17.66,0,0,1,2.24-4.48c2.19-2.74,7-3.79,10.46-2.24a9.4,9.4,0,0,1,2.24,1.49,14.3,14.3,0,0,1,4.48,6,19,19,0,0,1,.75,8.21c3.48-1.26-7,2.53-10.46,3.74-8.77,3-8.17,2.26-14.19,4.48s-12.7,5.23-12.7,5.23a46.09,46.09,0,0,1-2.24-9.71C1461.79,184.3,1461.53,181.78,1462.85,179.18Z" transform="translate(-1315.75 -27.78)"/><path class="cls-4" d="M1459.86,378.62c-1.52-.79-4.1,0-5.23,1.5-.22.29-.43.67-.75,4.48-.3,3.65-.21,4.45,0,5.23a11.31,11.31,0,0,0,1.5,3c1.32,2.4,1.4,4.87,1.49,9.71.11,5.65-.59,5.47,0,7.47,1,3.45,4,7.05,6.72,6.72a4.68,4.68,0,0,0,3-2.24c3.37-5.34-4.17-11.1-5.23-23.91C1460.83,384.22,1462.21,379.86,1459.86,378.62Z" transform="translate(-1315.75 -27.78)"/><ellipse class="cls-3" cx="148.59" cy="379.23" rx="4.48" ry="5.98"/><path class="cls-4" d="M1470.32,394.31a4,4,0,0,0-3.74.75c-1.62,1.72-.09,5.73,0,6a9,9,0,0,0,.75,1.5c2.09,3.36,1.21,8.9,2.24,14.94.25,1.46,1.48,8,6,11.95.52.45,2.25,2,3,1.49s.16-2.38,0-3C1475.88,417.63,1477.51,396.22,1470.32,394.31Z" transform="translate(-1315.75 -27.78)"/><circle class="cls-3" cx="164.28" cy="393.42" r="5.98"/><path d="M1453.85,120.89a9.2,9.2,0,0,1,1.21-1.58,8.59,8.59,0,0,1,1.62-1.24,6.46,6.46,0,0,1,4.1-.77c.68.13,1.31.31,1.94.49a18.28,18.28,0,0,1,1.86.6c.61.24,1.21.49,1.8.76s1.17.61,1.71,1h0s0,0,0,0,0,0,0,0a38.27,38.27,0,0,0-3.65-1.25c-1.24-.33-2.49-.69-3.75-.9a6.06,6.06,0,0,0-3.72.56,9.77,9.77,0,0,0-3,2.32,0,0,0,0,1-.05,0s0,0,0,0Z" transform="translate(-1315.75 -27.78)"/><path d="M1455.36,124.62a7.94,7.94,0,0,1,1.76-1.26,9,9,0,0,1,2.1-.72,8,8,0,0,1,4.46.47,8.92,8.92,0,0,1,3.51,2.76,10.71,10.71,0,0,1,1.11,1.9,9.73,9.73,0,0,1,.56,2.1h0s0,0,0,0,0,0,0,0a10.69,10.69,0,0,0-2-3.65,9.12,9.12,0,0,0-3.35-2.45,8.11,8.11,0,0,0-4.1-.58,9.31,9.31,0,0,0-3.9,1.47s0,0-.05,0a0,0,0,0,1,0,0Z" transform="translate(-1315.75 -27.78)"/><path d="M1490.46,126.92a8.1,8.1,0,0,0-1.57-1,6.23,6.23,0,0,0-5-.34,6.39,6.39,0,0,0-2.84,1.88,6,6,0,0,0-1,1.46,8.27,8.27,0,0,0-.71,1.73h0a0,0,0,0,1,0,0s0,0,0,0a6.89,6.89,0,0,1,1.33-3.53,6.62,6.62,0,0,1,3-2.24,6.08,6.08,0,0,1,3.77-.1,6.43,6.43,0,0,1,3.12,2.12s0,0,0,0a0,0,0,0,1,0,0Z" transform="translate(-1315.75 -27.78)"/><path d="M1471.83,136.63a3.32,3.32,0,0,0-.16,1,2.05,2.05,0,0,0,.09.6,2.69,2.69,0,0,0,.23.6,3.4,3.4,0,0,0,.57.77l0,0a0,0,0,0,1,0,.05h0a1.8,1.8,0,0,1-1.51-1.25,1.72,1.72,0,0,1,.75-1.81,0,0,0,0,1,0,0v0Z" transform="translate(-1315.75 -27.78)"/><path d="M1477.08,135.85a2.16,2.16,0,0,1,.59,2.2,1.8,1.8,0,0,1-.84,1.09,1,1,0,0,1-.75.11,1,1,0,0,1-.54-.37l0,0s0,0,0-.05h0a1,1,0,0,0,.92-.14,1.57,1.57,0,0,0,.47-.83,4.27,4.27,0,0,0,0-2,.05.05,0,0,1,0,0h0Z" transform="translate(-1315.75 -27.78)"/><ellipse class="cls-11" cx="146.35" cy="100.24" rx="2.24" ry="1.87"/><ellipse class="cls-11" cx="168.76" cy="101.73" rx="2.24" ry="1.87"/><circle class="cls-12" cx="145.23" cy="99.49" r="0.37"/><circle class="cls-12" cx="145.6" cy="99.86" r="0.37"/><circle class="cls-12" cx="167.57" cy="101.06" r="0.37"/><circle class="cls-12" cx="167.94" cy="101.43" r="0.37"/><path class="cls-2" d="M1448.66,129.88a10.54,10.54,0,0,0-3-4.48h0s-.55,1.51-.75,2.24a8.1,8.1,0,0,0,0,3.73c.72,3.86,3.92,7,4.48,6.73.34-.2-.57-1.5-.74-4.48C1448.52,131.31,1449,131.21,1448.66,129.88Z" transform="translate(-1315.75 -27.78)"/><path class="cls-13" d="M1446.41,128.39a3.79,3.79,0,0,0-.74,2.24,4,4,0,0,0,1.49,3" transform="translate(-1315.75 -27.78)"/><path d="M1446.44,128.41a8.53,8.53,0,0,0-.07,2.64,8.22,8.22,0,0,0,.29,1.19c.16.4.31.85.52,1.35l0,0a4,4,0,0,1-1.5-2.48,3.79,3.79,0,0,1,.74-2.8Z" transform="translate(-1315.75 -27.78)"/><path d="M1447.17,129.71a.92.92,0,0,1,.52.45,1.14,1.14,0,0,1,.11.73,1.32,1.32,0,0,1-.38.61,1.14,1.14,0,0,1-.62.26l0,0a1.55,1.55,0,0,0,.7-.91,1.23,1.23,0,0,0-.33-1.09Z" transform="translate(-1315.75 -27.78)"/><path class="cls-2" d="M1454.63,188.14a25.59,25.59,0,0,1,4.48,0,29.47,29.47,0,0,1,5.3.39c.72.16,1.26.31,1.43.36a14.31,14.31,0,0,1,6,3c.4.38,1.49,1.49,1.5,1.49l-2.25.75a49.78,49.78,0,0,0-6.72,3,3.55,3.55,0,0,0-2.24-1.5,14.25,14.25,0,0,0-4.48.75,1.3,1.3,0,0,1-.75,0c-.36-.12-.76-.47-.75-.75,0-.93,4.13-1.45,4.49-1.49a19.83,19.83,0,0,1,5.23,0,37.84,37.84,0,0,1-6,0,8,8,0,0,0-2.24,0c-1.61.28-2.64,1.11-3,.75s0-.7,0-.75c.26-.66,1-1,3-1.49.8-.22,1.81-.48,3-.75a18.78,18.78,0,0,1,4.48,0,24.41,24.41,0,0,0-6,0,12.43,12.43,0,0,0-3.73.75c-1,.42-1.94,1-2.24.74s0-.72,0-.74a1.47,1.47,0,0,1,.74-.75c1.76-.92,2.64-1.38,3-1.49a16.71,16.71,0,0,1,3.74-.75c1.24-.09,5,0,3.73,0h-9.71a2.27,2.27,0,0,1-1.49,0c-.34-.14-.79-.46-.75-.75C1452.4,188.8,1452.5,188.4,1454.63,188.14Z" transform="translate(-1315.75 -27.78)"/><path class="cls-14" d="M1484.51,203.08a68.83,68.83,0,0,0,12.7-8.21c3.57-2.93,5.63-5.28,9-5.23,1.58,0,3,.58,6.72.75,1.59.07,2.89,0,3.74,0" transform="translate(-1315.75 -27.78)"/><path class="cls-14" d="M1501.69,183.66a8.5,8.5,0,0,1,5.23-1.49,8,8,0,0,1,5.23,2.24,8,8,0,0,1,2.24,6" transform="translate(-1315.75 -27.78)"/><path class="cls-15" d="M1460.61,174.7c0,.7-.06,1.73,0,3a48.34,48.34,0,0,0,.74,6c.19,1.18.44,2.7.75,4.48" transform="translate(-1315.75 -27.78)"/><path class="cls-15" d="M1493.47,165c.46.73,1,1.48,1.5,2.24a42.69,42.69,0,0,0,3,3.73" transform="translate(-1315.75 -27.78)"/><path class="cls-7" d="M1504.68,108.22" transform="translate(-1315.75 -27.78)"/><path class="cls-7" d="M1519.62,70.12" transform="translate(-1315.75 -27.78)"/><path d="M1445.71,84.33a24.91,24.91,0,0,0-.12,3.07,13.41,13.41,0,0,0,.4,2.85,14.51,14.51,0,0,0,2.69,5.23h0a.06.06,0,0,1,0,.07h0a9.36,9.36,0,0,1-3.51-5.09,10.1,10.1,0,0,1,.51-6.17s0,0,0,0a.05.05,0,0,1,0,0Z" transform="translate(-1315.75 -27.78)"/><path d="M1450.88,80.54a5.5,5.5,0,0,1,2.09-.61,7,7,0,0,1,2.23.22,6.4,6.4,0,0,1,4.6,7.15,7.15,7.15,0,0,1-.72,2.13,5.65,5.65,0,0,1-1.43,1.64h0s0,0-.06,0a0,0,0,0,1,0,0,6.56,6.56,0,0,0,1.53-3.76,6.38,6.38,0,0,0-4.15-6.44,6.6,6.6,0,0,0-4-.19,0,0,0,0,1-.06,0,.08.08,0,0,1,0,0Z" transform="translate(-1315.75 -27.78)"/><path d="M1456.12,79.05a8.15,8.15,0,0,1,2-.35,9.33,9.33,0,0,1,2.1.19,7.06,7.06,0,0,1,2,.74,7.79,7.79,0,0,1,1.78,1.24,6.66,6.66,0,0,1,2,3.87,7.27,7.27,0,0,1-.11,2.14,6.9,6.9,0,0,1-.77,1.93h0s0,0,0,0,0,0,0,0a7.73,7.73,0,0,0,.36-3.93,6.41,6.41,0,0,0-1.9-3.42,8.15,8.15,0,0,0-3.42-2,10.18,10.18,0,0,0-4-.34,0,0,0,0,1,0,0,.05.05,0,0,1,0,0Z" transform="translate(-1315.75 -27.78)"/><path d="M1450.93,80.61a13,13,0,0,0-.82,3.43,8.76,8.76,0,0,0,.31,3.28,9.37,9.37,0,0,0,4.22,5.17h0a0,0,0,0,1,0,.06,0,0,0,0,1-.05,0,8.24,8.24,0,0,1-3.14-1.87,7.23,7.23,0,0,1-1.91-3.12,8.23,8.23,0,0,1,1.29-7s0,0,.06,0a.07.07,0,0,1,0,.06Z" transform="translate(-1315.75 -27.78)"/><path d="M1448.7,100.76a18.15,18.15,0,0,0,.27,2.11,12.05,12.05,0,0,0,.49,2,13.37,13.37,0,0,0,1.79,3.56,13.21,13.21,0,0,0,2.77,2.87,11.87,11.87,0,0,0,1.72,1.13,16,16,0,0,0,1.89,1h0a0,0,0,0,1,0,.06,0,0,0,0,1-.05,0,12.13,12.13,0,0,1-4-1.62,10.78,10.78,0,0,1-4.87-6.85,11.85,11.85,0,0,1-.17-4.28,0,0,0,0,1,.05,0s0,0,0,0Z" transform="translate(-1315.75 -27.78)"/><path d="M1467.34,94a10.65,10.65,0,0,1,2.53,1,12.23,12.23,0,0,1,2.22,1.66,10.89,10.89,0,0,1,2.82,4.82,12.19,12.19,0,0,1,0,5.57,16,16,0,0,1-.9,2.6,12.14,12.14,0,0,1-1.42,2.31,0,0,0,0,1,0,0s0,0,0,0a15.76,15.76,0,0,0,1.81-5,12.17,12.17,0,0,0-.16-5.27,10.65,10.65,0,0,0-2.52-4.61,12.56,12.56,0,0,0-4.34-3,0,0,0,0,1,0,0s0,0,0,0Z" transform="translate(-1315.75 -27.78)"/><path d="M1490.51,101.47a8.94,8.94,0,0,1,2.11,1.48,8.69,8.69,0,0,1,1.58,2.11,8.3,8.3,0,0,1,.71,5.28,10.56,10.56,0,0,1-.92,2.52,9.39,9.39,0,0,1-1.5,2.18,10.78,10.78,0,0,1-4.23,2.92,0,0,0,0,1,0,0,0,0,0,0,1,0,0,13.26,13.26,0,0,0,3.81-3.22,10.39,10.39,0,0,0,2.13-4.48,8,8,0,0,0-.49-4.89,9.58,9.58,0,0,0-3.22-3.78s0,0,0-.06,0,0,0,0Z" transform="translate(-1315.75 -27.78)"/><path class="cls-16" d="M1446.41,110.46a15.91,15.91,0,0,0-.74,14.94" transform="translate(-1315.75 -27.78)"/><path d="M1446.45,110.48c-.21.63-.45,1.22-.61,1.85a17.05,17.05,0,0,0-.49,1.83,18.7,18.7,0,0,0-.5,3.71,18,18,0,0,0,.13,3.74,17.31,17.31,0,0,0,.3,1.87c.1.64.28,1.26.42,1.9h0s0,0,0,0,0,0,0,0a15.68,15.68,0,0,1,.75-15,0,0,0,0,1,0,0s0,0,0,0Z" transform="translate(-1315.75 -27.78)"/><path class="cls-16" d="M1459.86,97a19,19,0,0,0,8.22,20.92" transform="translate(-1315.75 -27.78)"/><path d="M1459.9,97a25.2,25.2,0,0,0-.22,3,19.18,19.18,0,0,0,.12,2.94,27.27,27.27,0,0,0,.48,2.87,18.93,18.93,0,0,0,.9,2.76,21.46,21.46,0,0,0,4.73,7.29,25,25,0,0,0,2.19,2h0a0,0,0,0,1,0,0,0,0,0,0,1,0,0,19.18,19.18,0,0,1-7.58-9.12,18.74,18.74,0,0,1-1.26-5.87,19.41,19.41,0,0,1,.6-6,0,0,0,0,1,0,0s0,0,0,0Z" transform="translate(-1315.75 -27.78)"/><path d="M1466.91,104.79c-.05.64-.07,1.28-.06,1.91s0,1.27.06,1.89a20.13,20.13,0,0,0,.56,3.72,17.21,17.21,0,0,0,1.21,3.54,13.26,13.26,0,0,0,.91,1.65,9.24,9.24,0,0,0,1.12,1.53v0h0a13.45,13.45,0,0,1-3.62-6.65,19.22,19.22,0,0,1-.19-7.63l0,0S1466.92,104.78,1466.91,104.79Z" transform="translate(-1315.75 -27.78)"/><path d="M1480.06,100a18.11,18.11,0,0,1,1.89,2.2,24.32,24.32,0,0,1,1.5,2.5,21.69,21.69,0,0,1,1.84,5.57,20.93,20.93,0,0,1,.12,5.86,23.34,23.34,0,0,1-.57,2.86,17.42,17.42,0,0,1-1,2.71h0s0,0,0,0a0,0,0,0,1,0,0A23.46,23.46,0,0,0,1480,100s0,0,0,0a0,0,0,0,1,0,0Z" transform="translate(-1315.75 -27.78)"/><path d="M1473.18,139.58c-.47-.3-.55-.56-.54-.81s.19-.48.71-.67l.05,0s0,0,0,0h0l0,.74-.12.74,0,0h0Z" transform="translate(-1315.75 -27.78)"/><path d="M1476.87,137.75a.84.84,0,0,1,0,.36,1.71,1.71,0,0,1-.14.27,1.5,1.5,0,0,1-.24.18,1,1,0,0,1-.36.07h0c.24-.31.5-.6.77-.89h0Z" transform="translate(-1315.75 -27.78)"/><path class="cls-12" d="M1377.74,81.33c.12,3.82.35,7.64.73,11.43s.75,7.59,1.32,11.36,1.18,7.52,2,11.24,1.7,7.41,2.71,11.08,2.1,7.31,3.32,10.91,2.63,7.14,4,10.68,3,7,4.64,10.45,3.34,6.87,5.19,10.22a.05.05,0,0,1,0,.07.07.07,0,0,1-.07,0,167.62,167.62,0,0,1-18.07-42,163.93,163.93,0,0,1-4.49-22.49,166.84,166.84,0,0,1-1.35-22.89.05.05,0,0,1,.1,0Z" transform="translate(-1315.75 -27.78)"/><path class="cls-12" d="M1412.1,112c0,3-.15,6-.07,9s.12,6,.32,9a149.21,149.21,0,0,0,2.07,17.77,154.22,154.22,0,0,0,3.92,17.45c.8,2.87,1.7,5.73,2.67,8.55s2,5.65,3,8.47a.07.07,0,0,1,0,.07.06.06,0,0,1-.07,0A138.91,138.91,0,0,1,1412,112a.06.06,0,0,1,.06,0A0,0,0,0,1,1412.1,112Z" transform="translate(-1315.75 -27.78)"/><path class="cls-12" d="M1418.06,186.67a36.71,36.71,0,0,0-2.66,4.63,32.88,32.88,0,0,0-1.58,25.57,32,32,0,0,0,2.15,4.83,35.54,35.54,0,0,0,2.83,4.52,0,0,0,0,1,0,.05,0,0,0,0,1,0,0,31.66,31.66,0,0,1-5.47-9.18,29,29,0,0,1-1.49-5.16,28.06,28.06,0,0,1-.57-5.34,31.59,31.59,0,0,1,6.78-20,0,0,0,0,1,.06,0Z" transform="translate(-1315.75 -27.78)"/><path class="cls-12" d="M1442,180.7a33,33,0,0,0-3.49,4.17,32.18,32.18,0,0,0-2.77,4.61,33,33,0,0,0-1.94,5,24.59,24.59,0,0,0-.85,5.24,25.18,25.18,0,0,0,1.44,10.49,26.8,26.8,0,0,0,2.26,4.86,30.89,30.89,0,0,0,3.11,4.45,0,0,0,0,1,0,0,0,0,0,0,1-.06,0,27.71,27.71,0,0,1-5.86-9.16,25,25,0,0,1-1.64-10.73,25.91,25.91,0,0,1,.95-5.39,28.85,28.85,0,0,1,2.08-5,30.37,30.37,0,0,1,6.72-8.56,0,0,0,0,1,0,0A0,0,0,0,1,1442,180.7Z" transform="translate(-1315.75 -27.78)"/><path class="cls-17" d="M1466.58,141.83a11.32,11.32,0,0,0,7.47,3,11.2,11.2,0,0,0,6.72-2.24" transform="translate(-1315.75 -27.78)"/></svg>