<svg id="fairy3" xmlns="http://www.w3.org/2000/svg" viewBox="0 0 206.97 403.61"><defs><style>.cls-1,.cls-11,.cls-8,.cls-9{fill:#fff;}.cls-1{stroke:#fff;stroke-width:1.03px;opacity:0.4;}.cls-1,.cls-10,.cls-13,.cls-14,.cls-3,.cls-4,.cls-7{stroke-linecap:round;stroke-linejoin:round;}.cls-12,.cls-2,.cls-5{fill:#f7d3be;}.cls-10,.cls-13,.cls-14,.cls-16,.cls-17,.cls-2,.cls-3,.cls-4,.cls-5,.cls-6,.cls-7,.cls-8,.cls-9{stroke:#000;}.cls-16,.cls-17,.cls-2,.cls-5,.cls-6,.cls-8,.cls-9{stroke-miterlimit:10;}.cls-10,.cls-13,.cls-2,.cls-6,.cls-7{stroke-width:0.75px;}.cls-3{fill:#ffc;stroke-width:0.89px;}.cls-4{fill:#99f;}.cls-14,.cls-4{stroke-width:0.77px;}.cls-5{stroke-width:0.73px;}.cls-15,.cls-6,.cls-7{fill:#ff9;}.cls-8{stroke-width:0.77px;}.cls-9{stroke-width:0.6px;}.cls-13,.cls-14{fill:none;}.cls-16{fill:#dc2772;}.cls-16,.cls-17{stroke-width:0.44px;}.cls-17{fill:#9e005d;}</style></defs><path class="cls-1" d="M1997.29,27.68s3.25,29.67,5.23,43.32c8,55.11,29.15,82.63,19.42,90.39-4.8,3.83-15.94,1.89-21.66-3a19.81,19.81,0,0,1-5.23-7.47,18.34,18.34,0,0,1-.75-9c1.37-9.49-2.35-19.09-1.49-54.53.75-31,4.47-59.72,4.48-59.76Z" transform="translate(-1965.81 -27.16)"/><path class="cls-1" d="M2172.08,31.41c-3.12-3.13-44.56,33.82-69.47,56-75.82,67.6-49.87,56.41-67.23,68-2.72,1.81-9.2,6-9,11.21.39,8.72,19.39,18.25,35.85,15.68,11.72-1.82,19.5-9.35,29.14-18.67a123.78,123.78,0,0,0,18.67-23.16c30.83-48,31.52-62.2,55.28-97.1C2169.6,37.13,2173.09,32.43,2172.08,31.41Z" transform="translate(-1965.81 -27.16)"/><path class="cls-1" d="M2070.49,186c3.87,1.85,17.31,8.52,21.66,22.41,1,3.31,2.89,9.19,0,13.44-5.4,8-23.18,4-27.63,3-6-1.34-11-3.63-20.92-8.22-5.26-2.42-7.92-3.66-9.71-5.23-6.83-6-11.26-17.78-7.47-24.65C2032.16,176.38,2055.86,179,2070.49,186Z" transform="translate(-1965.81 -27.16)"/><path class="cls-2" d="M1991.31,271.94c.47,5.79.71,8.68.75,9,1.28,9.35,4.75,12.92,9,24.65.71,2,1.73,5.57,3.74,12.7,6.72,23.84,10.09,35.79,10.46,37.35,0,0,5.22,22.28,5.22,35.11,0,7.45,0,7.47,0,7.47a2.07,2.07,0,0,0,0,1.49s.58,1.06,7.47.75a26.87,26.87,0,0,0,2.24-11.95c-.2-4.73-1.67-6-3-11.21-1.88-7.43-.21-9.79-.75-21.66-.2-4.45-.63-7.69-1.49-14.19-6.14-46.29-11.17-84.29-23.16-85.9-3.7-.5-8.8,2.36-10.46,6C1990.62,263,1990.69,264.28,1991.31,271.94Z" transform="translate(-1965.81 -27.16)"/><path class="cls-2" d="M2034.64,259.24c1.93,3-.21,8-4.49,17.93-4.18,9.73-6.26,10.57-6.72,15.68-.49,5.57,2,6.67,4.48,16.44a81.63,81.63,0,0,1,2.24,18.67c-.05,8.74-2,15-4.48,23.16-3,9.62-8.6,24-9.71,30.62a65.11,65.11,0,0,0-.74,7.47,11.5,11.5,0,0,0,0,3.74,8.75,8.75,0,0,0,1.49,3c1.38,2.13.6,4.27-1.49,14.19-.89,4.19-1.12,5.56-2.25,6-2.09.77-6-2.25-6-2.25h0s-.23-7.26,0-14.19c.12-3.71.26-3.92.75-11.2,0,0,.38-5.77.74-13.45,1-21.8-.65-49-2.24-60.5-.32-2.37-.75-5.23-.75-5.23-1.12-7.66-2-13.06-2.24-14.19-1.63-10-3.92-24,3-32.12C2013.78,254.13,2031.07,253.67,2034.64,259.24Z" transform="translate(-1965.81 -27.16)"/><path class="cls-3" d="M1978.37,237.16a44.27,44.27,0,0,1,11-12.36c.16-.12.8-.59,1.82-1.24a1.16,1.16,0,0,1-.25-.3c-.5-1,1.12-2.6,1.83-3.61,2.81-4,.23-11.32,0-12-.7-1.92-2-4.26-1-5.29a1.37,1.37,0,0,1,.44-.3c1-.54,2.87-.44,9,1.07,10.08,2.48,22.86,5.73,24.45,11.58a4.14,4.14,0,0,1,.13,1.79c.74.16,1.48.33,2.23.53,10.35,2.8,16.81,8.92,22.88,14.67s10.94,12.46,10.25,13.13-5.25-3.94-6.31-3.09c-1.88,1.52,9.44,18.5,9.47,18.54-10.91-12.47-14.13-14.48-15-13.9-1.14.76,2.5,5.55,3.94,15.44a106.5,106.5,0,0,1,.79,15.44c-8.14-5.82-8.67-6.17-8.67-6.17-6.26-4.06-12.46-8.07-17.36-6.18-1,.4-2.54,2.33-5.52,6.18,0,0-4.38,5.67-9.46,13.12-2.81-3.54-4.93-6.5-6.31-8.49,0,0-7.78-11.17-10.25-10.81a3.61,3.61,0,0,0-1.58.77c-6.33,4.35-7.89,14.67-7.89,14.67a30.76,30.76,0,0,1-3.94-6.95c-1.14-3-.91-4.52-1.58-4.63-1.54-.25-3.5,7.91-4.73,7.72-1.85-.27.36-19-1.58-19.3-1.46-.26-3.92,10.21-4.73,10C1969.52,267.07,1969.26,251.51,1978.37,237.16Z" transform="translate(-1965.81 -27.16)"/><path class="cls-4" d="M1979.36,233.1a42.64,42.64,0,0,1,10.46-11.95c.15-.12.76-.57,1.73-1.21a1.37,1.37,0,0,1-.24-.29,2.82,2.82,0,0,1,0-2.24c2.08-6.63-2.47-15.08.75-17.93.91-.8,2.2-.95,9,.75,9.55,2.4,21.65,5.54,23.16,11.2a4.24,4.24,0,0,1,.12,1.73c.7.15,1.41.32,2.12.52,9.79,2.7,15.91,8.62,21.66,14.19s10.37,12,9.71,12.7-5-3.82-6-3c-1.78,1.47,8.94,17.89,9,17.93-10.33-12.06-13.38-14-14.19-13.45-1.08.74,2.37,5.38,3.73,14.94a106.4,106.4,0,0,1,.75,14.94c-7.71-5.64-8.22-6-8.22-6-5.92-3.92-11.79-7.8-16.43-6-1,.39-2.41,2.25-5.23,6,0,0-4.15,5.49-9,12.7-2.66-3.43-4.67-6.29-6-8.21,0,0-7.37-10.81-9.71-10.46a3.52,3.52,0,0,0-1.49.74c-6,4.21-7.47,14.2-7.47,14.2a30.06,30.06,0,0,1-3.74-6.73c-1.07-2.87-.86-4.37-1.49-4.48-1.46-.24-3.32,7.65-4.48,7.47-1.75-.27.34-18.34-1.5-18.67-1.39-.25-3.71,9.88-4.48,9.71S1970.73,247,1979.36,233.1Z" transform="translate(-1965.81 -27.16)"/><path class="cls-2" d="M2027.91,146.45c1.1-.57,1.95-1,2.24-.75.6.59-2.32,3.24-3,7.47-.21,1.33-.63,4.07.74,6,2.46,3.41,7.86,0,12,3,4.4,3.26,4.21,11.71,3,16.44-.57,2.2-1,2.37-3,8.21-1,3-1.65,5-2.25,7.47-1.72,7.23-.56,8.54-2.24,11.21-2.62,4.18-8.07,5.08-9,5.23-4.65.77-8.44-1-15.69-4.48-7-3.4-6.83-4.53-10.45-5.23s-3.74.41-14.2,1.49a65.41,65.41,0,0,1-12.7,0c-4.48-.42-6-1-6.72-2.24-1-1.54-.38-3.54.75-7.47a30.18,30.18,0,0,1,2.24-6c2.59-5,4.94-5.54,9-10.45.75-.91,3-4.59,7.47-12,2.94-4.82,4.06-6.77,6.73-8.22a12.84,12.84,0,0,1,7.47-1.5c5.09.62,7.33,4.89,9.71,3.74,1.35-.66,2.15-2.75,2.24-3,.55-1.46.19-2.14.74-3,.77-1.17,2.24-.79,4.49-1.49A76.43,76.43,0,0,0,2027.91,146.45Z" transform="translate(-1965.81 -27.16)"/><path class="cls-5" d="M2037.34,139.73c-1.08,1.43-4.3,4.19-10.73,9.71a15.43,15.43,0,0,1-6.45,3.73,13.13,13.13,0,0,1-6.44,0c-3.32-.85-5.33-2.8-8.59-6-2.41-2.34-3.61-3.51-4.3-5.22-.6-1.53-.51-2.36-1.43-7.47-.36-2-.6-3.15-.71-3.74-1.78-9.35-4.18-21.89.71-29.13,5.32-7.88,19.6-10,29.35-4.48C2043.93,105.68,2044.38,130.41,2037.34,139.73Z" transform="translate(-1965.81 -27.16)"/><ellipse class="cls-6" cx="2032.43" cy="89.85" rx="11.25" ry="14.52" transform="translate(-773.98 1915.31) rotate(-68.13)"/><path d="M1996.51,122.55a3.62,3.62,0,0,1,.24-3,2.71,2.71,0,0,1,1.31-1.06,4.62,4.62,0,0,1,1.59-.27,6.09,6.09,0,0,1,2.92.85,9.86,9.86,0,0,1,1.22.86,7.87,7.87,0,0,1,1,1.1h0s0,0,0,0h0a8.13,8.13,0,0,0-5.1-2.25,3,3,0,0,0-2.52,1,4.09,4.09,0,0,0-.55,2.72,0,0,0,0,1,0,0s0,0,0,0Z" transform="translate(-1965.81 -27.16)"/><path class="cls-7" d="M2039.12,137.48c.59.37,3-1.76,4.48-4.48,1.1-1.95.77-2.6,2.24-6.72.7-2,1.27-3.18,1.5-3.74,1.57-3.79,2-11.38,0-17.18-5-14.57-25.16-17.46-28.39-17.92-3.52-.51-9.32-1.26-15.69,1.49a22.23,22.23,0,0,0-9,6.72c-4.86,6.25-4.61,13.28-4.48,15.69.44,8.45,5,15.22,6,14.94.34-.1.48-2.06.75-6,.14-2,.21-2.59.75-3,1.21-.89,3.79.32,5.23,1.49a25.52,25.52,0,0,1,2.24,2.24,23.06,23.06,0,0,0,6.72-6,28.29,28.29,0,0,0,3-6s3.16,3.49,3,7.47c0,1.11-.21,1.25,0,1.49.79.91,3.76-.94,12-4.48l5.23-2.24s1.87,4,3,6.72c1.89,4.66,2.92,7.19,3,10.46C2040.72,133.75,2038.33,137,2039.12,137.48Z" transform="translate(-1965.81 -27.16)"/><path class="cls-8" d="M2032.4,125.53c-.35-1.41-3.54-2.22-6-1.49a7.4,7.4,0,0,0-4.48,5.23,1,1,0,0,0,0,.74c.49,1,3.35.64,5.23,0C2029.56,129.2,2032.78,127.11,2032.4,125.53Z" transform="translate(-1965.81 -27.16)"/><path class="cls-9" d="M1999,127.91c.21-1,2.89-1.81,5-1.47a5.88,5.88,0,0,1,4.13,3.36.62.62,0,0,1,0,.53c-.37.73-2.82.68-4.46.37C2001.67,130.3,1998.81,129.05,1999,127.91Z" transform="translate(-1965.81 -27.16)"/><path class="cls-4" d="M2025.67,178.57a11.6,11.6,0,0,0-4.48-4.48,12,12,0,0,0-6-2.24s-3-.17-8.22,2.24h0a17.82,17.82,0,0,0-2.24-4.49c-2.19-2.73-7-3.78-10.46-2.24a9.75,9.75,0,0,0-2.24,1.5,14.18,14.18,0,0,0-4.48,6,19,19,0,0,0-.75,8.22c-3.48-1.27,7,2.53,10.46,3.73,8.77,3,8.17,2.27,14.19,4.49s12.7,5.22,12.7,5.23a45.76,45.76,0,0,0,2.24-9.72C2026.73,183.69,2027,181.17,2025.67,178.57Z" transform="translate(-1965.81 -27.16)"/><path class="cls-4" d="M2028.66,378c1.52-.8,4.1,0,5.23,1.49.22.3.43.68.75,4.49.3,3.65.21,4.45,0,5.22a11.16,11.16,0,0,1-1.5,3c-1.32,2.41-1.39,4.87-1.49,9.71-.11,5.66.59,5.48,0,7.47-1,3.46-4,7.06-6.72,6.73a4.68,4.68,0,0,1-3-2.25c-3.37-5.34,4.17-11.1,5.23-23.9C2027.69,383.61,2026.31,379.24,2028.66,378Z" transform="translate(-1965.81 -27.16)"/><ellipse class="cls-3" cx="58.37" cy="379.23" rx="4.48" ry="5.98"/><path class="cls-4" d="M2018.2,393.7a4,4,0,0,1,3.74.74c1.62,1.73.09,5.74,0,6a8.67,8.67,0,0,1-.75,1.49c-2.09,3.37-1.21,8.9-2.24,14.94-.25,1.46-1.48,8-6,11.95-.52.46-2.25,2-3,1.5s-.16-2.38,0-3C2012.64,417,2011,395.61,2018.2,393.7Z" transform="translate(-1965.81 -27.16)"/><circle class="cls-3" cx="42.69" cy="393.42" r="5.98"/><path d="M2034.61,120.33a15.92,15.92,0,0,0-1.6-1.07,8.67,8.67,0,0,0-1.64-.82,6,6,0,0,0-3.42-.38c-1.19.15-2.46.53-3.7.76-.63.11-1.25.25-1.88.4s-1.26.27-1.91.37h0s0,0,0,0,0,0,0,0a38.45,38.45,0,0,1,3.65-1.28,36.71,36.71,0,0,1,3.75-.94,6.17,6.17,0,0,1,3.8.6,9.91,9.91,0,0,1,3,2.38,0,0,0,0,1,0,0,0,0,0,0,1,0,0Z" transform="translate(-1965.81 -27.16)"/><path d="M2033.12,124.07a12.43,12.43,0,0,0-2-.68,8.52,8.52,0,0,0-2-.32,7.87,7.87,0,0,0-3.81.66,9.27,9.27,0,0,0-3.23,2.21,14.42,14.42,0,0,0-2.39,3.34h0a0,0,0,0,1,0,0,0,0,0,0,1,0,0,10.69,10.69,0,0,1,2-3.7,9.19,9.19,0,0,1,3.39-2.52,8.14,8.14,0,0,1,4.17-.55,9.29,9.29,0,0,1,3.92,1.52s0,0,0,0,0,0,0,0Z" transform="translate(-1965.81 -27.16)"/><path d="M1998,126.26a5.54,5.54,0,0,1,1.23-1.55,5.93,5.93,0,0,1,5.86-1,6.75,6.75,0,0,1,3.23,2.51,6.53,6.53,0,0,1,.81,1.86,5.65,5.65,0,0,1,.14,2h0a.05.05,0,0,1,0,0l0,0a6.74,6.74,0,0,0-1.33-3.48,6.55,6.55,0,0,0-3-2.16,6,6,0,0,0-3.69-.14,6.4,6.4,0,0,0-3.1,2.06s0,0,0,0a0,0,0,0,1,0,0Z" transform="translate(-1965.81 -27.16)"/><path d="M2016.73,136a1.3,1.3,0,0,1,1.1.59,1.68,1.68,0,0,1,.23,1.37,1.75,1.75,0,0,1-.85,1.06,1.33,1.33,0,0,1-1.24,0l0,0s0,0,0,0l0,0a1.69,1.69,0,0,0,1.38-1.21,1.59,1.59,0,0,0-.65-1.71s0,0,0-.05h0Z" transform="translate(-1965.81 -27.16)"/><path d="M2011.52,135.25a10.53,10.53,0,0,1,.62,1.81,5.72,5.72,0,0,0,.2.62c0,.16.21.38.62.52h0a.05.05,0,0,1,0,.05s0,0,0,0a1.07,1.07,0,0,1-1-.12,1.76,1.76,0,0,1-.56-.88,4.49,4.49,0,0,1,0-2,.05.05,0,0,1,0,0l0,0Z" transform="translate(-1965.81 -27.16)"/><ellipse class="cls-10" cx="60.61" cy="100.24" rx="2.24" ry="1.87"/><ellipse class="cls-10" cx="38.21" cy="101.73" rx="2.24" ry="1.87"/><circle class="cls-11" cx="61.73" cy="99.49" r="0.37"/><circle class="cls-11" cx="61.36" cy="99.86" r="0.37"/><circle class="cls-11" cx="39.4" cy="101.06" r="0.37"/><circle class="cls-11" cx="39.03" cy="101.43" r="0.37"/><path class="cls-2" d="M2039.87,129.27a10.39,10.39,0,0,1,3-4.48h0s.55,1.5.75,2.24a8.1,8.1,0,0,1,0,3.73c-.72,3.85-3.92,7.05-4.48,6.72-.34-.19.57-1.5.75-4.48C2040,130.7,2039.51,130.6,2039.87,129.27Z" transform="translate(-1965.81 -27.16)"/><path class="cls-12" d="M2042.11,127.77a3.84,3.84,0,0,1,.74,2.24,4,4,0,0,1-1.49,3" transform="translate(-1965.81 -27.16)"/><path d="M2042.14,127.75a2.41,2.41,0,0,1,1.11,1.2,3,3,0,0,1,.22,1.69,2.86,2.86,0,0,1-2.09,2.39l0-.06a4,4,0,0,0,1.4-2.45,3.68,3.68,0,0,0-.66-2.72Z" transform="translate(-1965.81 -27.16)"/><path d="M2041.37,129.12a2.74,2.74,0,0,0-.1.57,1,1,0,0,0,0,.45,1.44,1.44,0,0,0,.16.45c.08.16.17.34.28.53l0,0a1.6,1.6,0,0,1-.74-.93,1.23,1.23,0,0,1,.37-1.12Z" transform="translate(-1965.81 -27.16)"/><path class="cls-2" d="M2033.89,187.53a23.77,23.77,0,0,0-4.48,0,28.56,28.56,0,0,0-5.3.39c-.72.15-1.26.31-1.42.36a14.16,14.16,0,0,0-6,3c-.4.37-1.49,1.49-1.49,1.49l2.24.75a48.4,48.4,0,0,1,6.72,3,3.47,3.47,0,0,1,2.24-1.5,14,14,0,0,1,4.48.75,1.3,1.3,0,0,0,.75,0c.36-.12.76-.47.75-.75,0-.93-4.13-1.45-4.49-1.49a19.21,19.21,0,0,0-5.22,0,37.65,37.65,0,0,0,6,0,8,8,0,0,1,2.24,0c1.61.28,2.64,1.1,3,.74.21-.21,0-.69,0-.74-.26-.67-1-1-3-1.5-.8-.21-1.8-.47-3-.74a17.58,17.58,0,0,0-4.48,0,23.83,23.83,0,0,1,6,0,12.81,12.81,0,0,1,3.73.74c1,.43,1.94,1.05,2.24.75s0-.72,0-.75a1.48,1.48,0,0,0-.74-.74,32.14,32.14,0,0,0-3-1.5,17.12,17.12,0,0,0-3.74-.74c-1.24-.1-5,0-3.73,0h9.71a2.4,2.4,0,0,0,1.49,0c.34-.15.79-.47.75-.75C2036.12,188.19,2036,187.79,2033.89,187.53Z" transform="translate(-1965.81 -27.16)"/><path class="cls-13" d="M2004,202.47a68.78,68.78,0,0,1-12.7-8.22c-3.56-2.93-5.63-5.28-9-5.22-1.58,0-3,.58-6.72.74-1.59.07-2.89,0-3.74,0" transform="translate(-1965.81 -27.16)"/><path class="cls-13" d="M1986.83,183.05a8.43,8.43,0,0,0-5.23-1.49,7.91,7.91,0,0,0-5.23,2.24,8.12,8.12,0,0,0-2.24,6" transform="translate(-1965.81 -27.16)"/><path class="cls-14" d="M2027.91,174.09a29,29,0,0,1,0,3,48.41,48.41,0,0,1-.74,6c-.19,1.18-.44,2.7-.75,4.48" transform="translate(-1965.81 -27.16)"/><path class="cls-14" d="M1995.05,164.38c-.46.72-1,1.47-1.5,2.24a44.63,44.63,0,0,1-3,3.73" transform="translate(-1965.81 -27.16)"/><path class="cls-7" d="M1983.84,107.61" transform="translate(-1965.81 -27.16)"/><path class="cls-7" d="M1968.9,69.51" transform="translate(-1965.81 -27.16)"/><path d="M2042.89,83.69a6.78,6.78,0,0,1,1.31,3,8.11,8.11,0,0,1-.11,3.36,7.71,7.71,0,0,1-1.54,3,6.39,6.39,0,0,1-2.66,1.92h0s-.05,0-.06,0,0,0,0,0a9.18,9.18,0,0,0,3.39-5.06,10,10,0,0,0-.42-6.09,0,0,0,0,1,0-.06,0,0,0,0,1,.05,0Z" transform="translate(-1965.81 -27.16)"/><path d="M2037.61,80a7.55,7.55,0,0,0-2,.14,6.39,6.39,0,0,0-1.83.57,6.64,6.64,0,0,0-2.74,2.39,6.55,6.55,0,0,0-1,3.48,6,6,0,0,0,.24,1.91,7.66,7.66,0,0,0,.73,1.9h0a0,0,0,0,1,0,0s0,0-.05,0a6.67,6.67,0,0,1-1.59-3.81,6.34,6.34,0,0,1,4.23-6.57,6.78,6.78,0,0,1,4.13-.15.07.07,0,0,1,0,.06.05.05,0,0,1-.05,0Z" transform="translate(-1965.81 -27.16)"/><path d="M2032.39,78.51a17.62,17.62,0,0,0-2,.29,8.92,8.92,0,0,0-1.85.53,8.25,8.25,0,0,0-3.13,1.93,6.28,6.28,0,0,0-1.85,3.07,6.73,6.73,0,0,0-.24,1.86,10.27,10.27,0,0,0,.12,2h0s0,0,0,0l0,0a7.72,7.72,0,0,1-.4-4,6.44,6.44,0,0,1,1.9-3.51,8.28,8.28,0,0,1,3.5-2,10.21,10.21,0,0,1,4-.32s0,0,0,0a0,0,0,0,1,0,0Z" transform="translate(-1965.81 -27.16)"/><path d="M2037.66,79.94a6.66,6.66,0,0,1,2,3.26,7.24,7.24,0,0,1,0,4,6.84,6.84,0,0,1-2.2,3.32A6.39,6.39,0,0,1,2033.9,92h0a0,0,0,0,1,0,0s0,0,0,0A8.27,8.27,0,0,0,2037,90a7.08,7.08,0,0,0,1.83-3.08,8.1,8.1,0,0,0-1.19-6.92s0,0,0-.06a0,0,0,0,1,.05,0Z" transform="translate(-1965.81 -27.16)"/><path d="M2039.91,100.13a8.77,8.77,0,0,1,.47,2.16,12,12,0,0,1-.09,2.24,9.87,9.87,0,0,1-1.7,4.21,10.07,10.07,0,0,1-3.41,3,12.8,12.8,0,0,1-2.08.85,9.55,9.55,0,0,1-2.19.3h0a0,0,0,0,1,0,0s0,0,0,0a11.85,11.85,0,0,0,3.91-1.65,10.91,10.91,0,0,0,3.06-2.92,11.07,11.07,0,0,0,1.75-3.84,11.85,11.85,0,0,0,.21-4.24.07.07,0,0,1,0,0,.05.05,0,0,1,.05,0Z" transform="translate(-1965.81 -27.16)"/><path d="M2021.21,93.45A15.3,15.3,0,0,0,2019,95a11.2,11.2,0,0,0-1.83,1.81,10.74,10.74,0,0,0-2.3,4.44,12.68,12.68,0,0,0-.27,5,16,16,0,0,0,.52,2.55,19,19,0,0,0,.83,2.52h0s0,0,0,0,0,0,0,0a15.73,15.73,0,0,1-1.86-5,12.44,12.44,0,0,1,.12-5.33,10.87,10.87,0,0,1,2.59-4.65,12.41,12.41,0,0,1,4.4-3,0,0,0,0,1,0,0s0,0,0,0Z" transform="translate(-1965.81 -27.16)"/><path d="M1998.06,100.91a12.48,12.48,0,0,0-1.63,1.88,8.48,8.48,0,0,0-1.16,2.1,7.8,7.8,0,0,0-.34,4.58,10.59,10.59,0,0,0,1.91,4.3,11.54,11.54,0,0,0,1.58,1.85,19.78,19.78,0,0,0,1.87,1.66h0s0,0,0,0,0,0,0,0a13.19,13.19,0,0,1-3.87-3.22,10.43,10.43,0,0,1-2.19-4.52,8.13,8.13,0,0,1,.54-5,9.78,9.78,0,0,1,3.27-3.8,0,0,0,0,1,.06,0,0,0,0,0,1,0,0Z" transform="translate(-1965.81 -27.16)"/><path class="cls-15" d="M2042.11,109.85a15.91,15.91,0,0,1,.74,14.94" transform="translate(-1965.81 -27.16)"/><path d="M2042.14,109.83a11,11,0,0,1,1.18,1.6,16,16,0,0,1,.86,1.82,14.19,14.19,0,0,1,.83,3.94,13.87,13.87,0,0,1-.44,4,15.56,15.56,0,0,1-.67,1.88,11.75,11.75,0,0,1-1,1.72h0a0,0,0,0,1-.05,0s0,0,0,0a16.14,16.14,0,0,0-.75-14.9s0,0,0-.06h.05Z" transform="translate(-1965.81 -27.16)"/><path class="cls-15" d="M2028.66,96.4a19,19,0,0,1-8.22,20.92" transform="translate(-1965.81 -27.16)"/><path d="M2028.7,96.39a15.56,15.56,0,0,1,.83,2.93,18.51,18.51,0,0,1,.24,3.07,17.83,17.83,0,0,1-1.18,6.06,18.22,18.22,0,0,1-3.26,5.24,19.35,19.35,0,0,1-2.26,2.08,15.77,15.77,0,0,1-2.61,1.58h0a0,0,0,0,1,0,0,0,0,0,0,1,0,0,19.11,19.11,0,0,0,8.2-20.87,0,0,0,1,1,.08,0Z" transform="translate(-1965.81 -27.16)"/><path d="M2021.65,104.17c.17.62.3,1.25.41,1.89s.12,1.29.14,1.94a16.87,16.87,0,0,1-.42,3.87,14.56,14.56,0,0,1-1.42,3.64,9.78,9.78,0,0,1-2.52,2.94h0a0,0,0,0,1,0,0,13.43,13.43,0,0,0,3.56-6.65,19.21,19.21,0,0,0,.23-7.59s0,0,0,0Z" transform="translate(-1965.81 -27.16)"/><path d="M2008.52,99.41c-.47.84-1,1.65-1.35,2.52a23.61,23.61,0,0,0-1.14,2.57,25.06,25.06,0,0,0-1.47,5.36,24.55,24.55,0,0,0-.41,5.55,24.15,24.15,0,0,0,.21,2.81c.08.94.27,1.87.43,2.82h0s0,0,0,0a.05.05,0,0,1,0,0,23,23,0,0,1,3.74-21.69,0,0,0,0,1,.06,0,0,0,0,0,1,0,0Z" transform="translate(-1965.81 -27.16)"/><path d="M2015.26,139c-.52-.19-.67-.43-.71-.67s.07-.51.54-.82l0,0s0,0,0,0h0l.12.74,0,.75,0,0h-.06Z" transform="translate(-1965.81 -27.16)"/><path d="M2011.67,137.11a.87.87,0,0,1,.36.08,1.44,1.44,0,0,1,.25.18,2.15,2.15,0,0,1,.14.26.87.87,0,0,1,0,.37h0s0,0,0,0h0a10.8,10.8,0,0,1-.76-.89s0,0,0,0h0Z" transform="translate(-1965.81 -27.16)"/><path class="cls-11" d="M2110.88,80.71c.17,3.83.22,7.66.13,11.5s-.42,7.66-.83,11.48a155.79,155.79,0,0,1-4.34,22.63A158.07,158.07,0,0,1,2098,148c-1.59,3.5-3.28,6.95-5.12,10.31s-3.86,6.63-6,9.84a0,0,0,0,1-.07,0s0,0,0-.07a167.26,167.26,0,0,0,18-42,165,165,0,0,0,4.54-22.45,168.23,168.23,0,0,0,1.4-22.88.05.05,0,0,1,.1,0Z" transform="translate(-1965.81 -27.16)"/><path class="cls-11" d="M2076.52,111.34c.45,3,.72,6,.93,9s.21,6,.18,9.05a128.06,128.06,0,0,1-1.69,18q-.8,4.47-1.89,8.86c-.74,2.93-1.5,5.85-2.49,8.71s-2,5.68-3.15,8.47-2.43,5.51-3.85,8.17a.05.05,0,0,1-.09-.05,141.85,141.85,0,0,0,12-70.19s0,0,0,0A.06.06,0,0,1,2076.52,111.34Z" transform="translate(-1965.81 -27.16)"/><path class="cls-11" d="M2070.52,186a28.47,28.47,0,0,1,3.21,4.34,31.56,31.56,0,0,1,2.34,4.91A29.85,29.85,0,0,1,2077.9,206a29.06,29.06,0,0,1-.63,5.43,26.24,26.24,0,0,1-1.59,5.22,31.47,31.47,0,0,1-2.53,4.81,27.47,27.47,0,0,1-3.38,4.21s0,0-.05,0,0,0,0-.06a31.87,31.87,0,0,0,5.42-9.18,30.21,30.21,0,0,0,1.47-5.14,28.73,28.73,0,0,0,.55-5.31,31.52,31.52,0,0,0-6.7-19.91s0,0,0-.05Z" transform="translate(-1965.81 -27.16)"/><path class="cls-11" d="M2046.61,180a27,27,0,0,1,4,3.79,32.34,32.34,0,0,1,3.15,4.55,26.32,26.32,0,0,1,2.19,5.12,25.75,25.75,0,0,1,1,5.5,24.79,24.79,0,0,1-1.8,10.95,25.22,25.22,0,0,1-6.29,9,0,0,0,0,1-.06,0,0,0,0,0,1,0-.05,27.67,27.67,0,0,0,5.81-9.15,24.84,24.84,0,0,0,1.6-10.69,25.5,25.5,0,0,0-.92-5.35,27.64,27.64,0,0,0-2.06-5,30.16,30.16,0,0,0-6.67-8.56,0,0,0,0,1,0-.05A0,0,0,0,1,2046.61,180Z" transform="translate(-1965.81 -27.16)"/><path class="cls-16" d="M2014.88,143.07c-1.88.35-4.58,1.66-5.24,2.62-.89-.87-.29-2.92,1.09-3.39,1.06-.37,1.72.47,4.09.77Z" transform="translate(-1965.81 -27.16)"/><path class="cls-17" d="M2019.37,146.75a2.35,2.35,0,0,1-1,.56c-1.29.36-2-.78-5.1-1.16-2.12-.25-2.93.14-3.57-.38l-.08-.08c.66-1,3.36-2.27,5.24-2.62.41.05.8.07,1.15.08a7.58,7.58,0,0,1,2.25,1.76A5.59,5.59,0,0,1,2019.37,146.75Z" transform="translate(-1965.81 -27.16)"/><path class="cls-16" d="M2019.37,146.75a5.59,5.59,0,0,0-1.09-1.84,7.58,7.58,0,0,0-2.25-1.76c2.1,0,3.16-.61,3.9-.08C2020.87,143.75,2020.49,145.72,2019.37,146.75Z" transform="translate(-1965.81 -27.16)"/></svg>