<svg width="277" height="380" viewBox="0 0 277 380" fill="none" xmlns="http://www.w3.org/2000/svg">
<g clip-path="url(#clip0_455:464)">
<path d="M108.063 138.273C108.312 140.556 108.346 142.858 108.165 145.148C108.02 147.415 107.618 149.658 106.967 151.833C105.705 156.165 103.425 160.128 100.317 163.39C98.8061 165.05 97.1112 166.531 95.2652 167.806C93.3893 169.058 91.4141 170.153 89.3596 171.082C85.1531 172.867 80.6853 173.955 76.1308 174.303V174.405C78.4379 174.367 80.7379 174.138 83.0076 173.722C85.2712 173.266 87.4909 172.615 89.6416 171.773C91.7781 170.893 93.8242 169.806 95.7509 168.528C97.6711 167.24 99.4395 165.738 101.022 164.05C101.81 163.202 102.55 162.31 103.239 161.379C103.91 160.437 104.53 159.459 105.095 158.449C106.223 156.423 107.094 154.264 107.687 152.022C108.845 147.523 109.005 142.825 108.157 138.258L108.063 138.273Z" fill="white"/>
<path opacity="0.4" d="M0.689362 0.699167C3.82231 -2.44341 45.0756 34.4818 69.8885 56.6763C145.416 124.242 119.569 113.038 136.855 124.595C139.565 126.402 146.019 130.566 145.784 135.791C145.393 144.503 126.478 154.025 110.069 151.464C98.4063 149.641 90.6522 142.115 81.0889 132.805C73.985 125.87 67.7394 118.101 62.487 109.668C31.7762 61.6886 31.0869 47.5157 7.42529 12.6409C3.16447 6.41079 -0.313187 1.71265 0.689362 0.699167Z" fill="white" stroke="white" stroke-width="1.31" stroke-linecap="round" stroke-linejoin="round"/>
<path d="M198.025 205.173C198.284 205.392 198.619 205.498 198.956 205.469C199.293 205.439 199.605 205.277 199.823 205.017L276.816 113.142C276.958 112.972 277.027 112.754 277.008 112.534C276.989 112.314 276.883 112.11 276.715 111.968L275.48 110.927C275.311 110.785 275.093 110.716 274.874 110.735C274.655 110.754 274.452 110.859 274.31 111.028L197.781 202.35C197.44 202.757 197.274 203.283 197.32 203.812C197.366 204.342 197.619 204.831 198.025 205.173Z" fill="url(#paint0_linear_455:464)"/>
<path opacity="0.4" d="M194.188 38.3944C194.188 38.3944 192.348 52.6067 192.191 53.7694C190.938 63.3307 187.257 80.6699 181.531 94.5286C173.315 114.445 156.758 137.181 150.202 134.596C144.461 132.357 145.22 110.155 152.207 91.826C163.909 61.1702 194.188 38.3944 194.188 38.3944Z" fill="white" stroke="white" stroke-width="1.09" stroke-miterlimit="10"/>
<path opacity="0.4" d="M93.4011 135.138C82.1617 135.248 66.818 141.541 64.7973 153.09C62.6433 165.402 76.6712 177.61 88.6939 180.407C96.5262 182.214 103.254 180.022 115.058 176.204C124.864 173.062 129.767 171.443 131.036 168.057C134.748 158.111 116.272 137.629 97.3563 135.351C96.0436 135.197 94.7227 135.127 93.4011 135.138Z" fill="white" stroke="white" stroke-width="1.23" stroke-miterlimit="10"/>
<path d="M156.75 124.234C156.483 124.784 156.945 125.177 157.415 126.905C158.285 130.103 158.982 132.53 158.081 133.591C156.687 135.303 152.598 131.933 144.766 132.255C142.483 132.301 140.226 132.753 138.101 133.591C136.148 134.394 134.344 135.523 132.767 136.93C127.95 141.078 122.467 144.386 117.447 148.29C105.62 157.498 105.487 157.671 104.132 158.315C100.87 159.817 97.7479 161.607 94.8032 163.665C93.6483 164.497 92.5372 165.389 91.4744 166.336C84.1511 172.669 80.8772 177.532 73.4599 183.039C70.5541 185.208 69.0974 185.923 67.4682 185.718C64.8914 185.396 64.4529 183.267 60.1372 181.704C58.1713 180.997 57.9128 181.311 55.4378 180.368C53.2369 179.512 52.8374 179.017 50.7384 178.365C48.6393 177.713 46.2111 177.32 46.0779 177.697C46.0231 177.854 46.3757 178.105 46.7438 178.365C47.9265 179.205 48.8742 179.284 50.0725 179.7C51.0058 180.047 51.8986 180.495 52.7355 181.036C54.0435 181.821 55.5318 182.67 55.3986 183.039C55.2654 183.408 52.853 182.898 48.0752 182.371C42.4908 181.766 42.1384 182.191 42.0757 182.371C41.9582 182.756 42.6553 183.542 43.4072 183.707C43.6263 183.757 43.8539 183.757 44.073 183.707C45.1539 183.511 46.4775 184.1 48.7724 185.05C50.3389 185.687 52.0777 186.433 52.1012 186.386C51.2598 185.853 50.3677 185.406 49.4381 185.05C46.078 183.668 42.2715 183.181 42.1071 183.707C41.9426 184.233 45.3418 185.773 46.8065 186.386C50.9655 188.162 54.1688 188.468 54.1297 189.057C54.0827 189.843 48.0282 190.165 47.4721 191.728C47.4721 191.838 47.3076 192.192 47.4721 192.396C47.6366 192.6 48.3806 192.506 48.8036 192.396C50.1219 192.1 51.4555 191.877 52.7982 191.728C53.683 191.628 54.5763 191.628 55.4611 191.728C59.205 192.09 60.3094 194.085 64.1238 194.4C64.7882 194.459 65.4567 194.459 66.1211 194.4C71.0477 194.093 74.3059 191.116 79.4361 187.722C81.8798 186.103 84.1355 184.862 88.7566 182.371C95.9232 178.49 96.1426 179.001 99.4165 177.029C100.664 176.266 101.867 175.432 103.02 174.531C106.779 171.522 115.951 159.415 124.739 154.976C136.417 149.068 149.512 155.612 153.382 157.647C157.987 160.075 159.178 162.039 159.381 163.665C159.632 165.692 158.285 166.745 157.384 169.675C156.586 172.743 156.586 175.965 157.384 179.032C158.864 184.532 164.433 187.038 174.701 191.728C177.051 192.781 182.683 194.211 194.024 197.079C195.98 197.671 198.067 197.671 200.023 197.079C201.263 196.637 202.402 195.954 203.376 195.067C206.023 192.71 205.725 190.707 208.075 189.725C209.093 189.285 209.266 189.646 210.746 189.057C212.9 188.201 213.879 186.897 214.075 187.054C214.271 187.211 212.61 189.827 210.072 192.396C208.177 194.329 206.571 195.484 206.744 195.743C206.916 196.002 207.864 195.476 208.741 195.067C209.916 194.533 210.511 194.282 210.746 193.732C211.146 192.852 210.535 191.823 210.746 191.728C210.958 191.634 211.177 192.003 211.412 192.396C212.14 193.638 211.568 194.596 212.078 196.411C212.156 196.694 212.453 197.762 212.743 197.746C213.033 197.731 212.923 196.403 213.409 193.732C213.683 192.2 213.989 191.202 213.409 190.393C213.214 190.144 212.991 189.92 212.743 189.725C212.991 189.92 213.214 190.144 213.409 190.393C213.942 191.178 213.668 192.003 213.409 193.732C212.963 196.639 213.252 197.409 213.409 197.746C213.738 198.461 214.372 199.192 214.741 199.082C215.109 198.972 214.921 197.746 215.406 195.743C215.602 194.957 215.665 195.012 216.072 193.732C216.957 190.927 217.443 189.411 216.738 188.389C216.268 187.698 215.649 187.8 215.406 187.054C215.281 186.693 215.278 186.301 215.399 185.938C215.519 185.576 215.756 185.264 216.072 185.05C216.518 184.862 216.855 185.215 218.069 185.718C218.712 185.985 220.466 186.732 220.732 186.386C220.999 186.04 219.902 184.084 218.069 183.039C215.955 181.837 213.613 182.254 209.407 183.039C206.697 183.558 205.334 183.825 204.081 184.383C199.138 186.606 199.256 190.118 196.084 191.061C192.168 192.215 187.711 188.248 184.092 185.05C179.738 181.201 179.659 179.095 174.764 175.693C171.694 173.556 170.848 173.761 170.065 172.347C169.587 171.435 168.811 169.133 175.391 156.979C176.957 154.128 179.526 149.555 180.09 144.283C180.234 143.397 180.188 142.489 179.956 141.621C179.724 140.754 179.31 139.945 178.743 139.25C178.176 138.555 177.467 137.988 176.665 137.588C175.863 137.188 174.986 136.964 174.09 136.93C172.673 136.93 171.6 137.598 170.762 136.93C170.383 136.582 170.146 136.106 170.096 135.594C169.101 129.725 168.6 126.787 167.746 125.538C165.389 122.042 157.689 122.238 156.75 124.234Z" fill="#F7D3BE" stroke="black" stroke-width="1.09" stroke-miterlimit="10"/>
<path d="M156.53 362.142C157.603 363.274 158.388 364.648 158.817 366.149C159.06 366.998 159.639 369.001 158.817 370.156C157.995 371.311 155.856 370.942 155.386 370.824C152.457 370.132 151.87 367.516 147.961 365.481C146.63 364.782 145.698 364.311 145.11 364.814C144.061 365.701 145.439 368.514 145.11 372.835C145.001 374.202 144.656 378.72 142.823 379.513C140.356 380.589 134.897 375.074 133.683 368.82C133.291 366.778 133.44 365.144 132.547 361.467C132.076 359.655 131.503 357.871 130.832 356.124C129.109 351.411 128.075 350.059 128.545 348.103C128.816 347.051 129.417 346.114 130.26 345.432C136.017 340.694 150.836 356.187 156.53 362.142Z" fill="#9999FF" stroke="black" stroke-width="0.88" stroke-linecap="round" stroke-linejoin="round"/>
<path d="M138.758 213.782C142.972 214.913 142.862 228.12 142.753 239.849C142.573 260.897 138.837 263.183 139.424 280.608C139.886 295.009 142.432 295.331 142.087 309.347C141.907 316.921 142.534 324.51 142.087 332.068C141.868 335.902 141.515 339.477 143.419 343.428C145.322 347.38 147.922 348.574 147.421 350.782C146.794 353.508 141.86 355.59 139.424 354.121C137.693 353.076 137.646 350.491 137.427 348.103C137.043 343.868 136.933 348.999 132.727 330.732C131.662 326.058 129.775 317.424 126.736 299.99C124.558 287.522 123.415 281.3 123.407 279.941C123.321 266.585 126.117 264.943 126.07 249.866C126.07 238.466 124.127 236.51 126.07 229.824C128.576 221.284 135.054 212.792 138.758 213.782Z" fill="#F7D3BE" stroke="black" stroke-width="1.09" stroke-miterlimit="10"/>
<path d="M90.7927 209.775C87.7146 214.803 89.1243 221.221 90.1269 225.81C91.333 231.309 92.8213 231.993 97.4502 243.188C99.9722 249.277 99.7999 250.007 102.15 255.884C107.977 270.937 111.549 272.626 114.807 281.944C118.856 293.611 113.851 292.754 117.47 307.344C121.989 325.547 131.051 331.974 129.461 342.76C129.258 344.143 128.482 348.26 130.793 351.45C132.312 353.508 135.218 355.244 136.792 354.789C142.173 353.217 138.539 325.186 132.79 283.955C124.08 221.41 121.229 205.454 110.804 202.421C104.21 200.512 94.5052 203.709 90.7927 209.775Z" fill="#F7D3BE" stroke="black" stroke-width="1.09" stroke-miterlimit="10"/>
<path d="M111.792 71.4112C109.632 62.2482 116.792 52.7073 127.784 50.101C138.775 47.4948 149.436 52.8101 151.595 61.9732C153.755 71.1362 146.595 80.6771 135.604 83.2834C124.612 85.8896 113.951 80.5743 111.792 71.4112Z" fill="#FFFF99" stroke="black" stroke-width="1.39" stroke-miterlimit="10"/>
<path d="M127.73 50.3126C129.297 50.9411 130.801 51.5382 132.234 52.2217C132.947 52.5752 133.659 52.9052 134.325 53.3059C135.008 53.6689 135.668 54.0756 136.299 54.5236C137.588 55.3798 138.792 56.3585 139.894 57.4462C141.037 58.598 142.084 59.8408 143.027 61.1623C143.039 61.1734 143.054 61.1795 143.07 61.1795C143.086 61.1795 143.102 61.1734 143.113 61.1623C143.121 61.1507 143.125 61.137 143.125 61.123C143.125 61.109 143.121 61.0954 143.113 61.0837C141.946 57.9413 139.811 55.253 137.02 53.408C135.637 52.4881 134.142 51.7513 132.571 51.2161C131.008 50.6693 129.386 50.3106 127.738 50.1476C127.729 50.1465 127.72 50.1473 127.712 50.1499C127.703 50.1526 127.695 50.157 127.689 50.163C127.682 50.1689 127.677 50.1762 127.673 50.1844C127.669 50.1926 127.668 50.2015 127.668 50.2104C127.665 50.2239 127.668 50.2379 127.675 50.2495C127.682 50.2611 127.694 50.2696 127.707 50.2733L127.73 50.3126Z" fill="black"/>
<path d="M119.373 54.0051C118.463 54.6381 117.745 55.5108 117.298 56.527C116.832 57.5864 116.623 58.7414 116.687 59.8975C116.751 61.0566 117.044 62.1914 117.548 63.2364C118.057 64.2669 118.72 65.2129 119.514 66.0412C121.106 67.6451 123.105 68.7809 125.295 69.3252C127.415 69.8989 129.663 69.7777 131.709 68.9795C131.719 68.9671 131.724 68.9519 131.724 68.9363C131.724 68.9206 131.719 68.9054 131.709 68.8931C131.687 68.8839 131.662 68.8839 131.639 68.8931C129.605 69.235 127.519 69.0622 125.569 68.3903C123.615 67.7485 121.842 66.6467 120.399 65.177C118.929 63.7375 117.967 61.8564 117.658 59.8189C117.519 58.8004 117.604 57.7636 117.909 56.7819C118.213 55.8003 118.729 54.8979 119.42 54.1387C119.431 54.127 119.438 54.1116 119.438 54.0955C119.438 54.0794 119.431 54.0639 119.42 54.0523C119.408 54.0427 119.393 54.0375 119.377 54.0375C119.362 54.0375 119.347 54.0427 119.334 54.0523L119.373 54.0051Z" fill="black"/>
<path d="M114.423 59.2847C113.748 60.0607 113.193 60.9348 112.778 61.8773C112.387 62.8634 112.154 63.9056 112.089 64.9649C111.976 67.1359 112.546 69.2877 113.718 71.1165C114.884 72.9219 116.535 74.3599 118.48 75.2646C120.35 76.1381 122.405 76.5374 124.464 76.4274C124.479 76.4255 124.493 76.418 124.504 76.4064C124.514 76.3948 124.519 76.3799 124.519 76.3646C124.517 76.352 124.511 76.3402 124.503 76.3306C124.495 76.3209 124.484 76.3136 124.472 76.3096C122.52 76.0469 120.632 75.4264 118.903 74.479C117.183 73.5276 115.727 72.1613 114.666 70.5036C113.595 68.8502 113.009 66.9283 112.974 64.957C112.97 63.973 113.096 62.9928 113.35 62.0423C113.625 61.0984 114.017 60.1931 114.517 59.3475C114.522 59.3424 114.526 59.3363 114.529 59.3295C114.532 59.3228 114.534 59.3155 114.534 59.3082C114.534 59.3009 114.532 59.2937 114.529 59.2869C114.526 59.2802 114.522 59.2741 114.517 59.2689C114.507 59.2618 114.494 59.2581 114.482 59.2581C114.469 59.2581 114.457 59.2618 114.447 59.2689L114.423 59.2847Z" fill="black"/>
<path d="M119.428 54.1151C121.255 54.3689 123.052 54.8031 124.793 55.4115C125.629 55.7041 126.443 56.0559 127.229 56.4642C128.016 56.8451 128.77 57.2891 129.485 57.792C130.199 58.2802 130.87 58.8296 131.49 59.4339C132.12 60.0298 132.692 60.6849 133.198 61.3902C134.244 62.8786 134.999 64.5529 135.422 66.324C135.427 66.3399 135.438 66.3534 135.452 66.3621C135.467 66.3707 135.484 66.3739 135.5 66.3712C135.514 66.3676 135.526 66.3594 135.535 66.348C135.543 66.3366 135.548 66.3226 135.547 66.3083C135.553 64.3923 135.047 62.5097 134.083 60.856C133.111 59.2087 131.793 57.7933 130.221 56.7078C128.644 55.6526 126.894 54.8841 125.052 54.4373C123.211 53.9713 121.303 53.8277 119.413 54.013C119.404 54.014 119.396 54.0166 119.389 54.0207C119.382 54.0248 119.375 54.0303 119.37 54.0368C119.365 54.0434 119.362 54.051 119.359 54.059C119.357 54.0671 119.357 54.0755 119.358 54.0837C119.358 54.0991 119.363 54.114 119.373 54.1256C119.383 54.1372 119.397 54.1446 119.413 54.1466L119.428 54.1151Z" fill="black"/>
<path d="M77.1878 197.079H147.726C148.746 198.587 149.665 200.161 150.475 201.792C153.405 207.763 154.587 213.671 154.345 213.789C154.102 213.907 153.859 212.163 152.41 210.788C150.936 209.56 149.142 208.78 147.241 208.541C147.883 215.321 147.891 216.79 147.891 216.79C147.891 221.292 146.998 226.477 145.948 226.532C145.04 226.587 145.087 222.675 142.079 219.037C141.069 217.827 139.299 215.683 137.552 216.036C134.646 216.633 133.182 223.893 133.033 228.787C133.032 232.821 133.465 236.843 134.325 240.784C134.325 240.784 123.493 237.869 118.175 230.288C113.107 223.044 114.681 213.86 113.013 213.789C111.682 213.742 111.008 219.517 107.194 229.502C105.33 234.405 103.035 240.352 101.382 239.998C99.9488 239.692 101.092 235.049 98.1551 228.756C96.1892 224.553 94.3642 223.806 93.628 219.76C93.0092 216.311 93.8787 214.347 92.9858 213.758C91.6387 212.87 87.7459 216.115 85.8818 220.507C82.976 227.404 86.2499 234.31 85.2317 234.75C84.0255 235.277 77.509 226.257 78.7778 216.759C79.7099 209.782 84.4798 205.289 83.9394 204.762C83.399 204.236 80.1485 207.237 77.4855 211.511C74.6972 215.981 74.4388 219.116 73.6085 219.006C72.3319 218.841 70.6322 211.047 72.9584 204.016C73.8605 201.428 75.3023 199.063 77.1878 197.079Z" fill="#FFFFCC" stroke="black" stroke-width="1.02" stroke-linecap="round" stroke-linejoin="round"/>
<path d="M158.731 153.64C159.514 153.9 160.156 152.478 162.725 150.969C163.723 150.281 164.859 149.822 166.054 149.626C167.736 149.436 169.424 149.919 170.753 150.969C173.691 153.554 172.923 159.698 170.753 163.665C168.2 168.332 163.501 170.375 157.438 173.014C152.645 175.104 150.804 175.049 146.113 177.728C141.421 180.407 139.181 181.656 138.782 183.738C137.999 187.832 144.703 189.607 150.107 199.113C153.131 204.432 154.352 209.696 154.102 209.806C153.603 208.801 152.926 207.896 152.105 207.135C150.531 206.016 148.697 205.324 146.779 205.124C147.436 211.173 147.444 212.477 147.444 212.477C147.444 216.492 146.52 221.119 145.447 221.166C144.507 221.214 144.554 217.717 141.445 214.481C140.411 213.396 138.578 211.495 136.745 211.809C133.746 212.336 132.226 218.825 132.046 223.17C132.05 226.776 132.5 230.368 133.385 233.862C133.385 233.862 122.208 231.262 116.726 224.505C111.494 218.055 113.123 209.861 111.4 209.806C110.029 209.759 109.332 214.905 105.4 223.838C103.473 228.206 101.108 233.509 99.4005 233.195C97.9202 232.92 99.1029 228.779 96.0717 223.17C94.051 219.422 92.1556 218.762 91.4115 215.148C90.7614 212.077 91.6621 210.332 90.7457 209.806C89.3515 209.02 85.3336 211.88 83.4147 215.816C80.4149 221.968 83.7905 228.119 82.7488 228.52C81.5035 228.984 74.7755 220.946 76.0835 212.477C77.0469 206.255 81.9656 202.264 81.4174 201.785C80.8691 201.305 77.5012 203.984 74.752 207.803C71.8775 211.786 71.619 214.583 70.7574 214.481C69.4416 214.331 67.6794 207.41 70.0918 201.125C71.5799 197.244 74.2115 194.918 79.4201 190.432C82.786 187.516 86.3477 184.836 90.08 182.411C101.437 175.151 106.771 174.436 117.391 167.043C119.761 165.453 121.991 163.664 124.057 161.693C126.97 158.873 127.37 157.765 132.046 152.344C136.91 146.735 138.421 145.713 140.043 144.99C142.144 144.074 144.417 143.618 146.708 143.655C148.786 143.586 150.847 144.046 152.7 144.99C154.748 145.99 156.403 147.65 157.399 149.704C158.355 151.778 157.948 153.373 158.731 153.64Z" fill="#9999FF" stroke="black" stroke-width="0.88" stroke-linecap="round" stroke-linejoin="round"/>
<path d="M145.753 365.481C141.155 365.481 137.427 361.443 137.427 356.462C137.427 351.481 141.155 347.443 145.753 347.443C150.351 347.443 154.079 351.481 154.079 356.462C154.079 361.443 150.351 365.481 145.753 365.481Z" fill="#FFFFCC" stroke="black" stroke-width="1.02" stroke-linecap="round" stroke-linejoin="round"/>
<path d="M139.753 364.146C134.787 364.146 130.761 360.108 130.761 355.127C130.761 350.145 134.787 346.107 139.753 346.107C144.719 346.107 148.745 350.145 148.745 355.127C148.745 360.108 144.719 364.146 139.753 364.146Z" fill="#FFFFCC" stroke="black" stroke-width="1.02" stroke-linecap="round" stroke-linejoin="round"/>
<path d="M214.427 186.755C214.728 186.585 214.971 186.328 215.124 186.017C215.185 185.863 215.185 185.692 215.124 185.538C215.076 185.437 215.005 185.349 214.916 185.28C214.828 185.212 214.725 185.166 214.615 185.145C214.388 185.1 214.154 185.1 213.926 185.145C213.268 185.263 212.743 185.404 212.219 185.53C211.276 185.775 210.302 185.881 209.328 185.844C208.833 185.825 208.342 185.748 207.864 185.616C207.457 185.545 207.041 185.545 206.634 185.616C206.245 185.684 205.872 185.828 205.538 186.04C204.976 186.403 204.511 186.897 204.184 187.48C203.856 188.063 203.676 188.718 203.658 189.387C203.662 189.399 203.67 189.41 203.681 189.417C203.691 189.424 203.704 189.428 203.717 189.428C203.729 189.428 203.742 189.424 203.752 189.417C203.763 189.41 203.771 189.399 203.775 189.387C204.21 188.348 204.983 187.486 205.968 186.944C206.458 186.713 207.013 186.662 207.535 186.803C208.083 186.985 208.651 187.101 209.227 187.148C210.385 187.174 211.535 186.943 212.595 186.473C213.119 186.26 213.628 185.986 214.161 185.773C214.412 185.671 214.741 185.616 214.662 185.915C214.59 186.18 214.471 186.43 214.31 186.653C214.3 186.666 214.295 186.681 214.295 186.696C214.295 186.712 214.3 186.727 214.31 186.74C214.32 186.748 214.332 186.753 214.345 186.753C214.358 186.753 214.371 186.748 214.38 186.74L214.427 186.755Z" fill="black"/>
<path d="M48.1142 37.3809C49.923 40.1154 51.5933 42.9394 53.119 45.8423C54.6855 48.7099 56.1033 51.6561 57.3878 54.6572C58.6723 57.6584 59.8079 60.7067 60.8104 63.81C61.813 66.9133 62.6353 70.0951 63.3011 73.2377C65.9704 86.0578 66.236 99.2644 64.0843 112.182H64.1705C65.5172 105.746 66.1997 99.188 66.207 92.6117C66.1996 86.0329 65.5011 79.4733 64.1235 73.0413C63.4264 69.828 62.557 66.6619 61.5388 63.535C60.5206 60.4081 59.3145 57.352 57.9752 54.3508C55.2784 48.3558 51.9935 42.6448 48.1691 37.3024L48.1142 37.3809Z" fill="white"/>
<path d="M89.4224 74.8011C90.8427 77.6608 92.135 80.5703 93.2994 83.5296C94.4638 86.4888 95.5474 89.4743 96.55 92.4859C97.482 95.5185 98.3904 98.5589 99.111 101.647C99.8316 104.734 100.419 107.853 100.897 110.988C101.876 117.256 102.339 123.594 102.283 129.938C102.283 133.08 102.119 136.286 101.845 139.46C101.571 142.634 101.241 145.8 100.74 148.95H100.826C103.338 136.396 103.648 123.499 101.743 110.839C101.221 107.696 100.597 104.566 99.8709 101.45C99.0877 98.3468 98.2025 95.2828 97.1843 92.2581C95.1274 86.2097 92.5542 80.3507 89.493 74.7461L89.4224 74.8011Z" fill="white"/>
<path d="M185.487 94.505C185.964 96.9798 184.97 99.4074 186.873 102.432C187.813 103.925 189.223 105.221 189.638 107.72C189.746 108.596 189.746 109.483 189.638 110.359C189.457 112.612 188.991 114.832 188.251 116.967C185.902 123.338 178.923 128.602 178.57 128.861C173.006 129.424 167.387 128.974 161.982 127.533C158.011 126.457 155.293 125.719 152.301 123.605C149.575 121.649 147.531 119.182 146.763 119.638C145.996 120.093 147.64 122.961 146.763 123.605C145.729 124.391 141.602 121.696 138.469 118.318C134.506 114.052 134.286 110.996 130.166 109.071C128.811 108.434 127.339 108.073 127.402 107.751C127.488 107.311 130.394 107.193 132.939 107.751C138.884 109.055 141.39 113.698 142.62 113.03C143.85 112.363 141.414 108.317 141.234 102.464C141.187 100.892 141.006 95.1257 143.998 90.5768C149.685 81.9347 163.634 82.579 164.746 82.6497C173.66 83.1289 184.265 88.1413 185.487 94.505Z" fill="#F7D3BE" stroke="black" stroke-miterlimit="10"/>
<path d="M181.343 95.8092C180.121 96.8793 179.171 98.2258 178.57 99.7374C178.421 100.059 178.014 101.717 177.192 105.017C177.051 105.583 176.918 106.14 177.192 106.345C177.67 106.69 179.048 105.693 179.957 105.017C182.197 103.367 183.317 102.542 184.108 101.089C185.463 98.5196 185.337 94.9842 184.108 94.4814C183.325 94.1672 182.181 95.1099 181.343 95.8092Z" fill="white" stroke="black" stroke-linecap="round" stroke-linejoin="round"/>
<path d="M179.957 120.918C179.473 121.611 178.857 122.201 178.144 122.655C177.432 123.108 176.637 123.415 175.805 123.558C175.348 123.617 174.885 123.617 174.427 123.558" stroke="black" stroke-width="1.72" stroke-miterlimit="10" stroke-linecap="round"/>
<path d="M179.957 119.591C179.5 119.491 179.027 119.491 178.57 119.591C177.834 119.834 177.944 120.588 177.192 120.918C176.706 121.123 176.503 120.871 175.806 120.918C174.552 120.989 174.325 121.838 173.041 122.238C171.576 122.686 170.339 122.05 170.276 122.238C170.213 122.427 171.059 122.749 173.041 123.558C176.283 124.886 176.628 124.988 177.192 124.878C177.843 124.72 178.441 124.392 178.926 123.929C179.412 123.466 179.767 122.883 179.957 122.238C180.112 121.363 180.112 120.466 179.957 119.591Z" fill="#9E005D" stroke="black" stroke-width="1.72" stroke-miterlimit="10" stroke-linecap="round"/>
<path d="M175.563 113.934C175.956 114.153 176.29 114.466 176.534 114.845C176.584 114.944 176.616 115.05 176.628 115.16C176.633 115.238 176.633 115.317 176.628 115.395C176.642 115.521 176.642 115.647 176.628 115.772C176.636 115.914 176.636 116.055 176.628 116.197C176.573 116.663 176.44 117.117 176.236 117.54L176.283 117.65C176.762 117.476 177.172 117.151 177.45 116.723C177.724 116.282 177.845 115.763 177.795 115.246C177.762 114.984 177.668 114.733 177.519 114.514C177.371 114.296 177.173 114.116 176.941 113.989C176.485 113.755 175.96 113.691 175.461 113.808L175.563 113.934Z" fill="black"/>
<path d="M180.341 98.0875C181.186 98.0168 181.907 99.0224 182.213 99.4388C182.515 99.8506 182.73 100.321 182.843 100.819C182.956 101.318 182.966 101.835 182.87 102.338C182.706 102.566 182.455 102.896 182.134 103.265C180.568 105.025 178.218 106.8 177.529 106.29C177.294 106.109 177.333 105.677 177.529 104.718C178.202 101.45 178.876 98.2054 180.341 98.0875Z" fill="black"/>
<path d="M164.746 110.344C165.005 109.707 163.039 108.411 161.981 107.704C160.334 106.453 158.45 105.552 156.444 105.056C151.784 104.121 146.763 106.384 146.763 106.384C146.763 106.384 149.254 109.322 152.301 110.312C154.204 110.956 154.384 110.187 159.209 110.312C162.773 110.438 164.511 110.901 164.746 110.344Z" fill="white" stroke="black" stroke-linecap="round" stroke-linejoin="round"/>
<path d="M155.27 110.63C153.086 110.477 151.405 109.082 151.515 107.515C151.625 105.948 153.484 104.802 155.667 104.956C157.851 105.11 159.532 106.505 159.422 108.072C159.312 109.639 157.453 110.784 155.27 110.63Z" fill="black"/>
<path d="M163.383 101.065C162.721 100.468 162 99.9415 161.229 99.4939C160.446 99.0595 159.626 98.6967 158.778 98.4097C157.921 98.1264 157.036 97.9393 156.138 97.8519C155.239 97.7486 154.332 97.7275 153.428 97.789C151.631 97.96 149.878 98.4495 148.251 99.2346C146.64 100 145.188 101.067 143.975 102.377V102.424C143.975 102.424 143.975 102.424 144.022 102.424C145.358 101.308 146.852 100.398 148.455 99.7217C150.049 99.0228 151.749 98.5979 153.483 98.4647C155.214 98.3171 156.958 98.4713 158.637 98.9204C160.315 99.3803 161.904 100.121 163.336 101.112C163.336 101.112 163.336 101.112 163.383 101.112V101.073V101.065Z" fill="black"/>
<path d="M143.458 113.753C143.106 113.934 142.549 113.282 140.325 111.396C138.688 110.006 137.858 109.307 137.192 109.039C135.978 108.544 135.336 108.717 134.474 108.018C133.88 107.516 133.442 106.853 133.213 106.109C132.093 103.021 128.083 97.4669 127.01 94.8978C124.402 88.6127 129.054 75.1153 138.759 68.186C152.857 58.1297 174.137 64.2185 181.837 75.2568C188.612 84.9673 185.628 99.6117 185.753 99.6117C185.574 97.3997 185.204 95.2075 184.648 93.0594C184.124 90.9225 183.818 90.3018 183.231 90.0347C181.845 89.3905 179.534 91.0482 178.21 92.7216C176.056 95.4635 176.252 98.8418 175.571 98.8261C175.226 98.8261 175.046 97.9697 174.788 97.2548C173.816 94.5365 172.172 94.7329 168.24 90.6318C166.566 88.9002 165.104 86.9749 163.885 84.8966C162.386 87.4331 161.811 90.4122 162.256 93.3266C163.102 97.3648 167.276 99.1325 166.955 99.6117C166.517 100.272 158.559 97.2155 149.591 92.8002C147.805 91.9281 145.792 90.9068 144.241 91.7553C142.275 92.8316 142.213 96.2884 142.166 99.2975C142.14 103.164 142.523 107.022 143.309 110.807C143.544 111.86 143.944 113.494 143.458 113.753Z" fill="#FFFF99" stroke="black" stroke-width="1.01" stroke-linecap="round" stroke-linejoin="round"/>
<path d="M135.931 80.6855C135.721 82.2763 135.901 83.8944 136.456 85.3994C136.727 86.1669 137.081 86.902 137.513 87.5914C137.971 88.2761 138.495 88.9131 139.08 89.4926C140.246 90.642 141.661 91.5051 143.215 92.0145C144.726 92.5334 146.343 92.6578 147.914 92.3759C147.919 92.3674 147.921 92.358 147.921 92.3484C147.921 92.3389 147.919 92.3295 147.914 92.3209C147.907 92.3168 147.899 92.3146 147.891 92.3146C147.883 92.3146 147.875 92.3168 147.868 92.3209C144.802 92.2454 141.879 91.0041 139.69 88.8484C138.6 87.787 137.722 86.5255 137.106 85.1323C136.483 83.7418 136.107 82.2529 135.994 80.7327C135.992 80.7195 135.985 80.7075 135.975 80.6988C135.965 80.6901 135.952 80.6854 135.939 80.6855V80.7248L135.931 80.6855Z" fill="black"/>
<path d="M178.884 72.7348C179.633 73.2176 180.331 73.7756 180.967 74.4004C181.599 74.9828 182.145 75.652 182.589 76.3881C183.457 77.8294 183.917 79.4808 183.92 81.1648C183.953 82.0125 183.871 82.8608 183.677 83.6867C183.51 84.5261 183.26 85.3471 182.933 86.1379C182.609 86.95 182.202 87.7266 181.719 88.4555C181.247 89.2161 180.724 89.9433 180.153 90.6318V90.6868C180.153 90.6868 180.192 90.6868 180.208 90.6868C181.57 89.4872 182.683 88.0294 183.482 86.3972C183.891 85.5865 184.201 84.7292 184.406 83.8438C184.627 82.9631 184.732 82.0572 184.719 81.1491C184.709 79.3162 184.144 77.5296 183.098 76.0267C182.024 74.5528 180.581 73.39 178.915 72.6562C178.915 72.6562 178.915 72.6562 178.86 72.6562V72.7034L178.884 72.7348Z" fill="black"/>
<path d="M135.798 91.4961C134.914 94.1787 134.678 97.0336 135.11 99.8255C135.542 102.617 136.628 105.267 138.281 107.555" fill="#FFFF99"/>
<path d="M167.856 73.3319C168.64 74.1952 169.377 75.1 170.064 76.0424C170.762 76.957 171.398 77.9176 171.968 78.9178C172.524 79.9235 173.088 80.9134 173.534 81.9661C174.859 85.1233 175.653 88.479 175.884 91.8967C175.966 93.0422 175.966 94.1922 175.884 95.3378C175.816 96.5045 175.683 97.6665 175.484 98.8182V98.8653C175.491 98.8704 175.5 98.8732 175.508 98.8732C175.516 98.8732 175.525 98.8704 175.531 98.8653C176.197 96.6096 176.511 94.2643 176.464 91.9124C176.418 89.5609 176.052 87.2268 175.375 84.9751C174.69 82.7254 173.693 80.5833 172.414 78.6114C171.133 76.644 169.592 74.86 167.832 73.3083L167.777 73.3633L167.856 73.3319Z" fill="black"/>
<path d="M144.17 74.0784C143.935 78.4548 145.094 82.7927 147.479 86.4648C149.865 90.1369 153.352 92.9527 157.438 94.5051" fill="#FFFF99"/>
<path d="M164.997 107.806C163.898 106.469 162.525 105.383 160.971 104.624C160.195 104.233 159.388 103.907 158.559 103.65C157.72 103.414 156.867 103.233 156.005 103.108C155.139 103.015 154.268 102.981 153.397 103.006C152.53 103.048 151.667 103.166 150.82 103.359C149.122 103.704 147.519 104.415 146.121 105.441C146.109 105.454 146.103 105.471 146.103 105.488C146.103 105.506 146.109 105.523 146.121 105.536C146.133 105.542 146.146 105.546 146.16 105.546C146.174 105.546 146.187 105.542 146.199 105.536C149.282 104.395 152.593 104.013 155.853 104.423C159.114 104.833 162.228 106.023 164.934 107.892C164.94 107.899 164.947 107.905 164.956 107.908C164.964 107.912 164.972 107.914 164.981 107.914C164.99 107.914 164.999 107.912 165.007 107.908C165.015 107.905 165.022 107.899 165.028 107.892C165.037 107.881 165.042 107.867 165.042 107.853C165.042 107.839 165.037 107.825 165.028 107.814L164.997 107.806Z" fill="black"/>
<path d="M183.388 93.2952C182.119 93.6388 180.944 94.2645 179.949 95.1257C178.93 95.9961 178.099 97.0653 177.505 98.2683C176.941 99.4554 176.548 100.717 176.338 102.016C176.233 102.658 176.17 103.306 176.15 103.956C176.146 104.607 176.201 105.256 176.315 105.897H176.393C176.433 104.637 176.612 103.386 176.926 102.165C177.231 100.941 177.659 99.7516 178.203 98.614C179.332 96.3445 181.162 94.5012 183.419 93.358L183.388 93.2952Z" fill="black"/>
<path d="M180.356 100.735C179.971 100.735 179.659 100.486 179.659 100.177C179.659 99.8694 179.971 99.6196 180.356 99.6196C180.741 99.6196 181.053 99.8694 181.053 100.177C181.053 100.486 180.741 100.735 180.356 100.735Z" fill="white"/>
<path d="M180.215 101.576C179.908 101.576 179.659 101.326 179.659 101.018C179.659 100.71 179.908 100.46 180.215 100.46C180.523 100.46 180.771 100.71 180.771 101.018C180.771 101.326 180.523 101.576 180.215 101.576Z" fill="white"/>
<path d="M154.29 107.476C153.749 107.476 153.311 107.124 153.311 106.69C153.311 106.257 153.749 105.905 154.29 105.905C154.831 105.905 155.269 106.257 155.269 106.69C155.269 107.124 154.831 107.476 154.29 107.476Z" fill="white"/>
<path d="M154.486 108.655C154.053 108.655 153.703 108.303 153.703 107.869C153.703 107.435 154.053 107.083 154.486 107.083C154.918 107.083 155.269 107.435 155.269 107.869C155.269 108.303 154.918 108.655 154.486 108.655Z" fill="white"/>
<path d="M132.469 109.071C133.288 110.001 134.226 110.82 135.257 111.506C136.282 112.194 137.371 112.781 138.508 113.258C139.557 113.628 140.533 114.181 141.39 114.892C142.23 115.693 142.918 116.641 143.419 117.689H143.497C143.246 116.489 142.69 115.374 141.884 114.452C141.033 113.575 139.993 112.903 138.845 112.488C136.618 111.564 134.496 110.402 132.516 109.024L132.469 109.071Z" fill="black"/>
<path d="M138.751 114.578C139.081 114.72 139.379 114.93 139.624 115.194C139.869 115.458 140.058 115.77 140.176 116.11C140.249 116.46 140.293 116.814 140.309 117.171C140.345 117.694 140.524 118.197 140.826 118.624C141.444 119.36 142.301 119.852 143.246 120.015C144.085 120.204 144.953 120.226 145.8 120.078V119.999C145.001 119.882 144.215 119.693 143.45 119.433C142.673 119.214 141.978 118.769 141.453 118.153C140.928 117.524 141.1 116.582 140.74 115.851C140.548 115.48 140.267 115.162 139.923 114.926C139.578 114.69 139.181 114.544 138.766 114.5L138.751 114.578Z" fill="black"/>
</g>
<defs>
<linearGradient id="paint0_linear_455:464" x1="231.931" y1="114.084" x2="243.274" y2="196.72" gradientUnits="userSpaceOnUse">
<stop stop-color="#CCE0F4"/>
<stop offset="0.06" stop-color="#C3DCF2"/>
<stop offset="0.17" stop-color="#A9D2EE"/>
<stop offset="0.31" stop-color="#80C2E7"/>
<stop offset="0.46" stop-color="#47ACDE"/>
<stop offset="0.57" stop-color="#1E9CD7"/>
<stop offset="0.87" stop-color="#0075BE"/>
<stop offset="0.99" stop-color="#005B97"/>
</linearGradient>
<clipPath id="clip0_455:464">
<rect width="277" height="380" fill="white" transform="matrix(-1 0 0 1 277 0)"/>
</clipPath>
</defs>
</svg>
