<svg id="fairy4" xmlns="http://www.w3.org/2000/svg" viewBox="0 0 206.97 403.61"><defs><style>.cls-1,.cls-11,.cls-8,.cls-9{fill:#fff;}.cls-1{stroke:#fff;stroke-width:1.03px;opacity:0.4;}.cls-1,.cls-10,.cls-13,.cls-14,.cls-3,.cls-4,.cls-7{stroke-linecap:round;stroke-linejoin:round;}.cls-12,.cls-2,.cls-5{fill:#f7d3be;}.cls-10,.cls-13,.cls-14,.cls-16,.cls-2,.cls-3,.cls-4,.cls-5,.cls-6,.cls-7,.cls-8,.cls-9{stroke:#000;}.cls-16,.cls-2,.cls-5,.cls-6,.cls-8,.cls-9{stroke-miterlimit:10;}.cls-10,.cls-13,.cls-2,.cls-6,.cls-7{stroke-width:0.75px;}.cls-3{fill:#ffc;stroke-width:0.89px;}.cls-4{fill:#99f;}.cls-14,.cls-4{stroke-width:0.77px;}.cls-5{stroke-width:0.73px;}.cls-15,.cls-6,.cls-7{fill:#ff9;}.cls-8{stroke-width:0.77px;}.cls-9{stroke-width:0.6px;}.cls-13,.cls-14{fill:none;}.cls-16{fill:#9e005d;stroke-width:0.44px;}</style></defs><path class="cls-1" d="M2325.83,26s3.25,29.67,5.23,43.32c8,55.11,29.15,82.63,19.42,90.39-4.8,3.83-15.93,1.89-21.66-3a19.81,19.81,0,0,1-5.23-7.47,18.34,18.34,0,0,1-.75-9c1.37-9.49-2.35-19.09-1.49-54.53.75-31,4.48-59.72,4.48-59.76Z" transform="translate(-2294.35 -25.46)"/><path class="cls-1" d="M2500.62,29.71c-3.12-3.13-44.55,33.82-69.47,56-75.82,67.6-49.87,56.41-67.22,68-2.72,1.81-9.2,6-9,11.21.4,8.71,19.39,18.25,35.86,15.68,11.71-1.82,19.49-9.35,29.13-18.67a123.78,123.78,0,0,0,18.67-23.16c30.84-48,31.53-62.2,55.28-97.1C2498.14,35.43,2501.63,30.73,2500.62,29.71Z" transform="translate(-2294.35 -25.46)"/><path class="cls-1" d="M2399,184.34c3.87,1.85,17.31,8.52,21.67,22.41,1,3.31,2.88,9.19,0,13.44-5.41,8-23.19,4-27.64,3-6-1.34-11-3.63-20.92-8.22-5.25-2.42-7.92-3.66-9.71-5.23-6.82-6-11.26-17.78-7.47-24.65C2360.71,174.68,2384.4,177.33,2399,184.34Z" transform="translate(-2294.35 -25.46)"/><path class="cls-2" d="M2319.85,270.24c.48,5.79.71,8.68.75,9,1.28,9.35,4.76,12.92,9,24.65.7,2,1.72,5.57,3.73,12.7,6.72,23.84,10.09,35.79,10.46,37.35,0,0,5.22,22.28,5.23,35.11v7.47a2,2,0,0,0,0,1.49s.58,1.06,7.47.75a27.16,27.16,0,0,0,2.24-12c-.21-4.73-1.67-6-3-11.21-1.88-7.44-.21-9.79-.75-21.66-.2-4.45-.63-7.7-1.49-14.19-6.13-46.29-11.17-84.29-23.16-85.9-3.69-.5-8.79,2.36-10.46,6C2319.16,261.29,2319.23,262.58,2319.85,270.24Z" transform="translate(-2294.35 -25.46)"/><path class="cls-2" d="M2363.18,257.54c1.94,3-.2,8-4.48,17.93-4.19,9.73-6.27,10.57-6.73,15.68-.49,5.57,2,6.67,4.49,16.44a82.91,82.91,0,0,1,2.24,18.67c0,8.74-2,15-4.48,23.16-3,9.62-8.61,24-9.72,30.62a65.11,65.11,0,0,0-.74,7.47,11.79,11.79,0,0,0,0,3.74,8.75,8.75,0,0,0,1.49,3c1.38,2.13.6,4.27-1.49,14.19-.89,4.19-1.12,5.56-2.24,6-2.1.77-6-2.25-6-2.25h0s-.23-7.26,0-14.19c.12-3.71.27-3.92.75-11.2,0,0,.38-5.77.75-13.45,1-21.8-.66-49-2.25-60.5-.32-2.37-.74-5.23-.74-5.23-1.13-7.66-2.06-13.06-2.24-14.19-1.64-10-3.93-24,3-32.12C2342.33,252.43,2359.61,252,2363.18,257.54Z" transform="translate(-2294.35 -25.46)"/><path class="cls-3" d="M2306.91,235.46a44.43,44.43,0,0,1,11-12.36c.16-.12.8-.59,1.82-1.24a1,1,0,0,1-.24-.3c-.51-1,1.11-2.6,1.82-3.61,2.81-4,.23-11.32,0-11.95-.7-1.92-2-4.27-1-5.29a1.33,1.33,0,0,1,.43-.3c1-.54,2.88-.44,9,1.07,10.08,2.48,22.86,5.73,24.45,11.58a4.14,4.14,0,0,1,.13,1.79c.74.15,1.49.33,2.24.53,10.34,2.8,16.8,8.92,22.87,14.67s10.94,12.46,10.25,13.13-5.25-3.94-6.31-3.09c-1.88,1.52,9.45,18.5,9.47,18.53-10.91-12.46-14.13-14.47-15-13.9-1.13.77,2.51,5.56,4,15.45a107.37,107.37,0,0,1,.78,15.44c-8.13-5.82-8.67-6.17-8.67-6.17-6.26-4.06-12.46-8.07-17.35-6.18-1,.4-2.55,2.33-5.52,6.18,0,0-4.39,5.67-9.47,13.12-2.8-3.54-4.92-6.5-6.31-8.49,0,0-7.78-11.17-10.25-10.81a3.61,3.61,0,0,0-1.58.77c-6.33,4.35-7.89,14.67-7.89,14.67a30.76,30.76,0,0,1-3.94-6.95c-1.14-3-.91-4.52-1.58-4.63-1.54-.25-3.5,7.91-4.73,7.72-1.85-.27.36-19-1.58-19.3-1.46-.26-3.92,10.21-4.73,10C2298.06,265.37,2297.8,249.81,2306.91,235.46Z" transform="translate(-2294.35 -25.46)"/><path class="cls-4" d="M2307.9,231.4a42.78,42.78,0,0,1,10.46-12c.16-.11.76-.56,1.73-1.2a1.37,1.37,0,0,1-.24-.29,2.82,2.82,0,0,1,0-2.24c2.09-6.63-2.47-15.08.75-17.93.91-.8,2.2-.95,9,.75,9.54,2.4,21.65,5.54,23.15,11.2a4.07,4.07,0,0,1,.12,1.73c.71.15,1.41.32,2.12.52,9.8,2.7,15.91,8.62,21.66,14.19s10.37,12.05,9.72,12.7-5-3.82-6-3c-1.78,1.47,8.94,17.89,9,17.93-10.33-12.06-13.37-14-14.19-13.45-1.07.74,2.37,5.38,3.74,14.94a105.63,105.63,0,0,1,.74,14.94c-7.7-5.64-8.21-6-8.21-6-5.93-3.92-11.8-7.8-16.44-6-1,.39-2.41,2.25-5.23,6,0,0-4.15,5.49-9,12.7-2.66-3.43-4.67-6.29-6-8.21,0,0-7.36-10.81-9.71-10.46a3.52,3.52,0,0,0-1.49.74c-6,4.21-7.47,14.2-7.47,14.2a29.79,29.79,0,0,1-3.73-6.73c-1.08-2.87-.87-4.37-1.5-4.48-1.46-.24-3.31,7.65-4.48,7.47-1.75-.27.34-18.34-1.49-18.67-1.39-.25-3.72,9.88-4.49,9.71S2299.27,245.27,2307.9,231.4Z" transform="translate(-2294.35 -25.46)"/><path class="cls-2" d="M2356.46,144.75c1.09-.57,1.95-1,2.24-.75.6.59-2.32,3.24-3,7.47-.21,1.33-.62,4.07.75,6,2.45,3.41,7.85,0,11.95,3,4.4,3.26,4.21,11.71,3,16.44-.58,2.2-1.05,2.37-3,8.21-1,3-1.64,5-2.24,7.47-1.72,7.23-.57,8.54-2.24,11.21-2.63,4.18-8.08,5.08-9,5.23-4.65.77-8.44-1-15.68-4.48-7.05-3.4-6.84-4.53-10.46-5.23s-3.74.41-14.19,1.49a66.33,66.33,0,0,1-12.7,0c-4.48-.42-6-1-6.73-2.24-.95-1.55-.38-3.54.75-7.47a30.82,30.82,0,0,1,2.24-6c2.59-5,4.94-5.54,9-10.45.74-.91,3-4.59,7.47-12,2.93-4.81,4-6.76,6.72-8.21a12.76,12.76,0,0,1,7.47-1.5c5.09.62,7.33,4.89,9.71,3.74,1.35-.66,2.15-2.75,2.24-3,.55-1.46.19-2.14.75-3,.76-1.17,2.23-.79,4.48-1.49A76.71,76.71,0,0,0,2356.46,144.75Z" transform="translate(-2294.35 -25.46)"/><path class="cls-5" d="M2365.89,138c-1.09,1.44-4.31,4.2-10.74,9.72a15.45,15.45,0,0,1-6.44,3.73,13.17,13.17,0,0,1-6.45,0c-3.32-.85-5.33-2.8-8.59-6-2.4-2.34-3.61-3.51-4.29-5.22-.61-1.53-.51-2.36-1.43-7.47-.36-2-.61-3.15-.72-3.74-1.78-9.35-4.17-21.89.72-29.13,5.32-7.88,19.59-10,29.35-4.48C2372.48,104,2372.92,128.71,2365.89,138Z" transform="translate(-2294.35 -25.46)"/><ellipse class="cls-6" cx="2360.97" cy="88.15" rx="11.25" ry="14.52" transform="translate(-894.81 2220.83) rotate(-68.13)"/><path d="M2333.29,117.05a3.58,3.58,0,0,1-.23,3,2.76,2.76,0,0,1-1.31,1.06,4.62,4.62,0,0,1-1.59.27,6.13,6.13,0,0,1-2.93-.85,9.62,9.62,0,0,1-1.22-.87,7.79,7.79,0,0,1-1-1.09h0a.06.06,0,0,1,0,0h0a8.16,8.16,0,0,0,5.1,2.25,3,3,0,0,0,2.51-1,4,4,0,0,0,.56-2.72s0,0,0,0,0,0,0,0Z" transform="translate(-2294.35 -25.46)"/><path class="cls-7" d="M2367.66,135.78c.59.37,3-1.76,4.48-4.48,1.1-2,.77-2.6,2.24-6.72.7-2,1.27-3.18,1.5-3.74,1.57-3.79,2-11.38,0-17.18-5-14.57-25.16-17.46-28.39-17.92-3.52-.51-9.31-1.26-15.68,1.49a22.18,22.18,0,0,0-9,6.72c-4.86,6.25-4.6,13.28-4.48,15.69.44,8.45,5,15.22,6,14.94.33-.1.47-2.06.74-6,.14-1.95.21-2.59.75-3,1.21-.89,3.8.32,5.23,1.49a25.52,25.52,0,0,1,2.24,2.24,22.74,22.74,0,0,0,6.72-6,28.08,28.08,0,0,0,3-6s3.16,3.49,3,7.47c-.05,1.11-.21,1.25,0,1.49.79.91,3.76-.94,11.95-4.48l5.23-2.24s1.87,4,3,6.72c1.89,4.66,2.92,7.19,3,10.46C2369.27,132.05,2366.87,135.3,2367.66,135.78Z" transform="translate(-2294.35 -25.46)"/><path class="cls-8" d="M2360.94,123.83c-.34-1.41-3.54-2.22-6-1.49a7.4,7.4,0,0,0-4.48,5.23,1,1,0,0,0,0,.74c.5,1,3.35.64,5.23,0C2358.1,127.5,2361.32,125.4,2360.94,123.83Z" transform="translate(-2294.35 -25.46)"/><path class="cls-9" d="M2327.58,126.21c.21-1,2.89-1.81,5-1.47a5.88,5.88,0,0,1,4.13,3.36.62.62,0,0,1,0,.53c-.36.73-2.82.68-4.46.37C2330.22,128.59,2327.35,127.35,2327.58,126.21Z" transform="translate(-2294.35 -25.46)"/><path class="cls-4" d="M2354.22,176.87a11.68,11.68,0,0,0-4.49-4.48,12.06,12.06,0,0,0-6-2.25s-3-.16-8.22,2.25h0a17.82,17.82,0,0,0-2.24-4.49c-2.19-2.73-7-3.78-10.46-2.24a9.75,9.75,0,0,0-2.24,1.5,14.18,14.18,0,0,0-4.48,6,19,19,0,0,0-.75,8.22c-3.48-1.27,7,2.53,10.46,3.73,8.77,3,8.17,2.27,14.19,4.49s12.7,5.22,12.7,5.22a45.39,45.39,0,0,0,2.24-9.71C2355.28,182,2355.53,179.47,2354.22,176.87Z" transform="translate(-2294.35 -25.46)"/><path class="cls-4" d="M2357.2,376.31c1.52-.8,4.1,0,5.23,1.49.22.3.43.68.75,4.49.3,3.65.21,4.45,0,5.22a11.45,11.45,0,0,1-1.49,3c-1.33,2.41-1.4,4.87-1.5,9.71-.11,5.66.59,5.48,0,7.47-1,3.46-4,7.06-6.72,6.73a4.68,4.68,0,0,1-3-2.25c-3.37-5.34,4.17-11.1,5.23-23.9C2356.23,381.91,2354.86,377.54,2357.2,376.31Z" transform="translate(-2294.35 -25.46)"/><ellipse class="cls-3" cx="58.37" cy="379.23" rx="4.48" ry="5.98"/><path class="cls-4" d="M2346.75,392a4,4,0,0,1,3.73.74c1.62,1.73.1,5.74,0,6a8.67,8.67,0,0,1-.75,1.49c-2.08,3.37-1.21,8.9-2.24,14.94-.25,1.46-1.48,8.05-6,12-.53.46-2.26,2-3,1.5s-.16-2.38,0-3C2341.18,415.31,2339.55,393.9,2346.75,392Z" transform="translate(-2294.35 -25.46)"/><circle class="cls-3" cx="42.69" cy="393.42" r="5.98"/><path d="M2349,115.56a17,17,0,0,0,1.59,1.07,8.11,8.11,0,0,0,1.64.82,6,6,0,0,0,3.42.38c1.19-.14,2.47-.52,3.71-.75.62-.12,1.25-.26,1.87-.41s1.26-.27,1.91-.37h0a.05.05,0,0,1,0,0s0,0,0,0a35.85,35.85,0,0,1-3.65,1.28c-1.24.35-2.47.72-3.75.95a6.32,6.32,0,0,1-3.8-.6,9.9,9.9,0,0,1-3-2.39s0,0,0,0a0,0,0,0,1,.05,0Z" transform="translate(-2294.35 -25.46)"/><path d="M2361.66,122.37a12.43,12.43,0,0,0-2-.68,8.52,8.52,0,0,0-2-.32,7.85,7.85,0,0,0-3.81.66,9.09,9.09,0,0,0-3.23,2.21,13.85,13.85,0,0,0-2.39,3.34h0a0,0,0,0,1-.05,0l0,0a10.72,10.72,0,0,1,2-3.7,9.16,9.16,0,0,1,3.38-2.52,8,8,0,0,1,4.17-.55,9.33,9.33,0,0,1,3.93,1.52,0,0,0,0,1,0,.06Z" transform="translate(-2294.35 -25.46)"/><path d="M2326.55,124.56a5.54,5.54,0,0,1,1.23-1.55,6.28,6.28,0,0,1,1.76-1,6.2,6.2,0,0,1,4.1,0,6.75,6.75,0,0,1,3.23,2.51,6.85,6.85,0,0,1,.82,1.86,5.9,5.9,0,0,1,.13,2h0s0,0,0,0,0,0,0,0a6.74,6.74,0,0,0-1.33-3.48,6.55,6.55,0,0,0-3-2.16,6,6,0,0,0-3.69-.14,6.32,6.32,0,0,0-3.09,2.06,0,0,0,0,1-.06,0,0,0,0,0,1,0,0Z" transform="translate(-2294.35 -25.46)"/><path d="M2345.27,134.26a1.28,1.28,0,0,1,1.1.59,1.68,1.68,0,0,1-.62,2.43,1.3,1.3,0,0,1-1.24,0h0s0,0,0,0l0,0a1.69,1.69,0,0,0,1.38-1.22,1.58,1.58,0,0,0-.65-1.7,0,0,0,0,1,0,0h.05Z" transform="translate(-2294.35 -25.46)"/><path d="M2340.06,133.55a10.53,10.53,0,0,1,.62,1.81,5.72,5.72,0,0,0,.2.62c0,.16.22.38.63.52h0s0,0,0,.05l0,0a1.07,1.07,0,0,1-1-.12,1.68,1.68,0,0,1-.55-.88,4.22,4.22,0,0,1,0-2s0,0,0,0l0,0Z" transform="translate(-2294.35 -25.46)"/><ellipse class="cls-10" cx="60.61" cy="100.24" rx="2.24" ry="1.87"/><ellipse class="cls-10" cx="38.21" cy="101.73" rx="2.24" ry="1.87"/><circle class="cls-11" cx="61.73" cy="99.49" r="0.37"/><circle class="cls-11" cx="61.36" cy="99.86" r="0.37"/><circle class="cls-11" cx="39.4" cy="101.06" r="0.37"/><circle class="cls-11" cx="39.03" cy="101.43" r="0.37"/><path class="cls-2" d="M2368.41,127.57a10.37,10.37,0,0,1,3-4.48h0s.54,1.5.74,2.24a7.84,7.84,0,0,1,0,3.73c-.72,3.85-3.91,7.05-4.48,6.72-.34-.19.57-1.5.75-4.48C2368.55,129,2368.06,128.9,2368.41,127.57Z" transform="translate(-2294.35 -25.46)"/><path class="cls-12" d="M2370.65,126.07a3.83,3.83,0,0,1,.75,2.24,4,4,0,0,1-1.5,3" transform="translate(-2294.35 -25.46)"/><path d="M2370.68,126.05a2.41,2.41,0,0,1,1.11,1.2,3,3,0,0,1,.23,1.69,2.87,2.87,0,0,1-2.09,2.39l0-.06a4,4,0,0,0,1.4-2.45,3.64,3.64,0,0,0-.66-2.72Z" transform="translate(-2294.35 -25.46)"/><path d="M2369.91,127.42a2.74,2.74,0,0,0-.1.57,1.11,1.11,0,0,0,0,.45,1.74,1.74,0,0,0,.16.45c.08.16.17.34.28.53v0a1.65,1.65,0,0,1-.75-.93,1.26,1.26,0,0,1,.37-1.12Z" transform="translate(-2294.35 -25.46)"/><path class="cls-2" d="M2362.43,185.83a23.77,23.77,0,0,0-4.48,0,28.64,28.64,0,0,0-5.3.39c-.72.15-1.26.31-1.42.36a14.16,14.16,0,0,0-6,3c-.4.37-1.49,1.49-1.49,1.49l2.24.75a48.35,48.35,0,0,1,6.72,3,3.51,3.51,0,0,1,2.24-1.49,13.93,13.93,0,0,1,4.48.75,1.3,1.3,0,0,0,.75,0c.36-.12.76-.47.75-.75,0-.93-4.13-1.45-4.48-1.49a19.3,19.3,0,0,0-5.23,0,37.65,37.65,0,0,0,6,0,8,8,0,0,1,2.24,0c1.61.28,2.65,1.1,3,.74s0-.69,0-.74c-.25-.67-1-1-3-1.5-.79-.21-1.8-.47-3-.74a17.67,17.67,0,0,0-4.49,0,23.83,23.83,0,0,1,6,0,13,13,0,0,1,3.74.74c1,.43,1.93,1.05,2.24.75s0-.72,0-.75a1.49,1.49,0,0,0-.75-.74,30.82,30.82,0,0,0-3-1.5,17.06,17.06,0,0,0-3.73-.74c-1.25-.1-5,0-3.74,0h9.71a2.43,2.43,0,0,0,1.5,0c.34-.15.78-.47.74-.75C2364.66,186.49,2364.56,186.09,2362.43,185.83Z" transform="translate(-2294.35 -25.46)"/><path class="cls-13" d="M2332.55,200.77a69.13,69.13,0,0,1-12.7-8.22c-3.56-2.93-5.63-5.28-9-5.22-1.58,0-3,.58-6.72.74-1.58.07-2.88,0-3.74,0" transform="translate(-2294.35 -25.46)"/><path class="cls-13" d="M2315.37,181.35a8.43,8.43,0,0,0-5.23-1.49,7.88,7.88,0,0,0-5.22,2.24,8.1,8.1,0,0,0-2.25,6" transform="translate(-2294.35 -25.46)"/><path class="cls-14" d="M2356.46,172.39c0,.69.05,1.73,0,3a51.5,51.5,0,0,1-.75,6c-.19,1.18-.44,2.7-.75,4.48" transform="translate(-2294.35 -25.46)"/><path class="cls-14" d="M2323.59,162.67c-.45.73-1,1.48-1.49,2.25a42.69,42.69,0,0,1-3,3.73" transform="translate(-2294.35 -25.46)"/><path class="cls-7" d="M2312.39,105.9" transform="translate(-2294.35 -25.46)"/><path class="cls-7" d="M2297.45,67.81" transform="translate(-2294.35 -25.46)"/><path d="M2371.44,82a6.85,6.85,0,0,1,1.3,3,7.64,7.64,0,0,1-1.65,6.34,6.39,6.39,0,0,1-2.66,1.92h0s0,0-.05,0a0,0,0,0,1,0,0,9.18,9.18,0,0,0,3.39-5.06,9.93,9.93,0,0,0-.42-6.09.07.07,0,0,1,0-.06,0,0,0,0,1,0,0Z" transform="translate(-2294.35 -25.46)"/><path d="M2366.16,78.31a7.62,7.62,0,0,0-2,.14,6.39,6.39,0,0,0-1.83.57,6.54,6.54,0,0,0-3.78,5.87,6.26,6.26,0,0,0,.24,1.91,7.66,7.66,0,0,0,.73,1.9h0s0,0,0,.05,0,0-.05,0a6.7,6.7,0,0,1-1.59-3.81,6.34,6.34,0,0,1,4.23-6.57,6.78,6.78,0,0,1,4.13-.15,0,0,0,0,1,0,.06s0,0,0,0Z" transform="translate(-2294.35 -25.46)"/><path d="M2360.93,76.81a17.62,17.62,0,0,0-2,.29,8.92,8.92,0,0,0-1.85.53,8.25,8.25,0,0,0-3.13,1.93,6.24,6.24,0,0,0-1.85,3.07,7.13,7.13,0,0,0-.24,1.86,10.27,10.27,0,0,0,.12,2h0s0,0,0,0,0,0,0,0a7.83,7.83,0,0,1-.4-4,6.56,6.56,0,0,1,1.9-3.52,8.37,8.37,0,0,1,3.5-2,10.21,10.21,0,0,1,4-.32.07.07,0,0,1,0,0s0,0,0,0Z" transform="translate(-2294.35 -25.46)"/><path d="M2366.2,78.24a6.66,6.66,0,0,1,2,3.26,7.15,7.15,0,0,1,0,4,6.84,6.84,0,0,1-2.2,3.32,6.36,6.36,0,0,1-3.53,1.47h0s-.05,0-.05,0,0,0,0,0a8.19,8.19,0,0,0,3.07-1.89,7,7,0,0,0,1.83-3.08,8.1,8.1,0,0,0-1.19-6.92,0,0,0,0,1,0-.06.06.06,0,0,1,.06,0Z" transform="translate(-2294.35 -25.46)"/><path d="M2368.45,98.43a8.77,8.77,0,0,1,.47,2.16,12,12,0,0,1-.09,2.24,9.87,9.87,0,0,1-1.7,4.21,10,10,0,0,1-3.41,3,12.11,12.11,0,0,1-2.08.85,9.55,9.55,0,0,1-2.19.3h0a0,0,0,0,1,0-.05,0,0,0,0,1,0,0,11.89,11.89,0,0,0,3.9-1.65,10.91,10.91,0,0,0,3.06-2.92,11.07,11.07,0,0,0,1.75-3.84,11.64,11.64,0,0,0,.21-4.24.07.07,0,0,1,0,0,.05.05,0,0,1,0,0Z" transform="translate(-2294.35 -25.46)"/><path d="M2349.75,91.75a15.3,15.3,0,0,0-2.17,1.52,12,12,0,0,0-1.83,1.8,10.7,10.7,0,0,0-2.29,4.45,12.5,12.5,0,0,0-.28,5,17.21,17.21,0,0,0,.52,2.55,17.73,17.73,0,0,0,.84,2.52h0a0,0,0,0,1,0,.05s0,0-.05,0a16,16,0,0,1-1.86-5,12.44,12.44,0,0,1,.12-5.33,10.87,10.87,0,0,1,2.59-4.65,12.49,12.49,0,0,1,4.4-3,0,0,0,0,1,.05,0s0,0,0,0Z" transform="translate(-2294.35 -25.46)"/><path d="M2326.6,99.21a12.48,12.48,0,0,0-1.63,1.88,8.44,8.44,0,0,0-1.15,2.1,7.72,7.72,0,0,0-.34,4.58,10.33,10.33,0,0,0,1.91,4.3,11.54,11.54,0,0,0,1.58,1.85,17.57,17.57,0,0,0,1.87,1.66h0s0,0,0,0a0,0,0,0,1,0,0,13.19,13.19,0,0,1-3.87-3.22,10.54,10.54,0,0,1-2.19-4.52,8.05,8.05,0,0,1,.55-5,9.62,9.62,0,0,1,3.27-3.8,0,0,0,0,1,.05,0s0,0,0,0Z" transform="translate(-2294.35 -25.46)"/><path class="cls-15" d="M2370.65,108.15a16,16,0,0,1,2.24,7.47,16.14,16.14,0,0,1-1.49,7.47" transform="translate(-2294.35 -25.46)"/><path d="M2370.68,108.13a10.32,10.32,0,0,1,1.18,1.6,16,16,0,0,1,.86,1.82,12.87,12.87,0,0,1,.4,8,15.61,15.61,0,0,1-.68,1.88,10.2,10.2,0,0,1-1,1.72h0s0,0-.06,0a.06.06,0,0,1,0,0,15.82,15.82,0,0,0,1.45-7.54,16.08,16.08,0,0,0-2.19-7.36s0,0,0-.06h0Z" transform="translate(-2294.35 -25.46)"/><path class="cls-15" d="M2357.2,94.7a19,19,0,0,1-8.21,20.92" transform="translate(-2294.35 -25.46)"/><path d="M2357.24,94.69a15.59,15.59,0,0,1,.84,2.93,19.65,19.65,0,0,1,.23,3.07,18.06,18.06,0,0,1-1.17,6.06,18.39,18.39,0,0,1-3.27,5.24,19.35,19.35,0,0,1-2.26,2.08,16.1,16.1,0,0,1-2.6,1.58h0a0,0,0,0,1-.05,0s0,0,0,0a19,19,0,0,0,7.47-9.11,18.41,18.41,0,0,0,1.29-5.82,19.19,19.19,0,0,0-.56-5.94,0,0,0,0,1,0,0,.05.05,0,0,1,0,0Z" transform="translate(-2294.35 -25.46)"/><path d="M2350.19,102.47c.17.62.3,1.25.41,1.89a17.89,17.89,0,0,1,.14,1.94,16.92,16.92,0,0,1-.41,3.87,14.59,14.59,0,0,1-1.43,3.64,9.89,9.89,0,0,1-2.51,2.94s0,0,0,0a0,0,0,0,1,0,0,13.43,13.43,0,0,0,3.56-6.65,19,19,0,0,0,.23-7.59s0,0,0,0A0,0,0,0,1,2350.19,102.47Z" transform="translate(-2294.35 -25.46)"/><path d="M2337.06,97.71c-.47.84-.95,1.65-1.35,2.52a23.61,23.61,0,0,0-1.14,2.57,25.06,25.06,0,0,0-1.47,5.36,25.76,25.76,0,0,0-.41,5.55,24.17,24.17,0,0,0,.22,2.81c.08.94.26,1.87.43,2.82h0a0,0,0,1,1-.08,0,23.51,23.51,0,0,1-.9-11.32A23.26,23.26,0,0,1,2337,97.67s0,0,0,0a0,0,0,0,1,0,0Z" transform="translate(-2294.35 -25.46)"/><path d="M2343.81,137.28c-.53-.19-.67-.43-.72-.67s.08-.51.54-.82l0,0a0,0,0,0,1,0,0h0l.12.74.05.75,0,0h-.05Z" transform="translate(-2294.35 -25.46)"/><path d="M2340.22,135.41a1,1,0,0,1,.36.08,1.08,1.08,0,0,1,.24.18,2.15,2.15,0,0,1,.14.26.87.87,0,0,1,0,.37h0a10.92,10.92,0,0,1-.77-.89v0h0Z" transform="translate(-2294.35 -25.46)"/><path class="cls-11" d="M2439.42,79c.17,3.83.23,7.66.14,11.5s-.43,7.66-.84,11.48a155.4,155.4,0,0,1-4.34,22.62,156.42,156.42,0,0,1-7.8,21.68c-1.59,3.5-3.28,7-5.12,10.31s-3.86,6.63-5.95,9.84a0,0,0,0,1-.07,0,.06.06,0,0,1,0-.07,167.65,167.65,0,0,0,18-42,165,165,0,0,0,4.53-22.45,168.23,168.23,0,0,0,1.4-22.88.05.05,0,1,1,.1,0Z" transform="translate(-2294.35 -25.46)"/><path class="cls-11" d="M2405.06,109.64c.46,3,.72,6,.94,9s.21,6,.17,9a126.58,126.58,0,0,1-1.69,18q-.8,4.47-1.89,8.86c-.73,2.93-1.5,5.85-2.48,8.71s-2,5.68-3.16,8.47-2.43,5.51-3.84,8.17a.07.07,0,0,1-.07,0,.05.05,0,0,1,0-.07A141.85,141.85,0,0,0,2405,109.64a.05.05,0,1,1,.1,0Z" transform="translate(-2294.35 -25.46)"/><path class="cls-11" d="M2399.06,184.31a28.53,28.53,0,0,1,3.22,4.34,32.45,32.45,0,0,1,2.33,4.91,29,29,0,0,1,1.21,16.15,26.94,26.94,0,0,1-1.6,5.22,31.47,31.47,0,0,1-2.53,4.81,28,28,0,0,1-3.37,4.21,0,0,0,0,1-.06,0,0,0,0,0,1,0,0,31.87,31.87,0,0,0,5.42-9.18,29.57,29.57,0,0,0,1.47-5.14,28.73,28.73,0,0,0,.55-5.31,31.52,31.52,0,0,0-6.7-19.91s0,0,0-.05Z" transform="translate(-2294.35 -25.46)"/><path class="cls-11" d="M2375.16,178.33a27.41,27.41,0,0,1,4,3.79,32.34,32.34,0,0,1,3.15,4.55,25.33,25.33,0,0,1,3.21,10.62,24.94,24.94,0,0,1-1.8,11,25.33,25.33,0,0,1-6.3,9s0,0-.05,0a0,0,0,0,1,0,0,27.51,27.51,0,0,0,5.81-9.15,24.84,24.84,0,0,0,1.6-10.69,25.7,25.7,0,0,0-.92-5.36,28.54,28.54,0,0,0-2-5,30.52,30.52,0,0,0-6.67-8.56,0,0,0,0,1,0,0A0,0,0,0,1,2375.16,178.33Z" transform="translate(-2294.35 -25.46)"/><path class="cls-16" d="M2347.91,145.05a2.38,2.38,0,0,1-1,.56c-1.3.36-2-.78-5.11-1.16-2.12-.25-2.93.14-3.57-.38l-.08-.08c.66-1,3.36-2.27,5.24-2.62.42,0,.8.07,1.16.08a7.8,7.8,0,0,1,2.24,1.75A5.72,5.72,0,0,1,2347.91,145.05Z" transform="translate(-2294.35 -25.46)"/></svg>