<svg id="fairy2" xmlns="http://www.w3.org/2000/svg" xmlns:xlink="http://www.w3.org/1999/xlink" viewBox="0 0 264.17 361.29"><defs><style>.cls-1,.cls-11,.cls-12,.cls-14,.cls-2,.cls-4,.cls-5{fill:#fff;}.cls-11,.cls-12,.cls-2,.cls-4,.cls-5{stroke:#fff;}.cls-10,.cls-11,.cls-14,.cls-15,.cls-16,.cls-17,.cls-2,.cls-7,.cls-8{stroke-linecap:round;}.cls-10,.cls-11,.cls-14,.cls-17,.cls-2,.cls-7,.cls-8{stroke-linejoin:round;}.cls-11,.cls-2{stroke-width:0.98px;}.cls-2,.cls-4,.cls-5{opacity:0.4;}.cls-3{fill:url(#天空);}.cls-12,.cls-13,.cls-15,.cls-16,.cls-4,.cls-5,.cls-6,.cls-9{stroke-miterlimit:10;}.cls-4,.cls-6{stroke-width:0.82px;}.cls-12,.cls-5{stroke-width:0.92px;}.cls-13,.cls-6{fill:#f7d3be;}.cls-10,.cls-13,.cls-14,.cls-15,.cls-16,.cls-17,.cls-6,.cls-7,.cls-8,.cls-9{stroke:#000;}.cls-7{fill:#99f;stroke-width:0.66px;}.cls-17,.cls-18,.cls-8,.cls-9{fill:#ff9;}.cls-8{stroke-width:0.84px;}.cls-9{stroke-width:1.04px;}.cls-10{fill:#ffc;stroke-width:0.76px;}.cls-13,.cls-14{stroke-width:0.75px;}.cls-15{fill:none;}.cls-15,.cls-16{stroke-width:1.29px;}.cls-16{fill:#9e005d;}.cls-17{stroke-width:0.76px;}</style><linearGradient id="天空" x1="1771.53" y1="59.87" x2="1850.98" y2="59.87" gradientTransform="matrix(0.74, -0.67, -0.67, -0.74, 339.76, 1467.84)" gradientUnits="userSpaceOnUse"><stop offset="0" stop-color="#cce0f4"/><stop offset="0.06" stop-color="#c3dcf2"/><stop offset="0.17" stop-color="#a9d2ee"/><stop offset="0.31" stop-color="#80c2e7"/><stop offset="0.46" stop-color="#47acde"/><stop offset="0.57" stop-color="#1e9cd7"/><stop offset="0.87" stop-color="#0075be"/><stop offset="0.99" stop-color="#005b97"/></linearGradient></defs><path class="cls-1" d="M1764.77,188.3a34.9,34.9,0,0,0-.1,6.54,27.76,27.76,0,0,0,1.15,6.35,26.72,26.72,0,0,0,6.33,11,28.06,28.06,0,0,0,4.83,4.2,38.86,38.86,0,0,0,5.62,3.11,40.39,40.39,0,0,0,12.62,3.07v.09a39,39,0,0,1-6.56-.65,36.61,36.61,0,0,1-6.32-1.85,30.72,30.72,0,0,1-10.86-7.34,26.07,26.07,0,0,1-3.88-5.33,26.46,26.46,0,0,1-2.47-6.1,30.13,30.13,0,0,1-.45-13.09Z" transform="translate(-1603.65 -56.83)"/><path class="cls-2" d="M1867.17,57.5c-3-3-42.33,32.12-66,53.22-72,64.22-47.38,53.59-63.86,64.58-2.59,1.72-8.74,5.68-8.52,10.64.38,8.28,18.42,17.34,34.06,14.9,11.13-1.73,18.53-8.89,27.68-17.74a117.61,117.61,0,0,0,17.74-22c29.29-45.62,30-59.09,52.51-92.25C1864.81,62.93,1868.12,58.46,1867.17,57.5Z" transform="translate(-1603.65 -56.83)"/><path class="cls-3" d="M1642.23,149.2h0a1.22,1.22,0,0,1,1.22,1.22V264.54a.8.8,0,0,1-.8.8h-1.54a.8.8,0,0,1-.8-.8V151.11a1.91,1.91,0,0,1,1.91-1.91Z" transform="translate(1428.42 -747.41) rotate(139.95)"/><path class="cls-4" d="M1682.63,93.34s1.76,13.51,1.9,14.61c1.2,9.1,4.71,25.58,10.17,38.76,7.84,18.94,23.63,40.55,29.86,38.13,5.48-2.13,4.75-23.25-1.9-40.67C1711.5,115,1682.63,93.34,1682.63,93.34Z" transform="translate(-1603.65 -56.83)"/><path class="cls-5" d="M1778.75,185.32c10.72.11,25.35,6.09,27.28,17.07,2.06,11.7-11.33,23.31-22.79,26-7.44,1.72-13.89-.36-25.14-4-9.36-3-14-4.53-15.24-7.75-3.54-9.46,14.08-28.93,32.1-31.09A30,30,0,0,1,1778.75,185.32Z" transform="translate(-1603.65 -56.83)"/><path class="cls-6" d="M1718.34,175c.25.53-.19.9-.64,2.55-.83,3-1.46,5.34-.63,6.35,1.32,1.63,5.24-1.57,12.7-1.27a18.59,18.59,0,0,1,6.36,1.27,17.67,17.67,0,0,1,5.08,3.18c4.6,3.94,9.83,7.08,14.62,10.8,11.28,8.75,11.4,8.92,12.7,9.53a57.14,57.14,0,0,1,8.9,5.08,38.78,38.78,0,0,1,3.17,2.54c7,6,10.11,10.65,17.16,15.89,2.78,2.06,4.16,2.73,5.72,2.54,2.45-.31,2.87-2.33,7-3.81,1.87-.68,2.12-.38,4.45-1.27,2.1-.82,2.48-1.29,4.44-1.91s4.32-1,4.45-.64c0,.15-.29.39-.63.64a10.23,10.23,0,0,1-3.18,1.27,13.28,13.28,0,0,0-2.54,1.27c-1.25.72-2.67,1.55-2.54,1.91s2.42-.14,7-.64c5.33-.58,5.67-.17,5.72,0,.12.37-.55,1.11-1.27,1.27a1.4,1.4,0,0,1-.63,0c-1-.19-2.29.37-4.45,1.27-1.47.61-3.16,1.32-3.18,1.27a15.55,15.55,0,0,1,2.54-1.27c3.21-1.31,6.83-1.77,7-1.27s-3.08,2-4.44,2.54c-4,1.69-7,2-7,2.55,0,.76,5.82,1,6.35,2.54,0,.1.16.44,0,.63s-.87.11-1.27,0a35.16,35.16,0,0,0-3.81-.63,10.5,10.5,0,0,0-2.54,0c-3.57.34-4.62,2.23-8.26,2.54a12,12,0,0,1-1.91,0c-4.7-.29-7.8-3.13-12.71-6.36-2.33-1.53-4.52-2.71-8.89-5.08-6.84-3.69-7-3.21-10.17-5.08a35.29,35.29,0,0,1-3.43-2.38c-3.59-2.86-12.33-14.37-20.71-18.59-11.15-5.61-23.64.61-27.33,2.54-4.39,2.31-5.52,4.18-5.71,5.72-.24,1.93,1,2.94,1.9,5.72a17.52,17.52,0,0,1,0,8.89c-1.41,5.2-6.72,7.62-16.52,12.08-2.2,1-7.6,2.36-18.42,5.08a9.88,9.88,0,0,1-5.72,0,9.53,9.53,0,0,1-3.18-1.91c-2.53-2.22-2.27-4.15-4.45-5.08-1-.41-1.13-.08-2.54-.63-2.06-.82-3-2.06-3.17-1.91s1.39,2.64,3.81,5.08c1.81,1.84,3.34,2.93,3.17,3.18s-1.06-.25-1.9-.64c-1.12-.51-1.68-.77-1.91-1.27-.38-.84.2-1.81,0-1.9s-.41.26-.63.63c-.7,1.18-.16,2.09-.64,3.81-.07.27-.36,1.3-.63,1.28s-.18-1.28-.64-3.82c-.26-1.46-.55-2.41,0-3.17a3.83,3.83,0,0,1,.64-.64,3.83,3.83,0,0,0-.64.64c-.51.71-.25,1.53,0,3.17.42,2.77.15,3.5,0,3.82-.31.67-.92,1.37-1.27,1.27s-.18-1.27-.64-3.18c-.18-.77-.24-.69-.63-1.91-.85-2.67-1.31-4.11-.64-5.08.45-.65,1-.56,1.27-1.27a1.66,1.66,0,0,0-.63-1.91c-.43-.18-.78.16-1.91.64-.61.26-2.28,1-2.54.63s.8-2.18,2.54-3.17c2-1.15,4.25-.76,8.26,0a23,23,0,0,1,5.09,1.27c4.71,2.11,4.6,5.46,7.62,6.35,3.7,1.1,8-2.68,11.44-5.72,4.15-3.66,4.22-5.65,8.89-8.89,2.93-2,3.75-1.84,4.45-3.18.45-.87,1.19-3.06-5.08-14.61-1.48-2.72-3.94-7.07-4.45-12.07a6,6,0,0,1,5.72-7c1.35,0,2.38.63,3.17,0a2,2,0,0,0,.64-1.27c.95-5.59,1.42-8.38,2.22-9.57C1710.1,172.87,1717.44,173.05,1718.34,175Z" transform="translate(-1603.65 -56.83)"/><path class="cls-7" d="M1718.54,401.15a9.33,9.33,0,0,0-2.18,3.81c-.23.8-.78,2.71,0,3.81s2.83.74,3.27.64c2.8-.66,3.36-3.15,7.08-5.08,1.27-.67,2.17-1.11,2.73-.64,1,.84-.32,3.52,0,7.62.1,1.31.43,5.6,2.18,6.36,2.35,1,7.55-4.22,8.71-10.17a69.28,69.28,0,0,1,1.09-7,47.54,47.54,0,0,1,1.63-5.08c1.64-4.47,2.63-5.76,2.18-7.62a4.88,4.88,0,0,0-1.63-2.55C1738.11,380.76,1724,395.49,1718.54,401.15Z" transform="translate(-1603.65 -56.83)"/><path class="cls-6" d="M1735.49,260.09c-4,1.08-3.91,13.63-3.81,24.78.18,20,3.71,22.19,3.18,38.76-.44,13.69-2.87,14-2.54,27.32.17,7.2-.43,14.42,0,21.61.21,3.64.55,7-1.27,10.8s-4.3,4.89-3.82,7c.6,2.59,5.31,4.57,7.63,3.17,1.65-1,1.7-3.45,1.9-5.71.37-4,.47.84,4.45-16.52,1-4.45,2.82-12.65,5.72-29.23,2.07-11.85,3.17-17.77,3.18-19.06.08-12.68-2.59-14.26-2.54-28.6,0-10.84,1.84-12.7,0-19.06C1745.21,267.23,1739,259.15,1735.49,260.09Z" transform="translate(-1603.65 -56.83)"/><path class="cls-6" d="M1781.24,256.28c2.93,4.79,1.59,10.89.64,15.25-1.16,5.26-2.58,5.88-7,16.52-2.41,5.79-2.28,6.49-4.45,12.07-5.56,14.31-9,15.92-12.07,24.78-3.86,11.09.91,10.28-2.54,24.15-4.31,17.31-12.95,23.42-11.44,33.67.19,1.32.93,5.27-1.27,8.26-1.45,2-4.22,3.61-5.72,3.18-5.14-1.48-1.67-28.15,3.81-67.35,8.31-59.46,11-74.63,21-77.52C1768.45,247.47,1777.7,250.5,1781.24,256.28Z" transform="translate(-1603.65 -56.83)"/><path class="cls-8" d="M1668.38,134.91" transform="translate(-1603.65 -56.83)"/><ellipse class="cls-9" cx="1742.31" cy="120.27" rx="16.21" ry="19.5" transform="translate(-379.3 1731.31) rotate(-76.7)"/><path d="M1746,104.67c-1.51.57-2.93,1.18-4.3,1.81a28.63,28.63,0,0,0-3.87,2.19,23.43,23.43,0,0,0-3.43,2.78,26,26,0,0,0-3,3.54h0a.06.06,0,0,1-.09,0,.06.06,0,0,1,0-.07,15.13,15.13,0,0,1,5.81-7.3,19.54,19.54,0,0,1,8.86-3.09s.06,0,.07,0a.07.07,0,0,1,0,.06Z" transform="translate(-1603.65 -56.83)"/><path d="M1754,108.18a6.06,6.06,0,0,1,2,2.4,6.86,6.86,0,0,1,.58,3.2,8.36,8.36,0,0,1-.82,3.18,10.64,10.64,0,0,1-1.88,2.67,11.62,11.62,0,0,1-5.51,3.11,9.87,9.87,0,0,1-6.11-.32h0a.07.07,0,0,1,0-.08.06.06,0,0,1,.07,0,12.37,12.37,0,0,0,10.71-3.54,9,9,0,0,0,2.62-5.1,6.66,6.66,0,0,0-1.68-5.39.07.07,0,0,1,0-.09.08.08,0,0,1,.08,0Z" transform="translate(-1603.65 -56.83)"/><path d="M1758.7,113.2a9.7,9.7,0,0,1,1.57,2.47,9.11,9.11,0,0,1,.65,2.93,9.81,9.81,0,0,1-1.55,5.85,10.8,10.8,0,0,1-4.54,3.94,12,12,0,0,1-5.7,1.11h0a.05.05,0,0,1,0-.06,0,0,0,0,1,0-.05,15.3,15.3,0,0,0,5.31-1.74,11.27,11.27,0,0,0,4-3.78,9.93,9.93,0,0,0,1.26-8,11.48,11.48,0,0,0-1.11-2.57,0,0,0,0,1,0-.07s0,0,.06,0Z" transform="translate(-1603.65 -56.83)"/><path d="M1753.93,108.29a25,25,0,0,0-5.12,1.23,17.07,17.07,0,0,0-2.32,1,15.32,15.32,0,0,0-2.15,1.26,14.56,14.56,0,0,0-3.54,3.42,13.22,13.22,0,0,0-2.12,4.69v0a.07.07,0,0,1-.08,0,.06.06,0,0,1,0-.06,10.37,10.37,0,0,1,1.4-5.18,12.63,12.63,0,0,1,3.68-3.95,15.78,15.78,0,0,1,10.31-2.6s.06,0,.06.07a.05.05,0,0,1,0,0Z" transform="translate(-1603.65 -56.83)"/><path class="cls-10" d="M1794.21,244.21h-67.27a37.61,37.61,0,0,0-2.62,4.52c-2.8,5.67-3.92,11.29-3.7,11.4a10.72,10.72,0,0,1,1.85-2.85,9.54,9.54,0,0,1,4.93-2.14c-.61,6.45-.62,7.84-.62,7.84,0,4.28.86,9.21,1.85,9.27s.83-3.67,3.7-7.13c1-1.15,2.65-3.19,4.31-2.85,2.78.56,4.18,7.48,4.31,12.12a53,53,0,0,1-1.23,11.4s10.34-2.77,15.4-10c4.84-6.88,3.33-15.61,4.93-15.68,1.26-.05,1.91,5.45,5.54,15,1.78,4.66,4,10.31,5.55,10,1.37-.29.28-4.71,3.08-10.69,1.87-4,3.61-4.7,4.31-8.56.6-3.27-.23-5.14.62-5.7,1.28-.84,5,2.22,6.77,6.42,2.77,6.55-.35,13.12.62,13.54,1.15.5,7.37-8.08,6.16-17.11-.89-6.63-5.44-10.9-4.93-11.4s3.62,2.35,6.16,6.41c2.66,4.26,2.91,7.24,3.7,7.13,1.22-.16,2.84-7.56.61-14.25A18.28,18.28,0,0,0,1794.21,244.21Z" transform="translate(-1603.65 -56.83)"/><path class="cls-7" d="M1716.43,202.91c-.76.25-1.36-1.1-3.81-2.54a7.83,7.83,0,0,0-3.18-1.27,6.12,6.12,0,0,0-4.45,1.27c-2.8,2.46-2.06,8.3,0,12.07,2.44,4.44,6.92,6.38,12.71,8.9,4.57,2,6.33,1.93,10.8,4.44s6.61,3.71,7,5.72c.75,3.89-5.64,5.58-10.8,14.62-2.88,5-4,10.06-3.81,10.16a9.11,9.11,0,0,1,1.91-2.54,10.74,10.74,0,0,1,5.08-1.91c-.63,5.75-.64,7-.64,7,0,3.82.88,8.21,1.91,8.26s.85-3.27,3.81-6.35c1-1,2.74-2.84,4.45-2.54,2.86.5,4.3,6.67,4.45,10.8a42.15,42.15,0,0,1-1.27,10.17s10.65-2.47,15.88-8.9c5-6.13,3.44-13.92,5.08-14,1.31,0,2,4.85,5.72,13.35,1.84,4.15,4.1,9.19,5.72,8.89,1.41-.26.29-4.2,3.18-9.53,1.93-3.56,3.72-4.19,4.44-7.62.62-2.93-.24-4.59.64-5.09,1.32-.75,5.16,2,7,5.72,2.86,5.85-.36,11.7.63,12.07,1.19.45,7.61-7.2,6.36-15.25-.92-5.91-5.61-9.71-5.08-10.16s3.73,2.09,6.35,5.72c2.74,3.79,3,6.44,3.81,6.35,1.26-.14,2.93-6.74.64-12.71-1.42-3.69-3.93-5.9-8.9-10.16a92.36,92.36,0,0,0-10.16-7.63c-10.84-6.9-15.93-7.59-26.05-14.61a48.64,48.64,0,0,1-6.36-5.08c-2.78-2.69-3.16-3.76-7.62-8.9-4.64-5.33-6.08-6.3-7.63-7a15.3,15.3,0,0,0-6.35-1.27,11.73,11.73,0,0,0-5.72,1.27,9.69,9.69,0,0,0-4.45,4.45C1716.8,201.14,1717.22,202.65,1716.43,202.91Z" transform="translate(-1603.65 -56.83)"/><ellipse class="cls-10" cx="125.17" cy="338.92" rx="7.94" ry="8.58"/><circle class="cls-10" cx="130.89" cy="337.65" r="8.58"/><path d="M1663.32,234.4a1.8,1.8,0,0,1-.66-.7.65.65,0,0,1,0-.46.72.72,0,0,1,.49-.38,2,2,0,0,1,.66,0c.62.12,1.12.25,1.62.37a9.71,9.71,0,0,0,2.76.3,5.94,5.94,0,0,0,1.4-.22,3.77,3.77,0,0,1,1.17,0,2.88,2.88,0,0,1,1,.41,3.9,3.9,0,0,1,1.79,3.18v0a.06.06,0,0,1,0,.06,0,0,0,0,1-.06,0,4.72,4.72,0,0,0-2.1-2.32,2.14,2.14,0,0,0-1.51-.14,6.66,6.66,0,0,1-1.62.33,7.33,7.33,0,0,1-3.2-.64l-1.48-.67c-.24-.09-.56-.15-.49.13a2.32,2.32,0,0,0,.34.71.05.05,0,0,1,0,.08s-.05,0-.07,0Z" transform="translate(-1603.65 -56.83)"/><path class="cls-11" d="M1785.37,198.78" transform="translate(-1603.65 -56.83)"/><path class="cls-1" d="M1821.94,92.38c-1.72,2.6-3.32,5.29-4.77,8s-2.85,5.52-4.07,8.38-2.31,5.76-3.27,8.7-1.74,6-2.37,9a92.14,92.14,0,0,0-2.16,18.44c-.06,3.1,0,6.21.29,9.31a91,91,0,0,0,1.11,9.28l-.08,0a89.11,89.11,0,0,1,0-37.22c.66-3,1.5-6.07,2.46-9s2.12-5.88,3.4-8.73a94.62,94.62,0,0,1,9.35-16.21Z" transform="translate(-1603.65 -56.83)"/><path class="cls-1" d="M1782.55,128q-2,4.06-3.71,8.3c-1.15,2.79-2.19,5.63-3.09,8.51s-1.76,5.77-2.44,8.71-1.25,5.9-1.71,8.88a110.78,110.78,0,0,0-1.32,18q0,4.53.41,9.05c.22,3,.58,6,1.06,9l-.08,0a103.12,103.12,0,0,1,3.47-53.9,106,106,0,0,1,7.33-16.65Z" transform="translate(-1603.65 -56.83)"/><path class="cls-12" d="M1774.89,188.3" transform="translate(-1603.65 -56.83)"/><path class="cls-13" d="M1690.93,146.67c-.46,2.36.49,4.66-1.32,7.54-.9,1.42-2.26,2.65-2.64,5a9.67,9.67,0,0,0,0,2.51,25.67,25.67,0,0,0,1.32,6.28c2.23,6.05,8.9,11.06,9.23,11.3a44.29,44.29,0,0,0,15.83-1.25c3.79-1,6.37-1.73,9.23-3.77,2.59-1.86,4.55-4.2,5.28-3.77s-.84,3.16,0,3.77c1,.73,4.92-1.82,7.91-5,3.78-4.05,4-7,7.91-8.79,1.3-.6,2.7-1,2.64-1.25s-2.85-.53-5.27,0c-5.68,1.23-8.07,5.65-9.24,5s1.15-4.48,1.32-10c0-1.47.22-7-2.64-11.31-5.42-8.21-18.72-7.59-19.78-7.53C1702.21,135.87,1692.09,140.63,1690.93,146.67Z" transform="translate(-1603.65 -56.83)"/><path class="cls-14" d="M1694.88,147.93a9.67,9.67,0,0,1,2.64,3.77c.15.31.54,1.88,1.32,5,.13.54.26,1.07,0,1.26-.46.33-1.77-.62-2.64-1.26-2.14-1.57-3.21-2.35-4-3.77-1.3-2.44-1.18-5.8,0-6.28C1693,146.37,1694.08,147.26,1694.88,147.93Z" transform="translate(-1603.65 -56.83)"/><path class="cls-15" d="M1696.2,171.8a6.11,6.11,0,0,0,4,2.51,5.29,5.29,0,0,0,1.32,0" transform="translate(-1603.65 -56.83)"/><path class="cls-16" d="M1696.2,170.54h0a3,3,0,0,1,1.32,0c.71.23.6,1,1.32,1.26.46.2.65,0,1.32,0,1.19.07,1.42.88,2.64,1.25,1.39.43,2.58-.18,2.63,0s-.75.49-2.63,1.26c-3.1,1.26-3.43,1.36-4,1.26a3.68,3.68,0,0,1-2.64-2.52A7.4,7.4,0,0,1,1696.2,170.54Z" transform="translate(-1603.65 -56.83)"/><path d="M1700.39,165.16a2.72,2.72,0,0,0-.93.87.85.85,0,0,0-.08.29,1.43,1.43,0,0,0,0,.23,1.27,1.27,0,0,0,0,.36c0,.15,0,.24,0,.4a3.89,3.89,0,0,0,.38,1.28l0,.11a2.5,2.5,0,0,1-1.11-.9,2.14,2.14,0,0,1-.33-1.4,1.58,1.58,0,0,1,.82-1.18,2.15,2.15,0,0,1,1.41-.18Z" transform="translate(-1603.65 -56.83)"/><path d="M1695.84,150.09c-.81-.06-1.52.89-1.79,1.28a3.55,3.55,0,0,0-.62,2.77c.15.21.39.52.7.88,1.46,1.67,3.76,3.36,4.39,2.87.22-.17.19-.58,0-1.49C1697.87,153.29,1697.23,150.21,1695.84,150.09Z" transform="translate(-1603.65 -56.83)"/><path class="cls-14" d="M1710.71,161.75c-.25-.61,1.62-1.84,2.64-2.51a14.48,14.48,0,0,1,5.27-2.52c4.45-.89,9.24,1.26,9.24,1.26h0a14.08,14.08,0,0,1-5.28,3.77c-1.82.61-2-.12-6.59,0C1712.59,161.84,1710.93,162.28,1710.71,161.75Z" transform="translate(-1603.65 -56.83)"/><ellipse cx="1719.56" cy="159.22" rx="3.78" ry="2.7" transform="translate(-1610.59 64.22) rotate(-4.02)"/><path d="M1712,152.93a12.64,12.64,0,0,1,2-1.49,15.2,15.2,0,0,1,2.34-1,13.94,13.94,0,0,1,5.1-.6,14.5,14.5,0,0,1,4.94,1.38,13.45,13.45,0,0,1,4.08,3,0,0,0,0,1,0,0h0a16.26,16.26,0,0,0-9-3.77,14.35,14.35,0,0,0-9.4,2.51s0,0,0,0S1712,152.94,1712,152.93Z" transform="translate(-1603.65 -56.83)"/><path class="cls-17" d="M1731,165c.34.17.87-.45,3-2.24a14.17,14.17,0,0,1,3-2.24c1.16-.47,1.77-.31,2.59-1a3.93,3.93,0,0,0,1.2-1.81c1.07-2.94,4.89-8.19,5.92-10.66,2.49-6-2-18.81-11.21-25.4-13.43-9.55-33.74-3.76-41.08,6.73-6.46,9.23-3.62,23.16-3.74,23.15a37.55,37.55,0,0,1,1.06-6.23c.5-2,.79-2.62,1.35-2.87,1.33-.62,3.53,1,4.78,2.55,2.06,2.61,1.87,5.82,2.53,5.81.32,0,.5-.81.74-1.5.93-2.58,2.5-2.39,6.25-6.3a28.46,28.46,0,0,0,4.15-5.45h0a12.12,12.12,0,0,1,1.55,8c-.81,3.84-4.78,5.51-4.48,6,.42.63,8-2.28,16.57-6.47,1.69-.83,3.61-1.81,5.09-1,1.88,1,1.94,4.31,2,7.18a52.25,52.25,0,0,1-1.09,10.93C1730.93,163.19,1730.54,164.74,1731,165Z" transform="translate(-1603.65 -56.83)"/><path d="M1738.19,133.55a8.91,8.91,0,0,1,0,2.25,12.39,12.39,0,0,1-.54,2.22,10,10,0,0,1-2.47,3.89,9.88,9.88,0,0,1-4,2.4,12.27,12.27,0,0,1-2.23.46,8.44,8.44,0,0,1-2.25-.11h0a0,0,0,1,1,0-.09,11.61,11.61,0,0,0,7.8-3.3,12.07,12.07,0,0,0,3.52-7.72.05.05,0,0,1,.05-.05s0,0,0,0Z" transform="translate(-1603.65 -56.83)"/><path d="M1721.34,123.05a15.68,15.68,0,0,0-2.46,1.12,12.71,12.71,0,0,0-2.18,1.49,11.28,11.28,0,0,0-3.12,4.07,13.54,13.54,0,0,0-1.29,5,18.16,18.16,0,0,0,0,2.66,19.18,19.18,0,0,0,.29,2.71h0a.05.05,0,0,1,0,0s0,0,0,0a16.51,16.51,0,0,1-.78-5.4,13.11,13.11,0,0,1,1.19-5.33,11.28,11.28,0,0,1,3.45-4.21,12.42,12.42,0,0,1,5-2.21s0,0,0,0,0,0,0,0Z" transform="translate(-1603.65 -56.83)"/><path d="M1697.23,126a12.46,12.46,0,0,0-2,1.58,9,9,0,0,0-1.55,1.89,8.41,8.41,0,0,0-1.27,4.55,10.81,10.81,0,0,0,.95,4.72,11.62,11.62,0,0,0,1.15,2.21A19.27,19.27,0,0,0,1696,143h0a0,0,0,0,1,0,.06s0,0,0,0a13.21,13.21,0,0,1-3.12-4.07,11,11,0,0,1-1.18-5,8.69,8.69,0,0,1,1.55-4.87,9.87,9.87,0,0,1,4-3.2s0,0,0,0a0,0,0,0,1,0,0Z" transform="translate(-1603.65 -56.83)"/><path class="cls-18" d="M1738.32,143.82A17,17,0,0,1,1736,159.1" transform="translate(-1603.65 -56.83)"/><path d="M1738.36,143.81a12.58,12.58,0,0,1,.82,1.88,15.39,15.39,0,0,1,.46,2,13.49,13.49,0,0,1-1.26,8.1,15,15,0,0,1-1.05,1.77,11.11,11.11,0,0,1-1.35,1.55h0a0,0,0,0,1-.06,0,0,0,0,0,1,0-.05,17.24,17.24,0,0,0,2.36-15.23.05.05,0,0,1,0-.05s0,0,0,0Z" transform="translate(-1603.65 -56.83)"/><path d="M1719.55,134a18.87,18.87,0,0,1,0,2,19.17,19.17,0,0,1-.26,2,17.8,17.8,0,0,1-1.19,3.82,15.22,15.22,0,0,1-2.14,3.4,10.11,10.11,0,0,1-3.09,2.51s0,0,0,0,0,0,0,0a11.91,11.91,0,0,0,2.85-2.68,16.68,16.68,0,0,0,2-3.37,20.48,20.48,0,0,0,1.79-7.62,0,0,0,0,1,0,0A0,0,0,0,1,1719.51,134Z" transform="translate(-1603.65 -56.83)"/><path d="M1707.74,126.56a30.32,30.32,0,0,0-2.1,2.58,23.55,23.55,0,0,0-1.82,2.73,25.59,25.59,0,0,0-2.6,5.95,26.59,26.59,0,0,0-1.18,6.39,21,21,0,0,0,0,3.27,28.64,28.64,0,0,0,.37,3.31s0,0,0,0,0,0-.05,0a21.75,21.75,0,0,1-.89-6.61,24.09,24.09,0,0,1,8.23-17.7,0,0,0,0,1,0,0S1707.75,126.54,1707.74,126.56Z" transform="translate(-1603.65 -56.83)"/><path class="cls-18" d="M1730.33,127.25a19.62,19.62,0,0,1-12.65,19.46" transform="translate(-1603.65 -56.83)"/><path d="M1730.37,127.24a17.35,17.35,0,0,1,.24,3.14,19.67,19.67,0,0,1-.4,3.15,18.81,18.81,0,0,1-2.44,5.9,19.1,19.1,0,0,1-4.39,4.62,20.46,20.46,0,0,1-2.72,1.64,16.19,16.19,0,0,1-3,1.06h0a0,0,0,0,1,0,0s0,0,0,0a19.82,19.82,0,0,0,9.46-7.67,19.37,19.37,0,0,0,2.51-5.63,19.8,19.8,0,0,0,.66-6.13,0,0,0,0,1,0,0s0,0,0,0Z" transform="translate(-1603.65 -56.83)"/><path d="M1710.43,159.33a11.81,11.81,0,0,1,3.84-3,15.37,15.37,0,0,1,2.3-.93,18.55,18.55,0,0,1,2.44-.51,14.7,14.7,0,0,1,5,.23,11.75,11.75,0,0,1,4.46,2h0s0,.07,0,.09a.07.07,0,0,1-.08,0,19.49,19.49,0,0,0-17.86,2.23.07.07,0,0,1-.09,0,0,0,0,0,1,0-.07Z" transform="translate(-1603.65 -56.83)"/><path d="M1692.93,145.53a8.42,8.42,0,0,1,3.28,1.75,9.41,9.41,0,0,1,2.33,3,13.62,13.62,0,0,1,1.12,3.56,10.7,10.7,0,0,1,0,3.7h-.08a16.35,16.35,0,0,0-.51-3.55,17.79,17.79,0,0,0-1.21-3.37,11.2,11.2,0,0,0-5-5Z" transform="translate(-1603.65 -56.83)"/><ellipse class="cls-1" cx="92.17" cy="95.25" rx="0.67" ry="0.53"/><circle class="cls-1" cx="92.31" cy="96.05" r="0.53"/><ellipse class="cls-1" cx="117.03" cy="101.44" rx="0.93" ry="0.75"/><circle class="cls-1" cx="116.84" cy="102.56" r="0.75"/><path d="M1741.49,160.54a13.93,13.93,0,0,1-2.66,2.31,18.93,18.93,0,0,1-3.1,1.67,9,9,0,0,0-2.74,1.55,8.92,8.92,0,0,0-1.94,2.66l-.08,0a6.77,6.77,0,0,1,1.54-3.07,7.71,7.71,0,0,1,2.9-1.87,31.6,31.6,0,0,0,6-3.3Z" transform="translate(-1603.65 -56.83)"/><path d="M1735.5,165.77a2.47,2.47,0,0,0-1.36,1.46,5.17,5.17,0,0,0-.12,1,2.84,2.84,0,0,1-.5,1.38,3.88,3.88,0,0,1-2.31,1.32,6.22,6.22,0,0,1-2.43.06l0-.07a13.28,13.28,0,0,0,2.26-.54,3.94,3.94,0,0,0,1.9-1.22c.5-.59.34-1.46.68-2.19a2.42,2.42,0,0,1,1.89-1.28Z" transform="translate(-1603.65 -56.83)"/></svg>