<svg xmlns="http://www.w3.org/2000/svg" xmlns:xlink="http://www.w3.org/1999/xlink" viewBox="0 0 505.32 501.28"><defs><style>.cls-1,.cls-11,.cls-17{fill:#f3f3e8;}.cls-1,.cls-13,.cls-14,.cls-15,.cls-19,.cls-20,.cls-3,.cls-4,.cls-5{stroke:#1d1d1b;}.cls-1,.cls-16,.cls-19,.cls-20,.cls-22,.cls-3,.cls-4,.cls-8{stroke-miterlimit:10;}.cls-19,.cls-2{fill:#1d1d1b;}.cls-3,.cls-5{fill:#f6cc98;}.cls-15,.cls-22,.cls-4{fill:none;}.cls-11,.cls-12,.cls-13,.cls-14,.cls-15,.cls-5{stroke-linecap:round;stroke-linejoin:round;}.cls-14,.cls-5,.cls-8{stroke-width:2px;}.cls-6{fill:#784b2e;}.cls-7{fill:#6e5c48;}.cls-8{fill:#87989f;stroke:#6e5c48;}.cls-9{fill:#502a28;}.cls-10{fill:url(#linear-gradient);}.cls-11{stroke:#502a28;}.cls-12{fill:#cf2a17;stroke:#cf2a17;}.cls-13,.cls-14{fill:#d7eefa;}.cls-16,.cls-20{fill:#b1deea;}.cls-16{stroke:#6e96a1;}.cls-18{fill:#e4c2b0;}.cls-21{fill:#5f3b29;}.cls-22{stroke:#784b2e;}</style><linearGradient id="linear-gradient" x1="390.4" y1="302.04" x2="390.4" y2="245.49" gradientUnits="userSpaceOnUse"><stop offset="0" stop-color="#ed6c6e"/><stop offset="1" stop-color="#fac7a4"/></linearGradient></defs><g id="Layer_2" data-name="Layer 2"><g id="眼镜"><path class="cls-1" d="M454.41,79.18c-.47,1.5-.14,6.21-1.42,9.8-2.8,7.78-3.87,13.94-4.93,16.28-4.93,10.85-7.17,7.51-6.49,12.32,1.1,7.78,3.66,10.7,4.8,21.28.84,7.8-1.38,14.76-3.89,14.92s-4.44-7.38-5.84-7c-1.09.29-.06,4.9-.58,11.68-.33,4.23-1.48,7.9-3.57,15.3-2.33,8.25-2.49,9.56-6,11.42-.47.25-3,1.3-4.54.26a.62.62,0,0,1-.23-.31h0c-1.18-2.88,8.11-20.06,3.8-36.59-.31-1.19-3.92-14.3-13.43-16.93a12.85,12.85,0,0,0-4.64-.39c-5.78.52-11.43,4.5-16.37,8l-.71.51c-12.34,8.95-15.21,18.08-20.31,17-3.68-.77-3.08-5.71-9.34-14-.66-.87-1.44-1.9-2.34-3l0,0c-3.27-4-8.11-8.89-14.56-10.39-11-2.55-21.52,5.89-25.1,8.75-9.83,7.85-8.86,14-18.68,19.27a37.7,37.7,0,0,1-15.77,4.08c-16.71,1.33-39.2-8.92-40.08-7.2-.74,1.44,16.13,9.93,25.29,20.63,3.59,4.19,14.33,15,11.1,23-1.39,3.42-2.63,2.15-3.31,5.65a6.77,6.77,0,0,0-.08,2.09,7.06,7.06,0,0,0,.58,1.95c1.28,2.85,4.21,5.4,5.92,10C288,229,280,241.35,279.6,241.93c-2.76,4.14-3.59,2.84-12.84,11.67-.4.38-.82.79-1.28,1.25-2.48,2.48-6.05,6.27-12.15,12.76-10.52,11.21-11.62,12.57-13.42,12.26-5.45-.94-2.23-14.64-12.26-26.85-6.72-8.18-11.5-6.11-18.1-15.18-5.15-7.07-5.3-11.51-7-15,0,0,0,0,0,0a12.5,12.5,0,0,0-.63-1.13l0,0a10.25,10.25,0,0,0-1.65-1.91c-1.24-1.12-4.58-1.49-8.63-.86h0a31.6,31.6,0,0,0-8.31,2.57l0,0c-4.92,2.32-9.55,6.14-11.87,11.83-.09.23-.19.46-.27.69s-.27.64-.39,1c-3.5,9-4.71,15.73-4.22,22.54a.25.25,0,0,0,0,.08c.43,5.84,2.1,11.74,4.63,19.17a1,1,0,0,1,0,.1c.33,1,.69,2,1.05,3a90.2,90.2,0,0,0,3.61,8.83,67.82,67.82,0,0,0,11.89,17.7l.06.06c.83.9,1.68,1.76,2.53,2.6a13.2,13.2,0,0,0,3.89,2.43c1.86.83,3.71,1.49,4.9,2.65a4,4,0,0,1,1.14,1.93,5.69,5.69,0,0,1-.19,3.26,8.92,8.92,0,0,1-.42,1,22.39,22.39,0,0,1-3.56,4.95l-.1.11c-.86.95-1.79,1.92-2.74,2.91-.51.52-1.06,1.08-1.66,1.66a.12.12,0,0,0,0,.05c-1.42,1.38-3.07,2.88-4.8,4.31h0c-1.52,1.26-3.1,2.47-4.65,3.51l-.11.07-1,.65,0,0c-3.38,2.11-6.45,3.21-8.12,2-3.07-2.27,1.11-10.6-1.75-12.26-2.06-1.2-5.37,2.46-11.68,6.42-8,5-20.6,10.44-23.93,7-2.24-2.3,2.08-7,2.59-7.59,6.42-7.52,10.81-9.8,17.26-17.51,5.14-6.15,8.58-14.53,5.83-18.1-13.62-17.7-25-29-38.52-59.54-6.94-15.61-6.76-29-6.43-53.13.33-23.73,1.89-32.73,12.26-54.29,1.14-2.36,4.48-2.53,6-8.56,1.36-5.29-2.73-8.43-1.37-10.9s6.37-1.77,8.18-4.47c2.19-3.28-5.58-9-4.54-9.93.77-.67,6.69,6.44,8.62,2.92,3.18-5.77,18.23-28.09,36.2-37.94,25.79-14.16,59-29.55,80.56-24.52,2.44.57,8.67,0,14.59-2.73,12.65-5.89,16.45-9.25,22.19-15.37C309.07,9.2,323.09,7.47,350.82,3.74,378.3.05,393.34-2,411,6.08c23.34,10.67,33.81,31.07,38.53,40.28C452.52,52.28,458.15,67.42,454.41,79.18Z"/><path class="cls-2" d="M372.43,11.28a45.59,45.59,0,0,1,10.91,1.81,44.71,44.71,0,0,1,10.17,4.46,40.16,40.16,0,0,1,8.77,6.86,37.68,37.68,0,0,1,6.38,9.08l-.08,0a57,57,0,0,0-7-8.43,50.47,50.47,0,0,0-8.47-6.88,44.35,44.35,0,0,0-9.9-4.66,45.39,45.39,0,0,0-10.77-2.19Z"/><path class="cls-2" d="M246.09,58.91a71,71,0,0,1,20.09-11.39,70.63,70.63,0,0,0-19.61,12Z"/><path class="cls-2" d="M203.13,223.9a2.83,2.83,0,0,1-.62-.34c-.09-.06-.26-.09-.25-.21a.74.74,0,0,1,.23-.49l.08-.05a.86.86,0,0,1,.55,0c.12,0,.06.19.07.3a3.22,3.22,0,0,1,0,.7Z"/><path class="cls-2" d="M188.57,198.7q4,5.33,7.94,10.72a21.81,21.81,0,0,1,3.39,5.84c.73,2.16,1.2,4.27,2,6.36l-.08,0c-1.33-1.83-2-4.06-2.85-6a32.11,32.11,0,0,0-3.12-5.75q-3.71-5.53-7.36-11.11Z"/><path class="cls-2" d="M258,223a33.9,33.9,0,0,1,4.91,6.9,34.75,34.75,0,0,1,1.77,3.88,28.44,28.44,0,0,1,1.15,4.13,37.35,37.35,0,0,1,.75,8.5,41.25,41.25,0,0,1-1.09,8.43l-.1,0c.13-2.82.26-5.62.19-8.42a58.26,58.26,0,0,0-.54-8.35,27.11,27.11,0,0,0-1-4A35.27,35.27,0,0,0,258,223.08Z"/><path class="cls-2" d="M259.77,185.25a29.61,29.61,0,0,1,10.54,8.52c1.41,1.84,2.64,3.7,3.86,5.61a27.84,27.84,0,0,1,3.07,6.09l-.1,0c-1.16-1.94-2.5-3.74-3.8-5.58-.64-.93-1.27-1.87-1.86-2.84s-1.15-1.94-1.81-2.84a28.54,28.54,0,0,0-4.47-5,29.52,29.52,0,0,0-5.47-3.93Z"/><path class="cls-2" d="M328.46,114.81a60.84,60.84,0,0,1,9.38,3.5c1.5.73,3,1.49,4.43,2.37a28.94,28.94,0,0,1,4.06,3,43.75,43.75,0,0,1,6.71,7.49c1.94,2.75,3.62,5.62,5.38,8.45l-.08.06c-2.23-2.51-4-5.32-6.1-7.91a61.59,61.59,0,0,0-6.45-7.5,28.46,28.46,0,0,0-3.87-3,49.52,49.52,0,0,0-4.31-2.47,60.51,60.51,0,0,0-9.17-3.86Z"/><path class="cls-2" d="M406.92,94.22a51.22,51.22,0,0,1-.28,12.37,48.32,48.32,0,0,1-1.29,6.08,49.19,49.19,0,0,1-2.14,5.85,92.74,92.74,0,0,1-5.62,11.07c-1.08,1.76-2.17,3.52-3.35,5.21a45.27,45.27,0,0,1-3.8,4.91l-.08-.06c1.18-1.69,2.23-3.46,3.29-5.22s2.09-3.54,3.07-5.35c2-3.58,4-7.16,5.76-10.88a49.69,49.69,0,0,0,2.24-5.71,46.87,46.87,0,0,0,1.43-6,51,51,0,0,0,.67-12.28Z"/><path class="cls-2" d="M420.73,102.4a34.72,34.72,0,0,1-3.59,15.77,48.49,48.49,0,0,1-4.2,7,33.64,33.64,0,0,1-5.42,6.07l-.07-.07c1.69-2.09,3.19-4.33,4.67-6.57s3-4.44,4.31-6.79a36.15,36.15,0,0,0,4.2-15.4Z"/><path class="cls-2" d="M435.32,121.5a31.63,31.63,0,0,1-4.07,4,37.53,37.53,0,0,1-4.75,3.19c-1.61,1-3.18,2.07-4.88,2.95a26.81,26.81,0,0,1-2.61,1.2,9.13,9.13,0,0,1-2.81.7l0-.1a32.84,32.84,0,0,0,4.95-2.67c1.61-1,3.3-1.87,5-2.77a37.45,37.45,0,0,0,4.85-2.9,30.16,30.16,0,0,0,4.29-3.69Z"/><path class="cls-3" d="M458.24,330.27c-2,6.62-7.72,16.49-15,20.82-2.62,1.57-5.15,0-6.23,2.73-5.32,13.62-11.59,15.41-13.62,20.63-.31.81-.65,1.59-1,2.36A38.84,38.84,0,0,1,418,384c-.64.84-1.31,1.66-2,2.44l-.45.5c-8.23,9-19.36,14-25.92,16.46q-3,1.13-6,2l-.76.22a101.58,101.58,0,0,1-37.7,3.18,63.29,63.29,0,0,1-9.67-1.66c-15.61-4.46-13.32-9.38-37.75-19.85-21.58-9.25-25.64-6.39-38.14-15.18a73.73,73.73,0,0,1-24.13-28.41c-2.57-5.46-6-12.8-5.84-22.57.25-12.1,6-21.95,5.45-22.19s-4,15.6-14.4,19.07c-8.4,2.81-15.13-.93-21.57-3.87-1.19-1.16-3-1.82-4.9-2.65a41.88,41.88,0,0,1-6.42-5l-.06-.06a67.82,67.82,0,0,1-11.89-17.7c-2.18-4.88-3.55-9.21-4.66-11.85a1,1,0,0,0,0-.1c-2.53-7.43-4.2-13.33-4.63-19.17a.25.25,0,0,1,0-.08c-.32-7.64,1.33-14.83,4.22-22.54.12-.33.25-.66.39-1,3.75-8.92,10.51-11.53,12.14-12.52l0,0a31.6,31.6,0,0,1,8.31-2.57h0a26.64,26.64,0,0,1,8.63.86,10.25,10.25,0,0,1,1.65,1.91l0,0c.18.36.39.74.63,1.13,0,0,0,0,0,0,1.72,3.49,1.87,7.93,7,15,6.6,9.07,11.38,7,18.1,15.18,10,12.21,6.81,25.91,12.26,26.85,1.8.31,2.9-1.05,13.42-12.26,6.1-6.49,9.67-10.28,12.15-12.76.46-.46.88-.87,1.28-1.25,9.25-8.83,10.08-7.53,12.84-11.67.39-.58,8.4-13,4.09-24.52-1.71-4.57-4.64-7.12-5.92-10a7,7,0,0,0-.58-1.95,6.77,6.77,0,0,1,.08-2.09c.68-3.5,1.92-2.23,3.31-5.65,3.23-8-7.51-18.77-11.1-23-9.16-10.7-26-19.19-25.29-20.63.88-1.72,23.37,8.53,40.08,7.2A37.7,37.7,0,0,0,300,157.28c9.82-5.28,8.85-11.42,18.68-19.27,3.58-2.86,14.14-11.3,25.1-8.75,6.45,1.5,11.29,6.38,14.56,10.39l0,0c.9,1.09,1.68,2.12,2.34,3,6.26,8.3,5.66,13.24,9.34,14,5.1,1.08,8-8.05,20.31-17l.71-.51c4.94-3.48,10.59-7.46,16.37-8a12.85,12.85,0,0,1,4.64.39c9.51,2.63,13.12,15.74,13.43,16.93,4.31,16.53-5,33.71-3.8,36.59h0c-.59,1.51-3.23,4.62-4.18,7.19-2.5,6.76-3.63,10.12-7,19.84-3.64,10.47-4.83,13.78-5.84,19.46-1.42,8-.58,10.06.39,11.29.62.79,1.74,1.8,6.55,2.63h.08c1.05.18,2.26.35,3.7.51h0q1.78.19,4,.36c8.84.64,8.3-.21,11.28.39,8.34,1.68,13.76,8.57,21.8,19.07,4.33,5.66,6.49,8.49,8.17,12.07C467.36,292,466.27,303.59,458.24,330.27Z"/><path class="cls-4" d="M199.07,314.14a41.39,41.39,0,0,1-4.9-2.65"/><path class="cls-4" d="M175.8,288.7a55.44,55.44,0,0,0,11.89,17.7"/><path class="cls-4" d="M171.1,276.75a54.33,54.33,0,0,1-4.63-19.17"/><path class="cls-4" d="M191.55,218.88a18.93,18.93,0,0,0-8.31,2.57"/><path class="cls-5" d="M343.88,428.54c-4.08,8.44-11.8,11.67-15.56,13.24-14.72,6.13-29.25.78-34-1-4.46-1.72-10.55-4.71-34-29.32-15.71-16.49-23.56-24.74-31.4-36.33a217.91,217.91,0,0,1-18.16-32.95c-3.73-8.37-8.87-17-10.76-22.81a5.69,5.69,0,0,0,.19-3.26,4,4,0,0,0-1.14-1.93c6.44,2.94,13.17,6.68,21.57,3.87,10.39-3.47,13.76-19.34,14.4-19.07s-5.2,10.09-5.45,22.19c-.2,9.77,3.27,17.11,5.84,22.57a73.73,73.73,0,0,0,24.13,28.41c12.5,8.79,16.56,5.93,38.14,15.18,24.43,10.47,22.14,15.39,37.75,19.85a63.29,63.29,0,0,0,9.67,1.66C345.85,411.07,348.08,419.85,343.88,428.54Z"/><path class="cls-6" d="M281.06,314.09a27.48,27.48,0,0,0-.24,7.73,24.91,24.91,0,0,0,1.9,7.39,36.5,36.5,0,0,0,3.9,6.46,61.17,61.17,0,0,0,4.91,5.95l-.11.16a18.39,18.39,0,0,1-6.38-4.87,18.63,18.63,0,0,1-2.26-3.38,31.18,31.18,0,0,1-1.55-3.75,25.82,25.82,0,0,1-.36-15.74Z"/><path class="cls-6" d="M385.2,351.34a35.17,35.17,0,0,0,13.16,1.35,39.17,39.17,0,0,0,12.74-3.17,65.06,65.06,0,0,0,11.32-6.67,117.78,117.78,0,0,0,10.37-8.33l.16.14a43.42,43.42,0,0,1-21.23,16.4,40.33,40.33,0,0,1-13.31,2.66,35.44,35.44,0,0,1-13.28-2.19Z"/><path class="cls-7" d="M299.16,171.13a61.91,61.91,0,0,1,6.56-15,46,46,0,0,1,4.9-6.63,68.12,68.12,0,0,1,5.82-5.83,55.2,55.2,0,0,1,6.6-5c1.17-.74,2.34-1.46,3.58-2.1a27.52,27.52,0,0,1,3.91-1.63,16.18,16.18,0,0,1,8.48-.33,16.73,16.73,0,0,1,3.93,1.54,18.84,18.84,0,0,1,3.34,2.44l-.12.16a19.51,19.51,0,0,0-7.41-2.77,15.58,15.58,0,0,0-3.86,0,15.9,15.9,0,0,0-3.74.87,25.16,25.16,0,0,0-3.58,1.58c-1.17.6-2.34,1.25-3.49,1.93a53.29,53.29,0,0,0-6.61,4.53,66.34,66.34,0,0,0-5.89,5.49,44,44,0,0,0-5,6.28,61.7,61.7,0,0,0-7.22,14.49Z"/><path class="cls-8" d="M360,175c-.49.3-3.81-5-8.76-5.83-1.47-.26-4.4-.28-11.28,5.44a79.44,79.44,0,0,0-21.41,29c-1,2.63-1.72,5-2.33,4.86-1.39-.21-1-12.59.58-23.15,1.57-10.75,2.93-19.4,9-28.41,6.65-10,13.56-12.22,15-12.65,2.19-.67,5.44-1.61,9-.39,6.13,2.13,8.36,9.25,9.92,14.2C361.85,165.26,360,175,360,175Z"/><path class="cls-8" d="M384.88,169c-1.45-.38-1.61-5.54-.91-9.47,1.15-6.47,4.85-10.79,6.88-13.1,4-4.61,7.3-8.34,11.93-8.18,6.24.23,10.06,7.36,10.64,8.44,3,5.61,2,11.18,1,16.34-.66,3.6-2.22,9.16-3.77,9.08-1.93-.09-1-8.9-6.35-11.93a9.72,9.72,0,0,0-6.88-.65c-4.2,1-7.86,5-9.86,7.14C386.11,168.22,385.53,169.12,384.88,169Z"/><path class="cls-9" d="M199.67,247.48a35.56,35.56,0,0,1,10.49,6.46,39.89,39.89,0,0,1,7.78,9.63,48.81,48.81,0,0,1,5,11.24A50.1,50.1,0,0,1,225,286.87a.1.1,0,0,1-.09.1.11.11,0,0,1-.11-.09,49.67,49.67,0,0,0-2.8-11.76,47.18,47.18,0,0,0-5.43-10.69,60.94,60.94,0,0,0-7.79-9,84.61,84.61,0,0,0-9.22-7.76.09.09,0,0,1,0-.14A.09.09,0,0,1,199.67,247.48Z"/><path class="cls-9" d="M212.68,262.94a27.94,27.94,0,0,0-2.68,7.72,30.1,30.1,0,0,0-.13,8.06A46.83,46.83,0,0,0,215,294.54a.1.1,0,0,1,0,.14.11.11,0,0,1-.13,0,45.2,45.2,0,0,1-4-7.48,42.36,42.36,0,0,1-2.47-8.2c-.52-2.8-1-5.77-.24-8.73a15,15,0,0,1,4.47-7.43.11.11,0,0,1,.14,0A.13.13,0,0,1,212.68,262.94Z"/><path class="cls-9" d="M300.85,408.4a46.81,46.81,0,0,0,7.16,1.52,45.12,45.12,0,0,0,7.26.37,28.66,28.66,0,0,0,7-1,25.92,25.92,0,0,0,6.54-2.83.1.1,0,0,1,.13.14,12.8,12.8,0,0,1-6.06,4.6,17.81,17.81,0,0,1-7.61.67,46.32,46.32,0,0,1-7.4-1,41,41,0,0,1-7.05-2.31.1.1,0,0,1,0-.13A.1.1,0,0,1,300.85,408.4Z"/><path class="cls-10" d="M427,277.59c-3.44,8.22-9.67,12.43-14,15.37-8.07,5.45-15.71,6.9-20.63,7.78-6.25,1.12-13.11,2.35-21.4-.19-2.51-.77-10.81-3.43-16.35-11.09-1.48-2-3-4.24-3.31-7.4a10.74,10.74,0,0,1,0-1.7c.29-4.32,3.15-7.86,6.05-11.34,4.72-5.67,9.72-8.74,15.56-12.26a78.56,78.56,0,0,1,12.85-6.42,61.85,61.85,0,0,1,16.73-4.28c7.19-.73,12.23-1.25,17.32,1.75a17.94,17.94,0,0,1,3.79,3,20.78,20.78,0,0,1,3.8,5.56C432,265.76,427.94,275.37,427,277.59Z"/><path class="cls-9" d="M427.1,277.63a29.52,29.52,0,0,1-7.59,10.74,54.17,54.17,0,0,1-5.17,4.14,51.68,51.68,0,0,1-5.59,3.6,49.59,49.59,0,0,1-12.47,4.71c-2.18.5-4.33.89-6.51,1.3a58.21,58.21,0,0,1-6.64.86,35.69,35.69,0,0,1-13.37-1.73A33.48,33.48,0,0,1,358,294.61a29.36,29.36,0,0,1-4.5-5.09,15.47,15.47,0,0,1-2.93-6.28,8.86,8.86,0,0,1-.15-1.78,13.25,13.25,0,0,1,.07-1.78,13.1,13.1,0,0,1,.93-3.39,24.58,24.58,0,0,1,3.65-5.74,57.93,57.93,0,0,1,4.43-5,44.76,44.76,0,0,1,5.13-4.3c1.8-1.31,3.68-2.49,5.56-3.64s3.77-2.27,5.72-3.34A77.57,77.57,0,0,1,388,248.87a60.24,60.24,0,0,1,12.91-3.14c2.21-.24,4.38-.42,6.59-.56a29.84,29.84,0,0,1,6.67.25,16.43,16.43,0,0,1,6.21,2.43,18.56,18.56,0,0,1,4.83,4.56,22.19,22.19,0,0,1,4.36,12.34A29.45,29.45,0,0,1,427.1,277.63Zm-.18-.08a29.36,29.36,0,0,0,2.48-12.79,21.62,21.62,0,0,0-4.49-12.09,16.88,16.88,0,0,0-10.83-6.55,29.31,29.31,0,0,0-6.49-.1c-2.17.19-4.37.42-6.53.71A58,58,0,0,0,388.43,250a76.48,76.48,0,0,0-11.89,5.44c-1.89,1.07-3.76,2.23-5.63,3.38s-3.68,2.35-5.42,3.64a44.13,44.13,0,0,0-4.92,4.22,55.63,55.63,0,0,0-4.25,4.91,23.3,23.3,0,0,0-3.33,5.4,11.47,11.47,0,0,0-.77,2.95,11,11,0,0,0,0,1.52,6.87,6.87,0,0,0,.14,1.5,13.6,13.6,0,0,0,2.71,5.51,27.28,27.28,0,0,0,4.27,4.7,31.87,31.87,0,0,0,11.1,6.16A33.52,33.52,0,0,0,383,301a56.42,56.42,0,0,0,6.45-.67c2.16-.34,4.34-.68,6.46-1.11a46.46,46.46,0,0,0,18-7.33,47.76,47.76,0,0,0,5.28-3.88A29.27,29.27,0,0,0,426.92,277.55Z"/><path class="cls-11" d="M454.93,290.19c-3,4.22-5.41,4.64-10.31,8.95-.17.15-2.36.3-2.76.53-1,.58,1.08.74.72.91-1.67.8-4.19,1.55-1.24,1.86.38,0-.5.58-.76.89-1.61,1.9-3.42,4.26-5.89,7.48-6.93,9.06-7,11-11.48,14.79-3.81,3.28-6.83,5.62-11.35,5-5.82-.81-9.59-6.67-12.19-5.58-2.05.86-.62,5.28-3.31,7-2.1,1.35-3.77-.82-9.15-.77a26.86,26.86,0,0,0-9.14,1.94c-4,1.42-3.68,2.12-5.84,2.53-4.06.77-7.67-1.21-12.06-3.7-6.64-3.75-8.76-6.83-10.12-6-2.18,1.28,2.58,9.51-1.17,13.82-1.38,1.58-3.3,1.92-5.64,2.33-6.92,1.22-12.73-1.53-15.57-2.92-3.67-1.79-9.87-4.82-13.82-11.87-5.73-10.23-2.16-20.79-.78-24.9,1.28-3.8,2.36-7,5.45-9,3.68-2.33,6.22-.37,13-2.53a27.56,27.56,0,0,0,9.15-4.86c2.31-1.93,7.4-4,10.59-5.74a10.74,10.74,0,0,0,0,1.7c.28,3.16,1.83,5.35,3.31,7.4,5.54,7.66,13.84,10.32,16.35,11.09,8.29,2.54,15.15,1.31,21.4.19,4.92-.88,12.56-2.33,20.63-7.78,4.34-2.94,10.57-7.15,14-15.37.93-2.22,4.95-11.83.39-21.21a20.78,20.78,0,0,0-3.8-5.56c3-.74,8.15-1.93,11.87-.72,4.87,1.58,6.78,6.3,12.17,12.75,7.2,8.63,9.66,12,10.6,17.41C459.06,284.91,456.19,288.41,454.93,290.19Z"/><path class="cls-12" d="M241.66,500.1c-2.88,0-64,.82-68.92,0h0l-.13,0s7.37-38.35-24.07-98.54c-6-11.44-19.78-33.32-36.84-36.84-6.29-1.3-15.17-4.73-21.56-1.57-5.74,2.84-7.79,7.49-14.9,7.66a11.32,11.32,0,0,1-2.83-.2,2.76,2.76,0,0,1-2-1.22c-1.24-2.52,4.53-7.68,6.1-9.08,5.33-4.77,12.68-9,23.48-11.68,8.64-2.11,16.35-2.41,24.39-2.72,6.44-.26,9.57-1,16.22-2.15s9.05-2.57,13.75-5.12c4.22-2.29,9.08-5.71,9.08-5.71,2.78-2.21,6.37-4.3,7.14-3.78s.45,3.13.19,7c-.06.94-.23,4.73,2.08,5.7,2.54,1.08,4.47-1.38,6-.26a1.37,1.37,0,0,1,.5.86v0a4.74,4.74,0,0,1,.06.88c0,.73-.14,1.61-.18,2.53a24.17,24.17,0,0,0,1.94,11.35c7.13,17.41,24.07,45.21,24.07,45.21,16.83,32,17.13,30.88,29.38,71l.21.67a.5.5,0,0,1,0,.13C242,497.68,241.66,500.1,241.66,500.1Z"/><path class="cls-13" d="M172.58,500.1l.13,0c-28,.24-172.21-1-172.21-1S1,424.54,2.18,416.61c.39-2.53,8.72-5.82,29.57-18.68,15.22-9.38,32-21.16,40.63-27.32a11.32,11.32,0,0,0,2.83.2c7.11-.17,9.16-4.82,14.9-7.66,6.39-3.16,15.27.27,21.56,1.57,17.06,3.52,30.87,25.4,36.84,36.84C180,461.75,172.58,500.1,172.58,500.1Z"/><path class="cls-14" d="M400.45,500.1c-10.9.06-89.75.37-109.24,0-1.94,0,3.15-7.9,10.38-19.92,10.57-17.56,14.62-21.14,17.13-23.1a46.12,46.12,0,0,1,17.64-8.56A45,45,0,0,1,361,450.08c13,4.32,20.34,12.92,24.39,17.64,8.66,10.11,11.85,20.24,13.75,26.47C400.15,497.47,401.45,500.09,400.45,500.1Z"/><path class="cls-13" d="M416,386.44c.16,0,3.84-9.18,8.6-11.22,4.33-1.86,11.25,3.77,13.75,5.06,18.57,9.64,27.84,29.05,31.91,37.37,34.73,70.83,39.21,82.82,31.14,82.82-21.67,0-44.73-.37-60.33-.37"/><path class="cls-12" d="M440.05,500.1H408.1c-.47,0-.59-1.65-.58-4.69v0c0-5.16.41-14.28.11-26.13-.06-2.43-.15-5-.28-7.63a78.51,78.51,0,0,0-11.57-37.94c-4.6-7.33-8.42-15-12.2-18.28q3-.87,6-2c6.56-2.44,17.69-7.46,25.92-16.46.29.42.57.85.84,1.28,7.91,11.94,13.69,24.74,16,32a142.12,142.12,0,0,1,6,35.81c.91,16.91,1.42,22.41,1.55,32.95,0,3.33.47,6.46.61,8.55C440.6,499.13,440.55,500.1,440.05,500.1Z"/><path class="cls-13" d="M407.52,495.38v0c-.14,1.93-.28,3.51-.39,4.69h-6.68c1,0-.3-2.63-1.3-5.91-1.9-6.23-5.09-16.36-13.75-26.47C381.35,463,374,454.4,361,450.08a45,45,0,0,0-24.65-1.56,46.12,46.12,0,0,0-17.64,8.56c-2.51,2-6.56,5.54-17.13,23.1-7.23,12-12.32,19.88-10.38,19.92H241.66s.38-2.42-6.77-25.87a.5.5,0,0,0,0-.13c-7-25.76-13-43.4-19.86-55.22-8.47-14.49-15.24-29-23.84-43.41-4.38-7.35-9.61-14.23-10.35-22.75-.14-1.67-1.09-6.05-1.37-9.34a4.74,4.74,0,0,0-.06-.88v0a6.56,6.56,0,0,1,.26-2.62,3.55,3.55,0,0,1,1.26-1.25l0,0,1-.65.11-.07a20.1,20.1,0,0,0,4.65-3.51h0c1.73-1.43,3.38-2.93,4.8-4.31a.12.12,0,0,1,0-.05,46.58,46.58,0,0,0,4.4-4.57l.1-.11a22.39,22.39,0,0,0,3.56-4.95,8.92,8.92,0,0,0,.42-1c1.89,5.77,7,14.44,10.76,22.81a217.91,217.91,0,0,0,18.16,32.95c7.84,11.59,15.69,19.84,31.4,36.33,23.44,24.61,29.53,27.6,34,29.32,4.74,1.82,19.27,7.17,34,1,3.76-1.57,11.48-4.8,15.56-13.24,4.2-8.69,2-17.47,1.24-19.74a101.58,101.58,0,0,0,37.7-3.18,107.7,107.7,0,0,1,7.7,11.18c.4.67,8.5,11.85,12.65,25.75a122.06,122.06,0,0,1,4.46,26.7C407.93,481.1,407.54,490.22,407.52,495.38Z"/><path class="cls-15" d="M241.66,500.1c-2.39-9.42-4.63-18-6.77-25.87"/><path class="cls-15" d="M179.44,343.38c0-.3-.05-.6-.06-.88"/><path class="cls-15" d="M181.92,337.94c-.36.22-.7.44-1,.65"/><path class="cls-15" d="M191.49,330c-2.16,2-3.93,3.32-4.8,4.31"/><path class="cls-15" d="M199.6,320.36a42.48,42.48,0,0,1-3.56,4.95"/><path class="cls-15" d="M407.63,469.25a195.23,195.23,0,0,1-.11,26.13"/><path class="cls-16" d="M361.78,234.82c-.57,2.17-1.19,4.57-1.83,7.27-.27,1.15-.52,2.24-.75,3.25a29.82,29.82,0,0,0-6.88.54c-7.24,2.14-9.94,9.84-10.25,10.77-1.28,3.83-.77,9.62-.36,11.68a11.68,11.68,0,0,1-6.86-1.92,7.69,7.69,0,0,1-2.05-2.09,53.26,53.26,0,0,1,1.21-6,43.46,43.46,0,0,1,7.65-16.47c3.22-4.15,6.27-8.09,11.42-8.83A15.59,15.59,0,0,1,361.78,234.82Z"/><path class="cls-17" d="M361.78,234.81a15.59,15.59,0,0,0-8.7-1.78c-5.15.74-8.2,4.68-11.42,8.83A43.46,43.46,0,0,0,334,258.33a53.26,53.26,0,0,0-1.21,6c-1.15-1.66-2-4-3.21-7.44a51.07,51.07,0,0,1-3.11-14.6,30.54,30.54,0,0,1,.81-9.1,87.66,87.66,0,0,1,11.5-11.91c5.87-5.22,9.78-8.59,15.18-8.57,3.16,0,7.26,1.67,9.56,2.95C365.68,220.57,364.22,225.49,361.78,234.81Z"/><path class="cls-18" d="M363.61,216.21c-2.3-1.28-6.4-2.93-9.56-3-5.4,0-9.31,3.35-15.18,8.57a87.66,87.66,0,0,0-11.5,11.91c1.14-5.12,3.62-12.38,8.53-25.53,6.59-17.66,8.64-22.06,11.87-22.19,3.55-.14,7,4.93,8.37,8,2.47,5.5.28,9,3.31,15.57,1.48,3.2,2.36,3.14,3.69,5.64A8.23,8.23,0,0,1,363.61,216.21Z"/><path class="cls-6" d="M363.65,216.25a33.6,33.6,0,0,0-5.18-2.12,14.65,14.65,0,0,0-5.45-.71,13.06,13.06,0,0,0-5.21,1.66,29.45,29.45,0,0,0-4.52,3.18c-1.43,1.18-2.8,2.42-4.18,3.66s-2.75,2.49-4.08,3.78a72.18,72.18,0,0,0-7.42,8.22l-.83,1.11.3-1.35A105.63,105.63,0,0,1,330.2,223c1.17-3.52,2.42-7,3.69-10.49l3.83-10.42c1.31-3.47,2.64-6.93,4.22-10.31a19.2,19.2,0,0,1,3-4.85,4.17,4.17,0,0,1,2.73-1.38,5,5,0,0,1,2.92.78,14,14,0,0,1,4,4.07,19.66,19.66,0,0,1,2.53,5.06,20.17,20.17,0,0,1,.79,5.58,23.41,23.41,0,0,0,.68,5.43,18.5,18.5,0,0,0,.88,2.6,14.77,14.77,0,0,0,1.23,2.45c.47.77,1.11,1.45,1.64,2.22a11.29,11.29,0,0,1,.73,1.2A12.81,12.81,0,0,1,363.65,216.25Zm-.07-.07-.64-1.18a10.85,10.85,0,0,0-.77-1.14c-.55-.73-1.21-1.39-1.74-2.17a18.34,18.34,0,0,1-2.35-5.08c-1.15-3.63-.56-7.5-1.73-10.91a18.55,18.55,0,0,0-2.5-4.79,13.25,13.25,0,0,0-3.77-3.73,4.26,4.26,0,0,0-2.36-.65,3.21,3.21,0,0,0-2.08,1.09,18.42,18.42,0,0,0-2.8,4.57c-3,6.7-5.57,13.68-8.2,20.59-1.3,3.47-2.57,6.94-3.78,10.43a107.49,107.49,0,0,0-3.19,10.6l-.53-.25a70.82,70.82,0,0,1,7.55-8.22c1.34-1.28,2.73-2.53,4.13-3.75s2.79-2.45,4.24-3.61a29.16,29.16,0,0,1,4.61-3.16,13.19,13.19,0,0,1,5.33-1.63,14.55,14.55,0,0,1,5.52.78c.89.28,1.76.61,2.61,1A17,17,0,0,1,363.58,216.18Z"/><path class="cls-19" d="M359.2,245.34c-2.9,13.08-2.14,15.41-5.67,18.54a18.63,18.63,0,0,1-11.82,4.45c-.41-2.06-.92-7.85.36-11.68.31-.93,3-8.63,10.25-10.77A29.82,29.82,0,0,1,359.2,245.34Z"/><path class="cls-20" d="M350.05,264.31c-6.66,5.43-15.35,10.33-19.46,11.67-9,2.95-15.24,2.15-18.88,7.69-1.33,2-1.36,1-3.4,5.84-2.5,5.86-3.68,8.5-6.23,13.81-.95,2-4.37,9.4-5.26,13.51a5.85,5.85,0,0,1-1-.31c-2.36-.95-5.55-5.14-5.9-7.65-.94-6.6,5-19.53,8.36-25.3,1.66-2.86,6.69-7.48,9.54-9.15,3.64-2.12,16.15-4.86,16.15-4.86S349.46,264.5,350.05,264.31Z"/><path class="cls-4" d="M347.13,293.88c-1.17,2.68-5.82,6.57-8,8.53a55.92,55.92,0,0,1-8.37,5.87c-4.56,2.43-14.5,5.53-19.46,7-3.42,1-10.44,2.51-14.5,1.54.89-4.11,4.31-11.54,5.26-13.51,2.55-5.31,3.73-7.95,6.23-13.81,2-4.81,2.07-3.81,3.4-5.84,3.64-5.54,9.83-4.74,18.88-7.69,4.11-1.34,12.8-6.24,19.46-11.67C350.05,264.31,350.1,287.07,347.13,293.88Z"/><path class="cls-21" d="M247.4,278.44c-1,.34-6.27-.76-6.91-.13s1,2.64,1.17,2.79a65.34,65.34,0,0,0,18.64,9.5c5.34,1.74,17.62,6.68,21.67,8.4a23.28,23.28,0,0,0,6.32,2.73c1.36.37,2.17.88,3,.58,1.78-.6,2.85-2.59,3.12-4.57.29-2.14,1-3,.35-3.89-.88-1.18-3-.79-6.14-.26-2.92.48-3,1-4.53,1.12-2.9.28-5.16-.42-9.5-2.65-3.88-2-2.23-1.19-9.7-4.8-6.89-3.33-9.7-4.49-10.7-5.12C251.66,280.52,249.54,277.71,247.4,278.44Z"/><path class="cls-20" d="M456.62,247.14c-.05.33-.11.66-.16,1-.22,1.38-.45,2.63-.69,3.76-2.34-.49-9.58-1.7-13.26-1.55s-8.4,1.47-10.78,2c-3.19-1.34-8.88-3.7-12.57-4.93a133.8,133.8,0,0,0-13.89-3.93c1.53-1.72,4.5-5.64,7.86-7.68,5-3.06,8.79-4.09,22.31-5.45,17.09-1.72,18.77-.46,20.37,1.29C458.05,234.1,458,238,456.62,247.14Z"/><path class="cls-4" d="M455.92,251.2c-.73,1.88-.84,3-1.13,3.44a26.54,26.54,0,0,1-5.84,6.5,7.94,7.94,0,0,1-1.79,1.14h0a49,49,0,0,1-17.62,2.88"/><path class="cls-21" d="M466.4,251.63c-2.56,4.93-11,5.27-12.09,5.35a43.13,43.13,0,0,0,2.09-6.75c.27-1.12.53-2.36.78-3.74q.09-.51.18-1c2.48-.75,8,.26,9,1.73A4.26,4.26,0,0,1,466.4,251.63Z"/><path class="cls-16" d="M403.49,215c-.14.65-.28,1.32-.44,2-.34,1.47-1.09,4.4-2.67,10.49a42.23,42.23,0,0,0-7.72,3.78c-6.83,5.17-7.86,15-8.08,18a32.45,32.45,0,0,1-6.44.41,1.66,1.66,0,0,1-1.61-1.37c0-4.44,1-18.44,8.57-26.49a20.63,20.63,0,0,1,10.31-6.52A33.48,33.48,0,0,1,403.49,215Z"/><path class="cls-17" d="M403.49,215a33.48,33.48,0,0,0-8.08.31,20.63,20.63,0,0,0-10.31,6.52c-7.55,8.05-8.56,22.05-8.57,26.49-.57-1.76-.31-5.19.18-10.31,1-10.54,1-18,2-23.22.45-.85,8.29-11.77,16.73-12.32a32.47,32.47,0,0,1,9.2,1.6A50.58,50.58,0,0,1,403.49,215Z"/><path class="cls-18" d="M404.6,204a32.47,32.47,0,0,0-9.2-1.6c-8.44.55-16.28,11.47-16.73,12.32a72.1,72.1,0,0,1,3.14-11.18c1.47-3.07,2.21-4.65,2.23-8.86a17.33,17.33,0,0,1,4.35-10.84c1.86-2.21,3.33-4,5.32-4,4.78-.16,8.73,9.36,9.08,11A64.32,64.32,0,0,1,404.6,204Z"/><path class="cls-6" d="M404.62,204.06a39.17,39.17,0,0,0-7.55-1.48,12.68,12.68,0,0,0-7.27,1.81,27.14,27.14,0,0,0-6,4.66,36.83,36.83,0,0,0-4.87,5.83l-.8,1.22.26-1.41c.53-2.81,1.26-5.55,2.06-8.28.21-.68.42-1.36.66-2,.12-.33.25-.68.41-1l.45-1a17.16,17.16,0,0,0,1.37-3.91,23.88,23.88,0,0,0,.3-4.17,15.69,15.69,0,0,1,.73-4.3,20.16,20.16,0,0,1,4.43-7.39,10.9,10.9,0,0,1,3.35-2.91,4.55,4.55,0,0,1,1.16-.33,4.82,4.82,0,0,1,1.2,0,7.44,7.44,0,0,1,1.14.33,10.73,10.73,0,0,1,1,.56,12.11,12.11,0,0,1,3,3.2,26.27,26.27,0,0,1,2.14,3.75,16.76,16.76,0,0,1,1.44,4.08c.26,1.4.52,2.79.75,4.2A44.77,44.77,0,0,1,404.62,204.06Zm-.05-.08c-.1-1.33-.2-2.8-.4-4.18s-.44-2.79-.71-4.17-.59-2.77-.91-4.15a17.76,17.76,0,0,0-1.49-3.87,17.47,17.47,0,0,0-5-6.48,3.58,3.58,0,0,0-3.54-.51,10.2,10.2,0,0,0-3,2.64,20.46,20.46,0,0,0-4.32,7,15.09,15.09,0,0,0-.75,4.05,24.17,24.17,0,0,1-.38,4.29,17.18,17.18,0,0,1-1.47,4.07,18.65,18.65,0,0,0-.85,1.91c-.25.66-.47,1.33-.68,2a80.63,80.63,0,0,0-2.14,8.18l-.54-.18a37.19,37.19,0,0,1,5-5.9,27.72,27.72,0,0,1,6.19-4.63,13,13,0,0,1,7.45-1.73,35.15,35.15,0,0,1,3.81.62A25,25,0,0,1,404.57,204Z"/><line class="cls-22" x1="454.71" y1="200.04" x2="454.7" y2="200.04"/><path class="cls-19" d="M400.38,227.44c-.79,3-1.79,6.86-3,11.69-.59,2.27-.46,5-2.72,6.23a33,33,0,0,1-10,3.87c.22-3,1.25-12.84,8.08-18A42.23,42.23,0,0,1,400.38,227.44Z"/><path class="cls-4" d="M384.58,249.23c0,.22,0,.41,0,.56"/><path class="cls-4" d="M401,227.21c-.18.06-.39.13-.63.23"/><path class="cls-9" d="M354.94,272.12c-.56,1.52,4.26-15.45,13.78-19.6a16.88,16.88,0,0,1,7.48-1.84c.86,0,6.7.81,6,.88C373.62,252.47,357.23,265.9,354.94,272.12Z"/></g></g></svg>