<svg xmlns="http://www.w3.org/2000/svg" viewBox="0 0 368.65 392.13"><defs><style>.cls-1{fill:#441213;}.cls-2{fill:#844041;}.cls-3{fill:#906958;}.cls-4{fill:#1d1d1b;}.cls-5{fill:#7c756d;}.cls-6{fill:#c7a69b;}.cls-7{fill:#eaf4e8;}.cls-8{fill:#abb94e;}.cls-9{fill:#060607;}.cls-10{fill:#75555f;}.cls-11{fill:#e8e7db;}.cls-12{fill:#09080c;}.cls-13,.cls-23,.cls-24{fill:none;}.cls-13,.cls-22,.cls-23,.cls-24,.cls-25{stroke:#1d1d1b;}.cls-13,.cls-14,.cls-16,.cls-18,.cls-22,.cls-23,.cls-24,.cls-25{stroke-miterlimit:10;}.cls-13,.cls-14,.cls-16{stroke-width:2.04px;}.cls-14{fill:#c79d88;}.cls-14,.cls-16,.cls-18{stroke:#644e4d;}.cls-15{fill:#644e4d;}.cls-16{fill:#a3273c;}.cls-17{fill:#f6b1aa;}.cls-18{fill:#b19d7a;}.cls-18,.cls-22,.cls-23,.cls-25{stroke-width:1.02px;}.cls-19{fill:#381310;}.cls-20{fill:#9b3f51;}.cls-21{fill:#624637;}.cls-22{fill:#7c8292;}.cls-23,.cls-24{stroke-linecap:round;}.cls-24{stroke-width:1.53px;}.cls-25{fill:#604130;}</style></defs><g id="Layer_2" data-name="Layer 2"><g id="Layer_36" data-name="Layer 36"><path class="cls-1" d="M220.31,381.81c-2.91-1.29-11.68-6.19-12.59-11.39-.81-4.59-6.17-8.35-7.16-8-3,1.19-1.36,11.22-3.18,11.53-1.41.24-3.37-5.73-7.95-17.89-4.64-12.32-6.06-15.33-7.16-17.49-3.78-7.44-9.45-16.12-10.74-15.51s.86,13.34,6.23,24.79c3.81,8.1,5.19,13.39,4.64,14s-6.28-.51-10.87-3.84c-3.16-2.3-7.34-6.54-12.32-21.87-4.78-14.72-4.64-22.23-6.36-22.26-2.2,0-7.5,12-4,23.06,3.35,10.52,3.45,14.44,4.64,17.89.19.55,2.89,8.55.47,9.25-3.86,1.11-16.55-19.78-17.43-20.78-3.63-4.14-12.34-13.8-14.71-12.33-2,1.24-1.46,8.75-1.86,18.29-.13,3.11-2,6.48-2.92,8.88-.39,1-10.26-7.27-14.31-14.44-5.51-9.75-5-18.23-6.76-18.29-.31,0-.75.31-4.37,9.14-1.59,3.86-1.75,4.4-2,4.38-2.23-.19-1-46.49-2-46.52-.69,0-9.08,21.14-9.08,21.14,0,.19-3.47,6.09-6,6.09-1.39,0-.33-41.83-1.79-43.93-2.08-3-13.26,2.28-13.58,2.12,0,0,23-19.84,22.53-25.18-.34-3.61-10.23-2.52-19.88-9.15-7.69-5.28-7.65-4.88-17.69-21.67-9.7-16.19-14.61-30.36-25.25-36-11.11-5.87-18.06-3.26-16.7-6C1,178.32,11.29,171.31,18,168c1.41-.69-10.23-.73-9.26-1,15-4.5,36.53-5.34,38.34-10.84,1.65-5-3.5-6.34-1.6-8.27s7,.36,17.4,2.74c5.65,1.29,10.71.3,18,0,1.73-.08,3.43-.19,5.08-.32,4.07-.32-11.84-8.25-8.36-8.78,9.09-1.39,35.57,4.27,38.27,3.54,22.59-6.14,27.54-9.7,71.57-26.64,22.16-8.53,32.26-12,37.37-22.67,4-8.28,4.5-20,6-19.88,1.31.11.66,9.35,3.18,9.94,3.5.83,9.85-15.92,12.32-15.1,1.47.48-.35,6.56,2,8,3.21,1.9,9.31-7.89,13.52-6.76,8.32,2.23,11.34,51.84,13.32,58.25,2.58,8.35,29.89,6.29,29.49,8.68-.15.86-10,2.68-10.9,2.8-3.71.46-10.14-.35-11.77,4.89-4.67,15.08,26.95,68.06,36.32,115.43,6.28,31.73,2.16,55.91.4,56.06-.93.08-1.87-6.35-8-12.72-2-2.09-3.89-4.08-5.16-3.58-2.65,1.05-.82,10.2-2.52,26.51-.84,8-.63,13.2-3.85,15.24-.84.53-7.55,4.37-7.15,1.19.16-1.33-.81-8.16-5.44-22.53-2.29-7.12-6.54-9.38-6.89-9.28-.74.22,1.86,11.14-.79,18.69-1,2.86-6.3,5-9.41,4.71-2.35-.24-6.35-1.38-7.59-2.92-1.38-1.72-.07-14.11-.76-14.51-3.9-2.23-13.46,12.82-9.81,22.26,2.35,6.09,8.88,13.59,11.27,17.5,3.94,6.46,3.68,7.57,6,11.93,3.51,6.7,4.32,20.77,3.48,21.47-1.1.91-10.3-.89-23.76-3.58C223.84,383.42,222.69,382.87,220.31,381.81Z"/><path class="cls-2" d="M79.07,190c2.09-1.94,8.09,1.79,9,.26.83-1.38-3.5-5.37-3.71-5.56-5.94-5.41-12.59-7.05-15.91-8-17.7-4.85-15.28-9.5-25.18-10.08-8.16-.47-7.24,2.84-26.5,6.1-7,1.19-11.56,1.5-11.93,3.45-.44,2.3,5.57,4.11,11.66,9,6.54,5.26,7.63,9.63,14.31,20.94,6,10.06,10.82,18.28,18.82,26.24,5.11,5.08,17.47,17.36,27.57,13.78a13.67,13.67,0,0,0,6.1-4.77c7.54-9.34,3.82-23.84,2.38-29.42C82.53,199.63,76.59,192.23,79.07,190Z"/><path class="cls-2" d="M245.59,95a14.27,14.27,0,0,1-1-11.73c.3-.78.87-2,7.75-8.55,5.77-5.48,6.48-5.67,7.16-5.57,1.21.18,3.14,1.41,6.56,16.11,1.92,8.26,1.81,10,3.58,19.08,2.47,12.69,4.26,17.31,2.38,18.49-.58.36-1.62.47-9.14-4.37-5.67-3.65-13-8.41-12.33-9.94.49-1,4.08.55,10.54-.6,2.22-.4,4.87-.87,5-1.79C266.31,103.84,250.83,104.11,245.59,95Z"/><path class="cls-3" d="M267.91,384.75c-6.23.27-27.41-2.13-43.74-9.54-2.4-1.09-.21-5,.4-6.76,1.31-2.87,3.66-3.54,3.58-5.17-.11-2.25-4.75-3.65-6.76-4.37-13.1-4.67-22.54-18.75-20.68-21.87,1.12-1.87,6.42-.05,6.76-1.19.4-1.33-6.9-3.82-12.72-7.56-6.88-4.41-7.85-8.09-19.88-25.84-9.5-14-15.55-21.51-14.32-22.66s8.85,5.2,9.55,4.37-5.13-4.53-7.56-11.53c-.3-.87-2.67-8,0-13.12C167,251,187,259.72,190,253.94c1.47-2.86-2-7.07-8.35-15.5-4.84-6.46-14.11-18.84-18.29-25.85-2.69-4.51-13.66-22.91-8.35-44.13,4.25-17,16.6-26.41,19.08-28.23s19.54-13.93,37.78-9.14c21.16,5.55,31.86,30.61,37,27.83,3-1.63-1.26-9.9,4-15.11,1-1,1.95-1.45,15.5-5.17,6.71-1.84,7.16-1.92,8-1.59,6.05,2.55,2.1,16.76,9.14,20.67,3.54,2,5.71-1,8.75.8,1.3.76,2.78,11.66,1.19,38.17-.85,14.1-3.77,18.9-.79,21.47,4.88,4.21,13.93-5.13,23.45-1.19,9.16,3.78,11.64,16.89,12.73,22.66,2,10.52-.24,26.17-9.47,30.88-6.13,3.13-10.33.83-16.77,5.7-2.45,1.85-2.58,3.31-5.57,8.35-4.52,7.61-8.72,14.69-15.51,18.69-3.92,2.31-2.4,1.29-18.82,6.75a31.79,31.79,0,0,0-8.88,4.51c-1.19.84-3.85,3.27-5.7,9.15-2.45,7.81-1.12,16.14,4.38,24.51,4.3,6.56,9.3,11.85,12.72,19.88a23.83,23.83,0,0,1,2,8.35C269.15,377.55,270.79,384.63,267.91,384.75Z"/><path class="cls-4" d="M194.36,158.76c-.42.84-3.37-1.07-6.09.26-2.15,1-3.57,3.84-4.24,11.14-1.15,12.51,1.55,20.35,0,20.94-1.21.46-4.16-3.76-5.84-7.43-4.76-10.43-.93-20.3,0-22.53,1.6-3.77,3.3-7.82,6.9-8.48C189.89,151.79,195,157.55,194.36,158.76Z"/><path class="cls-5" d="M201,186.66c-4.88,5.86-4.58,14.1-3.86,19-2.84-10.16-4-15.67-.9-20.66,4.29-6.9,14-8.54,21.25-8.29C204.44,184.15,201,186.66,201,186.66Z"/><path class="cls-6" d="M254.38,247.25a22.45,22.45,0,0,1-6.72,6.66s0,0-.06,0a21.2,21.2,0,0,1-2.76,1.51,24.88,24.88,0,0,1-6.62,1.86,4.88,4.88,0,0,1-.53,0c-6.31.41-12.65-3.92-17.61-8.6a3.62,3.62,0,0,1-.29-.28,84.83,84.83,0,0,1-8.36-9.42,72.8,72.8,0,0,1-12.27-24.56c-.56-1.78-1-3.48-1.5-5.13-.34-1.23-.67-2.37-1-3.47-.71-4.87-1-13.1,3.86-19,0,0,3.44-2.51,16.49-10h0c1.41.06,2.72.19,3.89.35a33.46,33.46,0,0,1,19.35,10.34c4.2,4.56,4.16,7.15,8.25,23.09.74,2.82,1.59,6.05,2.62,9.78.77,2.8,1.47,5.28,2.1,7.48C256.12,238.16,257.14,242.8,254.38,247.25Z"/><path class="cls-7" d="M245.76,255c-5.36,2.93-11.85-.51-14.31-1.34-9.57-3.23-14-11.84-15.9-15.64a35.55,35.55,0,0,1-3.71-21.47c.72-4.7,2.06-13.55,9.54-18a18.71,18.71,0,0,1,12.73-2.12c8.4,1.52,12.78,8.63,14.84,11.92,5,8.08,2.94,16.44,4.77,21.47C259.21,245,253.57,250.73,245.76,255Z"/><path class="cls-8" d="M226.78,197.21c-2.05,1.9-1.28,5.6-.79,7.95a20.13,20.13,0,0,0,9.34,13.13c.67.38,8.06,4.61,11.13,1.78,2.35-2.15.8-7.16,0-9.74-.56-1.8-3.42-10.23-11.33-13.12C233.7,196.69,229.14,195,226.78,197.21Z"/><path class="cls-9" d="M233.15,198.47c-1.48,2.14.51,5.37.7,5.66a9,9,0,0,0,5.17,3.48c.36.12,5.86,1.89,7.06,0s-2.29-5.56-3.28-6.66c-1.43-1.59-4-4.4-7-4A4,4,0,0,0,233.15,198.47Z"/><path class="cls-5" d="M287.06,160.56A67.31,67.31,0,0,0,265.87,162l0,0c-1.26-2.88-3.12-6.43-1.57-8.74,2.25-3.37,10.89-2.84,16.69.8A18.13,18.13,0,0,1,287.06,160.56Z"/><path class="cls-6" d="M293.72,208.25v.06c.08,6.11-.55,8.28-1.9,11.34v0c-.16.37-.32.74-.51,1.15a23.65,23.65,0,0,1-3.17,5.13s0,0,0,0c-4.59,5.7-10.87,8.5-12.73,6.76a10.81,10.81,0,0,1-2.24-4.13,16.74,16.74,0,0,1-.47-4.53v0c0-3.95.37-9.73-.23-18.27v0c-.06-.86-.14-1.78-.22-2.7-2-22.29-3-33.47-6.36-41.07a67.31,67.31,0,0,1,21.19-1.43,24.12,24.12,0,0,1,1.33,2.7,53.93,53.93,0,0,1,2.92,10.65c.33,1.67.59,3.12.8,4.45.08.49.14.94.2,1.41v0c0,.23.08.47.1.7a75.87,75.87,0,0,1,.6,7.88c.08,2,.14,4.31.24,7.23v0c.08,2.06.17,4.39.31,7.17C293.66,204.92,293.72,206.72,293.72,208.25Z"/><path class="cls-10" d="M270.78,182.87a63.44,63.44,0,0,0,4.7-9.26c.64-1.6,1.19-3.2,1.81-4.88a9.27,9.27,0,0,1,1.37-2.56,5.19,5.19,0,0,1,2.66-1.71,8.27,8.27,0,0,1,5.76.83,9.83,9.83,0,0,1,4.09,3.89,11.44,11.44,0,0,1,.14,10.51,12.6,12.6,0,0,0-1.46-9.7,8.77,8.77,0,0,0-3.61-3,6.54,6.54,0,0,0-4.39-.61,3.26,3.26,0,0,0-1.69,1,8.54,8.54,0,0,0-1.13,2c-.67,1.56-1.31,3.24-2.13,4.81A34,34,0,0,1,270.78,182.87Z"/><path class="cls-11" d="M276.67,230.6c-6.88-4.07-5.42-22.69-1.95-37.41,4.11-17.4,8-18.83,9.54-19.08,3.74-.6,7.24,3.53,8,4.37,1.29,1.53,4.68,6.15,1.19,32.21-1.22,9.1-2.07,11.79-4.37,14.31C285.23,229.17,280.8,233.05,276.67,230.6Z"/><path class="cls-8" d="M285.38,176.8c-3.34.7-4.61,5-4.78,5.57-1.12,3.82.56,7.14,2.19,10.33,1.3,2.54,2.78,5.47,5.37,5.77a5.21,5.21,0,0,0,3.58-1.19c4.09-3.16,4.67-11.88.59-16.9C291.86,179.79,288.84,176.07,285.38,176.8Z"/><path class="cls-12" d="M292.73,188.62c-1.87,1.43-5.15.44-7-1.19a7.28,7.28,0,0,1-2.12-7.16,4.33,4.33,0,0,1,1.72-2.91c2-1.19,5,.26,6.63,2C294.33,181.92,295.07,186.83,292.73,188.62Z"/><path class="cls-10" d="M210,204a80.57,80.57,0,0,1,5.85-12.87,62.85,62.85,0,0,1,3.77-6.06,27.42,27.42,0,0,1,2.28-2.83,11.23,11.23,0,0,1,3-2.46,4.8,4.8,0,0,1,1-.37c.34-.09.65-.12,1-.18a5.32,5.32,0,0,1,1-.1,8,8,0,0,1,1,0,12.37,12.37,0,0,1,3.74.74,19.9,19.9,0,0,1,6.3,3.77,15.15,15.15,0,0,1,4.27,5.91,14.71,14.71,0,0,1,1,7A16.06,16.06,0,0,0,237.8,185a20,20,0,0,0-5.88-3.14,11.32,11.32,0,0,0-3.16-.57,5.09,5.09,0,0,0-.78,0,3.3,3.3,0,0,0-.77.08c-.25.05-.52.09-.76.15a2.94,2.94,0,0,0-.62.24,9.31,9.31,0,0,0-2.42,1.95,32.39,32.39,0,0,0-2.18,2.61c-1.42,1.81-2.69,3.76-4,5.7C214.71,195.94,212.33,200,210,204Z"/><path class="cls-13" d="M287.14,160.56h-.08"/><path class="cls-4" d="M265.67,145.72c-.7,1-1.16,2.8-.4,3.84s2.23.4,8.75.27c2.05-.05,3.06,0,3.45-.67.56-1-.54-2.81-1.73-3.84C273,143,267.59,142.87,265.67,145.72Z"/><path class="cls-14" d="M300.41,275.42c-2.89.51-3.34,6.27-5.3,11.66a37,37,0,0,1-17,19.62c-11.16,5.77-22.64,2.47-25.71,1.59-4.95-1.42-14.05-3.48-17.76-11.67-.21-.45-1.33-6.69,1.91-16.69,2.26-7,2.64-11.24,16.11-22.8,12.25-10.51,10.1-10.49,20.15-18.55,12.28-9.87,20.17-13.67,26.24-15.91,10.54-3.88,15.05-2.86,16.7-2.38,8.31,2.36,12.38,10.05,13.52,12.19,4.65,8.78,3,17.43,2.12,22s-2.51,13.08-9.81,19.08c-1.27,1.05-9,7.41-15.37,5C303.22,277.48,302.36,275.07,300.41,275.42Z"/><path class="cls-15" d="M267.1,247.68a20.84,20.84,0,0,1,13.69-1.79,18.14,18.14,0,0,1,6.56,2.87,20.39,20.39,0,0,1,5,5.15,40.74,40.74,0,0,1,3.3,6.21,32.08,32.08,0,0,1,1.67,20.56,43,43,0,0,0-1.16-13.48,34.6,34.6,0,0,0-2.27-6.28,42.07,42.07,0,0,0-3.23-5.87,18.35,18.35,0,0,0-10.27-7.62A24.15,24.15,0,0,0,267.1,247.68Z"/><path class="cls-16" d="M297.88,260c4.18-.37,6.75-6.12,7.69-8.21.56-1.26,4.68-10.89-.8-17.5a11.1,11.1,0,0,0-6.1-4c-4.67-1-9,2.5-17.49,9.54-5.65,4.68-6,6-5.83,6.89.49,2.46,4.79,1.93,11.13,5.57C293.4,256.27,294.27,260.31,297.88,260Z"/><path class="cls-17" d="M285.39,244.73c.76.71,3.43-.67,8.75-3.45,3.57-1.85,4.59-2.66,4.9-4a4.13,4.13,0,0,0-1.59-4.24c-2.48-1.6-6.58,1.21-8.48,3C286,239,284.16,243.58,285.39,244.73Z"/><path class="cls-18" d="M235,276.56c-2-.72-12.62,6.38-15.57,13.88-1.4,3.55-2.4,4.12-5.05,21.61-1.45,9.6-.73,12.77,1.33,16.56a14.38,14.38,0,0,0,7.16,6.36c9.6,3.65,20.84-5.39,24.92-11.39,4.36-6.43,4.89-10.08,13.38-12.53,1.37-.39-8.06-2-8.87-2.23a84.43,84.43,0,0,1-7.9-3.07c-2.24-1-9.08-1.14-10.1-3.05a22.19,22.19,0,0,1-1.83-13.05C233.81,279.54,236.32,277,235,276.56Z"/><path class="cls-19" d="M246.65,311.12c0,.88-.57,1.51-3.14,3.29a47.88,47.88,0,0,0-10.42-11.53A42.55,42.55,0,0,0,229,300c1.19-6.72,1.06-9.93,1.94-10s1.13,2.54,4.17,8c2,3.53,3.7,6,6.81,7.65C247.08,308.37,246.57,309.46,246.65,311.12Z"/><path class="cls-20" d="M243.51,314.41l-3,2.06c-6.37,4.33-7.56,5.13-9.33,4.78a6.81,6.81,0,0,1-4.19-3.19c-.39-.67-1.15-2.39.8-11.93.3-1.49.32-1.45.61-2.84q.36-1.74.63-3.27a42.55,42.55,0,0,1,4.09,2.86A47.88,47.88,0,0,1,243.51,314.41Z"/><circle class="cls-21" cx="278.86" cy="264.27" r="3.11"/><circle class="cls-21" cx="282.44" cy="278.99" r="2.64"/><circle class="cls-21" cx="268.5" cy="273.72" r="2.63"/><circle class="cls-21" cx="266.93" cy="288.26" r="3.11"/><circle class="cls-21" cx="316.32" cy="232.68" r="2.53"/><circle class="cls-21" cx="318.96" cy="251.28" r="2.65"/><path class="cls-15" d="M324.17,217.91a140.53,140.53,0,0,1,21.62-17.59,139.29,139.29,0,0,0-20.13,19Z"/><path class="cls-15" d="M331.13,233.15l9.42-3.19c3.15-1.07,6.3-2.12,9.4-3.29l18.7-6.87-18.33,7.82c-3.05,1.33-6.14,2.54-9.23,3.77l-9.27,3.69Z"/><path class="cls-15" d="M263.3,275.3l-10.41,0c-3.47,0-6.94.07-10.41.16q-10.41.27-20.81,1,10.35-1.2,20.76-2c3.47-.26,6.94-.51,10.42-.67l10.43-.49Z"/><path class="cls-15" d="M261.17,290.67A141,141,0,0,0,235.72,292a141.75,141.75,0,0,1,25.44-3.4Z"/><path class="cls-22" d="M102.66,113.74c-1.85,4.92-6.81,4.34-11.92,10.74-1.24,1.54-7.08,8.84-4.77,16.3,2.08,6.76,9.55,9.38,11.13,9.94,8.31,2.92,16-.6,19.88-2.39,9.36-4.29,14.25-11.57,16.35-14.78,5.1-7.79,6.41-15.12,6.71-15s-6.47,9.69-4.77,19.49c.46,2.68,1.23,3.71,2.12,4.1,3.19,1.42,8.81-5,10.2-6.62a50.64,50.64,0,0,0,10.08-18.42c-.11,0-6.84,14.17-4.25,16,.94.67,3-.34,5.57-1.59a34.94,34.94,0,0,0,5-3.18c4.06-2.56,7.83.18,14.31.4,6.76.23,11.92-2.43,17.76-5.44,4.8-2.47,8.6-4.43,11.93-8.74,1.72-2.24,6.33-8.23,5-15.77-1.14-6.66-6.46-12-12.06-14-10.08-3.73-19.54,3.66-21.73.53-1.62-2.32,2.49-7.88,5.3-11.67,8.06-10.88,14.06-11.74,16.3-18.09,2.9-8.21-3.39-17.42-4.57-19.08-12.15-17-39.55-12.1-43.14-25-1.28-4.61,1-9.51-1.33-10.67-1.93-1-4.13,2.14-10.86,5-4,1.72-9.68,4.16-13.26,1.85-2.93-1.88-2.6-5.75-4.24-5.83S119.69,6,119,10.23c-1.26,7.31,2.18,9.58,2.12,16.17-.06,5.6-2.78,9.74-8.22,18-6.81,10.37-8.4,8.92-11.66,14.84-6,10.83-7,27.14-2.12,40.29C101.43,105.91,104.33,109.32,102.66,113.74Z"/><path class="cls-23" d="M135.05,15c-1.24.19-12,4-13.39,9.28-1.63,6.05,3.56,13.89,6.5,17.23,6,6.82,17.23,13.08,29.29,16.69,13.05,3.92,21.24,7.72,30.5,5.46,2.5-.61,9.28-2.17,12.31-6.75,3.47-5.25-.28-15.41-3.25-19.46-8.73-11.93-23.82-13.78-33.9-17.79C151.68,15.12,141.36,14,135.05,15Z"/><path class="cls-24" d="M174.88,97.78c2.57-2,6.93-1.45,15.64-.27,3.26.44,4.73.88,5.83,2.12,2.89,3.24.64,9,.53,9.28a10.05,10.05,0,0,1-4,5c-2.49,1.53-4,.68-13.25.27-5-.22-5.68,0-6.63-.8C169.61,110.63,170.15,101.53,174.88,97.78Z"/><path class="cls-25" d="M173.22,113.54c-2.45,2.39-8.73-2.08-19.35-5.83-8.89-3.14-17-6-26-4.77-12.32,1.69-17.4,9.86-22.53,6.89-3.41-2-4.47-7.49-3.45-11.4,1.61-6.12,8.43-8.67,14.32-10.86,2.54-.95,11.49-4.07,28.36-2.92,12.34.84,25.24,1.73,28.1,8.75.31.77.07.56.79,11.93C173.89,111.74,174,112.75,173.22,113.54Z"/><path class="cls-4" d="M160,72a116.29,116.29,0,0,1,21.74-1.06,101.4,101.4,0,0,1-10.84,1A104.28,104.28,0,0,1,160,72Z"/></g></g></svg>