<svg xmlns="http://www.w3.org/2000/svg" xmlns:xlink="http://www.w3.org/1999/xlink" viewBox="0 0 339.11 381.77"><defs><style>.cls-1{fill:#b53323;}.cls-1,.cls-13,.cls-14,.cls-17,.cls-18,.cls-2,.cls-21,.cls-23,.cls-3,.cls-4,.cls-7{stroke:#6c4033;}.cls-1,.cls-13,.cls-14,.cls-17,.cls-18,.cls-2,.cls-21,.cls-23,.cls-24,.cls-3,.cls-4,.cls-7{stroke-miterlimit:10;stroke-width:1.61px;}.cls-2{fill:#efb58e;}.cls-3,.cls-9{fill:#e1d8e4;}.cls-4{fill:#ae422d;}.cls-14,.cls-5{fill:#6c4033;}.cls-6{fill:#602125;}.cls-7{fill:#743028;}.cls-8{fill:#fff;}.cls-10{fill:#491c16;}.cls-11{fill:#cb4a51;}.cls-12{fill:#291f14;}.cls-13,.cls-18{fill:none;}.cls-13{stroke-linecap:round;}.cls-15{fill:#1d1110;}.cls-16{fill:#d7dff2;}.cls-17{fill:#c32232;}.cls-19,.cls-23{fill:#cda992;}.cls-20{fill:#3d1f1e;}.cls-21{fill:url(#linear-gradient);}.cls-22{fill:#333a1c;}.cls-23{opacity:0.78;}.cls-24{fill:#65743f;stroke:#1d1d1b;}.cls-25{fill:#cf5a55;}</style><linearGradient id="linear-gradient" x1="126.27" y1="103.28" x2="334.11" y2="103.28" gradientTransform="translate(-15.28 19.75) rotate(-6.3)" gradientUnits="userSpaceOnUse"><stop offset="0" stop-color="#d1dcd8"/><stop offset="1" stop-color="#5e6d26"/></linearGradient></defs><g id="Layer_2" data-name="Layer 2"><g id="Layer_34" data-name="Layer 34"><path class="cls-1" d="M125.53,119.51c-1.35-4.8-2.43-6-3-8.12-3-10.74-10.47-22.14-14-21-2.12.68-1.36,5.26-2.54,11.17-2.75,13.82-12.26,15.75-19.19,27.26a85.75,85.75,0,0,0-12.09,53.71c.62,5.6-8,7.17-8,7.17-7.7,4.94-16.73,1.39-21.3,6.33-3.44,3.72.34,9-3,11.22-4.75,3.25-12.6,5.84-19.26,12.44-4,4-12.25,14.76-12.43,18.35-.23,4.58,1.19,9.46,3,15.18,1,3.31,5.06-6.27,6-1.33,1.15,6.17.46,22.75,1.93,24.22,1,1,5.14-1.93,6.19-1.14s6,12.18,7.22,12.7c1.92.83,2-3.41,2.83-4.24.44-.42,1.51-3,10.28.59,4.45,1.81,6.34,5.16,6.7,7.54.61,3.95-5.13,7.75-5.8,8.18-7.87,5.08-14.56.36-21.16,5.69-3,2.43-2.59,4.2-5.29,5.19-6.22,2.29-14.53-4.88-14.39-5.11S23.4,312,22.7,315.22C21.9,318.9.86,317,.8,318.06c0,.72,10.32,3.32,23.55,4.52,6.51.59,9.67,2.82,11.67,6.15a47,47,0,0,1,3.92,7.95c2.79,6.93,15.2,1.44,19.62,8.83,2.47,4.13-1,6.83.26,13.8,1.45,7.92,8,15.6,15,18.45,10.64,4.3,17.27-4.5,40.8-9.95,7.7-1.78,15.2-2.3,30.22-3.34,24.49-1.69,36.73-2.53,46.91-.15,27.13,6.36,35.39,20.21,48.67,15.79,11.56-3.85,16.77-9.4,25.1-19.32,5.21-6.21,11.7-.75,15.3-4.44,6.32-6.48.45-15.87,7.49-24.63,4.13-5.14,4.29-4.57,5.51-9.17,1.68-6.32-3.92-13.09-1.63-16.24,1.33-1.84,4.41-.09,5.7-1.47,4.52-4.86-21.87-36.81-21.35-49.18.23-5.5,8.45-3.38,17.54-10.52,19.21-15.1,17.45-24.08,28.31-48.59,4-9.07,9.86-15.49,13.76-19.54,1.92-2-2.38-3.82-3.65-3.68a305.68,305.68,0,0,0-40,3.06c-9.93,1.46-7.36-.18-30,1.63-17,1.35-16.25,2.1-27,2.56-21.31.9-32.72-1.72-35.46-2.37a116.43,116.43,0,0,1-16.09-5.35c-12.29-4.73-23.83-9.16-36-18.65-5-3.88-15.92-12.43-19.66-22.55C129,130.66,127.31,125.85,125.53,119.51Z"/><path class="cls-2" d="M67.5,308.31c9.66-7.11,14.69-12.12,24.66-17.6,12.14-6.69,18.5-8.67,48.63-43.39C175.76,207,180,206,184.49,204.8c11.47-3.13,34.92-7,47.32,7.33,9.13,10.55,13.66,19.5,9.46,30.45-11.11,29-41,44.43-39.22,48.95,1.61,4.15,7.45,2.42,16.13,9.54,1.66,1.35,14.09,15.62,10.66,26.26C223.26,344.62,210.4,352,206,353c-3.47.8-6.18-.31-10.69-2.9-7-4-15.22-2.67-33.94,0-21.24,3.05-18.67,2.44-19.81,2.78-15.69,4.67-17,11.74-34.92,19.57C95.37,377.38,87,381,78.92,377.4c-7.78-3.46-14.23-13.09-15-22.22-.5-5.74,1.51-8.12-.68-11.87s-5.45-3.69-14.75-8.42c-5.05-2.57-10.29-4.91-9.74-7.1s6.08-1,13.4-5.25C58.57,318.76,61.56,312.68,67.5,308.31Z"/><path class="cls-2" d="M58.27,302.89c5.56.48,13.74-8.55,21.1-13.45,4.77-3.18,23.51-16.14,40.87-43.48,12.67-20,24.49-38.58,17.56-53.48-.52-1.12-4.58-9.51-13.56-12.74-9.58-3.46-18.71,1.12-21.11,2.33-19.61,9.83-25.57,37.82-26.38,41.87-2.31,11.53-1.76,22.93-7.33,24.7-2.67.84-4-1.38-8.92-1.11a17.9,17.9,0,0,0-11.79,8.52,17,17,0,0,0-1.17,15.06c3.3,6.84,6.53,11.68,8.51,17.78,1.46,4.47-1.28,13.54,2.22,14"/><path class="cls-3" d="M198.91,256.14a20.31,20.31,0,0,1-.48,2.1c-2,6.5-8.27,13.28-17.35,17.95-16.38,8.41-50.9,7.19-50.9,7.19-1-2.75,4.8-11.71,12.91-20.86-4,5.58-4.85,11.73-1.84,14.14,3.2,2.57,9.6-.07,14.27-5.92s5.87-12.64,2.66-15.21c-2.44-2-6.75-.87-10.75,2.37.78-.82,1.56-1.62,2.37-2.4,0,0,0,0,0,0,3.73-2.57,16.95-4,21-4.55,6.06-.85,8.71-.54,13.1-.86S196.17,253.39,198.91,256.14Z"/><path class="cls-4" d="M198.91,256.14c-2.74-2.75-10.67-6.38-14.93-6.07s-7,0-13.1.86c-4.1.58-17.32,2-21,4.55,2.49-2.44,5.07-4.76,7.64-6.85,9.79-8,31.35-14.12,38.94-5.88C200,246.68,199.51,252.91,198.91,256.14Z"/><path class="cls-5" d="M155.52,270.74c-4.67,5.85-11.07,8.49-14.27,5.92-3-2.41-2.14-8.56,1.84-14.14.27-.36.54-.72.82-1.07a24.15,24.15,0,0,1,3.52-3.55c4-3.24,8.31-4.33,10.75-2.37C161.39,258.1,160.2,264.91,155.52,270.74Z"/><path class="cls-6" d="M158.18,255.53c3.21,2.57,2,9.38-2.66,15.21s-11.07,8.49-14.27,5.92c-3-2.41-2.14-8.56,1.84-14.14,1.38-1.54,2.84-3.09,4.34-4.62C151.43,254.66,155.74,253.57,158.18,255.53Z"/><path class="cls-3" d="M112.7,252.38c.69-2.42,3.91-5,3.61-17.37-.38-15.5-4.43-18.85-7.84-22.12a9,9,0,0,0-5.55-2.85c-8.18-.45-14.27,14.89-15.18,17.18a39,39,0,0,0-2.43,20.69c.66,3.78,1.75,10,7,14.53,1.66,1.44,4.8,4.17,8.58,3.77C108.16,265.43,112.2,254.11,112.7,252.38Z"/><path class="cls-4" d="M92.76,218.08c7.71,1.79,11.48,5.09,13.47,8.15,4,6.23,6.69,15.39,9.07,15.76,1.16.18,1-2.3,1-3.29,0-6.93-1-16.69-5.12-22.86-1.86-2.78-3.28-4.9-6-5.63-4.1-1.11-9.15,1.58-13,6.78"/><ellipse class="cls-7" cx="94.75" cy="239.94" rx="8.17" ry="13.92" transform="translate(-25.75 11.85) rotate(-6.3)"/><circle class="cls-8" cx="96.96" cy="234.32" r="2.81"/><ellipse class="cls-9" cx="149.04" cy="262.93" rx="3.64" ry="2.61" transform="translate(-151.61 232.09) rotate(-54.6)"/><path class="cls-10" d="M104.52,357.12c-5,4-7.81,5.74-12.07,6.36-1.32.19-10.12,4.68-15.66-1.43-3-3.36-5.49-12.42-3.36-15.34,1.67-2.28,5-1.42,10.44-2.18,1.78-.25,3.34-.45,4.84-.72a21.57,21.57,0,0,0,.12,6.81c.48,2.37,1.1,5.58,3.8,7.28C96.34,360.25,104.17,357.3,104.52,357.12Z"/><path class="cls-11" d="M154.57,322.63c.14,1.27-10.85,5.89-24.62,14.29-2.11,1.28-8.28,6.29-20.61,16.31-1.84,1.49-3.41,2.78-4.82,3.89-.35.18-8.18,3.13-11.89.78-2.7-1.7-3.32-4.91-3.8-7.28a21.57,21.57,0,0,1-.12-6.81,42.2,42.2,0,0,0,12.46-3.89c15.6-7.31,14.41-7.56,27.37-13.95,11.8-5.81,17.12-5.82,22.87-4.89C153.06,321.36,154.32,320.67,154.57,322.63Z"/><path class="cls-12" d="M242.44,236.17c4.48.28,6.05-1.54,6.38-2,1.8-2.28,1-6.37.61-8.71-.39-2.14-.92-3-.51-4.65.33-1.33-.59-7.74-3.34-8.91-1.06-.44-1-.58-6-4.36a37.14,37.14,0,0,1-3.26-2.47c-2.53-2.8-1.64-5.17-3.65-7.45-.77-.87-2-1.79-5.47-2.54-6.05-1.32-11.32-.5-16,.19-15.81,2.34-15.66,1.86-19.92,3.14a45.94,45.94,0,0,0-12.43,5.62c-3.23,2.12-5.88,6-5.57,6.45s5.17-4.39,13.58-6.55c4.54-1.17,7.82-1.25,14.3-1.42,10.24-.27,15.66.9,20.8,3.44,3.86,1.9,6.4,3.71,10.53,8.58,3.54,4.15,9,10.63,9.93,21.6"/><path class="cls-13" d="M69.62,261.89c-4.52-1.08-8.07-1-11.77,1.61"/><path class="cls-13" d="M62.23,261.51c.47,1.58,1.86,5.59,3.6,7.8,3,3.79,5.66,3.9,6,6.35.28,1.77-1.24,3.82-4.26,7.91-1.13,1.53-9.46,17.55-10.17,18.37"/><path class="cls-13" d="M182,298.5a19.93,19.93,0,0,0,6.5,3.89,19.71,19.71,0,0,0,6.42,1.17"/><path class="cls-5" d="M187.08,302.36a24.59,24.59,0,0,1-4.85,8.92,31.19,31.19,0,0,1-8,6.35,32.78,32.78,0,0,1-9.5,3.92,31.3,31.3,0,0,1-10.2.59V322a76.75,76.75,0,0,0,9.81-2c1.59-.44,3.16-.95,4.72-1.51a32.6,32.6,0,0,0,4.54-2,29.84,29.84,0,0,0,8-5.77,24.06,24.06,0,0,0,5.3-8.43Z"/><path class="cls-14" d="M36.62,323.78c2.41-.32,3.67-1.29,5.78-2.41,5.41-2.87,6.36-1.27,9.38-4.28,2.87-2.86,5-2.81,5.94-5,.16-.4.82-2.08,1.88-2.46a1.5,1.5,0,0,1,1.71.8,4.52,4.52,0,0,1-1.43,3.67c-3.89,3.5-3.17,3.08-5.58,5a32.72,32.72,0,0,1-8.37,4.38,21.33,21.33,0,0,1-6.66,1.79,10,10,0,0,1-6.75-1.56A17.76,17.76,0,0,0,36.62,323.78Z"/><path class="cls-15" d="M25.89,316.59c.64,5.83,6.43,6.49,13,5.76s24.34-11.94,21.67-17.16c-2.8-5.51-11-5.55-17.7-3.86C36.44,302.94,25.24,310.76,25.89,316.59Z"/><ellipse class="cls-16" cx="41.51" cy="309.91" rx="7.65" ry="4.63" transform="translate(-126.83 46.42) rotate(-24.95)"/><path class="cls-17" d="M279.29,251.9c.14,1.06,11-3.9,13.73-5.21,2.13-1,13.84-9.07,21.34-25.84,8.95-20,8.74-24.08,15.61-35.11,3.08-5,8.9-9,8.3-10.19-.73-1.39-9.26,2.22-16,5.85-6.5,3.51-11.1,9-20,19.81-10.44,12.65-15.68,19-16.58,20.68C279.22,234,278.57,246.55,279.29,251.9Z"/><path class="cls-17" d="M109.58,91.93c-2.76.62-2.78,18.22-7.79,22.7a72.87,72.87,0,0,0-20.14,28.85c-4.27,10.3-6.23,18-6,26.59.09,4,.24,10,2.94,11,4.15,1.49,11.74-10,14.87-14.68a106.33,106.33,0,0,0,16.37-41.09C111.53,114.5,118.19,90,109.58,91.93Z"/><path class="cls-18" d="M33.23,323.76c1.64,3.14,11.57,10,17.73,12.6,10.17,4.26,16.26,9.26,22.88,9.35a65.65,65.65,0,0,0,25.81-5.36c12.82-5.41,14.27-8.1,27.52-13.55,9.3-3.82,16.37-8.2,22.2-6.64,9.17,2.45,10.62,1.73,15.53.51"/><path class="cls-12" d="M139.89,207.9c1.32.18.43-6.26.53-12.6a44.16,44.16,0,0,0-2.37-15.76c-1.45-3.94-3.61-7.93-4.62-7.66s.11,5.08-1.55,5.83c-.55.24-1.63.15-6.83-4.91-4.56-4.43-6-6.51-7.27-6.11-1.57.49-.57,3.7-2.8,6-2.4,2.43-4.68,1.5-8.8,2.86-1.87.61-4.35.9-11.08,10.65-.41.59-8.31,12.06-7.74,12.48S92,191.2,101,185.2c4.52-3,10.12-5.6,17.2-4.49A21.51,21.51,0,0,1,131.87,189C137.25,197.56,138.26,207.68,139.89,207.9Z"/><path class="cls-19" d="M23.36,310.73a19.5,19.5,0,0,1-8-.5,19.82,19.82,0,0,1-9.48-6"/><path class="cls-20" d="M23.36,310.73a10.72,10.72,0,0,1-5,1.3,13.65,13.65,0,0,1-5.13-.87,13.48,13.48,0,0,1-4.44-2.7,10.83,10.83,0,0,1-2.93-4.22c1.56.79,2.93,1.56,4.31,2.23a45.1,45.1,0,0,0,4.14,1.8,41.43,41.43,0,0,0,4.3,1.35C20.14,310,21.68,310.33,23.36,310.73Z"/><path class="cls-19" d="M23.41,317.61A36.69,36.69,0,0,1,1,318.2"/><path class="cls-20" d="M23.41,317.61a14.81,14.81,0,0,1-5.22,3,20.11,20.11,0,0,1-5.9,1,19.59,19.59,0,0,1-5.95-.74A14.72,14.72,0,0,1,1,318.2c2.06-.27,3.94-.33,5.79-.4l5.44-.14,5.43-.13C19.47,317.51,21.35,317.45,23.41,317.61Z"/><path class="cls-19" d="M78.87,325.47a107.76,107.76,0,0,0-4.12,34.42"/><path class="cls-20" d="M78.87,325.47c-.19,3-.55,5.83-.88,8.69l-1,8.54-1,8.54c-.36,2.86-.67,5.73-1.2,8.65a41.19,41.19,0,0,1-1.23-8.75,56.38,56.38,0,0,1,.37-8.81,55.43,55.43,0,0,1,1.73-8.65A41,41,0,0,1,78.87,325.47Z"/><path class="cls-19" d="M92.71,328.27q.06,3.59,0,7.3c-.12,7.26-.6,14.14-1.31,20.58"/><path class="cls-20" d="M92.71,328.27a43.46,43.46,0,0,1,1.21,7,55.55,55.55,0,0,1-.65,14,35.71,35.71,0,0,1-1.87,6.85,51.31,51.31,0,0,1-.55-7c0-2.33,0-4.64.11-6.95s.29-4.61.54-6.92A44.07,44.07,0,0,1,92.71,328.27Z"/><circle class="cls-20" cx="81.55" cy="320.96" r="0.94"/><circle class="cls-20" cx="87.33" cy="321.16" r="0.94"/><circle class="cls-20" cx="91.7" cy="323.42" r="0.94"/><circle class="cls-20" cx="92.22" cy="327.78" r="1.39"/><circle class="cls-20" cx="78.54" cy="326.39" r="1.24"/><path class="cls-21" d="M289.78,177.47c-14.66,8.06-28.54,16.56-39.59,15.68-1.77-.14,2.79-9.88.84-9.52-11.94,2.22-27.48,10.58-37.62,7.93-3.29-.86,15.25-15.59,12.7-14-20.75,13.18-58.42,21.76-72.31,14.89-2.53-1.25-21.24-10.86-26-30.44-.73-3-4-18,4.5-27.52,3.08-3.46,11-3.07,14.72-1.42,3.52,1.57,3.26,4,6.42,5.05.8.27,1.47-.24,8.46-8.79,7.8-9.53,10.89-19.32,12.85-25.92,6.49-21.86,9.74-32.79,9.48-39.39-.69-17.11-3.29-27-1.49-36.29.57-3,3,0,6.06-3,9.46-9.11,8-23.93,10.44-24s3.15,14.06,7.93,14.84c4.21.69,7.78-9.66,11.59-8.82,3.39.75,1.75,9.18,6.61,14.35,5.38,5.73,14.53,3,23.59,3,16.3.1,27.91,9.18,48,24.87,20.57,16.07,30.86,24.11,30.95,35.55.12,15-16.95,29.89-28.86,40.27-10.69,9.31-18.48,15.82-17.23,23.27.67,4,2.78,3.49,6.1,9.7C291.5,164.54,290.23,172.55,289.78,177.47Z"/><path class="cls-22" d="M190,25.17c-3.89.38.31,6,4.76,13.24.6,1,1.2,1.86,2.19,1.83,3.7-.13,7.19-12.86,10-12.94,3.06-.09.23,14.47,5.36,14.94,4.87.44,14.7-15.54,14.2-18.06C225.81,20.25,194.21,24.77,190,25.17Z"/><path class="cls-23" d="M258.23,27c.22-.5,24.34,7.43,51.71,29.37,13.79,11,17.84,22.65,18.08,28.48.37,9.36-4,16-7.87,21.3-13,17.52-28.1,18.58-32.91,33-.79,2.35-3.2,6.62-1.75,11.72,1.18,4.13,2.18,5,4.51,10.5,1.22,2.85,4.84,6.79,3.31,11.89-1.8,5.95-5.54,11.84-7.57,11.2-1.76-.55-.31-5.51-1.47-16.18-1-9.1-2.52-9.91-3.4-19.42-.65-7-.38-9.42.84-13.76a28.72,28.72,0,0,1,8.84-13.86c4.16-3.78,4.61-3.38,10.25-8.2,1.71-1.47,2.59-3.06,9.25-10.14,7.95-8.45,9-9.36,10.29-12.13.89-2,2.79-5.32,2-10.18s-3.84-10.54-6-12.64C303.52,55.22,257.93,27.73,258.23,27Z"/><path class="cls-24" d="M170.15,116.69c1.13-2.3,12.64-2.23,32.48-3.69,15.74-1.15,24,1.64,36.47,3.94,23.93,4.41,49.85,18.9,49,20.57-2.25,4.33-1.49,8.53-5.74,10.69-4.46,2.27-13.51-4.65-25.42-6.41-7.11-1-9.72,1.5-33,12.44,0,0-19.56,9.89-50,18.79a29.35,29.35,0,0,1-15.38.15c-9.22-2.36-18-10.6-17-17,.6-3.59,4-4.58,8.33-8C164.12,136.81,166.56,124,170.15,116.69Z"/><path class="cls-25" d="M15.17,251a14,14,0,0,1-.32-5.95,14.91,14.91,0,0,1,.78-2.93,16.16,16.16,0,0,1,1.4-2.71,15,15,0,0,1,4.3-4.26A15.42,15.42,0,0,1,26.85,233a22.17,22.17,0,0,0-5.07,2.88A17,17,0,0,0,17.87,240a16.21,16.21,0,0,0-2.26,5.24A19.69,19.69,0,0,0,15.17,251Z"/><path class="cls-25" d="M14.64,235.64a14.09,14.09,0,0,1,2-5.64,14.36,14.36,0,0,1,1.84-2.41,15.66,15.66,0,0,1,2.32-2,15,15,0,0,1,5.59-2.31,15.52,15.52,0,0,1,6,0,22.37,22.37,0,0,0-5.79.74,17.18,17.18,0,0,0-5.2,2.38,16.07,16.07,0,0,0-4.07,4A19.73,19.73,0,0,0,14.64,235.64Z"/><path class="cls-25" d="M29.58,216.74A14.14,14.14,0,0,1,34.21,213,15.14,15.14,0,0,1,37,211.9a15.42,15.42,0,0,1,3-.46,15.07,15.07,0,0,1,6,1,15.43,15.43,0,0,1,5.06,3.16,22.47,22.47,0,0,0-5.31-2.42,17.07,17.07,0,0,0-5.67-.72,16,16,0,0,0-5.56,1.25A19.17,19.17,0,0,0,29.58,216.74Z"/></g></g></svg>