<svg id="cover" xmlns="http://www.w3.org/2000/svg" viewBox="0 0 1173.46 462.4"><defs><style>.cls-1,.cls-10,.cls-11,.cls-12,.cls-13,.cls-14,.cls-15,.cls-16,.cls-3,.cls-4,.cls-5,.cls-6,.cls-8{stroke:#000;}.cls-1,.cls-18,.cls-19,.cls-2,.cls-20,.cls-5,.cls-6{stroke-linecap:round;}.cls-1,.cls-2,.cls-5,.cls-6{stroke-linejoin:round;}.cls-1,.cls-10,.cls-11,.cls-12,.cls-13,.cls-2,.cls-5,.cls-6,.cls-8{stroke-width:1.09px;}.cls-17,.cls-18,.cls-19,.cls-2,.cls-20{fill:none;stroke:#fff;}.cls-3,.cls-4,.cls-9{fill:#ffd1c0;}.cls-10,.cls-11,.cls-12,.cls-13,.cls-14,.cls-15,.cls-16,.cls-17,.cls-18,.cls-19,.cls-20,.cls-3,.cls-4,.cls-8{stroke-miterlimit:10;}.cls-3{stroke-width:1.94px;}.cls-4{stroke-width:1.11px;}.cls-5{fill:#f69;}.cls-6{fill:#f03;}.cls-7{fill:#fff;}.cls-8{fill:#00dbde;}.cls-10{fill:#ff007c;}.cls-11{fill:#dd5e00;}.cls-12{fill:#ffc100;}.cls-13{fill:#135751;}.cls-14{stroke-width:1.08px;}.cls-15{stroke-width:0.89px;}.cls-16{fill:#ff878a;stroke-width:1.83px;}.cls-17{stroke-width:0.73px;}.cls-18{stroke-width:5px;}.cls-19{stroke-width:4px;}.cls-20{stroke-width:4.33px;}</style></defs><path class="cls-1" d="M2873.08,138.88a570.1,570.1,0,0,1,66.41-35.15c20.92-9.19,14-4,45.6-16.67,13.24-5.29,22.86-9.54,36.15-8.16,9.71,1,18.89,4.76,18.78,5.22-.07.28-3.58-.66-9-.47-3.74.13-9.57.84-9.63,1.87-.12,2,21.9-1.16,35.42,10.86,13.26,11.78,13.46,33.83,12.24,34.25-.45.15-1.19-2.58-4.46-5.79-3.72-3.65-8.31-5.56-8.74-5-.72,1,11.14,7,16.14,20.16,2.08,5.45,3.18,12.67.58,14.32-1.7,1.08-3.34-1.24-8.12-1.74-5.86-.63-7.31,2.44-13.9,2.71s-11.35-2.67-11.53-2.19,3.6,2.91,8.53,3.88c4.26.84,6.37-.05,6.83.89.9,1.83-6.08,7.36-12.23,11.27-1.56,1-11,6.91-20.35,9.52-23.28,6.49-53-5.68-77.49-16-17.61-7.4-19.55-9.94-33.91-14.48C2894.26,143.14,2873.08,138.88,2873.08,138.88Z" transform="translate(-2734.3 -78.09)"/><path class="cls-2" d="M2843.41,243.84" transform="translate(-2734.3 -78.09)"/><path class="cls-3" d="M2845.67,306.68a90.94,90.94,0,0,1,10.54,23.62c6.37,22.56,0,34.48,6.26,42.24,5.11,6.31,18.85,10.21,58.58-3.52" transform="translate(-2734.3 -78.09)"/><path class="cls-4" d="M2872.17,133.88s-5.28,18.42-8.09,32.43c-4.84,24.13-.09,23.92-5.09,47.85-3.65,17.51-5.48,26.26-10.22,32.86a23.13,23.13,0,0,0-4.69,10.06c-1.16,6.51,1.55,9.83,0,11.42-3.37,3.48-16.53-12-30.79-10-8.8,1.21-16.26,8.83-19,16.28-8.4,22.85,23.16,56.33,39.16,52.93,4.48-1,6.41-4.51,12.39-4.7,8.41-.27,15,6.44,18.6,10.09,20.52,20.69,33.2,33.48,47.06,42.25,14.64,9.26,27.1,11.82,30.14,12.41a80,80,0,0,0,34.19-1c19.13-4.8,29.74-15.16,47-32,3.88-3.79,8.66-9,11.1-17a34.81,34.81,0,0,0,1.48-9.43c.12-16.14-13.83-22.35-19.06-40.86-1.47-5.22-1.48-9.86-1.51-19.13-.07-25.71,7.18-30.07,8.92-56.6,1-15.18,0-34.28,0-34.28S2985,173.75,2947.84,158c-23-9.74-28.66-17-48.31-20.29C2892.82,136.57,2872.17,133.88,2872.17,133.88Z" transform="translate(-2734.3 -78.09)"/><path class="cls-2" d="M2995.79,330.68" transform="translate(-2734.3 -78.09)"/><path class="cls-5" d="M2997.85,330.7c0,.08,0,.16,0,.23-.35,2.42.31,3.54.09,4.89-.63,4.11-8.58,6.37-13.07,7-8.08,1.11-14.72-1.77-15.15-3.7,0-.2-.42-2.14-.42-2.14s5.9-4.36,13.07-9.13l.89-.59.05,0a41,41,0,0,1,10,1.74A44.09,44.09,0,0,1,2997.85,330.7Z" transform="translate(-2734.3 -78.09)"/><path class="cls-6" d="M3004.58,324.53c-1.77,1.07-3.57.44-5.14,2.11a6.83,6.83,0,0,0-1.51,3.63c0,.15,0,.3-.08.43a44.09,44.09,0,0,0-4.62-1.74,41,41,0,0,0-10-1.74c9.88-6.51,21.76-13.47,24.13-11C3008.78,317.65,3007.41,322.82,3004.58,324.53Z" transform="translate(-2734.3 -78.09)"/><path d="M2965.93,330.88a5,5,0,0,1,3.67,2.34,6.31,6.31,0,0,1,.92,4.59,6.17,6.17,0,0,1-2.56,4,5.26,5.26,0,0,1-4.26.79h0a.11.11,0,0,1-.08-.13.12.12,0,0,1,.07-.07,7.93,7.93,0,0,0,3.1-1.83,5.83,5.83,0,0,0,1.63-3.13,6.2,6.2,0,0,0-.39-3.53,7.31,7.31,0,0,0-2.18-2.84.1.1,0,0,1,0-.15.09.09,0,0,1,.09,0Z" transform="translate(-2734.3 -78.09)"/><path d="M2935.67,177.32a34.1,34.1,0,0,0-5.33-4.54,8.57,8.57,0,0,0-2.6-1.22,8,8,0,0,0-1.17-.2,5.38,5.38,0,0,0-1.13,0c-3,.44-6.39,2.94-9.4,5.87a99.23,99.23,0,0,0-8.68,10.11c-2.79,3.67-5.49,7.54-8.69,11.46l-.05.06a.23.23,0,0,1-.32,0,.22.22,0,0,1-.07-.25q1.2-3.41,2.65-6.71t3.27-6.44a53.68,53.68,0,0,1,8.63-11.6,27.78,27.78,0,0,1,5.81-4.4,13.19,13.19,0,0,1,7.09-1.84,8.56,8.56,0,0,1,3.58,1,12.32,12.32,0,0,1,2.9,2.28,23.74,23.74,0,0,1,3.93,6.1.23.23,0,0,1-.11.3.23.23,0,0,1-.25,0Z" transform="translate(-2734.3 -78.09)"/><path d="M2984.09,170.52a16.73,16.73,0,0,1,.85-5.86,12.67,12.67,0,0,1,1.46-2.89,7.14,7.14,0,0,1,3-2.48,7,7,0,0,1,4.17-.53,10.41,10.41,0,0,1,3.54,1.27,16.34,16.34,0,0,1,2.72,2,27.41,27.41,0,0,1,2.19,2.27,32,32,0,0,1,5.57,10.39,33.21,33.21,0,0,1,1.81,11.33v.06a.18.18,0,0,1-.18.17.22.22,0,0,1-.16-.12,93.15,93.15,0,0,0-4-10.25,44,44,0,0,0-5.74-9.3,17.62,17.62,0,0,0-4-3.66,5.77,5.77,0,0,0-5-.94,7.86,7.86,0,0,0-3.71,3.67,26.65,26.65,0,0,0-2.18,5,.17.17,0,0,1-.22.1.16.16,0,0,1-.12-.15Z" transform="translate(-2734.3 -78.09)"/><ellipse class="cls-7" cx="2927.8" cy="251.05" rx="22.06" ry="37.32" transform="translate(-2728.2 487.08) rotate(-11.04)"/><path d="M2949.45,246.82a61.42,61.42,0,0,1,1.23,11.78,51.09,51.09,0,0,1-1.16,11.82A32.24,32.24,0,0,1,2945,281.5a19.34,19.34,0,0,1-4.17,4.5,15,15,0,0,1-5.68,2.71,15.2,15.2,0,0,1-6.37,0,19.86,19.86,0,0,1-5.91-2.3,32.34,32.34,0,0,1-9.15-8.39,57.33,57.33,0,0,1-9.13-46.75,32.21,32.21,0,0,1,5.33-11.22,19.92,19.92,0,0,1,4.61-4.36,15.37,15.37,0,0,1,5.93-2.36,15.08,15.08,0,0,1,6.28.38,19.68,19.68,0,0,1,5.56,2.61,32.28,32.28,0,0,1,8.36,8.57,50.49,50.49,0,0,1,5.51,10.52A60.86,60.86,0,0,1,2949.45,246.82Zm0,0a52.86,52.86,0,0,0-9.28-21.54,30.19,30.19,0,0,0-8.55-7.83,17.37,17.37,0,0,0-5.29-2,13.14,13.14,0,0,0-5.48.05,13,13,0,0,0-4.84,2.36,17.94,17.94,0,0,0-3.7,4,30.39,30.39,0,0,0-4.18,10.35,49.16,49.16,0,0,0-1.1,11.31,64.74,64.74,0,0,0,4.36,22.35,48,48,0,0,0,5.26,10.07,30.28,30.28,0,0,0,7.77,8,17.48,17.48,0,0,0,4.94,2.34,12.69,12.69,0,0,0,5.38.36,13,13,0,0,0,5.1-2,17.47,17.47,0,0,0,4.13-3.88,30.17,30.17,0,0,0,5-10.48A52.91,52.91,0,0,0,2949.45,246.82Z" transform="translate(-2734.3 -78.09)"/><ellipse class="cls-7" cx="2994.09" cy="238.06" rx="35.68" ry="15.05" transform="translate(-284.15 3113.84) rotate(-84.11)"/><path d="M2979.12,236.51a68.59,68.59,0,0,0,.85,20.63,35.39,35.39,0,0,0,3.4,9.65,15.27,15.27,0,0,0,3,3.95,7,7,0,0,0,4.14,2,6.85,6.85,0,0,0,4.29-1.34,15.26,15.26,0,0,0,3.42-3.39,36.77,36.77,0,0,0,4.65-8.82,65.93,65.93,0,0,0,2.87-9.7,82.47,82.47,0,0,0,1.61-10,83.84,83.84,0,0,0,.47-10.14,66.55,66.55,0,0,0-.84-10.08,36.27,36.27,0,0,0-2.76-9.58,14.77,14.77,0,0,0-2.65-4,6.85,6.85,0,0,0-3.91-2.18,6.93,6.93,0,0,0-4.45,1.07,15.19,15.19,0,0,0-3.74,3.26,34.65,34.65,0,0,0-5.3,8.74A68.67,68.67,0,0,0,2979.12,236.51Zm0,0a82.67,82.67,0,0,1,1.64-10.24,66.6,66.6,0,0,1,3-10,38,38,0,0,1,4.9-9.25,16.73,16.73,0,0,1,3.84-3.76,8.48,8.48,0,0,1,5.37-1.59,8.74,8.74,0,0,1,5.17,2.42,17,17,0,0,1,3.33,4.41,36.38,36.38,0,0,1,3.56,10.11,73.62,73.62,0,0,1-4.3,41.63,36.75,36.75,0,0,1-5.55,9.17,17.31,17.31,0,0,1-4.16,3.63,8.73,8.73,0,0,1-5.54,1.32,8.5,8.5,0,0,1-4.94-2.66,16.58,16.58,0,0,1-3-4.46,37.68,37.68,0,0,1-2.92-10,67.86,67.86,0,0,1-.87-10.35A83.45,83.45,0,0,1,2979.12,236.51Z" transform="translate(-2734.3 -78.09)"/><ellipse class="cls-8" cx="2931.02" cy="269.58" rx="14.82" ry="17.44" transform="translate(-2731.69 488.04) rotate(-11.04)"/><ellipse class="cls-8" cx="2992.27" cy="258.15" rx="15.45" ry="10.77" transform="translate(-305.77 3130.06) rotate(-84.11)"/><path class="cls-9" d="M3018.42,347.1c.55,2.83.9,7.46-1.51,11.63-4.28,7.41-15.73,10.76-27.68,6.66" transform="translate(-2734.3 -78.09)"/><path d="M3018.47,347.09a18.79,18.79,0,0,1,.81,5.35,15.59,15.59,0,0,1-1.08,5.44,13.38,13.38,0,0,1-3.17,4.63,17.42,17.42,0,0,1-4.57,3.24,21.49,21.49,0,0,1-5.27,1.7,22.48,22.48,0,0,1-5.48.46c-.91-.06-1.82-.09-2.72-.24a24.22,24.22,0,0,1-2.68-.47,30,30,0,0,1-5.09-1.76l0-.1a32.68,32.68,0,0,0,10.46,1.73,26,26,0,0,0,5.27-.59,20.74,20.74,0,0,0,5-1.71,16.25,16.25,0,0,0,4.35-3,13.54,13.54,0,0,0,3.09-4.26,17.28,17.28,0,0,0,.94-10.42Z" transform="translate(-2734.3 -78.09)"/><path class="cls-10" d="M2779.53,139.28c-1.4-.52-1.33-2.52-2.2-4.89-3.58-9.7-14.31-10-23-17.39-10.87-9.21-13.81-27.06-9.35-30.7,1.49-1.22,3.62-.71,7.34.25,24,6.14,42.44,11.35,41.41,11,1.41,10.67,2.13,13,2.53,13s.4-1.65,1.11-5.83c.41-2.45.81-4.46,1.1-5.82,1.87.69,3.54,1.4,5,2.07s2.25,1.12,3.64,1.86c5.59,3,10.87,5.68,10.87,5.68h0s-12.18,5.77-21.65,14.22C2786.3,131.59,2782.71,140.44,2779.53,139.28Z" transform="translate(-2734.3 -78.09)"/><path class="cls-11" d="M2801.43,271.57c-1.82,11.61-1.55,16.5-1,20.17.45,3.2,2.67,19.26,15.2,30.6,11.66,10.55,26.41,11.77,26,13.8-.25,1.26-6.68,1-9.83.81-19.8-1-29.7-1.48-36.1-2.95-5-1.14-51.7-11.85-59.63-43.88-2.89-11.72.26-22.84,1.41-26.92,4.06-14.28,10.88-17.55,16.6-28.77,11.49-10.56,20.95-19.14,27.25-25.3,6.12-6,14.15-13.58,23.82-22.12,8.24-7.27,14.29-12.21,26.4-22.09,14-11.44,16.92-13.38,19.3-14.86a108.81,108.81,0,0,1,25.49-11.64c-40.45,32.45-55.87,71.53-64.12,92.44A203.27,203.27,0,0,0,2801.43,271.57Z" transform="translate(-2734.3 -78.09)"/><path class="cls-1" d="M2842.87,337A54.84,54.84,0,0,1,2801,295a94.74,94.74,0,0,0,17.42,21c7,6.34,13.58,12.21,19.82,10.57,3.26-.86,4.76-3.31,10.28-4.23,3.8-.63,7.74-.24,7.91.68.06.34-.63.66-1.78,1.26-2.1,1.11-4.09,2.44-6.15,3.62C2846.68,328.92,2844.42,331.24,2842.87,337Z" transform="translate(-2734.3 -78.09)"/><path class="cls-1" d="M2879.12,137.61a190.21,190.21,0,0,0-7,30.5c-2.83,19.45-.33,23.56-4,43.82-2.23,12.24-4.63,25.44-10.2,33.07a36.43,36.43,0,0,0-5.44,10.2,32.42,32.42,0,0,0-1.92,9c-.18,3.08.26,3.83-.24,4.48-1.28,1.7-7.32.72-27.06-9.94l.46-.05h-.53c-4.7.1-12.68,2.24-21.83,15.09.56-4.47,1.48-10.83,3.08-18.36a220.38,220.38,0,0,1,25.1-64.84c8.15-14,15.59-26.6,30.1-39.18A122.26,122.26,0,0,1,2879.12,137.61Z" transform="translate(-2734.3 -78.09)"/><path class="cls-1" d="M2803.83,270.46c-.2.44-.37.81-.51,1.14v0a6.59,6.59,0,0,1-.45.87l0,0c-.11.14-.19.21-.26.18a2.74,2.74,0,0,0,.13-.27C2803.07,271.74,2803.43,271.09,2803.83,270.46Z" transform="translate(-2734.3 -78.09)"/><path class="cls-1" d="M2823.69,258.69l-.46.05-.07,0Z" transform="translate(-2734.3 -78.09)"/><path class="cls-1" d="M2800.44,287.55a44.5,44.5,0,0,0,4.14,12.51A32.2,32.2,0,0,1,2800.44,287.55Z" transform="translate(-2734.3 -78.09)"/><path class="cls-1" d="M2823.69,258.69l-.46.05c-3,.35-11.3,1.81-17.21,8.85a22.72,22.72,0,0,0-2.7,4v0c-.17.28-.31.58-.45.87l0,0a27.53,27.53,0,0,0-2.4,15,24.5,24.5,0,0,1,2.14-14.85,2.74,2.74,0,0,0,.13-.27c.36-.69.72-1.34,1.12-2,0,0,0,0,0,0a24.07,24.07,0,0,1,19.33-11.74Z" transform="translate(-2734.3 -78.09)"/><path class="cls-12" d="M2754.51,231.35c3.35-8.81,6.29-18.09,6.53-23.47.51-11.69-4.44-15.34-3.08-27.16.41-3.54,1.42-8.19,5.64-16.64,2.59-5.2,12.09-23.26,28.17-37.69C2833.93,88.58,2912.17,84,2920,83.62c13.16-.65,28.22,1.2,55.35-.8,15.93-1.18,24.6-2.66,25-1,1.11,4.29-60,17-89.08,38.47a112.74,112.74,0,0,1-32.14,17.37c-5.2,1.77-5.82,1.51-10.48,3.16-15.12,5.34-25.07,13.84-31.72,19.51-38.49,32.79-33.68,28.06-39.05,33.15-26.28,24.87-42.84,44.78-44.87,43.16C2752.51,236.2,2753.2,234.81,2754.51,231.35Z" transform="translate(-2734.3 -78.09)"/><path class="cls-13" d="M2845.77,97.49c-25.09,9.6-40.89,37-50.31,53.37-15.3,26.57-16.4,43.66-16,48.65,0,.24.84,11.78.84,11.78h0s9.08-9.87,17.61-17.86c8.35-7.83,11.51-9.48,15.23-13,13.56-12.68,7.25-24,17.26-44.18,13.62-27.43,43.57-43.27,55.15-47.39,1.37-.49,5.95-2,5.83-2.51-.21-.78-13.75,1.87-25.67,5C2858.34,93.32,2850.11,95.83,2845.77,97.49Z" transform="translate(-2734.3 -78.09)"/><path d="M2842,288.58a22.45,22.45,0,0,0-9.09-5.17,13.47,13.47,0,0,0-4.55-.36,9.74,9.74,0,0,0-4.06,1.3,12.21,12.21,0,0,0-3.51,2.79,16.56,16.56,0,0,0-2.67,3.94,20.42,20.42,0,0,0-1.64,4.78,30.64,30.64,0,0,0-.53,5.5l-.31.1a19.79,19.79,0,0,1-.88-5.61,17.61,17.61,0,0,1,.94-5.61,15.63,15.63,0,0,1,7-8.75,12.48,12.48,0,0,1,5.52-1.52,14.38,14.38,0,0,1,5.62,1,17.65,17.65,0,0,1,8.42,7.4Z" transform="translate(-2734.3 -78.09)"/><path class="cls-9" d="M2818.66,289.74a10.65,10.65,0,0,0,9.55,14.79" transform="translate(-2734.3 -78.09)"/><path d="M2818.86,289.83a47.62,47.62,0,0,0,2.17,4.75c.63,1.19,1.23,2,1.79,2.95s1.12,1.78,1.95,2.86a49.86,49.86,0,0,0,3.44,3.93v.43a11,11,0,0,1-5.09-1.31,10.78,10.78,0,0,1-4-3.55,10.63,10.63,0,0,1-1.61-5.05,10.94,10.94,0,0,1,.91-5.18Z" transform="translate(-2734.3 -78.09)"/><ellipse class="cls-14" cx="2932.99" cy="279.1" rx="4.9" ry="5.99" transform="translate(-2733.48 488.59) rotate(-11.04)"/><ellipse class="cls-15" cx="2991.65" cy="265.83" rx="5.58" ry="3.57" transform="translate(-23.89 3177.98) rotate(-89.7)"/><path class="cls-9" d="M2745.72,85.92l51.54,36.58" transform="translate(-2734.3 -78.09)"/><path d="M2745.88,85.7c4.55,2.69,9,5.51,13.52,8.25l6.7,4.21,6.65,4.27c2.22,1.43,4.49,2.78,6.75,4.15a63,63,0,0,1,6.45,4.55,75.36,75.36,0,0,1,11.47,11.14l-.31.45a75,75,0,0,1-14.31-7.15,61.56,61.56,0,0,1-6.43-4.59c-2-1.67-4.06-3.38-6.14-5l-6.23-4.88-6.18-4.93c-4.08-3.35-8.21-6.63-12.26-10Z" transform="translate(-2734.3 -78.09)"/><path class="cls-9" d="M2767.92,91.58l.6,8.77" transform="translate(-2734.3 -78.09)"/><path d="M2768.08,91.57c.31.72.56,1.43.81,2.15s.45,1.44.63,2.16.67,1.42.48,2.17a3.72,3.72,0,0,1-.41,1.12,4.14,4.14,0,0,1-.91,1.17l-.32,0a3.87,3.87,0,0,1-1.06-1,3.51,3.51,0,0,1-.56-1.06c-.3-.72.09-1.48.18-2.21s.19-1.49.33-2.23.3-1.49.51-2.24Z" transform="translate(-2734.3 -78.09)"/><path class="cls-9" d="M2782.45,99.3q.4,5.88.8,11.78" transform="translate(-2734.3 -78.09)"/><path d="M2782.67,99.28c.41,1,.74,1.92,1.08,2.89l.46,1.45.4,1.45a13.76,13.76,0,0,0,.51,1.44,2.73,2.73,0,0,1,.13,1.47,5.28,5.28,0,0,1-.55,1.52,5.52,5.52,0,0,1-1.23,1.56l-.43,0a5.26,5.26,0,0,1-1.43-1.38,5.18,5.18,0,0,1-.75-1.43,2.72,2.72,0,0,1-.08-1.47,13.37,13.37,0,0,0,.32-1.5l.19-1.5.26-1.49c.21-1,.4-2,.68-3Z" transform="translate(-2734.3 -78.09)"/><path class="cls-9" d="M2776.16,117.23l11.71,1.5" transform="translate(-2734.3 -78.09)"/><path d="M2776.19,117c1-.22,2-.36,3-.5l1.51-.17,1.5-.11a13.63,13.63,0,0,0,1.52-.23,2.61,2.61,0,0,1,1.46.17,4.92,4.92,0,0,1,1.39.83,5.62,5.62,0,0,1,1.29,1.5l-.05.44a5.5,5.5,0,0,1-1.64,1.13,5.19,5.19,0,0,1-1.54.46,2.81,2.81,0,0,1-1.46-.21,13.4,13.4,0,0,0-1.42-.6l-1.42-.49-1.42-.54c-.94-.39-1.89-.78-2.82-1.25Z" transform="translate(-2734.3 -78.09)"/><path class="cls-9" d="M2751.44,97.42l8.78.28" transform="translate(-2734.3 -78.09)"/><path d="M2751.44,97.25c.74-.23,1.48-.4,2.22-.58s1.48-.31,2.21-.42,1.48-.53,2.21-.26a3.82,3.82,0,0,1,1.08.52,4,4,0,0,1,1.06,1v.33a3.81,3.81,0,0,1-1.13,1,3.71,3.71,0,0,1-1.11.45c-.74.22-1.46-.24-2.18-.4s-1.46-.34-2.18-.56-1.45-.44-2.18-.72Z" transform="translate(-2734.3 -78.09)"/><path class="cls-16" d="M3650.48,146.69,3047,299.17c-31.56,8-59.7,5.32-62.54-5.91h0c-1.29-5.1,9.4-12.24,23.74-15.86l663.5-167.64c12.91-3.26,24.42-2.17,25.58,2.42L3698,115C3700.53,125.16,3679.17,139.44,3650.48,146.69Z" transform="translate(-2734.3 -78.09)"/><path class="cls-17" d="M3161.63,367.81a25.15,25.15,0,0,1-4.34-.34,10.48,10.48,0,0,1-8.56-6.41,10.71,10.71,0,0,1-7.49,6,27,27,0,0,1-6.16.75c-5.47,0-9.19-2.47-11-7.33-5.23-13.94-8-27.81-10.71-41.23,0-.14-.05-.29-.07-.43l0-.14a13,13,0,0,1-.19-2.16,9.92,9.92,0,0,1,6.55-9.71l.13,0a28.78,28.78,0,0,1,7.88-1.47h.2c4.82,0,8.35,3,9.76,8.14a10.19,10.19,0,0,1,8.59-7.69h.09a25.55,25.55,0,0,1,2.83-.18,15.94,15.94,0,0,1,4.09.49c3.88,1.09,6.18,3.43,7.47,7.7,1.2-5.35,4.78-8.45,9.83-8.45a27.55,27.55,0,0,1,7,1.15,10,10,0,0,1,7.59,10.14,15.93,15.93,0,0,1-.34,3.16A272.8,272.8,0,0,1,3173.77,359c-1.8,5-4.81,7.95-8.95,8.63A18.62,18.62,0,0,1,3161.63,367.81Z" transform="translate(-2734.3 -78.09)"/><path class="cls-7" d="M3148.9,336.65c-1.55,6.3-3.38,12.54-5.56,19-.8,2.38-1.44,3.28-3.56,3.79a20.46,20.46,0,0,1-4.7.58c-2.18,0-3.84-.39-4.7-2.64-4.87-13-7.57-26.17-10.32-39.87a6.84,6.84,0,0,1-.11-1,2.23,2.23,0,0,1,1.72-2.32,23.19,23.19,0,0,1,6.13-1.16c1.78,0,2.7.71,3.21,2.9,2.18,9.58,4.19,19.36,6.82,29.07,2.41-9.07,4.42-18.33,6.08-28.24.35-2.12,1.26-3.08,3.1-3.34a17.43,17.43,0,0,1,2.06-.13,9.89,9.89,0,0,1,2.41.26c1.6.45,2.24.83,2.87,3.66,2,8.37,3.89,17,6.3,25.86,2.53-8.75,4.53-17.75,6.65-27.33.41-1.87,1.15-2.71,3.16-2.71a21.47,21.47,0,0,1,5.27.9c1.78.52,2.41,1.23,2.41,2.64a7.81,7.81,0,0,1-.17,1.48,264.4,264.4,0,0,1-10.61,38c-.92,2.57-2,3.6-3.55,3.86a12.61,12.61,0,0,1-2.18.13,18.26,18.26,0,0,1-3.33-.26c-2.52-.38-3.09-1.16-3.9-3.47A170.93,170.93,0,0,1,3148.9,336.65Z" transform="translate(-2734.3 -78.09)"/><path class="cls-17" d="M3205.78,367.36a33.61,33.61,0,0,1-6.33-.8l-.07,0a8.91,8.91,0,0,1-3.55-1.76,10,10,0,0,1-6.32,2.43,22,22,0,0,1-2.42.09,21.49,21.49,0,0,1-2.38-.09c-3.2-.23-8.45-1.87-9.35-10,0-.05,0-.09,0-.13-.54-5.52-1.08-15.56-1.08-25.53,0-4.19.18-8.44.33-12.19l.08-1.88c.19-6.14,2.5-9.85,6.86-11a39.61,39.61,0,0,1,8.76-1c4,0,8.28,3,8.28,9.55,0,.71,0,2-.1,4.45.73-.07,1.46-.11,2.2-.11,9.59,0,15.79,6.65,15.79,16.95a199.43,199.43,0,0,1-1.38,21.36C3214.26,364.81,3209.74,367.36,3205.78,367.36Z" transform="translate(-2734.3 -78.09)"/><path class="cls-7" d="M3183.19,314a32.34,32.34,0,0,1,7.11-.77c1.2,0,1.38.7,1.38,1.8,0,1.61-.29,9.45-.35,15.37a14.91,14.91,0,0,1,9.35-3.28c3.15,0,8.88,1,8.88,9.2a190.34,190.34,0,0,1-1.31,20.32c-.18,1.48-.52,3-2.47,3a27.63,27.63,0,0,1-4.93-.64c-1.32-.33-1.84-1.29-1.84-2.83,0-1,.63-6.69.63-15.83,0-2.05-.74-3.4-2.17-3.4a10.92,10.92,0,0,0-6.14,2.38c.06,6.56.23,12.6.57,16.46a12.85,12.85,0,0,1,.12,1.35c0,1.48-.57,2.25-3,2.38a15.58,15.58,0,0,1-1.89.07,14.74,14.74,0,0,1-1.84-.07c-2.35-.13-2.81-1.16-3-3.21-.52-5.34-1-15-1-24.7,0-4.7.23-9.46.4-13.77C3181.64,315.81,3181.7,314.39,3183.19,314Z" transform="translate(-2734.3 -78.09)"/><path class="cls-17" d="M3228.6,368.2c-14.12,0-23.25-9.31-23.25-23.7a25.75,25.75,0,0,1,7.48-18.48,22.57,22.57,0,0,1,15.66-6.7,21.65,21.65,0,0,1,6.29,1l.36.13a9.24,9.24,0,0,1,5.48,5.29c6.29,3.68,10.14,10.82,10.14,19.39C3250.76,359.57,3239.49,368.2,3228.6,368.2Z" transform="translate(-2734.3 -78.09)"/><path class="cls-7" d="M3234.45,329.83a6.9,6.9,0,0,1-.17,1.48c6,1.61,9.57,6.82,9.57,13.83,0,9.9-7.91,15.31-15.25,15.31-10,0-16.34-5.6-16.34-15.95,0-10.55,8.31-17.44,16.23-17.44a15.25,15.25,0,0,1,4.35.71C3233.82,328.16,3234.45,328.48,3234.45,329.83Zm-5.79,6.75c-3.9.45-6.82,3.73-6.82,8.3,0,3.8,2.86,6,6.19,6,3.15,0,6.59-2.18,6.59-6a4.81,4.81,0,0,0-3.55-4.76C3229.29,339.48,3228.72,339.16,3228.66,336.58Z" transform="translate(-2734.3 -78.09)"/><path class="cls-17" d="M3249.59,341.05a10.81,10.81,0,0,1-1.86-.18l-.15,0-.52-.11a15.38,15.38,0,0,1-5-2.08,10.57,10.57,0,0,1-4.68-9.15,37.51,37.51,0,0,1,.89-6.27,66,66,0,0,1,3.69-12.43c1.71-4.33,5-6.8,9-6.8,3.31,0,7.32,1.65,9.88,3.32a10.47,10.47,0,0,1,5.35,9.25,15.05,15.05,0,0,1-1,5.14,56.5,56.5,0,0,1-7.45,14.44C3256.56,337.76,3254.14,341.05,3249.59,341.05Z" transform="translate(-2734.3 -78.09)"/><path class="cls-7" d="M3251,311.76a14.32,14.32,0,0,1,6.48,2.31c1.38.84,1.84,1.55,1.84,2.51a7.2,7.2,0,0,1-.52,2.32,48.69,48.69,0,0,1-6.36,12.35c-1.09,1.48-1.72,2.05-2.81,2.05a7.6,7.6,0,0,1-1-.12,9.17,9.17,0,0,1-2.93-1.16,2.72,2.72,0,0,1-1.32-2.51,35.78,35.78,0,0,1,.69-4.44,57.5,57.5,0,0,1,3.27-11.06C3248.84,312.53,3249.65,311.76,3251,311.76Z" transform="translate(-2734.3 -78.09)"/><path class="cls-17" d="M3266,367.87a24.9,24.9,0,0,1-10.53-2,9.83,9.83,0,0,1-5.89-9.32,14.4,14.4,0,0,1,.38-3.23l0-.09a28.91,28.91,0,0,1,1.34-4c.12-.29.23-.58.33-.83a5.49,5.49,0,0,1,.21-.51q.15-.35.3-.66a17,17,0,0,1-3-10.09c0-10.08,8.73-18,19.86-18a30,30,0,0,1,10.38,1.9c4.09,1.53,6.57,5.38,6.57,10.29a37.52,37.52,0,0,1-1.06,8.14l0,.13a12.79,12.79,0,0,1-1.14,2.92,17.06,17.06,0,0,1,1.89,8.1C3285.62,360.61,3277.39,367.87,3266,367.87Z" transform="translate(-2734.3 -78.09)"/><path class="cls-7" d="M3266,360.12a18.72,18.72,0,0,1-8-1.48,2.11,2.11,0,0,1-1.54-2.12,6.05,6.05,0,0,1,.17-1.35,36.52,36.52,0,0,1,1.37-3.86c.41-.9.69-1.35,1.21-1.35a4.09,4.09,0,0,1,1.49.52,9.75,9.75,0,0,0,4.3,1.09c1.72,0,2.92-.39,2.92-1.54,0-2.9-11.92-3.22-11.92-12.93,0-6.18,6.42-10.23,12.95-10.23a24,24,0,0,1,8.15,1.48,2.71,2.71,0,0,1,1.89,3,29.53,29.53,0,0,1-.8,6.05c-.35,1.28-.75,2.05-2.3,2.05a15.18,15.18,0,0,1-3.44-.38c-1.49-.32-1.78-.77-1.78-2.7v-.45a6.83,6.83,0,0,0-1.83-.33c-2,0-3.5.52-3.5,2,0,2.89,13.3,3.09,13.3,13.05C3278.71,356.39,3273.27,360.12,3266,360.12Z" transform="translate(-2734.3 -78.09)"/><path class="cls-17" d="M3302.91,368c-3.95,0-8.94-1.77-10.24-10.21-.4-2.55-.74-5.15-1-7.88a10.31,10.31,0,0,1-4-7.66c-.08-.94-.08-1.74-.08-2.32a32.87,32.87,0,0,1,.21-3.75,11.36,11.36,0,0,1,2.46-6.2,11.24,11.24,0,0,1-2.38-5.93,27.36,27.36,0,0,1-.12-3.29,38.78,38.78,0,0,1,.35-5c.91-7.5,6.8-9,10.24-9.2,7.78-.53,14.41-.79,20.22-.79,2.38,0,4.83,0,7.19.14h.1c2.47.18,9,.67,10.05,9.66a30.3,30.3,0,0,1,.24,3.86c0,1.13-.07,2.18-.14,3.1a1.94,1.94,0,0,1,0,.24c-.24,2.46-1.13,6-4.14,8.15a11.52,11.52,0,0,1,1.64,3.82c0,.14.07.29.1.43a24.36,24.36,0,0,1,.44,4.52,20.21,20.21,0,0,1-.09,2.15c-.34,4.77-2.51,7.28-4.29,8.55a11.5,11.5,0,0,1-5.74,1.9c-2.49.26-5,.41-7.58.46,0,.2.07.39.11.56a19.62,19.62,0,0,1,.5,3.94,9.87,9.87,0,0,1-7.41,9.91l-.12,0A27.33,27.33,0,0,1,3302.91,368Z" transform="translate(-2734.3 -78.09)"/><path class="cls-7" d="M3298.73,314.27c6.65-.45,13.41-.78,19.83-.78,2.35,0,4.65,0,6.83.13,2.58.2,3.38.39,3.67,3a23.64,23.64,0,0,1,.17,2.83c0,.84-.06,1.67-.12,2.51-.23,2.38-1,3-3.72,3-1.78,0-5.68-.06-8.77-.06s-6.25,0-9.35.06c.06,3,.17,6.11.34,9.2,1.55-.06,3.16-.06,4.76-.06,3.27,0,6.65,0,10.27.25,2.69.2,3.72.58,4.18,2.45a15.46,15.46,0,0,1,.29,2.89,11.81,11.81,0,0,1-.06,1.42c-.17,3-1.55,3.21-3.84,3.47a91.79,91.79,0,0,1-9.29.45c-1.89,0-3.73-.06-5.56-.13.34,3.41.74,6.75,1.15,9.2a20.23,20.23,0,0,1,.51,3.15c0,1-.46,1.93-2.12,2.38a21.12,21.12,0,0,1-5,.64c-2.29,0-3-.83-3.44-3.79-.63-4-1.09-8.11-1.43-12.22l-.46-.07c-1.72-.25-2.92-.7-3-2.63a15.08,15.08,0,0,1-.06-1.61,24.26,24.26,0,0,1,.18-2.9c.11-1.54.74-2.31,2.75-2.5-.17-3-.23-6.11-.29-9.14-1.72,0-2.23-.9-2.41-2.38-.05-.45-.05-1.8-.05-2.25a30.72,30.72,0,0,1,.28-4C3295.11,315.36,3295.69,314.46,3298.73,314.27Z" transform="translate(-2734.3 -78.09)"/><path class="cls-17" d="M3346.55,368.2c-14.13,0-23.25-9.31-23.25-23.7a25.75,25.75,0,0,1,7.48-18.48,22.55,22.55,0,0,1,15.65-6.7,21.59,21.59,0,0,1,6.29,1l.37.13a9.27,9.27,0,0,1,5.48,5.29c6.28,3.68,10.14,10.82,10.14,19.39C3368.71,359.57,3357.44,368.2,3346.55,368.2Z" transform="translate(-2734.3 -78.09)"/><path class="cls-7" d="M3352.4,329.83a6.53,6.53,0,0,1-.18,1.48c6,1.61,9.58,6.82,9.58,13.83,0,9.9-7.91,15.31-15.25,15.31-10,0-16.34-5.6-16.34-15.95,0-10.55,8.31-17.44,16.22-17.44a15.37,15.37,0,0,1,4.36.71C3351.77,328.16,3352.4,328.48,3352.4,329.83Zm-5.8,6.75c-3.89.45-6.82,3.73-6.82,8.3,0,3.8,2.87,6,6.19,6,3.16,0,6.6-2.18,6.6-6a4.82,4.82,0,0,0-3.56-4.76C3347.24,339.48,3346.66,339.16,3346.6,336.58Z" transform="translate(-2734.3 -78.09)"/><path class="cls-17" d="M3380.43,368.2c-14.12,0-23.24-9.31-23.24-23.7a25.71,25.71,0,0,1,7.48-18.48,22.53,22.53,0,0,1,15.65-6.7,21.65,21.65,0,0,1,6.29,1l.37.13a9.24,9.24,0,0,1,5.47,5.29c6.29,3.68,10.14,10.82,10.14,19.39C3402.59,359.57,3391.33,368.2,3380.43,368.2Z" transform="translate(-2734.3 -78.09)"/><path class="cls-7" d="M3386.28,329.83a6.9,6.9,0,0,1-.17,1.48c6,1.61,9.58,6.82,9.58,13.83,0,9.9-7.92,15.31-15.26,15.31-10,0-16.34-5.6-16.34-15.95,0-10.55,8.32-17.44,16.23-17.44a15.37,15.37,0,0,1,4.36.71C3385.65,328.16,3386.28,328.48,3386.28,329.83Zm-5.79,6.75c-3.9.45-6.82,3.73-6.82,8.3,0,3.8,2.87,6,6.19,6,3.15,0,6.59-2.18,6.59-6a4.81,4.81,0,0,0-3.55-4.76C3381.12,339.48,3380.55,339.16,3380.49,336.58Z" transform="translate(-2734.3 -78.09)"/><path class="cls-17" d="M3404.46,367.3a21.15,21.15,0,0,1-2.3-.09c-2.71-.19-8.62-1.62-9.34-10.22-.31-4.14-.49-10.31-.49-17,0-6,.16-14.78.89-22.92.2-2.47.75-8.85,6.93-10.58a30.69,30.69,0,0,1,7.64-1c4.26,0,8.57,3.17,8.57,10.26,0,.89,0,1.83,0,2.8s0,2.27,0,3.43c0,12.35-.42,26.83-1,34.43v.06c-.48,6.51-3.45,10.11-8.83,10.72A15.76,15.76,0,0,1,3404.46,367.3Z" transform="translate(-2734.3 -78.09)"/><path class="cls-7" d="M3401.82,314a24.52,24.52,0,0,1,6-.77c1.14,0,1.66.51,1.66,2.51s.06,4.05.06,6.23c0,11.84-.41,26.25-1,33.77-.17,2.32-.23,3.47-2.69,3.73a9.12,9.12,0,0,1-1.38.07,14.72,14.72,0,0,1-1.78-.07c-2.35-.13-2.81-1.16-3-3.21-.29-3.8-.46-9.72-.46-16.28,0-7.26.23-15.24.86-22.19C3400.33,314.91,3400.68,314.33,3401.82,314Z" transform="translate(-2734.3 -78.09)"/><path class="cls-17" d="M3421,367.3a33.09,33.09,0,0,1-3.87-.24c-3.21-.37-8.59-2.24-9-10.65-.17-3-.25-6-.25-9.6,0-4.6.16-9.53.47-15.05a17.14,17.14,0,0,1,.76-4.69,17.58,17.58,0,0,1-1.74-8.24c0-8.55,4.82-13.86,12.58-13.86,10.59,0,12.82,7.85,12.82,14.44a15.73,15.73,0,0,1-1.5,7,14.57,14.57,0,0,1,.47,4.21c0,9.43-.12,17.06-.71,25.91a12.86,12.86,0,0,1-2,7A9.24,9.24,0,0,1,3421,367.3Z" transform="translate(-2734.3 -78.09)"/><path class="cls-7" d="M3425.79,319.41c0,3.28-1.09,5.73-5.91,5.73-4.24,0-5.67-1.42-5.67-6.31,0-4.11,1.55-6.11,5.67-6.11S3425.79,313.82,3425.79,319.41Zm-8.83,9.07a20.63,20.63,0,0,1,4.64-.45,19,19,0,0,1,1.9.06c1.14.07,1.26.52,1.26,2.58,0,9.19-.12,16.72-.69,25.34-.17,2.63-.23,3.54-3.1,3.54a25.62,25.62,0,0,1-3.15-.2c-2.35-.26-2.75-1.28-2.87-3.41-.17-3.08-.23-6.11-.23-9.13,0-4.82.18-9.65.46-14.66C3415.24,330.15,3415.41,328.74,3417,328.48Z" transform="translate(-2734.3 -78.09)"/><path class="cls-17" d="M3454.57,367.36a32.13,32.13,0,0,1-6.33-.8l-.07,0a9,9,0,0,1-3.55-1.76,10,10,0,0,1-6.32,2.43,22,22,0,0,1-2.42.09,21.49,21.49,0,0,1-2.38-.09c-3.2-.23-8.44-1.87-9.35-10,0,0,0-.08,0-.13-.71-7.33-1.07-14.34-1.07-20.84,0-1.59,0-3.25.06-4.95.18-6.1,2.49-9.82,6.86-11a39,39,0,0,1,8.76-1,8,8,0,0,1,4.13,1.11,21.19,21.19,0,0,1,6.59-1.05c9.59,0,15.79,6.65,15.79,16.95a196.84,196.84,0,0,1-1.38,21.36C3463.06,364.81,3458.53,367.36,3454.57,367.36Z" transform="translate(-2734.3 -78.09)"/><path class="cls-7" d="M3431.64,327.84a32.34,32.34,0,0,1,7.11-.78c1.14,0,1.43.65,1.43,1.68,0,.51-.06,1.09-.11,1.73a14.88,14.88,0,0,1,9.4-3.34c3.15,0,8.89,1,8.89,9.2a188.12,188.12,0,0,1-1.32,20.32c-.17,1.48-.52,3-2.47,3a26.45,26.45,0,0,1-4.93-.64c-1.32-.33-1.83-1.29-1.83-2.83,0-1.87.63-5.21.63-15.83,0-2.05-.75-3.4-2.18-3.4a10.8,10.8,0,0,0-6.31,2.5c0,5.54.29,11,.75,16.34.05.52.11,1,.11,1.35,0,1.48-.57,2.25-3,2.38a15.5,15.5,0,0,1-1.89.07,14.49,14.49,0,0,1-1.83-.07c-2.35-.13-2.81-1.16-3-3.21-.63-6.5-1-13.32-1-20,0-1.54,0-3.08.05-4.63C3430.09,329.64,3430.15,328.22,3431.64,327.84Z" transform="translate(-2734.3 -78.09)"/><path class="cls-17" d="M3481.12,382.67a35.26,35.26,0,0,1-16.73-3.95l-.16-.08a10.68,10.68,0,0,1-5.84-9.64,21.81,21.81,0,0,1,1.7-7.36c-3.72-3.7-6-9.15-6-15.54,0-14.34,10.68-26.46,23.31-26.46.57,0,1.13,0,1.67.06a7.88,7.88,0,0,1,4-1,32.33,32.33,0,0,1,7.44,1.22c5.06,1.55,7.66,5.2,8,11.18.09,1.88.24,5.59.24,10.15,0,8.66-.42,20.56-1.6,28A16.12,16.12,0,0,1,3481.12,382.67Z" transform="translate(-2734.3 -78.09)"/><path class="cls-7" d="M3481.12,374.92a28.87,28.87,0,0,1-13.93-3.28,3,3,0,0,1-1.89-2.64,20,20,0,0,1,1.54-5.34c.46-1,.86-1.41,1.55-1.41a3.68,3.68,0,0,1,1.43.38,28.15,28.15,0,0,0,10.73,1.87c.4-2.64.68-5.66.91-8.81a13,13,0,0,1-8.65,3.34c-7.34,0-11.76-5.66-11.76-12.93,0-10.55,8.2-18.71,16.4-18.71a12.09,12.09,0,0,1,4.19.7c.11-1.28.51-1.67,1.43-1.67a26.77,26.77,0,0,1,5.68,1c1.89.58,2.69,1.15,2.86,4.18.12,2.31.23,5.72.23,9.65,0,8.87-.46,20.13-1.49,26.62C3489.72,371.64,3486.17,374.92,3481.12,374.92Zm.86-35.31v-2.77a8.58,8.58,0,0,0-3.33-.64c-4.64,0-7.22,4.95-7.22,8.23,0,3.09,1.89,5.08,5,5.08a7.94,7.94,0,0,0,5.5-2.57C3482,344.37,3482,341.92,3482,339.61Z" transform="translate(-2734.3 -78.09)"/><path class="cls-17" d="M3549.87,367.81a25.15,25.15,0,0,1-4.34-.34,10.48,10.48,0,0,1-8.56-6.41,10.69,10.69,0,0,1-7.49,6,27,27,0,0,1-6.16.75c-5.47,0-9.19-2.47-11.05-7.33-5.23-13.94-8-27.81-10.71-41.23,0-.14,0-.29-.07-.43l0-.13a13.23,13.23,0,0,1-.19-2.17,9.92,9.92,0,0,1,6.54-9.71l.14,0a28.78,28.78,0,0,1,7.88-1.47h.2c4.82,0,8.36,3,9.76,8.14a10.19,10.19,0,0,1,8.59-7.69h.09a25.55,25.55,0,0,1,2.83-.18,15.82,15.82,0,0,1,4.08.49c3.89,1.09,6.19,3.43,7.48,7.7,1.2-5.35,4.78-8.45,9.83-8.45a27.55,27.55,0,0,1,7,1.15,10,10,0,0,1,7.59,10.14,15.93,15.93,0,0,1-.34,3.16A272.8,272.8,0,0,1,3562,359c-1.8,5-4.81,7.95-9,8.63A18.62,18.62,0,0,1,3549.87,367.81Z" transform="translate(-2734.3 -78.09)"/><path class="cls-7" d="M3537.14,336.65c-1.55,6.3-3.38,12.54-5.56,19-.8,2.38-1.44,3.28-3.56,3.79a20.46,20.46,0,0,1-4.7.58c-2.18,0-3.84-.39-4.7-2.64-4.87-13-7.57-26.17-10.32-39.87a6.84,6.84,0,0,1-.11-1,2.24,2.24,0,0,1,1.71-2.32A23.34,23.34,0,0,1,3516,313c1.78,0,2.69.71,3.21,2.9,2.18,9.58,4.19,19.36,6.82,29.07,2.41-9.07,4.42-18.33,6.08-28.24.34-2.12,1.26-3.08,3.1-3.34a17.43,17.43,0,0,1,2.06-.13,9.89,9.89,0,0,1,2.41.26c1.6.45,2.24.83,2.87,3.66,1.95,8.37,3.89,17,6.3,25.86,2.53-8.75,4.53-17.75,6.65-27.33.4-1.87,1.15-2.71,3.16-2.71a21.47,21.47,0,0,1,5.27.9c1.78.52,2.41,1.23,2.41,2.64a7.81,7.81,0,0,1-.17,1.48,264.4,264.4,0,0,1-10.61,38c-.92,2.57-1.95,3.6-3.55,3.86a12.61,12.61,0,0,1-2.18.13,18.26,18.26,0,0,1-3.33-.26c-2.52-.38-3.09-1.16-3.9-3.47A170.93,170.93,0,0,1,3537.14,336.65Z" transform="translate(-2734.3 -78.09)"/><path class="cls-17" d="M3594,367.36a33.61,33.61,0,0,1-6.33-.8l-.07,0a8.91,8.91,0,0,1-3.55-1.76,10,10,0,0,1-6.32,2.43,22,22,0,0,1-2.42.09,21.49,21.49,0,0,1-2.38-.09c-3.2-.23-8.45-1.87-9.35-10,0-.05,0-.09,0-.13-.54-5.52-1.08-15.56-1.08-25.53,0-4.19.18-8.45.34-12.21l.07-1.86c.19-6.14,2.5-9.85,6.87-11a39.47,39.47,0,0,1,8.75-1c4,0,8.28,3,8.28,9.55,0,.71,0,2-.1,4.45.73-.07,1.46-.11,2.2-.11,9.59,0,15.79,6.65,15.79,16.95a196.84,196.84,0,0,1-1.38,21.36C3602.5,364.81,3598,367.36,3594,367.36Z" transform="translate(-2734.3 -78.09)"/><path class="cls-7" d="M3571.43,314a32.34,32.34,0,0,1,7.11-.77c1.2,0,1.38.7,1.38,1.8,0,1.61-.29,9.45-.35,15.37a14.91,14.91,0,0,1,9.35-3.28c3.15,0,8.88,1,8.88,9.2a190.34,190.34,0,0,1-1.31,20.32c-.18,1.48-.52,3-2.47,3a27.63,27.63,0,0,1-4.93-.64c-1.32-.33-1.84-1.29-1.84-2.83,0-1,.63-6.69.63-15.83,0-2.05-.74-3.4-2.17-3.4a10.92,10.92,0,0,0-6.14,2.38c.06,6.56.23,12.6.57,16.46a12.85,12.85,0,0,1,.12,1.35c0,1.48-.57,2.25-3,2.38a15.58,15.58,0,0,1-1.89.07,14.74,14.74,0,0,1-1.84-.07c-2.35-.13-2.81-1.16-3-3.21-.52-5.34-1-15-1-24.7,0-4.7.23-9.46.4-13.77C3569.88,315.81,3569.94,314.39,3571.43,314Z" transform="translate(-2734.3 -78.09)"/><path class="cls-17" d="M3616.84,368.2c-14.12,0-23.25-9.31-23.25-23.7a25.75,25.75,0,0,1,7.48-18.48,22.57,22.57,0,0,1,15.66-6.7,21.65,21.65,0,0,1,6.29,1l.36.13a9.24,9.24,0,0,1,5.48,5.29c6.29,3.68,10.14,10.82,10.14,19.39C3639,359.57,3627.73,368.2,3616.84,368.2Z" transform="translate(-2734.3 -78.09)"/><path class="cls-7" d="M3622.69,329.83a6.9,6.9,0,0,1-.17,1.48c6,1.61,9.57,6.82,9.57,13.83,0,9.9-7.91,15.31-15.25,15.31-10,0-16.34-5.6-16.34-15.95,0-10.55,8.31-17.44,16.23-17.44a15.25,15.25,0,0,1,4.35.71C3622.06,328.16,3622.69,328.48,3622.69,329.83Zm-5.79,6.75c-3.9.45-6.82,3.73-6.82,8.3,0,3.8,2.86,6,6.19,6,3.15,0,6.59-2.18,6.59-6a4.81,4.81,0,0,0-3.55-4.76C3617.53,339.48,3617,339.16,3616.9,336.58Z" transform="translate(-2734.3 -78.09)"/><text x="-2734.3" y="-78.09"/><path class="cls-18" d="M3117.26,306.88c-13.22-35.78-15.49-63-5-70,3.84-2.56,8-3.12,16.24,6.62" transform="translate(-2734.3 -78.09)"/><path class="cls-19" d="M3133,280c-6.33,12.33-8.41,12.54-14.74,24.88" transform="translate(-2734.3 -78.09)"/><path class="cls-20" d="M3614.31,319c-13.21-109.14-15.49-196.24-5-217.52,3.84-7.79,11.49-14.2,19.69,15.52" transform="translate(-2734.3 -78.09)"/><path class="cls-20" d="M3625,157c-6.33,37.62-4.14,122.94-10.47,160.57" transform="translate(-2734.3 -78.09)"/></svg>