<svg width="178" height="140" viewBox="0 0 178 140" fill="none" xmlns="http://www.w3.org/2000/svg">
<g clip-path="url(#clip0_807:6244)">
<path d="M170.045 121.888L99.8723 123.246L20.0787 139.839C18.245 140 16.4222 139.427 15.0096 138.247C13.5969 137.067 12.7096 135.375 12.5419 133.542L0.0587483 29.2225C-0.410928 25.3037 2.20166 21.7664 5.89302 21.3261L83.5878 19.7629L155.859 3.38299C159.529 2.94267 162.919 5.76072 164.856 9.58418L177.406 115.65C178.462 121.389 179.174 121.389 170.045 121.888Z" fill="#CC9932"/>
<path d="M84.6739 18.8385C83.8153 19 80.5202 16.0351 77.438 13.7014C74.0401 11.1255 69.3654 10.5605 59.9205 10.0834C54.2624 9.79724 48.9125 9.34957 42.403 11.0375C39.8859 11.6833 38.9612 12.1823 36.1211 12.7474C34.1984 13.1363 30.4923 13.1804 23.1683 13.3198C18.1413 13.4225 18.2514 13.1657 17.2387 12.9162C16.2259 12.6667 15.2866 11.0742 15.3306 11.5879C15.426 12.9235 15.7856 20.5778 15.9324 21.7006C17.1653 30.8813 17.3341 35.057 25.6488 82.8245C29.0246 102.25 29.6777 103.417 28.8852 106.815C28.5623 108.165 27.8137 111.702 29.4576 114.051C30.3382 115.313 34.0589 115.651 35.1671 115.57C42.6452 115.049 50.2848 116.084 57.6382 114.623C61.513 113.845 69.6443 114.117 85.8187 114.051C90.5962 114.051 93.1134 114.102 95.5278 115.761C96.8121 116.649 97.8028 117.801 99.3366 117.669C100.87 117.537 101.377 116.289 103.527 114.814C104.378 114.227 105.244 113.765 108.092 112.715C118.953 108.715 125.609 107.006 125.609 107.006C132.215 105.066 138.966 103.665 145.798 102.815C159.91 101.061 166.676 101.524 172.834 102.624C174.47 102.918 175.197 103.468 176.29 102.39C176.239 102.177 175.732 96.5846 175.718 96.4672C175.27 92.9006 173.516 72.0073 169.502 48.9271C165.407 25.3186 162.897 2.69337 161.789 2.27507C161.385 2.11362 161.547 2.27507 155.698 1.5412C149.849 0.807329 145.372 0.381686 144.69 0.396364C135.076 0.565154 122.674 2.16499 119.364 3.06031C105.479 6.8324 97.634 9.81925 91.0659 14.8903C89.6789 15.903 86.604 18.4642 84.6739 18.8385Z" fill="white" stroke="#1D1D1B" stroke-miterlimit="10"/>
<path d="M84.6665 18.8384L99.3292 117.661" stroke="#1D1D1B" stroke-miterlimit="10"/>
<path d="M6.27466 28.7164L20.0787 130.776C20.0787 130.776 42.9314 126.013 51.1214 124.494C59.3944 122.855 67.8162 122.088 76.2491 122.204C81.304 122.252 86.2968 123.322 90.9265 125.352L100.261 117.639V116.113L94.1335 114.403C94.1335 114.403 88.424 112.495 84.5932 112.495H69.0131L51.6865 115.159L31.6959 114.212L21.0328 45.6615L15.1618 11.5806L6.30402 28.7164" fill="white"/>
<path d="M6.27466 28.7164L20.0787 130.776C20.0787 130.776 42.9314 126.013 51.1214 124.494C59.3944 122.855 67.8162 122.088 76.2491 122.204C81.304 122.252 86.2968 123.322 90.9265 125.352L100.261 117.639V116.113L94.1335 114.403C94.1335 114.403 88.424 112.495 84.5932 112.495H69.0131L51.6865 115.159L31.6959 114.212L21.0328 45.6615L15.1618 11.5806L6.30402 28.7164" stroke="#1D1D1B" stroke-miterlimit="10"/>
<path d="M99.3364 117.015L107.614 122.725L119.041 117.015C119.041 117.015 122.468 114.726 141.321 114.726C160.174 114.726 173.611 118.725 173.611 118.725L175.321 104.73L175.952 102.91C175.952 102.91 168.357 101.876 157.246 101.017C146.135 100.158 136.962 104.686 130.13 105.303C120.472 106.162 99.3364 117.015 99.3364 117.015Z" fill="white" stroke="#1D1D1B" stroke-miterlimit="10"/>
<path d="M99.0723 115.724C98.0889 115.724 97.2963 116.458 95.7478 117.801C92.6949 120.472 93.0032 121.47 91.3446 122.145C88.9522 123.099 86.9781 121.411 85.9066 122.608C85.6259 122.996 85.4593 123.456 85.4256 123.934C85.3919 124.413 85.4924 124.891 85.7158 125.316C86.7212 127.26 90.3098 127.172 96.3936 126.952C99.9273 126.867 103.438 126.359 106.851 125.44C110.44 124.464 111.893 123.554 112.627 122.123C113.295 120.846 113.419 119.056 112.7 118.557C111.981 118.058 110.785 119.621 108.392 119.76C106.638 119.863 105.222 119.114 103.564 118.234C100.87 116.803 100.533 115.665 99.0723 115.724Z" fill="#1D1D1B"/>
<path d="M7.07446 27.0359L13.9288 75.7281" stroke="#1D1D1B" stroke-miterlimit="10"/>
<path d="M8.23413 24.3572L11.3824 46.7329" stroke="#1D1D1B" stroke-miterlimit="10"/>
<path d="M9.66504 21.8179L16.5194 70.5174" stroke="#1D1D1B" stroke-miterlimit="10"/>
<path d="M11.1401 19.1467L16.3139 55.8989" stroke="#1D1D1B" stroke-miterlimit="10"/>
<path d="M12.3804 16.7029L19.2347 65.4024" stroke="#1D1D1B" stroke-miterlimit="10"/>
<path d="M13.929 13.7969L18.4863 46.1679" stroke="#1D1D1B" stroke-miterlimit="10"/>
<path d="M17.6421 103.263L21.1647 127.987C21.2159 128.239 21.3578 128.463 21.5634 128.617C21.769 128.771 22.024 128.845 22.2801 128.823L43.4156 125.198" stroke="#1D1D1B" stroke-miterlimit="10"/>
<path d="M17.2092 92.519L22.0674 126.754C22.1172 127.007 22.2587 127.232 22.4647 127.386C22.6706 127.541 22.9265 127.614 23.1829 127.591L44.8468 124.119" stroke="#1D1D1B" stroke-miterlimit="10"/>
<path d="M19.5796 100.812L23.1022 125.536C23.1519 125.788 23.2934 126.013 23.4994 126.168C23.7053 126.322 23.9612 126.395 24.2176 126.372L46.8795 122.519" stroke="#1D1D1B" stroke-miterlimit="10"/>
<path d="M20.0127 95.594L24.0783 124.362C24.131 124.613 24.2733 124.836 24.4785 124.99C24.6838 125.144 24.938 125.218 25.1938 125.198L48.6336 121.331" stroke="#1D1D1B" stroke-miterlimit="10"/>
<path d="M22.7427 105.442L25.2452 122.967C25.2949 123.22 25.4364 123.445 25.6424 123.599C25.8483 123.754 26.1042 123.827 26.3606 123.804L52.8753 119.4" stroke="#1D1D1B" stroke-miterlimit="10"/>
<path d="M23.073 96.9514L26.6176 121.69C26.6672 121.941 26.8076 122.166 27.012 122.32C27.2164 122.474 27.4705 122.548 27.7257 122.527L54.8789 118.021" stroke="#1D1D1B" stroke-miterlimit="10"/>
<path d="M23.073 87.2351L28.2761 120.325C28.3288 120.576 28.471 120.8 28.6763 120.954C28.8815 121.108 29.1358 121.182 29.3916 121.162L44.7001 118.755" stroke="#1D1D1B" stroke-miterlimit="10"/>
<path d="M26.1846 94.1702L29.7071 118.894C29.7568 119.147 29.898 119.373 30.1038 119.529C30.3095 119.685 30.5655 119.759 30.8226 119.738L52.0241 116.803" stroke="#1D1D1B" stroke-miterlimit="10"/>
<path d="M29.0244 106.117L30.5288 116.663C30.58 116.916 30.7216 117.141 30.927 117.296C31.1324 117.451 31.3875 117.526 31.6443 117.507L46.3804 116.039" stroke="#1D1D1B" stroke-miterlimit="10"/>
<path d="M174.91 106.191C174.91 106.191 166.419 103.828 163.565 103.417C150.715 101.538 144.888 102.925 144.888 102.925" stroke="#1D1D1B" stroke-miterlimit="10"/>
<path d="M174.742 107.534L163.447 105.193L161.899 104.899" stroke="#1D1D1B" stroke-miterlimit="10"/>
<path d="M174.58 108.87L163.278 106.528L154.582 105.457" stroke="#1D1D1B" stroke-miterlimit="10"/>
<path d="M174.411 110.213L158.714 107.152" stroke="#1D1D1B" stroke-miterlimit="10"/>
<path d="M174.25 111.555L166.111 109.603L155.683 108.319" stroke="#1D1D1B" stroke-width="0.85" stroke-miterlimit="10"/>
<path d="M174.081 112.898L162.779 110.557L155.852 109.699" stroke="#1D1D1B" stroke-miterlimit="10"/>
<path d="M174.088 114.271L164.321 112.121L156.776 111.174" stroke="#1D1D1B" stroke-miterlimit="10"/>
<path d="M173.751 115.577L162.456 113.236L153.092 111.967" stroke="#1D1D1B" stroke-miterlimit="10"/>
<path d="M173.589 116.92L162.288 114.579L147.875 112.803" stroke="#1D1D1B" stroke-miterlimit="10"/>
<path d="M97.2524 117.676L85.6719 114.322L76.1169 113.764" stroke="#1D1D1B" stroke-miterlimit="10"/>
<path d="M97.0469 119.188L87.1397 116.326L81.8044 115.628" stroke="#1D1D1B" stroke-miterlimit="10"/>
<path d="M96.8928 121.045L85.305 117.698L78.0691 117.272" stroke="#1D1D1B" stroke-miterlimit="10"/>
<path d="M96.6945 123.099L85.1067 119.753L73.5703 119.188" stroke="#1D1D1B" stroke-miterlimit="10"/>
<path d="M101.802 117.544L111.988 112.693" stroke="#1D1D1B" stroke-miterlimit="10"/>
<path d="M103.131 118.96L110.411 115.32" stroke="#1D1D1B" stroke-miterlimit="10"/>
<path d="M104.407 119.841L112.465 115.805" stroke="#1D1D1B" stroke-miterlimit="10"/>
<path d="M104.209 121.521L111.489 117.881" stroke="#1D1D1B" stroke-miterlimit="10"/>
<path opacity="0.81" d="M120.515 90.5508L87.4936 71.215C87.37 71.1389 87.239 71.0849 87.108 71.0308C90.5788 66.2394 92.6497 60.3609 92.686 53.9905C92.7708 37.8098 79.755 24.6269 63.6136 24.5471C47.4626 24.4706 34.3002 37.5213 34.2109 53.7013C34.1216 69.8814 47.1373 83.0643 63.2838 83.1402C71.1818 83.1806 78.3589 80.073 83.6476 75.0025C83.8829 75.4207 84.2261 75.7885 84.6707 76.0496L117.692 95.3853C119.027 96.164 120.738 95.7142 121.515 94.3811C122.292 93.048 121.85 91.3295 120.515 90.5508ZM63.4874 78.0602C50.1246 77.9929 39.3618 67.0834 39.4358 53.6968C39.5054 40.3097 50.3985 29.5134 63.7522 29.5795C77.106 29.6457 87.8785 40.5518 87.8039 53.9429C87.7349 67.3255 76.8457 78.1269 63.4874 78.0602Z" fill="white" stroke="black" stroke-width="2.9114" stroke-miterlimit="10" stroke-linecap="round" stroke-linejoin="round"/>
</g>
<defs>
<clipPath id="clip0_807:6244">
<rect width="178" height="139.883" fill="white"/>
</clipPath>
</defs>
</svg>
