<svg id="图层_12" data-name="图层 12" xmlns="http://www.w3.org/2000/svg" viewBox="0 0 333.15 311.07"><defs><style>.cls-1{fill:#c96;}.cls-2{fill:#e1ae41;}.cls-3{fill:#fff;}.cls-4{fill:#00a99d;stroke:#000;stroke-miterlimit:10;}</style></defs><path d="M1545.47,1236.4c200.56-55.44,261.53-66,263.88-59,.77,2.29-3.92,8.69-1,17,1.29,3.67,2.57,3.45,8,12,6.57,10.35,6.39,13.33,6,15-.58,2.47-4,9.32-3,7h0l-237.89,62h0c-5.4.54-8.82-.69-11-2-1.49-.91-2.45-1.88-7-6h0" transform="translate(-1489.85 -979.93)"/><path d="M1578.93,1291a16.59,16.59,0,0,1-8.73-2.2,32.92,32.92,0,0,1-4.94-4.11l-2.13-1.94.67-.74,2.13,1.94a33,33,0,0,0,4.79,4c2.83,1.71,6.42,2.36,10.69,1.93L1819.09,1228a46.75,46.75,0,0,0,2.77-6.66c.45-1.9.1-5.11-5.93-14.61a80,80,0,0,0-5.35-7.56,13.72,13.72,0,0,1-2.7-4.54c-2-5.62-.55-10.43.39-13.61.44-1.48.82-2.76.61-3.39-.68-2-9-3.9-57,6.39-43.61,9.34-113,27.14-206.23,52.91l-.27-1c93.25-25.78,162.66-43.59,206.29-52.93,50.28-10.77,57.29-8.43,58.2-5.73.31.93-.07,2.22-.6,4-1,3.24-2.28,7.67-.41,13a12.68,12.68,0,0,0,2.55,4.25,81.73,81.73,0,0,1,5.4,7.64c6.22,9.79,6.59,13.18,6.06,15.38a49.46,49.46,0,0,1-3.17,7.42s0,0,0,0h0c-.15.22-.27.35-.35.37l-.31.07-.19-.24a.35.35,0,0,1-.08-.1l-237.12,61.77C1580.67,1291,1579.78,1291,1578.93,1291Z" transform="translate(-1489.85 -979.93)"/><path class="cls-1" d="M1514.49,1018.48c-2.23,4-3.15,4.08-3.15,4.08-1.44.11-1.72-2.56-4.2-3.06a12.67,12.67,0,0,0-3.15,0c8.9,32.39,17.23,57.8,23.25,75.13,7.54,21.73,14,39.57,14,39.58,6.93,23,12.85,41.74,17.19,55.21,4.61,14.32,13,40,13,40h0l1,6c1.19.69,2.63-.52,6-1a17.93,17.93,0,0,1,5,0q-16.53-50.55-32.74-101.23Q1532.41,1075.89,1514.49,1018.48Z" transform="translate(-1489.85 -979.93)"/><path d="M1573.26,1236.14a2.09,2.09,0,0,1-1.07-.28l-.22-.12-1-6.25c-.06-.18-8.41-25.75-13-39.91-5.78-17.95-11.57-36.53-17.2-55.22,0-.15-6.57-18.07-14-39.55-8.31-23.94-16.13-49.23-23.25-75.16l-.17-.6.62-.08a12.82,12.82,0,0,1,3.32,0,4.9,4.9,0,0,1,2.94,2.12c.47.61.73.94,1.11.93h0s.81-.37,2.72-3.81l.61-1.09.38,1.19c11.86,38,24,76.62,36.22,114.69,10.78,33.68,21.79,67.74,32.74,101.22l.26.82-.85-.12a17.9,17.9,0,0,0-4.85,0,20.82,20.82,0,0,0-3.27.78A7.08,7.08,0,0,1,1573.26,1236.14Zm-.32-1.12a3.88,3.88,0,0,0,2-.34,20.71,20.71,0,0,1,3.44-.81,18.24,18.24,0,0,1,4.31-.1c-10.87-33.23-21.79-67-32.48-100.43-12-37.68-24.11-75.87-35.86-113.53-1.67,2.76-2.56,3.26-3,3.29-1,.08-1.52-.65-2.05-1.34a3.82,3.82,0,0,0-2.3-1.73,9.89,9.89,0,0,0-2.36,0c7.07,25.69,14.83,50.75,23.06,74.48,7.46,21.47,14,39.38,14,39.56,5.64,18.71,11.42,37.29,17.2,55.23,4.56,14.16,12.91,39.73,13,40Z" transform="translate(-1489.85 -979.93)"/><path class="cls-2" d="M1504.49,1018.48c1.67,0-3.35-.26-5,0-7.07,1.12-9,33-9,33q16.92,56.76,34,113.46,15.43,51.24,31,102.46c5.51,12.35,7.42,15.2,8,15,1.54-.56-5.58-23.36-1-36,.56-1.55,1.93-4.68,3-7,2.53-5.48,4.76-10.28,6-10,.53.12,1.1,1.21,1,6q-17-55.8-34.48-111.45Q1521.44,1071.17,1504.49,1018.48Z" transform="translate(-1489.85 -979.93)"/><path d="M1563.35,1282.92c-.73,0-2.18-1.54-8.34-15.33-10.3-33.89-20.72-68.36-31-102.52-11.38-37.77-22.81-76-34-113.46l-.17-.56.18,0c.43-6.24,2.63-32,9.39-33a36.43,36.43,0,0,1,5.23,0h.1v0c.25,0,.42.1.47.18l.18.25-.14.27a.45.45,0,0,1-.13.17c11.22,34.89,22.42,70.19,33.32,104.93S1560.32,1194,1571,1229a1,1,0,0,1,.56,0c.79.18,1.5,1.09,1.39,6.5l-.06,3.13-.92-3q-.74-2.44-1.49-4.89a73.41,73.41,0,0,0-4.57,9c-1.06,2.3-2.43,5.42-3,7-3,8.32-.85,21.29.44,29,.92,5.49,1.13,6.94.26,7.26A1,1,0,0,1,1563.35,1282.92ZM1491,1051.42c11.17,37.48,22.6,75.62,34,113.36,10.28,34.16,20.71,68.63,31,102.46,4.73,10.6,6.56,13.6,7.25,14.4a53.23,53.23,0,0,0-.8-5.89c-1.31-7.84-3.51-21-.4-29.53.59-1.62,2-4.79,3-7,2.31-5,3.87-8.29,5.15-9.63-10.73-35.08-21.7-70.53-32.66-105.46s-22.15-70.21-33.39-105.18a31,31,0,0,0-4.54.06C1494.46,1019.78,1491.78,1039.74,1491,1051.42Zm80.3,178.47c.19.6.37,1.21.56,1.82-.18-1.64-.49-1.81-.51-1.82Z" transform="translate(-1489.85 -979.93)"/><path class="cls-3" d="M1574.46,1234.4c-6.41,7.41-11.63,20.64-7,32,3.85,9.41,13.93,17.91,14,18,24.09-6.2,217-55.89,228.89-60a6.58,6.58,0,0,0,4-3c2.21-4.5-4.54-10.4-8-18-6.09-13.37,2.58-22-1-27-6.43-8.93-32.48-.9-40.42,1.49-59.63,17.93-167,35.85-187.47,53.49A33.4,33.4,0,0,0,1574.46,1234.4Z" transform="translate(-1489.85 -979.93)"/><path d="M1581.27,1285l-.26-.28c-2.42-2.13-10.61-9.74-14-18.1-4.63-11.35.43-24.82,7.09-32.52h0a33.55,33.55,0,0,1,3-3c13.26-11.41,63.2-23.08,111.49-34.37,27-6.3,54.84-12.81,76.17-19.23l.42-.12c8.42-2.54,34-10.25,40.57-1.17,1.64,2.26,1,5.08.13,8.64-1.14,4.82-2.55,10.81.92,18.44a55.2,55.2,0,0,0,4.34,7.37c2.8,4.23,5.22,7.89,3.65,11.06-.71,1.45-2.11,2.51-4.29,3.26-11.56,4-192.73,50.67-228.93,60Zm-6.42-50.22c-6.46,7.47-11.38,20.5-6.91,31.45,3.28,8,11.15,15.4,13.65,17.62,36.82-9.48,217.1-56,228.59-59.9a5.92,5.92,0,0,0,3.7-2.74c1.3-2.64-1-6.06-3.59-10a55.18,55.18,0,0,1-4.41-7.51c-3.62-8-2.1-14.4-1-19.11.78-3.3,1.4-5.92,0-7.79-6.11-8.48-31.19-.93-39.43,1.55l-.43.13c-21.35,6.42-49.25,12.94-76.22,19.24-48.17,11.26-98,22.9-111,34.14a32.54,32.54,0,0,0-3,3Z" transform="translate(-1489.85 -979.93)"/><path class="cls-2" d="M1514.49,1017.49c73.91-10.06,115.58-18.42,140.45-24.53l50.46-12.46h0c37.1,59.63,56,131,100.95,184.93.78.93,4,4.59,3,8-1.19,4.11-7.8,5.51-10,6-35.56,8-216.9,52-216.9,52S1514.49,1017.5,1514.49,1017.49Z" transform="translate(-1489.85 -979.93)"/><path d="M1582.13,1232l-.15-.43-34-107c-17-53.41-34-106.82-34-106.95l-.18-.57.59-.08c60.44-8.23,107.68-16.47,140.4-24.52L1705.28,980l.35-.08.19.31c15.2,24.42,27.54,51.22,39.46,77.14,17.18,37.32,34.93,75.91,61.46,107.73l.08.1c1,1.19,4,4.81,3,8.35-1.24,4.3-7.77,5.77-10.22,6.32l-.14,0c-35.6,8-215.18,51.56-216.9,52Zm-67-214.09L1549,1124.29c16.1,50.67,32.2,101.35,33.85,106.52l1.58-.39,26.85-6.5c17.56-4.25,41.33-10,66.23-16,45.41-11,103.41-24.86,121.79-29l.14,0c2.3-.51,8.4-1.88,9.48-5.62.58-2-.36-4.51-2.81-7.43l-.09-.1c-26.61-31.93-44.39-70.57-61.59-108-11.87-25.78-24.14-52.44-39.21-76.73l-50.11,12.37C1622.41,1001.47,1575.34,1009.7,1515.14,1017.9Z" transform="translate(-1489.85 -979.93)"/><rect x="1585.27" y="1211.37" width="223.28" height="1.08" transform="translate(-1729.38 -541.6) rotate(-13.76)"/><rect x="1587.11" y="1218.49" width="223.28" height="1.08" transform="translate(-1731.02 -540.96) rotate(-13.76)"/><rect x="1591.11" y="1225.48" width="223.28" height="1.08" transform="translate(-1732.57 -539.81) rotate(-13.76)"/><rect x="1591.11" y="1233.48" width="223.28" height="1.08" transform="translate(-1734.47 -539.58) rotate(-13.76)"/><rect x="1595.11" y="1241.48" width="223.28" height="1.08" transform="translate(-1736.26 -538.4) rotate(-13.76)"/><path class="cls-4" d="M1624,1130.21a1.19,1.19,0,0,1-.11.9,2.55,2.55,0,0,1-.94.9,13.52,13.52,0,0,1-2,.94,33.52,33.52,0,0,1-3.2,1c-1.34.37-2.45.64-3.35.8a12.62,12.62,0,0,1-2.16.22,2.49,2.49,0,0,1-1.25-.28,1.16,1.16,0,0,1-.56-.71l-6.61-23.44-24.9,7,6.61,23.44a1.23,1.23,0,0,1-.08.9,2.31,2.31,0,0,1-.92.89,12.83,12.83,0,0,1-2,.94c-.83.33-1.92.68-3.26,1.06s-2.4.63-3.3.79a12.91,12.91,0,0,1-2.19.23,2.67,2.67,0,0,1-1.27-.27,1.24,1.24,0,0,1-.56-.72l-15.45-54.77a1.19,1.19,0,0,1,.1-.9,2.55,2.55,0,0,1,.94-.9,14,14,0,0,1,2-1c.85-.33,1.92-.68,3.22-1s2.45-.64,3.34-.8a13.3,13.3,0,0,1,2.15-.22,2.38,2.38,0,0,1,1.25.28,1.23,1.23,0,0,1,.53.72l6,21.29,24.9-7-6-21.29a1.24,1.24,0,0,1,.11-.9,2.54,2.54,0,0,1,.92-.89,12.84,12.84,0,0,1,2-.94c.85-.33,2-.69,3.28-1.07s2.4-.62,3.28-.78a13.4,13.4,0,0,1,2.16-.22,2.64,2.64,0,0,1,1.27.27,1.21,1.21,0,0,1,.56.71Z" transform="translate(-1489.85 -979.93)"/><path class="cls-4" d="M1636.56,1069q1,3.4-.27,5.16t-5.55,3c-2.91.83-5,1-6.24.41s-2.18-1.92-2.79-4.1-.57-4,.23-5.17,2.65-2.18,5.57-3,5-.94,6.22-.38S1636,1066.79,1636.56,1069Zm14.12,53.8a1.15,1.15,0,0,1-.08.87,2.49,2.49,0,0,1-.9.86,10.83,10.83,0,0,1-1.88.89c-.81.31-1.84.64-3.11,1s-2.33.61-3.17.77a10.5,10.5,0,0,1-2.08.22,2.29,2.29,0,0,1-1.21-.26,1.17,1.17,0,0,1-.53-.7l-11.26-39.89a1.2,1.2,0,0,1,.09-.87,2.55,2.55,0,0,1,.89-.88,10.06,10.06,0,0,1,1.87-.94c.8-.32,1.84-.66,3.1-1a29.91,29.91,0,0,1,3.18-.75,10.16,10.16,0,0,1,2.09-.18,2.64,2.64,0,0,1,1.22.28,1.2,1.2,0,0,1,.53.7Z" transform="translate(-1489.85 -979.93)"/><path class="cls-4" d="M1707.43,1106.75a1.2,1.2,0,0,1-.09.87,2.37,2.37,0,0,1-.87.86,10.65,10.65,0,0,1-1.89.89c-.82.31-1.84.64-3.08,1s-2.33.62-3.19.78a10,10,0,0,1-2.08.22,2.35,2.35,0,0,1-1.19-.27,1.22,1.22,0,0,1-.53-.69l-6.43-22.82a17.44,17.44,0,0,0-1.78-4.43,8.81,8.81,0,0,0-2.22-2.45,6.24,6.24,0,0,0-2.91-1.16,8.59,8.59,0,0,0-3.6.31,9.78,9.78,0,0,0-4.55,3,26.4,26.4,0,0,0-4,6.05l7.5,26.58a1.13,1.13,0,0,1-.09.88,2.43,2.43,0,0,1-.89.85,11.28,11.28,0,0,1-1.89.9c-.8.3-1.84.64-3.1,1s-2.33.61-3.17.77a10.57,10.57,0,0,1-2.08.22,2.39,2.39,0,0,1-1.21-.26,1.16,1.16,0,0,1-.53-.7l-11.29-40a1.33,1.33,0,0,1,0-.86,2,2,0,0,1,.77-.82,8.18,8.18,0,0,1,1.63-.82,24.46,24.46,0,0,1,2.62-.86c1.09-.31,2-.53,2.75-.66a7.63,7.63,0,0,1,1.77-.14,2,2,0,0,1,1,.32,1.4,1.4,0,0,1,.48.72l1.3,4.61a30.23,30.23,0,0,1,6.22-7.56,20.32,20.32,0,0,1,7.7-4.11,21.34,21.34,0,0,1,8.28-.88,14.29,14.29,0,0,1,6.23,2.18,14.73,14.73,0,0,1,4.38,4.6,29.11,29.11,0,0,1,3,7.19Z" transform="translate(-1489.85 -979.93)"/><path class="cls-4" d="M1745.21,1091.83a12.93,12.93,0,0,1,.57,3.11,3.2,3.2,0,0,1-.33,1.69,4.44,4.44,0,0,1-1.15,1.15,15.74,15.74,0,0,1-1.94,1.17,25,25,0,0,1-2.52,1.12c-.92.36-1.86.67-2.82.94a23.93,23.93,0,0,1-6.92,1,12,12,0,0,1-5.43-1.3,11,11,0,0,1-4-3.69,21.43,21.43,0,0,1-2.67-6.12l-5.78-20.49-5.51,1.56a1.69,1.69,0,0,1-1.79-.63,9,9,0,0,1-1.5-3.38,15.07,15.07,0,0,1-.49-2.23,4.87,4.87,0,0,1,0-1.52,1.77,1.77,0,0,1,.44-.92,1.84,1.84,0,0,1,.83-.48l5.46-1.54-2.52-8.92a1.31,1.31,0,0,1,.06-.89,2.18,2.18,0,0,1,.85-.89,9.72,9.72,0,0,1,1.91-.93c.82-.31,1.84-.64,3.08-1s2.33-.61,3.19-.78a9.25,9.25,0,0,1,2.09-.2,2.49,2.49,0,0,1,1.2.32,1.23,1.23,0,0,1,.53.72l2.52,8.92,10-2.82a1.75,1.75,0,0,1,1,0,1.71,1.71,0,0,1,.85.56,5,5,0,0,1,.79,1.3,18.19,18.19,0,0,1,.75,2.16,9.17,9.17,0,0,1,.48,3.67,1.69,1.69,0,0,1-1.2,1.47l-10,2.83,5.3,18.78a8.74,8.74,0,0,0,2.57,4.58c1.09.87,2.65,1,4.68.44a9.83,9.83,0,0,0,1.8-.68,12.9,12.9,0,0,0,1.37-.77c.39-.25.72-.48,1-.66a2.21,2.21,0,0,1,.75-.38,1.16,1.16,0,0,1,.64,0,1,1,0,0,1,.61.5,8.69,8.69,0,0,1,.65,1.2A15.64,15.64,0,0,1,1745.21,1091.83Z" transform="translate(-1489.85 -979.93)"/></svg>