<svg width="81" height="76" viewBox="0 0 81 76" fill="none" xmlns="http://www.w3.org/2000/svg">
<g clip-path="url(#clip0_807:6285)">
<path d="M13.5229 62.6602C62.2858 49.1152 77.1097 46.5279 77.6811 48.2503C77.8659 48.8098 76.728 50.3734 77.4379 52.4013C77.7516 53.2979 78.0628 53.2442 79.383 55.3331C80.9828 57.8618 80.9366 58.5898 80.8418 58.9954C80.6984 59.5989 79.8644 61.2724 80.1124 60.7056C60.8319 65.7532 41.5538 70.8008 22.2733 75.8485C20.9628 75.9804 20.1289 75.6823 19.6013 75.3598C19.239 75.1399 19.0056 74.9005 17.8994 73.8939" fill="black"/>
<path d="M21.6559 76C20.8292 76 20.1217 75.8192 19.5358 75.4625C19.227 75.2768 19.0203 75.0863 18.3347 74.4559L17.8168 73.9819L17.9797 73.8011L18.4976 74.2751C19.1711 74.8908 19.3729 75.0789 19.6622 75.2524C20.3503 75.6702 21.2231 75.829 22.2613 75.7239L80.0493 60.5933C80.2268 60.2342 80.628 59.3595 80.7228 58.9662C80.8322 58.5044 80.7471 57.7177 79.281 55.3967C78.6586 54.4096 78.2672 53.9137 77.9827 53.5496C77.6691 53.1514 77.4964 52.9315 77.3262 52.4404C76.8448 51.0674 77.1925 49.8922 77.4211 49.1153C77.528 48.7537 77.6204 48.4409 77.5694 48.287C77.404 47.791 75.3836 47.3342 63.7035 49.8482C53.098 52.1301 36.2293 56.479 13.5595 62.7751L13.4939 62.5405C36.1661 56.242 53.042 51.8931 63.65 49.6088C75.8747 46.9775 77.5791 47.5516 77.7979 48.2113C77.8733 48.4385 77.7809 48.7537 77.652 49.1861C77.4186 49.9777 77.1001 51.06 77.5524 52.3598C77.7104 52.8118 77.8636 53.0072 78.1723 53.3981C78.4617 53.7646 78.8556 54.2679 79.4853 55.2647C80.9976 57.6566 81.0875 58.4824 80.9587 59.0223C80.9125 59.2129 80.4262 60.4638 80.1879 60.8352C80.1855 60.8401 80.1855 60.845 80.1831 60.8474H80.1806C80.1442 60.9012 80.115 60.9329 80.0955 60.9378L80.0226 60.9549L79.974 60.8963C79.9667 60.8865 79.9594 60.8792 79.9569 60.8694L22.3026 75.9658C22.079 75.9902 21.865 76 21.6559 76Z" fill="black"/>
<path d="M5.99089 9.4209C5.4487 10.4006 5.22502 10.4177 5.22502 10.4177C4.87491 10.4446 4.80683 9.79226 4.20386 9.6701C3.90724 9.60902 3.43799 9.6701 3.43799 9.6701C5.59945 17.5836 7.62718 23.7917 9.08842 28.0257C10.9216 33.3347 12.502 37.6934 12.502 37.6934C14.1869 43.3127 15.6287 47.8937 16.6815 51.1822C17.8023 54.6832 19.8398 60.95 19.8398 60.95L20.0829 62.4159C20.3722 62.5845 20.7224 62.2889 21.5417 62.1716C22.0377 62.1007 22.4608 62.1301 22.7574 62.1716C20.0781 53.9381 17.4255 45.6948 14.7996 37.4393C11.8285 28.1088 8.89391 18.7685 5.99089 9.4209Z" fill="#CC9966"/>
<path d="M20.2799 62.5992C20.1899 62.5992 20.1049 62.5796 20.0198 62.5307L19.9663 62.499L19.7134 60.972C19.6988 60.928 17.6662 54.6808 16.5575 51.2213C15.1522 46.8358 13.7469 42.2963 12.3756 37.73C12.361 37.6934 10.7758 33.3152 8.96447 28.0672C6.94402 22.2183 5.04272 16.0395 3.31161 9.7043L3.27271 9.55771L3.42102 9.53817C3.44047 9.53572 3.91458 9.47709 4.22822 9.54061C4.60021 9.61635 4.79715 9.87288 4.94303 10.0586C5.05731 10.2076 5.12052 10.2882 5.21534 10.2858C5.20319 10.2858 5.41228 10.1954 5.87667 9.35737L6.02498 9.09106L6.11494 9.3818C8.9985 18.6732 11.9623 28.1014 14.9237 37.4002C17.5422 45.6288 20.2216 53.9503 22.8814 62.1301L22.9471 62.3304L22.7404 62.3011C22.3441 62.2473 21.9478 62.2473 21.5612 62.3011C21.2257 62.3499 20.9704 62.4281 20.7662 62.4917C20.579 62.5503 20.4209 62.5992 20.2799 62.5992ZM20.2021 62.3255C20.3091 62.3573 20.4477 62.3182 20.6884 62.2424C20.9023 62.1765 21.1698 62.0934 21.5248 62.0421C21.8676 61.9932 22.2201 61.9859 22.5702 62.0177C19.9298 53.899 17.2748 45.6459 14.6757 37.4808C11.7459 28.2749 8.81129 18.9444 5.95447 9.74584C5.55087 10.4202 5.33205 10.5399 5.23479 10.5496C4.99652 10.5692 4.86766 10.3908 4.73637 10.2223C4.59778 10.0415 4.45433 9.85578 4.17716 9.79959C4.00454 9.76538 3.75897 9.77516 3.60337 9.78737C5.32232 16.0639 7.20904 22.1865 9.21003 27.9842C11.0214 33.2321 12.6066 37.6079 12.6236 37.6518C13.9949 42.223 15.4002 46.7625 16.8055 51.1455C17.9142 54.6051 19.9444 60.8523 19.9638 60.9134L20.2021 62.3255Z" fill="black"/>
<path d="M3.55939 9.42081C3.96542 9.42081 2.74489 9.35729 2.34372 9.42081C0.624766 9.69445 0.157949 17.4833 0.155518 17.4809C2.89807 26.7234 5.65277 35.9635 8.41963 45.1987C10.919 53.5446 13.4306 61.8881 15.9543 70.2316C17.294 73.2489 17.7584 73.9452 17.8994 73.8939C18.2763 73.7571 16.5452 68.1866 17.6563 65.1009C17.7924 64.7197 18.1255 63.9575 18.3857 63.3907C19.0008 62.0518 19.5406 60.8791 19.8445 60.9475C19.9733 60.9768 20.1119 61.2431 20.0876 62.4134C17.3281 53.3248 14.532 44.2483 11.7044 35.1841C9.01774 26.589 6.30437 18.0013 3.55939 9.42081Z" fill="#E1AE41"/>
<path d="M17.8679 74.0259C17.6904 74.0259 17.3379 73.6521 15.8426 70.2805C13.3383 62.0006 10.8049 53.5789 8.30302 45.233C5.53859 36.0051 2.75957 26.6795 0.0413327 17.5151L0 17.3783L0.0437641 17.3734C0.148312 15.8489 0.683206 9.56259 2.32679 9.30117C2.37299 9.29384 3.24584 9.24742 3.59838 9.29873C3.61054 9.29873 3.61783 9.29873 3.62269 9.29873V9.30361C3.68348 9.31339 3.72481 9.32805 3.7394 9.34759L3.78316 9.40867L3.74912 9.47464C3.7394 9.49174 3.72967 9.5064 3.71751 9.51617C6.44304 18.038 9.16857 26.6624 11.8163 35.15C14.4713 43.6572 17.1312 52.2938 19.7327 60.8401C19.7789 60.823 19.8251 60.8205 19.8689 60.8303C20.061 60.8743 20.2336 61.0966 20.2068 62.4159L20.1923 63.1806L19.971 62.4501C19.8494 62.0519 19.7303 61.6536 19.6087 61.2554C19.3145 61.6659 18.855 62.6651 18.4976 63.442C18.2399 64.004 17.9068 64.7687 17.7731 65.1425C17.0412 67.1752 17.5664 70.3416 17.8825 72.235C18.1062 73.5763 18.1548 73.9306 17.9433 74.0088C17.9165 74.0161 17.8946 74.0259 17.8679 74.0259ZM0.279604 17.4663C2.99541 26.6233 5.77443 35.9416 8.53643 45.1646C11.0358 53.5105 13.5717 61.9322 16.0711 70.1974C17.2212 72.7872 17.6661 73.5202 17.8339 73.7156C17.8387 73.4713 17.7366 72.8654 17.6394 72.2766C17.3208 70.3611 16.7884 67.1557 17.5421 65.0619C17.6855 64.6636 18.0235 63.8916 18.2739 63.3419C18.8356 62.1203 19.2149 61.3165 19.5261 60.9915C16.9172 52.4184 14.2501 43.7573 11.5878 35.2233C8.9303 26.7162 6.19748 18.0697 3.46466 9.52594C3.18505 9.51373 2.60639 9.50151 2.36326 9.5406C1.12085 9.7385 0.469248 14.6126 0.279604 17.4663ZM19.8032 61.0697C19.847 61.2163 19.8932 61.3653 19.9394 61.5144C19.8956 61.1137 19.8203 61.0722 19.8154 61.0697C19.8105 61.0697 19.8057 61.0697 19.8032 61.0697Z" fill="black"/>
<path d="M20.5717 62.1717C19.0132 63.9821 17.7441 67.2169 18.8698 69.9874C19.8034 72.2889 22.2566 74.3632 22.2712 74.3827C28.1283 72.8679 75.0337 60.7278 77.9221 59.7285C78.2965 59.599 78.7001 59.3914 78.8946 58.9956C79.4319 57.8937 77.7908 56.4546 76.9496 54.6003C75.4689 51.3337 77.5768 49.218 76.7064 48.0061C75.1406 45.8244 68.8094 47.7862 66.8765 48.3702C52.3809 52.7508 26.2829 57.129 21.2962 61.4387C20.9145 61.771 20.5717 62.1717 20.5717 62.1717Z" fill="white"/>
<path d="M22.2273 74.5268L22.1641 74.4584C21.5733 73.938 19.582 72.0787 18.7529 70.0362C17.6248 67.2607 18.8551 63.9722 20.4743 62.091C20.4889 62.0739 20.8293 61.6805 21.2159 61.3458C24.4398 58.5581 36.5819 55.7069 48.3229 52.9486C54.8777 51.4094 61.6563 49.8164 66.8399 48.2504L66.9445 48.2186C68.9917 47.6005 75.2183 45.7168 76.8084 47.9327C77.2047 48.4849 77.0443 49.1739 76.84 50.0437C76.5628 51.2213 76.22 52.6847 77.0637 54.5464C77.3579 55.1939 77.7615 55.8071 78.1165 56.3471C78.7972 57.3805 79.3856 58.2747 79.0063 59.0517C78.8337 59.4035 78.4933 59.6649 77.9633 59.8481C75.1527 60.8181 31.1041 72.2277 22.3027 74.5048L22.2273 74.5268ZM20.6664 62.2547C19.0958 64.0797 17.8995 67.2632 18.9863 69.9385C19.7838 71.9003 21.6949 73.701 22.3051 74.2434C31.2549 71.9272 75.0895 60.5738 77.8831 59.6087C78.3474 59.4475 78.6416 59.23 78.7827 58.9393C79.0987 58.2943 78.5468 57.4563 77.9098 56.4863C77.55 55.939 77.1391 55.316 76.8376 54.6515C75.9574 52.7092 76.327 51.1333 76.5969 49.985C76.7865 49.1763 76.9373 48.5387 76.6066 48.0793C75.1211 46.0075 69.0233 47.8521 67.0198 48.4605L66.9153 48.4922C61.722 50.0608 54.941 51.6537 48.3812 53.1929C36.6695 55.9439 24.559 58.7878 21.3812 61.5339C21.0092 61.8589 20.6688 62.2498 20.6664 62.2547Z" fill="black"/>
<path d="M5.99097 9.17648C23.9585 6.71864 34.0899 4.67615 40.1391 3.18336C40.1391 3.18336 40.6278 3.06365 52.4076 0.13916C61.4279 14.7078 66.0207 32.1399 76.952 45.3209C77.1416 45.5481 77.9196 46.4423 77.6814 47.2754C77.3921 48.2771 75.7849 48.6192 75.25 48.7413C66.6042 50.6983 22.5143 61.441 22.5143 61.441C22.5143 61.4337 5.99097 9.17893 5.99097 9.17648Z" fill="#E1AE41"/>
<path d="M22.4364 61.5852L22.3999 61.4777C22.3999 61.4753 21.5878 58.9075 14.1358 35.3455C10.0098 22.294 5.88381 9.24499 5.87409 9.21323L5.83032 9.07397L5.97377 9.05442C20.6663 7.04613 32.152 5.03051 40.1097 3.06619C40.1097 3.06619 40.6057 2.94403 52.3783 0.0219886L52.4634 0L52.5096 0.0757386C56.2052 6.04443 59.203 12.5921 62.1036 18.9249C66.2782 28.0428 70.5963 37.4686 77.0442 45.2428L77.0661 45.2672C77.3092 45.558 78.0459 46.4424 77.7979 47.3073C77.4964 48.3579 75.9088 48.7146 75.3131 48.8489L75.279 48.8563C66.6235 50.8133 22.9615 61.4533 22.5458 61.5559L22.4364 61.5852ZM6.14883 9.27675C6.39196 10.0439 7.80214 14.5027 14.3667 35.2697C18.2812 47.6493 22.1957 60.0314 22.5968 61.2945C22.6844 61.2701 22.8083 61.2407 22.9834 61.1968L29.5091 59.6087C33.7785 58.5703 39.5603 57.1655 45.6119 55.7021C56.655 53.0292 70.7568 49.6283 75.2231 48.6193L75.2571 48.6119C75.8164 48.4849 77.2995 48.1526 77.5621 47.2389C77.7031 46.7478 77.4745 46.137 76.8789 45.4236L76.857 45.3967C70.3872 37.5981 66.0643 28.1552 61.8824 19.025C58.9964 12.7265 56.0156 6.21301 52.3491 0.278522C40.6519 3.18102 40.1657 3.30074 40.1657 3.30074C32.2273 5.26261 20.783 7.27335 6.14883 9.27675Z" fill="black"/>
<path d="M76.6725 50.0631L23.9436 63.0354L24.006 63.2917L76.7349 50.3194L76.6725 50.0631Z" fill="black"/>
<path d="M77.1224 51.8024L24.3936 64.7747L24.456 65.0309L77.1848 52.0586L77.1224 51.8024Z" fill="black"/>
<path d="M78.0951 53.5125L25.3662 66.4849L25.4287 66.7412L78.1575 53.7688L78.0951 53.5125Z" fill="black"/>
<path d="M78.0946 55.4645L25.3657 68.4368L25.4282 68.6931L78.157 55.7208L78.0946 55.4645Z" fill="black"/>
<path d="M79.0672 57.419L26.3384 70.3914L26.4008 70.6477L79.1297 57.6753L79.0672 57.419Z" fill="black"/>
<path d="M32.6066 36.7162C32.626 36.7894 32.6187 36.8627 32.5798 36.936C32.5409 37.0093 32.4655 37.0826 32.3513 37.1535C32.237 37.2268 32.079 37.3025 31.8747 37.3831C31.6729 37.4638 31.4128 37.5493 31.0967 37.6397C30.7709 37.7325 30.4986 37.796 30.2798 37.8351C30.061 37.8742 29.8859 37.8913 29.7546 37.8889C29.6233 37.8864 29.5236 37.8644 29.4531 37.8205C29.3826 37.7765 29.3364 37.7203 29.317 37.647L27.7074 31.9202L21.6534 33.6377L23.2629 39.3646C23.2824 39.4379 23.2775 39.5111 23.2435 39.582C23.2094 39.6553 23.1365 39.7261 23.0198 39.7994C22.9055 39.8727 22.7451 39.9485 22.5433 40.0291C22.3415 40.1097 22.0764 40.1977 21.7531 40.2881C21.437 40.3785 21.1671 40.442 20.9483 40.4811C20.7295 40.5202 20.552 40.5373 20.4183 40.5373C20.2821 40.5373 20.18 40.5153 20.1095 40.4713C20.039 40.4273 19.9928 40.3712 19.9733 40.2979L16.2145 26.9141C16.195 26.8408 16.2023 26.7675 16.2412 26.6942C16.2801 26.6209 16.3555 26.5476 16.4698 26.4743C16.5841 26.4035 16.7445 26.3253 16.9512 26.2422C17.1578 26.1592 17.418 26.0737 17.7365 25.9833C18.0623 25.8904 18.3322 25.8269 18.5461 25.7878C18.7601 25.7512 18.9352 25.7316 19.0713 25.7341C19.2075 25.7341 19.3071 25.7585 19.3752 25.8025C19.4409 25.8464 19.4846 25.9051 19.5065 25.9784L20.9678 31.1799L27.0218 29.4624L25.5605 24.2608C25.5411 24.1875 25.5484 24.1142 25.5873 24.0409C25.6262 23.9676 25.6991 23.8943 25.811 23.8235C25.9204 23.7526 26.0809 23.6769 26.2875 23.5938C26.4942 23.5108 26.7592 23.4253 27.085 23.3324C27.4011 23.242 27.6685 23.1785 27.8825 23.1418C28.0964 23.1052 28.2715 23.0857 28.4076 23.0881C28.5438 23.0881 28.6459 23.1101 28.7164 23.1541C28.7869 23.198 28.8331 23.2542 28.8526 23.3275L32.6066 36.7162Z" fill="#00A99D" stroke="black" stroke-width="0.9996" stroke-miterlimit="10"/>
<path d="M35.67 21.7539C35.8256 22.3085 35.8038 22.7287 35.6044 23.0145C35.405 23.3004 34.9552 23.5423 34.255 23.7402C33.5451 23.9405 33.0393 23.9747 32.7354 23.8403C32.4315 23.706 32.2054 23.3712 32.0571 22.8386C31.9015 22.284 31.9209 21.8614 32.113 21.5755C32.3075 21.2872 32.7573 21.0429 33.4672 20.8425C34.1675 20.6446 34.6732 20.6129 34.982 20.7497C35.2908 20.8865 35.5193 21.2212 35.67 21.7539ZM39.1031 34.8982C39.1225 34.9715 39.1152 35.0423 39.0812 35.1107C39.0472 35.1791 38.9742 35.25 38.8624 35.3208C38.753 35.3917 38.5998 35.465 38.4029 35.5407C38.2084 35.6165 37.9555 35.6971 37.6467 35.785C37.3379 35.873 37.0802 35.9341 36.876 35.9732C36.6718 36.0123 36.5016 36.0294 36.3703 36.0269C36.239 36.0245 36.1417 36.0025 36.0761 35.9634C36.0104 35.9219 35.9667 35.8657 35.9472 35.7924L33.2095 26.0465C33.1901 25.9732 33.1974 25.9024 33.2314 25.834C33.2654 25.7656 33.3384 25.6923 33.4478 25.619C33.5572 25.5457 33.7104 25.4675 33.9025 25.3893C34.097 25.3111 34.3474 25.2281 34.6562 25.1401C34.965 25.0521 35.2227 24.9911 35.4293 24.9569C35.636 24.9227 35.8038 24.908 35.9375 24.9129C36.0688 24.9202 36.1685 24.9422 36.2341 24.9837C36.2998 25.0253 36.3435 25.0815 36.363 25.1548L39.1031 34.8982Z" fill="#00A99D" stroke="black" stroke-width="0.9996" stroke-miterlimit="10"/>
<path d="M52.8984 30.9844C52.9179 31.0577 52.9106 31.1285 52.8765 31.1969C52.8425 31.2653 52.772 31.3362 52.665 31.4046C52.558 31.4755 52.4048 31.5463 52.2055 31.6245C52.0061 31.7002 51.7581 31.7809 51.4566 31.8664C51.1478 31.9543 50.8901 32.0178 50.6786 32.0569C50.4695 32.096 50.3017 32.1156 50.1729 32.1107C50.0464 32.1082 49.9492 32.0863 49.8835 32.0447C49.8179 32.0032 49.7741 31.947 49.7547 31.8737L48.1889 26.2984C48.0552 25.8244 47.9117 25.4628 47.7561 25.216C47.6005 24.9693 47.4206 24.7689 47.2164 24.6174C47.0121 24.466 46.7763 24.3707 46.5088 24.334C46.2414 24.2949 45.9496 24.3218 45.6336 24.4122C45.2324 24.5246 44.8653 24.7689 44.5273 25.1403C44.1893 25.5117 43.8708 26.0052 43.5645 26.6184L45.388 33.1124C45.4074 33.1857 45.4001 33.2565 45.3661 33.3249C45.3321 33.3934 45.2591 33.4642 45.1473 33.5351C45.0355 33.6059 44.8847 33.6792 44.6878 33.7525C44.4933 33.8282 44.2404 33.9089 43.9316 33.9968C43.6228 34.0848 43.3651 34.1483 43.1609 34.1849C42.9567 34.224 42.7865 34.2411 42.6552 34.2387C42.5239 34.2362 42.4266 34.2143 42.361 34.1752C42.2953 34.1336 42.2516 34.0774 42.2321 34.0041L39.4896 24.2363C39.4701 24.163 39.4725 24.0946 39.4993 24.0262C39.526 23.9602 39.5868 23.8918 39.6865 23.8259C39.7838 23.7599 39.9175 23.6915 40.0828 23.6255C40.2481 23.5595 40.4597 23.4887 40.7198 23.4154C40.9873 23.3397 41.211 23.2859 41.3909 23.2542C41.5708 23.2224 41.7142 23.2126 41.8212 23.2224C41.9282 23.2322 42.0084 23.2566 42.0668 23.3006C42.1251 23.3446 42.1616 23.4007 42.1835 23.474L42.4996 24.6028C42.9518 23.843 43.4575 23.2273 44.0119 22.7557C44.5686 22.2818 45.1911 21.9495 45.884 21.7516C46.6426 21.5366 47.3136 21.4633 47.8971 21.5366C48.4807 21.6074 48.9839 21.7858 49.4119 22.0717C49.8373 22.3575 50.1923 22.7313 50.4768 23.1931C50.7588 23.6573 51.002 24.2436 51.1989 24.9497L52.8984 30.9844Z" fill="#00A99D" stroke="black" stroke-width="0.9996" stroke-miterlimit="10"/>
<path d="M62.0841 27.3391C62.1741 27.6616 62.2203 27.9132 62.2227 28.0989C62.2252 28.2846 62.1984 28.4214 62.1425 28.5118C62.0866 28.6022 61.9942 28.695 61.8629 28.7928C61.7316 28.888 61.5736 28.9858 61.3912 29.0811C61.2064 29.1763 61.0022 29.2692 60.7785 29.3547C60.5548 29.4426 60.3263 29.5184 60.0929 29.5843C59.468 29.7627 58.9064 29.8458 58.408 29.8384C57.9095 29.8287 57.4719 29.7236 57.0902 29.5208C56.7085 29.318 56.3851 29.0175 56.1201 28.6193C55.8551 28.2211 55.6387 27.7226 55.4709 27.1241L54.0656 22.118L52.7284 22.4967C52.5703 22.5407 52.4244 22.4894 52.2931 22.3428C52.1619 22.1937 52.0403 21.9201 51.926 21.5194C51.8652 21.3069 51.8263 21.1261 51.8069 20.9746C51.7874 20.8231 51.785 20.6985 51.8044 20.6032C51.8239 20.5079 51.8579 20.4322 51.9114 20.3785C51.9625 20.3247 52.0306 20.2856 52.1157 20.2612L53.4407 19.8849L52.828 17.7056C52.8086 17.6323 52.811 17.5615 52.8426 17.4882C52.8718 17.4173 52.9423 17.344 53.0517 17.2683C53.1611 17.195 53.3167 17.1192 53.5161 17.0435C53.7155 16.9678 53.9659 16.8871 54.265 16.8016C54.5737 16.7137 54.8315 16.6502 55.0406 16.6111C55.2497 16.572 55.4198 16.5549 55.5463 16.5622C55.6751 16.5695 55.7724 16.594 55.838 16.6379C55.9037 16.6819 55.9474 16.7406 55.9693 16.8139L56.582 18.9932L59.0085 18.3042C59.0912 18.2798 59.169 18.2773 59.2419 18.2969C59.3149 18.3164 59.3829 18.3604 59.4486 18.4337C59.5142 18.507 59.5774 18.612 59.6382 18.7513C59.699 18.8906 59.7598 19.0665 59.8206 19.279C59.9324 19.6797 59.9713 19.9802 59.9373 20.1732C59.9008 20.3687 59.806 20.4884 59.6479 20.5324L57.2093 21.2238L58.4979 25.8121C58.6487 26.3447 58.8553 26.7185 59.1228 26.9286C59.3902 27.1412 59.7695 27.1778 60.2606 27.0386C60.4284 26.9921 60.5743 26.9359 60.7007 26.8724C60.8271 26.8089 60.9366 26.7454 61.0338 26.6843C61.1286 26.6232 61.2089 26.567 61.2721 26.523C61.3353 26.4766 61.3961 26.4473 61.4544 26.4302C61.5031 26.4155 61.5565 26.4155 61.61 26.4278C61.6635 26.44 61.7122 26.4815 61.7583 26.5499C61.8045 26.6183 61.858 26.7161 61.914 26.8431C61.9699 26.9701 62.0282 27.1363 62.0841 27.3391Z" fill="#00A99D" stroke="black" stroke-width="0.9996" stroke-miterlimit="10"/>
</g>
<defs>
<clipPath id="clip0_807:6285">
<rect width="81" height="76" fill="white"/>
</clipPath>
</defs>
</svg>
