<svg width="163" height="163" viewBox="0 0 163 163" fill="none" xmlns="http://www.w3.org/2000/svg">
<g filter="url(#filter0_d)">
<g clip-path="url(#clip0)">
<path d="M96.6319 150.921C95.4035 150.412 91.7181 148.498 91.3315 146.415C90.9965 144.606 88.7543 143.111 88.3248 143.273C87.0706 143.741 87.7492 147.707 86.9847 147.828C86.4005 147.925 85.5672 145.567 83.6429 140.753C82.7773 138.398 81.7735 136.09 80.6362 133.84C79.047 130.9 76.6588 127.476 76.1176 127.71C75.5764 127.944 76.4784 132.984 78.7377 137.506C80.3356 140.737 80.9197 142.805 80.6878 143.063C80.4558 143.321 78.0505 142.861 76.1176 141.545C74.786 140.632 73.0336 138.96 70.9632 132.903C68.953 127.08 69.0132 124.108 68.2915 124.1C67.3638 124.1 65.1388 128.841 66.6164 133.21C68.0252 137.369 68.0682 138.92 68.5665 140.285C68.6524 140.503 69.7863 143.669 68.764 143.943C67.1404 144.379 61.8057 136.125 61.4363 135.73C59.9157 134.114 56.2819 130.27 55.251 130.884C54.392 131.369 54.6411 134.341 54.4693 138.112C54.2678 139.335 53.8558 140.519 53.2494 141.617C53.0776 142.013 48.9541 138.742 47.236 135.907C44.9166 132.055 45.1141 128.703 44.3925 128.679C44.2637 128.679 44.0833 128.8 42.5541 132.297C41.8927 133.824 41.8239 134.034 41.6951 134.026C40.7587 133.953 41.2827 115.652 40.836 115.636C40.5439 115.636 37.0132 123.995 37.0132 123.995C37.0132 123.995 35.5528 126.418 34.436 126.418C33.8519 126.418 34.2986 109.878 33.6887 109.054C32.8296 107.858 28.1048 109.95 27.9759 109.861C27.8471 109.773 37.6575 102.027 37.4256 99.9114C37.2881 98.4819 33.1303 98.918 29.0669 96.2932C25.8369 94.2095 25.854 94.363 21.6275 87.7324C17.5555 81.3279 15.4938 75.731 11.0181 73.51C6.34481 71.1921 3.42401 72.2178 3.99099 71.1518C4.3432 70.5057 8.67286 67.7274 11.4992 66.411C12.0833 66.1364 7.20387 66.1202 7.60762 66.0072C13.8959 64.2304 22.959 63.8912 23.7236 61.7187C24.4194 59.7319 22.246 59.215 23.0449 58.4882C23.8438 57.7613 25.9829 58.6255 30.3641 59.5704C32.7437 60.0792 34.8656 59.6834 37.9324 59.5704C38.654 59.5704 39.367 59.4977 40.0629 59.4412C41.781 59.3119 35.0889 56.2106 36.5493 55.9684C40.3721 55.4192 51.5055 57.6563 52.6395 57.3736C62.1407 54.9507 64.2196 53.5374 82.7066 46.8745C92.0188 43.4986 96.2711 42.1337 98.4187 37.9179C100.085 34.6389 100.309 30.0112 100.927 30.0596C101.546 30.1081 101.211 33.7505 102.267 33.9847C103.736 34.3078 106.408 27.6933 107.422 28.0163C108.04 28.2021 107.267 30.6088 108.281 31.158C109.629 31.9091 112.198 28.0406 113.968 28.4848C117.464 29.3651 118.735 48.9743 119.569 51.5103C120.651 54.8054 132.128 53.9977 131.965 54.9427C131.905 55.2819 127.781 56.0007 127.378 56.0491C125.823 56.2268 123.082 55.9118 122.438 57.9794C120.471 63.9396 133.76 84.8814 137.704 103.61C140.341 116.153 138.614 125.707 137.867 125.764C137.48 125.764 137.085 123.26 134.525 120.74C133.666 119.933 132.893 119.125 132.352 119.327C131.243 119.739 132.017 123.365 131.295 129.826C130.943 132.976 131.029 135.043 129.68 135.851C129.328 136.061 126.501 137.579 126.673 136.319C126.742 135.794 126.33 133.089 124.388 127.435C123.417 124.625 121.631 123.736 121.484 123.769C121.175 123.858 122.266 128.17 121.158 131.159C120.729 132.289 118.504 133.145 117.198 133.016C116.21 132.927 114.526 132.475 114.011 131.869C113.495 131.264 114.011 126.289 113.684 126.127C112.043 125.247 108.032 131.199 109.561 134.93C110.557 137.353 113.298 140.301 114.303 141.843C115.961 144.404 115.849 144.84 116.811 146.56C118.28 149.209 118.624 154.774 118.272 155.048C117.919 155.323 113.976 154.701 108.281 153.635C98.1181 151.551 97.6284 151.373 96.6319 150.921Z" fill="#441213"/>
<path d="M37.2461 75.0855C38.1051 74.3183 40.6823 75.7882 41.0345 75.1905C41.3867 74.5929 39.5655 73.0665 39.471 72.9857C37.5524 71.4277 35.2484 70.3475 32.7704 69.844C25.3309 67.93 26.3446 66.0886 22.1782 65.8624C18.7419 65.6767 19.1371 66.985 11.0104 68.2853C8.07242 68.7537 6.14813 68.883 5.9935 69.6502C5.81309 70.5628 8.33873 71.2655 10.8987 73.2118C13.6477 75.2955 14.1116 77.0238 16.9121 81.49C19.412 85.4636 21.4566 88.7587 24.8241 91.86C26.9717 93.871 32.169 98.7248 36.4128 97.3115C37.4475 96.9281 38.3425 96.2718 38.9899 95.4216C42.1599 91.7308 40.5964 85.9966 39.9951 83.7918C38.6979 78.9137 36.2066 75.982 37.2461 75.0855Z" fill="#844041"/>
<path d="M107.259 37.4984C106.843 36.798 106.59 36.0224 106.518 35.2231C106.445 34.4238 106.555 33.6191 106.838 32.8626C106.967 32.5638 107.208 32.055 110.103 29.4867C112.525 27.3223 112.826 27.2496 113.109 27.29C113.616 27.3546 114.432 27.8472 115.867 33.6541C116.674 36.8846 116.631 37.6034 117.37 41.1973C118.41 46.2127 119.166 48.0379 118.375 48.466C118.135 48.6033 117.697 48.6517 114.535 46.7376C112.147 45.292 109.046 43.4102 109.381 42.8045C109.587 42.3926 111.099 43.0226 113.814 42.5703C114.75 42.4168 115.858 42.223 115.901 41.8596C115.97 41.0439 109.458 41.1489 107.259 37.4984Z" fill="#844041"/>
<path d="M116.64 152.084C110.316 151.907 104.083 150.628 98.2558 148.313C97.2422 147.877 98.1614 146.35 98.4191 145.639C98.9689 144.501 99.9568 144.234 99.9224 143.596C99.9224 142.708 97.9294 142.151 97.0789 141.868C91.581 140.018 87.6293 134.454 88.3939 133.226C88.8577 132.483 91.0913 133.226 91.2288 132.75C91.3662 132.273 88.3337 131.248 85.8854 129.762C82.9904 128.025 82.5866 126.531 77.5268 119.553C73.5321 114.013 70.9893 111.049 71.5134 110.588C72.0374 110.128 75.2331 112.648 75.5252 112.325C75.8172 112.002 73.3689 110.532 72.3466 107.762C72.2264 107.414 71.2299 104.612 72.3466 102.577C74.2108 99.1928 82.6553 102.658 83.8838 100.38C84.5023 99.2493 83.0247 97.5775 80.3703 94.2501C78.3429 91.698 74.4427 86.8038 72.6387 84.0336C71.5134 82.2487 66.9002 74.9801 69.1338 66.5888C70.385 62.1208 73.2142 58.1851 77.1574 55.4274C78.2312 54.6844 85.37 49.9194 93.0328 51.8173C101.933 54.0141 106.434 63.9317 108.582 62.8172C109.845 62.1711 108.058 58.9083 110.3 56.8408C110.738 56.4369 111.116 56.2673 116.82 54.7975C119.638 54.0706 119.827 54.0383 120.162 54.1756C122.739 55.177 121.021 60.7981 124.002 62.3407C125.497 63.1483 126.407 61.953 127.679 62.6557C128.228 62.9626 128.856 67.2672 128.185 77.7422C127.825 83.3229 126.596 85.2208 127.85 86.2304C129.904 87.8941 133.709 84.2032 137.712 85.7619C141.561 87.256 142.6 92.4329 143.064 94.7185C143.923 98.8778 142.961 105.064 139.087 106.922C136.51 108.166 134.74 107.253 132.025 109.175C131.003 109.91 130.943 110.483 129.689 112.478C127.79 115.483 126.021 118.285 123.169 119.868C121.519 120.781 122.155 120.377 115.257 122.533C113.92 122.943 112.66 123.545 111.52 124.318C110.327 125.247 109.486 126.513 109.123 127.928C108.092 131.021 108.65 134.317 110.97 137.62C112.774 140.212 114.879 142.304 116.313 145.478C116.813 146.52 117.104 147.64 117.172 148.781C117.164 149.233 117.817 152.036 116.64 152.084Z" fill="#906958"/>
<path d="M85.7226 62.7524C85.5422 63.0836 84.2965 62.3325 83.1454 62.8574C82.2434 63.2693 81.6506 64.3758 81.3671 67.259C80.8861 72.2017 82.02 75.3353 81.3671 75.5372C80.8603 75.7149 79.649 74.0512 78.9102 72.5974C78.276 71.1924 77.9492 69.6818 77.9492 68.1555C77.9492 66.6292 78.276 65.1185 78.9102 63.7135C79.5803 62.2194 80.3019 60.6203 81.8138 60.3619C83.8412 59.9984 85.9803 62.2759 85.7226 62.7524Z" fill="#1D1D1B"/>
<path d="M88.5139 73.7768C86.4608 76.0947 86.5896 79.3494 86.8903 81.2716C85.6962 77.2334 85.1722 75.0771 86.5123 73.1065C88.3164 70.3767 92.4055 69.7306 95.4465 69.8275C89.9572 72.7834 88.5139 73.7768 88.5139 73.7768Z" fill="#7C756D"/>
<path d="M110.945 97.731C110.212 98.7872 109.249 99.6847 108.118 100.364C107.748 100.589 107.36 100.789 106.959 100.961C106.071 101.325 105.134 101.572 104.175 101.696H103.952C101.297 101.858 98.6344 100.146 96.5469 98.2963C96.5047 98.2607 96.4645 98.2229 96.4266 98.1832C95.1585 97.0261 93.984 95.7816 92.913 94.4601C90.5578 91.5654 88.8087 88.2767 87.7587 84.7685C87.5268 84.0659 87.3292 83.3956 87.1316 82.7414C86.9855 82.2568 86.8481 81.8045 86.7278 81.3684C86.4272 79.4463 86.2983 76.1915 88.3514 73.8736C88.3514 73.8736 89.7947 72.8802 95.2841 69.9243C95.8768 69.9243 96.4266 69.997 96.9163 70.0616C100.039 70.5258 102.905 71.9654 105.052 74.1482C106.821 75.9492 106.77 76.9749 108.488 83.2744C108.797 84.3889 109.158 85.6973 109.587 87.143C109.914 88.2494 110.206 89.2266 110.446 90.0989C111.683 94.137 112.113 95.9703 110.945 97.731Z" fill="#C7A69B"/>
<path d="M107.328 100.801C105.077 101.964 102.345 100.599 101.314 100.276C97.2854 98.9995 95.4471 95.5913 94.6309 94.0892C93.1753 91.487 92.6283 88.52 93.0675 85.6091C93.3681 83.7515 93.9265 80.2464 97.0793 78.4777C98.7045 77.6191 100.602 77.3328 102.431 77.6701C105.962 78.2677 107.809 81.0783 108.668 82.3786C110.79 85.6091 109.905 88.88 110.678 90.8667C112.989 96.8189 110.618 99.1045 107.328 100.801Z" fill="#EAF4E8"/>
<path d="M99.347 77.9525C98.4879 78.7036 98.8144 80.1654 99.0119 81.0942C99.2524 82.1666 99.7261 83.1808 100.403 84.073C101.08 84.9652 101.946 85.7163 102.946 86.2791C103.23 86.4326 106.331 88.1044 107.628 86.9899C108.616 86.1338 107.963 84.1551 107.628 83.1375C107.388 82.4267 106.185 79.0993 102.861 77.9525C102.259 77.7425 100.343 77.0722 99.347 77.9525Z" fill="#ABB94E"/>
<path d="M102.027 78.4448C101.408 79.2928 102.242 80.5689 102.319 80.69C102.846 81.3765 103.617 81.8634 104.492 82.063C104.647 82.1115 106.958 82.8141 107.465 82.063C107.971 81.3119 106.502 79.8663 106.082 79.4301C105.48 78.8002 104.424 77.6937 103.161 77.8553C102.715 77.9051 102.308 78.1167 102.027 78.4448Z" fill="#060607"/>
<path d="M124.689 63.4631C121.707 63.207 118.7 63.3978 115.781 64.0284C115.248 62.8897 114.466 61.4844 115.119 60.5718C116.064 59.2392 119.698 59.4492 122.138 60.8867C123.202 61.5337 124.079 62.4189 124.689 63.4631Z" fill="#7C756D"/>
<path d="M127.498 82.3136C127.646 83.8474 127.371 85.3912 126.699 86.7959L126.485 87.2482C126.135 87.9748 125.687 88.6561 125.153 89.2753C123.22 91.5286 120.583 92.6351 119.801 91.9486C119.363 91.4825 119.04 90.9308 118.856 90.3333C118.705 89.7468 118.638 89.1437 118.659 88.5404C118.659 86.9817 118.813 84.6961 118.564 81.3202C118.564 80.981 118.504 80.6176 118.47 80.2541C117.61 71.4429 117.215 67.0252 115.798 64.0208C118.717 63.3902 121.724 63.1994 124.706 63.4554C124.916 63.7993 125.103 64.1553 125.265 64.5215C125.826 65.8809 126.238 67.2909 126.493 68.7293C126.631 69.3915 126.742 69.9649 126.828 70.4899C126.828 70.6837 126.888 70.8614 126.914 71.0471C126.914 71.136 126.914 71.2329 126.914 71.3218C127.053 72.3562 127.137 73.3967 127.163 74.4392C127.163 75.2468 127.223 76.1433 127.266 77.2982C127.266 78.1058 127.335 79.0346 127.395 80.133C127.472 80.9971 127.498 81.7079 127.498 82.3136Z" fill="#C7A69B"/>
<path d="M117.816 72.2829C118.578 71.1152 119.239 69.8917 119.792 68.6243C120.059 67.9944 120.29 67.3564 120.548 66.6941C120.682 66.331 120.876 65.9903 121.124 65.6846C121.415 65.3545 121.808 65.1175 122.249 65.0062C123.07 64.8352 123.929 64.9531 124.663 65.3373C125.383 65.6793 125.981 66.2129 126.381 66.8718C126.742 67.5108 126.935 68.2213 126.946 68.9446C126.956 69.6679 126.783 70.3831 126.441 71.0311C126.617 70.3853 126.653 69.7129 126.546 69.0539C126.44 68.3949 126.194 67.7627 125.823 67.1948C125.442 66.6785 124.919 66.2684 124.311 66.0076C123.745 65.725 123.091 65.6392 122.464 65.7653C121.871 65.8945 121.553 66.3387 121.278 66.9768C121.004 67.6148 120.729 68.2609 120.376 68.8747C119.715 70.128 118.851 71.2776 117.816 72.2829Z" fill="#75555F"/>
<path d="M120.324 91.1492C117.429 89.534 118.048 82.1765 119.508 76.3616C121.226 69.4886 122.867 68.9152 123.52 68.8183C125.092 68.5841 126.561 70.2155 126.862 70.5466C127.403 71.1524 128.829 72.9695 127.36 83.2829C126.853 86.8769 126.501 87.9429 125.522 88.9363C123.924 90.5839 122.06 92.1184 120.324 91.1492Z" fill="#E8E7DB"/>
<path d="M123.985 69.8841C122.585 70.1587 122.052 71.8547 121.983 72.0808C121.502 73.5911 122.215 74.9075 122.903 76.1674C123.444 77.177 124.071 78.3319 125.153 78.4449C125.7 78.4746 126.237 78.307 126.657 77.9765C128.375 76.7328 128.624 73.2842 126.914 71.2974C126.708 71.0632 125.445 69.5933 123.985 69.8841Z" fill="#ABB94E"/>
<path d="M127.077 74.56C126.287 75.1253 124.912 74.7296 124.122 74.0835C123.72 73.7291 123.429 73.2792 123.277 72.7815C123.126 72.2839 123.121 71.757 123.263 71.2568C123.295 71.0287 123.375 70.809 123.499 70.6106C123.623 70.4122 123.788 70.2392 123.984 70.1019C124.843 69.6335 126.098 70.2069 126.768 70.9095C127.756 71.911 128.065 73.8412 127.077 74.56Z" fill="#09080C"/>
<path d="M92.2773 80.6502C92.9454 78.892 93.7701 77.1899 94.7428 75.5622C95.2194 74.7265 95.7472 73.9175 96.3235 73.1393C96.6221 72.7488 96.9433 72.374 97.2857 72.0167C97.6418 71.6255 98.0695 71.2973 98.5485 71.0475C99.5887 70.6749 100.738 70.6749 101.779 71.0475C102.755 71.382 103.655 71.8861 104.433 72.5336C105.225 73.1617 105.841 73.9628 106.228 74.8667C106.614 75.7707 106.759 76.7498 106.649 77.7186C106.577 76.8177 106.303 75.9415 105.844 75.1479C105.385 74.3543 104.752 73.6614 103.986 73.1151C103.24 72.5772 102.404 72.1596 101.512 71.8794C101.082 71.745 100.634 71.6688 100.181 71.6533C99.7614 71.6377 99.3432 71.7037 98.9522 71.8471C98.1895 72.3236 97.533 72.9354 97.0193 73.6481C96.418 74.3669 95.8854 75.1422 95.3442 75.9095C94.279 77.452 93.2653 79.035 92.2773 80.6502Z" fill="#75555F"/>
<path d="M115.704 57.6C115.528 57.8132 115.419 58.0681 115.389 58.3363C115.358 58.6044 115.408 58.8752 115.532 59.1184C115.875 59.5545 116.468 59.2718 119.209 59.2233C120.068 59.2233 120.497 59.2234 120.66 58.9568C120.824 58.6903 120.437 57.8504 119.939 57.4385C118.796 56.5016 116.511 56.4693 115.704 57.6Z" fill="#1D1D1B"/>
<path d="M130.308 108.869C129.096 109.07 128.899 111.34 128.083 113.472C126.779 116.783 124.243 119.538 120.944 121.225C116.253 123.511 111.425 122.203 110.137 121.855C108.058 121.298 104.226 120.482 102.672 117.244C102.586 117.066 102.113 114.603 103.471 110.645C104.424 107.883 104.587 106.203 110.248 101.64C115.403 97.481 114.492 97.4891 118.719 94.299C123.873 90.3981 127.198 88.904 129.749 88.0156C134.182 86.4811 136.08 86.8849 136.776 87.0707C140.264 88.0075 141.982 91.0442 142.455 91.9165C144.413 95.3893 143.717 98.8055 143.314 100.615C142.91 102.424 142.257 105.783 139.19 108.158C138.658 108.57 135.41 111.081 132.73 110.145C131.484 109.676 131.124 108.731 130.308 108.869Z" fill="#C79D88" stroke="#644E4D" stroke-miterlimit="10"/>
<path d="M116.305 97.9006C118.08 97.0591 120.107 96.8112 122.052 97.198C123.045 97.3965 123.986 97.7811 124.818 98.3286C125.642 98.8822 126.352 99.5718 126.914 100.364C127.451 101.132 127.917 101.943 128.306 102.787C128.698 103.639 128.986 104.531 129.165 105.444C129.524 107.257 129.468 109.12 129.002 110.911C129.075 110.014 129.075 109.112 129.002 108.214C128.941 107.325 128.789 106.443 128.546 105.581C128.304 104.73 127.982 103.9 127.584 103.102C127.197 102.297 126.743 101.522 126.227 100.784C125.221 99.3303 123.699 98.2598 121.932 97.7633C121.035 97.5123 120.1 97.4058 119.165 97.4483C118.195 97.4792 117.233 97.6313 116.305 97.9006Z" fill="#644E4D"/>
<path d="M129.242 102.771C130.961 102.625 132.086 100.348 132.472 99.5402C132.713 99.0394 134.448 95.2355 132.137 92.6188C131.49 91.8386 130.582 91.2866 129.56 91.052C127.593 90.6562 125.772 92.0373 122.207 94.8236C119.827 96.6731 119.672 97.1819 119.75 97.5453C119.956 98.5226 121.769 98.3126 124.432 99.7501C127.361 101.301 127.722 102.916 129.242 102.771Z" fill="#A3273C" stroke="#644E4D" stroke-miterlimit="10"/>
<path d="M123.993 96.7378C124.311 97.0123 125.436 96.4712 127.67 95.3729C129.173 94.6379 129.603 94.3149 129.731 93.798C129.807 93.4883 129.784 93.1644 129.665 92.8671C129.545 92.5697 129.336 92.312 129.061 92.1262C128.022 91.4963 126.295 92.6027 125.496 93.3296C124.259 94.4603 123.478 96.2774 123.993 96.7378Z" fill="#F6B1AA"/>
<path d="M102.8 109.321C101.94 109.03 97.4992 111.84 96.2535 114.804C95.6694 116.202 95.2484 116.42 94.1402 123.341C93.5303 127.137 93.8224 128.389 94.6986 129.891C95.3645 131.028 96.4261 131.915 97.7053 132.403C101.743 133.848 106.468 130.279 108.177 127.904C110.016 125.36 110.239 123.922 113.804 122.953C114.38 122.792 110.419 122.146 110.076 122.065C108.948 121.717 107.841 121.313 106.76 120.853C105.815 120.458 102.937 120.401 102.516 119.65C101.705 118.044 101.435 116.244 101.743 114.489C102.353 110.492 103.358 109.506 102.8 109.321Z" fill="#B19D7A" stroke="#644E4D" stroke-width="0.5" stroke-miterlimit="10"/>
<path d="M107.705 122.978C107.705 123.325 107.465 123.575 106.383 124.278C105.195 122.546 103.716 121.007 102.001 119.723C101.453 119.314 100.879 118.937 100.283 118.592C100.781 115.935 100.73 114.667 101.099 114.643C101.469 114.619 101.572 115.644 102.817 117.785C103.417 119.044 104.416 120.099 105.678 120.805C107.886 121.887 107.671 122.299 107.705 122.978Z" fill="#381310"/>
<path d="M106.382 124.278L105.11 125.085C102.43 126.798 101.932 127.113 101.184 126.975C100.458 126.783 99.8413 126.331 99.4664 125.715C99.3031 125.449 98.9853 124.77 99.8014 120.999C99.9303 120.409 99.9388 120.425 100.059 119.876C100.179 119.327 100.248 118.988 100.325 118.584C100.922 118.928 101.495 119.306 102.044 119.715C103.743 121.005 105.208 122.546 106.382 124.278Z" fill="#9B3F51"/>
<path d="M121.244 105.687C121.965 105.687 122.55 105.137 122.55 104.459C122.55 103.781 121.965 103.231 121.244 103.231C120.523 103.231 119.938 103.781 119.938 104.459C119.938 105.137 120.523 105.687 121.244 105.687Z" fill="#624637"/>
<path d="M122.757 111.315C123.369 111.315 123.865 110.849 123.865 110.273C123.865 109.698 123.369 109.231 122.757 109.231C122.145 109.231 121.648 109.698 121.648 110.273C121.648 110.849 122.145 111.315 122.757 111.315Z" fill="#624637"/>
<path d="M116.889 109.24C117.501 109.24 117.998 108.773 117.998 108.198C117.998 107.623 117.501 107.156 116.889 107.156C116.277 107.156 115.781 107.623 115.781 108.198C115.781 108.773 116.277 109.24 116.889 109.24Z" fill="#624637"/>
<path d="M116.228 115.168C116.949 115.168 117.533 114.618 117.533 113.94C117.533 113.262 116.949 112.712 116.228 112.712C115.506 112.712 114.922 113.262 114.922 113.94C114.922 114.618 115.506 115.168 116.228 115.168Z" fill="#624637"/>
<path d="M136.991 92.9741C137.579 92.9741 138.056 92.5257 138.056 91.9726C138.056 91.4196 137.579 90.9712 136.991 90.9712C136.403 90.9712 135.926 91.4196 135.926 91.9726C135.926 92.5257 136.403 92.9741 136.991 92.9741Z" fill="#624637"/>
<path d="M138.108 100.372C138.725 100.372 139.225 99.9022 139.225 99.3224C139.225 98.7425 138.725 98.2725 138.108 98.2725C137.491 98.2725 136.991 98.7425 136.991 99.3224C136.991 99.9022 137.491 100.372 138.108 100.372Z" fill="#624637"/>
<path d="M140.299 86.1336L142.472 84.276C143.211 83.6622 143.907 83.0161 144.663 82.4346C146.183 81.2797 147.764 80.1894 149.388 79.2041C147.841 80.324 146.361 81.5112 144.946 82.7657C144.242 83.3876 143.598 84.0822 142.919 84.7364L140.926 86.707L140.299 86.1336Z" fill="#644E4D"/>
<path d="M143.228 92.1586C145.856 91.3025 148.519 90.5433 151.139 89.5984L159 86.8848L151.32 89.9941C148.743 91.036 146.166 91.9567 143.545 92.942L143.228 92.1586Z" fill="#644E4D"/>
<path d="M114.707 108.82H110.326C108.874 108.82 107.413 108.917 105.953 108.957L97.1992 109.264L105.936 108.553C107.396 108.44 108.848 108.287 110.308 108.214L114.69 108.028L114.707 108.82Z" fill="#644E4D"/>
<path d="M113.805 114.893C112.024 114.829 110.24 114.829 108.453 114.893C107.594 114.893 106.674 115.047 105.781 115.128L103.109 115.394L105.755 114.926C106.614 114.78 107.525 114.595 108.418 114.49C110.197 114.263 112.001 114.118 113.805 114.045V114.893Z" fill="#644E4D"/>
<path d="M47.1682 44.9604C46.3865 46.8987 44.299 46.6726 42.1513 49.2005C41.6359 49.8143 39.179 52.6975 40.1411 55.6615C41.0002 58.3347 44.1615 59.3685 44.823 59.5946C48.3194 60.7495 51.5494 59.3523 53.1817 58.6497C56.0204 57.359 58.4056 55.3297 60.0541 52.8025C61.2598 50.9425 62.2068 48.9448 62.8718 46.8583C63.0179 46.8987 60.1486 50.6865 60.8616 54.5631C61.0592 55.6211 61.3857 56.033 61.7207 56.1784C63.0694 56.7356 65.4318 54.1916 66.016 53.5617C67.9513 51.4429 69.3939 48.967 70.2512 46.293C70.1996 46.293 67.3733 51.8979 68.4643 52.6329C68.8595 52.8994 69.7271 52.4956 70.8095 52.0029C71.5515 51.6415 72.2586 51.2199 72.9228 50.743C74.6409 49.7335 76.213 50.8157 78.9362 50.9046C81.6595 50.9934 83.9446 49.9435 86.4015 48.7563C88.4203 47.779 90.0181 47.0037 91.4184 45.2996C92.14 44.4112 94.0815 42.0691 93.5317 39.0647C93.255 37.8114 92.645 36.6444 91.7586 35.6728C90.8723 34.7011 89.7386 33.9564 88.4632 33.5082C84.2195 32.0384 80.242 34.962 79.3228 33.7182C78.6442 32.8056 80.3709 30.6089 81.5478 29.1067C84.984 24.8101 87.4667 24.4709 88.4202 21.9592C89.6401 18.7286 86.9942 15.0701 86.496 14.4159C81.3932 7.68837 69.8732 9.63476 68.3612 4.51439C67.8286 2.69723 68.7822 0.75892 67.8028 0.298572C66.9867 -0.0890895 66.0847 1.1062 63.2326 2.28534C61.5145 2.97182 59.1693 3.90059 57.6659 3.02028C56.4289 2.27726 56.5663 0.742765 55.8791 0.718536C55.1918 0.694307 54.2898 2.40648 53.9892 4.07019C53.4565 6.95343 54.9084 7.85797 54.8482 10.4585C54.8482 12.6714 53.6885 14.3109 51.412 17.5818C48.5513 21.6846 47.8813 21.1111 46.5068 23.4533C43.9983 27.7337 43.5774 34.1786 45.6477 39.3797C46.6442 41.8591 47.8641 43.2159 47.1682 44.9604Z" fill="#7C8292" stroke="#1D1D1B" stroke-width="0.5" stroke-miterlimit="10"/>
<path d="M60.7842 5.93638C60.2601 6.00907 55.7587 7.55164 55.1573 9.60301C54.4701 12.0259 56.6521 15.0868 57.8806 16.4113C60.4062 19.1088 65.131 21.5801 70.1995 23.0096C75.6888 24.5603 79.1337 26.0625 83.0252 25.166C84.0733 24.9237 86.9253 24.3099 88.1796 22.5008C89.64 20.4252 88.0593 16.4032 86.8137 14.8041C83.1455 10.0957 76.797 9.36072 72.5619 7.77777C67.7769 6.00099 63.4387 5.54872 60.7842 5.93638Z" stroke="#1D1D1B" stroke-width="0.5" stroke-miterlimit="10" stroke-linecap="round"/>
<path d="M77.5268 38.6446C78.6092 37.837 80.439 38.0793 84.1071 38.5396C85.473 38.7173 86.0916 38.8869 86.5555 39.3472C87.7667 40.6314 86.8218 42.9089 86.7788 43.0139C86.4656 43.8299 85.8813 44.5293 85.1122 45.0087C84.0642 45.6064 83.3941 45.2752 79.537 45.1137C77.4237 45.0249 77.1488 45.1137 76.7536 44.7987C75.3104 43.7246 75.5423 40.1306 77.5268 38.6446Z" stroke="#1D1D1B" stroke-width="0.75" stroke-miterlimit="10" stroke-linecap="round"/>
<path d="M76.8302 44.8796C75.7994 45.8245 73.1621 44.072 68.695 42.5778C64.958 41.3341 61.5476 40.2034 57.7677 40.688C52.6134 41.3583 50.4571 44.5889 48.3181 43.4097C46.8834 42.6021 46.4367 40.4538 46.8663 38.9112C47.5449 36.4883 50.4056 35.4788 52.8797 34.6146C53.9449 34.2351 57.7076 32.9994 64.8034 33.4597C69.9578 33.7909 75.4128 34.1381 76.6155 36.9164C76.7443 37.2233 76.6155 37.1425 76.9505 41.6329C77.1137 44.1689 77.1653 44.5646 76.8302 44.8796Z" fill="#604130" stroke="#1D1D1B" stroke-width="0.5" stroke-miterlimit="10"/>
<path d="M71.2559 28.4611C72.7681 28.2519 74.2905 28.1145 75.8175 28.0492C77.3426 27.9725 78.8711 27.9725 80.3962 28.0492C77.3702 28.458 74.3099 28.5986 71.2559 28.4692V28.4611Z" fill="#1D1D1B"/>
</g>
</g>
<defs>
<filter id="filter0_d" x="0" y="0" width="163" height="163" filterUnits="userSpaceOnUse" color-interpolation-filters="sRGB">
<feFlood flood-opacity="0" result="BackgroundImageFix"/>
<feColorMatrix in="SourceAlpha" type="matrix" values="0 0 0 0 0 0 0 0 0 0 0 0 0 0 0 0 0 0 127 0" result="hardAlpha"/>
<feOffset dy="4"/>
<feGaussianBlur stdDeviation="2"/>
<feComposite in2="hardAlpha" operator="out"/>
<feColorMatrix type="matrix" values="0 0 0 0 0 0 0 0 0 0 0 0 0 0 0 0 0 0 0.25 0"/>
<feBlend mode="normal" in2="BackgroundImageFix" result="effect1_dropShadow"/>
<feBlend mode="normal" in="SourceGraphic" in2="effect1_dropShadow" result="shape"/>
</filter>
<clipPath id="clip0">
<rect width="155" height="155" fill="white" transform="translate(4)"/>
</clipPath>
</defs>
</svg>
