<svg width="100" height="100" viewBox="0 0 100 100" fill="none" xmlns="http://www.w3.org/2000/svg">
<g clip-path="url(#clip0)">
<path d="M53.8418 30.271C47.663 27.8341 41.3373 25.8272 34.9059 24.2635C29.0371 22.8906 31.0904 23.9065 22.2846 22.1603C18.595 21.4299 15.8966 20.7874 12.5295 21.8582C10.0724 22.6435 7.88799 24.1426 7.94044 24.2635C7.97191 24.3348 8.83203 23.8955 10.235 23.6622C11.2052 23.5002 12.7472 23.3876 12.818 23.6622C12.9622 24.247 7.59166 25.1174 4.20885 28.4671C-1.92479 34.546 0.676574 46.6818 0.7736 46.6846C0.870626 46.6873 0.249129 40.8693 3.63718 36.5778C4.41077 35.6003 5.45447 34.6229 5.64327 34.7766C5.93435 35.0073 3.944 37.6074 2.49647 41.0917C0.188822 46.6022 0.20979 51.9672 0.781459 52.1182C1.22988 52.2391 1.46852 49.0431 4.23771 46.6928C5.18699 45.8856 6.39326 45.2898 8.80843 44.0954C9.16245 43.9197 11.5881 42.7226 11.6773 42.8956C11.7402 43.0164 10.5969 43.7522 9.66855 44.3974C6.12053 46.8685 2.95538 49.9245 3.20188 50.3116C3.44838 50.6987 6.81546 47.4094 11.6773 47.4012C14.4045 47.4012 14.8241 48.6862 17.4149 48.9031C23.7584 49.4303 30.8282 44.5677 36.6366 40.4904C40.814 37.558 41.1864 36.77 44.6688 34.7849C48.584 32.5389 53.8391 30.271 53.8418 30.271Z" fill="black" stroke="black" stroke-width="1.09" stroke-linecap="round" stroke-linejoin="round"/>
<path d="M68.8703 72.071C68.0466 74.2994 67.531 76.6394 67.3388 79.0203C66.8301 85.4589 69.08 88.3556 67.8633 90.78C66.8616 92.7569 63.5076 94.5361 52.5462 92.9189" fill="#FFD1C0"/>
<path d="M68.8703 72.071C68.0466 74.2994 67.531 76.6394 67.3388 79.0203C66.8301 85.4589 69.08 88.3556 67.8633 90.78C66.8616 92.7569 63.5076 94.5361 52.5462 92.9189" stroke="black" stroke-miterlimit="10"/>
<path d="M53.2963 29.969C53.2963 29.969 55.5908 34.6778 57.0226 38.3186C59.4902 44.5924 58.2499 44.7874 60.7489 50.9981C62.5846 55.5421 63.4893 57.8155 65.0469 59.3476C65.8018 60.0145 66.3919 60.8622 66.7672 61.8187C67.3939 63.521 66.859 64.5644 67.3389 64.9103C68.3878 65.6764 71.0101 60.7918 74.7915 60.5832C77.128 60.4459 79.4409 62.1125 80.5239 63.9851C83.8464 69.7235 77.3771 80.459 73.0713 80.3739C72.4198 80.3357 71.7768 80.1998 71.1622 79.9703C69.7383 79.4733 67.6955 74.8277 66.2453 74.7179C65.2357 74.641 64.5539 76.7716 63.1353 79.4212C61.7585 81.9939 60.3739 83.6687 57.6074 87.0157C55.9815 88.9871 53.3041 92.183 49.1451 95.1566C45.0595 98.0752 42.0937 100.22 38.779 99.4975C36.1829 98.9319 36.3114 97.301 32.2232 94.4317C26.8815 90.7086 24.6683 92.1144 21.1596 88.6576C20.6351 88.1359 16.3109 83.8664 17.3598 80.3382C18.3616 76.9611 22.1404 77.2411 23.2312 73.8255C24.3405 70.366 20.6089 68.8009 18.6369 61.1268C17.1789 55.4131 17.3389 48.8454 17.3546 48.8454C17.3703 48.8454 17.3546 48.8455 17.3546 48.8674C25.9401 46.8246 31.4444 43.3761 34.9504 40.4959C37.5203 38.3762 40.7405 35.1336 46.4153 32.4538C48.6311 31.4059 50.9345 30.5741 53.2963 29.969Z" fill="#FFD1C0" stroke="black" stroke-miterlimit="10"/>
<path d="M35.7764 48.656C35.7567 47.8212 35.9611 46.9974 36.3664 46.2783C36.6017 45.8847 36.9018 45.5379 37.2528 45.2541C37.4373 45.1018 37.6401 44.9753 37.8559 44.878C38.0681 44.7821 38.2852 44.6987 38.5063 44.6281C39.3498 44.4114 40.2302 44.4058 41.0762 44.6116C41.1776 44.6299 41.2798 44.6519 41.383 44.6775L41.674 44.7681C41.8655 44.8313 42.0648 44.8889 42.251 44.9603C42.6181 45.1223 42.9931 45.2733 43.3366 45.4683C44.6956 46.2181 45.9067 47.2309 46.9056 48.4528C47.8989 49.6328 48.6639 51.0036 49.1582 52.4889V52.5082C49.161 52.5168 49.1622 52.5259 49.1617 52.5351C49.1611 52.5442 49.1588 52.5531 49.1549 52.5613C49.151 52.5695 49.1455 52.5768 49.1389 52.5828C49.1323 52.5887 49.1245 52.5932 49.1162 52.596C49.1034 52.6013 49.0892 52.602 49.076 52.598C49.0627 52.594 49.051 52.5856 49.0428 52.574L48.3846 51.7064C48.1538 51.4318 47.9126 51.1573 47.6792 50.8827C47.4458 50.6081 47.1888 50.3336 46.9449 50.059C46.7011 49.7844 46.4205 49.5483 46.1766 49.2902C45.1374 48.2821 43.9752 47.4225 42.7204 46.734C42.4135 46.5528 42.0858 46.4155 41.7632 46.2645C41.6006 46.1931 41.4328 46.141 41.2676 46.0778L41.0053 45.9872L40.7431 45.9186C40.0732 45.711 39.3689 45.6548 38.6767 45.7538C38.5063 45.7868 38.3437 45.8417 38.1759 45.8829C38.0123 45.937 37.8549 46.0097 37.7065 46.0998C37.4096 46.2811 37.1437 46.5131 36.9198 46.7862C36.4603 47.348 36.115 48.002 35.9049 48.7082C35.899 48.7253 35.8869 48.7395 35.8713 48.7476C35.8557 48.7558 35.8377 48.7574 35.821 48.7521C35.8079 48.7474 35.7965 48.7386 35.7885 48.7267C35.7805 48.7149 35.7762 48.7007 35.7764 48.6862V48.656Z" fill="black"/>
<path d="M23.5669 53.6311C23.2442 53.3331 22.8996 53.0623 22.5363 52.8211C22.3852 52.7189 22.2197 52.642 22.0459 52.5932C21.9159 52.5525 21.7774 52.5525 21.6473 52.5932C21.1753 52.6783 20.6509 53.2714 20.2129 53.9194C19.7607 54.6211 19.3559 55.3551 19.0014 56.1159C18.6238 56.9039 18.2645 57.7249 17.8083 58.5651C17.8055 58.5701 17.8019 58.5746 17.7975 58.5782C17.7931 58.5818 17.7881 58.5844 17.7827 58.5859C17.7773 58.5875 17.7717 58.5879 17.7662 58.5871C17.7607 58.5864 17.7554 58.5845 17.7506 58.5815C17.743 58.5775 17.7369 58.5711 17.7331 58.5632C17.7294 58.5553 17.7281 58.5463 17.7296 58.5376C17.8719 57.6301 18.0859 56.7365 18.3694 55.8661C18.6462 54.9923 19.0334 54.1612 19.5206 53.3949C19.7726 53.0098 20.0765 52.6649 20.4227 52.3708C20.7684 52.057 21.2083 51.8801 21.6657 51.8711C21.8963 51.8712 22.1231 51.9336 22.3239 52.0523C22.5157 52.1686 22.692 52.3107 22.8484 52.4751C23.1557 52.8033 23.4202 53.1726 23.6351 53.5734C23.6424 53.5816 23.6466 53.5924 23.6466 53.6036C23.6466 53.6149 23.6424 53.6257 23.6351 53.6338C23.628 53.6384 23.6198 53.6409 23.6115 53.6409C23.6031 53.6409 23.595 53.6384 23.5879 53.6338L23.5669 53.6311Z" fill="black"/>
<path d="M36.8778 94.9726C37.2213 95.6783 37.8795 96.7463 38.9416 97.3009C40.8297 98.2784 43.3314 97.2845 44.7632 94.5773" fill="#FFD1C0"/>
<path d="M36.9067 94.9728C37.4277 95.6189 38.0427 96.1749 38.7292 96.6202C39.36 96.9891 40.0857 97.1409 40.8035 97.0541C41.5451 96.9457 42.254 96.6642 42.8777 96.2304C43.5531 95.7447 44.1765 95.184 44.737 94.5582L44.792 94.5884C44.3859 95.3723 43.8413 96.0683 43.1872 96.6395C42.8529 96.9168 42.4885 97.1518 42.1015 97.3396C41.7106 97.5229 41.2963 97.6459 40.8716 97.7048C40.4445 97.7477 40.0136 97.7143 39.5972 97.6059L39.2878 97.5098L38.9941 97.3753C38.7991 97.2827 38.6137 97.1696 38.4408 97.0376C37.762 96.4946 37.2171 95.7895 36.8516 94.9811L36.9067 94.9728Z" fill="black"/>
<path d="M80.0964 62.1153C81.1454 65.1575 81.3289 66.5084 81.3814 67.516C81.4286 68.4056 81.6646 72.8701 78.9977 76.5987C76.517 80.0692 72.7644 81.1757 72.9663 81.7056C73.0948 82.0324 74.7416 81.615 75.5467 81.4063C80.613 80.0939 83.1515 79.4377 84.7249 78.7019C85.9626 78.128 97.4877 72.7657 97.923 63.6831C98.0804 60.3581 96.7063 57.5163 96.2002 56.4729C94.4327 52.824 92.5053 52.2995 90.4625 49.5648C86.9591 47.3134 84.0824 45.493 82.1445 44.1586C80.2616 42.8627 77.8019 41.229 74.8728 39.4306C72.3763 37.8985 70.5643 36.8799 66.9376 34.8453C62.7419 32.4923 61.8922 32.1189 61.1999 31.8416C58.8934 30.9198 56.4827 30.3144 54.0279 30.0404C66.1168 36.6849 72.0695 46.443 75.2687 51.668C77.2193 54.9659 78.8372 58.4672 80.0964 62.1153Z" fill="#DD5E00" stroke="black" stroke-width="1.09" stroke-miterlimit="10"/>
<path d="M72.6858 82.0049C75.2281 80.8537 77.4001 78.9604 78.9421 76.5513C80.4841 74.1421 81.331 71.319 81.3814 68.4193C80.5453 70.7837 79.3864 73.0089 77.941 75.0254C76.4436 77.1258 75.0459 79.0478 73.3493 78.9325C72.6858 78.8858 72.2322 78.5481 71.4271 78.3998C71.0101 78.3202 70.8318 78.441 70.4804 78.3312C69.6544 78.0703 69.3502 77.3372 69.1693 77.4333C68.9883 77.5294 69.1011 78.2763 69.5154 78.8803C69.8878 79.4295 70.3493 79.5942 70.7558 79.8331C71.5872 80.3451 72.2579 81.0998 72.6858 82.0049Z" fill="black" stroke="black" stroke-width="1.09" stroke-linecap="round" stroke-linejoin="round"/>
<path d="M53.2674 29.969C54.5908 32.4992 55.7125 35.1395 56.6214 37.8628C58.3311 42.978 57.8932 44.2217 59.8652 49.5071C61.0584 52.7031 62.3433 56.1462 64.1685 57.9199C64.9304 58.6308 65.5785 59.4651 66.088 60.391C66.5092 61.1165 66.8289 61.9015 67.0373 62.722C67.2392 63.5457 67.1631 63.7736 67.3257 63.9246C67.7427 64.3145 69.2531 63.7297 73.816 59.8061H73.6954L73.8344 59.7787C75.0537 59.559 77.2224 59.7155 80.2355 62.7111C79.8657 61.5304 79.3072 59.8583 78.5126 57.9062C76.1021 51.9927 72.8103 46.5175 68.7602 41.6847C65.9464 38.3186 63.3896 35.3121 59.0051 32.6735C57.1822 31.5766 55.2603 30.6707 53.2674 29.969Z" fill="black" stroke="black" stroke-width="1.09" stroke-linecap="round" stroke-linejoin="round"/>
<path d="M79.4225 61.9396C79.4934 62.0494 79.5563 62.1428 79.6114 62.2142C79.6596 62.2903 79.714 62.3619 79.774 62.4283C79.8081 62.4613 79.8343 62.4778 79.85 62.464C79.8657 62.4503 79.8081 62.4091 79.8028 62.3981C79.6848 62.2471 79.5563 62.0906 79.4225 61.9396Z" fill="black" stroke="black" stroke-width="1.09" stroke-linecap="round" stroke-linejoin="round"/>
<path d="M73.6954 59.8061H73.816H73.8344C73.7715 59.7899 73.7217 59.798 73.6954 59.8061Z" fill="black" stroke="black" stroke-width="1.09" stroke-linecap="round" stroke-linejoin="round"/>
<path d="M81.1639 66.3875C81.1874 67.6039 81.0371 68.8171 80.718 69.987C81.1024 68.8323 81.2543 67.6067 81.1639 66.3875Z" fill="black" stroke="black" stroke-width="1.09" stroke-linecap="round" stroke-linejoin="round"/>
<path d="M73.6954 59.8062H73.8161C74.6027 59.7458 76.8291 59.7018 78.7119 61.2943C79.0424 61.5744 79.3439 61.8901 79.6114 62.2361C79.6691 62.3075 79.7215 62.3789 79.774 62.4502C80.5815 63.5998 81.0632 64.9644 81.1638 66.3875C81.1276 64.9737 80.669 63.6073 79.8526 62.4804C79.8317 62.4502 79.8107 62.4255 79.8054 62.4145C79.6796 62.2471 79.5432 62.0906 79.4173 61.9396C78.7258 61.1293 77.8549 60.5091 76.881 60.1333C75.9072 59.7575 74.8602 59.6376 73.8318 59.7842C73.7715 59.7897 73.7217 59.7979 73.6954 59.8062Z" fill="black" stroke="black" stroke-width="1.09" stroke-linecap="round" stroke-linejoin="round"/>
<path d="M90.1952 48.7576C88.884 46.5611 87.6594 44.1943 87.3263 42.7501C86.6026 39.6145 87.6987 38.357 86.7521 35.2407C86.4688 34.3044 85.9653 33.099 84.4575 31.0343C83.524 29.7631 80.1595 25.3782 75.2793 22.3223C62.4771 14.3159 42.0282 17.2098 39.9932 17.5174C36.558 18.0363 32.7582 19.3295 25.6464 20.2219C21.4717 20.7435 19.1562 20.8012 19.13 21.2597C19.0592 22.4788 35.4802 22.6847 44.0893 26.9652C46.9733 28.4799 50.073 29.4943 53.2675 29.969C54.7019 30.1722 54.8409 30.0706 56.1363 30.271C60.3111 30.919 63.311 32.6927 65.3145 33.8761C76.9131 40.7155 75.4314 39.6914 77.0756 40.7842C85.1209 46.1273 90.405 50.6384 90.8482 50.0947C90.9583 49.9629 90.7065 49.6225 90.1952 48.7576Z" fill="#FFC100" stroke="black" stroke-width="1.09" stroke-miterlimit="10"/>
<path d="M58.9579 26.257C59.1467 25.9302 59.7446 26.04 60.5129 26.0757C60.5129 26.0757 62.4613 26.1691 65.5216 25.1724C67.6745 24.4723 67.5539 22.7892 70.1867 19.9282C74.3825 15.3594 78.232 15.7905 81.5886 11.9658C81.7932 11.7324 82.5117 10.8949 82.7975 11.0624C83.322 11.3727 81.864 14.9338 82.1052 15.0409C82.3465 15.148 82.9653 11.8559 85.3884 9.43425C87.5885 7.23771 90.397 6.61994 96.098 4.00881C96.8838 3.69447 97.5925 3.20007 98.1722 2.56184C98.7039 1.89028 99.1671 1.16238 99.5542 0.390015C99.5542 0.390015 100.233 2.64696 99.5542 4.36849C99.4414 4.64306 99.292 4.91762 98.5053 5.81546C96.4861 8.14378 94.9415 9.25578 95.0517 9.43425C95.0517 9.43425 95.1513 9.5935 98.1617 7.98728C98.1617 7.98728 95.9065 15.0546 91.2519 17.0315C90.0378 17.545 88.0002 17.9952 87.4495 18.116C85.5693 18.5306 83.9854 18.7009 83.9959 18.8382C84.0064 18.9754 85.3228 18.6981 87.106 19.2006C87.9347 19.434 89.1776 19.9254 89.1776 19.9254L87.4495 21.01C83.1673 23.7035 80.2329 27.3909 76.0503 27.52C75.8667 27.52 74.0835 27.2838 70.5224 26.7979C69.5678 26.6661 68.6867 26.364 67.4123 26.4354C66.3458 26.4751 65.2953 26.7189 64.3127 27.1548C62.4141 28.0197 62.2148 29.0383 61.2026 28.9614C59.8364 28.8653 58.6118 26.8802 58.9579 26.257Z" fill="#FF007C" stroke="black" stroke-width="1.09" stroke-miterlimit="10"/>
<path d="M67.7689 24.9911C74.6735 24.0822 78.5808 21.4876 80.8963 19.2032C83.0283 17.1 84.5676 14.5136 88.5011 11.6059C90.2332 10.3273 92.0855 9.23716 94.029 8.35229" fill="#FF007C"/>
<path d="M67.7689 24.9912C70.3388 24.486 72.8746 23.8023 75.2321 22.6876C77.5958 21.6053 79.7259 20.0334 81.4942 18.0666C82.3858 17.0864 83.2381 16.0375 84.1637 15.0464C85.0883 14.0549 86.0823 13.1371 87.1375 12.3007C89.2384 10.637 91.5589 9.30148 94.0263 8.33594C91.694 9.55107 89.4957 11.0297 87.4705 12.7455C86.4694 13.6038 85.5217 14.5283 84.6331 15.5131C83.7389 16.4933 82.8998 17.5367 81.9951 18.5334C81.0814 19.5485 80.0639 20.4554 78.961 21.2378C77.8543 22.0058 76.6761 22.6544 75.4445 23.1735C72.9908 24.1904 70.4017 24.8035 67.7689 24.9912Z" fill="black"/>
<path d="M85.5615 13.9589C85.9555 13.4995 86.3258 13.0183 86.6707 12.5175C87.0094 12.028 87.2747 11.4873 87.4574 10.914C87.5439 10.6394 87.6121 10.3237 87.7065 10.0217C87.7986 9.71969 87.9134 9.42588 88.0501 9.14304C88.3183 8.57883 88.6617 8.05743 89.0702 7.59448C88.7743 8.13099 88.5116 8.68675 88.2835 9.25836C88.0816 9.83586 87.9126 10.4254 87.7773 11.0238C87.5846 11.6342 87.28 12.1994 86.8805 12.6877C86.4948 13.169 86.0515 13.5963 85.5615 13.9589Z" fill="black"/>
<path d="M76.6377 18.0142C76.9107 17.7147 77.1664 17.3984 77.4034 17.067C77.6383 16.7457 77.8241 16.3881 77.9541 16.0071L78.135 15.4141C78.2012 15.2126 78.2827 15.017 78.3789 14.8292C78.5686 14.4554 78.8079 14.1116 79.0896 13.8079C78.8849 14.1614 78.7018 14.5283 78.5415 14.9061C78.3971 15.2902 78.2737 15.6825 78.1717 16.0813C78.0341 16.4871 77.8211 16.8604 77.545 17.1795C77.2785 17.4979 76.9735 17.7785 76.6377 18.0142Z" fill="black"/>
<path d="M72.8117 22.2674C73.1151 21.8339 73.3835 21.3747 73.6141 20.8945C73.8357 20.4294 73.9752 19.9262 74.0258 19.4091C74.0521 19.151 74.0625 18.8765 74.094 18.6046C74.127 18.3305 74.1813 18.0596 74.2566 17.7947C74.401 17.2669 74.6279 16.7678 74.9279 16.3175C74.7463 16.8172 74.6033 17.3314 74.5005 17.8551C74.4153 18.3882 74.3637 18.9266 74.3458 19.4668C74.2862 20.0275 74.1069 20.5671 73.8213 21.0455C73.5506 21.5077 73.2095 21.9204 72.8117 22.2674Z" fill="black"/>
<path d="M84.4103 22.9482C84.0118 23.305 83.5599 23.5907 83.0729 23.7939C82.5735 24.0021 82.0358 24.0903 81.4995 24.052C80.9955 23.9784 80.4873 23.9408 79.9785 23.9394C79.4679 23.9563 78.9594 24.0151 78.4576 24.1152C78.9321 23.8837 79.4397 23.7352 79.9601 23.6758C80.2213 23.645 80.4843 23.6358 80.7468 23.6484C81.0091 23.6484 81.2713 23.6978 81.5152 23.7143C82.0105 23.7508 82.508 23.6932 82.9837 23.5441C83.4741 23.3869 83.9512 23.1876 84.4103 22.9482Z" fill="black"/>
<path d="M59.8652 17.3526C66.8328 18.6294 72.2951 25.2107 75.5546 29.1398C80.8491 35.518 81.9951 40.0868 82.155 41.4541C82.155 41.52 82.53 44.6885 82.53 44.6885C82.53 44.6885 79.6848 42.492 77.0782 40.7842C74.5267 39.1066 73.6272 38.8265 72.4891 38.0797C68.3458 35.3642 69.4053 31.9651 65.8022 27.0366C60.8984 20.3344 52.3601 17.6272 49.1609 17.1248C48.7833 17.0643 47.5219 16.8859 47.5298 16.7541C47.5298 16.5289 51.1775 16.5344 54.416 16.7541C56.4038 16.8886 58.659 17.133 59.8652 17.3526Z" fill="#135751" stroke="black" stroke-width="1.09" stroke-miterlimit="10"/>
<path d="M71.2331 71.8048C70.8851 71.3486 70.6565 70.8055 70.5696 70.2288C70.4805 69.6486 70.4805 69.0572 70.5696 68.4771C70.6574 67.896 70.817 67.3293 71.0443 66.7912C71.2847 66.2549 71.583 65.7492 71.9332 65.2839C72.6469 64.3434 73.6049 63.6388 74.6919 63.2548C75.2562 63.0586 75.8584 63.0133 76.4437 63.123C76.7298 63.174 77.0021 63.2886 77.2423 63.4591C77.4825 63.6296 77.685 63.8521 77.8361 64.1115L77.7784 64.1746C77.4105 63.8098 76.9266 63.6005 76.4201 63.587C75.9155 63.5783 75.4152 63.6851 74.9542 63.9001C74.4895 64.1102 74.0552 64.3874 73.664 64.7238C73.2679 65.0534 72.9089 65.4292 72.5941 65.844C71.9475 66.6659 71.4795 67.6253 71.2226 68.6555C70.9604 69.6714 70.9105 70.7944 71.3144 71.7719L71.2331 71.8048Z" fill="black"/>
<path d="M72.2321 68.0844C72.6812 68.1706 73.1033 68.3704 73.462 68.6662C73.8206 68.962 74.1049 69.3449 74.2901 69.7818C74.4754 70.2187 74.556 70.6964 74.525 71.1733C74.494 71.6502 74.3524 72.112 74.1124 72.5186" fill="#FFD1C0"/>
<path d="M72.2479 68.0487C72.762 67.9117 73.3069 67.9905 73.7662 68.2684C74.2564 68.5454 74.6448 68.9851 74.8703 69.5184C75.0957 70.0517 75.1455 70.6483 75.0118 71.2145C74.8973 71.7545 74.5895 72.2281 74.1517 72.5379L74.0914 72.5022C74.3024 72.089 74.43 71.6348 74.4664 71.1678C74.4967 70.7033 74.4184 70.238 74.2384 69.8122C74.0584 69.3864 73.782 69.013 73.4332 68.7242C73.0789 68.4382 72.6717 68.2325 72.2374 68.1201L72.2479 68.0487Z" fill="black"/>
<path d="M45.7553 69.1141C49.0953 67.5513 50.4013 63.0005 48.6722 58.9497C46.9432 54.8988 42.834 52.8819 39.494 54.4447C36.1541 56.0076 34.8481 60.5584 36.5771 64.6092C38.3061 68.6601 42.4154 70.677 45.7553 69.1141Z" fill="white"/>
<path d="M36.5842 64.6221C36.9755 65.5132 37.4985 66.3342 38.134 67.0548C38.773 67.7669 39.53 68.3521 40.3682 68.7818C41.1987 69.207 42.1059 69.4428 43.0299 69.4737C43.9371 69.4993 44.8367 69.2949 45.6522 68.8779C46.4384 68.4477 47.1236 67.84 47.6583 67.0988C48.1929 66.3576 48.5637 65.5014 48.7439 64.5919C48.9437 63.6924 48.9925 62.7633 48.8881 61.8462C48.6895 59.9983 47.9472 58.2607 46.7641 56.8738C46.1792 56.184 45.4856 55.6045 44.7134 55.1605C43.9418 54.7127 43.0918 54.4325 42.2143 54.3368C41.3192 54.2394 40.4149 54.3732 39.5806 54.7264C38.7463 55.0797 38.0074 55.6416 37.4285 56.3631C36.8334 57.1029 36.3955 57.9668 36.1436 58.8974C35.89 59.8385 35.8012 60.8198 35.8814 61.7941C35.9708 62.7698 36.2081 63.7245 36.5842 64.6221ZM36.5842 64.6221C36.1959 63.7257 35.9471 62.77 35.8473 61.7913C35.7378 60.8097 35.792 59.8157 36.0072 58.8535C36.2192 57.8772 36.6199 56.9568 37.1847 56.149C37.7649 55.3164 38.5309 54.6452 39.4158 54.1938C40.3008 53.7425 41.2777 53.5248 42.2615 53.5598C43.2628 53.594 44.2458 53.8494 45.1461 54.3094C46.0403 54.7689 46.8472 55.395 47.5272 56.1572C48.8958 57.6883 49.7287 59.6598 49.8899 61.7501C49.9763 62.7889 49.8821 63.8355 49.6119 64.839C49.3422 65.8459 48.8721 66.7816 48.2326 67.5847C47.6011 68.3753 46.7945 68.992 45.883 69.3811C44.9716 69.7702 43.983 69.9198 43.0036 69.8169C42.0527 69.7179 41.131 69.4171 40.2948 68.9328C39.4667 68.4576 38.7232 67.8362 38.0973 67.096C37.4708 66.3605 36.9601 65.5255 36.5842 64.6221Z" fill="black"/>
<path d="M45.2272 69.0055C47.7356 68.4749 49.2786 65.5024 48.6735 62.3662C48.0685 59.23 45.5445 57.1176 43.0361 57.6482C40.5276 58.1787 38.9846 61.1512 39.5897 64.2874C40.1948 67.4237 42.7187 69.536 45.2272 69.0055Z" fill="#00DBDE" stroke="black" stroke-width="1.31" stroke-miterlimit="10"/>
<path d="M46.3419 67.2085C47.4976 67.2085 48.4345 66.01 48.4345 64.5315C48.4345 63.053 47.4976 61.8545 46.3419 61.8545C45.1861 61.8545 44.2492 63.053 44.2492 64.5315C44.2492 66.01 45.1861 67.2085 46.3419 67.2085Z" fill="black" stroke="black" stroke-width="1.76" stroke-miterlimit="10"/>
<path d="M27.8352 72.9093C29.739 71.743 29.7604 68.074 27.8831 64.7142C26.0057 61.3544 22.9404 59.5761 21.0366 60.7424C19.1328 61.9086 19.1113 65.5777 20.9887 68.9375C22.8661 72.2973 25.9313 74.0755 27.8352 72.9093Z" fill="white"/>
<path d="M20.9891 68.9436C21.3567 69.5827 21.7789 70.1856 22.2505 70.7448C22.7244 71.3009 23.2647 71.7909 23.8579 72.2027C24.441 72.6163 25.0944 72.909 25.7827 73.0649C26.4495 73.2124 27.1449 73.0981 27.7364 72.7436C28.2789 72.343 28.6623 71.7481 28.8142 71.0715C28.9711 70.3819 29.004 69.6678 28.9112 68.9656C28.8307 68.252 28.6678 67.5513 28.4261 66.8789C28.1916 66.2007 27.8984 65.5463 27.5502 64.924C27.2019 64.3018 26.8008 63.7136 26.3518 63.1667C25.9093 62.618 25.4057 62.1268 24.8518 61.7033C24.3124 61.2759 23.7027 60.9557 23.0529 60.7588C22.7343 60.6466 22.3971 60.6044 22.0622 60.6348C21.7274 60.6652 21.4021 60.7677 21.1068 60.9357C20.8115 61.1037 20.5524 61.3337 20.3458 61.6113C20.1392 61.8888 19.9895 62.2081 19.9061 62.549C19.6989 63.253 19.6215 63.9919 19.678 64.7263C19.7316 65.4697 19.8743 66.203 20.1028 66.9091C20.3393 67.6137 20.636 68.2947 20.9891 68.9436ZM20.9891 68.9436C20.627 68.2989 20.3224 67.6206 20.0792 66.9173C19.8276 66.2147 19.6585 65.4826 19.5757 64.7373C19.4787 63.9834 19.5161 63.2172 19.6858 62.4776C19.8655 61.7033 20.3119 61.0258 20.9393 60.5748C21.6133 60.1679 22.4074 60.0368 23.1683 60.2069C23.9052 60.374 24.6048 60.6872 25.2294 61.1294C26.453 62.0118 27.4726 63.1694 28.2136 64.5176C28.5781 65.1902 28.8835 65.896 29.1262 66.6263C29.3648 67.3625 29.5137 68.1272 29.5694 68.9024C29.6318 69.6885 29.5499 70.4797 29.3281 71.2335C29.0969 72.0109 28.599 72.6711 27.9304 73.0868C27.248 73.439 26.4652 73.5143 25.7329 73.2983C25.0338 73.0921 24.3775 72.7514 23.7976 72.2934C23.2157 71.8536 22.6873 71.3409 22.2242 70.7668C21.7604 70.1996 21.347 69.5894 20.9891 68.9436Z" fill="black"/>
<path d="M28.1043 72.0269C29.4206 71.2205 29.5919 68.9636 28.4868 66.986C27.3817 65.0083 25.4188 64.0587 24.1025 64.8651C22.7862 65.6714 22.615 67.9283 23.72 69.906C24.8251 71.8836 26.788 72.8332 28.1043 72.0269Z" fill="#00DBDE" stroke="black" stroke-width="1.07" stroke-miterlimit="10"/>
<path d="M28.645 70.7052C29.2951 70.4938 29.5662 69.4596 29.2505 68.3952C28.9349 67.3308 28.152 66.6393 27.5019 66.8506C26.8518 67.0619 26.5808 68.0962 26.8964 69.1606C27.2121 70.225 27.995 70.9165 28.645 70.7052Z" fill="black" stroke="black" stroke-width="1.18" stroke-miterlimit="10"/>
<path d="M33.0073 90.9202C36.5002 93.5615 37.8376 95.0854 40.2554 94.9728C44.5403 94.7696 47.5429 89.6434 48.6154 87.8121C51.2037 83.3916 51.5865 78.8502 51.5891 76.2803C48.778 79.954 44.758 83.8556 39.3009 85.3849C29.1918 88.2184 19.5128 81.4092 19.1955 82.2713C18.9569 82.922 25.1141 84.9538 33.0073 90.9202Z" fill="#FF0033" stroke="black" stroke-linecap="round" stroke-linejoin="round"/>
<path d="M38.2021 92.5701C38.5666 93.9429 40.5071 94.7968 42.1356 94.6513C45.1119 94.3767 46.9712 90.6701 48.7281 87.1611C50.257 84.108 51.1722 81.0054 50.9021 80.8461C50.7578 80.7665 50.4012 81.6177 49.4257 82.5841C48.0962 83.9048 47.2701 83.7922 46.0848 84.6434C43.7247 86.3292 43.1426 89.5251 42.938 89.4236C42.7335 89.322 43.7772 87.1996 43.3366 86.8097C42.5919 86.1864 37.5177 89.9974 38.2021 92.5701Z" fill="#FF6699" stroke="black" stroke-linecap="round" stroke-linejoin="round"/>
<path d="M54.8067 79.2426C54.4077 78.6976 53.9694 78.1854 53.4956 77.7105C53.0693 77.2877 52.6017 76.9132 52.1005 76.593C51.863 76.4406 51.6129 76.311 51.3531 76.2059C51.1 76.0963 50.8362 76.0162 50.5664 75.967C49.9568 75.8738 49.3345 75.9505 48.7622 76.1894H48.7439C48.7391 76.1916 48.7339 76.1927 48.7287 76.1926C48.7235 76.1925 48.7183 76.1912 48.7136 76.1889C48.7089 76.1865 48.7047 76.1832 48.7013 76.179C48.698 76.1748 48.6955 76.17 48.694 76.1647C48.6908 76.1584 48.6891 76.1513 48.6891 76.1441C48.6891 76.1369 48.6908 76.1299 48.694 76.1235C48.9361 75.8669 49.2227 75.661 49.5384 75.5167C49.8561 75.377 50.1957 75.2997 50.5402 75.2888C50.8845 75.2771 51.2284 75.3253 51.5576 75.4316C51.8866 75.5322 52.2021 75.6761 52.4964 75.8599C53.0804 76.2327 53.589 76.7215 53.9938 77.2987C54.4072 77.8687 54.7012 78.5236 54.8565 79.2206C54.8589 79.2312 54.8572 79.2423 54.8518 79.2515C54.8464 79.2608 54.8378 79.2674 54.8277 79.27C54.8203 79.2712 54.8128 79.2703 54.8059 79.2674C54.799 79.2645 54.7929 79.2597 54.7884 79.2536L54.8067 79.2426Z" fill="black"/>
<path d="M29.7975 79.9649C31.9137 79.9841 33.7048 78.7925 34.287 77.071C34.9766 75.0337 33.6602 73.1777 33.5973 73.0925C32.7975 71.9943 31.7826 71.7499 27.0414 70.9207C21.4821 69.9543 20.6403 69.9131 20.1316 70.5611C19.0171 71.9751 20.7374 75.1134 20.8213 75.2616C23.2102 79.5448 28.8404 79.9155 29.7975 79.9649Z" fill="#FF878A" stroke="black" stroke-width="1.09" stroke-miterlimit="10"/>
</g>
<defs>
<clipPath id="clip0">
<rect width="100" height="100" fill="white"/>
</clipPath>
</defs>
</svg>
