<svg width="183" height="183" viewBox="0 0 183 183" fill="none" xmlns="http://www.w3.org/2000/svg">
<g filter="url(#filter0_d)">
<g clip-path="url(#clip0)">
<path d="M98.2234 52.9741C87.4106 48.7096 76.3405 45.1975 65.0856 42.4609C54.8152 40.0585 58.4085 41.8363 42.9983 38.7804C36.5415 37.5023 31.8194 36.3779 25.927 38.2518C21.627 39.626 17.8043 42.2495 17.8961 42.4609C17.9511 42.5859 19.4564 41.8171 21.9115 41.4086C23.6095 41.1252 26.3079 40.9282 26.4318 41.4086C26.6842 42.4321 17.2857 43.9553 11.3658 49.8173C0.631928 60.4553 5.18431 81.6931 5.3541 81.6979C5.5239 81.7027 4.43628 71.5211 10.3654 64.011C11.7192 62.3004 13.5456 60.5899 13.876 60.859C14.3854 61.2626 10.9023 65.8128 8.36914 71.9103C4.33074 81.5537 4.36744 90.9425 5.36786 91.2068C6.15259 91.4182 6.57022 85.8253 11.4163 81.7123C13.0775 80.2996 15.1885 79.257 19.4151 77.1669C20.0346 76.8593 24.2795 74.7644 24.4355 75.0671C24.5457 75.2785 22.5448 76.5662 20.9203 77.6954C14.7112 82.0198 9.17223 87.3677 9.6036 88.0452C10.035 88.7227 15.9274 82.9664 24.4355 82.952C29.2082 82.952 29.9424 85.2007 34.4764 85.5803C45.5774 86.5028 57.9496 77.9933 68.1144 70.858C75.4248 65.7263 76.0765 64.3473 82.1708 60.8734C89.0223 56.943 98.2188 52.9741 98.2234 52.9741Z" fill="black" stroke="black" stroke-width="1.09" stroke-linecap="round" stroke-linejoin="round"/>
<path d="M124.523 126.124C123.082 130.024 122.179 134.119 121.843 138.285C120.953 149.553 124.89 154.622 122.761 158.865C121.008 162.324 115.138 165.438 95.9561 162.608" fill="#FFD1C0"/>
<path d="M124.523 126.124C123.082 130.024 122.179 134.119 121.843 138.285C120.953 149.553 124.89 154.622 122.761 158.865C121.008 162.324 115.138 165.438 95.9561 162.608" stroke="black" stroke-miterlimit="10"/>
<path d="M97.2684 52.4458C97.2684 52.4458 101.284 60.6862 103.79 67.0575C108.108 78.0368 105.937 78.3779 110.311 89.2467C113.523 97.1988 115.106 101.177 117.832 103.858C119.153 105.025 120.186 106.509 120.843 108.183C121.939 111.162 121.003 112.988 121.843 113.593C123.679 114.934 128.268 106.386 134.885 106.021C138.974 105.78 143.022 108.697 144.917 111.974C150.731 122.016 139.41 140.803 131.875 140.654C130.735 140.588 129.609 140.35 128.534 139.948C126.042 139.078 122.467 130.948 119.929 130.756C118.163 130.622 116.969 134.35 114.487 138.987C112.077 143.489 109.654 146.42 104.813 152.278C101.968 155.727 97.2822 161.32 90.0039 166.524C82.8542 171.632 77.6639 175.384 71.8633 174.121C67.3201 173.131 67.545 170.277 60.3906 165.256C51.0426 158.74 47.1695 161.2 41.0293 155.151C40.1114 154.238 32.5441 146.766 34.3797 140.592C36.1327 134.682 42.7456 135.172 44.6546 129.195C46.5958 123.141 40.0656 120.402 36.6146 106.972C34.063 96.9729 34.343 85.4796 34.3705 85.4796C34.398 85.4796 34.3705 85.4796 34.3705 85.518C49.3952 81.9432 59.0277 75.9082 65.1632 70.8679C69.6605 67.1585 75.2959 61.4838 85.2267 56.7942C89.1044 54.9603 93.1354 53.5047 97.2684 52.4458Z" fill="#FFD1C0" stroke="black" stroke-miterlimit="10"/>
<path d="M66.6087 85.1478C66.5742 83.687 66.932 82.2453 67.6413 80.9868C68.053 80.2981 68.5782 79.6912 69.1924 79.1945C69.5153 78.9279 69.8702 78.7066 70.2479 78.5363C70.6192 78.3685 70.9991 78.2225 71.386 78.099C72.8621 77.7198 74.4028 77.7099 75.8833 78.0702C76.0607 78.1022 76.2397 78.1407 76.4202 78.1855L76.9296 78.3441C77.2646 78.4546 77.6133 78.5555 77.9392 78.6804C78.5816 78.9639 79.2379 79.2282 79.839 79.5693C82.2174 80.8816 84.3367 82.6538 86.0848 84.7923C87.8231 86.8573 89.1619 89.2561 90.0268 91.8555V91.8891C90.0318 91.9043 90.0339 91.9203 90.0329 91.9362C90.0319 91.9522 90.0278 91.9678 90.021 91.9822C90.0142 91.9965 90.0047 92.0093 89.9931 92.0197C89.9814 92.0301 89.9679 92.038 89.9534 92.0428C89.9309 92.0521 89.9061 92.0533 89.8829 92.0464C89.8597 92.0394 89.8393 92.0247 89.8249 92.0044L88.673 90.4861C88.2692 90.0056 87.847 89.5251 87.4386 89.0446C87.0301 88.5641 86.5804 88.0836 86.1536 87.6031C85.7268 87.1226 85.2358 86.7094 84.809 86.2578C82.9904 84.4935 80.9566 82.9893 78.7606 81.7844C78.2237 81.4673 77.6501 81.227 77.0856 80.9627C76.8011 80.8378 76.5074 80.7465 76.2183 80.636L75.7593 80.4775L75.3004 80.3574C74.1282 79.9941 72.8955 79.8958 71.6842 80.069C71.386 80.1267 71.1014 80.2228 70.8077 80.2949C70.5215 80.3896 70.246 80.5168 69.9863 80.6745C69.4667 80.9918 69.0014 81.3978 68.6096 81.8757C67.8055 82.8589 67.2012 84.0033 66.8336 85.2391C66.8232 85.2692 66.8021 85.2939 66.7748 85.3082C66.7475 85.3225 66.716 85.3253 66.6868 85.316C66.6638 85.3079 66.6439 85.2923 66.6298 85.2716C66.6158 85.2509 66.6084 85.2261 66.6087 85.2007V85.1478Z" fill="black"/>
<path d="M45.2417 93.8544C44.6771 93.333 44.0741 92.859 43.4382 92.4369C43.1737 92.2581 42.8842 92.1235 42.5801 92.0381C42.3526 91.9668 42.1101 91.9668 41.8825 92.0381C41.0565 92.1871 40.1387 93.2249 39.3723 94.3589C38.581 95.5869 37.8725 96.8714 37.2522 98.2028C36.5913 99.5819 35.9626 101.019 35.1641 102.489C35.1594 102.498 35.153 102.506 35.1453 102.512C35.1376 102.518 35.1288 102.523 35.1194 102.525C35.11 102.528 35.1002 102.529 35.0906 102.527C35.0809 102.526 35.0716 102.523 35.0632 102.518C35.05 102.511 35.0393 102.499 35.0327 102.486C35.026 102.472 35.0239 102.456 35.0264 102.441C35.2754 100.853 35.65 99.2889 36.1462 97.7656C36.6306 96.2365 37.3081 94.7821 38.1608 93.4411C38.6018 92.7672 39.1335 92.1636 39.7394 91.6489C40.3444 91.0997 41.1142 90.7902 41.9147 90.7744C42.3183 90.7746 42.715 90.8838 43.0665 91.0915C43.4021 91.295 43.7107 91.5438 43.9843 91.8315C44.5221 92.4058 44.985 93.0521 45.3611 93.7535C45.374 93.7677 45.3812 93.7867 45.3812 93.8063C45.3812 93.826 45.374 93.8449 45.3611 93.8592C45.3487 93.8673 45.3344 93.8716 45.3198 93.8716C45.3052 93.8716 45.2909 93.8673 45.2785 93.8592L45.2417 93.8544Z" fill="black"/>
<path d="M68.5361 166.202C69.1373 167.437 70.2892 169.306 72.1477 170.277C75.4519 171.987 79.8299 170.248 82.3355 165.51" fill="#FFD1C0"/>
<path d="M68.5866 166.202C69.4983 167.333 70.5747 168.306 71.776 169.085C72.8799 169.731 74.1499 169.996 75.406 169.844C76.7039 169.655 77.9444 169.162 79.0359 168.403C80.2179 167.553 81.3088 166.572 82.2896 165.477L82.386 165.529C81.6753 166.901 80.7222 168.119 79.5774 169.119C78.9924 169.604 78.3547 170.015 77.6776 170.344C76.9934 170.665 76.2684 170.88 75.5253 170.983C74.7779 171.058 74.0237 171 73.295 170.81L72.7535 170.642L72.2395 170.406C71.8984 170.244 71.5739 170.046 71.2712 169.815C70.0833 168.865 69.1298 167.631 68.4902 166.217L68.5866 166.202Z" fill="black"/>
<path d="M144.169 108.702C146.004 114.026 146.326 116.39 146.417 118.153C146.5 119.71 146.913 127.523 142.246 134.048C137.905 140.121 131.338 142.058 131.691 142.985C131.916 143.557 134.798 142.826 136.207 142.461C145.073 140.164 149.515 139.016 152.269 137.728C154.435 136.724 174.604 127.34 175.365 111.445C175.641 105.627 173.236 100.654 172.35 98.8278C169.257 92.442 165.884 91.5243 162.309 86.7386C156.178 82.7985 151.144 79.6129 147.753 77.2777C144.458 75.0098 140.153 72.1508 135.027 69.0036C130.659 66.3225 127.488 64.5399 121.141 60.9794C113.798 56.8616 112.311 56.2081 111.1 55.7228C107.064 54.1098 102.845 53.0503 98.5488 52.5708C119.704 64.1987 130.122 81.2754 135.72 90.4191C139.134 96.1905 141.965 102.318 144.169 108.702Z" fill="#DD5E00" stroke="black" stroke-width="1.09" stroke-miterlimit="10"/>
<path d="M131.2 143.509C135.649 141.494 139.45 138.181 142.149 133.965C144.847 129.749 146.329 124.808 146.418 119.734C144.954 123.872 142.926 127.766 140.397 131.295C137.776 134.97 135.33 138.334 132.361 138.132C131.2 138.05 130.406 137.459 128.997 137.2C128.268 137.06 127.956 137.272 127.341 137.08C125.895 136.623 125.363 135.34 125.046 135.508C124.73 135.677 124.927 136.984 125.652 138.041C126.304 139.002 127.111 139.29 127.823 139.708C129.278 140.604 130.451 141.925 131.2 143.509Z" fill="black" stroke="black" stroke-width="1.09" stroke-linecap="round" stroke-linejoin="round"/>
<path d="M97.2178 52.4458C99.5336 56.8737 101.497 61.4941 103.087 66.2599C106.079 75.2115 105.313 77.3881 108.764 86.6376C110.852 92.2305 113.101 98.2559 116.295 101.36C117.628 102.604 118.762 104.064 119.654 105.684C120.391 106.954 120.95 108.328 121.315 109.764C121.668 111.205 121.535 111.604 121.82 111.868C122.549 112.55 125.193 111.527 133.178 104.661H132.967L133.21 104.613C135.344 104.228 139.139 104.502 144.412 109.744C143.765 107.678 142.787 104.752 141.397 101.336C137.178 90.9874 131.418 81.4056 124.33 72.9484C119.406 67.0575 114.932 61.7962 107.259 57.1786C104.069 55.259 100.705 53.6737 97.2178 52.4458Z" fill="black" stroke="black" stroke-width="1.09" stroke-linecap="round" stroke-linejoin="round"/>
<path d="M142.989 108.394C143.113 108.586 143.223 108.75 143.32 108.875C143.404 109.008 143.499 109.133 143.604 109.249C143.664 109.307 143.71 109.336 143.737 109.312C143.765 109.288 143.664 109.216 143.655 109.197C143.448 108.932 143.223 108.658 142.989 108.394Z" fill="black" stroke="black" stroke-width="1.09" stroke-linecap="round" stroke-linejoin="round"/>
<path d="M132.967 104.661H133.178H133.21C133.1 104.633 133.013 104.647 132.967 104.661Z" fill="black" stroke="black" stroke-width="1.09" stroke-linecap="round" stroke-linejoin="round"/>
<path d="M146.037 116.178C146.078 118.306 145.815 120.43 145.257 122.477C145.93 120.456 146.195 118.311 146.037 116.178Z" fill="black" stroke="black" stroke-width="1.09" stroke-linecap="round" stroke-linejoin="round"/>
<path d="M132.967 104.661H133.178C134.555 104.555 138.451 104.478 141.746 107.265C142.324 107.755 142.852 108.308 143.32 108.913C143.421 109.038 143.512 109.163 143.604 109.288C145.017 111.3 145.86 113.688 146.036 116.178C145.973 113.704 145.171 111.313 143.742 109.341C143.705 109.288 143.668 109.245 143.659 109.225C143.439 108.932 143.2 108.658 142.98 108.394C141.77 106.976 140.246 105.891 138.542 105.233C136.837 104.576 135.005 104.366 133.205 104.622C133.1 104.632 133.013 104.646 132.967 104.661Z" fill="black" stroke="black" stroke-width="1.09" stroke-linecap="round" stroke-linejoin="round"/>
<path d="M161.842 85.3256C159.548 81.4817 157.404 77.3398 156.822 74.8124C155.555 69.3252 157.473 67.1245 155.817 61.671C155.321 60.0325 154.44 57.9231 151.801 54.3098C150.167 52.0851 144.28 44.4117 135.739 39.0638C113.335 25.0526 77.5498 30.117 73.9887 30.6552C67.977 31.5633 61.3274 33.8264 48.8818 35.388C41.576 36.301 37.5238 36.4019 37.4779 37.2043C37.354 39.3377 66.0909 39.698 81.1568 47.1889C86.2038 49.8396 91.6283 51.6149 97.2186 52.4455C99.7288 52.8011 99.9721 52.6233 102.239 52.974C109.545 54.108 114.795 57.212 118.301 59.2829C138.598 71.252 136.006 69.4597 138.883 71.3721C152.962 80.7225 162.209 88.617 162.985 87.6656C163.178 87.4349 162.737 86.8391 161.842 85.3256Z" fill="#FFC100" stroke="black" stroke-width="1.09" stroke-miterlimit="10"/>
<path d="M107.176 45.9498C107.506 45.378 108.553 45.5702 109.897 45.6326C109.897 45.6326 113.307 45.796 118.662 44.0518C122.43 42.8266 122.219 39.8811 126.826 34.8744C134.169 26.879 140.906 27.6334 146.78 20.9402C147.138 20.5317 148.395 19.0662 148.895 19.3593C149.813 19.9023 147.262 26.1343 147.684 26.3217C148.106 26.5091 149.189 20.748 153.429 16.51C157.28 12.6661 162.194 11.585 172.171 7.01551C173.546 6.46542 174.787 5.60022 175.801 4.48331C176.731 3.30808 177.542 2.03426 178.22 0.682617C178.22 0.682617 179.408 4.63227 178.22 7.64495C178.022 8.12545 177.761 8.60593 176.384 10.1771C172.85 14.2517 170.147 16.1977 170.34 16.51C170.34 16.51 170.514 16.7887 175.783 13.9778C175.783 13.9778 171.836 26.3457 163.691 29.8052C161.566 30.7038 158 31.4918 157.036 31.7032C153.746 32.4287 150.974 32.7266 150.993 32.9669C151.011 33.2071 153.315 32.7218 156.435 33.6011C157.885 34.0095 160.061 34.8696 160.061 34.8696L157.036 36.7676C149.542 41.4812 144.407 47.9342 137.088 48.16C136.766 48.16 133.646 47.7468 127.414 46.8963C125.743 46.6657 124.201 46.1371 121.971 46.2621C120.105 46.3316 118.266 46.7582 116.547 47.521C113.224 49.0345 112.876 50.8171 111.104 50.6826C108.713 50.5144 106.57 47.0405 107.176 45.9498Z" fill="#FF007C" stroke="black" stroke-width="1.09" stroke-miterlimit="10"/>
<path d="M122.596 43.7345C134.679 42.1441 141.516 37.6035 145.569 33.6058C149.3 29.9252 151.993 25.3989 158.877 20.3105C161.908 18.073 165.15 16.1652 168.551 14.6167" fill="#FF007C"/>
<path d="M122.596 43.7345C127.093 42.8504 131.531 41.654 135.656 39.7032C139.793 37.8093 143.52 35.0585 146.615 31.6165C148.175 29.9012 149.667 28.0657 151.287 26.3311C152.905 24.5961 154.644 22.99 156.491 21.5262C160.167 18.6147 164.228 16.2776 168.546 14.5879C164.465 16.7144 160.617 19.302 157.073 22.3046C155.322 23.8067 153.663 25.4245 152.108 27.148C150.543 28.8633 149.075 30.6892 147.491 32.4334C145.892 34.2098 144.112 35.7969 142.182 37.1662C140.245 38.5102 138.183 39.6451 136.028 40.5537C131.734 42.3332 127.203 43.4062 122.596 43.7345Z" fill="black"/>
<path d="M153.732 24.4278C154.422 23.6238 155.07 22.7817 155.674 21.9053C156.266 21.0488 156.731 20.1025 157.05 19.0992C157.202 18.6187 157.321 18.0661 157.486 17.5376C157.647 17.0091 157.848 16.495 158.087 16C158.557 15.0126 159.158 14.1002 159.873 13.29C159.355 14.2289 158.895 15.2015 158.496 16.2018C158.143 17.2124 157.847 18.2441 157.61 19.2914C157.273 20.3596 156.74 21.3487 156.041 22.2032C155.366 23.0454 154.59 23.7932 153.732 24.4278Z" fill="black"/>
<path d="M138.116 31.5252C138.594 31.0011 139.042 30.4475 139.456 29.8675C139.867 29.3052 140.192 28.6795 140.42 28.0128L140.737 26.9749C140.852 26.6223 140.995 26.2801 141.163 25.9515C141.495 25.2973 141.914 24.6955 142.407 24.1641C142.049 24.7828 141.728 25.4248 141.448 26.086C141.195 26.7582 140.979 27.4448 140.801 28.1425C140.56 28.8527 140.187 29.5059 139.704 30.0645C139.238 30.6216 138.704 31.1126 138.116 31.5252Z" fill="black"/>
<path d="M131.42 38.9679C131.951 38.2093 132.421 37.4057 132.824 36.5655C133.212 35.7515 133.456 34.8709 133.545 33.966C133.591 33.5143 133.609 33.0338 133.664 32.5582C133.722 32.0783 133.817 31.6043 133.948 31.1407C134.201 30.2171 134.598 29.3436 135.123 28.5557C134.805 29.4301 134.555 30.3299 134.375 31.2464C134.226 32.1794 134.136 33.1216 134.105 34.0669C134 35.0482 133.687 35.9925 133.187 36.8297C132.713 37.6384 132.116 38.3607 131.42 38.9679Z" fill="black"/>
<path d="M151.718 40.1592C151.021 40.7835 150.23 41.2835 149.378 41.6391C148.504 42.0035 147.563 42.1578 146.624 42.0908C145.742 41.962 144.853 41.8962 143.962 41.8938C143.069 41.9233 142.179 42.0261 141.301 42.2013C142.131 41.7962 143.02 41.5364 143.93 41.4325C144.387 41.3785 144.848 41.3624 145.307 41.3845C145.766 41.3845 146.225 41.4709 146.652 41.4998C147.518 41.5637 148.389 41.4628 149.222 41.2019C150.08 40.9269 150.915 40.5781 151.718 40.1592Z" fill="black"/>
<path d="M108.764 30.3672C120.957 32.6015 130.516 44.1189 136.22 50.9947C145.486 62.1566 147.491 70.1519 147.771 72.5448C147.771 72.6601 148.427 78.205 148.427 78.205C148.427 78.205 143.448 74.361 138.887 71.3724C134.421 68.4366 132.847 67.9465 130.856 66.6395C123.605 61.8875 125.459 55.939 119.153 47.3142C110.572 35.5854 95.6299 30.8477 90.0312 29.9684C89.3704 29.8627 87.1631 29.5504 87.1768 29.3197C87.1768 28.9257 93.5602 28.9353 99.2277 29.3197C102.706 29.5552 106.653 29.9828 108.764 30.3672Z" fill="#135751" stroke="black" stroke-width="1.09" stroke-miterlimit="10"/>
<path d="M128.658 125.658C128.049 124.86 127.649 123.909 127.497 122.9C127.341 121.885 127.341 120.85 127.497 119.835C127.651 118.818 127.93 117.826 128.328 116.884C128.748 115.946 129.27 115.061 129.883 114.247C131.132 112.601 132.809 111.368 134.711 110.696C135.698 110.352 136.752 110.273 137.776 110.465C138.277 110.554 138.754 110.755 139.174 111.053C139.594 111.352 139.949 111.741 140.213 112.195L140.112 112.305C139.468 111.667 138.622 111.301 137.735 111.277C136.852 111.262 135.977 111.449 135.17 111.825C134.357 112.193 133.597 112.678 132.912 113.266C132.219 113.843 131.591 114.501 131.04 115.227C129.908 116.665 129.089 118.344 128.64 120.147C128.181 121.925 128.094 123.89 128.8 125.601L128.658 125.658Z" fill="black"/>
<path d="M130.406 119.148C131.192 119.299 131.931 119.648 132.558 120.166C133.186 120.684 133.684 121.354 134.008 122.119C134.332 122.883 134.473 123.719 134.419 124.554C134.365 125.388 134.117 126.196 133.697 126.908" fill="#FFD1C0"/>
<path d="M130.433 119.085C131.333 118.846 132.287 118.983 133.09 119.47C133.948 119.955 134.628 120.724 135.022 121.657C135.417 122.591 135.504 123.635 135.27 124.625C135.07 125.571 134.531 126.399 133.765 126.941L133.66 126.879C134.029 126.156 134.252 125.361 134.316 124.544C134.369 123.731 134.232 122.917 133.917 122.171C133.602 121.426 133.118 120.773 132.508 120.267C131.888 119.767 131.175 119.407 130.415 119.21L130.433 119.085Z" fill="black"/>
<path d="M84.0718 120.95C89.9167 118.215 92.2021 110.251 89.1763 103.162C86.1506 96.073 78.9595 92.5434 73.1145 95.2783C67.2695 98.0133 64.9841 105.977 68.0099 113.066C71.0357 120.155 78.2268 123.685 84.0718 120.95Z" fill="white"/>
<path d="M68.0225 113.089C68.7074 114.648 69.6226 116.085 70.7347 117.346C71.853 118.592 73.1777 119.616 74.6446 120.368C76.0979 121.112 77.6855 121.525 79.3025 121.579C80.8901 121.624 82.4645 121.266 83.8916 120.536C85.2675 119.783 86.4665 118.72 87.4022 117.423C88.3379 116.126 88.9868 114.627 89.3021 113.036C89.6517 111.462 89.7371 109.836 89.5545 108.231C89.2069 104.997 87.9079 101.956 85.8374 99.5291C84.8138 98.322 83.6 97.3078 82.2487 96.5308C80.8984 95.7471 79.4109 95.2568 77.8753 95.0893C76.3088 94.9189 74.7264 95.153 73.2663 95.7712C71.8063 96.3893 70.5132 97.3728 69.5002 98.6353C68.4588 99.93 67.6923 101.442 67.2516 103.07C66.8078 104.717 66.6523 106.435 66.7927 108.139C66.9492 109.847 67.3644 111.518 68.0225 113.089ZM68.0225 113.089C67.343 111.52 66.9077 109.847 66.733 108.135C66.5415 106.417 66.6362 104.677 67.0129 102.993C67.3838 101.285 68.085 99.6742 69.0734 98.2605C70.0888 96.8035 71.4293 95.6289 72.9779 94.8391C74.5266 94.0493 76.2363 93.6683 77.9579 93.7295C79.7101 93.7893 81.4303 94.2364 83.0059 95.0413C84.5708 95.8454 85.9828 96.9412 87.1728 98.275C89.5679 100.954 91.0254 104.405 91.3075 108.063C91.4588 109.88 91.294 111.712 90.8211 113.468C90.3491 115.23 89.5265 116.868 88.4072 118.273C87.3022 119.657 85.8905 120.736 84.2955 121.417C82.7005 122.098 80.9705 122.36 79.2566 122.179C77.5925 122.006 75.9795 121.48 74.5161 120.632C73.067 119.801 71.7659 118.713 70.6704 117.418C69.5742 116.131 68.6804 114.67 68.0225 113.089Z" fill="black"/>
<path d="M83.1471 120.76C87.5368 119.831 90.237 114.629 89.1782 109.141C88.1193 103.653 83.7024 99.9559 79.3126 100.884C74.9229 101.813 72.2226 107.015 73.2815 112.503C74.3403 117.991 78.7573 121.688 83.1471 120.76Z" fill="#00DBDE" stroke="black" stroke-width="1.31" stroke-miterlimit="10"/>
<path d="M85.0976 117.615C87.1201 117.615 88.7597 115.517 88.7597 112.93C88.7597 110.343 87.1201 108.245 85.0976 108.245C83.0751 108.245 81.4355 110.343 81.4355 112.93C81.4355 115.517 83.0751 117.615 85.0976 117.615Z" fill="black" stroke="black" stroke-width="1.76" stroke-miterlimit="10"/>
<path d="M52.7113 127.591C56.043 125.55 56.0805 119.13 52.7951 113.25C49.5097 107.37 44.1455 104.258 40.8138 106.299C37.4821 108.34 37.4446 114.761 40.73 120.641C44.0154 126.52 49.3796 129.632 52.7113 127.591Z" fill="white"/>
<path d="M40.7316 120.651C41.3748 121.77 42.1136 122.825 42.9389 123.803C43.7683 124.776 44.7137 125.634 45.752 126.355C46.7723 127.078 47.9158 127.591 49.1204 127.863C50.2873 128.122 51.5041 127.922 52.5393 127.301C53.4886 126.6 54.1596 125.559 54.4254 124.375C54.7 123.168 54.7576 121.919 54.5952 120.69C54.4544 119.441 54.1693 118.215 53.7462 117.038C53.3358 115.851 52.8228 114.706 52.2134 113.617C51.6039 112.528 50.902 111.499 50.1162 110.542C49.3419 109.581 48.4606 108.722 47.4913 107.981C46.5473 107.233 45.4803 106.672 44.3432 106.328C43.7857 106.131 43.1955 106.058 42.6095 106.111C42.0235 106.164 41.4543 106.343 40.9375 106.637C40.4207 106.931 39.9673 107.334 39.6058 107.82C39.2442 108.305 38.9823 108.864 38.8363 109.461C38.4736 110.693 38.3382 111.986 38.437 113.271C38.5308 114.572 38.7806 115.855 39.1804 117.091C39.5944 118.324 40.1135 119.516 40.7316 120.651ZM40.7316 120.651C40.0979 119.523 39.5648 118.336 39.1391 117.105C38.6989 115.876 38.403 114.594 38.258 113.29C38.0884 111.971 38.1537 110.63 38.4508 109.336C38.7653 107.981 39.5464 106.795 40.6444 106.006C41.8239 105.294 43.2135 105.064 44.5451 105.362C45.8347 105.654 47.0591 106.202 48.1521 106.976C50.2933 108.521 52.0776 110.546 53.3745 112.906C54.0123 114.083 54.5468 115.318 54.9715 116.596C55.3891 117.884 55.6496 119.223 55.747 120.579C55.8563 121.955 55.713 123.339 55.3248 124.659C54.9202 126.019 54.0489 127.174 52.8788 127.902C51.6845 128.518 50.3147 128.65 49.0332 128.272C47.8097 127.911 46.6611 127.315 45.6464 126.513C44.628 125.744 43.7033 124.846 42.893 123.842C42.0814 122.849 41.3579 121.781 40.7316 120.651Z" fill="black"/>
<path d="M53.1819 126.047C55.4854 124.636 55.7851 120.686 53.8512 117.225C51.9173 113.764 48.4823 112.103 46.1787 113.514C43.8752 114.925 43.5755 118.874 45.5094 122.335C47.4433 125.796 50.8784 127.458 53.1819 126.047Z" fill="#00DBDE" stroke="black" stroke-width="1.07" stroke-miterlimit="10"/>
<path d="M54.1287 123.734C55.2663 123.364 55.7407 121.554 55.1883 119.692C54.6359 117.829 53.2658 116.619 52.1282 116.989C50.9906 117.358 50.5162 119.168 51.0686 121.031C51.621 122.894 52.991 124.104 54.1287 123.734Z" fill="black" stroke="black" stroke-width="1.18" stroke-miterlimit="10"/>
<path d="M61.7625 159.11C67.8751 163.732 70.2156 166.399 74.4467 166.202C81.9453 165.847 87.1998 156.876 89.0767 153.671C93.6061 145.935 94.2761 137.988 94.2807 133.49C89.3612 139.919 82.3262 146.747 72.7763 149.423C55.0854 154.382 38.1471 142.466 37.5918 143.975C37.1742 145.113 47.9494 148.669 61.7625 159.11Z" fill="#FF0033" stroke="black" stroke-linecap="round" stroke-linejoin="round"/>
<path d="M70.854 161.998C71.4918 164.4 74.8878 165.894 77.7376 165.64C82.9462 165.159 86.1999 158.673 89.2745 152.532C91.95 147.189 93.5515 141.759 93.0789 141.481C92.8265 141.341 92.2024 142.831 90.4952 144.522C88.1686 146.833 86.723 146.636 84.6487 148.126C80.5186 151.076 79.4998 156.669 79.1418 156.491C78.7839 156.313 80.6104 152.599 79.8394 151.917C78.5361 150.826 69.6562 157.495 70.854 161.998Z" fill="#FF6699" stroke="black" stroke-linecap="round" stroke-linejoin="round"/>
<path d="M99.9118 138.675C99.2135 137.721 98.4464 136.824 97.6173 135.993C96.8713 135.254 96.053 134.598 95.1759 134.038C94.7604 133.771 94.3226 133.544 93.868 133.36C93.4251 133.168 92.9634 133.028 92.4912 132.942C91.4244 132.779 90.3354 132.913 89.3339 133.332H89.3018C89.2934 133.335 89.2844 133.337 89.2753 133.337C89.2661 133.337 89.2571 133.335 89.2489 133.331C89.2406 133.326 89.2333 133.321 89.2274 133.313C89.2215 133.306 89.2171 133.297 89.2146 133.288C89.209 133.277 89.2061 133.265 89.2061 133.252C89.2061 133.24 89.209 133.227 89.2146 133.216C89.6382 132.767 90.1398 132.407 90.6923 132.154C91.2483 131.91 91.8425 131.774 92.4453 131.755C93.048 131.735 93.6497 131.819 94.2259 132.005C94.8017 132.181 95.3537 132.433 95.8688 132.755C96.8907 133.407 97.7809 134.263 98.4892 135.273C99.2127 136.27 99.7272 137.416 99.999 138.636C100.003 138.655 100 138.674 99.9907 138.69C99.9813 138.706 99.9661 138.718 99.9485 138.723C99.9356 138.725 99.9225 138.723 99.9104 138.718C99.8983 138.713 99.8877 138.705 99.8797 138.694L99.9118 138.675Z" fill="black"/>
<path d="M56.1459 139.939C59.8492 139.972 62.9836 137.887 64.0024 134.874C65.2093 131.309 62.9056 128.061 62.7954 127.912C61.3958 125.99 59.6198 125.562 51.3227 124.111C41.5939 122.42 40.1208 122.348 39.2305 123.482C37.2801 125.956 40.2906 131.448 40.4374 131.708C44.6181 139.203 54.4708 139.852 56.1459 139.939Z" fill="#FF878A" stroke="black" stroke-width="1.09" stroke-miterlimit="10"/>
</g>
</g>
<defs>
<filter id="filter0_d" x="0" y="0" width="183" height="183" filterUnits="userSpaceOnUse" color-interpolation-filters="sRGB">
<feFlood flood-opacity="0" result="BackgroundImageFix"/>
<feColorMatrix in="SourceAlpha" type="matrix" values="0 0 0 0 0 0 0 0 0 0 0 0 0 0 0 0 0 0 127 0" result="hardAlpha"/>
<feOffset dy="4"/>
<feGaussianBlur stdDeviation="2"/>
<feComposite in2="hardAlpha" operator="out"/>
<feColorMatrix type="matrix" values="0 0 0 0 0 0 0 0 0 0 0 0 0 0 0 0 0 0 0.25 0"/>
<feBlend mode="normal" in2="BackgroundImageFix" result="effect1_dropShadow"/>
<feBlend mode="normal" in="SourceGraphic" in2="effect1_dropShadow" result="shape"/>
</filter>
<clipPath id="clip0">
<rect width="175" height="175" fill="white" transform="translate(4)"/>
</clipPath>
</defs>
</svg>
