<svg width="180" height="240" viewBox="0 0 180 240" fill="none" xmlns="http://www.w3.org/2000/svg">
<g clip-path="url(#clip0_541:488)">
<path d="M172.521 86.874H6.53763C5.67907 86.8762 4.82935 87.0475 4.03699 87.3781C3.24463 87.7087 2.52515 88.1921 1.91962 88.8008C1.31408 89.4094 0.834363 90.1314 0.507847 90.9254C0.181331 91.7195 0.0144133 92.5701 0.0166232 93.4286V217.798C0.0166232 223.7 2.36104 229.36 6.53411 233.533C10.7072 237.706 16.3671 240.05 22.2687 240.05H156.807C159.729 240.052 162.623 239.477 165.323 238.359C168.024 237.241 170.477 235.602 172.544 233.535C174.61 231.469 176.249 229.015 177.367 226.315C178.485 223.615 179.06 220.721 179.059 217.798V93.4286C179.061 92.5687 178.893 91.7167 178.566 90.9216C178.238 90.1264 177.757 89.4037 177.15 88.7948C176.542 88.186 175.821 87.7029 175.027 87.3733C174.232 87.0437 173.381 86.874 172.521 86.874ZM108.84 156.387C106.319 160.286 102.958 159.966 101.428 164.017C100.689 165.95 101.521 168.731 102.512 174.269C103.663 180.829 104.392 187.456 104.697 194.109C104.792 194.927 104.636 195.755 104.248 196.481C103.861 197.208 103.261 197.799 102.529 198.176C100.799 199.135 98.8169 199.543 96.8485 199.345C96.6048 199.345 92.1763 199.244 83.3275 199.126C78.2855 199.05 76.7057 199.126 75.2603 197.815C74.7813 197.378 73.8401 196.336 73.3023 193.454C72.5628 189.529 74.4032 183.303 74.6049 181.689C75.4452 175.261 75.3023 175.252 76.1343 169.084C76.4788 166.487 76.6133 166.134 76.7897 164.723C77.3191 160.521 72.8233 159.244 70.462 155.571C67.3612 150.731 67.8149 144.059 69.8149 139.437C72.7057 132.714 78.9494 130.109 81.1511 129.185C83.3528 128.261 89.4536 125.824 96.6301 128.345C101.49 130.106 105.527 133.602 107.966 138.16C110.58 142.908 112.428 150.882 108.84 156.387Z" fill="white"/>
<path d="M149.033 62.0336V86.874H128.865V69.0084C128.944 63.4612 127.919 57.9537 125.851 52.8059C123.782 47.6582 120.711 42.9729 116.816 39.0223C112.921 35.0718 108.28 31.9347 103.162 29.7936C98.0442 27.6524 92.5518 26.5497 87.004 26.5497C81.4562 26.5497 75.9638 27.6524 70.8459 29.7936C65.728 31.9347 61.0866 35.0718 57.1917 39.0223C53.2967 42.9729 50.2257 47.6582 48.1572 52.8059C46.0888 57.9537 45.0641 63.4612 45.1427 69.0084V86.874H24.9746V62.0336C24.9746 53.8873 26.5792 45.8206 29.6966 38.2944C32.8141 30.7681 37.3835 23.9296 43.1438 18.1692C48.9042 12.4089 55.7427 7.83951 63.269 4.72203C70.7952 1.60455 78.8619 0 87.0082 0C95.1546 0 103.221 1.60455 110.747 4.72203C118.274 7.83951 125.112 12.4089 130.873 18.1692C136.633 23.9296 141.202 30.7681 144.32 38.2944C147.437 45.8206 149.042 53.8873 149.042 62.0336H149.033Z" fill="white"/>
</g>
<defs>
<clipPath id="clip0_541:488">
<rect width="179.059" height="240" fill="white"/>
</clipPath>
</defs>
</svg>
