<svg width="57" height="54" viewBox="0 0 57 54" fill="none" xmlns="http://www.w3.org/2000/svg">
<g filter="url(#filter0_d_479:1204)">
<path d="M45.3072 2.73587V24.7875L24.7976 9.77048L41.5961 1.30508C41.9519 1.12601 42.3679 1.02155 42.7989 1.00299C43.23 0.984433 43.6597 1.05248 44.0418 1.19979C44.4239 1.34709 44.7437 1.56805 44.9667 1.83878C45.1897 2.10951 45.3074 2.41971 45.3072 2.73587Z" fill="#89D0C2"/>
</g>
<g filter="url(#filter1_d_479:1204)">
<path d="M45.3072 30.984V44.2664C45.3069 44.5895 45.1834 44.9061 44.9506 45.1806C44.7178 45.4551 44.3849 45.6765 43.9895 45.8199C43.594 45.9633 43.1518 46.023 42.7125 45.9922C42.2732 45.9614 41.8544 45.8415 41.5032 45.6458L19.5513 33.4057H9.65193C8.90921 33.4053 8.17385 33.2978 7.48786 33.0894C6.80187 32.8809 6.17867 32.5756 5.65384 32.1908C5.12901 31.806 4.71283 31.3493 4.42907 30.8467C4.1453 30.3442 3.9995 29.8056 4 29.2618V16.4749C4.0005 15.3771 4.59633 14.3243 5.65652 13.5481C6.71671 12.7718 8.15449 12.3355 9.65382 12.3352H19.6992L19.7807 12.2949L45.3072 30.984Z" fill="#89D0C2"/>
</g>
<path d="M6.80127 2.6416L54.9999 37.9312" stroke="#89D0C2" stroke-width="4" stroke-miterlimit="10" stroke-linecap="round"/>
<defs>
<filter id="filter0_d_479:1204" x="20.7976" y="1" width="28.5095" height="31.7876" filterUnits="userSpaceOnUse" color-interpolation-filters="sRGB">
<feFlood flood-opacity="0" result="BackgroundImageFix"/>
<feColorMatrix in="SourceAlpha" type="matrix" values="0 0 0 0 0 0 0 0 0 0 0 0 0 0 0 0 0 0 127 0" result="hardAlpha"/>
<feOffset dy="4"/>
<feGaussianBlur stdDeviation="2"/>
<feComposite in2="hardAlpha" operator="out"/>
<feColorMatrix type="matrix" values="0 0 0 0 0 0 0 0 0 0 0 0 0 0 0 0 0 0 0.25 0"/>
<feBlend mode="normal" in2="BackgroundImageFix" result="effect1_dropShadow_479:1204"/>
<feBlend mode="normal" in="SourceGraphic" in2="effect1_dropShadow_479:1204" result="shape"/>
</filter>
<filter id="filter1_d_479:1204" x="0" y="12.2949" width="49.3071" height="41.7051" filterUnits="userSpaceOnUse" color-interpolation-filters="sRGB">
<feFlood flood-opacity="0" result="BackgroundImageFix"/>
<feColorMatrix in="SourceAlpha" type="matrix" values="0 0 0 0 0 0 0 0 0 0 0 0 0 0 0 0 0 0 127 0" result="hardAlpha"/>
<feOffset dy="4"/>
<feGaussianBlur stdDeviation="2"/>
<feComposite in2="hardAlpha" operator="out"/>
<feColorMatrix type="matrix" values="0 0 0 0 0 0 0 0 0 0 0 0 0 0 0 0 0 0 0.25 0"/>
<feBlend mode="normal" in2="BackgroundImageFix" result="effect1_dropShadow_479:1204"/>
<feBlend mode="normal" in="SourceGraphic" in2="effect1_dropShadow_479:1204" result="shape"/>
</filter>
</defs>
</svg>
