<svg width="135" height="100" viewBox="0 0 135 100" fill="none" xmlns="http://www.w3.org/2000/svg">
<g clip-path="url(#clip0_508:1640)">
<path d="M67.0738 9.99993C71.766 9.99993 76.0108 12.3056 77.1255 15.7214L99.0842 49.0056H99.1537L99.117 49.0999L99.1537 49.1942H99.0842L77.1255 84.2771C76.0108 87.6928 71.7641 89.9999 67.0699 89.9999C66.2908 89.9999 65.5001 89.9356 64.7074 89.8028C59.1493 88.8685 55.6991 84.8871 56.997 80.9028L77.7832 49.0999L56.9989 19.0942C55.701 15.1128 59.1512 11.1285 64.7094 10.1956C65.5001 10.0628 66.2947 9.99993 67.0738 9.99993ZM67.0738 4.28564C65.7084 4.28564 64.3372 4.3985 63.0045 4.62279C58.2294 5.42422 54.2006 7.53993 51.6491 10.5814C50.4204 12.034 49.5971 13.6543 49.2278 15.3466C48.8585 17.0388 48.9506 18.7688 49.4987 20.4342C49.6434 20.8742 49.8574 21.2985 50.1352 21.7028L69.1644 49.1728L50.0542 78.4114C49.8147 78.7791 49.6285 79.1646 49.4987 79.5614C48.9511 81.2265 48.8591 82.9561 49.2281 84.648C49.597 86.3399 50.4196 87.96 51.6472 89.4128C54.1948 92.4542 58.2255 94.5714 63.0064 95.3756C64.3391 95.5999 65.7064 95.7142 67.0699 95.7142C75.168 95.7142 82.1745 91.8499 84.3982 86.2414L105.682 52.2371C106.52 51.2505 106.93 50.0973 106.856 48.9328C106.828 47.9103 106.433 46.9118 105.711 46.0399L84.375 13.6928C82.1205 8.11993 75.141 4.28564 67.0738 4.28564Z" fill="#FFFFCC"/>
<path d="M86.1936 44.0185L76.5507 29.7328C76.4374 29.565 76.3698 29.3823 76.3517 29.1951C76.3337 29.008 76.3657 28.82 76.4457 28.642C76.5258 28.464 76.6524 28.2994 76.8183 28.1576C76.9842 28.0158 77.1862 27.8996 77.4128 27.8157C77.6393 27.7317 77.886 27.6817 78.1386 27.6683C78.3913 27.655 78.6451 27.6786 78.8854 27.7379C79.1257 27.7972 79.3479 27.891 79.5393 28.0139C79.7307 28.1368 79.8876 28.2864 80.0009 28.4543L89.6438 42.74C89.8727 43.0789 89.9104 43.4713 89.7488 43.8308C89.5871 44.1903 89.2392 44.4876 88.7817 44.6571C88.3242 44.8267 87.7945 44.8546 87.3091 44.7349C86.8237 44.6151 86.4224 44.3574 86.1936 44.0185ZM72.6936 24.0185L70.765 21.1614C70.5361 20.8225 70.4983 20.4301 70.66 20.0706C70.8217 19.711 71.1695 19.4138 71.627 19.2443C72.0846 19.0747 72.6143 19.0467 73.0997 19.1665C73.585 19.2862 73.9863 19.5439 74.2152 19.8828L76.1438 22.74C76.3727 23.0789 76.4104 23.4713 76.2487 23.8308C76.0871 24.1903 75.7392 24.4876 75.2817 24.6571C74.8242 24.8267 74.2945 24.8546 73.8091 24.7349C73.3237 24.6151 72.9224 24.3574 72.6936 24.0185ZM43.5625 44.75C44.5756 44.7499 45.5789 44.8976 46.5149 45.1847C47.451 45.4718 48.3015 45.8927 49.018 46.4234C49.7344 46.954 50.3027 47.584 50.6905 48.2773C51.0782 48.9707 51.2778 49.7138 51.2778 50.4643C51.2778 51.2147 51.0782 51.9578 50.6905 52.6512C50.3027 53.3445 49.7344 53.9745 49.018 54.5051C48.3015 55.0358 47.451 55.4567 46.5149 55.7438C45.5789 56.0309 44.5756 56.1786 43.5625 56.1785C41.5167 56.1783 39.5548 55.5762 38.1083 54.5046C36.6618 53.433 35.8492 51.9796 35.8492 50.4643C35.8492 48.9489 36.6618 47.4955 38.1083 46.4239C39.5548 45.3523 41.5167 44.7502 43.5625 44.75ZM43.5625 39.0357C35.0556 39.0357 28.1339 44.1628 28.1339 50.4643C28.1339 56.7657 35.0556 61.8928 43.5625 61.8928C52.0694 61.8928 58.9911 56.7657 58.9911 50.4643C58.9911 44.1628 52.0694 39.0357 43.5625 39.0357Z" fill="#FFFFCC"/>
<g clip-path="url(#clip1_508:1640)">
<path d="M67.0738 9.99993C71.766 9.99993 76.0108 12.3056 77.1255 15.7214L99.0842 49.0056H99.1537L99.117 49.0999L99.1537 49.1942H99.0842L77.1255 84.2771C76.0108 87.6928 71.7641 89.9999 67.0699 89.9999C66.2908 89.9999 65.5001 89.9356 64.7074 89.8028C59.1493 88.8685 55.6991 84.8871 56.997 80.9028L77.7832 49.0999L56.9989 19.0942C55.701 15.1128 59.1512 11.1285 64.7094 10.1956C65.5001 10.0628 66.2947 9.99993 67.0738 9.99993ZM67.0738 4.28564C65.7084 4.28564 64.3372 4.3985 63.0045 4.62279C58.2294 5.42422 54.2006 7.53993 51.6491 10.5814C50.4204 12.034 49.5971 13.6543 49.2278 15.3466C48.8585 17.0388 48.9506 18.7688 49.4987 20.4342C49.6434 20.8742 49.8574 21.2985 50.1352 21.7028L69.1644 49.1728L50.0542 78.4114C49.8147 78.7791 49.6285 79.1646 49.4987 79.5614C48.9511 81.2265 48.8591 82.9561 49.2281 84.648C49.597 86.3399 50.4196 87.96 51.6472 89.4128C54.1948 92.4542 58.2255 94.5714 63.0064 95.3756C64.3391 95.5999 65.7064 95.7142 67.0699 95.7142C75.168 95.7142 82.1745 91.8499 84.3982 86.2414L105.682 52.2371C106.52 51.2505 106.93 50.0973 106.856 48.9328C106.828 47.9103 106.433 46.9118 105.711 46.0399L84.375 13.6928C82.1205 8.11993 75.141 4.28564 67.0738 4.28564Z" fill="#FFFFCC"/>
<path d="M86.1936 44.0185L76.5507 29.7328C76.4374 29.565 76.3698 29.3823 76.3517 29.1951C76.3337 29.008 76.3657 28.82 76.4457 28.642C76.5258 28.464 76.6524 28.2994 76.8183 28.1576C76.9842 28.0158 77.1862 27.8996 77.4128 27.8157C77.6393 27.7317 77.886 27.6817 78.1386 27.6683C78.3913 27.655 78.6451 27.6786 78.8854 27.7379C79.1257 27.7972 79.3479 27.891 79.5393 28.0139C79.7307 28.1368 79.8876 28.2864 80.0009 28.4543L89.6438 42.74C89.8727 43.0789 89.9104 43.4713 89.7488 43.8308C89.5871 44.1903 89.2392 44.4876 88.7817 44.6571C88.3242 44.8267 87.7945 44.8546 87.3091 44.7349C86.8237 44.6151 86.4224 44.3574 86.1936 44.0185ZM72.6936 24.0185L70.765 21.1614C70.5361 20.8225 70.4983 20.4301 70.66 20.0706C70.8217 19.711 71.1695 19.4138 71.627 19.2443C72.0846 19.0747 72.6143 19.0467 73.0997 19.1665C73.585 19.2862 73.9863 19.5439 74.2152 19.8828L76.1438 22.74C76.3727 23.0789 76.4104 23.4713 76.2487 23.8308C76.0871 24.1903 75.7392 24.4876 75.2817 24.6571C74.8242 24.8267 74.2945 24.8546 73.8091 24.7349C73.3237 24.6151 72.9224 24.3574 72.6936 24.0185ZM43.5625 44.75C44.5756 44.7499 45.5789 44.8976 46.5149 45.1847C47.451 45.4718 48.3015 45.8927 49.018 46.4234C49.7344 46.954 50.3027 47.584 50.6905 48.2773C51.0782 48.9707 51.2778 49.7138 51.2778 50.4643C51.2778 51.2147 51.0782 51.9578 50.6905 52.6512C50.3027 53.3445 49.7344 53.9745 49.018 54.5051C48.3015 55.0358 47.451 55.4567 46.5149 55.7438C45.5789 56.0309 44.5756 56.1786 43.5625 56.1785C41.5167 56.1783 39.5548 55.5762 38.1083 54.5046C36.6618 53.433 35.8492 51.9796 35.8492 50.4643C35.8492 48.9489 36.6618 47.4955 38.1083 46.4239C39.5548 45.3523 41.5167 44.7502 43.5625 44.75ZM43.5625 39.0357C35.0556 39.0357 28.1339 44.1628 28.1339 50.4643C28.1339 56.7657 35.0556 61.8928 43.5625 61.8928C52.0694 61.8928 58.9911 56.7657 58.9911 50.4643C58.9911 44.1628 52.0694 39.0357 43.5625 39.0357Z" fill="#FFFFCC"/>
</g>
</g>
<defs>
<clipPath id="clip0_508:1640">
<rect width="135" height="100" fill="white"/>
</clipPath>
<clipPath id="clip1_508:1640">
<rect width="135" height="100" fill="white"/>
</clipPath>
</defs>
</svg>
