<svg width="1327" height="525" viewBox="0 0 1327 525" fill="none" xmlns="http://www.w3.org/2000/svg">
<g clip-path="url(#clip0_447:450)">
<path d="M170.066 69.0198C196.216 54.0733 223.403 40.7415 251.447 29.1112C277.083 18.677 268.603 24.5696 307.327 10.1844C323.551 4.17819 335.341 -0.647176 351.627 0.91965C363.526 2.05503 374.775 6.32406 374.64 6.84634C374.554 7.16425 370.253 6.09699 363.611 6.31271C359.028 6.46031 351.884 7.26642 351.81 8.43586C351.663 10.7066 378.647 7.11882 395.215 20.7661C411.465 34.1409 411.709 59.176 410.214 59.6529C409.663 59.8232 408.756 56.7236 404.749 53.079C400.19 48.9349 394.566 46.7663 394.039 47.4021C393.157 48.5375 407.69 55.3498 413.818 70.2914C416.366 76.4792 417.714 84.6767 414.528 86.5501C412.445 87.7763 410.435 85.1422 404.578 84.5745C397.397 83.8592 395.619 87.3448 387.544 87.6514C379.468 87.9579 373.635 84.6199 373.415 85.1649C373.194 85.7099 377.826 88.4688 383.867 89.5702C389.088 90.5239 391.673 89.5134 392.237 90.5807C393.34 92.6584 384.787 98.9371 377.25 103.376C375.338 104.512 363.77 111.222 352.312 114.185C323.784 121.554 287.365 107.736 257.354 96.0191C235.774 87.6173 233.396 84.7334 215.799 79.5788C196.02 73.8565 170.066 69.0198 170.066 69.0198Z" fill="black" stroke="black" stroke-width="1.09" stroke-linecap="round" stroke-linejoin="round"/>
<path d="M136.477 259.537C142.139 267.86 146.488 276.891 149.393 286.354C157.199 311.968 149.393 325.502 157.064 334.313C163.326 341.477 180.163 345.905 228.85 330.316" fill="#FFD1C0"/>
<path d="M136.477 259.537C142.139 267.86 146.488 276.891 149.393 286.354C157.199 311.968 149.393 325.502 157.064 334.313C163.326 341.477 180.163 345.905 228.85 330.316" stroke="black" stroke-width="1.94" stroke-miterlimit="10"/>
<path d="M168.951 63.3429C168.951 63.3429 162.481 84.2566 159.038 100.163C153.106 127.56 158.927 127.322 152.8 154.491C148.327 174.372 146.085 184.306 140.276 191.8C137.388 195.119 135.416 199.039 134.529 203.222C133.107 210.613 136.428 214.383 134.529 216.188C130.399 220.139 114.272 202.563 96.7976 204.834C86.0137 206.208 76.872 214.859 73.5143 223.318C63.2206 249.261 101.896 287.274 121.503 283.414C126.992 282.278 129.357 278.293 136.685 278.077C146.991 277.771 155.067 285.389 159.478 289.533C184.624 313.024 200.163 327.546 217.148 337.503C235.088 348.017 250.357 350.923 254.082 351.593C267.973 354.018 282.266 353.631 295.98 350.458C319.423 345.008 332.424 333.246 353.575 314.126C358.33 309.823 364.188 303.907 367.178 294.824C368.31 291.35 368.92 287.747 368.992 284.118C369.139 265.793 352.044 258.742 345.635 237.726C343.833 231.799 343.821 226.531 343.784 216.006C343.698 186.816 352.582 181.865 354.715 151.744C355.94 134.509 354.715 112.823 354.715 112.823C354.715 112.823 307.217 108.611 261.68 90.7283C233.556 79.6697 226.559 71.4268 202.479 67.6914C194.256 66.3971 168.951 63.3429 168.951 63.3429Z" fill="#FFD1C0" stroke="black" stroke-width="1.11" stroke-miterlimit="10"/>
<path d="M322.963 286.809C322.963 286.899 322.963 286.99 322.963 287.07C322.535 289.817 323.343 291.089 323.074 292.622C322.302 297.288 312.56 299.854 307.057 300.569C297.156 301.83 289.019 298.56 288.492 296.368C288.431 296.141 287.977 293.939 287.977 293.939C287.977 293.939 295.207 288.988 303.994 283.573L305.084 282.903H305.146C309.303 283.089 313.419 283.752 317.4 284.878C319.291 285.427 321.149 286.071 322.963 286.809Z" fill="#FF6699" stroke="black" stroke-width="1.09" stroke-linecap="round" stroke-linejoin="round"/>
<path d="M331.211 279.803C329.042 281.018 326.836 280.303 324.912 282.199C323.873 283.375 323.229 284.808 323.062 286.32C323.062 286.491 323.001 286.661 322.964 286.809C321.118 286.053 319.228 285.393 317.302 284.833C313.322 283.707 309.205 283.043 305.048 282.857C317.155 275.466 331.713 267.564 334.617 270.368C336.358 271.992 334.679 277.862 331.211 279.803Z" fill="#FF0033" stroke="black" stroke-width="1.09" stroke-linecap="round" stroke-linejoin="round"/>
<path d="M283.848 287.013C284.765 287.113 285.646 287.404 286.425 287.864C287.204 288.324 287.86 288.941 288.345 289.67C289.429 291.209 289.832 293.074 289.473 294.881C289.299 295.793 288.933 296.663 288.394 297.443C287.856 298.222 287.156 298.895 286.336 299.423C285.584 299.907 284.73 300.238 283.83 300.392C282.929 300.547 282.004 300.522 281.115 300.32C281.082 300.312 281.052 300.292 281.034 300.264C281.016 300.237 281.01 300.204 281.017 300.172C281.025 300.154 281.036 300.137 281.051 300.124C281.066 300.11 281.083 300.099 281.103 300.093C282.524 299.679 283.824 298.968 284.902 298.015C285.948 297.05 286.646 295.808 286.899 294.461C287.165 293.11 286.999 291.717 286.421 290.453C285.833 289.19 284.915 288.082 283.75 287.229C283.737 287.218 283.727 287.205 283.719 287.19C283.712 287.176 283.708 287.16 283.708 287.143C283.708 287.127 283.712 287.111 283.719 287.097C283.727 287.082 283.737 287.069 283.75 287.058C283.767 287.049 283.786 287.045 283.805 287.045C283.824 287.045 283.843 287.049 283.86 287.058L283.848 287.013Z" fill="black"/>
<path d="M246.766 112.664C244.785 110.743 242.596 109.015 240.234 107.509C239.264 106.885 238.187 106.416 237.048 106.124C236.577 106.016 236.097 105.94 235.614 105.897C235.154 105.852 234.69 105.852 234.229 105.897C230.553 106.397 226.399 109.235 222.71 112.562C218.891 116.163 215.337 119.998 212.073 124.04C208.654 128.207 205.346 132.601 201.424 137.052L201.363 137.12C201.311 137.167 201.24 137.193 201.167 137.193C201.094 137.193 201.023 137.167 200.971 137.12C200.926 137.087 200.894 137.042 200.878 136.991C200.863 136.94 200.865 136.886 200.885 136.836C201.866 134.255 202.948 131.716 204.133 129.218C205.317 126.72 206.653 124.283 208.14 121.906C211.008 117.094 214.565 112.664 218.715 108.735C220.841 106.788 223.235 105.108 225.835 103.74C228.46 102.297 231.473 101.573 234.524 101.651C236.058 101.727 237.555 102.114 238.91 102.786C240.228 103.479 241.427 104.351 242.465 105.375C244.444 107.441 246.067 109.777 247.28 112.301C247.31 112.362 247.313 112.433 247.287 112.496C247.262 112.56 247.211 112.612 247.146 112.641C247.1 112.669 247.047 112.683 246.992 112.683C246.938 112.683 246.885 112.669 246.839 112.641L246.766 112.664Z" fill="black"/>
<path d="M306.101 104.943C306.019 102.686 306.371 100.433 307.143 98.2899C307.585 97.1298 308.187 96.027 308.932 95.0087C309.852 93.7728 311.125 92.798 312.608 92.1929C314.205 91.512 315.989 91.302 317.718 91.5912C319.247 91.8238 320.717 92.3124 322.056 93.0331C323.249 93.6814 324.366 94.4424 325.39 95.3039C326.337 96.1145 327.233 96.9751 328.073 97.8812C331.118 101.388 333.432 105.388 334.899 109.678C336.438 113.814 337.189 118.167 337.117 122.542V122.61C337.114 122.662 337.089 122.711 337.048 122.747C337.007 122.783 336.953 122.803 336.897 122.803C336.855 122.796 336.815 122.78 336.781 122.757C336.747 122.733 336.719 122.702 336.701 122.667C335.316 118.701 333.679 114.815 331.799 111.029C329.937 107.252 327.574 103.705 324.764 100.47C323.372 98.8587 321.718 97.4569 319.863 96.3144C318.997 95.7144 317.995 95.3063 316.933 95.1213C315.871 94.9363 314.777 94.9793 313.736 95.2471C311.752 96.1158 310.148 97.5858 309.189 99.414C308.092 101.217 307.197 103.119 306.518 105.091C306.509 105.115 306.494 105.137 306.475 105.155C306.456 105.174 306.434 105.189 306.409 105.2C306.384 105.21 306.357 105.216 306.329 105.217C306.302 105.218 306.274 105.213 306.248 105.204C306.207 105.195 306.171 105.173 306.144 105.142C306.118 105.111 306.102 105.073 306.101 105.034V104.943Z" fill="black"/>
<path d="M245.853 237.748C260.506 235.099 268.465 214.332 263.628 191.363C258.791 168.395 242.991 151.922 228.337 154.571C213.684 157.22 205.726 177.987 210.563 200.956C215.4 223.924 231.199 240.397 245.853 237.748Z" fill="white"/>
<path d="M263.653 191.573C264.619 195.976 265.124 200.455 265.16 204.948C265.251 209.457 264.774 213.961 263.738 218.368C262.755 222.845 260.877 227.111 258.199 230.948C256.8 232.892 255.075 234.617 253.089 236.057C251.03 237.527 248.657 238.576 246.129 239.134C243.556 239.645 240.895 239.645 238.322 239.134C235.773 238.629 233.328 237.747 231.08 236.523C226.714 234.048 222.906 230.813 219.868 226.997C214.006 219.409 209.972 210.743 208.042 201.585C206.112 192.427 206.329 182.991 208.679 173.918C209.944 169.319 212.162 164.992 215.211 161.179C216.796 159.26 218.703 157.588 220.86 156.228C223.053 154.874 225.529 153.961 228.127 153.549C230.696 153.19 233.319 153.337 235.823 153.98C238.248 154.632 240.546 155.632 242.636 156.944C246.676 159.567 250.151 162.867 252.881 166.674C255.631 170.395 257.897 174.405 259.633 178.618C261.425 182.805 262.772 187.144 263.653 191.573ZM263.653 191.573C261.886 182.735 258 174.377 252.28 167.117C249.44 163.554 245.883 160.535 241.803 158.227C239.791 157.147 237.601 156.38 235.32 155.956C233.103 155.537 230.814 155.557 228.605 156.013C226.448 156.513 224.427 157.425 222.674 158.692C220.921 159.983 219.393 161.515 218.14 163.234C215.664 166.824 213.927 170.808 213.017 174.985C212.034 179.203 211.581 183.512 211.669 187.826C211.818 196.511 213.627 205.102 217.012 213.202C218.665 217.236 220.828 221.074 223.458 224.635C225.998 228.183 229.226 231.263 232.98 233.718C234.835 234.892 236.877 235.789 239.033 236.375C241.174 236.947 243.423 237.087 245.627 236.784C247.86 236.447 249.99 235.673 251.876 234.513C253.81 233.31 255.52 231.821 256.937 230.108C259.792 226.546 261.873 222.505 263.064 218.209C265.41 209.483 265.611 200.38 263.653 191.573Z" fill="black"/>
<path d="M336.899 183.396C339.377 161.141 333.172 142.314 323.04 141.346C312.908 140.377 302.686 157.634 300.208 179.889C297.73 202.144 303.935 220.97 314.067 221.939C324.199 222.907 334.421 205.651 336.899 183.396Z" fill="white"/>
<path d="M300.011 179.867C299.081 187.679 299.432 195.576 301.053 203.29C301.862 207.11 303.265 210.8 305.22 214.246C306.173 215.917 307.415 217.432 308.896 218.731C310.263 219.996 312.05 220.796 313.969 221.002C315.856 221.057 317.708 220.521 319.226 219.48C320.834 218.411 322.249 217.112 323.417 215.632C325.799 212.549 327.716 209.18 329.116 205.617C330.591 202.035 331.766 198.353 332.633 194.604C333.541 190.861 334.2 187.069 334.605 183.25C335.048 179.427 335.24 175.583 335.181 171.738C335.152 167.904 334.808 164.078 334.152 160.293C333.57 156.54 332.432 152.88 330.77 149.416C329.962 147.748 328.865 146.214 327.522 144.875C326.269 143.576 324.582 142.704 322.731 142.399C320.817 142.221 318.894 142.649 317.278 143.614C315.541 144.607 313.993 145.857 312.695 147.316C310.012 150.308 307.823 153.652 306.2 157.239C302.923 164.451 300.837 172.079 300.011 179.867ZM300.011 179.867C300.418 175.956 301.089 172.073 302.021 168.241C302.924 164.373 304.153 160.577 305.697 156.887C307.166 153.146 309.187 149.612 311.702 146.385C313.012 144.736 314.601 143.294 316.408 142.116C318.317 140.841 320.637 140.204 322.988 140.31C325.373 140.543 327.603 141.511 329.324 143.058C330.97 144.51 332.348 146.201 333.405 148.065C335.462 151.671 336.933 155.539 337.767 159.544C340.983 175.44 339.152 191.858 332.497 206.81C330.792 210.569 328.501 214.077 325.697 217.221C324.246 218.839 322.525 220.23 320.599 221.342C318.58 222.531 316.19 223.059 313.81 222.841C311.481 222.498 309.347 221.434 307.756 219.821C306.241 218.33 305 216.619 304.08 214.757C302.325 211.144 301.121 207.323 300.502 203.403C299.823 199.517 299.466 195.589 299.435 191.652C299.363 187.717 299.555 183.781 300.011 179.867Z" fill="black"/>
<path d="M245.133 236.633C254.977 234.854 261.125 224.71 258.865 213.977C256.605 203.243 246.792 195.985 236.948 197.764C227.103 199.544 220.955 209.687 223.216 220.421C225.476 231.154 235.288 238.413 245.133 236.633Z" fill="#00DBDE" stroke="black" stroke-width="1.09" stroke-miterlimit="10"/>
<path d="M329.448 205.721C330.521 196.084 325.513 187.71 318.263 187.017C311.012 186.324 304.264 193.574 303.191 203.211C302.118 212.848 307.126 221.222 314.377 221.915C321.627 222.608 328.375 215.358 329.448 205.721Z" fill="#00DBDE" stroke="black" stroke-width="1.09" stroke-miterlimit="10"/>
<path d="M348.171 305.429C348.845 308.642 349.274 313.899 346.321 318.633C341.076 327.046 327.044 330.85 312.4 326.195" fill="#FFD1C0"/>
<path d="M348.232 305.417C348.878 307.387 349.211 309.433 349.224 311.492C349.185 313.607 348.737 315.699 347.901 317.668C347.022 319.655 345.698 321.447 344.016 322.925C342.376 324.423 340.485 325.665 338.416 326.604C336.362 327.502 334.192 328.151 331.958 328.534C329.751 328.962 327.496 329.137 325.243 329.056C324.128 328.988 323.013 328.954 321.91 328.784C320.805 328.663 319.709 328.485 318.625 328.25C316.486 327.759 314.398 327.09 312.388 326.252V326.138C316.517 327.435 320.847 328.098 325.206 328.102C327.378 328.084 329.542 327.859 331.664 327.433C333.788 327.03 335.847 326.378 337.791 325.491C339.757 324.633 341.557 323.482 343.122 322.085C344.713 320.718 346 319.074 346.909 317.248C348.603 313.51 349.005 309.377 348.06 305.417H348.232Z" fill="black"/>
<path d="M55.4267 69.474C53.711 68.8836 53.7969 66.6128 52.7308 63.9219C48.3437 52.9088 35.1948 52.5681 24.5457 44.1777C11.2252 33.7208 7.62233 13.4543 13.0878 9.32149C14.9137 7.93633 17.524 8.51537 22.0826 9.60534C51.4931 16.5766 74.09 22.4919 72.8278 22.0945C74.5557 34.209 75.438 36.8545 75.9282 36.8545C76.4184 36.8545 76.4185 34.9811 77.2886 30.2352C77.791 27.4535 78.281 25.1714 78.6364 23.6273C80.9279 24.4107 82.9744 25.2168 84.7635 25.9775C86.5527 26.7382 87.5209 27.2492 89.2243 28.0893C96.0745 31.4955 102.545 34.5383 102.545 34.5383C102.545 34.5383 87.6189 41.0894 76.014 50.6834C63.7229 60.7429 59.3235 70.791 55.4267 69.474Z" fill="#FF007C" stroke="black" stroke-width="1.09" stroke-miterlimit="10"/>
<path d="M82.2632 219.673C80.0329 232.855 80.3638 238.407 81.0377 242.574C81.5892 246.207 84.3096 264.442 99.6643 277.317C113.953 289.295 132.028 290.68 131.526 292.985C131.219 294.416 123.34 294.12 119.48 293.905C95.2162 292.769 83.0842 292.224 75.2414 290.555C69.1143 289.261 11.8866 277.101 2.16885 240.735C-1.37266 227.428 2.48736 214.803 3.89661 210.17C8.87188 193.957 17.2295 190.244 24.239 177.505C38.3192 165.516 49.9118 155.774 57.6321 148.78C65.1318 141.968 74.9718 133.362 86.8218 123.666C96.9194 115.411 104.333 109.803 119.173 98.5851C136.33 85.5964 139.908 83.3938 142.824 81.7134C152.578 76.0791 163.077 71.637 174.06 68.4976C124.492 105.341 105.596 149.711 95.4857 173.452C89.3627 188.394 84.9314 203.884 82.2632 219.673Z" fill="#DD5E00" stroke="black" stroke-width="1.09" stroke-miterlimit="10"/>
<path d="M133.045 293.961C120.459 291.407 108.93 285.553 99.8334 277.099C90.7364 268.644 84.4547 257.945 81.7363 246.275C87.5731 255.136 94.7632 263.167 103.083 270.118C111.661 277.317 119.725 283.981 127.372 282.119C131.367 281.143 133.205 278.361 139.969 277.317C144.626 276.601 149.454 277.044 149.662 278.089C149.736 278.475 148.89 278.838 147.481 279.519C144.907 280.78 142.469 282.29 139.945 283.629C137.714 284.788 134.945 287.422 133.045 293.961Z" fill="black" stroke="black" stroke-width="1.09" stroke-linecap="round" stroke-linejoin="round"/>
<path d="M177.468 67.5779C173.587 78.883 170.717 90.4653 168.89 102.207C165.422 124.29 168.485 128.957 163.988 151.959C161.255 165.856 158.314 180.843 151.488 189.506C148.615 193.013 146.365 196.923 144.822 201.087C143.517 204.372 142.725 207.813 142.469 211.306C142.249 214.803 142.787 215.654 142.175 216.392C140.606 218.322 133.205 217.21 109.015 205.107L109.578 205.05H108.929C103.169 205.163 93.3905 207.593 82.1777 222.183C82.864 217.108 83.9912 209.886 85.9519 201.337C91.9357 175.444 102.318 150.596 116.71 127.719C126.698 111.824 135.815 97.5179 153.596 83.2348C160.983 77.307 168.978 72.063 177.468 67.5779Z" fill="black" stroke="black" stroke-width="1.09" stroke-linecap="round" stroke-linejoin="round"/>
<path d="M85.2045 218.413C84.9594 218.913 84.751 219.333 84.5795 219.708C84.4224 220.049 84.2381 220.379 84.0281 220.695C83.8933 220.854 83.7953 220.934 83.7095 220.9C83.7686 220.8 83.8216 220.698 83.8686 220.593C84.273 219.867 84.7143 219.128 85.2045 218.413Z" fill="black" stroke="black" stroke-width="1.09" stroke-linecap="round" stroke-linejoin="round"/>
<path d="M109.541 205.05L108.978 205.107H108.892L109.541 205.05Z" fill="black" stroke="black" stroke-width="1.09" stroke-linecap="round" stroke-linejoin="round"/>
<path d="M81.0503 237.817C81.9712 242.758 83.6813 247.545 86.1238 252.02C83.394 247.661 81.6665 242.825 81.0503 237.817Z" fill="black" stroke="black" stroke-width="1.09" stroke-linecap="round" stroke-linejoin="round"/>
<path d="M109.542 205.05L108.978 205.107C105.302 205.504 95.1307 207.162 87.8883 215.155C86.6145 216.555 85.5054 218.078 84.5797 219.696C84.3714 220.014 84.1999 220.355 84.0283 220.684C81.3435 225.993 80.3241 231.895 81.0871 237.715C80.0367 231.979 80.954 226.082 83.7097 220.854C83.7688 220.755 83.8218 220.653 83.8689 220.548C84.31 219.764 84.7513 219.026 85.2415 218.277C87.7092 214.427 91.1599 211.198 95.2903 208.874C99.4207 206.55 104.104 205.202 108.929 204.948L109.542 205.05Z" fill="black" stroke="black" stroke-width="1.09" stroke-linecap="round" stroke-linejoin="round"/>
<path d="M24.7658 174.008C28.871 164.006 32.4738 153.469 32.7679 147.361C33.3929 134.088 27.3269 129.944 28.9935 116.524C29.4959 112.505 30.7338 107.225 35.9051 97.6314C39.079 91.7274 50.7205 71.2224 70.4255 54.8389C122.09 11.9101 217.968 6.71009 227.563 6.27864C243.69 5.54064 262.145 7.64109 295.391 5.37033C314.912 4.03058 325.537 2.35022 326.027 4.23495C327.387 9.10574 252.562 23.5364 216.865 47.913C204.981 56.4271 191.678 63.0884 177.479 67.6346C171.107 69.6442 170.347 69.349 164.637 71.2224C146.108 77.2854 133.916 86.9361 125.766 93.3737C78.5994 130.603 84.4934 125.232 77.9128 131.012C45.7083 159.248 25.4153 181.854 22.9276 180.015C22.3149 179.515 23.1605 177.937 24.7658 174.008Z" fill="#FFC100" stroke="black" stroke-width="1.09" stroke-miterlimit="10"/>
<path d="M136.599 22.0263C105.853 32.926 86.4913 64.0354 74.9477 82.6216C56.1986 112.789 54.8506 132.192 55.3407 137.858C55.3407 138.13 56.3702 151.233 56.3702 151.233C56.3702 151.233 67.497 140.026 77.95 130.955C88.1824 122.065 92.0547 120.191 96.6133 116.195C113.23 101.798 105.498 88.9456 117.764 66.0337C134.455 34.8902 171.157 16.9057 185.347 12.228C187.026 11.6716 192.638 9.95721 192.491 9.37817C192.234 8.49257 175.642 11.5013 161.035 15.0551C152.003 17.2918 141.918 20.1416 136.599 22.0263Z" fill="#135751" stroke="black" stroke-width="1.09" stroke-miterlimit="10"/>
<path d="M131.979 238.986C128.817 236.244 125 234.233 120.84 233.116C119.02 232.687 117.135 232.549 115.265 232.708C113.509 232.853 111.81 233.357 110.289 234.184C108.657 234.984 107.198 236.058 105.988 237.351C104.671 238.689 103.569 240.195 102.716 241.825C101.812 243.552 101.137 245.374 100.706 247.252C100.287 249.311 100.07 251.401 100.057 253.496L99.6769 253.61C98.9888 251.546 98.6257 249.401 98.5986 247.24C98.6075 245.074 98.9965 242.922 99.7505 240.871C101.186 236.691 104.242 233.152 108.329 230.936C110.409 229.883 112.724 229.292 115.093 229.211C117.447 229.159 119.789 229.545 121.98 230.346C126.313 232.033 129.935 234.983 132.298 238.748L131.979 238.986Z" fill="black"/>
<path d="M103.377 240.303C102.55 242.118 102.214 244.094 102.399 246.057C102.583 248.02 103.283 249.911 104.437 251.567C105.59 253.222 107.163 254.591 109.018 255.555C110.873 256.518 112.954 257.047 115.08 257.096" fill="#FFD1C0"/>
<path d="M103.623 240.406C104.402 242.247 105.29 244.047 106.282 245.799C107.054 247.15 107.79 248.069 108.476 249.148C109.162 250.227 109.848 251.169 110.865 252.395C112.186 253.95 113.593 255.439 115.081 256.857V257.345C112.903 257.324 110.762 256.814 108.844 255.858C106.87 254.917 105.184 253.531 103.942 251.827C102.772 250.101 102.093 248.129 101.969 246.094C101.819 244.079 102.201 242.06 103.084 240.213L103.623 240.406Z" fill="black"/>
<path d="M244.868 234.69C248.123 234.102 250.132 230.636 249.356 226.95C248.58 223.263 245.312 220.751 242.057 221.34C238.802 221.928 236.792 225.394 237.569 229.08C238.345 232.767 241.613 235.278 244.868 234.69Z" fill="black" stroke="black" stroke-width="1.08" stroke-miterlimit="10"/>
<path d="M320.174 213.201C320.194 209.702 318.251 206.856 315.835 206.844C313.419 206.832 311.444 209.659 311.424 213.158C311.405 216.657 313.347 219.503 315.763 219.515C318.179 219.526 320.154 216.699 320.174 213.201Z" fill="black" stroke="black" stroke-width="0.89" stroke-miterlimit="10"/>
<path d="M13.9946 8.89001L77.1537 50.4222L13.9946 8.89001Z" fill="#FFD1C0"/>
<path d="M14.1903 8.64026C19.766 11.6944 25.2192 14.8962 30.7582 18.0071L38.9688 22.7871L47.1179 27.6352C49.8383 29.2588 52.6201 30.7915 55.3896 32.347C58.1382 33.9142 60.778 35.6396 63.2936 37.513C68.4497 41.2553 73.1614 45.4952 77.3493 50.1611L76.9696 50.6721C70.8286 48.553 64.9498 45.8315 59.4336 42.5541C56.6893 40.975 54.0575 39.2343 51.5541 37.3427C49.1032 35.4466 46.5787 33.5051 44.0297 31.6658L36.3953 26.1251L28.8222 20.5277C23.8224 16.7242 18.7614 13.0001 13.7983 9.17389L14.1903 8.64026Z" fill="black"/>
<path d="M41.1992 15.3163L41.9346 25.2736L41.1992 15.3163Z" fill="#FFD1C0"/>
<path d="M41.3952 15.3049C41.775 16.1224 42.0812 16.9285 42.3875 17.746C42.6939 18.5635 42.9391 19.3809 43.1597 20.1984C43.3803 21.0159 43.9807 21.8107 43.7479 22.6622C43.6553 23.1084 43.4858 23.5377 43.2456 23.9338C42.9631 24.4352 42.5852 24.8852 42.1302 25.2622H41.7383C41.2316 24.9634 40.7908 24.5781 40.4393 24.1268C40.1377 23.7651 39.9055 23.358 39.753 22.9233C39.3853 22.1059 39.8632 21.243 39.9735 20.4141C40.0837 19.5853 40.2064 18.7224 40.378 17.8822C40.5495 17.0421 40.7456 16.1905 41.0029 15.339L41.3952 15.3049Z" fill="black"/>
<path d="M59.0049 24.0814C59.3317 28.5321 59.6585 32.9904 59.9853 37.4562L59.0049 24.0814Z" fill="#FFD1C0"/>
<path d="M59.2739 24.0587C59.7764 25.1941 60.1809 26.2386 60.5975 27.34L61.1612 28.9863L61.6515 30.6326C61.827 31.1879 62.0357 31.7337 62.2765 32.2675C62.494 32.7998 62.5489 33.3772 62.4357 33.9365C62.3079 34.5404 62.0805 35.1225 61.7616 35.6623C61.3789 36.3323 60.8683 36.9324 60.2543 37.4335H59.7275C59.0412 37.0191 58.4466 36.4874 57.9752 35.8667C57.5791 35.3733 57.269 34.8255 57.0561 34.2431C56.8585 33.7057 56.8245 33.1282 56.958 32.5741C57.1238 32.0138 57.2548 31.4452 57.3502 30.871L57.583 29.1679L57.9016 27.4762C58.1589 26.3408 58.3917 25.2055 58.7348 24.0701L59.2739 24.0587Z" fill="black"/>
<path d="M51.2964 44.4388L65.6465 46.1419L51.2964 44.4388Z" fill="#FFD1C0"/>
<path d="M51.3333 44.1776C52.5587 43.9278 53.7842 43.7689 55.0096 43.6099L56.86 43.4169L58.6982 43.292C59.3239 43.2375 59.9458 43.1503 60.5609 43.0309C61.1649 42.9351 61.7858 43.0021 62.35 43.2239C62.97 43.4487 63.5457 43.7672 64.0535 44.1663C64.685 44.6429 65.2202 45.2195 65.6343 45.8693L65.573 46.3689C64.9929 46.9063 64.3117 47.3411 63.5631 47.6519C62.9672 47.9157 62.3304 48.0919 61.6759 48.1741C61.0672 48.2437 60.4496 48.1614 59.8868 47.9357C59.3214 47.6779 58.7405 47.4504 58.1468 47.2545L56.4068 46.6982L54.6664 46.0851C53.5145 45.6423 52.3506 45.1995 51.2109 44.6658L51.3333 44.1776Z" fill="black"/>
<path d="M21.0039 21.9469L31.7633 22.2648L21.0039 21.9469Z" fill="#FFD1C0"/>
<path d="M21.0039 21.7538C21.9107 21.4927 22.8175 21.2997 23.7243 21.0953C24.6312 20.8909 25.5382 20.7433 26.4328 20.6184C27.3274 20.4935 28.2464 20.0167 29.141 20.3232C29.6129 20.4543 30.0594 20.6535 30.4642 20.9136C30.9686 21.2152 31.409 21.6001 31.7633 22.049V22.4237C31.388 22.8839 30.9173 23.2699 30.3787 23.5591C29.9581 23.7965 29.4986 23.9691 29.0183 24.07C28.1115 24.3198 27.2293 23.7975 26.3469 23.6158C25.4646 23.4342 24.5579 23.2298 23.6756 22.98C22.7933 22.7302 21.8985 22.4805 21.0039 22.1626V21.7538Z" fill="black"/>
<path d="M1122.72 77.8872L383.194 251.01C344.519 260.093 310.035 257.05 306.555 244.3C304.974 238.509 318.074 230.403 335.647 226.293L1148.72 35.9576C1164.54 32.2562 1178.65 33.4938 1180.07 38.7052L1180.95 41.907C1184.05 53.4424 1157.88 69.6557 1122.72 77.8872Z" fill="#FF878A" stroke="black" stroke-width="1.83" stroke-miterlimit="10"/>
<path d="M523.665 328.942C521.884 328.956 520.104 328.827 518.347 328.556C516.054 328.328 513.871 327.531 512.025 326.25C510.179 324.97 508.739 323.252 507.857 321.279C507.005 322.997 505.731 324.508 504.138 325.691C502.544 326.873 500.675 327.695 498.679 328.091C496.206 328.643 493.673 328.928 491.13 328.942C484.427 328.942 479.868 326.138 477.589 320.62C471.18 304.793 467.785 289.045 464.464 273.808C464.464 273.649 464.465 273.479 464.379 273.32V273.161C464.228 272.351 464.15 271.531 464.146 270.709C464.048 268.32 464.773 265.964 466.216 263.982C467.659 262 469.745 260.495 472.172 259.684H472.332C475.451 258.713 478.701 258.152 481.988 258.015H482.233C488.14 258.015 492.466 261.421 494.194 267.257C494.792 264.987 496.117 262.938 497.996 261.38C499.875 259.821 502.219 258.826 504.72 258.526H504.83C505.981 258.399 507.139 258.33 508.298 258.322C509.988 258.306 511.673 258.493 513.311 258.878C518.065 260.116 520.883 262.772 522.464 267.621C523.935 261.546 528.322 258.027 534.51 258.027C537.419 258.118 540.302 258.556 543.088 259.332C545.835 259.962 548.262 261.452 549.957 263.55C551.652 265.649 552.512 268.226 552.389 270.845C552.38 272.051 552.241 273.253 551.973 274.433C548.698 289.558 544.209 304.435 538.542 318.94C536.336 324.617 532.648 327.966 527.513 328.738C526.239 328.907 524.952 328.975 523.665 328.942V328.942Z" stroke="white" stroke-width="0.73" stroke-miterlimit="10"/>
<path d="M508.065 293.564C506.166 300.717 503.923 307.802 501.252 315.136C500.272 317.838 499.487 318.86 496.889 319.439C495.004 319.865 493.071 320.086 491.13 320.098C488.459 320.098 486.424 319.655 485.37 317.1C479.403 302.341 476.094 287.388 472.724 271.833C472.649 271.458 472.604 271.078 472.59 270.697C472.547 270.098 472.735 269.504 473.121 269.022C473.507 268.539 474.065 268.199 474.697 268.063C477.125 267.313 479.652 266.87 482.209 266.746C484.39 266.746 485.517 267.552 486.142 270.039C488.814 280.916 491.277 292.02 494.5 303.044C497.453 292.747 499.917 282.233 501.951 270.981C502.38 268.574 503.494 267.484 505.749 267.189C506.587 267.094 507.43 267.045 508.274 267.042C509.267 267.027 510.26 267.126 511.227 267.337C513.188 267.848 513.972 268.279 514.744 271.492C517.134 280.995 519.511 290.794 522.464 300.853C525.565 290.919 528.015 280.7 530.613 269.823C531.116 267.7 532.023 266.746 534.486 266.746C536.676 266.836 538.846 267.18 540.944 267.768C543.125 268.359 543.897 269.165 543.897 270.766C543.886 271.331 543.816 271.893 543.689 272.446C540.521 287.107 536.175 301.529 530.687 315.59C529.56 318.508 528.298 319.678 526.337 319.973C525.453 320.094 524.559 320.143 523.665 320.121C522.298 320.138 520.932 320.039 519.584 319.825C516.496 319.394 515.798 318.508 514.805 315.886C512.081 308.576 509.83 301.122 508.065 293.564Z" fill="white"/>
<path d="M577.768 328.432C575.157 328.357 572.56 328.053 570.012 327.523H569.926C568.332 327.168 566.845 326.485 565.576 325.525C563.419 327.251 560.68 328.227 557.83 328.284C556.845 328.368 555.855 328.403 554.865 328.386C553.891 328.402 552.918 328.368 551.949 328.284C548.027 328.023 541.593 326.161 540.491 316.93C540.491 316.873 540.491 316.828 540.491 316.783C539.829 310.515 539.167 299.116 539.167 287.796C539.167 283.039 539.388 278.214 539.571 273.956L539.67 271.821C539.902 264.85 542.733 260.638 548.076 259.332C551.597 258.585 555.198 258.204 558.811 258.197C563.713 258.197 568.957 261.603 568.957 269.04C568.957 269.846 568.958 271.311 568.835 274.092C569.73 274.013 570.624 273.967 571.531 273.967C583.283 273.967 590.881 281.518 590.881 293.212C590.786 301.318 590.222 309.414 589.19 317.464C588.16 325.536 582.621 328.432 577.768 328.432Z" stroke="white" stroke-width="0.73" stroke-miterlimit="10"/>
<path d="M550.086 267.848C552.946 267.259 555.868 266.966 558.799 266.973C560.269 266.973 560.49 267.768 560.49 269.017C560.49 270.845 560.135 279.746 560.061 286.468C563.311 284.053 567.353 282.739 571.519 282.744C575.379 282.744 582.401 283.879 582.401 293.189C582.31 300.901 581.775 308.602 580.795 316.26C580.575 317.941 580.158 319.666 577.768 319.666C575.735 319.593 573.714 319.35 571.727 318.94C570.11 318.565 569.472 317.475 569.472 315.727C569.472 314.591 570.245 308.131 570.245 297.754C570.245 295.426 569.338 293.893 567.586 293.893C564.837 294.055 562.209 294.999 560.061 296.595C560.135 304.044 560.343 310.901 560.76 315.284C560.838 315.792 560.887 316.304 560.907 316.817C560.907 318.497 560.208 319.371 557.23 319.519C556.461 319.589 555.687 319.615 554.914 319.598C554.162 319.615 553.409 319.589 552.66 319.519C549.78 319.371 549.216 318.202 548.983 315.874C548.346 309.811 547.758 298.844 547.758 287.83C547.758 282.494 548.04 277.09 548.248 272.196C548.187 269.903 548.26 268.29 550.086 267.848Z" fill="white"/>
<path d="M605.733 329.385C588.43 329.385 577.242 318.815 577.242 302.477C577.188 298.591 577.97 294.733 579.544 291.131C581.118 287.528 583.452 284.252 586.408 281.495C591.487 276.734 598.375 274.004 605.599 273.888C608.214 273.912 610.811 274.295 613.306 275.023L613.748 275.171C615.263 275.672 616.646 276.467 617.804 277.503C618.962 278.539 619.869 279.791 620.463 281.177C628.171 285.355 632.889 293.462 632.889 303.192C632.889 319.587 619.078 329.385 605.733 329.385Z" stroke="white" stroke-width="0.73" stroke-miterlimit="10"/>
<path d="M612.902 285.821C612.898 286.386 612.828 286.95 612.693 287.501C620.046 289.329 624.421 295.244 624.421 303.203C624.421 314.444 614.728 320.586 605.733 320.586C593.479 320.586 585.709 314.228 585.709 302.477C585.709 290.499 595.893 282.676 605.598 282.676C607.408 282.704 609.203 282.975 610.929 283.482C612.13 283.925 612.902 284.288 612.902 285.821ZM605.807 293.485C601.027 293.996 597.449 297.72 597.449 302.908C597.449 307.223 600.953 309.721 605.034 309.721C608.894 309.721 613.11 307.245 613.11 302.908C613.142 301.686 612.731 300.49 611.942 299.51C611.153 298.53 610.033 297.824 608.76 297.504C606.578 296.777 605.88 296.414 605.807 293.485Z" fill="white"/>
<path d="M631.455 298.56C630.69 298.553 629.928 298.484 629.176 298.355H628.992L628.355 298.23C626.178 297.785 624.103 296.986 622.228 295.869C620.397 294.732 618.909 293.182 617.906 291.364C616.902 289.546 616.415 287.521 616.492 285.48C616.639 283.083 617.004 280.702 617.583 278.361C618.587 273.531 620.101 268.804 622.105 264.249C624.2 259.332 628.232 256.528 633.134 256.528C637.19 256.528 642.104 258.401 645.241 260.297C647.251 261.341 648.92 262.867 650.074 264.715C651.228 266.563 651.823 268.665 651.797 270.8C651.76 272.796 651.345 274.772 650.572 276.636C648.397 282.479 645.323 288.002 641.443 293.03C639.997 294.824 637.031 298.56 631.455 298.56Z" stroke="white" stroke-width="0.73" stroke-miterlimit="10"/>
<path d="M633.183 265.304C636.021 265.568 638.746 266.468 641.124 267.927C642.815 268.881 643.379 269.687 643.379 270.777C643.325 271.682 643.11 272.572 642.741 273.411C640.88 278.406 638.256 283.128 634.948 287.433C633.612 289.113 632.84 289.761 631.504 289.761C631.093 289.74 630.683 289.695 630.279 289.624C629.009 289.381 627.794 288.935 626.689 288.307C626.162 288.016 625.732 287.596 625.447 287.093C625.162 286.59 625.031 286.024 625.071 285.457C625.238 283.762 625.521 282.079 625.916 280.416C626.794 276.117 628.137 271.91 629.923 267.859C630.536 266.179 631.529 265.304 633.183 265.304Z" fill="white"/>
<path d="M651.564 329.011C647.136 329.13 642.733 328.356 638.66 326.74C636.454 325.847 634.586 324.361 633.299 322.475C632.013 320.588 631.366 318.388 631.443 316.158C631.448 314.923 631.604 313.693 631.908 312.491V312.389C632.335 310.84 632.884 309.322 633.55 307.847C633.697 307.518 633.832 307.189 633.954 306.905C634.03 306.708 634.116 306.515 634.212 306.326L634.58 305.576C632.077 302.214 630.79 298.203 630.903 294.12C630.903 282.676 641.601 273.683 655.24 273.683C659.585 273.701 663.891 274.431 667.96 275.841C672.972 277.578 676.012 281.949 676.012 287.524C675.945 290.639 675.509 293.738 674.713 296.766V296.913C674.395 298.067 673.926 299.181 673.315 300.229C674.895 303.07 675.69 306.23 675.632 309.425C675.607 320.768 665.522 329.011 651.564 329.011Z" stroke="white" stroke-width="0.73" stroke-miterlimit="10"/>
<path d="M651.564 320.211C648.203 320.324 644.856 319.75 641.761 318.531C641.2 318.386 640.708 318.069 640.365 317.632C640.022 317.195 639.849 316.664 639.874 316.124C639.881 315.607 639.951 315.093 640.082 314.591C640.553 313.102 641.113 311.639 641.761 310.209C642.263 309.187 642.606 308.676 643.244 308.676C643.888 308.761 644.508 308.962 645.07 309.266C646.7 310.048 648.503 310.472 650.339 310.504C652.447 310.504 653.917 310.061 653.917 308.755C653.917 305.463 639.31 305.099 639.31 294.075C639.31 287.058 647.177 282.46 655.241 282.46C658.65 282.48 662.029 283.048 665.228 284.14C665.991 284.356 666.646 284.818 667.071 285.444C667.496 286.069 667.664 286.816 667.544 287.546C667.474 289.861 667.146 292.163 666.564 294.416C666.135 295.869 665.645 296.743 663.745 296.743C662.327 296.749 660.913 296.604 659.53 296.312C657.704 295.948 657.349 295.437 657.349 293.246V292.735C656.623 292.516 655.869 292.39 655.106 292.36C652.655 292.36 650.817 292.951 650.817 294.631C650.817 297.912 667.115 298.14 667.115 309.448C667.14 315.976 660.473 320.211 651.564 320.211Z" fill="white"/>
<path d="M696.795 329.158C691.955 329.158 685.84 327.149 684.247 317.566C683.756 314.671 683.34 311.719 683.021 308.619C681.574 307.584 680.386 306.271 679.539 304.769C678.693 303.268 678.209 301.614 678.119 299.922C678.021 298.855 678.021 297.947 678.021 297.288C678.019 295.865 678.105 294.444 678.279 293.03C678.501 290.457 679.551 288.005 681.293 285.991C679.638 284.055 678.625 281.717 678.377 279.258C678.247 278.017 678.198 276.77 678.229 275.523C678.24 273.624 678.384 271.728 678.659 269.846C679.774 261.331 686.992 259.627 691.207 259.4C700.741 258.799 708.865 258.503 715.985 258.503C718.902 258.503 721.904 258.503 724.796 258.662H724.919C727.946 258.867 735.948 259.423 737.173 269.63C737.372 271.084 737.47 272.548 737.468 274.013C737.468 275.296 737.382 276.488 737.296 277.532C737.302 277.623 737.302 277.714 737.296 277.805C737.002 280.598 735.911 284.617 732.222 287.058C733.171 288.379 733.852 289.849 734.232 291.395C734.232 291.554 734.318 291.725 734.355 291.884C734.707 293.575 734.887 295.293 734.894 297.016C734.904 297.83 734.867 298.645 734.784 299.457C734.367 304.872 731.708 307.722 729.527 309.164C727.432 310.452 725.003 311.196 722.492 311.321C719.441 311.617 716.365 311.787 713.204 311.844C713.204 312.071 713.29 312.286 713.339 312.479C713.706 313.948 713.911 315.446 713.951 316.953C714.049 319.506 713.202 322.014 711.55 324.061C709.899 326.107 707.542 327.569 704.871 328.204H704.724C702.131 328.815 699.47 329.135 696.795 329.158V329.158Z" stroke="white" stroke-width="0.73" stroke-miterlimit="10"/>
<path d="M691.673 268.154C699.822 267.643 708.106 267.269 715.973 267.269C718.853 267.269 721.672 267.269 724.343 267.416C727.505 267.643 728.485 267.859 728.84 270.822C728.979 271.889 729.049 272.962 729.049 274.035C729.049 274.989 728.975 275.932 728.901 276.885C728.62 279.587 727.676 280.291 724.343 280.291C722.162 280.291 717.383 280.223 713.596 280.223C709.809 280.223 705.937 280.223 702.138 280.291C702.212 283.698 702.346 287.229 702.555 290.737C704.454 290.669 706.427 290.669 708.388 290.669C712.395 290.669 716.537 290.669 720.973 290.953C724.27 291.18 725.531 291.611 726.095 293.734C726.324 294.815 726.443 295.914 726.451 297.016C726.461 297.554 726.436 298.092 726.377 298.628C726.169 302.034 724.478 302.272 721.671 302.568C717.888 302.916 714.089 303.087 710.287 303.079C707.971 303.079 705.716 303.01 703.474 302.931C703.89 306.803 704.38 310.595 704.883 313.376C705.192 314.551 705.402 315.747 705.508 316.953C705.508 318.088 704.944 319.144 702.91 319.655C700.906 320.123 698.849 320.367 696.783 320.382C693.977 320.382 693.107 319.439 692.567 316.079C691.795 311.537 691.231 306.871 690.815 302.204L690.251 302.125C688.143 301.841 686.673 301.33 686.575 299.139C686.515 298.531 686.491 297.921 686.501 297.311C686.504 296.21 686.578 295.111 686.722 294.018C686.857 292.27 687.629 291.395 690.092 291.18C689.884 287.774 689.81 284.243 689.737 280.802C687.629 280.802 687.004 279.78 686.784 278.1C686.722 277.589 686.722 276.056 686.722 275.545C686.729 274.026 686.844 272.509 687.065 271.004C687.237 269.392 687.947 268.37 691.673 268.154Z" fill="white"/>
<path d="M750.273 329.385C732.958 329.385 721.782 318.815 721.782 302.477C721.728 298.591 722.511 294.733 724.085 291.131C725.659 287.528 727.991 284.252 730.948 281.495C736.022 276.735 742.907 274.005 750.126 273.888C752.742 273.911 755.34 274.294 757.835 275.023L758.287 275.171C759.802 275.674 761.184 276.47 762.342 277.505C763.5 278.541 764.406 279.792 765.003 281.177C772.699 285.355 777.429 293.462 777.429 303.192C777.429 319.587 763.618 329.385 750.273 329.385Z" stroke="white" stroke-width="0.73" stroke-miterlimit="10"/>
<path d="M757.442 285.821C757.438 286.387 757.364 286.951 757.222 287.501C764.574 289.329 768.961 295.244 768.961 303.203C768.961 314.444 759.268 320.586 750.273 320.586C738.019 320.586 730.25 314.228 730.25 302.477C730.25 290.499 740.433 282.676 750.126 282.676C751.94 282.705 753.739 282.976 755.469 283.482C756.67 283.925 757.442 284.288 757.442 285.821ZM750.335 293.485C745.568 293.996 741.977 297.72 741.977 302.908C741.977 307.223 745.494 309.721 749.563 309.721C753.435 309.721 757.65 307.245 757.65 302.908C757.679 301.685 757.266 300.488 756.475 299.509C755.684 298.529 754.562 297.823 753.287 297.504C751.118 296.777 750.408 296.414 750.335 293.485Z" fill="white"/>
<path d="M791.791 329.385C774.488 329.385 763.311 318.815 763.311 302.477C763.255 298.59 764.036 294.732 765.61 291.129C767.184 287.526 769.519 284.251 772.478 281.495C777.551 276.733 784.435 274.002 791.656 273.888C794.271 273.912 796.869 274.295 799.364 275.023L799.817 275.171C801.331 275.674 802.711 276.469 803.867 277.505C805.023 278.541 805.928 279.792 806.521 281.177C814.229 285.355 818.946 293.462 818.946 303.192C818.946 319.587 805.148 329.385 791.791 329.385Z" stroke="white" stroke-width="0.73" stroke-miterlimit="10"/>
<path d="M798.959 285.821C798.956 286.386 798.886 286.95 798.751 287.501C806.104 289.329 810.491 295.244 810.491 303.203C810.491 314.444 800.786 320.586 791.791 320.586C779.537 320.586 771.767 314.228 771.767 302.477C771.767 290.499 781.963 282.676 791.656 282.676C793.469 282.705 795.269 282.976 796.999 283.482C798.188 283.925 798.959 284.288 798.959 285.821ZM791.865 293.485C787.086 293.996 783.507 297.72 783.507 302.908C783.507 307.223 787.024 309.721 791.092 309.721C794.952 309.721 799.168 307.245 799.168 302.908C799.201 301.686 798.789 300.49 798 299.51C797.212 298.53 796.091 297.824 794.818 297.504C792.636 296.777 791.938 296.414 791.865 293.485Z" fill="white"/>
<path d="M821.238 328.363C820.297 328.377 819.356 328.343 818.42 328.261C815.099 328.046 807.856 326.422 806.974 316.658C806.594 311.957 806.374 304.952 806.374 297.356C806.374 290.544 806.57 280.575 807.464 271.333C807.709 268.529 808.383 261.285 815.956 259.321C819.013 258.58 822.159 258.198 825.319 258.186C830.539 258.186 835.82 261.785 835.82 269.835C835.82 270.845 835.82 271.912 835.82 273.014C835.82 274.115 835.82 275.591 835.82 276.908C835.82 290.93 835.306 307.37 834.595 315.999V316.067C834.007 323.459 830.367 327.546 823.774 328.239C822.933 328.332 822.086 328.373 821.238 328.363V328.363Z" stroke="white" stroke-width="0.73" stroke-miterlimit="10"/>
<path d="M818.003 267.848C820.405 267.276 822.875 266.983 825.355 266.973C826.752 266.973 827.39 267.552 827.39 269.823C827.39 272.094 827.463 274.421 827.463 276.897C827.463 290.339 826.961 306.7 826.238 315.238C826.03 317.872 825.956 319.178 822.942 319.473C822.381 319.539 821.816 319.566 821.251 319.553C820.523 319.567 819.794 319.541 819.069 319.473C816.189 319.326 815.626 318.156 815.393 315.829C815.037 311.514 814.829 304.793 814.829 297.345C814.829 289.102 815.111 280.042 815.883 272.151C816.177 268.881 816.606 268.222 818.003 267.848Z" fill="white"/>
<path d="M841.507 328.363C839.921 328.359 838.338 328.268 836.764 328.091C832.83 327.671 826.238 325.548 825.735 315.999C825.527 312.593 825.429 309.187 825.429 305.1C825.429 299.877 825.625 294.279 826.005 288.012C826.047 286.206 826.36 284.413 826.936 282.687C825.418 279.775 824.686 276.564 824.804 273.332C824.804 263.624 830.711 257.595 840.22 257.595C853.198 257.595 855.93 266.508 855.93 273.99C855.985 276.735 855.356 279.455 854.092 281.938C854.534 283.497 854.729 285.107 854.668 286.718C854.668 297.424 854.521 306.087 853.798 316.135C853.824 318.948 852.973 321.708 851.347 324.083C850.226 325.504 848.737 326.641 847.018 327.389C845.298 328.137 843.403 328.472 841.507 328.363V328.363Z" stroke="white" stroke-width="0.73" stroke-miterlimit="10"/>
<path d="M847.377 273.99C847.377 277.714 846.041 280.496 840.134 280.496C834.938 280.496 833.186 278.883 833.186 273.331C833.186 268.665 835.085 266.394 840.134 266.394C845.183 266.394 847.377 267.643 847.377 273.99ZM836.556 284.288C838.424 283.919 840.332 283.748 842.242 283.777C843.019 283.764 843.796 283.786 844.57 283.845C845.967 283.925 846.114 284.436 846.114 286.774C846.114 297.209 845.967 305.758 845.269 315.545C845.06 318.531 844.987 319.564 841.47 319.564C840.18 319.562 838.89 319.486 837.61 319.337C834.73 319.042 834.24 317.884 834.093 315.465C833.885 311.968 833.811 308.528 833.811 305.099C833.811 299.627 834.032 294.143 834.375 288.455C834.449 286.184 834.657 284.583 836.605 284.288H836.556Z" fill="white"/>
<path d="M882.645 328.432C880.033 328.368 877.435 328.064 874.888 327.523H874.802C873.21 327.165 871.724 326.482 870.452 325.525C868.295 327.251 865.556 328.227 862.707 328.284C861.721 328.368 860.731 328.403 859.741 328.386C858.768 328.402 857.794 328.368 856.825 328.284C852.903 328.023 846.482 326.161 845.367 316.93C845.367 316.93 845.367 316.839 845.367 316.783C844.497 308.46 844.056 300.501 844.056 293.121C844.056 291.316 844.056 289.431 844.13 287.501C844.35 280.575 847.181 276.352 852.536 275.012C856.056 274.259 859.657 273.878 863.27 273.877C865.05 273.863 866.8 274.299 868.332 275.137C870.939 274.347 873.664 273.944 876.407 273.945C888.159 273.945 895.757 281.495 895.757 293.189C895.668 301.296 895.104 309.392 894.066 317.441C893.049 325.536 887.497 328.432 882.645 328.432Z" stroke="white" stroke-width="0.73" stroke-miterlimit="10"/>
<path d="M854.546 283.561C857.406 282.969 860.328 282.672 863.258 282.676C864.655 282.676 865.011 283.414 865.011 284.583C865.011 285.162 864.937 285.821 864.876 286.547C868.13 284.093 872.199 282.754 876.395 282.755C880.256 282.755 887.289 283.891 887.289 293.201C887.2 300.912 886.66 308.614 885.672 316.272C885.463 317.952 885.034 319.678 882.645 319.678C880.611 319.612 878.588 319.369 876.604 318.951C874.986 318.576 874.361 317.486 874.361 315.738C874.361 313.615 875.133 309.823 875.133 297.765C875.133 295.437 874.214 293.905 872.461 293.905C869.621 294.056 866.911 295.052 864.729 296.743C864.729 303.033 865.085 309.232 865.648 315.295C865.71 315.886 865.783 316.431 865.783 316.828C865.783 318.508 865.084 319.383 862.107 319.53C861.337 319.6 860.563 319.627 859.79 319.61C859.042 319.627 858.293 319.6 857.548 319.53C854.668 319.383 854.104 318.213 853.871 315.886C853.099 308.506 852.646 300.762 852.646 293.178C852.646 291.429 852.646 289.681 852.708 287.921C852.646 285.605 852.72 283.993 854.546 283.561Z" fill="white"/>
<path d="M915.18 345.814C908.052 345.909 901.009 344.369 894.679 341.329L894.483 341.239C892.307 340.214 890.483 338.646 889.219 336.712C887.954 334.778 887.299 332.555 887.326 330.294C887.491 327.417 888.195 324.589 889.409 321.937C884.851 317.736 882.118 311.548 882.118 304.293C882.118 288.012 895.206 274.251 910.683 274.251C911.382 274.251 912.068 274.251 912.729 274.319C914.208 273.554 915.876 273.163 917.569 273.184C920.656 273.315 923.716 273.78 926.687 274.569C932.887 276.329 936.073 280.473 936.49 287.263C936.6 289.397 936.784 293.609 936.784 298.787C936.784 308.619 936.27 322.13 934.824 330.577C934.037 334.866 931.629 338.754 928.029 341.546C924.43 344.338 919.875 345.851 915.18 345.814V345.814Z" stroke="white" stroke-width="0.73" stroke-miterlimit="10"/>
<path d="M915.18 337.015C909.243 337.121 903.372 335.84 898.11 333.291C897.454 333.05 896.887 332.639 896.476 332.108C896.066 331.576 895.828 330.946 895.794 330.294C896.115 328.201 896.75 326.16 897.681 324.231C898.244 323.095 898.735 322.63 899.581 322.63C900.19 322.662 900.786 322.809 901.333 323.061C905.525 324.555 909.991 325.277 914.481 325.184C914.972 322.187 915.315 318.758 915.597 315.182C912.687 317.61 908.913 318.96 904.997 318.974C896.002 318.974 890.585 312.548 890.585 304.293C890.585 292.315 900.634 283.05 910.683 283.05C912.432 283.032 914.17 283.302 915.818 283.845C915.952 282.392 916.442 281.949 917.57 281.949C919.927 282.094 922.261 282.475 924.53 283.084C926.846 283.743 927.826 284.39 928.035 287.83C928.182 290.453 928.317 294.325 928.317 298.787C928.317 308.858 927.753 321.642 926.491 329.011C925.719 333.291 921.369 337.015 915.18 337.015ZM916.234 296.925V293.78C914.94 293.288 913.552 293.041 912.153 293.053C906.467 293.053 903.306 298.673 903.306 302.397C903.306 305.906 905.622 308.165 909.433 308.165C912.008 308.058 914.432 307.009 916.173 305.247C916.259 302.329 916.259 299.547 916.259 296.925H916.234Z" fill="white"/>
<path d="M999.429 328.942C997.648 328.956 995.868 328.827 994.11 328.556C991.818 328.328 989.634 327.531 987.789 326.25C985.943 324.97 984.503 323.253 983.621 321.279C982.77 322.998 981.496 324.51 979.903 325.693C978.309 326.876 976.439 327.697 974.442 328.091C971.97 328.643 969.437 328.928 966.893 328.942C960.19 328.942 955.632 326.138 953.414 320.62C947.005 304.793 943.61 289.045 940.289 273.808C940.289 273.649 940.228 273.479 940.204 273.32V273.173C940.053 272.359 939.975 271.535 939.971 270.709C939.872 268.321 940.595 265.966 942.035 263.984C943.476 262.003 945.56 260.497 947.985 259.684H948.156C951.275 258.713 954.526 258.152 957.813 258.015H958.058C963.965 258.015 968.303 261.421 970.019 267.257C970.616 264.987 971.942 262.938 973.821 261.38C975.7 259.821 978.044 258.826 980.545 258.526H980.655C981.806 258.399 982.964 258.33 984.123 258.322C985.809 258.305 987.49 258.492 989.123 258.878C993.89 260.116 996.708 262.772 998.289 267.621C999.76 261.546 1004.15 258.027 1010.34 258.027C1013.24 258.118 1016.13 258.556 1018.91 259.332C1021.66 259.962 1024.09 261.452 1025.78 263.55C1027.48 265.649 1028.34 268.226 1028.21 270.845C1028.2 272.051 1028.07 273.253 1027.8 274.433C1024.5 289.559 1019.99 304.437 1014.29 318.94C1012.09 324.617 1008.4 327.966 1003.33 328.738C1002.04 328.909 1000.73 328.978 999.429 328.942V328.942Z" stroke="white" stroke-width="0.73" stroke-miterlimit="10"/>
<path d="M983.829 293.564C981.93 300.717 979.687 307.802 977.016 315.136C976.035 317.838 975.251 318.86 972.653 319.439C970.767 319.865 968.834 320.086 966.893 320.098C964.222 320.098 962.188 319.655 961.134 317.1C955.166 302.341 951.857 287.388 948.487 271.833C948.412 271.458 948.368 271.078 948.353 270.697C948.312 270.1 948.5 269.509 948.883 269.027C949.266 268.545 949.82 268.204 950.448 268.063C952.864 267.306 955.378 266.852 957.923 266.712C960.105 266.712 961.22 267.518 961.857 270.005C964.528 280.882 966.991 291.986 970.214 303.01C973.168 292.712 975.631 282.199 977.665 270.947C978.082 268.54 979.209 267.45 981.464 267.155C982.302 267.06 983.145 267.01 983.988 267.007C984.982 266.993 985.974 267.092 986.942 267.303C988.903 267.814 989.687 268.245 990.459 271.458C992.848 280.961 995.226 290.76 998.179 300.819C1001.28 290.885 1003.73 280.666 1006.33 269.789C1006.82 267.666 1007.74 266.712 1010.2 266.712C1012.39 266.802 1014.56 267.146 1016.66 267.734C1018.84 268.325 1019.61 269.131 1019.61 270.732C1019.6 271.297 1019.53 271.859 1019.4 272.412C1016.24 287.073 1011.89 301.495 1006.4 315.556C1005.27 318.474 1003.95 319.644 1002.05 319.939C1001.17 320.06 1000.27 320.109 999.38 320.087C998.013 320.104 996.647 320.005 995.299 319.791C992.211 319.36 991.513 318.474 990.52 315.852C987.814 308.552 985.579 301.11 983.829 293.564Z" fill="white"/>
<path d="M1053.51 328.432C1050.9 328.357 1048.3 328.053 1045.75 327.523H1045.66C1044.07 327.168 1042.58 326.485 1041.31 325.525C1039.16 327.251 1036.42 328.227 1033.57 328.284C1032.58 328.368 1031.59 328.403 1030.6 328.386C1029.63 328.402 1028.66 328.368 1027.69 328.284C1023.77 328.023 1017.33 326.161 1016.23 316.93C1016.23 316.873 1016.23 316.828 1016.23 316.783C1015.57 310.515 1014.91 299.116 1014.91 287.796C1014.91 283.039 1015.13 278.202 1015.32 273.933L1015.41 271.821C1015.64 264.85 1018.47 260.638 1023.83 259.332C1027.34 258.584 1030.94 258.204 1034.55 258.197C1039.45 258.197 1044.7 261.603 1044.7 269.04C1044.7 269.846 1044.7 271.311 1044.57 274.092C1045.47 274.013 1046.36 273.967 1047.27 273.967C1059.02 273.967 1066.62 281.518 1066.62 293.212C1066.53 301.318 1065.97 309.414 1064.93 317.464C1063.92 325.536 1058.41 328.432 1053.51 328.432Z" stroke="white" stroke-width="0.73" stroke-miterlimit="10"/>
<path d="M1025.85 267.848C1028.71 267.259 1031.63 266.966 1034.56 266.973C1036.03 266.973 1036.25 267.768 1036.25 269.017C1036.25 270.845 1035.9 279.746 1035.82 286.468C1039.07 284.053 1043.12 282.739 1047.28 282.744C1051.14 282.744 1058.16 283.879 1058.16 293.189C1058.07 300.901 1057.54 308.602 1056.56 316.26C1056.34 317.941 1055.92 319.666 1053.53 319.666C1051.5 319.593 1049.48 319.35 1047.49 318.94C1045.87 318.565 1045.24 317.475 1045.24 315.727C1045.24 314.591 1046.01 308.131 1046.01 297.754C1046.01 295.426 1045.1 293.893 1043.35 293.893C1040.6 294.055 1037.97 294.999 1035.82 296.595C1035.9 304.044 1036.11 310.901 1036.52 315.284C1036.6 315.792 1036.65 316.304 1036.67 316.817C1036.67 318.497 1035.97 319.371 1032.99 319.519C1032.22 319.589 1031.45 319.615 1030.68 319.598C1029.93 319.615 1029.17 319.589 1028.42 319.519C1025.54 319.371 1024.98 318.202 1024.75 315.874C1024.11 309.811 1023.52 298.844 1023.52 287.83C1023.52 282.494 1023.8 277.09 1024.01 272.196C1023.95 269.903 1024.02 268.29 1025.85 267.848Z" fill="white"/>
<path d="M1081.5 329.385C1064.19 329.385 1053 318.815 1053 302.477C1052.95 298.591 1053.73 294.733 1055.31 291.131C1056.88 287.528 1059.21 284.252 1062.17 281.495C1067.25 276.734 1074.14 274.004 1081.36 273.888C1083.98 273.912 1086.57 274.295 1089.07 275.023L1089.51 275.171C1091.03 275.672 1092.41 276.467 1093.57 277.503C1094.73 278.539 1095.63 279.791 1096.23 281.177C1103.93 285.355 1108.65 293.462 1108.65 303.192C1108.65 319.587 1094.84 329.385 1081.5 329.385Z" stroke="white" stroke-width="0.73" stroke-miterlimit="10"/>
<path d="M1088.66 285.821C1088.66 286.386 1088.59 286.95 1088.46 287.501C1095.81 289.329 1100.18 295.244 1100.18 303.203C1100.18 314.444 1090.49 320.586 1081.5 320.586C1069.24 320.586 1061.47 314.228 1061.47 302.477C1061.47 290.499 1071.66 282.676 1081.36 282.676C1083.17 282.704 1084.97 282.975 1086.69 283.482C1087.89 283.925 1088.66 284.288 1088.66 285.821ZM1081.57 293.485C1076.79 293.996 1073.21 297.72 1073.21 302.908C1073.21 307.223 1076.72 309.721 1080.8 309.721C1084.66 309.721 1088.87 307.245 1088.87 302.908C1088.91 301.686 1088.49 300.49 1087.71 299.51C1086.92 298.53 1085.8 297.824 1084.52 297.504C1082.34 296.777 1081.69 296.414 1081.57 293.485Z" fill="white"/>
<path d="M469.293 259.764C453.092 219.14 450.31 188.235 463.165 180.287C467.871 177.381 472.969 176.745 483.067 187.803" stroke="white" stroke-width="5" stroke-miterlimit="10" stroke-linecap="round"/>
<path d="M488.581 229.245C480.824 243.244 478.275 243.482 470.518 257.493" stroke="white" stroke-width="4" stroke-miterlimit="10" stroke-linecap="round"/>
<path d="M1078.4 273.525C1062.21 149.609 1059.41 50.7174 1072.27 26.5565C1076.97 17.7119 1086.35 10.4341 1096.4 44.1776" stroke="white" stroke-width="4.33" stroke-miterlimit="10" stroke-linecap="round"/>
<path d="M1091.5 89.5929C1083.74 132.306 1086.42 229.177 1078.67 271.901" stroke="white" stroke-width="4.33" stroke-miterlimit="10" stroke-linecap="round"/>
</g>
<defs>
<clipPath id="clip0_447:450">
<rect width="1438" height="525" fill="white"/>
</clipPath>
</defs>
</svg>
