<svg width="129" height="89" viewBox="0 0 129 89" fill="none" xmlns="http://www.w3.org/2000/svg">
<g clip-path="url(#clip0)">
<path d="M43.2336 20.1258C49.417 17.8163 55.7474 15.9141 62.1837 14.4316C68.0602 13.1255 66.0048 14.0946 74.8196 12.4412C78.509 11.7464 81.2127 11.1352 84.5832 12.1565C87.0419 12.8983 89.2265 14.3192 89.1764 14.4316C89.1448 14.5021 88.2831 14.0842 86.8785 13.8621C85.9061 13.7106 84.3645 13.6009 84.2959 13.8621C84.1616 14.3845 90.0197 14.6457 92.9079 18.4175C95.7434 22.1005 94.6814 27.7634 94.3441 27.8209C94.2203 27.8365 94.1676 27.0973 93.4824 26.1126C92.705 24.992 91.6166 24.2842 91.4743 24.4043C91.2398 24.6185 94.0015 26.7552 94.6366 30.3807C94.9002 31.8826 94.8211 33.7894 94.0621 34.0819C93.5694 34.2726 93.2716 33.5961 92.0541 33.2278C90.5678 32.7759 90.0381 33.489 88.32 33.2278C86.6018 32.9666 85.5187 31.9766 85.4475 32.0889C85.3764 32.2013 86.2381 33.0162 87.4582 33.5125C88.5123 33.9383 89.1105 33.8181 89.1817 34.0819C89.3214 34.6043 87.2369 35.6648 85.4475 36.357C84.9943 36.5346 82.2536 37.5794 79.7054 37.7806C73.3571 38.2795 66.2814 33.6744 60.4681 29.8112C56.286 27.0346 55.9118 26.2876 52.428 24.4043C48.4962 22.2729 43.2336 20.1258 43.2336 20.1258Z" fill="black" stroke="black" stroke-width="1.09" stroke-linecap="round" stroke-linejoin="round"/>
<path d="M27.6807 61.7721C28.5061 63.8834 29.0225 66.1008 29.2144 68.357C29.723 74.4588 27.4698 77.1962 28.7031 79.4974C29.7045 81.3702 33.0618 83.0576 44.0323 81.5243" fill="#FFD1C0"/>
<path d="M27.6807 61.7721C28.5061 63.8834 29.0225 66.1008 29.2144 68.357C29.723 74.4588 27.4698 77.1962 28.7031 79.4974C29.7045 81.3702 33.0618 83.0576 44.0323 81.5243" stroke="black" stroke-width="1.94" stroke-miterlimit="10"/>
<path d="M43.2495 18.7963C43.2495 18.7963 40.9542 23.255 39.5207 26.7055C37.0541 32.6505 38.2926 32.836 35.7918 38.7209C33.9629 43.0255 33.0485 45.1779 31.4911 46.6302C30.7347 47.2648 30.1443 48.0714 29.7703 48.981C29.1431 50.5926 29.6754 51.58 29.1958 51.9117C28.1417 52.6352 25.5249 48.0171 21.7381 47.8082C19.398 47.6802 17.0842 49.2579 16.0012 51.0314C12.6755 56.4697 19.1503 66.6305 23.4589 66.5626C24.6658 66.5417 25.3457 65.7268 26.9005 65.9749C29.0904 66.3275 30.4528 68.3754 31.2038 69.4907C35.4677 75.8249 38.1003 79.7351 41.2441 82.6763C44.5619 85.7846 47.6557 87.0645 48.4146 87.3649C51.2366 88.4848 54.2701 88.9848 57.3059 88.8303C62.4947 88.556 65.7597 86.4298 71.075 82.9715C72.2688 82.1878 73.7682 81.1065 74.8039 79.1605C75.1983 78.4199 75.4875 77.6288 75.663 76.8097C76.5089 72.6774 73.2148 70.3867 72.7958 65.382C72.6772 63.9689 72.9065 62.7699 73.3677 60.4008C74.6484 53.8054 76.7434 53.0505 78.5328 46.335C79.5552 42.4953 80.2536 37.5455 80.2536 37.5455C80.2536 37.5455 70.4241 34.6592 61.6092 28.756C56.1622 25.0991 55.0554 22.9572 50.1354 21.1367C48.4568 20.5176 43.2522 18.7963 43.2495 18.7963Z" fill="#FFD1C0" stroke="black" stroke-width="1.11" stroke-miterlimit="10"/>
<path d="M65.823 75.5324L65.802 75.5872C65.5885 76.1906 65.7018 76.5093 65.578 76.8462C65.2064 77.8675 63.0376 78.0504 61.8464 77.9851C59.6961 77.8649 58.1255 76.794 58.1123 76.2768C58.1123 76.222 58.1123 75.7074 58.1123 75.7074C58.1123 75.7074 59.8595 74.8846 61.9545 74.02L62.218 73.9155C62.218 73.9155 62.218 73.9155 62.2312 73.9155C63.0978 74.1267 63.9344 74.4444 64.7215 74.8611C65.1021 75.0624 65.47 75.2866 65.823 75.5324Z" fill="#FF6699" stroke="black" stroke-width="1.09" stroke-linecap="round" stroke-linejoin="round"/>
<path d="M67.8812 74.2942C67.3699 74.4797 66.9351 74.2289 66.445 74.579C66.1725 74.8011 65.9725 75.0983 65.8705 75.4331C65.8541 75.4687 65.8401 75.5054 65.8283 75.5428C65.4738 75.2941 65.1042 75.0673 64.7215 74.8637C63.9344 74.4469 63.0978 74.1293 62.2312 73.9181C65.13 72.7427 68.54 71.5542 69.0301 72.3039C69.3121 72.7401 68.6981 73.9991 67.8812 74.2942Z" fill="#FF0033" stroke="black" stroke-width="1.09" stroke-linecap="round" stroke-linejoin="round"/>
<path d="M57.5643 73.9912C57.7532 74.0514 57.926 74.1532 58.0698 74.2889C58.2135 74.4245 58.3245 74.5907 58.3944 74.7748C58.5526 75.1681 58.5526 75.6066 58.3944 75.9999C58.3175 76.1982 58.2018 76.3795 58.0539 76.5333C57.906 76.687 57.7288 76.8102 57.5326 76.8958C57.3533 76.9759 57.1588 77.0173 56.9621 77.0173C56.7654 77.0173 56.5709 76.9759 56.3916 76.8958H56.3784C56.3736 76.8909 56.3708 76.8843 56.3708 76.8775C56.3708 76.8707 56.3736 76.8641 56.3784 76.8592C56.3802 76.855 56.3831 76.8513 56.3868 76.8486C56.3905 76.8458 56.3949 76.8441 56.3995 76.8436C56.7176 76.8068 57.0231 76.6987 57.2928 76.5275C57.5565 76.3485 57.7566 76.0917 57.8647 75.7935C57.9828 75.5008 58.0103 75.1798 57.9437 74.8715C57.876 74.5615 57.7311 74.2732 57.5221 74.033C57.5171 74.0277 57.5143 74.0207 57.5143 74.0134C57.5143 74.0061 57.5171 73.9991 57.5221 73.9938C57.5298 73.9914 57.5381 73.9914 57.5458 73.9938L57.5643 73.9912Z" fill="black"/>
<path d="M57.4824 33.1102C57.1515 32.594 56.7673 32.1134 56.336 31.6762C56.1576 31.4973 55.9511 31.3482 55.7247 31.2347C55.6292 31.1908 55.5306 31.1541 55.4295 31.125C55.3337 31.1007 55.2357 31.0859 55.137 31.0806C54.3464 31.044 53.3345 31.5142 52.4095 32.1254C51.4425 32.7819 50.5215 33.5027 49.6531 34.283C48.7465 35.0849 47.8506 35.9416 46.8281 36.7853L46.8123 36.7984C46.801 36.8092 46.7858 36.8153 46.7701 36.8153C46.7544 36.8153 46.7392 36.8092 46.7279 36.7984C46.7202 36.7887 46.7161 36.7767 46.7161 36.7644C46.7161 36.7521 46.7202 36.7401 46.7279 36.7305C47.0468 36.1898 47.3894 35.6595 47.7504 35.1423C48.1114 34.6252 48.5067 34.1315 48.9231 33.6561C49.7411 32.6858 50.6889 31.8308 51.7402 31.1146C52.2747 30.7608 52.8543 30.4789 53.4636 30.2761C54.0816 30.0572 54.7496 30.0164 55.39 30.1586C55.7101 30.2414 56.0079 30.393 56.2622 30.6026C56.5112 30.8128 56.7263 31.0594 56.9 31.334C57.2254 31.8813 57.4636 32.4751 57.6062 33.0945C57.6082 33.1019 57.6087 33.1096 57.6076 33.1171C57.6065 33.1247 57.604 33.132 57.6 33.1385C57.5961 33.1451 57.5909 33.1508 57.5847 33.1554C57.5786 33.1599 57.5715 33.1632 57.5641 33.165C57.5524 33.1686 57.5398 33.1682 57.5284 33.1639C57.517 33.1597 57.5073 33.1518 57.5008 33.1415L57.4824 33.1102Z" fill="black"/>
<path d="M70.3506 33.7868C70.438 33.273 70.6164 32.7787 70.8776 32.3266C71.0235 32.0829 71.2006 31.859 71.4047 31.6606C71.6625 31.4089 71.9877 31.2357 72.3417 31.1617C72.6957 31.0876 73.0638 31.1157 73.4022 31.2426C73.714 31.3589 74.0023 31.5297 74.2534 31.7468C74.4749 31.941 74.6779 32.1553 74.8595 32.3867C75.0226 32.6093 75.1722 32.8413 75.3075 33.0815C75.7959 33.9955 76.107 34.9923 76.2245 36.0201C76.367 37.0179 76.3322 38.0327 76.1218 39.0187C76.1218 39.0305 76.117 39.0417 76.1086 39.0501C76.1002 39.0584 76.0888 39.0631 76.077 39.0631C76.0651 39.0631 76.0537 39.0584 76.0453 39.0501C76.0369 39.0417 76.0322 39.0305 76.0322 39.0187C75.9123 38.0672 75.7363 37.1235 75.5051 36.1924C75.2787 35.2635 74.9371 34.366 74.4879 33.5203C74.2682 33.1002 73.9847 32.7161 73.6473 32.3815C73.4919 32.212 73.2996 32.0799 73.085 31.9953C72.8703 31.9106 72.639 31.8757 72.4087 31.893C71.951 32.0062 71.5468 32.2729 71.265 32.6479C70.9516 33.0106 70.677 33.4045 70.4455 33.8233C70.4389 33.8335 70.4287 33.8407 70.417 33.8436C70.4052 33.8466 70.3928 33.8449 70.3822 33.839C70.3744 33.8347 70.3682 33.8282 70.3644 33.8202C70.3606 33.8122 70.3595 33.8033 70.3611 33.7946L70.3506 33.7868Z" fill="black"/>
<path d="M51.7272 61.3672C54.9378 61.3672 57.5405 57.0028 57.5405 51.6191C57.5405 46.2354 54.9378 41.871 51.7272 41.871C48.5165 41.871 45.9138 46.2354 45.9138 51.6191C45.9138 57.0028 48.5165 61.3672 51.7272 61.3672Z" fill="white"/>
<path d="M57.5431 51.6165C57.5498 52.6503 57.4572 53.6823 57.2664 54.6987C57.0853 55.7199 56.7847 56.7166 56.3704 57.6686C55.9618 58.6382 55.3747 59.524 54.6391 60.2806C54.2535 60.6635 53.8087 60.9827 53.3214 61.2262C52.8223 61.4752 52.275 61.615 51.7166 61.6363C51.1509 61.6507 50.5885 61.5457 50.0669 61.3281C49.5511 61.1101 49.0742 60.8111 48.6544 60.4426C47.8437 59.7037 47.1842 58.8169 46.7123 57.8305C45.8119 55.8777 45.3459 53.7557 45.3459 51.6087C45.3459 49.4616 45.8119 47.3396 46.7123 45.3868C47.1829 44.3996 47.8425 43.5125 48.6544 42.7747C49.0742 42.4062 49.5511 42.1072 50.0669 41.8893C50.5894 41.6716 51.1526 41.5665 51.7192 41.581C52.2774 41.6038 52.8244 41.7436 53.3241 41.9911C53.8117 42.2351 54.2566 42.5553 54.6417 42.9393C55.3774 43.6953 55.9638 44.5813 56.3704 45.5513C56.7844 46.5035 57.0851 47.5001 57.2664 48.5212C57.458 49.5419 57.5506 50.5784 57.5431 51.6165ZM57.5431 51.6165C57.5622 49.5482 57.1119 47.5022 56.2255 45.6297C55.7835 44.7088 55.166 43.8813 54.4072 43.1927C54.0321 42.8653 53.6058 42.6006 53.1449 42.4091C52.7005 42.2209 52.2196 42.1325 51.7367 42.1501C51.2538 42.1677 50.7808 42.2909 50.3515 42.5109C49.9232 42.7307 49.5328 43.0163 49.1946 43.3572C48.5131 44.0668 47.969 44.8947 47.5898 45.7995C47.1944 46.7115 46.9078 47.6661 46.736 48.644C46.3793 50.6116 46.3793 52.6266 46.736 54.5942C46.9075 55.5722 47.194 56.5269 47.5898 57.4387C47.9683 58.3447 48.5124 59.1735 49.1946 59.8836C49.5337 60.2245 49.925 60.5102 50.3542 60.7299C50.7805 60.9466 51.2486 61.0704 51.7271 61.093C52.2139 61.1064 52.698 61.0174 53.1475 60.8318C53.6095 60.6409 54.0369 60.3762 54.4124 60.0482C55.1707 59.3596 55.7873 58.5321 56.2281 57.6111C57.1141 55.7358 57.5635 53.6871 57.5431 51.6165Z" fill="black"/>
<path d="M73.3273 52.7545C74.8395 47.8304 74.3667 43.3262 72.2712 42.6939C70.1758 42.0617 67.2512 45.5409 65.739 50.465C64.2268 55.3891 64.6997 59.8934 66.7951 60.5256C68.8906 61.1578 71.8151 57.6786 73.3273 52.7545Z" fill="white"/>
<path d="M65.7361 50.4567C65.1941 52.1829 64.917 53.9801 64.9139 55.7879C64.9143 56.6835 65.0475 57.5741 65.3092 58.4313C65.4359 58.8478 65.63 59.2412 65.8837 59.5963C66.1186 59.9336 66.4611 60.1829 66.8561 60.3041C67.2512 60.3935 67.6652 60.3484 68.0314 60.1761C68.4185 60.0006 68.7744 59.7642 69.0855 59.4761C69.7252 58.8781 70.2794 58.1961 70.7325 57.4492C71.205 56.6987 71.6174 55.9127 71.9658 55.0983C72.675 53.4727 73.1966 51.7728 73.5206 50.031C73.6848 49.1636 73.7826 48.2852 73.8131 47.4033C73.8553 46.5324 73.7781 45.6599 73.5838 44.8095C73.486 44.3989 73.3223 44.0064 73.0989 43.6472C72.901 43.2887 72.5742 43.0174 72.1835 42.8872C71.7928 42.757 71.3669 42.7774 70.9907 42.9445C70.5796 43.0971 70.1967 43.316 69.8576 43.5923C69.1588 44.1598 68.5479 44.8261 68.0446 45.5696C67.0314 47.0743 66.2532 48.7219 65.7361 50.4567ZM65.7361 50.4567C65.9958 49.5901 66.31 48.7404 66.6769 47.9126C67.0361 47.0795 67.4599 46.2752 67.9444 45.5069C68.4209 44.7232 69.0044 44.0086 69.6784 43.3833C70.0261 43.0587 70.426 42.7939 70.8616 42.5997C71.3216 42.3892 71.8399 42.3395 72.3321 42.4587C72.8237 42.6102 73.2503 42.92 73.5443 43.3389C73.8278 43.737 74.0441 44.1781 74.1847 44.645C74.4592 45.5435 74.5977 46.4775 74.5958 47.4163C74.5668 51.1337 73.4509 54.7629 71.3834 57.8645C70.8562 58.6437 70.217 59.3424 69.486 59.9384C69.1079 60.2448 68.6826 60.4891 68.2264 60.662C67.7477 60.849 67.2193 60.8701 66.7269 60.722C66.2509 60.5501 65.8477 60.2232 65.5832 59.7948C65.3307 59.3965 65.1464 58.9597 65.0378 58.5018C64.827 57.6105 64.7436 56.6943 64.79 55.7801C64.8178 54.8743 64.9174 53.9721 65.0878 53.0818C65.2488 52.1943 65.4653 51.3176 65.7361 50.4567Z" fill="black"/>
<path d="M51.6269 61.0852C53.7838 61.0852 55.5323 59.0456 55.5323 56.5298C55.5323 54.0139 53.7838 51.9744 51.6269 51.9744C49.47 51.9744 47.7214 54.0139 47.7214 56.5298C47.7214 59.0456 49.47 61.0852 51.6269 61.0852Z" fill="#00DBDE" stroke="black" stroke-width="1.09" stroke-miterlimit="10"/>
<path d="M70.7622 57.4902C71.417 55.358 70.7322 53.2628 69.2326 52.8103C67.7331 52.3579 65.9867 53.7196 65.3319 55.8518C64.6771 57.984 65.3619 60.0793 66.8614 60.5317C68.3609 60.9842 70.1074 59.6224 70.7622 57.4902Z" fill="#00DBDE" stroke="black" stroke-width="1.09" stroke-miterlimit="10"/>
<path d="M70.3214 80.7747C70.3214 81.5269 70.1791 82.7311 69.3437 83.6819C67.8654 85.364 64.7321 85.6513 61.8491 84.0031" fill="#FFD1C0"/>
<path d="M70.3347 80.7747C70.3854 81.2461 70.365 81.7223 70.2741 82.1878C70.173 82.6632 69.9855 83.1164 69.7207 83.5251C69.4479 83.9392 69.0884 84.2902 68.6666 84.5543C68.2547 84.8265 67.8007 85.0303 67.3226 85.1577C66.8479 85.2761 66.36 85.334 65.8706 85.3301C65.3863 85.337 64.903 85.2843 64.4317 85.1734C64.1983 85.1191 63.9678 85.0528 63.7413 84.9748C63.5132 84.901 63.2896 84.8138 63.072 84.7136C62.6412 84.5156 62.2293 84.2796 61.8413 84.0084L61.8571 83.9849C62.67 84.4465 63.5541 84.7722 64.4739 84.9487C64.9334 85.0341 65.4005 85.0726 65.8679 85.0636C66.3347 85.0604 66.7989 84.9963 67.2488 84.873C67.7023 84.7621 68.1342 84.5777 68.5269 84.327C68.9222 84.0822 69.2658 83.7638 69.5388 83.3893C70.0603 82.618 70.3282 81.7055 70.3057 80.7773L70.3347 80.7747Z" fill="black"/>
<path d="M19.0186 15.5469C18.6813 15.3458 18.8025 14.8364 18.6944 14.1834C18.2596 11.5191 15.4979 10.9053 13.6163 8.57536C11.2683 5.67077 11.4106 0.9482 12.7467 0.235114C13.1921 -0.00258197 13.7165 0.235114 14.6335 0.6661C20.5338 3.44009 25.0375 5.6995 24.7871 5.55584C24.6132 8.36117 24.6843 8.99328 24.7871 9.00634C24.8899 9.0194 24.9769 8.60409 25.3695 7.56972C25.5988 6.96111 25.8043 6.46483 25.9493 6.13049C26.3973 6.39169 26.7925 6.65289 27.1298 6.9141C27.4672 7.1753 27.6569 7.31374 27.981 7.57233C29.2776 8.61715 30.503 9.57315 30.5056 9.57315C30.5056 9.57315 27.0613 10.443 24.181 12.1356C21.1558 13.9144 19.7828 16.004 19.0186 15.5469Z" fill="#FF007C" stroke="black" stroke-width="1.09" stroke-miterlimit="10"/>
<path d="M18.0092 50.5586C16.9551 53.4319 16.7759 54.7118 16.7206 55.6782C16.6758 56.5193 16.4386 60.7508 19.1081 64.2823C21.5905 67.5708 25.3483 68.6209 25.1375 69.1224C25.0084 69.4332 23.3614 69.0362 22.555 68.8377C17.4822 67.5943 14.9471 66.9727 13.3659 66.2753C12.1273 65.732 0.590264 60.6515 0.158084 52.0449C-2.99811e-05 48.8948 1.37557 46.2017 1.8789 45.2144C3.64978 41.7561 5.56823 41.2572 7.62372 38.6686C11.1286 36.5346 14.0089 34.808 15.9511 33.5438C17.8326 32.3188 20.294 30.7698 23.227 29.0642C25.7252 27.6145 27.5382 26.648 31.1696 24.7229C35.386 22.4897 36.2187 22.137 36.9118 21.8758C39.2197 20.9982 41.6326 20.4205 44.0902 20.1571C31.9892 26.4521 26.0309 35.7013 22.8422 40.6486C20.8886 43.7767 19.2688 47.098 18.0092 50.5586Z" fill="#DD5E00" stroke="black" stroke-width="1.09" stroke-miterlimit="10"/>
<path d="M25.4248 69.4071C22.8828 68.313 20.7116 66.5177 19.1698 64.2351C17.628 61.9525 16.7806 59.2788 16.7285 56.5323C17.5662 58.7759 18.7272 60.8875 20.1754 62.8012C21.6801 64.7785 23.0742 66.6096 24.7686 66.4999C25.6541 66.445 26.1679 65.8913 27.641 65.9331C28.6556 65.9592 29.6544 66.257 29.6517 66.4999C29.6517 66.5913 29.4567 66.6383 29.1247 66.735C28.5239 66.9126 27.9441 67.1555 27.3485 67.354C26.8215 67.5238 26.1152 68.007 25.4248 69.4071Z" fill="black" stroke="black" stroke-width="1.09" stroke-linecap="round" stroke-linejoin="round"/>
<path d="M44.8622 20.1023C43.5372 22.4946 42.4142 24.9915 41.5049 27.5675C39.7946 32.4154 40.232 33.5909 38.2582 38.6008C37.0645 41.6281 35.7785 44.8932 33.9496 46.5701C33.1876 47.2478 32.5391 48.0413 32.0285 48.9209C31.6087 49.6104 31.2893 50.3552 31.0798 51.1333C30.8769 51.9169 30.9534 52.1259 30.7926 52.2696C30.3736 52.6405 28.8636 52.0867 24.2941 48.3672H24.4153L24.2757 48.3411C23.0555 48.1347 20.8867 48.2836 17.8694 51.1229C18.2383 50.0023 18.7996 48.4194 19.5928 46.5675C22.0057 40.9642 25.3013 35.7765 29.3564 31.1982C32.1708 28.0089 34.7323 25.1618 39.1068 22.6595C40.9354 21.6208 42.8632 20.7642 44.8622 20.1023Z" fill="black" stroke="black" stroke-width="1.09" stroke-linecap="round" stroke-linejoin="round"/>
<path d="M18.6839 50.394L18.4942 50.6552C18.445 50.7256 18.3913 50.7928 18.3334 50.8564C18.2992 50.8877 18.2728 50.9034 18.2544 50.8903L18.3045 50.8276C18.423 50.684 18.5495 50.5377 18.6839 50.394Z" fill="black" stroke="black" stroke-width="1.09" stroke-linecap="round" stroke-linejoin="round"/>
<path d="M24.416 48.3672H24.2944L24.2759 48.3514L24.416 48.3672Z" fill="black" stroke="black" stroke-width="1.09" stroke-linecap="round" stroke-linejoin="round"/>
<path d="M16.9472 54.6073C16.9206 55.764 17.0681 56.9181 17.3847 58.0317C17.0013 56.9325 16.8523 55.7665 16.9472 54.6073Z" fill="black" stroke="black" stroke-width="1.09" stroke-linecap="round" stroke-linejoin="round"/>
<path d="M24.4154 48.3671H24.2942C23.5037 48.3096 21.2795 48.2678 19.3953 49.775C19.0647 50.0413 18.7627 50.3406 18.4941 50.6683C18.4361 50.7336 18.3834 50.8015 18.3333 50.8694C17.5275 51.9606 17.0497 53.2556 16.9551 54.6046C16.987 53.2666 17.4414 51.9721 18.2543 50.9034L18.3043 50.8407C18.4308 50.6814 18.5678 50.5351 18.6917 50.3914C19.3833 49.6231 20.2546 49.0348 21.2292 48.6782C22.2037 48.3216 23.2517 48.2076 24.281 48.3462L24.4154 48.3671Z" fill="black" stroke="black" stroke-width="1.09" stroke-linecap="round" stroke-linejoin="round"/>
<path d="M7.90316 37.9033C9.22078 35.8137 10.4409 33.5778 10.7729 32.2091C11.495 29.2418 10.4014 28.0559 11.3474 25.0939C11.632 24.2058 12.138 23.0669 13.6453 21.1105C14.5782 19.9064 17.9461 15.7506 22.8344 12.8565C35.647 5.28156 56.1149 8.01114 58.1466 8.30108C61.5856 8.79475 65.3857 10.0198 72.5034 10.8635C76.6829 11.3598 78.9993 11.4146 79.0257 11.8482C79.0968 13.0027 62.6635 13.1986 54.0462 17.2551C51.1589 18.6911 48.0555 19.6526 44.8571 20.1023C43.4209 20.2929 43.276 20.1963 41.9847 20.387C37.8052 20.9982 34.8037 22.6804 32.7956 23.8009C21.1927 30.284 22.6763 29.3123 21.024 30.3441C12.9734 35.4088 7.68443 39.6821 7.24171 39.1675C7.13894 39.0448 7.38929 38.7235 7.90316 37.9033Z" fill="#FFC100" stroke="black" stroke-width="1.09" stroke-miterlimit="10"/>
<path d="M38.2584 8.14175C31.2855 9.34851 25.8174 15.5887 22.555 19.3082C17.2555 25.3525 16.1092 29.6806 15.9511 30.9788L15.5742 34.0427C15.5742 34.0427 18.4203 31.9531 21.0292 30.3415C23.5827 28.7534 24.484 28.4869 25.6224 27.7817C29.7703 25.2088 28.7083 21.9882 32.3159 17.3178C37.2227 10.9654 45.7556 8.40034 48.9706 7.9145C49.3501 7.85704 50.6124 7.68726 50.6045 7.56188C50.5913 7.3503 46.9547 7.35292 43.7133 7.56188C41.7211 7.70554 39.4706 7.93801 38.2584 8.14175Z" fill="#135751" stroke="black" stroke-width="1.09" stroke-miterlimit="10"/>
<path d="M27.6411 56.9477C27.0948 56.2006 26.3789 55.5913 25.5514 55.1689C25.1865 54.9962 24.7942 54.8875 24.3919 54.8476C24.0143 54.8097 23.6329 54.8543 23.2745 54.9782C22.8923 55.092 22.5349 55.2753 22.2204 55.5189C21.8817 55.7666 21.5816 56.0623 21.3297 56.3965C21.0604 56.7485 20.8373 57.133 20.6656 57.5406C20.4844 57.9876 20.3451 58.4501 20.2493 58.9224H20.1649C20.1123 58.4286 20.1309 57.9299 20.2203 57.4414C20.3182 56.9527 20.4962 56.4833 20.7473 56.0517C21.238 55.1644 22.0438 54.4895 23.0084 54.158C23.4943 54.0053 24.0093 53.9659 24.5131 54.0431C25.0108 54.1321 25.4856 54.3186 25.9098 54.5916C26.7501 55.1494 27.3839 55.9638 27.7149 56.9111L27.6411 56.9477Z" fill="black"/>
<path d="M21.551 56.0804C21.296 56.4565 21.1375 56.8886 21.0893 57.3392C21.0412 57.7898 21.1048 58.2453 21.2747 58.666C21.4446 59.0866 21.7155 59.4598 22.064 59.7531C22.4126 60.0463 22.8281 60.2507 23.2744 60.3485" fill="#FFD1C0"/>
<path d="M21.5958 56.1119C21.6777 56.5598 21.785 57.0028 21.9173 57.4388C22.02 57.7758 22.1307 58.0213 22.2309 58.2851C22.331 58.5489 22.4311 58.8075 22.5919 59.1131C22.799 59.5194 23.0296 59.9136 23.2823 60.2938L23.2586 60.4035C22.7996 60.3107 22.3701 60.109 22.0069 59.8157C21.6312 59.5275 21.3401 59.145 21.1636 58.7078C20.9871 58.2706 20.9316 57.7946 21.0028 57.3291C21.0622 56.8689 21.2331 56.4297 21.5009 56.0492L21.5958 56.1119Z" fill="black"/>
<path d="M51.6558 60.6333C52.3689 60.6333 52.947 59.9328 52.947 59.0686C52.947 58.2045 52.3689 57.504 51.6558 57.504C50.9426 57.504 50.3645 58.2045 50.3645 59.0686C50.3645 59.9328 50.9426 60.6333 51.6558 60.6333Z" fill="black" stroke="black" stroke-width="1.08" stroke-miterlimit="10"/>
<path d="M68.7132 59.0805C68.8756 58.2916 68.5945 57.5686 68.0853 57.4656C67.5762 57.3626 67.0317 57.9186 66.8693 58.7075C66.7069 59.4964 66.988 60.2194 67.4972 60.3224C68.0063 60.4254 68.5508 59.8694 68.7132 59.0805Z" fill="black" stroke="black" stroke-width="0.890178" stroke-miterlimit="10"/>
<path d="M12.9653 0.177612C16.7935 4.16358 20.6216 8.14869 24.4497 12.1329L12.9653 0.177612Z" fill="#FFD1C0"/>
<path d="M13.018 0.128052C14.0563 1.04749 15.0682 1.99044 16.096 2.92032L17.6191 4.33343L19.1239 5.76222C19.6246 6.24022 20.1437 6.69733 20.6576 7.16227C21.1695 7.63227 21.651 8.13391 22.099 8.6642C23.0219 9.71868 23.8276 10.8685 24.5024 12.0938L24.3996 12.1904C23.1978 11.4626 22.0784 10.6088 21.0608 9.64371C20.5517 9.17407 20.0737 8.67239 19.6298 8.14179C19.1845 7.61938 18.7497 7.07346 18.2911 6.55628L16.9261 4.98906L15.5768 3.42183C14.6887 2.36135 13.7875 1.31131 12.9126 0.237758L13.018 0.128052Z" fill="black"/>
<path d="M18.4204 2.73999C18.3255 3.49748 18.2271 4.25323 18.1252 5.00724L18.4204 2.73999Z" fill="#FFD1C0"/>
<path d="M18.4625 2.74524C18.5073 2.94375 18.5336 3.13966 18.5626 3.33556C18.5916 3.53146 18.6074 3.72737 18.6206 3.92066C18.6338 4.11395 18.7207 4.31769 18.6338 4.50053C18.5406 4.71762 18.3812 4.90032 18.1779 5.02294H18.0909C17.9238 4.85508 17.8141 4.63946 17.7773 4.4065C17.7378 4.21059 17.8748 4.03297 17.9354 3.84752C17.996 3.66207 18.0619 3.47922 18.1357 3.29638C18.2095 3.11354 18.2859 2.92808 18.3781 2.74785L18.4625 2.74524Z" fill="black"/>
<path d="M21.7907 5.44348L21.4033 8.50479L21.7907 5.44348Z" fill="#FFD1C0"/>
<path d="M21.8463 5.45129C21.9069 5.71249 21.9411 5.9737 21.9807 6.2349L22.0281 6.62932L22.0571 7.02113C22.0695 7.15365 22.0898 7.28535 22.1177 7.41555C22.1397 7.54494 22.1251 7.67784 22.0755 7.79952C22.0227 7.93139 21.9489 8.05398 21.8568 8.16259C21.7469 8.29864 21.613 8.41371 21.4615 8.50215L21.3456 8.48648C21.2204 8.3642 21.1194 8.2198 21.0478 8.06072C20.9857 7.93399 20.9448 7.79815 20.9266 7.65847C20.9083 7.52811 20.9265 7.39528 20.9793 7.2745C21.0391 7.15486 21.0919 7.03188 21.1374 6.9062L21.2639 6.53268L21.4062 6.16177C21.5089 5.91623 21.6091 5.6707 21.7329 5.42517L21.8463 5.45129Z" fill="black"/>
<path d="M19.2583 9.72729L22.2124 10.6964L19.2583 9.72729Z" fill="#FFD1C0"/>
<path d="M19.2769 9.67236C19.5404 9.67236 19.8197 9.67236 20.0885 9.69848L20.4865 9.72983L20.8817 9.77685C21.0109 9.79252 21.1453 9.77685 21.2849 9.79513C21.4171 9.79873 21.5457 9.83851 21.6565 9.91006C21.7757 9.98672 21.8816 10.082 21.9701 10.1922C22.0854 10.3243 22.1748 10.4767 22.2336 10.6414L22.1967 10.7511C22.0509 10.8489 21.8884 10.9197 21.7171 10.9601C21.5796 10.9956 21.4372 11.0088 21.2955 10.9993C21.1632 10.9918 21.0356 10.9484 20.9265 10.8739C20.8196 10.7925 20.7078 10.7175 20.5919 10.6493L20.2335 10.4534L19.9067 10.2313C19.6827 10.0851 19.4561 9.93879 19.24 9.77162L19.2769 9.67236Z" fill="black"/>
<path d="M13.864 3.41125L16.1198 3.93366L13.864 3.41125Z" fill="#FFD1C0"/>
<path d="M13.8745 3.36948C14.0774 3.34597 14.275 3.33813 14.4753 3.3303C14.6756 3.32246 14.8732 3.3303 15.0682 3.3303C15.2632 3.3303 15.4793 3.27022 15.6532 3.3747C15.7504 3.42352 15.8393 3.48697 15.9168 3.56277C16.011 3.65304 16.0871 3.76031 16.1408 3.87883L16.1223 3.9598C16.0218 4.04287 15.9065 4.10664 15.7824 4.14787C15.6824 4.1833 15.5775 4.20356 15.4714 4.20794C15.2685 4.22623 15.1051 4.07473 14.9259 3.99637C14.7467 3.91801 14.5675 3.83442 14.3989 3.73516C14.2302 3.63591 14.0458 3.54971 13.8718 3.44262L13.8745 3.36948Z" fill="black"/>
</g>
<defs>
<clipPath id="clip0">
<rect width="128.478" height="89" fill="white"/>
</clipPath>
</defs>
</svg>
