<svg id="story2" xmlns="http://www.w3.org/2000/svg" viewBox="0 0 381.2 340.73"><defs><style>.cls-1,.cls-10,.cls-11,.cls-12,.cls-13,.cls-14,.cls-15,.cls-16,.cls-3,.cls-4,.cls-5,.cls-6,.cls-8{stroke:#000;}.cls-1,.cls-2,.cls-5,.cls-6{stroke-linecap:round;stroke-linejoin:round;}.cls-1,.cls-10,.cls-11,.cls-12,.cls-13,.cls-2,.cls-8{stroke-width:1.09px;}.cls-2{fill:none;stroke:#fff;}.cls-3,.cls-4,.cls-9{fill:#ffd1c0;}.cls-10,.cls-11,.cls-12,.cls-13,.cls-14,.cls-15,.cls-16,.cls-3,.cls-4,.cls-8{stroke-miterlimit:10;}.cls-3{stroke-width:1.94px;}.cls-4{stroke-width:1.11px;}.cls-5{fill:#f69;}.cls-5,.cls-6{stroke-width:1.5px;}.cls-6{fill:#f03;}.cls-7{fill:#fff;}.cls-8{fill:#00dbde;}.cls-10{fill:#ff007c;}.cls-11{fill:#dd5e00;}.cls-12{fill:#ffc100;}.cls-13{fill:#135751;}.cls-14{stroke-width:1.08px;}.cls-15{stroke-width:0.89px;}.cls-16{fill:#ff878a;stroke-width:1.79px;}</style></defs><path class="cls-1" d="M247.47,468.71a572.26,572.26,0,0,1,71.92-21.79c22.29-5,14.49-1.29,47.94-7.63,14-2.65,24.26-5,37.05-1.09,9.34,2.85,17.63,8.29,17.43,8.72-.11.27-3.39-1.33-8.71-2.18-3.69-.59-9.55-1-9.81,0-.51,2,21.72,3.05,32.69,17.44,10.75,14.1,6.73,35.78,5.45,35.95-.47.07-.67-2.76-3.27-6.53-3-4.29-7.09-7-7.63-6.54-.89.82,9.59,9,12,22.88,1,5.75.69,13.05-2.18,14.17-1.87.73-3-1.86-7.63-3.27-5.64-1.74-7.65,1-14.17,0s-10.63-4.79-10.89-4.36,3,3.55,7.63,5.45c4,1.63,6.26,1.17,6.53,2.18.54,2-7.38,6.06-14.16,8.71-1.72.68-12.13,4.68-21.79,5.45-24.1,1.91-50.95-15.72-73-30.51-15.86-10.63-17.28-13.49-30.51-20.7C267.45,476.94,247.48,468.71,247.47,468.71Z" transform="translate(-83.42 -391.67)"/><path class="cls-2" d="M198.26,566.05" transform="translate(-83.42 -391.67)"/><path class="cls-3" d="M188.45,628.16a90.9,90.9,0,0,1,5.82,25.21c1.93,23.36-6.61,33.84-1.94,42.65,3.8,7.17,16.54,13.63,58.17,7.76" transform="translate(-83.42 -391.67)"/><path class="cls-4" d="M247.54,463.62s-8.71,17.08-14.15,30.29c-9.37,22.76-4.67,23.47-14.15,46-6.94,16.48-10.41,24.72-16.33,30.28a23.35,23.35,0,0,0-6.53,9c-2.38,6.17-.35,9.94-2.18,11.22-4,2.77-13.93-14.91-28.3-15.71-8.87-.49-17.65,5.55-21.77,12.34-12.62,20.82,12,59.72,28.3,59.46,4.58-.08,7.16-3.2,13.07-2.25,8.3,1.35,13.47,9.19,16.32,13.46,16.18,24.25,26.17,39.22,38.1,50.48,12.6,11.9,24.34,16.8,27.21,18a79.77,79.77,0,0,0,33.74,5.61c19.7-1.05,32.09-9.19,52.25-22.43,4.53-3,10.22-7.14,14.15-14.59a34.29,34.29,0,0,0,3.27-9c3.2-15.82-9.3-24.59-10.89-43.75-.45-5.41.43-10,2.18-19.07,4.85-25.25,12.81-28.15,19.59-53.85,3.88-14.7,6.53-33.65,6.53-33.65s-37.3-11-70.75-33.65c-20.66-14-24.87-22.2-43.54-29.17C267.29,470.22,247.54,463.63,247.54,463.62Z" transform="translate(-83.42 -391.67)"/><path class="cls-2" d="M331.19,680.46" transform="translate(-83.42 -391.67)"/><path class="cls-5" d="M325.89,683.43c0,.09-.09.18-.12.26-1.28,2.76-.61,4.21-1.35,5.74-2.24,4.67-15.33,5.5-22.52,5.2-12.95-.55-22.43-5.43-22.52-7.8,0-.24,0-2.59,0-2.59s10.54-3.76,23.18-7.71q.78-.22,1.56-.48l.08,0a78.81,78.81,0,0,1,15,4.31A69.42,69.42,0,0,1,325.89,683.43Z" transform="translate(-83.42 -391.67)"/><path class="cls-6" d="M338.27,677.74c-3.08.85-5.69-.3-8.66,1.3a8.38,8.38,0,0,0-3.46,3.9c-.1.17-.17.34-.26.49a69.42,69.42,0,0,0-6.67-3.09,78.81,78.81,0,0,0-15-4.31c17.41-5.37,38.06-10.8,41-7.38C346.92,670.65,343.21,676.39,338.27,677.74Z" transform="translate(-83.42 -391.67)"/><path d="M276.85,679.94a5.06,5.06,0,0,1,3.16,3,6.38,6.38,0,0,1,0,4.69,6.21,6.21,0,0,1-3.28,3.43,5.27,5.27,0,0,1-4.33,0l0,0a.11.11,0,0,1-.05-.14.09.09,0,0,1,.08-.06,8,8,0,0,0,3.39-1.21,5.79,5.79,0,0,0,2.2-2.76,6.25,6.25,0,0,0,.3-3.53,7.27,7.27,0,0,0-1.6-3.21.1.1,0,0,1,0-.15.1.1,0,0,1,.09,0Z" transform="translate(-83.42 -391.67)"/><path d="M301.54,518.42a34.06,34.06,0,0,0-4.35-5.48,8.93,8.93,0,0,0-2.32-1.69,8.21,8.21,0,0,0-1.11-.42,5.94,5.94,0,0,0-1.12-.17c-3-.14-6.84,1.66-10.35,4a99.21,99.21,0,0,0-10.46,8.26c-3.44,3.07-6.83,6.35-10.72,9.58l-.06,0a.23.23,0,0,1-.32,0,.23.23,0,0,1,0-.26q1.83-3.12,3.88-6.08c1.4-2,2.88-3.87,4.45-5.69a53.45,53.45,0,0,1,10.69-9.73,27.67,27.67,0,0,1,6.55-3.21,13.13,13.13,0,0,1,7.3-.45,8.53,8.53,0,0,1,3.32,1.7,12.37,12.37,0,0,1,2.41,2.8,23.37,23.37,0,0,1,2.69,6.74.23.23,0,0,1-.17.27.23.23,0,0,1-.24-.09Z" transform="translate(-83.42 -391.67)"/><path d="M350.37,521a16.9,16.9,0,0,1,2-5.59,12.52,12.52,0,0,1,2-2.55,7.19,7.19,0,0,1,7.59-1.6,10.65,10.65,0,0,1,3.22,1.93,16.45,16.45,0,0,1,2.3,2.45,27.63,27.63,0,0,1,1.71,2.65,32,32,0,0,1,3.48,11.26,33.58,33.58,0,0,1-.39,11.48v.05a.18.18,0,0,1-.21.13.17.17,0,0,1-.13-.15,96.28,96.28,0,0,0-2-10.82A44.06,44.06,0,0,0,366,520a17.77,17.77,0,0,0-3.18-4.35,5.8,5.8,0,0,0-4.71-1.87,7.78,7.78,0,0,0-4.34,2.89,26.67,26.67,0,0,0-3.11,4.5.16.16,0,0,1-.23.06.16.16,0,0,1-.09-.17Z" transform="translate(-83.42 -391.67)"/><ellipse class="cls-7" cx="196.29" cy="197.62" rx="22.06" ry="37.32"/><path d="M301.77,589.28a61.51,61.51,0,0,1-1,11.8,51,51,0,0,1-3.4,11.37,32.38,32.38,0,0,1-6.56,10,19.47,19.47,0,0,1-5,3.62,14.77,14.77,0,0,1-6.08,1.57,15.17,15.17,0,0,1-6.27-1.18,19.79,19.79,0,0,1-5.36-3.39,32.51,32.51,0,0,1-7.37-10,57.31,57.31,0,0,1,0-47.64,32.27,32.27,0,0,1,7.37-10,19.85,19.85,0,0,1,5.37-3.39,15.14,15.14,0,0,1,6.27-1.18,15,15,0,0,1,6.09,1.57,19.65,19.65,0,0,1,5,3.62,32.37,32.37,0,0,1,6.56,10,50.6,50.6,0,0,1,3.4,11.37A61.51,61.51,0,0,1,301.77,589.28Zm0,0a52.82,52.82,0,0,0-5-22.92,30.27,30.27,0,0,0-6.89-9.33,17.37,17.37,0,0,0-4.8-3,12.44,12.44,0,0,0-10.6.39,17.69,17.69,0,0,0-4.39,3.24A30.57,30.57,0,0,0,264,567a49.86,49.86,0,0,0-3.24,10.89,59.57,59.57,0,0,0-1,11.39,58.71,58.71,0,0,0,1,11.39A48.27,48.27,0,0,0,264,611.56a30.28,30.28,0,0,0,6.08,9.36,17.56,17.56,0,0,0,4.4,3.24,13,13,0,0,0,5.22,1.39,13.13,13.13,0,0,0,5.39-1,17.27,17.27,0,0,0,4.79-3,30.18,30.18,0,0,0,6.9-9.33A53,53,0,0,0,301.77,589.28Z" transform="translate(-83.42 -391.67)"/><ellipse class="cls-7" cx="347.26" cy="589.22" rx="35.68" ry="15.05" transform="translate(-400.95 358.23) rotate(-73.07)"/><path d="M332.86,584.84a68.74,68.74,0,0,0-3.11,20.41,35.06,35.06,0,0,0,1.49,10.12,15.2,15.2,0,0,0,2.19,4.46,7,7,0,0,0,3.69,2.71,6.92,6.92,0,0,0,4.46-.49,15,15,0,0,0,4-2.68,36.61,36.61,0,0,0,6.26-7.76,67,67,0,0,0,4.68-9A82.41,82.41,0,0,0,360,593.1a83.53,83.53,0,0,0,2.41-9.87,65.46,65.46,0,0,0,1.1-10.05,36.54,36.54,0,0,0-.87-9.93,15.08,15.08,0,0,0-1.83-4.45,6.23,6.23,0,0,0-8-2.69,15.07,15.07,0,0,0-4.29,2.48,34.68,34.68,0,0,0-6.88,7.56A68.77,68.77,0,0,0,332.86,584.84Zm0,0a82.9,82.9,0,0,1,3.57-9.74,66.14,66.14,0,0,1,4.82-9.21,38,38,0,0,1,6.58-8.14,16.28,16.28,0,0,1,4.48-3,8.53,8.53,0,0,1,5.59-.54,8.78,8.78,0,0,1,4.6,3.37,16.91,16.91,0,0,1,2.42,5,36.7,36.7,0,0,1,1.57,10.61,73.59,73.59,0,0,1-12.19,40,37.18,37.18,0,0,1-7.21,7.94,17.19,17.19,0,0,1-4.78,2.77,8.66,8.66,0,0,1-5.69.23,8.55,8.55,0,0,1-4.34-3.55,16.59,16.59,0,0,1-2.07-5,38.23,38.23,0,0,1-.94-10.42,67.45,67.45,0,0,1,1.13-10.33A82.75,82.75,0,0,1,332.86,584.84Z" transform="translate(-83.42 -391.67)"/><ellipse class="cls-8" cx="195.91" cy="216.42" rx="14.82" ry="17.44"/><ellipse class="cls-8" cx="341.62" cy="608.59" rx="15.45" ry="10.77" transform="translate(-423.48 366.58) rotate(-73.07)"/><path class="cls-9" d="M350.26,700.91c0,2.88-.54,7.49-3.71,11.13-5.61,6.44-17.5,7.54-28.43,1.23" transform="translate(-83.42 -391.67)"/><path d="M350.32,700.91a19,19,0,0,1-.23,5.41,15.53,15.53,0,0,1-2.1,5.12,13.42,13.42,0,0,1-4,3.94,17,17,0,0,1-5.11,2.3,21.35,21.35,0,0,1-5.5.67,22.63,22.63,0,0,1-5.46-.6,26.37,26.37,0,0,1-2.63-.76,22.9,22.9,0,0,1-2.54-1,29.91,29.91,0,0,1-4.66-2.7l.05-.1a32.3,32.3,0,0,0,9.93,3.7,26.13,26.13,0,0,0,5.29.44,20.58,20.58,0,0,0,5.24-.73,16,16,0,0,0,4.85-2.09A13.59,13.59,0,0,0,347.3,711a17.29,17.29,0,0,0,2.91-10Z" transform="translate(-83.42 -391.67)"/><path class="cls-10" d="M155.59,451.19c-1.28-.77-.83-2.72-1.23-5.22-1.66-10.2-12.13-12.55-19.27-21.47-8.92-11.12-8.38-29.21-3.31-31.93,1.69-.91,3.69,0,7.16,1.65,22.39,10.63,39.48,19.27,38.54,18.72-.66,10.74-.4,13.16,0,13.21s.71-1.54,2.2-5.5c.87-2.33,1.66-4.23,2.2-5.51,1.71,1,3.2,2.05,4.49,3s2,1.53,3.22,2.52c4.92,4,9.58,7.66,9.58,7.66h0s-13.06,3.33-24,9.81C163.69,444.94,158.48,452.94,155.59,451.19Z" transform="translate(-83.42 -391.67)"/><path class="cls-11" d="M151.75,585.23c-4,11-4.68,15.9-4.88,19.6-.18,3.22-1.07,19.42,9,32.94,9.43,12.59,23.68,16.61,22.89,18.53-.49,1.18-6.75-.33-9.81-1.09-19.24-4.76-28.86-7.14-34.87-9.81-4.69-2.08-48.48-21.53-50.12-54.48-.6-12.06,4.62-22.37,6.54-26.15,6.71-13.24,14-15.15,21.79-25.06,13.3-8.18,24.23-14.78,31.6-19.62,7.15-4.69,16.48-10.62,27.61-17.15,9.48-5.55,16.37-9.25,30.14-16.62,16-8.55,19.17-9.9,21.79-10.9a108.66,108.66,0,0,1,27.24-6.54c-45.91,24.1-68.52,59.51-80.63,78.45A203.53,203.53,0,0,0,151.75,585.23Z" transform="translate(-83.42 -391.67)"/><path class="cls-1" d="M179.9,657.39a54.82,54.82,0,0,1-33-49.29,94.58,94.58,0,0,0,13.07,24c5.71,7.57,11,14.58,17.44,14.16,3.36-.21,5.3-2.33,10.89-2.17,3.85.1,7.64,1.24,7.63,2.17,0,.34-.74.53-2,.9-2.28.68-4.48,1.61-6.74,2.37C185.18,650.18,182.51,652,179.9,657.39Z" transform="translate(-83.42 -391.67)"/><path class="cls-1" d="M253.65,468.62a190.17,190.17,0,0,0-12.73,28.59c-6.5,18.56-4.84,23.06-12.33,42.24-4.53,11.59-9.41,24.09-16.34,30.51a36.41,36.41,0,0,0-7.29,9,32.41,32.41,0,0,0-3.61,8.46c-.77,3-.48,3.81-1.09,4.36-1.59,1.42-7.32-.7-24.66-14.94l.46,0-.52-.1c-4.63-.79-12.87-.22-24.31,10.64,1.4-4.28,3.52-10.34,6.53-17.43a220.74,220.74,0,0,1,37.05-58.84c10.68-12.21,20.4-23.12,37.05-32.69A122.3,122.3,0,0,1,253.65,468.62Z" transform="translate(-83.42 -391.67)"/><path class="cls-1" d="M154.31,584.6l-.72,1h0a6.69,6.69,0,0,1-.61.78l0,0c-.13.12-.23.17-.29.13l.18-.24C153.32,585.71,153.8,585.14,154.31,584.6Z" transform="translate(-83.42 -391.67)"/><path class="cls-1" d="M176.06,576.85l-.46,0-.06-.06Z" transform="translate(-83.42 -391.67)"/><path class="cls-1" d="M147.72,600.73a44.19,44.19,0,0,0,1.67,13.07A32,32,0,0,1,147.72,600.73Z" transform="translate(-83.42 -391.67)"/><path class="cls-1" d="M176.06,576.85l-.46,0c-3-.22-11.44-.38-18.59,5.39a24,24,0,0,0-3.42,3.42h0c-.22.26-.41.52-.61.78l0,0a27.43,27.43,0,0,0-5.23,14.3,24.51,24.51,0,0,1,4.94-14.17l.18-.24c.48-.61,1-1.18,1.47-1.72v0a24.11,24.11,0,0,1,21.22-7.83Z" transform="translate(-83.42 -391.67)"/><path class="cls-12" d="M113.4,536.77c5-8,9.63-16.55,10.9-21.79,2.74-11.37-1.42-15.9,2.17-27.24,1.08-3.4,3-7.77,8.72-15.25,3.54-4.61,16.33-20.52,34.87-31.6,48.62-29.05,126.29-18.55,134-17.44,13.05,1.89,27.48,6.58,54.49,9.81,15.85,1.9,24.65,2.11,24.75,3.77.27,4.42-62.1,5.17-94.8,20.7a113,113,0,0,1-34.87,10.89c-5.44.74-6,.37-10.89,1.09-15.86,2.35-27.26,8.79-34.87,13.08-44.06,24.82-38.43,21.1-44.68,25.06-30.55,19.39-50.62,35.75-52.3,33.78C110.5,541.15,111.45,539.92,113.4,536.77Z" transform="translate(-83.42 -391.67)"/><path class="cls-13" d="M228.59,422.86c-26.46,4.62-47.21,28.51-59.59,42.75-20.11,23.14-24.45,39.71-25.06,44.68,0,.23-1.43,11.73-1.43,11.73h0s10.81-8,20.7-14.17c9.7-6.08,13.11-7.1,17.44-9.81,15.73-9.84,11.71-22.17,25.4-40.06,18.62-24.31,51-34.13,63.2-36,1.44-.22,6.22-.87,6.19-1.35-.05-.81-13.84-.8-26.15,0C241.74,421.17,233.17,422.06,228.59,422.86Z" transform="translate(-83.42 -391.67)"/><path d="M188.3,609.69a22.46,22.46,0,0,0-7.93-6.81,13.29,13.29,0,0,0-4.4-1.23,9.81,9.81,0,0,0-4.23.5,12.3,12.3,0,0,0-4,2.06,16.81,16.81,0,0,0-3.37,3.37,20.14,20.14,0,0,0-2.53,4.37,30.63,30.63,0,0,0-1.57,5.29l-.33,0a20,20,0,0,1,.21-5.67,18,18,0,0,1,2-5.32,15.69,15.69,0,0,1,8.58-7.25,12.56,12.56,0,0,1,5.71-.44,14.49,14.49,0,0,1,5.31,2.1,17.68,17.68,0,0,1,6.85,8.88Z" transform="translate(-83.42 -391.67)"/><path class="cls-9" d="M165.18,606.37a10.65,10.65,0,0,0,6.54,16.34" transform="translate(-83.42 -391.67)"/><path d="M165.36,606.49a45.56,45.56,0,0,0,1.22,5.07c.39,1.3.82,2.24,1.19,3.25s.76,2,1.37,3.17a48.1,48.1,0,0,0,2.63,4.52l-.1.42a11,11,0,0,1-4.75-2.25,10.17,10.17,0,0,1-3.81-9.52,11.08,11.08,0,0,1,1.89-4.91Z" transform="translate(-83.42 -391.67)"/><ellipse class="cls-14" cx="206.02" cy="215.14" rx="4.9" ry="5.99"/><ellipse class="cls-15" cx="347.55" cy="606.01" rx="5.58" ry="3.57" transform="translate(-398.36 436.04) rotate(-78.67)"/><path class="cls-9" d="M132.61,392.35l43.59,45.77" transform="translate(-83.42 -391.67)"/><path d="M132.81,392.16c3.95,3.52,7.79,7.13,11.69,10.69l5.77,5.41,5.71,5.47c1.9,1.83,3.88,3.58,5.83,5.36a62.65,62.65,0,0,1,5.46,5.71,75.11,75.11,0,0,1,9.13,13.13l-.4.37a74.93,74.93,0,0,1-12.67-9.75,62.67,62.67,0,0,1-5.43-5.74c-1.68-2-3.34-4.09-5.07-6.07l-5.18-6-5.13-6c-3.36-4.07-6.79-8.08-10.1-12.19Z" transform="translate(-83.42 -391.67)"/><path class="cls-9" d="M153.32,402.16c-.37,2.9-.73,5.81-1.09,8.71" transform="translate(-83.42 -391.67)"/><path d="M153.48,402.18c.16.76.27,1.51.37,2.26s.17,1.49.22,2.24.38,1.52.05,2.22a3.62,3.62,0,0,1-.62,1,4,4,0,0,1-1.11,1l-.33,0a4,4,0,0,1-.84-1.21,3.67,3.67,0,0,1-.34-1.15c-.16-.75.37-1.43.59-2.14s.48-1.41.76-2.11.58-1.41.92-2.1Z" transform="translate(-83.42 -391.67)"/><path class="cls-9" d="M166.1,412.51l-1.47,11.72" transform="translate(-83.42 -391.67)"/><path d="M166.32,412.54c.22,1,.36,2,.5,3l.18,1.51.11,1.5c0,.5.15,1,.23,1.51a2.72,2.72,0,0,1-.16,1.47,5.06,5.06,0,0,1-.83,1.39,5.34,5.34,0,0,1-1.5,1.3l-.43-.06a5.52,5.52,0,0,1-1.14-1.63,5.28,5.28,0,0,1-.46-1.54,2.65,2.65,0,0,1,.21-1.47c.2-.47.44-.93.59-1.41l.48-1.43.54-1.42c.39-.94.77-1.88,1.24-2.82Z" transform="translate(-83.42 -391.67)"/><path class="cls-9" d="M156.49,428.91l11.21,3.71" transform="translate(-83.42 -391.67)"/><path d="M156.56,428.7c1,0,2.06,0,3.08.1l1.52.12,1.49.18c.5.06,1,0,1.53.07a2.67,2.67,0,0,1,1.41.44,5,5,0,0,1,1.2,1.08,5.56,5.56,0,0,1,1,1.72l-.13.42a5.72,5.72,0,0,1-1.82.8,5.35,5.35,0,0,1-1.61.15,2.76,2.76,0,0,1-1.39-.48,14.19,14.19,0,0,0-1.27-.86l-1.31-.75-1.29-.81c-.85-.56-1.7-1.12-2.53-1.76Z" transform="translate(-83.42 -391.67)"/><path class="cls-9" d="M136,404.73l8.57,1.95" transform="translate(-83.42 -391.67)"/><path d="M136.06,404.57c.77-.09,1.53-.12,2.29-.15s1.5,0,2.25,0,1.55-.23,2.21.17a3.55,3.55,0,0,1,1,.72,4,4,0,0,1,.85,1.2l-.07.32a4.25,4.25,0,0,1-2.47,1c-.77.07-1.38-.51-2.07-.81s-1.36-.62-2-1-1.34-.71-2-1.12Z" transform="translate(-83.42 -391.67)"/><path class="cls-16" d="M358.85,658.93c-21.52.81-39.35-2.93-44.69-9-6.34-7.22,7.67-14.47,8.34-14.81,8.49-4.26,18.9-5.55,67.46-10.23,56.82-5.48,65.41-5.93,70.37-3.74,10.84,4.8-7.69,16.88-8.59,17.46C425.91,655.1,368.58,658.42,358.85,658.93Z" transform="translate(-83.42 -391.67)"/></svg>