<svg id="smile" xmlns="http://www.w3.org/2000/svg" viewBox="0 0 381.34 364.21"><defs><style>.cls-1,.cls-10,.cls-12,.cls-13,.cls-14,.cls-15,.cls-16,.cls-17,.cls-18,.cls-19,.cls-3,.cls-4,.cls-6,.cls-7,.cls-8{stroke:#000;}.cls-1,.cls-17,.cls-18,.cls-2{stroke-linecap:round;stroke-linejoin:round;}.cls-1,.cls-10,.cls-19,.cls-2,.cls-6,.cls-7,.cls-8{stroke-width:1.09px;}.cls-2{fill:none;stroke:#fff;}.cls-16,.cls-3,.cls-4,.cls-5{fill:#ffd1c0;}.cls-10,.cls-12,.cls-13,.cls-14,.cls-15,.cls-16,.cls-19,.cls-3,.cls-4,.cls-6,.cls-7,.cls-8{stroke-miterlimit:10;}.cls-3{stroke-width:1.95px;}.cls-4{stroke-width:2.64px;}.cls-6{fill:#dd5e00;}.cls-7{fill:#ffc100;}.cls-8,.cls-9{fill:#ff007c;}.cls-10{fill:#135751;}.cls-11{fill:#fff;}.cls-12,.cls-14{fill:#00dbde;}.cls-12{stroke-width:1.31px;}.cls-13{stroke-width:1.76px;}.cls-14{stroke-width:1.07px;}.cls-15{stroke-width:1.18px;}.cls-16{stroke-width:1.11px;}.cls-17{fill:#f03;}.cls-17,.cls-18{stroke-width:2.49px;}.cls-18{fill:#f69;}.cls-19{fill:#ff878a;}</style></defs><path class="cls-1" d="M885.81,475.35a571.76,571.76,0,0,0-72.21-21.88c-22.38-5-14.55-1.3-48.13-7.66-14.07-2.66-24.36-5-37.2-1.1-9.37,2.86-17.7,8.32-17.5,8.76.12.26,3.4-1.34,8.75-2.19,3.7-.59,9.58-1,9.85,0,.55,2.13-19.93,5.3-32.83,17.5-23.39,22.14-13.47,66.34-13.1,66.35s-2-21.18,10.92-36.81c2.95-3.56,6.93-7.12,7.65-6.56,1.11.84-6.48,10.31-12,23-8.8,20.07-8.72,39.61-6.54,40.16,1.71.44,2.62-11.2,13.18-19.76,3.62-2.94,8.22-5.11,17.43-9.46,1.35-.64,10.6-5,10.94-4.37.24.44-4.12,3.12-7.66,5.47-13.53,9-25.6,20.13-24.66,21.54s13.78-10.57,32.32-10.6c10.4,0,12,4.68,21.88,5.47,24.19,1.92,51.15-15.79,73.3-30.64,15.93-10.68,17.35-13.55,30.63-20.78C865.76,483.61,885.8,475.35,885.81,475.35Z" transform="translate(-680.49 -365.1)"/><path class="cls-2" d="M937.23,577.09" transform="translate(-680.49 -365.1)"/><path class="cls-3" d="M943.12,627.59a91.47,91.47,0,0,0-5.84,25.31c-1.94,23.45,6.64,34,2,42.83-3.82,7.2-16.61,13.68-58.41,7.79" transform="translate(-680.49 -365.1)"/><path class="cls-4" d="M883.73,474.25s8.75,17.15,14.21,30.41c9.41,22.85,4.68,23.56,14.21,46.18,7,16.55,10.45,24.83,16.39,30.41a23.42,23.42,0,0,1,6.56,9c2.39,6.2.35,10,2.18,11.26,4,2.79,14-15,28.42-15.76,8.91-.5,17.73,5.57,21.86,12.39,12.67,20.9-12,60-28.42,59.69a26,26,0,0,1-7.28-1.47h0c-5.43-1.81-13.22-18.73-18.75-19.13-3.85-.28-6.45,7.48-11.86,17.13-5.25,9.37-10.53,15.47-21.08,27.66-6.2,7.18-16.41,18.82-32.27,29.65-15.58,10.63-26.89,18.44-39.53,15.81-9.9-2.06-9.41-8-25-18.45C783,695.47,774.56,700.59,761.18,688c-2-1.9-18.49-17.45-14.49-30.3,3.82-12.3,18.23-11.28,22.39-23.72,4.23-12.6-10-18.3-17.52-46.25C746,566.92,746.61,543,746.67,543s0,0,0,.08c32.74-7.44,53.73-20,67.1-30.49,9.8-7.72,22.08-19.53,43.72-29.29A150.84,150.84,0,0,1,883.73,474.25Z" transform="translate(-680.49 -365.1)"/><path class="cls-2" d="M803.76,692" transform="translate(-680.49 -365.1)"/><path d="M816.92,542.31a16.25,16.25,0,0,1,2.25-8.66,14.3,14.3,0,0,1,3.38-3.73,10.29,10.29,0,0,1,2.3-1.37,23.69,23.69,0,0,1,2.48-.91,21.09,21.09,0,0,1,9.8-.06q.58.1,1.17.24l1.11.33c.73.23,1.49.44,2.2.7,1.4.59,2.83,1.14,4.14,1.85a46.37,46.37,0,0,1,13.61,10.87,44.25,44.25,0,0,1,8.59,14.7l0,.07a.25.25,0,0,1-.16.32.24.24,0,0,1-.28-.08L865,553.42c-.88-1-1.8-2-2.69-3s-1.87-2-2.8-3-2-1.86-2.93-2.8a61.16,61.16,0,0,0-13.18-9.31c-1.17-.66-2.42-1.16-3.65-1.71-.62-.26-1.26-.45-1.89-.68l-1-.33-1-.25a18.8,18.8,0,0,0-7.88-.6c-.65.12-1.27.32-1.91.47a8.94,8.94,0,0,0-1.79.79,11.77,11.77,0,0,0-3,2.5,19.83,19.83,0,0,0-3.87,7,.26.26,0,0,1-.32.16.25.25,0,0,1-.17-.24Z" transform="translate(-680.49 -365.1)"/><path d="M770.36,560.43a31.21,31.21,0,0,0-3.93-2.95,6.6,6.6,0,0,0-1.87-.83,2.65,2.65,0,0,0-1.52,0c-1.8.31-3.8,2.47-5.47,4.83a66.21,66.21,0,0,0-4.62,8c-1.44,2.87-2.81,5.86-4.55,8.92l0,0a.16.16,0,0,1-.22.06.15.15,0,0,1-.08-.16,60.5,60.5,0,0,1,2.44-9.73,37.6,37.6,0,0,1,4.39-9,17.64,17.64,0,0,1,3.44-3.73,7.45,7.45,0,0,1,4.74-1.82,5.11,5.11,0,0,1,2.51.66,9.65,9.65,0,0,1,2,1.54,19,19,0,0,1,3,4,.16.16,0,0,1,0,.22.17.17,0,0,1-.18,0Z" transform="translate(-680.49 -365.1)"/><path class="cls-5" d="M821.12,711c1.31,2.57,3.82,6.46,7.87,8.48,7.2,3.56,16.74-.06,22.2-9.92" transform="translate(-680.49 -365.1)"/><path d="M821.23,711a29.28,29.28,0,0,0,6.95,6,13.13,13.13,0,0,0,7.91,1.58,19.05,19.05,0,0,0,7.91-3,43.42,43.42,0,0,0,7.09-6.09l.21.11a25.65,25.65,0,0,1-6.12,7.47,20.67,20.67,0,0,1-4.14,2.55,16.9,16.9,0,0,1-4.69,1.33,14.44,14.44,0,0,1-4.86-.36l-1.18-.35-1.12-.49a12,12,0,0,1-2.11-1.23,20.42,20.42,0,0,1-6.06-7.49Z" transform="translate(-680.49 -365.1)"/><path class="cls-6" d="M985.93,591.33c4,11.08,4.7,16,4.9,19.67.18,3.24,1.08,19.5-9.09,33.08-9.46,12.64-23.77,16.67-23,18.6.49,1.19,6.77-.33,9.84-1.09,19.32-4.78,29-7.17,35-9.85,4.72-2.09,48.67-21.62,50.33-54.7.6-12.11-4.64-22.46-6.57-26.26-6.74-13.29-14.09-15.2-21.88-25.16-13.36-8.2-24.33-14.83-31.72-19.69-7.18-4.72-16.56-10.67-27.73-17.22-9.52-5.58-16.43-9.29-30.26-16.7-16-8.57-19.24-9.93-21.88-10.94a109.14,109.14,0,0,0-27.35-6.56c46.1,24.2,68.8,59.74,81,78.77A203.91,203.91,0,0,1,985.93,591.33Z" transform="translate(-680.49 -365.1)"/><path class="cls-1" d="M957.67,663.77a55,55,0,0,0,33.16-49.48,95.08,95.08,0,0,1-13.12,24.06C972,646,966.67,653,960.2,652.58c-2.53-.17-4.26-1.4-7.33-1.94-1.59-.29-2.27.15-3.61-.25-3.15-.95-4.31-3.62-5-3.27s-.26,3.07,1.32,5.27c1.42,2,3.18,2.6,4.73,3.47A18.91,18.91,0,0,1,957.67,663.77Z" transform="translate(-680.49 -365.1)"/><path class="cls-1" d="M883.62,474.25A191.1,191.1,0,0,1,896.41,503c6.52,18.63,4.85,23.16,12.37,42.41,4.55,11.64,9.45,24.18,16.41,30.64a36.38,36.38,0,0,1,7.32,9,32.34,32.34,0,0,1,3.62,8.49c.77,3,.48,3.83,1.1,4.38,1.59,1.42,7.35-.71,24.75-15l-.46,0,.53-.1c4.65-.8,12.92-.23,24.41,10.68-1.41-4.3-3.54-10.39-6.57-17.5a221.26,221.26,0,0,0-37.19-59.08c-10.73-12.26-20.48-23.21-37.2-32.82A121.87,121.87,0,0,0,883.62,474.25Z" transform="translate(-680.49 -365.1)"/><path class="cls-1" d="M983.36,590.69c.27.4.51.74.72,1h0a5.83,5.83,0,0,0,.62.78l0,0c.13.12.23.18.29.13s-.16-.2-.18-.24C984.36,591.81,983.87,591.24,983.36,590.69Z" transform="translate(-680.49 -365.1)"/><path class="cls-1" d="M961.52,582.92l.46,0,.07,0C961.81,582.86,961.62,582.89,961.52,582.92Z" transform="translate(-680.49 -365.1)"/><path class="cls-1" d="M990,606.89A44.46,44.46,0,0,1,988.3,620,32.25,32.25,0,0,0,990,606.89Z" transform="translate(-680.49 -365.1)"/><path class="cls-1" d="M961.52,582.92l.46,0c3-.22,11.49-.38,18.67,5.42a23.17,23.17,0,0,1,3.43,3.43h0c.22.26.42.52.62.78l0,0A27.65,27.65,0,0,1,990,606.89a24.64,24.64,0,0,0-5-14.23c-.08-.11-.16-.2-.18-.24-.48-.61-1-1.18-1.48-1.73,0,0,0,0,0,0a24.19,24.19,0,0,0-21.3-7.85C961.81,582.86,961.62,582.89,961.52,582.92Z" transform="translate(-680.49 -365.1)"/><path class="cls-7" d="M1024.44,542.68c-5-8-9.67-16.62-10.94-21.88-2.76-11.42,1.42-16-2.19-27.35-1.08-3.41-3-7.8-8.75-15.32-3.56-4.63-16.39-20.6-35-31.73-48.82-29.16-126.8-18.62-134.56-17.5-13.1,1.89-27.59,6.6-54.71,9.85-15.92,1.9-24.75,2.11-24.85,3.78-.27,4.44,62.35,5.19,95.18,20.78a113.69,113.69,0,0,0,35,10.94c5.47.74,6,.37,10.94,1.1,15.92,2.36,27.36,8.82,35,13.13,44.23,24.91,38.58,21.18,44.85,25.16,30.68,19.46,50.83,35.89,52.52,33.91C1027.35,547.07,1026.39,545.83,1024.44,542.68Z" transform="translate(-680.49 -365.1)"/><path class="cls-8" d="M905.32,460.73c.72-1.19,3-.79,5.93-.66,0,0,7.43.34,19.1-3.29,8.21-2.55,7.75-8.68,17.79-19.1,16-16.64,30.68-15.07,43.48-29,.78-.85,3.52-3.9,4.61-3.29,2,1.13-3.56,14.1-2.64,14.49s3.28-11.6,12.52-20.42c8.39-8,19.1-10.25,40.84-19.76a21.51,21.51,0,0,0,7.91-5.27,45.6,45.6,0,0,0,5.27-7.91s2.59,8.22,0,14.49c-.43,1-1,2-4,5.27-7.7,8.48-13.59,12.53-13.17,13.18,0,0,.38.58,11.86-5.27,0,0-8.6,25.74-26.35,32.94-4.63,1.87-12.4,3.51-14.5,3.95-7.17,1.51-13.21,2.13-13.17,2.63s5.06-.51,11.86,1.32c3.16.85,7.9,2.64,7.9,2.64l-6.59,3.95c-16.33,9.81-27.52,23.24-43.47,23.71-.7,0-7.5-.86-21.08-2.63-3.64-.48-7-1.58-11.86-1.32A33.34,33.34,0,0,0,925.74,464c-7.24,3.15-8,6.86-11.86,6.58C908.67,470.23,904,463,905.32,460.73Z" transform="translate(-680.49 -365.1)"/><path class="cls-9" d="M938.92,456.12c26.33-3.31,41.23-12.76,50.06-21.08,8.13-7.66,14-17.08,29-27.67a118.81,118.81,0,0,1,21.08-11.85" transform="translate(-680.49 -365.1)"/><path d="M938.92,456.12c9.8-1.84,19.47-4.33,28.46-8.39a72.92,72.92,0,0,0,23.88-16.83c3.4-3.57,6.65-7.39,10.18-11a101.38,101.38,0,0,1,11.34-10,103.78,103.78,0,0,1,26.27-14.44,136.21,136.21,0,0,0-25,16.06,115.88,115.88,0,0,0-10.82,10.08c-3.41,3.57-6.61,7.37-10.06,11a69.37,69.37,0,0,1-11.57,9.85,74.93,74.93,0,0,1-13.41,7.05A97.53,97.53,0,0,1,938.92,456.12Z" transform="translate(-680.49 -365.1)"/><path d="M1006.77,415.94a63.09,63.09,0,0,0,4.23-5.25,21.61,21.61,0,0,0,3-5.84c.33-1,.59-2.15.95-3.25a21.71,21.71,0,0,1,1.31-3.2,24.21,24.21,0,0,1,3.89-5.64,52.94,52.94,0,0,0-3,6.06,56.66,56.66,0,0,0-1.93,6.43,18,18,0,0,1-3.42,6.06A26.64,26.64,0,0,1,1006.77,415.94Z" transform="translate(-680.49 -365.1)"/><path d="M972.74,430.71a37.81,37.81,0,0,0,2.92-3.45,14.23,14.23,0,0,0,2.1-3.86l.69-2.16a14.45,14.45,0,0,1,.93-2.13,16.36,16.36,0,0,1,2.71-3.72,35.61,35.61,0,0,0-2.09,4,39.72,39.72,0,0,0-1.41,4.28,11.88,11.88,0,0,1-2.39,4A17.74,17.74,0,0,1,972.74,430.71Z" transform="translate(-680.49 -365.1)"/><path d="M958.15,446.2a35.26,35.26,0,0,0,3.06-5,15.72,15.72,0,0,0,1.57-5.41c.1-.94.14-1.94.26-2.93a18.41,18.41,0,0,1,.62-2.95,18.13,18.13,0,0,1,2.56-5.38,36.3,36.3,0,0,0-1.63,5.6A45.06,45.06,0,0,0,964,436a13.71,13.71,0,0,1-2,5.75A18.13,18.13,0,0,1,958.15,446.2Z" transform="translate(-680.49 -365.1)"/><path d="M1002.38,448.68a18.23,18.23,0,0,1-5.1,3.08,13.7,13.7,0,0,1-6,.94,42.78,42.78,0,0,0-5.8-.41,37.29,37.29,0,0,0-5.8.64,18.25,18.25,0,0,1,5.73-1.6,19,19,0,0,1,3-.1c1,0,2,.18,2.93.24a15.68,15.68,0,0,0,5.6-.62A35.52,35.52,0,0,0,1002.38,448.68Z" transform="translate(-680.49 -365.1)"/><path class="cls-10" d="M908.78,428.3c26.57,4.65,47.4,28.62,59.83,42.93,20.19,23.23,24.56,39.87,25.17,44.85,0,.24,1.43,11.78,1.43,11.78h0s-10.85-8-20.79-14.22c-9.73-6.11-13.16-7.13-17.5-9.85-15.8-9.89-11.76-22.27-25.5-40.22-18.7-24.41-51.26-34.27-63.46-36.1-1.44-.22-6.25-.87-6.22-1.35,0-.82,13.91-.8,26.26,0C895.58,426.61,904.18,427.5,908.78,428.3Z" transform="translate(-680.49 -365.1)"/><path d="M952.13,626.62a12.26,12.26,0,0,1-2.53-5.74,20.08,20.08,0,0,1,0-6.38,24.73,24.73,0,0,1,1.81-6.14,28.3,28.3,0,0,1,3.39-5.49,22.71,22.71,0,0,1,10.52-7.39A13.59,13.59,0,0,1,972,595a7.74,7.74,0,0,1,5.31,3.6l-.22.23a7.82,7.82,0,0,0-5.18-2.14,13.2,13.2,0,0,0-5.59,1.14,20.66,20.66,0,0,0-4.92,3,25.4,25.4,0,0,0-4.08,4.08,26.73,26.73,0,0,0-5.23,10.24c-1,3.7-1.19,7.79.35,11.35Z" transform="translate(-680.49 -365.1)"/><path class="cls-5" d="M955.94,613.07a10.7,10.7,0,0,1,7.17,16.15" transform="translate(-680.49 -365.1)"/><path d="M956,612.94a7.75,7.75,0,0,1,5.79.8,9.58,9.58,0,0,1,4.75,10.73,7.88,7.88,0,0,1-3.28,4.82l-.23-.13a12.46,12.46,0,0,0,1.43-4.86,10.44,10.44,0,0,0-3.94-8.9,12.3,12.3,0,0,0-4.56-2.2Z" transform="translate(-680.49 -365.1)"/><ellipse class="cls-11" cx="843.03" cy="590.15" rx="25.26" ry="29.26" transform="translate(-847.91 30.18) rotate(-24.08)"/><path d="M820,600.46a34,34,0,0,0,5.91,8.86,29.48,29.48,0,0,0,8.52,6.29,24.92,24.92,0,0,0,10.15,2.52,21.47,21.47,0,0,0,10-2.17,22.85,22.85,0,0,0,11.79-15.61,29,29,0,0,0,.55-10,32.67,32.67,0,0,0-8.1-18.11A29.35,29.35,0,0,0,851,566a25,25,0,0,0-9.53-3,21,21,0,0,0-18.25,7.38,24.84,24.84,0,0,0-4.9,9.23,29.52,29.52,0,0,0-1,10.55A33.64,33.64,0,0,0,820,600.46Zm0,0a33.6,33.6,0,0,1-2.81-10.31,31.1,31.1,0,0,1,.61-10.7,26.69,26.69,0,0,1,4.49-9.85,23,23,0,0,1,19.36-9.43,27.1,27.1,0,0,1,11,2.73,31.29,31.29,0,0,1,9.08,6.73A33.79,33.79,0,0,1,870.74,590a31.41,31.41,0,0,1-1.06,11.25,27,27,0,0,1-5.26,10,23,23,0,0,1-19.94,8.13,26.83,26.83,0,0,1-10.33-3.22,31.26,31.26,0,0,1-8.38-6.69A33.85,33.85,0,0,1,820,600.46Z" transform="translate(-680.49 -365.1)"/><ellipse class="cls-12" cx="848.81" cy="595.69" rx="17.67" ry="21.1" transform="translate(-781.66 -185.19) rotate(-11.42)"/><ellipse class="cls-13" cx="176.72" cy="235.03" rx="7.98" ry="9.75"/><ellipse class="cls-11" cx="773.67" cy="608.51" rx="15.23" ry="25.67" transform="translate(-881.88 108.85) rotate(-30.33)"/><path d="M760.53,616.2a44.93,44.93,0,0,0,4.81,6.56,31.67,31.67,0,0,0,6.13,5.31,21,21,0,0,0,7.34,3.14,10.59,10.59,0,0,0,7.45-1.17,10.35,10.35,0,0,0,4.11-6.09,20.79,20.79,0,0,0,.37-7.67,32.33,32.33,0,0,0-1.85-7.6,43.13,43.13,0,0,0-3.34-7.12,43.77,43.77,0,0,0-4.57-6.4,32.8,32.8,0,0,0-5.72-5.33,21.08,21.08,0,0,0-6.86-3.44,9.32,9.32,0,0,0-12,6.52,21.16,21.16,0,0,0-.87,7.93,32.37,32.37,0,0,0,1.62,7.95A45.33,45.33,0,0,0,760.53,616.2Zm0,0a44.36,44.36,0,0,1-3.47-7.38,33.72,33.72,0,0,1-1.92-7.94,22.42,22.42,0,0,1,.42-8.23,11.78,11.78,0,0,1,4.78-6.93,12,12,0,0,1,8.5-1.34,22.55,22.55,0,0,1,7.86,3.36,38,38,0,0,1,11.38,12.34,46.58,46.58,0,0,1,3.48,7.68,33.64,33.64,0,0,1,1.69,8.29,22.5,22.5,0,0,1-.92,8.49,12,12,0,0,1-5.33,6.75,11.75,11.75,0,0,1-8.38.77,22.28,22.28,0,0,1-7.38-3.66,33.56,33.56,0,0,1-6-5.56A44.72,44.72,0,0,1,760.53,616.2Z" transform="translate(-680.49 -365.1)"/><ellipse class="cls-14" cx="780.03" cy="614.41" rx="10.53" ry="15.11" transform="translate(-883.99 112.87) rotate(-30.33)"/><ellipse class="cls-15" cx="787.57" cy="615.53" rx="4.7" ry="7.35" transform="translate(-827.62 -103.8) rotate(-17.25)"/><path class="cls-16" d="M921.91,694.55" transform="translate(-680.49 -365.1)"/><path d="M757,658.06a13.66,13.66,0,0,0-2.87,3.22,11.76,11.76,0,0,0-1.53,3.72,8.89,8.89,0,0,0,0,3.91,10.61,10.61,0,0,0,1.8,3.85v0a.05.05,0,0,1,0,.08,0,0,0,0,1-.07,0,7.8,7.8,0,0,1-2.68-3.62,8.37,8.37,0,0,1-.26-4.52,9.7,9.7,0,0,1,5.6-6.78.06.06,0,0,1,.08,0,0,0,0,0,1,0,.07Z" transform="translate(-680.49 -365.1)"/><path class="cls-17" d="M806.36,696.24c13.32,9.62,18.42,15.17,27.64,14.76,16.34-.74,27.79-19.41,31.88-26.08,9.87-16.1,11.33-32.64,11.34-42-10.72,13.38-26.05,27.59-46.86,33.16-38.55,10.32-75.46-14.48-76.67-11.34C752.78,667.11,776.26,674.51,806.36,696.24Z" transform="translate(-680.49 -365.1)"/><path class="cls-18" d="M826.17,702.25c1.39,5,8.79,8.11,15,7.58,11.35-1,18.44-14.5,25.14-27.28,5.83-11.12,9.32-22.42,8.29-23-.55-.29-1.91,2.81-5.63,6.33-5.07,4.81-8.22,4.4-12.74,7.5-9,6.14-11.22,17.78-12,17.41s3.2-8.1,1.52-9.52C842.91,679,823.56,692.88,826.17,702.25Z" transform="translate(-680.49 -365.1)"/><path d="M889.49,653.71a48.94,48.94,0,0,0-5-5.58,31.86,31.86,0,0,0-5.32-4.07,17.54,17.54,0,0,0-2.85-1.41,14.22,14.22,0,0,0-3-.87,13.36,13.36,0,0,0-6.88.81l-.07,0a.14.14,0,0,1-.19-.09.16.16,0,0,1,0-.15,10.33,10.33,0,0,1,3.22-2.21,10.69,10.69,0,0,1,3.82-.83,11.85,11.85,0,0,1,3.88.52,15.42,15.42,0,0,1,3.58,1.56,20,20,0,0,1,5.71,5.24,18.54,18.54,0,0,1,3.29,7,.15.15,0,0,1-.11.18.16.16,0,0,1-.15-.06Z" transform="translate(-680.49 -365.1)"/><path class="cls-19" d="M794.12,656.34c8.07.07,14.9-4.27,17.12-10.54,2.63-7.42-2.39-14.18-2.63-14.49-3.05-4-6.92-4.89-25-7.91-21.2-3.52-24.41-3.67-26.35-1.31-4.25,5.15,2.31,16.58,2.63,17.12C769,654.81,790.47,656.16,794.12,656.34Z" transform="translate(-680.49 -365.1)"/></svg>