<svg id="timebar" xmlns="http://www.w3.org/2000/svg" viewBox="0 0 961.13 340.73"><defs><style>.cls-1,.cls-10,.cls-11,.cls-12,.cls-13,.cls-14,.cls-15,.cls-16,.cls-3,.cls-4,.cls-5,.cls-6,.cls-8{stroke:#000;}.cls-1,.cls-2,.cls-5,.cls-6{stroke-linecap:round;stroke-linejoin:round;}.cls-1,.cls-11,.cls-12,.cls-13,.cls-14,.cls-2,.cls-5,.cls-6,.cls-8{stroke-width:1.09px;}.cls-2{fill:none;stroke:#fff;}.cls-3,.cls-4,.cls-9{fill:#ffd1c0;}.cls-10,.cls-11,.cls-12,.cls-13,.cls-14,.cls-15,.cls-16,.cls-3,.cls-4,.cls-8{stroke-miterlimit:10;}.cls-3{stroke-width:1.94px;}.cls-4{stroke-width:1.11px;}.cls-5{fill:#f69;}.cls-6{fill:#f03;}.cls-7{fill:#fff;}.cls-8{fill:#00dbde;}.cls-10{fill:#ff878a;stroke-width:1.83px;}.cls-11{fill:#ff007c;}.cls-12{fill:#dd5e00;}.cls-13{fill:#ffc100;}.cls-14{fill:#135751;}.cls-15{stroke-width:1.08px;}.cls-16{stroke-width:0.89px;}</style></defs><path class="cls-1" d="M265.28,122.88a569.57,569.57,0,0,1,71.91-21.8c22.3-5,14.5-1.29,47.95-7.62,14-2.66,24.26-5,37.05-1.09,9.33,2.84,17.62,8.28,17.43,8.71-.12.27-3.39-1.33-8.72-2.18-3.69-.58-9.54-1-9.8,0-.51,2,21.72,3,32.68,17.44,10.76,14.1,6.73,35.78,5.45,36-.47.06-.67-2.77-3.27-6.54-2.95-4.29-7.08-7-7.62-6.54-.89.82,9.59,9,12,22.88,1,5.75.7,13.05-2.18,14.17-1.87.73-3-1.86-7.62-3.27-5.64-1.73-7.65,1-14.17,0s-10.63-4.79-10.9-4.36,3,3.55,7.63,5.45c4,1.63,6.27,1.17,6.54,2.18.53,2-7.38,6.06-14.17,8.71-1.72.68-12.12,4.68-21.79,5.45-24.09,1.91-50.94-15.72-73-30.51-15.87-10.63-17.29-13.49-30.51-20.7C285.25,131.1,265.28,122.88,265.28,122.88Z" transform="translate(-101.22 -45.83)"/><path class="cls-2" d="M216.07,220.21" transform="translate(-101.22 -45.83)"/><path class="cls-3" d="M206.26,282.32a90.9,90.9,0,0,1,5.82,25.21c1.93,23.36-6.62,33.84-1.94,42.65,3.8,7.17,16.54,13.63,58.17,7.76" transform="translate(-101.22 -45.83)"/><path class="cls-4" d="M265.34,117.79s-8.71,17.07-14.15,30.28c-9.36,22.76-4.66,23.47-14.15,46-6.94,16.48-10.41,24.72-16.32,30.28a23.33,23.33,0,0,0-6.53,9c-2.38,6.17-.36,9.95-2.18,11.22-4,2.77-13.93-14.91-28.3-15.71-8.88-.49-17.66,5.55-21.77,12.34-12.62,20.82,11.95,59.72,28.3,59.46,4.58-.08,7.16-3.2,13.06-2.25,8.31,1.35,13.48,9.19,16.33,13.46,16.18,24.25,26.17,39.22,38.1,50.48,12.59,11.9,24.33,16.8,27.21,17.95a79.77,79.77,0,0,0,33.74,5.61c19.69-1.05,32.08-9.19,52.25-22.43,4.53-3,10.22-7.14,14.15-14.59a34.73,34.73,0,0,0,3.26-9c3.21-15.82-9.29-24.59-10.88-43.75-.45-5.41.42-10,2.17-19.07,4.86-25.25,12.81-28.14,19.6-53.85,3.88-14.7,6.53-33.65,6.53-33.65s-37.3-11.05-70.75-33.65c-20.67-14-24.87-22.2-43.54-29.17C285.1,124.38,265.35,117.79,265.34,117.79Z" transform="translate(-101.22 -45.83)"/><path class="cls-2" d="M349,334.62" transform="translate(-101.22 -45.83)"/><path class="cls-5" d="M351,335l-.08.21c-.81,2.31-.38,3.53-.85,4.82-1.41,3.91-9.64,4.61-14.16,4.36-8.16-.46-14.12-4.56-14.17-6.54,0-.21,0-2.18,0-2.18s6.63-3.15,14.58-6.46l1-.4s0,0,.05,0a40.67,40.67,0,0,1,9.45,3.62A40.16,40.16,0,0,1,351,335Z" transform="translate(-101.22 -45.83)"/><path class="cls-6" d="M358.81,330.26c-1.94.71-3.59-.25-5.45,1.09a6.77,6.77,0,0,0-2.18,3.27,3.61,3.61,0,0,0-.16.42,40.16,40.16,0,0,0-4.2-2.6,40.67,40.67,0,0,0-9.45-3.62c11-4.5,23.94-9.05,25.8-6.18C364.24,324.31,361.91,329.13,358.81,330.26Z" transform="translate(-101.22 -45.83)"/><path d="M319.66,329.1a5,5,0,0,1,3.15,3,6.33,6.33,0,0,1,0,4.69,6.16,6.16,0,0,1-3.27,3.43,5.27,5.27,0,0,1-4.33,0l-.05,0a.1.1,0,0,1,0-.14.1.1,0,0,1,.08-.06,8,8,0,0,0,3.39-1.21A5.77,5.77,0,0,0,320.8,336a6.08,6.08,0,0,0,.3-3.53,7.27,7.27,0,0,0-1.6-3.21.11.11,0,0,1,0-.15.15.15,0,0,1,.09,0Z" transform="translate(-101.22 -45.83)"/><path d="M319.35,172.59A33.72,33.72,0,0,0,315,167.1a8.93,8.93,0,0,0-2.32-1.69,7.83,7.83,0,0,0-1.12-.42,5.71,5.71,0,0,0-1.11-.17c-3-.14-6.84,1.66-10.35,4a98.19,98.19,0,0,0-10.46,8.26c-3.44,3.07-6.84,6.35-10.72,9.58l-.06.05a.23.23,0,0,1-.32,0,.21.21,0,0,1,0-.26c1.21-2.07,2.51-4.1,3.88-6.08s2.87-3.87,4.45-5.69a53.21,53.21,0,0,1,10.69-9.73,27.6,27.6,0,0,1,6.54-3.21,13.17,13.17,0,0,1,7.31-.45,8.56,8.56,0,0,1,3.31,1.7,12.17,12.17,0,0,1,2.42,2.8,23.63,23.63,0,0,1,2.68,6.74.22.22,0,0,1-.16.27.21.21,0,0,1-.24-.09Z" transform="translate(-101.22 -45.83)"/><path d="M368.18,175.18a16.9,16.9,0,0,1,2-5.59,12.52,12.52,0,0,1,2-2.55,7.18,7.18,0,0,1,7.58-1.6,10.58,10.58,0,0,1,3.23,1.93,18.14,18.14,0,0,1,2.3,2.45,26.45,26.45,0,0,1,1.7,2.66,31.65,31.65,0,0,1,3.48,11.25,33.08,33.08,0,0,1-.39,11.48v0a.17.17,0,0,1-.34,0,94,94,0,0,0-2-10.82,44.27,44.27,0,0,0-3.86-10.23,17.67,17.67,0,0,0-3.19-4.36,5.76,5.76,0,0,0-4.7-1.87,7.75,7.75,0,0,0-4.34,2.89,26.49,26.49,0,0,0-3.11,4.5.18.18,0,0,1-.24.06.16.16,0,0,1-.08-.17Z" transform="translate(-101.22 -45.83)"/><ellipse class="cls-7" cx="196.29" cy="197.62" rx="22.06" ry="37.32"/><path d="M319.58,243.44a62.32,62.32,0,0,1-1.05,11.8,51,51,0,0,1-3.4,11.37,32.41,32.41,0,0,1-6.57,10,19.41,19.41,0,0,1-5,3.62,14.81,14.81,0,0,1-6.09,1.57,15.13,15.13,0,0,1-6.26-1.18,19.79,19.79,0,0,1-5.36-3.39,32.51,32.51,0,0,1-7.37-10,57.31,57.31,0,0,1,0-47.64,32.27,32.27,0,0,1,7.37-10,19.79,19.79,0,0,1,5.36-3.39,15.17,15.17,0,0,1,6.27-1.18,15,15,0,0,1,6.09,1.57,19.33,19.33,0,0,1,5,3.63,32.2,32.2,0,0,1,6.56,10,51.12,51.12,0,0,1,3.4,11.37A62.32,62.32,0,0,1,319.58,243.44Zm0,0a52.82,52.82,0,0,0-5-22.92,30.29,30.29,0,0,0-6.9-9.33,17.47,17.47,0,0,0-4.79-3,12.44,12.44,0,0,0-10.6.39,17.33,17.33,0,0,0-4.39,3.24,30.57,30.57,0,0,0-6.09,9.35,48.79,48.79,0,0,0-3.24,10.89,64.41,64.41,0,0,0,0,22.78,48.63,48.63,0,0,0,3.24,10.89,30.49,30.49,0,0,0,6.09,9.36,17.38,17.38,0,0,0,4.4,3.24,12.75,12.75,0,0,0,5.21,1.39,13.07,13.07,0,0,0,5.39-1,17.37,17.37,0,0,0,4.8-3,30.22,30.22,0,0,0,6.89-9.33A52.9,52.9,0,0,0,319.58,243.44Z" transform="translate(-101.22 -45.83)"/><ellipse class="cls-7" cx="365.06" cy="243.38" rx="35.68" ry="15.05" transform="translate(-75.28 475.95) rotate(-73.07)"/><path d="M350.67,239a69.08,69.08,0,0,0-3.12,20.41,35,35,0,0,0,1.5,10.12,15.42,15.42,0,0,0,2.18,4.46,7,7,0,0,0,3.69,2.71,6.85,6.85,0,0,0,4.46-.49,15,15,0,0,0,4-2.68,36.57,36.57,0,0,0,6.25-7.76,64.71,64.71,0,0,0,4.68-9,90,90,0,0,0,5.9-19.4,67,67,0,0,0,1.11-10.06,36.94,36.94,0,0,0-.87-9.93,15.1,15.1,0,0,0-1.84-4.45,6.22,6.22,0,0,0-8-2.69,15.12,15.12,0,0,0-4.3,2.48,35,35,0,0,0-6.88,7.57A68.84,68.84,0,0,0,350.67,239Zm0,0a82.9,82.9,0,0,1,3.57-9.74,67.17,67.17,0,0,1,4.81-9.21,38,38,0,0,1,6.58-8.13,16.29,16.29,0,0,1,4.49-3,8.5,8.5,0,0,1,5.58-.54,8.78,8.78,0,0,1,4.6,3.37,17.19,17.19,0,0,1,2.43,5,36.35,36.35,0,0,1,1.56,10.61,73.59,73.59,0,0,1-12.19,40,36.87,36.87,0,0,1-7.2,7.94,17.33,17.33,0,0,1-4.78,2.77,8.66,8.66,0,0,1-5.69.23,8.5,8.5,0,0,1-4.34-3.55,16.33,16.33,0,0,1-2.07-4.95,37.43,37.43,0,0,1-.94-10.42,66.22,66.22,0,0,1,1.13-10.33A83.2,83.2,0,0,1,350.67,239Z" transform="translate(-101.22 -45.83)"/><ellipse class="cls-8" cx="195.91" cy="216.42" rx="14.82" ry="17.44"/><ellipse class="cls-8" cx="359.43" cy="262.75" rx="15.45" ry="10.77" transform="translate(-97.81 484.3) rotate(-73.07)"/><path class="cls-9" d="M368.07,355.07c0,2.88-.54,7.49-3.71,11.13-5.61,6.44-17.5,7.54-28.44,1.23" transform="translate(-101.22 -45.83)"/><path d="M368.12,355.07a18.26,18.26,0,0,1-.23,5.41,15.32,15.32,0,0,1-2.1,5.12,13.19,13.19,0,0,1-4,3.94,17.27,17.27,0,0,1-5.1,2.31,21.86,21.86,0,0,1-5.51.66,22.24,22.24,0,0,1-5.46-.6,26.19,26.19,0,0,1-2.62-.76,22.9,22.9,0,0,1-2.54-1,30,30,0,0,1-4.67-2.7l.06-.09a32.34,32.34,0,0,0,9.93,3.69,26,26,0,0,0,5.29.44,20.2,20.2,0,0,0,5.24-.73,16.06,16.06,0,0,0,4.85-2.09,13.69,13.69,0,0,0,3.84-3.59,17.22,17.22,0,0,0,2.91-10Z" transform="translate(-101.22 -45.83)"/><path class="cls-10" d="M1008.76,277.89,387.22,312c-32.5,1.79-59.62-6.21-60.25-17.76h0c-.29-5.26,11.56-10.22,26.34-11l683.32-37.51c13.29-.73,24.38,2.54,24.64,7.27l.16,2.87C1062,266.34,1038.3,276.27,1008.76,277.89Z" transform="translate(-101.22 -45.83)"/><path class="cls-11" d="M173.39,105.35c-1.28-.77-.82-2.72-1.23-5.22-1.65-10.2-12.13-12.55-19.27-21.47-8.91-11.12-8.37-29.2-3.3-31.93,1.69-.91,3.68,0,7.16,1.65C179.14,59,196.23,67.65,195.28,67.1c-.66,10.74-.39,13.16,0,13.21s.72-1.54,2.21-5.5c.87-2.33,1.65-4.23,2.2-5.51,1.7,1,3.2,2,4.48,3s2,1.53,3.23,2.52c4.92,4,9.57,7.66,9.58,7.66h0s-13.07,3.33-24,9.81C181.5,99.1,176.29,107.1,173.39,105.35Z" transform="translate(-101.22 -45.83)"/><path class="cls-12" d="M169.56,239.39c-4,11-4.68,15.9-4.89,19.6-.17,3.22-1.07,19.42,9.06,32.94,9.42,12.59,23.68,16.61,22.88,18.53-.49,1.19-6.74-.33-9.8-1.09-19.25-4.76-28.87-7.14-34.87-9.81-4.7-2.08-48.48-21.53-50.12-54.48-.6-12.06,4.62-22.37,6.53-26.15,6.72-13.24,14-15.15,21.8-25.06,13.3-8.17,24.23-14.78,31.6-19.62,7.14-4.69,16.48-10.62,27.61-17.15,9.48-5.55,16.36-9.25,30.14-16.62,16-8.55,19.16-9.9,21.79-10.9A108.66,108.66,0,0,1,268.53,123c-45.92,24.1-68.53,59.51-80.63,78.45A202.9,202.9,0,0,0,169.56,239.39Z" transform="translate(-101.22 -45.83)"/><path class="cls-1" d="M197.7,311.55a54.86,54.86,0,0,1-33-49.29,94.87,94.87,0,0,0,13.08,24c5.71,7.57,11,14.58,17.43,14.16,3.36-.21,5.31-2.33,10.9-2.17,3.85.1,7.64,1.24,7.63,2.17,0,.35-.74.53-2,.9-2.28.68-4.48,1.61-6.74,2.37C203,304.34,200.32,306.19,197.7,311.55Z" transform="translate(-101.22 -45.83)"/><path class="cls-1" d="M271.46,122.79a189.33,189.33,0,0,0-12.74,28.58c-6.49,18.56-4.83,23.06-12.32,42.24-4.53,11.59-9.41,24.09-16.35,30.51a36.65,36.65,0,0,0-7.29,9,32.72,32.72,0,0,0-3.6,8.47c-.77,3-.48,3.8-1.09,4.35-1.59,1.42-7.32-.7-24.66-14.94l.46,0-.53-.1c-4.63-.79-12.86-.22-24.31,10.65,1.4-4.29,3.53-10.35,6.54-17.44a220.22,220.22,0,0,1,37.05-58.84c10.68-12.21,20.4-23.11,37-32.69A121.11,121.11,0,0,1,271.46,122.79Z" transform="translate(-101.22 -45.83)"/><path class="cls-1" d="M172.12,238.76l-.72,1v0a7.63,7.63,0,0,1-.61.77l0,0c-.13.12-.23.18-.3.13l.19-.24C171.13,239.87,171.61,239.31,172.12,238.76Z" transform="translate(-101.22 -45.83)"/><path class="cls-1" d="M193.87,231l-.46,0-.07-.06Z" transform="translate(-101.22 -45.83)"/><path class="cls-1" d="M165.53,254.89A44.59,44.59,0,0,0,167.19,268,32.16,32.16,0,0,1,165.53,254.89Z" transform="translate(-101.22 -45.83)"/><path class="cls-1" d="M193.87,231l-.46,0c-3-.22-11.44-.38-18.59,5.39a23.52,23.52,0,0,0-3.42,3.42v0c-.22.25-.42.51-.61.77l0,0a27.43,27.43,0,0,0-5.23,14.3,24.5,24.5,0,0,1,4.93-14.17l.19-.24c.48-.61,1-1.17,1.47-1.72v0a24.08,24.08,0,0,1,21.21-7.83Z" transform="translate(-101.22 -45.83)"/><path class="cls-13" d="M131.21,190.94c5-8,9.63-16.56,10.89-21.8,2.74-11.36-1.41-15.9,2.18-27.24,1.08-3.4,3-7.76,8.72-15.25,3.54-4.61,16.32-20.52,34.87-31.6,48.62-29,126.29-18.55,134-17.44,13.05,1.89,27.47,6.58,54.48,9.81,15.86,1.9,24.65,2.11,24.75,3.77.27,4.42-62.09,5.17-94.79,20.7a113.2,113.2,0,0,1-34.87,10.9c-5.45.73-6,.36-10.9,1.09-15.86,2.34-27.25,8.78-34.87,13.07C181.64,161.77,187.27,158.05,181,162c-30.55,19.39-50.62,35.75-52.3,33.78C128.31,195.31,129.26,194.08,131.21,190.94Z" transform="translate(-101.22 -45.83)"/><path class="cls-14" d="M246.4,77c-26.46,4.62-47.21,28.51-59.59,42.75-20.11,23.14-24.46,39.71-25.06,44.68l-1.43,11.73h0s10.8-8,20.7-14.17c9.69-6.08,13.11-7.1,17.43-9.8,15.74-9.85,11.71-22.18,25.4-40.06,18.62-24.32,51-34.14,63.2-36,1.44-.22,6.23-.87,6.2-1.35-.05-.81-13.85-.8-26.15,0C259.54,75.33,251,76.22,246.4,77Z" transform="translate(-101.22 -45.83)"/><path d="M206.11,263.85a22.54,22.54,0,0,0-7.93-6.81,13.29,13.29,0,0,0-4.4-1.23,9.86,9.86,0,0,0-4.24.5,12.19,12.19,0,0,0-4,2.07,16.3,16.3,0,0,0-3.38,3.36,20,20,0,0,0-2.52,4.38,30.11,30.11,0,0,0-1.58,5.29l-.32,0a20,20,0,0,1,.21-5.67,17.45,17.45,0,0,1,2-5.32,15.62,15.62,0,0,1,8.58-7.25,12.55,12.55,0,0,1,5.71-.44,14.44,14.44,0,0,1,5.3,2.1,17.63,17.63,0,0,1,6.85,8.88Z" transform="translate(-101.22 -45.83)"/><path class="cls-9" d="M183,260.53a10.65,10.65,0,0,0,6.54,16.34" transform="translate(-101.22 -45.83)"/><path d="M183.17,260.65a46.4,46.4,0,0,0,1.22,5.08c.39,1.29.81,2.23,1.19,3.24s.76,2,1.37,3.17a45.54,45.54,0,0,0,2.62,4.52l-.09.42a11,11,0,0,1-4.75-2.25,10.12,10.12,0,0,1-3.81-9.52,11,11,0,0,1,1.89-4.9Z" transform="translate(-101.22 -45.83)"/><ellipse class="cls-15" cx="196.02" cy="226.14" rx="4.9" ry="5.99"/><ellipse class="cls-16" cx="357.36" cy="270.17" rx="5.58" ry="3.57" transform="matrix(0.2, -0.98, 0.98, 0.2, -78.99, 521.65)"/><path class="cls-9" d="M150.42,46.51Q172.21,69.4,194,92.28" transform="translate(-101.22 -45.83)"/><path d="M150.62,46.32c3.94,3.52,7.78,7.13,11.68,10.69l5.78,5.41,5.71,5.47c1.9,1.83,3.87,3.58,5.82,5.36A62.76,62.76,0,0,1,185.08,79a74.53,74.53,0,0,1,9.12,13.13l-.39.37a74.53,74.53,0,0,1-12.67-9.75A61.4,61.4,0,0,1,175.71,77c-1.69-2-3.34-4.09-5.08-6.07l-5.18-6-5.12-6c-3.37-4.06-6.79-8.08-10.11-12.19Z" transform="translate(-101.22 -45.83)"/><path class="cls-9" d="M171.12,56.32Q170.58,60.67,170,65" transform="translate(-101.22 -45.83)"/><path d="M171.28,56.34c.17.76.27,1.51.38,2.26s.17,1.5.22,2.24.38,1.52.05,2.22a4.32,4.32,0,0,1-1.73,2l-.33,0a4.31,4.31,0,0,1-1.19-2.36c-.15-.75.37-1.43.6-2.14s.48-1.41.76-2.11.57-1.41.92-2.1Z" transform="translate(-101.22 -45.83)"/><path class="cls-9" d="M183.91,66.67l-1.47,11.72" transform="translate(-101.22 -45.83)"/><path d="M184.12,66.7c.23,1,.36,2,.51,3l.18,1.51.11,1.5a13.12,13.12,0,0,0,.23,1.51,2.72,2.72,0,0,1-.16,1.47,5.06,5.06,0,0,1-.83,1.39,5.49,5.49,0,0,1-1.5,1.3l-.44-.06a5.35,5.35,0,0,1-1.13-1.63,5,5,0,0,1-.46-1.54,2.75,2.75,0,0,1,.2-1.47,13.25,13.25,0,0,0,.6-1.41l.48-1.43.54-1.42c.39-.94.77-1.88,1.24-2.82Z" transform="translate(-101.22 -45.83)"/><path class="cls-9" d="M174.3,83.07l11.21,3.71" transform="translate(-101.22 -45.83)"/><path d="M174.37,82.86c1,0,2.06,0,3.08.1l1.51.12,1.5.18c.49.06,1,0,1.53.07a2.72,2.72,0,0,1,1.41.44,5,5,0,0,1,1.19,1.08,5.37,5.37,0,0,1,1,1.72l-.14.42a5.54,5.54,0,0,1-1.82.8,5,5,0,0,1-1.6.15,2.74,2.74,0,0,1-1.4-.48,12.89,12.89,0,0,0-1.27-.86L178,85.85,176.76,85c-.85-.56-1.71-1.12-2.53-1.76Z" transform="translate(-101.22 -45.83)"/><path class="cls-9" d="M153.83,58.89l8.56,2" transform="translate(-101.22 -45.83)"/><path d="M153.87,58.73c.77-.09,1.52-.12,2.28-.15s1.51,0,2.25,0,1.56-.23,2.22.17a4,4,0,0,1,1,.72,3.91,3.91,0,0,1,.85,1.21l-.07.31a4,4,0,0,1-1.29.72,4,4,0,0,1-1.18.23c-.77.07-1.39-.51-2.07-.81s-1.36-.62-2-1-1.34-.71-2-1.12Z" transform="translate(-101.22 -45.83)"/></svg>