<svg width="198" height="40" viewBox="0 0 198 40" fill="none" xmlns="http://www.w3.org/2000/svg">
<path d="M10.592 26.24V37.76C10.152 37.88 9.45195 38 8.49195 38.12C7.57195 38.24 6.65195 38.3 5.73195 38.3C4.81195 38.3 3.99195 38.22 3.27195 38.06C2.59195 37.94 2.01195 37.7 1.53195 37.34C1.09195 36.98 0.751953 36.48 0.511953 35.84C0.271953 35.2 0.151953 34.36 0.151953 33.32V5.06C0.151953 4.22 0.371953 3.58 0.811953 3.14C1.29195 2.66 1.93195 2.28 2.73195 2C4.09195 1.52 5.67195 1.18 7.47195 0.979997C9.27195 0.739998 11.192 0.619998 13.232 0.619998C18.752 0.619998 22.912 1.78 25.712 4.1C28.512 6.42 29.912 9.56 29.912 13.52C29.912 16 29.272 18.12 27.992 19.88C26.712 21.64 25.192 23 23.432 23.96C24.872 25.92 26.292 27.76 27.692 29.48C29.092 31.2 30.192 32.76 30.992 34.16C30.592 35.56 29.852 36.64 28.772 37.4C27.732 38.12 26.552 38.48 25.232 38.48C24.352 38.48 23.592 38.38 22.952 38.18C22.312 37.98 21.752 37.7 21.272 37.34C20.792 36.98 20.352 36.54 19.952 36.02C19.552 35.5 19.172 34.94 18.812 34.34L13.772 26.24H10.592ZM14.372 18.26C15.892 18.26 17.092 17.88 17.972 17.12C18.852 16.32 19.292 15.16 19.292 13.64C19.292 12.12 18.792 10.98 17.792 10.22C16.832 9.42 15.292 9.02 13.172 9.02C12.572 9.02 12.092 9.04 11.732 9.08C11.372 9.12 10.972 9.18 10.532 9.26V18.26H14.372ZM50.4755 38.96C48.1155 38.96 45.9155 38.64 43.8755 38C41.8755 37.32 40.1155 36.32 38.5955 35C37.1155 33.68 35.9355 32.02 35.0555 30.02C34.2155 28.02 33.7955 25.68 33.7955 23C33.7955 20.36 34.2155 18.1 35.0555 16.22C35.9355 14.3 37.0755 12.74 38.4755 11.54C39.8755 10.3 41.4755 9.4 43.2755 8.84C45.0755 8.24 46.9155 7.94 48.7955 7.94C50.9155 7.94 52.8355 8.26 54.5555 8.9C56.3155 9.54 57.8155 10.42 59.0555 11.54C60.3355 12.66 61.3155 14 61.9955 15.56C62.7155 17.12 63.0756 18.82 63.0756 20.66C63.0756 22.02 62.6955 23.06 61.9355 23.78C61.1755 24.5 60.1155 24.96 58.7555 25.16L43.9355 27.38C44.3755 28.7 45.2755 29.7 46.6355 30.38C47.9955 31.02 49.5555 31.34 51.3155 31.34C52.9555 31.34 54.4955 31.14 55.9355 30.74C57.4155 30.3 58.6155 29.8 59.5355 29.24C60.1755 29.64 60.7155 30.2 61.1555 30.92C61.5955 31.64 61.8155 32.4 61.8155 33.2C61.8155 35 60.9755 36.34 59.2955 37.22C58.0155 37.9 56.5755 38.36 54.9755 38.6C53.3755 38.84 51.8755 38.96 50.4755 38.96ZM48.7955 15.38C47.8355 15.38 46.9955 15.54 46.2755 15.86C45.5955 16.18 45.0355 16.6 44.5955 17.12C44.1555 17.6 43.8155 18.16 43.5755 18.8C43.3755 19.4 43.2555 20.02 43.2155 20.66L53.4755 18.98C53.3555 18.18 52.9155 17.38 52.1555 16.58C51.3955 15.78 50.2755 15.38 48.7955 15.38ZM92.5852 29.3C92.5852 32.34 91.4452 34.72 89.1652 36.44C86.8852 38.16 83.5252 39.02 79.0852 39.02C77.4052 39.02 75.8452 38.9 74.4052 38.66C72.9652 38.42 71.7252 38.06 70.6852 37.58C69.6852 37.06 68.8852 36.42 68.2852 35.66C67.7252 34.9 67.4452 34 67.4452 32.96C67.4452 32 67.6452 31.2 68.0452 30.56C68.4452 29.88 68.9252 29.32 69.4852 28.88C70.6452 29.52 71.9652 30.1 73.4452 30.62C74.9652 31.1 76.7052 31.34 78.6652 31.34C79.9052 31.34 80.8452 31.16 81.4852 30.8C82.1652 30.44 82.5052 29.96 82.5052 29.36C82.5052 28.8 82.2652 28.36 81.7852 28.04C81.3052 27.72 80.5052 27.46 79.3852 27.26L77.5852 26.9C74.1052 26.22 71.5052 25.16 69.7852 23.72C68.1052 22.24 67.2652 20.14 67.2652 17.42C67.2652 15.94 67.5852 14.6 68.2252 13.4C68.8652 12.2 69.7652 11.2 70.9252 10.4C72.0852 9.6 73.4652 8.98 75.0652 8.54C76.7052 8.1 78.5052 7.88 80.4652 7.88C81.9452 7.88 83.3252 8 84.6052 8.24C85.9252 8.44 87.0652 8.76 88.0252 9.2C88.9852 9.64 89.7452 10.22 90.3052 10.94C90.8652 11.62 91.1452 12.44 91.1452 13.4C91.1452 14.32 90.9652 15.12 90.6052 15.8C90.2852 16.44 89.8652 16.98 89.3452 17.42C89.0252 17.22 88.5452 17.02 87.9052 16.82C87.2652 16.58 86.5652 16.38 85.8052 16.22C85.0452 16.02 84.2652 15.86 83.4652 15.74C82.7052 15.62 82.0052 15.56 81.3652 15.56C80.0452 15.56 79.0252 15.72 78.3052 16.04C77.5852 16.32 77.2252 16.78 77.2252 17.42C77.2252 17.86 77.4252 18.22 77.8252 18.5C78.2252 18.78 78.9852 19.04 80.1052 19.28L81.9652 19.7C85.8052 20.58 88.5252 21.8 90.1252 23.36C91.7652 24.88 92.5852 26.86 92.5852 29.3ZM107.716 27.98C107.716 29.02 108.036 29.76 108.676 30.2C109.356 30.64 110.296 30.86 111.496 30.86C112.096 30.86 112.716 30.82 113.356 30.74C113.996 30.62 114.556 30.48 115.036 30.32C115.396 30.76 115.696 31.26 115.936 31.82C116.216 32.34 116.356 32.98 116.356 33.74C116.356 35.26 115.776 36.5 114.616 37.46C113.496 38.42 111.496 38.9 108.616 38.9C105.096 38.9 102.376 38.1 100.456 36.5C98.5765 34.9 97.6365 32.3 97.6365 28.7V3.02C98.0765 2.9 98.6965 2.78 99.4965 2.66C100.336 2.5 101.216 2.42 102.136 2.42C103.896 2.42 105.256 2.74 106.216 3.38C107.216 3.98 107.716 5.28 107.716 7.28V11.12H115.576C115.816 11.56 116.036 12.12 116.236 12.8C116.476 13.44 116.596 14.16 116.596 14.96C116.596 16.36 116.276 17.38 115.636 18.02C115.036 18.62 114.216 18.92 113.176 18.92H107.716V27.98ZM134.02 31.52C134.7 31.52 135.44 31.46 136.24 31.34C137.08 31.18 137.7 30.98 138.1 30.74V25.94L133.78 26.3C132.66 26.38 131.74 26.62 131.02 27.02C130.3 27.42 129.94 28.02 129.94 28.82C129.94 29.62 130.24 30.28 130.84 30.8C131.48 31.28 132.54 31.52 134.02 31.52ZM133.54 7.94C135.7 7.94 137.66 8.16 139.42 8.6C141.22 9.04 142.74 9.72 143.98 10.64C145.26 11.52 146.24 12.66 146.92 14.06C147.6 15.42 147.94 17.04 147.94 18.92V32.36C147.94 33.4 147.64 34.26 147.04 34.94C146.48 35.58 145.8 36.14 145 36.62C142.4 38.18 138.74 38.96 134.02 38.96C131.9 38.96 129.98 38.76 128.26 38.36C126.58 37.96 125.12 37.36 123.88 36.56C122.68 35.76 121.74 34.74 121.06 33.5C120.42 32.26 120.1 30.82 120.1 29.18C120.1 26.42 120.92 24.3 122.56 22.82C124.2 21.34 126.74 20.42 130.18 20.06L138.04 19.22V18.8C138.04 17.64 137.52 16.82 136.48 16.34C135.48 15.82 134.02 15.56 132.1 15.56C130.58 15.56 129.1 15.72 127.66 16.04C126.22 16.36 124.92 16.76 123.76 17.24C123.24 16.88 122.8 16.34 122.44 15.62C122.08 14.86 121.9 14.08 121.9 13.28C121.9 12.24 122.14 11.42 122.62 10.82C123.14 10.18 123.92 9.64 124.96 9.2C126.12 8.76 127.48 8.44 129.04 8.24C130.64 8.04 132.14 7.94 133.54 7.94ZM164.377 37.94C163.977 38.06 163.337 38.18 162.457 38.3C161.617 38.42 160.737 38.48 159.817 38.48C158.937 38.48 158.137 38.42 157.417 38.3C156.737 38.18 156.157 37.94 155.677 37.58C155.197 37.22 154.817 36.74 154.537 36.14C154.297 35.5 154.177 34.68 154.177 33.68V15.68C154.177 14.76 154.337 13.98 154.657 13.34C155.017 12.66 155.517 12.06 156.157 11.54C156.797 11.02 157.577 10.56 158.497 10.16C159.457 9.72 160.477 9.34 161.557 9.02C162.637 8.7 163.757 8.46 164.917 8.3C166.077 8.1 167.237 8 168.397 8C170.317 8 171.837 8.38 172.957 9.14C174.077 9.86 174.637 11.06 174.637 12.74C174.637 13.3 174.557 13.86 174.397 14.42C174.237 14.94 174.037 15.42 173.797 15.86C172.957 15.86 172.097 15.9 171.217 15.98C170.337 16.06 169.477 16.18 168.637 16.34C167.797 16.5 166.997 16.68 166.237 16.88C165.517 17.04 164.897 17.24 164.377 17.48V37.94ZM189.045 27.98C189.045 29.02 189.365 29.76 190.005 30.2C190.685 30.64 191.625 30.86 192.825 30.86C193.425 30.86 194.045 30.82 194.685 30.74C195.325 30.62 195.885 30.48 196.365 30.32C196.725 30.76 197.025 31.26 197.265 31.82C197.545 32.34 197.685 32.98 197.685 33.74C197.685 35.26 197.105 36.5 195.945 37.46C194.825 38.42 192.825 38.9 189.945 38.9C186.425 38.9 183.705 38.1 181.785 36.5C179.905 34.9 178.965 32.3 178.965 28.7V3.02C179.405 2.9 180.025 2.78 180.825 2.66C181.665 2.5 182.545 2.42 183.465 2.42C185.225 2.42 186.585 2.74 187.545 3.38C188.545 3.98 189.045 5.28 189.045 7.28V11.12H196.905C197.145 11.56 197.365 12.12 197.565 12.8C197.805 13.44 197.925 14.16 197.925 14.96C197.925 16.36 197.605 17.38 196.965 18.02C196.365 18.62 195.545 18.92 194.505 18.92H189.045V27.98Z" fill="#FFFF99"/>
</svg>
