<svg width="332" height="344" viewBox="0 0 332 344" fill="none" xmlns="http://www.w3.org/2000/svg">
<g style="mix-blend-mode:multiply">
<g style="mix-blend-mode:multiply">
<path d="M239.949 10.6384C218.059 12.8484 200.549 14.5084 188.419 15.6384C163.049 18.0084 162.719 17.8884 156.889 18.7584C143.889 20.6984 137.059 22.5584 124.589 22.6484C114.799 22.7184 115.369 21.5984 105.909 21.4784C85.6792 21.2284 83.7292 26.3484 64.2592 26.9284C44.7892 27.5084 41.3592 22.5584 32.7392 27.3184C28.6492 29.5684 23.4992 33.9484 15.9992 33.5484C13.7519 33.4103 11.5457 32.8824 9.47925 31.9884C14.5595 27.0905 21.1841 24.1104 28.2192 23.5584L210.459 8.82838C220.326 8.05378 230.252 8.66302 239.949 10.6384Z" fill="#643E23"/>
</g>
</g>
<path d="M242.829 2.13841C220.939 4.34841 203.429 6.00841 191.299 7.13841C165.929 9.50841 165.599 9.3884 159.769 10.2584C146.769 12.1984 139.939 14.0584 127.469 14.1484C117.679 14.2184 118.249 13.0984 108.789 12.9784C88.5591 12.7284 86.6091 17.8484 67.1391 18.4284C47.6691 19.0084 44.2391 14.0584 35.6191 18.8184C31.4791 21.0284 26.3291 25.4484 18.8291 25.0284C16.5818 24.8903 14.3755 24.3624 12.3091 23.4684C17.3879 18.5668 24.0126 15.5832 31.0491 15.0284L213.289 0.328411C223.172 -0.450875 233.115 0.158378 242.829 2.13841Z" fill="#BE753E"/>
<g style="mix-blend-mode:multiply">
<g style="mix-blend-mode:multiply">
<path d="M321.709 95.4885L274.049 151.758C271.239 155.083 267.785 157.806 263.897 159.763C260.008 161.721 255.764 162.872 251.419 163.148L17.7292 178.148C15.9008 178.27 14.0974 177.671 12.7063 176.478C11.3152 175.285 10.4474 173.594 10.2892 171.768L0.119129 56.8585C-0.285964 52.2825 0.345136 47.674 1.96556 43.3753C3.58599 39.0767 6.15415 35.1984 9.47918 32.0285C11.5456 32.9225 13.7518 33.4504 15.9991 33.5885C23.4991 33.9885 28.6491 29.5885 32.7391 27.3585C41.3591 22.5985 44.8091 27.5485 64.2591 26.9685C83.7091 26.3885 85.6792 21.2685 105.909 21.5185C115.369 21.6385 114.799 22.7585 124.589 22.6885C137.059 22.5985 143.859 20.6885 156.889 18.7985C162.719 17.9285 163.049 18.0485 188.419 15.6785C200.549 14.5485 218.059 12.8885 239.949 10.6785C254.689 13.6785 268.739 19.9685 278.949 29.9585L324.879 73.2885C333.439 80.8985 326.249 90.1385 321.709 95.4885Z" fill="#643E23"/>
</g>
</g>
<path d="M324.539 87.0284L276.879 143.298C274.069 146.623 270.615 149.346 266.727 151.303C262.838 153.26 258.594 154.412 254.249 154.688L20.5591 169.688C18.7306 169.81 16.9273 169.211 15.5362 168.018C14.1452 166.825 13.2773 165.134 13.1191 163.308L2.94907 48.3584C2.53781 43.7759 3.16592 39.1597 4.78653 34.8536C6.40715 30.5475 8.97849 26.6627 12.3091 23.4884C14.3768 24.3756 16.5829 24.8967 18.8291 25.0284C26.3291 25.4284 31.4791 21.0284 35.5691 18.7984C44.1891 14.0384 47.6391 18.9884 67.0891 18.4084C86.5391 17.8284 88.509 12.7084 108.739 12.9584C118.199 13.0784 117.629 14.1984 127.419 14.1284C139.889 14.0384 146.689 12.1284 159.719 10.2384C165.549 9.36842 165.879 9.48841 191.249 7.11841C203.379 5.98841 220.889 4.32841 242.779 2.11841C257.519 5.11841 271.569 11.4084 281.779 21.3984L327.709 64.7284C336.269 72.3984 329.079 81.6384 324.539 87.0284Z" fill="#DCA163"/>
<path d="M130.929 25.0284L148.349 24.4084C154.159 24.2784 159.959 23.9484 165.749 23.5284C177.339 22.7284 188.889 21.5284 200.429 20.1684L235.069 16.2384L252.399 14.3584L269.739 12.5784L252.459 14.8384L235.159 16.9984L200.539 21.1584C188.989 22.4584 177.409 23.6484 165.799 24.2884C154.189 24.9284 142.549 24.8684 130.929 25.0284Z" fill="#A77042"/>
<path d="M116.529 32.5184C127.759 31.1884 142.809 29.5184 160.639 28.1084C166.859 27.6084 193.259 25.5084 228.879 24.4784C243.779 24.0484 262.489 23.7484 284.139 23.9584" stroke="#A77042" stroke-width="2" stroke-miterlimit="10"/>
<path d="M267.619 12.5484C265.929 12.4684 266.469 12.9284 261.849 13.4484C260.609 13.5884 259.549 13.6684 259.219 14.3584C258.889 15.0484 259.409 16.0584 259.889 16.6284C261.699 18.8084 265.669 18.2184 271.739 17.3284C274.739 16.8984 275.079 16.6184 275.139 16.3284C275.389 15.1884 271.539 12.7084 267.619 12.5484Z" fill="#BD743D"/>
<path d="M3.30908 60.1484C15.4569 55.1968 28.1806 51.7967 41.1791 50.0284C47.6455 49.138 54.162 48.6604 60.6891 48.5984C67.2036 48.526 73.7162 48.86 80.1891 49.5984C73.7106 49.112 67.2083 49.0251 60.7191 49.3384C41.2916 50.28 22.217 54.8841 4.49908 62.9084L3.30908 60.1484Z" fill="#633B17"/>
<path d="M65.1093 65.3985C58.1093 66.3185 49.1993 65.8485 42.2093 66.8885C26.9993 69.1585 19.0393 72.5685 18.1493 70.3285C17.7493 69.3285 19.3393 67.6685 20.2293 66.9585C22.7393 64.9585 26.0893 65.3285 26.9693 65.3985C32.9693 65.9185 37.2093 62.5485 58.3693 57.6185C66.4162 55.6555 74.5564 54.0969 82.7593 52.9485C88.3193 52.1985 98.1393 53.0485 116.759 52.4885C116.759 52.4885 120.499 51.2585 148.479 52.6885C151.149 52.8185 156.479 53.1185 156.659 54.4385C156.839 55.7585 152.849 57.5485 151.399 57.5485C132.139 57.5485 120.189 60.2585 109.559 60.0785C106.189 60.0285 92.4993 61.8185 65.1093 65.3985Z" fill="#BE753E"/>
<path d="M19.8292 84.0284C19.8292 83.9184 20.3492 83.6984 27.0992 83.0284C36.8492 82.0284 41.7191 81.4884 50.1891 81.2184C66.7791 80.6684 73.7191 79.3183 96.6292 78.3583C129.299 76.9883 160.429 77.8484 160.459 78.8784C160.459 79.6184 144.819 80.9384 136.589 81.4784C136.199 81.4784 124.689 82.2484 110.639 84.5884C108.249 84.9884 105.429 85.4883 105.449 85.8883C105.499 86.5683 114.009 86.5584 119.449 86.4084C129.329 86.1184 135.829 85.1484 148.249 83.5484C161.249 81.8784 167.709 78.2584 169.529 80.9584C170.529 82.5084 169.679 85.3384 168.229 86.9584C166.009 89.3884 162.229 89.1684 159.929 89.0384C159.929 89.0384 149.009 88.4284 132.429 88.2584C128.539 88.2584 130.029 88.5084 116.859 89.5584C101.239 90.7984 98.4792 90.4484 85.9792 91.3784C67.9792 92.7084 67.9791 93.8684 57.4391 94.2284C46.6992 94.5884 40.1492 92.3284 27.6092 92.1484C20.5192 92.0584 13.3392 92.2784 13.3392 92.2784C11.1692 92.2784 8.23919 93.8484 7.10919 92.5384C6.79927 92.0996 6.63281 91.5756 6.63281 91.0384C6.63281 90.5012 6.79927 89.9772 7.10919 89.5384C7.94919 88.3584 9.77919 88.3684 10.6092 88.3684C14.4592 88.3684 18.3192 87.5084 22.1592 87.8484C25.9992 88.1884 23.6891 87.5984 36.5591 87.4584C44.2091 87.3784 49.0692 87.5484 54.8492 84.9984C55.6292 84.6484 57.9692 83.6184 57.8492 83.0484C57.6192 82.1384 51.1091 83.3784 42.9291 84.0484C30.8291 85.0884 19.8892 84.5284 19.8292 84.0284Z" fill="#BE753E"/>
<path d="M16.6992 103.798C19.6992 103.178 22.6992 102.798 25.6992 102.408C28.6992 102.018 31.6992 101.858 34.6992 101.698C37.6992 101.538 40.7492 101.528 43.7792 101.608C46.8115 101.659 49.8391 101.869 52.8492 102.238C49.8492 102.678 46.8492 102.948 43.8492 103.168C40.8492 103.388 37.8492 103.548 34.8492 103.688C31.8492 103.828 28.8492 103.898 25.8492 103.958C22.8492 104.018 19.7492 104.028 16.6992 103.798Z" fill="#6C421B"/>
<path d="M73.9191 101.378L89.5191 99.5585C94.7291 99.0285 99.9491 98.6085 105.169 98.1385L112.999 97.3985C115.619 97.2385 118.239 97.2085 120.859 97.1785C126.109 97.1785 131.349 97.2585 136.589 97.6785C136.615 97.6832 136.638 97.6968 136.654 97.717C136.671 97.7371 136.68 97.7625 136.679 97.7885C136.679 97.8385 136.629 97.8685 136.589 97.8785C131.359 98.5585 126.149 98.8785 120.929 99.1785L117.019 99.3085C115.709 99.3085 114.399 99.3085 113.099 99.3785L105.269 99.7285C100.049 100.008 94.8191 100.228 89.5991 100.558L73.9391 101.558C73.9126 101.558 73.8872 101.548 73.8684 101.529C73.8497 101.51 73.8391 101.485 73.8391 101.458C73.8391 101.432 73.8497 101.407 73.8684 101.388C73.8872 101.369 73.9126 101.358 73.9391 101.358L73.9191 101.378Z" fill="#6C421B"/>
<path d="M9.03906 140.868C13.7121 138.47 18.6918 136.724 23.8391 135.678C26.4099 135.169 29.0192 134.878 31.639 134.808C34.2293 134.752 36.8201 134.892 39.389 135.228C41.929 135.538 44.389 135.908 46.869 136.098C49.351 136.292 51.8428 136.325 54.329 136.198C59.3479 135.937 64.3203 135.101 69.149 133.708C64.4032 135.508 59.4682 136.763 54.439 137.448C51.917 137.801 49.3754 137.995 46.829 138.028C44.269 138.028 41.7091 137.868 39.2191 137.768C34.3372 137.502 29.4448 138.042 24.739 139.368C20.0767 140.73 15.6222 142.721 11.499 145.288L9.03906 140.868Z" fill="#6C4033"/>
<path d="M12.3091 153.518C15.0491 153.058 17.7591 152.698 20.4591 152.318C23.1591 151.938 25.8591 151.558 28.5391 151.138C31.2191 150.718 33.9191 150.288 36.6091 149.858C39.2991 149.428 41.9991 148.958 44.7491 148.588C42.2313 149.734 39.6223 150.667 36.9491 151.378C31.6132 152.851 26.1216 153.687 20.5891 153.868C17.8242 153.977 15.055 153.859 12.3091 153.518Z" fill="#6C4033"/>
<path d="M150.149 135.098C154.819 134.098 159.519 133.298 164.229 132.558C168.939 131.818 173.659 131.078 178.409 130.658C183.159 130.238 187.909 129.788 192.669 129.488C197.429 129.188 202.189 128.918 206.969 128.878C202.259 129.748 197.539 130.428 192.819 131.038C188.099 131.648 183.359 132.168 178.629 132.638L175.069 132.968L171.529 133.378C169.159 133.618 166.799 133.898 164.419 134.098C159.679 134.548 154.929 134.918 150.149 135.098Z" fill="#6C4033"/>
<path d="M242.829 101.768C249.069 100.538 255.359 99.5884 261.659 98.7684C267.959 97.9484 274.289 97.4184 280.659 96.9984C283.829 96.8484 287.009 96.7084 290.179 96.6184C293.349 96.5284 296.539 96.4884 299.709 96.5484C306.069 96.5984 312.419 96.8584 318.709 97.5484C312.369 98.1484 306.039 98.5484 299.709 98.9284L280.749 100.028L271.279 100.548L266.539 100.798C264.969 100.928 263.389 101.028 261.809 101.118C255.489 101.468 249.159 101.768 242.829 101.768Z" fill="#6C4033"/>
<path d="M55.0791 144.908L127.549 140.198L55.2391 146.898L55.0791 144.908Z" fill="#BE753E"/>
<path d="M155.229 136.328C154.169 136.068 155.159 138.279 154.649 139.449C153.069 142.989 142.179 141.578 142.189 141.388C142.199 141.198 144.569 142.219 163.599 141.979C174.759 141.829 186.059 141.688 201.349 140.218C208.649 139.518 220.349 138.408 235.209 135.548C245.449 133.548 248.429 132.548 256.419 131.858C268.269 130.908 274.189 130.428 277.049 130.688C280.279 130.978 283.689 131.528 287.359 129.688C291.419 127.688 294.359 123.498 293.589 122.288C292.909 121.288 289.729 122.598 285.419 123.848C277.299 126.188 275.949 125.118 264.419 126.958C251.329 129.048 252.309 130.538 240.089 132.408C234.879 133.208 230.089 133.528 220.639 134.158C204.859 135.218 206.369 134.558 197.089 135.328C176.209 137.068 168.089 140.448 161.279 137.278C160.439 136.918 158.089 137.028 155.229 136.328Z" fill="#BD743D"/>
<path d="M176.999 117.408C190.808 114.401 204.871 112.707 218.999 112.348C253.849 111.508 268.699 119.498 290.999 109.618C300.999 105.198 310.239 98.1784 311.629 99.8884C312.739 101.248 307.969 106.998 303.459 111.958" fill="#DB985F"/>
<path d="M197.129 107.338C189.559 108.858 181.939 110.068 174.289 111.048C166.639 112.028 158.969 112.838 151.289 113.288C147.439 113.488 143.579 113.618 139.729 113.748L133.949 113.908L128.169 114.118C120.479 114.448 112.789 114.968 105.109 115.548L82.1092 117.308C74.4592 117.928 66.8292 118.768 59.2092 119.628C43.9392 121.308 28.7292 123.398 13.4692 125.628L13.4092 125.338C28.3193 121.302 43.4975 118.331 58.8292 116.448C74.1719 114.685 89.6056 113.834 105.049 113.898C112.749 113.848 120.449 113.698 128.129 113.148C131.969 112.888 135.799 112.488 139.629 112.078L151.099 110.798C158.749 110.008 166.409 109.378 174.099 108.738C181.789 108.098 189.429 107.488 197.099 107.038L197.129 107.338Z" fill="#DB985F"/>
<path d="M315.139 88.9685C311.049 90.7185 304.929 91.2885 302.679 88.4485C301.509 86.9685 302.279 85.6985 301.379 84.5585C298.979 81.4685 289.599 85.6884 280.629 88.7084C268.629 92.7084 250.199 98.9285 241.189 91.8185C239.349 90.3685 238.069 88.4984 234.699 87.1484C230.289 85.3884 227.699 86.6885 222.509 85.3385C219.919 84.6485 214.349 82.7885 214.509 81.4385C214.929 76.3785 294.759 83.5685 318.029 77.0285C319.659 76.5785 323.709 75.2885 324.779 76.7685C326.229 78.8485 321.729 86.1385 315.139 88.9685Z" fill="#BE753E"/>
<path d="M129.259 84.2384C138.259 82.9284 151.459 81.1784 167.399 79.5684C191.549 77.1284 209.719 76.2784 223.179 75.6784C255.959 74.1984 291.859 72.6184 331.379 71.0084" fill="#DA975E"/>
<path d="M96.0491 64.4285C105.049 63.1185 118.249 61.3585 134.189 59.7585C158.339 57.3185 176.509 56.4685 189.969 55.8585C222.749 54.3785 258.649 52.8085 298.169 51.1885" fill="#DA975E"/>
<path d="M96.0491 27.6484C110.589 26.4284 125.256 25.1284 140.049 23.7484C161.839 21.7484 170.399 20.4884 187.139 19.0784C204.579 17.6084 219.339 16.8184 230.339 16.3584" stroke="#DA975E" stroke-width="3" stroke-miterlimit="10"/>
<path d="M292.329 32.3284C288.909 28.5284 280.239 32.6084 269.759 35.4484C248.469 41.2284 217.759 42.4484 208.659 39.5284C207.659 39.2084 203.999 37.8984 202.229 39.5284C201.771 39.9736 201.454 40.5437 201.317 41.1677C201.18 41.7917 201.23 42.4422 201.459 43.0384C202.639 45.4184 208.459 44.6484 214.299 44.0384C239.699 41.2884 249.979 42.9784 252.629 43.4584C255.789 44.0184 255.359 44.1784 261.199 45.5984C287.549 51.9784 309.599 51.9484 309.839 50.2684C310.019 49.0484 303.639 44.9284 298.169 38.2684C295.229 34.5984 294.279 34.4984 292.329 32.3284Z" fill="#BE753E"/>
<path d="M117.409 50.3984C124.48 47.7103 131.686 45.3938 138.999 43.4584C146.304 41.4861 153.704 39.8808 161.169 38.6484C164.909 38.0984 168.669 37.6484 172.409 37.1484L178.049 36.5584C179.929 36.3484 181.799 36.1084 183.679 35.9284L194.929 34.6484C196.809 34.4384 198.679 34.2184 200.559 33.9684L206.189 33.3784C213.709 32.5384 221.252 32.0184 228.819 31.8184C236.389 31.5984 243.959 31.5784 251.519 31.8984C266.645 32.5891 281.693 34.4818 296.519 37.5584V37.8484C288.989 37.2584 281.519 36.6484 273.979 36.1884C266.439 35.7284 258.979 35.3584 251.459 35.0984C247.699 34.9884 243.949 34.8484 240.199 34.7784C236.449 34.7084 232.679 34.6484 228.929 34.6384L217.649 34.7384C213.899 34.8784 210.129 34.8284 206.369 35.0184L200.729 35.2584C198.849 35.3684 196.969 35.5084 195.089 35.6584C191.329 35.9184 187.599 36.4184 183.859 36.8984C180.119 37.3784 176.429 38.1384 172.729 38.7984L161.679 41.0984C154.319 42.6384 146.949 44.0984 139.609 45.7184L117.559 50.7184L117.409 50.3984Z" fill="#DA975E"/>
<path d="M205.899 33.1685C213.806 33.6485 221.686 34.2518 229.539 34.9785C231.539 35.1385 233.459 35.3485 235.429 35.4985L241.339 35.8985C245.269 36.1685 249.209 36.4285 253.149 36.6385C261.019 37.1085 268.899 37.4585 276.789 37.7885L300.469 38.6185C296.529 38.8985 292.579 39.0285 288.619 39.1885C284.659 39.3485 280.709 39.3585 276.759 39.3485C268.839 39.3485 260.929 39.0785 253.029 38.6285C245.129 38.1785 237.229 37.6285 229.389 36.5185C221.549 35.4085 213.709 34.4085 205.899 33.1685Z" fill="#6C4033"/>
<path d="M325.009 63.2584C326.089 62.6884 327.479 65.6384 327.349 67.5384C327.219 69.4384 325.559 69.8984 324.819 70.4584C319.309 74.6284 307.399 74.4584 306.719 71.4584C305.939 67.8884 325.009 63.2584 325.009 63.2584Z" fill="#BD743D"/>
<path opacity="0.66" d="M13.9791 22.0284C14.8791 27.0884 18.6491 38.8084 21.5691 48.0984C25.8391 61.6484 38.9791 103.398 75.2791 127.888C87.0291 135.808 96.5991 138.748 115.749 144.618C168.119 160.678 216.909 156.378 251.749 153.298C259.999 152.578 260.099 152.348 260.109 152.408C260.539 154.488 15.3091 173.028 13.3691 168.358C11.4291 163.688 6.3191 86.3584 2.7791 45.2584C2.0991 37.2584 6.6591 30.1784 11.2791 24.5284C12.0305 23.5477 12.9436 22.7023 13.9791 22.0284Z" fill="#CB7A3E"/>
<path d="M120.379 171.029L113.759 331.678C113.708 332.913 113.903 334.145 114.331 335.303C114.76 336.461 115.414 337.523 116.255 338.427C117.097 339.331 118.11 340.059 119.235 340.569C120.36 341.079 121.575 341.361 122.809 341.398L183.739 343.239C184.589 343.265 185.434 343.114 186.222 342.795C187.01 342.477 187.723 341.997 188.315 341.387C188.907 340.777 189.365 340.051 189.66 339.254C189.955 338.457 190.081 337.607 190.029 336.758L179.919 167.958L120.379 171.029Z" fill="#DCA163"/>
<path d="M166.199 342.618C166.199 342.618 162.049 268.328 160.199 265.508C158.349 262.688 155.269 239.358 155.269 239.358L152.929 169.358L120.829 171.408L113.829 332.198C113.709 335.908 118.689 341.088 122.389 341.398L166.199 342.618Z" fill="#CB7A3E"/>
<path d="M142.829 170.658L143.609 218.138" stroke="#DCA163" stroke-width="2" stroke-miterlimit="10" stroke-linecap="round"/>
<path d="M128.379 276.499C125.651 287.246 125.786 298.52 128.769 309.199" stroke="#DCA163" stroke-width="2" stroke-miterlimit="10" stroke-linecap="round"/>
<path d="M129.019 177.308C128.789 182.838 128.599 191.078 129.019 201.048C129.523 213.187 130.823 225.28 132.909 237.248C135.519 252.568 137.359 281.248 134.859 339.248" stroke="#DCA163" stroke-width="2" stroke-miterlimit="10" stroke-linecap="round"/>
<path d="M147.009 240.428C149.399 246.686 149.659 253.558 147.749 259.978" stroke="#DCA163" stroke-width="1.27" stroke-miterlimit="10" stroke-linecap="round"/>
<path d="M150.149 290.568C151.079 297.858 151.879 305.518 152.479 313.568C153.159 322.568 153.479 331.108 153.649 339.258" stroke="#DCA163" stroke-width="2" stroke-miterlimit="10" stroke-linecap="round"/>
<path d="M169.309 169.348L168.559 193.228L167.309 169.368L169.309 169.348Z" fill="#B26D39"/>
<path d="M160.599 327.828L162.159 342.618" stroke="#BC7943" stroke-miterlimit="10"/>
<path d="M171.829 328.249L173.339 343.029" stroke="#BC7943" stroke-miterlimit="10"/>
<path d="M178.119 280.738L180.119 296.158L181.119 303.868C181.439 306.448 181.689 309.028 181.979 311.598L185.339 342.538L183.339 342.698L180.989 311.698C180.779 309.118 180.609 306.528 180.379 303.948L179.619 296.218L178.119 280.738Z" fill="#BC7943"/>
<path opacity="0.58" d="M120.929 170.388L114.929 249.268V334.608C114.929 336.263 115.587 337.851 116.757 339.021C117.927 340.191 119.514 340.848 121.169 340.848H133.869C133.869 340.848 130.079 321.258 129.459 314.648C128.059 299.948 129.229 270.338 128.159 255.648C127.599 248.058 124.869 233.028 124.399 225.428C123.799 215.838 120.849 195.948 124.399 187.028C126.509 181.718 140.089 170.418 140.089 170.418L120.929 170.388Z" fill="#B16936"/>
</svg>
