<svg width="194" height="105" viewBox="0 0 194 105" fill="none" xmlns="http://www.w3.org/2000/svg">
<path d="M43.0484 58.648C40.9364 57.928 39.0164 57.208 37.2884 56.488C35.5604 55.72 34.0724 54.808 32.8244 53.752C31.5764 52.696 30.5924 51.448 29.8724 50.008C29.2004 48.52 28.8644 46.72 28.8644 44.608C28.8644 40.528 30.4244 37.264 33.5444 34.816C36.7124 32.368 41.1284 31.144 46.7924 31.144C48.8564 31.144 50.7764 31.288 52.5524 31.576C54.3284 31.864 55.8404 32.32 57.0884 32.944C58.3844 33.52 59.3924 34.288 60.1124 35.248C60.8324 36.16 61.1924 37.24 61.1924 38.488C61.1924 39.736 60.9044 40.816 60.3284 41.728C59.7524 42.592 59.0564 43.336 58.2404 43.96C57.1844 43.288 55.7684 42.712 53.9924 42.232C52.2164 41.704 50.2724 41.44 48.1604 41.44C46.0004 41.44 44.4164 41.752 43.4084 42.376C42.4004 42.952 41.8964 43.696 41.8964 44.608C41.8964 45.328 42.2084 45.928 42.8324 46.408C43.4564 46.84 44.3924 47.248 45.6404 47.632L49.4564 48.856C53.9684 50.296 57.4244 52.144 59.8244 54.4C62.2724 56.608 63.4964 59.632 63.4964 63.472C63.4964 67.552 61.8884 70.864 58.6724 73.408C55.4564 75.904 50.7284 77.152 44.4884 77.152C42.2804 77.152 40.2164 76.96 38.2964 76.576C36.4244 76.24 34.7684 75.736 33.3284 75.064C31.9364 74.344 30.8324 73.48 30.0164 72.472C29.2484 71.416 28.8644 70.216 28.8644 68.872C28.8644 67.48 29.2724 66.304 30.0884 65.344C30.9044 64.336 31.7924 63.568 32.7524 63.04C34.0964 64.096 35.7284 65.008 37.6484 65.776C39.6164 66.544 41.7524 66.928 44.0564 66.928C46.4084 66.928 48.0644 66.568 49.0244 65.848C49.9844 65.128 50.4644 64.288 50.4644 63.328C50.4644 62.368 50.0804 61.648 49.3124 61.168C48.5444 60.64 47.4644 60.136 46.0724 59.656L43.0484 58.648ZM103.585 69.664C103.345 71.92 102.673 73.648 101.569 74.848C100.513 76.048 98.9526 76.648 96.8886 76.648C95.3526 76.648 93.9846 76.288 92.7846 75.568C91.5846 74.8 90.2886 73.528 88.8966 71.752L81.7686 62.824V75.928C81.2406 76.024 80.4486 76.144 79.3926 76.288C78.3846 76.48 77.3526 76.576 76.2966 76.576C75.2406 76.576 74.2806 76.504 73.4166 76.36C72.6006 76.216 71.9046 75.928 71.3286 75.496C70.7526 75.064 70.2966 74.488 69.9606 73.768C69.6726 73 69.5286 72.016 69.5286 70.816V29.128C70.0566 28.984 70.8246 28.84 71.8326 28.696C72.8886 28.504 73.9446 28.408 75.0006 28.408C76.0566 28.408 76.9926 28.48 77.8086 28.624C78.6726 28.768 79.3926 29.056 79.9686 29.488C80.5446 29.92 80.9766 30.52 81.2646 31.288C81.6006 32.008 81.7686 32.968 81.7686 34.168V53.176L94.1526 40.504C96.6486 40.504 98.6406 41.056 100.129 42.16C101.665 43.264 102.433 44.656 102.433 46.336C102.433 47.056 102.313 47.728 102.073 48.352C101.833 48.928 101.449 49.528 100.921 50.152C100.441 50.776 99.7926 51.448 98.9766 52.168C98.2086 52.84 97.2966 53.632 96.2406 54.544L92.0646 58.144L103.585 69.664ZM109.034 31.288C109.034 29.464 109.634 27.928 110.834 26.68C112.082 25.432 113.714 24.808 115.73 24.808C117.746 24.808 119.354 25.432 120.554 26.68C121.802 27.928 122.426 29.464 122.426 31.288C122.426 33.112 121.802 34.648 120.554 35.896C119.354 37.144 117.746 37.768 115.73 37.768C113.714 37.768 112.082 37.144 110.834 35.896C109.634 34.648 109.034 33.112 109.034 31.288ZM121.85 75.928C121.322 76.024 120.53 76.144 119.474 76.288C118.466 76.48 117.434 76.576 116.378 76.576C115.322 76.576 114.362 76.504 113.498 76.36C112.682 76.216 111.986 75.928 111.41 75.496C110.834 75.064 110.378 74.488 110.042 73.768C109.754 73 109.61 72.016 109.61 70.816V41.512C110.138 41.416 110.906 41.296 111.914 41.152C112.97 40.96 114.026 40.864 115.082 40.864C116.138 40.864 117.074 40.936 117.89 41.08C118.754 41.224 119.474 41.512 120.05 41.944C120.626 42.376 121.058 42.976 121.346 43.744C121.682 44.464 121.85 45.424 121.85 46.624V75.928ZM145.698 39.928C148.578 39.928 151.242 40.312 153.69 41.08C156.186 41.8 158.322 42.928 160.098 44.464C161.874 46 163.266 47.944 164.274 50.296C165.282 52.6 165.786 55.36 165.786 58.576C165.786 61.648 165.354 64.336 164.49 66.64C163.626 68.944 162.402 70.888 160.818 72.472C159.234 74.008 157.314 75.16 155.058 75.928C152.85 76.696 150.378 77.08 147.642 77.08C145.578 77.08 143.658 76.768 141.882 76.144V88.096C141.402 88.24 140.634 88.384 139.578 88.528C138.522 88.72 137.442 88.816 136.338 88.816C135.282 88.816 134.322 88.744 133.458 88.6C132.642 88.456 131.946 88.168 131.37 87.736C130.794 87.304 130.362 86.704 130.074 85.936C129.786 85.216 129.642 84.256 129.642 83.056V48.496C129.642 47.2 129.906 46.144 130.434 45.328C131.01 44.512 131.778 43.768 132.738 43.096C134.226 42.136 136.074 41.368 138.282 40.792C140.49 40.216 142.962 39.928 145.698 39.928ZM145.842 67.432C150.786 67.432 153.258 64.48 153.258 58.576C153.258 55.504 152.634 53.224 151.386 51.736C150.186 50.248 148.434 49.504 146.13 49.504C145.218 49.504 144.402 49.624 143.682 49.864C142.962 50.056 142.338 50.296 141.81 50.584V66.424C142.386 66.712 143.01 66.952 143.682 67.144C144.354 67.336 145.074 67.432 145.842 67.432Z" fill="#EFD55E"/>
</svg>
