<svg width="104" height="104" viewBox="0 0 104 104" fill="none" xmlns="http://www.w3.org/2000/svg">
<path d="M52 0C23.2804 0 0 23.2835 0 52C0 80.7165 23.2804 104 52 104C80.7196 104 104 80.7165 104 52C104 23.2835 80.7196 0 52 0ZM49.8066 55.51L33.9342 69.5583C31.7439 71.5 28.1923 71.5 26 69.5583V34.4427C28.1934 32.5 31.7439 32.5 33.9342 34.4427L49.8066 48.49C52 50.4254 52 53.5746 49.8066 55.51ZM81.7606 56.6842L61.9216 75.4166C59.1791 78 54.7394 78 52 75.4166V28.5896C54.7394 26 59.1791 26 61.9216 28.5896L81.7606 47.3158C84.5 49.9054 84.5 54.0946 81.7606 56.6842Z" fill="#FFFFCC"/>
</svg>
