<svg width="58" height="53" viewBox="0 0 58 53" fill="none" xmlns="http://www.w3.org/2000/svg">
<g filter="url(#filter0_d_502:1413)">
<path d="M38.0665 1.73014V43.2684C38.0658 43.5914 37.9635 43.9078 37.7712 44.182C37.5788 44.4562 37.3041 44.6773 36.9778 44.8204C36.6516 44.9635 36.2868 45.0229 35.9246 44.992C35.5623 44.9611 35.217 44.841 34.9275 44.6454L16.8121 32.395H8.65425C7.41986 32.395 6.23604 31.9598 5.3632 31.1851C4.49036 30.4104 4 29.3597 4 28.2641V15.4722C4 14.3766 4.49036 13.3259 5.3632 12.5512C6.23604 11.7765 7.41986 11.3413 8.65425 11.3413H16.9285L34.9973 0.309573C35.2901 0.129212 35.633 0.0233503 35.9887 0.00343997C36.3444 -0.0164704 36.6995 0.0503269 37.0156 0.196609C37.3316 0.342891 37.5966 0.563089 37.7819 0.833381C37.9671 1.10367 38.0655 1.41378 38.0665 1.73014Z" fill="#89D0C2"/>
</g>
<path d="M46.082 7C47.698 8.06363 53.0356 11.8468 54.587 18.4604C56.1912 25.3572 53.0415 32.6661 46.5102 37.5593" stroke="#89D0C2" stroke-width="4" stroke-miterlimit="10" stroke-linecap="round"/>
<path d="M43.0762 12C44.1056 12.6773 47.5076 15.0904 48.4901 19.3037C49.5107 23.7025 47.5017 28.3613 43.3401 31.4801" stroke="#89D0C2" stroke-width="4" stroke-miterlimit="10" stroke-linecap="round"/>
<defs>
<filter id="filter0_d_502:1413" x="0" y="0" width="42.0664" height="53" filterUnits="userSpaceOnUse" color-interpolation-filters="sRGB">
<feFlood flood-opacity="0" result="BackgroundImageFix"/>
<feColorMatrix in="SourceAlpha" type="matrix" values="0 0 0 0 0 0 0 0 0 0 0 0 0 0 0 0 0 0 127 0" result="hardAlpha"/>
<feOffset dy="4"/>
<feGaussianBlur stdDeviation="2"/>
<feComposite in2="hardAlpha" operator="out"/>
<feColorMatrix type="matrix" values="0 0 0 0 0 0 0 0 0 0 0 0 0 0 0 0 0 0 0.25 0"/>
<feBlend mode="normal" in2="BackgroundImageFix" result="effect1_dropShadow_502:1413"/>
<feBlend mode="normal" in="SourceGraphic" in2="effect1_dropShadow_502:1413" result="shape"/>
</filter>
</defs>
</svg>
