<svg xmlns="http://www.w3.org/2000/svg" viewBox="0 0 116.67 119.23"><defs><style>.cls-1{fill:#8cccc0;}.cls-2{fill:none;stroke:#8cccc0;stroke-linecap:round;stroke-miterlimit:10;stroke-width:3px;}</style></defs><g id="Layer_2" data-name="Layer 2"><g id="Layer_34" data-name="Layer 34"><path class="cls-1" d="M80.13,4.6v110a4.6,4.6,0,0,1-7.38,3.66L30.17,85.84H11a11,11,0,0,1-11-11V41A11,11,0,0,1,11,30h19.5L72.93.82A4.59,4.59,0,0,1,80.13,4.6Z"/><path class="cls-2" d="M96.71,26.17c3.35,2.5,14.41,11.43,17.6,27,3.33,16.28-3.21,33.53-16.74,45.08"/><path class="cls-2" d="M90.83,39.24a29.44,29.44,0,0,1,11.22,17.24c2.12,10.38-2,21.37-10.67,28.73"/></g></g></svg>